<svg width="16" height="16" viewBox="0 0 16 16" fill="none" xmlns="http://www.w3.org/2000/svg">
<circle cx="8" cy="8" r="7.5" fill="white" stroke="#D9D9D9"/>
<path d="M6.89398 7.27637C7.6203 7.09482 8.38056 7.09479 9.10687 7.27637L9.30218 7.3252C9.7627 7.44032 10.1959 7.64683 10.5756 7.93164L10.6 7.9502C11.4813 8.61119 12.0004 9.64836 12.0004 10.75C12.0004 11.6389 11.1646 12.2908 10.3022 12.0752L10.1577 12.0391C10.0529 12.0128 9.9515 11.975 9.85492 11.9268L9.64007 11.8203C8.6077 11.3041 7.39218 11.3041 6.3598 11.8203L6.14593 11.9268C6.0492 11.9751 5.94714 12.0128 5.84222 12.0391L5.69769 12.0752C4.83536 12.2907 4.00042 11.6389 4.00042 10.75C4.00042 9.64847 4.5187 8.6112 5.39984 7.9502L5.42523 7.93164C5.80489 7.64694 6.23731 7.44031 6.69769 7.3252L6.89398 7.27637ZM3.22113 5.29102C3.67069 4.97044 4.46869 6.179 4.78949 6.62891C5.11014 7.07857 5.00576 7.70376 4.55609 8.02441C4.10644 8.34487 3.48215 8.23963 3.16156 7.79004C2.84102 7.34024 2.77169 5.61195 3.22113 5.29102ZM11.767 6.28613C12.1902 5.93098 13.2655 4.96101 13.6205 5.38379C13.9755 5.80686 13.4753 7.46336 13.0522 7.81836C12.6291 8.17328 11.999 8.11829 11.644 7.69531C11.289 7.27224 11.344 6.64113 11.767 6.28613ZM6.50042 2.5C8.05237 2.50035 7.50042 5.44775 7.50042 6C7.50042 6.55219 6.55275 6.99985 6.00042 7C5.44814 7 5.00042 6.55228 5.00042 6C5.00042 5.44772 4.94814 2.5 6.50042 2.5ZM9.50042 2.5C11.0524 2.50035 11.0004 5.44775 11.0004 6C11.0004 6.55219 10.5526 6.99985 10.0004 7C9.44814 7 8.50042 6.55228 8.50042 6C8.50042 5.44772 7.94814 2.5 9.50042 2.5Z" fill="#7A4717"/>
</svg>
