<svg width="16" height="16" viewBox="0 0 16 16" fill="none" xmlns="http://www.w3.org/2000/svg">
<circle cx="8" cy="8" r="7.5" fill="white" stroke="#D9D9D9"/>
<path d="M12.9998 4.06055C13.6427 6.58896 11.7944 8.38698 11.2322 8.94922C10.7255 9.45594 9.79759 10.4246 8.49976 10.1396V14C8.49976 14.2761 8.2759 14.5 7.99976 14.5C7.72372 14.4999 7.49976 14.2761 7.49976 14V10.1514C6.23388 10.3933 5.32759 9.44795 4.82886 8.94922C4.26677 8.38713 2.41742 6.58907 3.0603 4.06055C4.5889 4.41757 5.38785 4.26603 6.94995 5.82812C7.44945 6.32762 7.8017 6.77848 8.03003 7.20996C8.25835 6.77839 8.61147 6.32774 9.11108 5.82812C10.673 4.26626 11.4714 4.41747 12.9998 4.06055Z" fill="#54B435"/>
</svg>
