<svg width="16" height="16" viewBox="0 0 16 16" fill="none" xmlns="http://www.w3.org/2000/svg">
<circle cx="8" cy="8" r="7.5" fill="white" stroke="#D9D9D9"/>
<path d="M11.6162 4.01074C12.4371 3.89933 13.2235 4.69648 13.3721 5.79102C13.5206 6.88556 13.7711 8.69523 12.9502 8.80664C12.7684 8.83131 12.551 8.76786 12.3184 8.64648C12.4434 9.70159 12.5055 10.9745 11.8213 11.0674C11.5911 11.0986 11.3025 10.9903 11.001 10.7979C10.9546 10.9011 10.9026 11.0042 10.8408 11.1045C10.2613 12.0448 9.30683 13.6035 8.60156 13.1689C8.33732 13.0061 8.1451 12.5866 8.03906 12.0762C7.90719 12.6106 7.68791 13.0493 7.40332 13.2041C6.67571 13.5999 5.80718 11.9928 5.2793 11.0225C5.20569 10.8872 5.14575 10.7487 5.09863 10.6104C4.67055 10.8492 4.25853 10.9729 3.97461 10.8896C3.35454 10.7072 3.53559 9.60092 3.79297 8.62012C3.45766 8.77185 3.14772 8.84045 2.91992 8.77344C2.12534 8.5395 2.6463 6.78716 2.95801 5.72754C3.26981 4.66817 4.16633 3.99882 4.96094 4.23242C5.02866 4.25234 5.09262 4.28027 5.1543 4.31152C5.30375 4.31881 5.44794 4.39194 5.54004 4.52441L7.41016 7.21484L7.4502 7.27246L7.47266 7.33887L8.1748 9.39258L9.03711 7.30957L9.05176 7.27344L9.07227 7.24121L10.7021 4.55078C10.7592 4.45659 10.8431 4.38807 10.9375 4.34863C11.1279 4.16609 11.3586 4.04578 11.6162 4.01074Z" fill="#A0E9FF"/>
</svg>
