<svg width="16" height="16" viewBox="0 0 16 16" fill="none" xmlns="http://www.w3.org/2000/svg">
<mask id="mask0_339_355" style="mask-type:alpha" maskUnits="userSpaceOnUse" x="0" y="0" width="16" height="16">
<circle cx="8" cy="8" r="7.5" fill="white" stroke="#D9D9D9"/>
</mask>
<g mask="url(#mask0_339_355)">
<circle cx="8" cy="8" r="8" fill="white"/>
<path d="M8 0V16" stroke="#4F4F4F" stroke-linecap="round"/>
<path d="M16 8H0" stroke="#4F4F4F" stroke-linecap="round"/>
<path d="M0 0L16 16" stroke="#4F4F4F" stroke-linecap="round"/>
<path d="M16 0L-4.19585e-07 16" stroke="#4F4F4F" stroke-linecap="round"/>
<circle cx="8" cy="8" r="7.5" stroke="#D9D9D9"/>
<path d="M5.5 5.58579V5.5H5.58579C6.49129 5.5 7.35971 5.14029 8 4.5C8.64029 5.14029 9.50871 5.5 10.4142 5.5H10.5V5.58579C10.5 6.49129 10.8597 7.35971 11.5 8C10.8597 8.64029 10.5 9.50871 10.5 10.4142V10.5H10.4142C9.50871 10.5 8.64029 10.8597 8 11.5C7.35971 10.8597 6.49129 10.5 5.58579 10.5H5.5V10.4142C5.5 9.50871 5.14029 8.64029 4.5 8C5.14029 7.35971 5.5 6.49129 5.5 5.58579Z" stroke="#4F4F4F" stroke-linecap="round"/>
<path d="M7.6491 2.26319L8.00016 1.9999L8.35095 2.26301C9.43941 3.07943 10.6801 3.66997 12.0001 3.9999L12.3306 4.82614C12.7757 5.93903 13.3352 7.00267 14.0001 7.9999L13.7369 8.35088C12.9205 9.4393 12.33 10.68 12.0001 11.9999C10.68 12.33 9.43923 12.9206 8.35064 13.737L8.00012 13.9999L7.64932 13.7368C6.56076 12.9205 5.32001 12.33 4 12L3.91603 11.5801C3.64476 10.2238 2.97808 8.97808 2 8L2.26299 7.64935C3.07942 6.56077 3.67005 5.31998 4.00016 3.9999C5.32006 3.66996 6.56069 3.07949 7.6491 2.26319Z" stroke="#4F4F4F" stroke-linecap="round"/>
</g>
</svg>
