<svg width="16" height="16" viewBox="0 0 16 16" fill="none" xmlns="http://www.w3.org/2000/svg">
<circle cx="8" cy="8" r="7.5" fill="white" stroke="#D9D9D9"/>
<path d="M13.5 6.5C13.7761 6.5 14 6.72386 14 7V9.07422C14 9.65912 13.7341 10.2127 13.2773 10.5781C12.936 10.8512 12.5114 11 12.0742 11H11.5C10.6908 11 9.90529 10.7242 9.27344 10.2188L9 10L8.97461 9.92285C8.71325 9.13874 8.56026 8.32382 8.51562 7.5H7.48438C7.43974 8.32382 7.28675 9.13874 7.02539 9.92285L7 10L6.72656 10.2188C6.09471 10.7242 5.30916 11 4.5 11H3.92578C3.4886 11 3.06404 10.8512 2.72266 10.5781C2.26592 10.2127 2 9.65912 2 9.07422V7C2 6.72386 2.22386 6.5 2.5 6.5H13.5Z" fill="#2D2D2D"/>
<path d="M5 8C5.55228 8 6 8.44772 6 9" stroke="#DDDDDD" stroke-linecap="round"/>
<path d="M12 8C12.5523 8 13 8.44772 13 9" stroke="#DDDDDD" stroke-linecap="round"/>
</svg>
