<svg width="16" height="16" viewBox="0 0 16 16" fill="none" xmlns="http://www.w3.org/2000/svg">
<circle cx="8" cy="8" r="7.5" fill="white" stroke="#D9D9D9"/>
<path d="M6.9999 6.00004L8.5 5.5L7.0279 13.3514C7.01469 13.4218 6.9338 13.4559 6.87414 13.4161L6.07512 12.8835C5.72903 12.6527 5.56191 12.2319 5.65543 11.8266L6.9999 6.00004Z" fill="#FF6565"/>
<path d="M9.0001 6.00004L7.5 5.5L8.97229 13.3513C8.98551 13.4218 9.06639 13.4559 9.12605 13.4161L9.92505 12.8834C10.2712 12.6527 10.4383 12.2318 10.3447 11.8265L9.0001 6.00004Z" fill="#FF6565"/>
<path d="M2 5C2 4.44772 2.44772 4 3 4C3.97632 4 4.92901 4.30031 5.72885 4.86019L7 5.75V6V6.5V7.5L5.78624 8.22826C4.94459 8.73325 3.98152 9 3 9C2.44772 9 2 8.55228 2 8V5Z" fill="#FF6565"/>
<path d="M2 8.25C2 7.83579 2.33579 7.5 2.75 7.5H4H6H7L5.78624 8.22826C4.94459 8.73325 3.98152 9 3 9H2.75C2.33579 9 2 8.66421 2 8.25Z" fill="#E82323"/>
<path d="M9 5.75L10.2712 4.86019C11.071 4.30031 12.0237 4 13 4C13.5523 4 14 4.44772 14 5V8C14 8.55228 13.5523 9 13 9C12.0185 9 11.0554 8.73325 10.2138 8.22826L9 7.5V6.5V6V5.75Z" fill="#FF6565"/>
<path d="M14 8.25C14 7.83579 13.6642 7.5 13.25 7.5H12H10H9L10.2138 8.22826C11.0554 8.73325 12.0185 9 13 9H13.25C13.6642 9 14 8.66421 14 8.25Z" fill="#E82323"/>
<path d="M7 5.58512C7 5.53811 7.03811 5.5 7.08512 5.5H8.91488C8.96189 5.5 9 5.53811 9 5.58512V7.49378C9 7.61831 8.91809 7.728 8.7987 7.76337C8.27743 7.91781 7.72257 7.91781 7.2013 7.76337C7.08191 7.728 7 7.61831 7 7.49378V5.58512Z" fill="#FFB2B2"/>
</svg>
