<svg width="16" height="16" viewBox="0 0 16 16" fill="none" xmlns="http://www.w3.org/2000/svg">
<mask id="mask0_332_38" style="mask-type:alpha" maskUnits="userSpaceOnUse" x="0" y="0" width="16" height="16">
<circle cx="8" cy="8" r="8" fill="#D9D9D9"/>
</mask>
<g mask="url(#mask0_332_38)">
<circle cx="8" cy="8" r="8" fill="white"/>
<path d="M0 3L1.10557 3.55279C1.66863 3.83431 2.33137 3.83431 2.89443 3.55279L3.10557 3.44721C3.66863 3.16569 4.33137 3.16569 4.89443 3.44721L5.10557 3.55279C5.66863 3.83431 6.33137 3.83431 6.89443 3.55279L7.10557 3.44721C7.66863 3.16569 8.33137 3.16569 8.89443 3.44721L9.10557 3.55279C9.66863 3.83431 10.3314 3.83431 10.8944 3.55279L11.1056 3.44721C11.6686 3.16569 12.3314 3.16569 12.8944 3.44721L13.1056 3.55279C13.6686 3.83431 14.3314 3.83431 14.8944 3.55279L16 3V9H0V3Z" fill="#0692BC"/>
<path d="M-1 7L0.105573 7.55279C0.668628 7.83431 1.33137 7.83431 1.89443 7.55279L2.10557 7.44721C2.66863 7.16569 3.33137 7.16569 3.89443 7.44721L4.10557 7.55279C4.66863 7.83431 5.33137 7.83431 5.89443 7.55279L6.10557 7.44721C6.66863 7.16569 7.33137 7.16569 7.89443 7.44721L8.10557 7.55279C8.66863 7.83431 9.33137 7.83431 9.89443 7.55279L10.1056 7.44721C10.6686 7.16569 11.3314 7.16569 11.8944 7.44721L12.1056 7.55279C12.6686 7.83431 13.3314 7.83431 13.8944 7.55279L15 7V13H-1V7Z" fill="#2CCEFF"/>
<path d="M0 10L1.10557 10.5528C1.66863 10.8343 2.33137 10.8343 2.89443 10.5528L3.10557 10.4472C3.66863 10.1657 4.33137 10.1657 4.89443 10.4472L5.10557 10.5528C5.66863 10.8343 6.33137 10.8343 6.89443 10.5528L7.10557 10.4472C7.66863 10.1657 8.33137 10.1657 8.89443 10.4472L9.10557 10.5528C9.66863 10.8343 10.3314 10.8343 10.8944 10.5528L11.1056 10.4472C11.6686 10.1657 12.3314 10.1657 12.8944 10.4472L13.1056 10.5528C13.6686 10.8343 14.3314 10.8343 14.8944 10.5528L16 10V16H0V10Z" fill="#A0E9FF"/>
<circle cx="8" cy="8" r="7.5" stroke="#D9D9D9"/>
</g>
</svg>
