<svg width="16" height="16" viewBox="0 0 16 16" fill="none" xmlns="http://www.w3.org/2000/svg">
<circle cx="8" cy="8" r="7.5" fill="white" stroke="#D9D9D9"/>
<circle cx="8" cy="8" r="1" fill="#00A6D8"/>
<path d="M8 8V2.5" stroke="#00A6D8" stroke-linecap="round"/>
<path d="M8 13.5V8" stroke="#00A6D8" stroke-linecap="round"/>
<path d="M8 8H13.5" stroke="#00A6D8" stroke-linecap="round"/>
<path d="M11.5 5.5L10 8L11.5 10.5" stroke="#00A6D8" stroke-linecap="round"/>
<path d="M13.5 6.5L12 8L13.5 9.5" stroke="#00A6D8" stroke-linecap="round"/>
<path d="M4.5 5.5L6 8L4.5 10.5" stroke="#00A6D8" stroke-linecap="round"/>
<path d="M2.5 6.5L4 8L2.5 9.5" stroke="#00A6D8" stroke-linecap="round"/>
<path d="M10.5 4.5L8 6L5.5 4.5" stroke="#00A6D8" stroke-linecap="round"/>
<path d="M9.5 2.5L8 4L6.5 2.5" stroke="#00A6D8" stroke-linecap="round"/>
<path d="M10.5 11.5L8 10L5.5 11.5" stroke="#00A6D8" stroke-linecap="round"/>
<path d="M9.5 13.5L8 12L6.5 13.5" stroke="#00A6D8" stroke-linecap="round"/>
<path d="M2.5 8H8" stroke="#00A6D8" stroke-linecap="round"/>
</svg>
