<svg width="29" height="60" viewBox="0 0 29 60" fill="none" xmlns="http://www.w3.org/2000/svg">
<mask id="mask0_244_4" style="mask-type:alpha" maskUnits="userSpaceOnUse" x="0" y="11" width="29" height="48">
<path d="M11.3828 11.8047L15.0674 12.0752L15.1074 12.0781L15.1475 12.0742L17.5508 11.8662C20.1257 11.6429 22.6805 12.4782 24.626 14.1797L25.2539 14.7295C27.3164 16.5334 28.4999 19.1398 28.5 21.8799V26.1055C28.5 27.1197 28.3372 28.1279 28.0186 29.0908L24.6016 39.417C22.4113 46.0349 19.2699 52.2994 15.2773 58.0137C14.8998 58.554 14.1002 58.554 13.7227 58.0137C9.73012 52.2994 6.5887 46.0349 4.39844 39.417L0.981445 29.0908C0.662761 28.1279 0.5 27.1197 0.5 26.1055V21.8799C0.500055 19.1398 1.68363 16.5334 3.74609 14.7295L4.43262 14.1289C6.34521 12.4561 8.84868 11.6187 11.3828 11.8047Z" fill="#FF952C" stroke="#774E25"/>
</mask>
<g mask="url(#mask0_244_4)">
<path d="M11.3457 12.3037L15.0312 12.5742L15.1104 12.5801L15.1904 12.5723L17.5938 12.3643C20.0332 12.1527 22.4538 12.9446 24.2969 14.5566L24.9248 15.1055C26.8787 16.8144 27.9999 19.2841 28 21.8799V26.1055C28 27.0664 27.8459 28.0214 27.5439 28.9336L24.127 39.2607C21.9519 45.8325 18.8328 52.0531 14.8682 57.7275C14.6896 57.9831 14.3104 57.9831 14.1318 57.7275C10.1672 52.0531 7.04806 45.8325 4.87305 39.2607L1.45605 28.9336C1.15414 28.0214 1 27.0664 1 26.1055V21.8799C1.00005 19.2841 2.12129 16.8144 4.0752 15.1055L4.76172 14.5049C6.57363 12.9201 8.94498 12.1275 11.3457 12.3037Z" fill="#FF952C" stroke="#B17030" stroke-width="2"/>
<path d="M15 35.5V35.5C19.7498 37.0833 24.9584 36.4635 29.204 33.81L30.5 33" stroke="#E08325" stroke-width="2" stroke-linecap="round"/>
<path d="M15 41.5V41.5C19.7498 43.0833 24.9584 42.4635 29.204 39.81L30.5 39" stroke="#E08325" stroke-width="2" stroke-linecap="round"/>
</g>
<path d="M15 16L9 1" stroke="#2B833E" stroke-width="2"/>
<path d="M15 16V2" stroke="#2B833E" stroke-width="2"/>
<path d="M15 16L20 5" stroke="#2B833E" stroke-width="2"/>
<path d="M12 16V16C13.9543 16.6514 16.0598 16.6972 18.0406 16.1313L18.5 16" stroke="#B17030" stroke-width="2"/>
</svg>
