<svg width="36" height="67" viewBox="0 0 36 67" fill="none" xmlns="http://www.w3.org/2000/svg">
<path d="M18 14C22.6505 14 26.0613 14.6801 28.5303 16.0049C31.0418 17.3525 32.4996 19.3253 33.3037 21.7099C34.0922 24.0484 34.2499 26.7755 34.2275 29.666C34.2163 31.1184 34.1584 32.6421 34.1045 34.1982C34.0504 35.7601 34 37.3623 34 39V39.0752L33.9883 39.1494C32.9672 45.916 31.232 49.5889 28.6387 52.8437C27.3685 54.4379 25.8993 55.9234 24.2744 57.5928C22.6402 59.2717 20.8141 61.1696 18.7695 63.6377L18 64.5674L17.2295 63.6377C15.185 61.1698 13.3597 59.2716 11.7256 57.5928C10.1007 55.9233 8.63153 54.4379 7.36133 52.8437C4.76802 49.5889 3.03177 45.9161 2.01074 39.1494L2 39.0752V39C2 37.3623 1.94958 35.76 1.89551 34.1982C1.84163 32.6421 1.7837 31.1184 1.77246 29.666C1.7501 26.7756 1.90684 24.0484 2.69531 21.7099C3.49942 19.3252 4.95816 17.3525 7.46973 16.0049C9.93867 14.6801 13.3495 14 18 14Z" fill="#FFFFF3" stroke="#AED8A4" stroke-width="2"/>
<path d="M18 19L12 3.99998" stroke="#2B833E" stroke-width="2"/>
<path d="M16.5994 17.6882L12 12" stroke="#2B833E" stroke-width="2"/>
<path d="M18 19V4.99998" stroke="#2B833E" stroke-width="2"/>
<path d="M17.7931 15.6413L22.2075 2.3555" stroke="#2B833E" stroke-width="2"/>
<path d="M18 19L23 7.99998" stroke="#2B833E" stroke-width="2"/>
<path d="M15.77 12.5355L15.2303 0.464474" stroke="#2B833E" stroke-width="2"/>
<path d="M14 18V18C15.9543 18.6514 18.0598 18.6972 20.0406 18.1312L20.5 18" stroke="#AAF19A" stroke-width="2"/>
</svg>
