<svg width="51" height="43" viewBox="0 0 51 43" fill="none" xmlns="http://www.w3.org/2000/svg">
<path d="M17.8555 2.17948C19.2749 0.671596 21.6482 0.600053 23.1562 2.01932C24.6642 3.43879 24.7358 5.81204 23.3164 7.32011L13.2646 17.9998H45.9355C48.0065 17.9999 49.6855 19.6788 49.6855 21.7498C49.6855 23.8208 48.0065 25.4997 45.9355 25.4998H13.2646L23.3164 36.1795C24.7358 37.6875 24.6642 40.0608 23.1562 41.4803C21.6952 42.8553 19.4223 42.8308 17.9912 41.4568L17.8555 41.3201L2.82324 25.3484C2.55746 25.066 2.33019 24.7607 2.13867 24.4402C1.43662 23.7587 1 22.8055 1 21.7498C1.00002 20.6943 1.43591 19.7408 2.1377 19.0594C2.32927 18.7388 2.55734 18.4337 2.82324 18.1512L17.8555 2.17948Z" fill="white"/>
<path d="M17.8555 2.17948L17.4914 1.83677L17.4914 1.8368L17.8555 2.17948ZM23.1562 2.01932L23.499 1.65525L23.4989 1.65521L23.1562 2.01932ZM23.3164 7.32011L23.6805 7.66279L23.6805 7.66279L23.3164 7.32011ZM13.2646 17.9998L12.9006 17.6571L12.1074 18.4998H13.2646V17.9998ZM45.9355 17.9998L45.9356 17.4998H45.9355V17.9998ZM49.6855 21.7498H50.1855V21.7498L49.6855 21.7498ZM45.9355 25.4998V25.9998H45.9356L45.9355 25.4998ZM13.2646 25.4998V24.9998H12.1074L12.9006 25.8425L13.2646 25.4998ZM23.3164 36.1795L23.6805 35.8368L23.6805 35.8368L23.3164 36.1795ZM23.1562 41.4803L23.4989 41.8444L23.499 41.8443L23.1562 41.4803ZM17.9912 41.4568L17.6363 41.8092L17.6449 41.8175L17.9912 41.4568ZM17.8555 41.3201L17.4912 41.6629L17.5007 41.6724L17.8555 41.3201ZM2.82324 25.3484L2.45913 25.6911L2.45914 25.6911L2.82324 25.3484ZM2.13867 24.4402L2.56786 24.1837L2.53412 24.1273L2.48693 24.0815L2.13867 24.4402ZM1 21.7498L0.5 21.7498V21.7498H1ZM2.1377 19.0594L2.48601 19.4181L2.53318 19.3723L2.5669 19.3158L2.1377 19.0594ZM2.82324 18.1512L2.45914 17.8085L2.45914 17.8085L2.82324 18.1512ZM17.8555 2.17948L18.2195 2.52219C19.4497 1.21542 21.5065 1.15335 22.8136 2.38344L23.1562 2.01932L23.4989 1.65521C21.7898 0.04676 19.1001 0.127771 17.4914 1.83677L17.8555 2.17948ZM23.1562 2.01932L22.8135 2.38339C24.1204 3.61356 24.1825 5.67039 22.9523 6.97742L23.3164 7.32011L23.6805 7.66279C25.2891 5.95368 25.208 3.26402 23.499 1.65525L23.1562 2.01932ZM23.3164 7.32011L22.9523 6.97742L12.9006 17.6571L13.2646 17.9998L13.6287 18.3425L23.6805 7.66279L23.3164 7.32011ZM13.2646 17.9998V18.4998H45.9355V17.9998V17.4998H13.2646V17.9998ZM45.9355 17.9998L45.9355 18.4998C47.7304 18.4999 49.1855 19.955 49.1855 21.7498L49.6855 21.7498L50.1855 21.7498C50.1855 19.4027 48.2826 17.4999 45.9356 17.4998L45.9355 17.9998ZM49.6855 21.7498H49.1855C49.1855 23.5446 47.7304 24.9997 45.9355 24.9998L45.9355 25.4998L45.9356 25.9998C48.2826 25.9996 50.1855 24.097 50.1855 21.7498H49.6855ZM45.9355 25.4998V24.9998H13.2646V25.4998V25.9998H45.9355V25.4998ZM13.2646 25.4998L12.9006 25.8425L22.9523 36.5222L23.3164 36.1795L23.6805 35.8368L13.6287 25.1571L13.2646 25.4998ZM23.3164 36.1795L22.9523 36.5222C24.1825 37.8292 24.1204 39.886 22.8135 41.1162L23.1562 41.4803L23.499 41.8443C25.208 40.2356 25.2891 37.5459 23.6805 35.8368L23.3164 36.1795ZM23.1562 41.4803L22.8136 41.1162C21.5474 42.3078 19.5775 42.2867 18.3375 41.0962L17.9912 41.4568L17.6449 41.8175C19.2671 43.375 21.843 43.4028 23.4989 41.8444L23.1562 41.4803ZM17.9912 41.4568L18.346 41.1045L18.2103 40.9678L17.8555 41.3201L17.5007 41.6724L17.6364 41.8091L17.9912 41.4568ZM17.8555 41.3201L18.2196 40.9774L3.18734 25.0057L2.82324 25.3484L2.45914 25.6911L17.4914 41.6628L17.8555 41.3201ZM2.82324 25.3484L3.18735 25.0058C2.94745 24.7508 2.74174 24.4746 2.56786 24.1837L2.13867 24.4402L1.70949 24.6967C1.91865 25.0467 2.16747 25.3812 2.45913 25.6911L2.82324 25.3484ZM2.13867 24.4402L2.48693 24.0815C1.87772 23.4901 1.5 22.6646 1.5 21.7498H1H0.5C0.5 22.9464 0.995519 24.0274 1.79041 24.799L2.13867 24.4402ZM1 21.7498L1.5 21.7498C1.50002 20.8349 1.87722 20.0092 2.48601 19.4181L2.1377 19.0594L1.78938 18.7007C0.994608 19.4724 0.50002 20.5537 0.5 21.7498L1 21.7498ZM2.1377 19.0594L2.5669 19.3158C2.74045 19.0254 2.94685 18.7494 3.18735 18.4938L2.82324 18.1512L2.45914 17.8085C2.16783 18.118 1.91809 18.4521 1.70849 18.8029L2.1377 19.0594ZM2.82324 18.1512L3.18734 18.4938L18.2196 2.52216L17.8555 2.17948L17.4914 1.8368L2.45914 17.8085L2.82324 18.1512Z" fill="#00A9FF"/>
</svg>
