<svg width="70" height="96" viewBox="0 0 70 96" fill="none" xmlns="http://www.w3.org/2000/svg">
<path d="M35 0C54.33 0 70 15.67 70 35C70 46.985 63.9744 57.5607 54.7891 63.8691L59.8516 70.4844C61.2931 72.3676 62.5731 74.3691 63.6777 76.4678C65.1586 79.2815 66.3168 82.254 67.1289 85.3281L69.4502 94.1172C69.6616 94.9181 69.1837 95.7386 68.3828 95.9502C67.5819 96.1616 66.7614 95.6837 66.5498 94.8828L64.2285 86.0947C63.4743 83.2395 62.3989 80.4786 61.0234 77.8652C59.9975 75.9159 58.8086 74.0568 57.4697 72.3076L52.2334 65.4678C47.1458 68.3516 41.2657 70 35 70C28.734 70 22.8534 68.3519 17.7656 65.4678L12.5303 72.3076C11.1914 74.0568 10.0025 75.9159 8.97656 77.8652C7.60112 80.4786 6.52571 83.2395 5.77148 86.0947L3.4502 94.8828C3.23864 95.6837 2.41807 96.1616 1.61719 95.9502C0.816313 95.7386 0.338391 94.9181 0.549805 94.1172L2.87109 85.3281C3.68315 82.254 4.84137 79.2815 6.32227 76.4678C7.42686 74.3691 8.70693 72.3676 10.1484 70.4844L15.21 63.8691C6.02499 57.5607 0 46.9847 0 35C0 15.67 15.67 0 35 0ZM35 3C17.3269 3 3 17.3269 3 35C3 52.6731 17.3269 67 35 67C52.6731 67 67 52.6731 67 35C67 17.3269 52.6731 3 35 3ZM40.2676 21.0186C40.5174 20.2839 41.282 19.8672 42.0225 20.0371L42.1699 20.0791L42.8701 20.332C56.9569 25.7454 56.9906 45.6534 43.2959 51.4814L47.5527 52.5449L47.6992 52.5898C48.4138 52.8478 48.8311 53.6113 48.6436 54.3643C48.4551 55.1172 47.7276 55.5939 46.9756 55.4854L46.8242 55.4551L39.8945 53.7227C38.4617 53.3641 37.65 51.8481 38.1465 50.457L40.2754 44.4951C40.5545 43.7159 41.4137 43.3086 42.1934 43.5869C42.9729 43.8655 43.3793 44.7252 43.1016 45.5049L41.9238 48.8047C53.6036 44.0187 53.3481 27.0395 41.207 22.9209C40.4228 22.6548 40.0018 21.8029 40.2676 21.0186ZM22.7129 17.0146L22.8643 17.0449L29.7939 18.7773C31.2266 19.1359 32.0382 20.6521 31.542 22.043L29.4131 28.0049C29.1343 28.7846 28.275 29.1915 27.4951 28.9131C26.7153 28.6343 26.3085 27.7751 26.5869 26.9951L27.7646 23.6953C16.0845 28.4811 16.3403 45.4604 28.4814 49.5791C29.2655 49.8452 29.6864 50.6972 29.4209 51.4814C29.1714 52.2166 28.4067 52.6328 27.666 52.4629L27.5186 52.4209L26.8184 52.168C12.7315 46.7545 12.6974 26.8463 26.3926 21.0186L22.1357 19.9551L21.9893 19.9102C21.2744 19.6521 20.8568 18.889 21.0449 18.1357C21.2335 17.3829 21.9609 16.9061 22.7129 17.0146Z" fill="#00496F"/>
</svg>
