<svg width="27" height="27" viewBox="0 0 27 27" fill="none" xmlns="http://www.w3.org/2000/svg">
<path d="M1.74718 1.74715C2.74342 0.750966 4.35837 0.750934 5.3546 1.74715L13.5001 9.89266L21.6456 1.74715L21.839 1.57235C22.841 0.75508 24.319 0.813159 25.253 1.74715C26.1869 2.68115 26.2451 4.15928 25.4278 5.16121L25.253 5.35457L17.1075 13.5001L25.253 21.6456L25.4278 21.8389C26.2451 22.8409 26.187 24.319 25.253 25.253C24.319 26.187 22.841 26.2451 21.839 25.4278L21.6456 25.253L13.5001 17.1075L5.3546 25.253C4.35839 26.2491 2.7434 26.2491 1.74718 25.253C0.750971 24.2568 0.751045 22.6418 1.74718 21.6456L9.89269 13.5001L1.74718 5.35457C0.750942 4.35833 0.750939 2.74339 1.74718 1.74715Z" fill="white"/>
<path d="M1.74718 1.74715L1.5668 1.56676L1.56679 1.56676L1.74718 1.74715ZM5.3546 1.74715L5.53499 1.56676L5.53499 1.56676L5.3546 1.74715ZM13.5001 9.89266L13.3197 10.073L13.5001 10.2534L13.6805 10.073L13.5001 9.89266ZM21.6456 1.74715L21.4743 1.55767L21.4652 1.56676L21.6456 1.74715ZM21.839 1.57235L21.6775 1.3744L21.6679 1.38311L21.839 1.57235ZM25.253 1.74715L25.4334 1.56678L25.4334 1.56676L25.253 1.74715ZM25.4278 5.16121L25.6173 5.33251L25.6255 5.32245L25.4278 5.16121ZM25.253 5.35457L25.4337 5.53519L25.4423 5.52565L25.253 5.35457ZM17.1075 13.5001L16.9271 13.3197L16.7468 13.5001L16.9271 13.6805L17.1075 13.5001ZM25.253 21.6456L25.4425 21.4743L25.4334 21.4652L25.253 21.6456ZM25.4278 21.8389L25.6258 21.6775L25.6171 21.6679L25.4278 21.8389ZM25.253 25.253L25.4334 25.4334L25.4334 25.4334L25.253 25.253ZM21.839 25.4278L21.6677 25.6173L21.6777 25.6255L21.839 25.4278ZM21.6456 25.253L21.465 25.4336L21.4745 25.4422L21.6456 25.253ZM13.5001 17.1075L13.6805 16.9271L13.5001 16.7467L13.3197 16.9271L13.5001 17.1075ZM5.3546 25.253L5.53498 25.4334L5.53499 25.4334L5.3546 25.253ZM1.74718 25.253L1.56679 25.4334L1.56681 25.4334L1.74718 25.253ZM1.74718 21.6456L1.56679 21.4652L1.56678 21.4652L1.74718 21.6456ZM9.89269 13.5001L10.0731 13.6805L10.2535 13.5001L10.0731 13.3197L9.89269 13.5001ZM1.74718 5.35457L1.56679 5.53496L1.56679 5.53496L1.74718 5.35457ZM1.74718 1.74715L1.92756 1.92754C2.82419 1.03097 4.27762 1.03095 5.17422 1.92754L5.3546 1.74715L5.53499 1.56676C4.43913 0.470919 2.66266 0.470962 1.5668 1.56676L1.74718 1.74715ZM5.3546 1.74715L5.17421 1.92754L13.3197 10.073L13.5001 9.89266L13.6805 9.71227L5.53499 1.56676L5.3546 1.74715ZM13.5001 9.89266L13.6805 10.073L21.826 1.92754L21.6456 1.74715L21.4652 1.56676L13.3197 9.71227L13.5001 9.89266ZM21.6456 1.74715L21.8167 1.93639L22.0101 1.76158L21.839 1.57235L21.6679 1.38311L21.4745 1.55791L21.6456 1.74715ZM21.839 1.57235L22.0002 1.77003C22.9018 1.03463 24.2322 1.08709 25.0727 1.92754L25.253 1.74715L25.4334 1.56676C24.4059 0.539225 22.7801 0.475529 21.6777 1.37466L21.839 1.57235ZM25.253 1.74715L25.0726 1.92752C25.913 2.76799 25.9655 4.09842 25.2302 4.99997L25.4278 5.16121L25.6255 5.32245C26.5246 4.22013 26.4608 2.59431 25.4334 1.56678L25.253 1.74715ZM25.4278 5.16121L25.2386 4.99013L25.0638 5.18349L25.253 5.35457L25.4423 5.52565L25.6171 5.33229L25.4278 5.16121ZM25.253 5.35457L25.0727 5.17419L16.9271 13.3197L17.1075 13.5001L17.2879 13.6805L25.4334 5.53496L25.253 5.35457ZM17.1075 13.5001L16.9271 13.6805L25.0727 21.826L25.253 21.6456L25.4334 21.4652L17.2879 13.3197L17.1075 13.5001ZM25.253 21.6456L25.0638 21.8167L25.2386 22.01L25.4278 21.8389L25.6171 21.6679L25.4423 21.4745L25.253 21.6456ZM25.4278 21.8389L25.2302 22.0002C25.9656 22.9018 25.9131 24.2322 25.0726 25.0726L25.253 25.253L25.4334 25.4334C26.4609 24.4058 26.5247 22.78 25.6255 21.6777L25.4278 21.8389ZM25.253 25.253L25.0727 25.0726C24.2322 25.9131 22.9018 25.9655 22.0002 25.2301L21.839 25.4278L21.6777 25.6255C22.7801 26.5247 24.4059 26.4609 25.4334 25.4334L25.253 25.253ZM21.839 25.4278L22.0101 25.2386L21.8167 25.0638L21.6456 25.253L21.4745 25.4422L21.6679 25.6171L21.839 25.4278ZM21.6456 25.253L21.826 25.0726L13.6805 16.9271L13.5001 17.1075L13.3197 17.2879L21.4652 25.4334L21.6456 25.253ZM13.5001 17.1075L13.3197 16.9271L5.17421 25.0726L5.3546 25.253L5.53499 25.4334L13.6805 17.2879L13.5001 17.1075ZM5.3546 25.253L5.17423 25.0726C4.27764 25.9691 2.82415 25.9691 1.92755 25.0726L1.74718 25.253L1.56681 25.4334C2.66264 26.5291 4.43914 26.5291 5.53498 25.4334L5.3546 25.253ZM1.74718 25.253L1.92756 25.0726C1.03099 24.1761 1.03104 22.7226 1.92758 21.826L1.74718 21.6456L1.56678 21.4652C0.471049 22.5611 0.47095 24.3376 1.56679 25.4334L1.74718 25.253ZM1.74718 21.6456L1.92756 21.826L10.0731 13.6805L9.89269 13.5001L9.7123 13.3197L1.56679 21.4652L1.74718 21.6456ZM9.89269 13.5001L10.0731 13.3197L1.92756 5.17419L1.74718 5.35457L1.56679 5.53496L9.7123 13.6805L9.89269 13.5001ZM1.74718 5.35457L1.92757 5.17419C1.03095 4.27757 1.03095 2.82415 1.92756 1.92754L1.74718 1.74715L1.56679 1.56676C0.470928 2.66263 0.470932 4.43909 1.56679 5.53496L1.74718 5.35457Z" fill="#00A9FF"/>
</svg>
