<svg width="40" height="40" viewBox="0 0 40 40" fill="none" xmlns="http://www.w3.org/2000/svg">
<path d="M20 0C31.0457 0 40 8.95432 40 20C40 31.0457 31.0457 40 20 40C8.95432 40 0 31.0457 0 20C0 8.95432 8.95432 0 20 0ZM32.4438 10.9328C31.1918 10.0251 29.4405 10.3043 28.5328 11.5562L19.0617 24.6203L12.1633 16.2226C11.1817 15.0279 9.41752 14.8552 8.22264 15.8367C7.02791 16.8183 6.85522 18.5825 7.83672 19.7774L16.3789 30.1766C17.8758 31.9987 20.6908 31.9138 22.075 30.0047L33.0672 14.8438C33.9749 13.5918 33.6957 11.8405 32.4438 10.9328Z" fill="white"/>
<path d="M10 18L18.2044 28.0276C18.6115 28.5252 19.3756 28.5149 19.7691 28.0066L31 13.5" stroke="#00C914" stroke-width="6" stroke-linecap="round"/>
</svg>
