<svg width="50" height="50" viewBox="0 0 50 50" fill="none" xmlns="http://www.w3.org/2000/svg">
<path d="M25 0C38.8071 0 50 11.1929 50 25C50 38.8071 38.8071 50 25 50C11.1929 50 0 38.8071 0 25C0 11.1929 11.1929 0 25 0ZM40.5547 13.666C38.9897 12.5314 36.8006 12.8804 35.666 14.4453L23.8271 30.7754L15.2041 20.2783C13.9771 18.7849 11.7719 18.569 10.2783 19.7959C8.78489 21.0229 8.56902 23.2281 9.7959 24.7217L20.4736 37.7207C22.3447 39.9984 25.8635 39.8922 27.5938 37.5059L41.334 18.5547C42.4686 16.9897 42.1196 14.8006 40.5547 13.666Z" fill="white"/>
</svg>
