<svg width="50" height="50" viewBox="0 0 50 50" fill="none" xmlns="http://www.w3.org/2000/svg">
<path d="M25 0C38.8071 0 50 11.1929 50 25C50 38.8071 38.8071 50 25 50C11.1929 50 0 38.8071 0 25C0 11.1929 11.1929 0 25 0ZM39.502 11.5527C38.1503 10.1711 35.9345 10.1465 34.5527 11.498L25.5 20.3535L16.4473 11.498C15.0655 10.1465 12.8497 10.171 11.498 11.5527C10.1465 12.9345 10.1711 15.1503 11.5527 16.502L20.4951 25.25L11.5527 33.998C10.171 35.3497 10.1465 37.5655 11.498 38.9473C12.8497 40.3288 15.0655 40.3535 16.4473 39.002L25.5 30.1455L34.5527 39.002C35.9345 40.3533 38.1503 40.3289 39.502 38.9473C40.8535 37.5655 40.8288 35.3497 39.4473 33.998L30.5039 25.25L39.4473 16.502C40.8289 15.1503 40.8533 12.9345 39.502 11.5527Z" fill="white"/>
</svg>
