<svg width="40" height="40" viewBox="0 0 40 40" fill="none" xmlns="http://www.w3.org/2000/svg">
<path d="M20 0C31.0457 0 40 8.95431 40 20C40 31.0457 31.0457 40 20 40C8.95431 40 0 31.0457 0 20C0 8.95431 8.95431 0 20 0Z" fill="white"/>
<path d="M27.1526 8.69854C28.5344 7.34696 30.7501 7.37151 32.1018 8.75323C33.4534 10.135 33.4288 12.3508 32.0471 13.7025L25.4046 20.1995L32.0481 26.6985C33.4293 28.0502 33.454 30.2661 32.1028 31.6478C30.7512 33.0294 28.5344 33.0538 27.1526 31.7025L20.3997 25.096L13.6477 31.7025C12.2659 33.0538 10.0491 33.0294 8.69752 31.6478C7.34626 30.2661 7.37094 28.0502 8.75221 26.6985L15.3948 20.1995L8.75318 13.7025C7.37146 12.3508 7.34691 10.135 8.6985 8.75323C10.0502 7.37152 12.2659 7.34697 13.6477 8.69854L20.3997 15.304L27.1526 8.69854Z" fill="#FF3434"/>
</svg>
