<svg width="50" height="50" viewBox="0 0 50 50" fill="none" xmlns="http://www.w3.org/2000/svg">
<mask id="path-1-inside-1_35_467" fill="white">
<path d="M25 0C28.2853 0 30.9516 2.64051 30.9971 5.91504C32.0815 6.25545 33.126 6.68584 34.1221 7.19727C35.2056 6.12775 36.6942 5.4668 38.3369 5.4668C41.6503 5.46699 44.3367 8.15341 44.3369 11.4668C44.3369 13.0782 43.6998 14.5402 42.666 15.6182C43.2373 16.6917 43.7139 17.8232 44.084 19.002C47.359 19.0469 50 21.7143 50 25C50 28.2857 47.359 30.9521 44.084 30.9971C43.7435 32.0815 43.3132 33.1259 42.8018 34.1221C43.8716 35.2056 44.5332 36.6939 44.5332 38.3369C44.533 41.6503 41.8466 44.3367 38.5332 44.3369C36.9215 44.3369 35.4588 43.7001 34.3809 42.666C33.3073 43.2373 32.1759 43.7139 30.9971 44.084C30.9521 47.359 28.2857 50 25 50C21.7143 50 19.0469 47.359 19.002 44.084C17.9175 43.7435 16.873 43.3133 15.877 42.8018C14.7934 43.8712 13.3058 44.5332 11.6631 44.5332C8.34975 44.5329 5.6643 41.8465 5.66406 38.5332C5.66406 36.9218 6.29929 35.4588 7.33301 34.3809C6.76179 33.3073 6.28508 32.1759 5.91504 30.9971C2.64051 30.9516 0 28.2853 0 25C0 21.7147 2.64051 19.0474 5.91504 19.002C6.2555 17.9176 6.68581 16.873 7.19727 15.877C6.12805 14.7935 5.46777 13.3056 5.46777 11.6631C5.46798 8.34972 8.15344 5.66335 11.4668 5.66309C13.078 5.66309 14.5403 6.29956 15.6182 7.33301C16.6917 6.76175 17.8232 6.28513 19.002 5.91504C19.0474 2.64051 21.7147 0 25 0ZM24.6709 14.6982C23.5797 17.1618 20.9172 18.6618 18.1445 18.1729C17.9548 18.1394 17.769 18.0961 17.5869 18.0459C18.558 20.8334 17.3447 23.9466 14.6982 25.3281C17.1621 26.4192 18.6618 29.0826 18.1729 31.8555C18.1394 32.0452 18.0961 32.231 18.0459 32.4131C20.833 31.4421 23.9464 32.655 25.3281 35.3008C26.4194 32.8374 29.0829 31.3383 31.8555 31.8271C32.0452 31.8606 32.2311 31.903 32.4131 31.9531C31.4426 29.1661 32.655 26.0524 35.3008 24.6709C32.8377 23.5795 31.3383 20.9169 31.8271 18.1445C31.8606 17.9548 31.903 17.7689 31.9531 17.5869C29.1658 18.5575 26.0522 17.3446 24.6709 14.6982Z"/>
</mask>
<path d="M25 0C28.2853 0 30.9516 2.64051 30.9971 5.91504C32.0815 6.25545 33.126 6.68584 34.1221 7.19727C35.2056 6.12775 36.6942 5.4668 38.3369 5.4668C41.6503 5.46699 44.3367 8.15341 44.3369 11.4668C44.3369 13.0782 43.6998 14.5402 42.666 15.6182C43.2373 16.6917 43.7139 17.8232 44.084 19.002C47.359 19.0469 50 21.7143 50 25C50 28.2857 47.359 30.9521 44.084 30.9971C43.7435 32.0815 43.3132 33.1259 42.8018 34.1221C43.8716 35.2056 44.5332 36.6939 44.5332 38.3369C44.533 41.6503 41.8466 44.3367 38.5332 44.3369C36.9215 44.3369 35.4588 43.7001 34.3809 42.666C33.3073 43.2373 32.1759 43.7139 30.9971 44.084C30.9521 47.359 28.2857 50 25 50C21.7143 50 19.0469 47.359 19.002 44.084C17.9175 43.7435 16.873 43.3133 15.877 42.8018C14.7934 43.8712 13.3058 44.5332 11.6631 44.5332C8.34975 44.5329 5.6643 41.8465 5.66406 38.5332C5.66406 36.9218 6.29929 35.4588 7.33301 34.3809C6.76179 33.3073 6.28508 32.1759 5.91504 30.9971C2.64051 30.9516 0 28.2853 0 25C0 21.7147 2.64051 19.0474 5.91504 19.002C6.2555 17.9176 6.68581 16.873 7.19727 15.877C6.12805 14.7935 5.46777 13.3056 5.46777 11.6631C5.46798 8.34972 8.15344 5.66335 11.4668 5.66309C13.078 5.66309 14.5403 6.29956 15.6182 7.33301C16.6917 6.76175 17.8232 6.28513 19.002 5.91504C19.0474 2.64051 21.7147 0 25 0ZM24.6709 14.6982C23.5797 17.1618 20.9172 18.6618 18.1445 18.1729C17.9548 18.1394 17.769 18.0961 17.5869 18.0459C18.558 20.8334 17.3447 23.9466 14.6982 25.3281C17.1621 26.4192 18.6618 29.0826 18.1729 31.8555C18.1394 32.0452 18.0961 32.231 18.0459 32.4131C20.833 31.4421 23.9464 32.655 25.3281 35.3008C26.4194 32.8374 29.0829 31.3383 31.8555 31.8271C32.0452 31.8606 32.2311 31.903 32.4131 31.9531C31.4426 29.1661 32.655 26.0524 35.3008 24.6709C32.8377 23.5795 31.3383 20.9169 31.8271 18.1445C31.8606 17.9548 31.903 17.7689 31.9531 17.5869C29.1658 18.5575 26.0522 17.3446 24.6709 14.6982Z" fill="white"/>
<path d="M30.9971 5.91504L29.9972 5.92892L30.0072 6.65242L30.6976 6.86913L30.9971 5.91504ZM34.1221 7.19727L33.6653 8.08686L34.3093 8.41752L34.8246 7.90895L34.1221 7.19727ZM38.3369 5.4668L38.337 4.4668H38.3369V5.4668ZM44.3369 11.4668H45.3369V11.4667L44.3369 11.4668ZM42.666 15.6182L41.9443 14.926L41.443 15.4487L41.7832 16.088L42.666 15.6182ZM44.084 19.002L43.1299 19.3015L43.3467 19.9919L44.0703 20.0019L44.084 19.002ZM44.084 30.9971L44.0703 29.9972L43.3467 30.0071L43.1299 30.6975L44.084 30.9971ZM42.8018 34.1221L41.9122 33.6653L41.5814 34.3094L42.0902 34.8247L42.8018 34.1221ZM44.5332 38.3369L45.5332 38.337V38.3369H44.5332ZM38.5332 44.3369V45.3369H38.5333L38.5332 44.3369ZM34.3809 42.666L35.0731 41.9444L34.5505 41.443L33.9111 41.7832L34.3809 42.666ZM30.9971 44.084L30.6975 43.1299L30.0071 43.3467L29.9972 44.0703L30.9971 44.084ZM19.002 44.084L20.0019 44.0703L19.9919 43.3467L19.3015 43.1299L19.002 44.084ZM15.877 42.8018L16.3338 41.9122L15.6897 41.5815L15.1745 42.0901L15.877 42.8018ZM11.6631 44.5332L11.663 45.5332H11.6631V44.5332ZM5.66406 38.5332H4.66406V38.5333L5.66406 38.5332ZM7.33301 34.3809L8.05476 35.073L8.55596 34.5504L8.21582 33.9111L7.33301 34.3809ZM5.91504 30.9971L6.86913 30.6976L6.65242 30.0072L5.92892 29.9972L5.91504 30.9971ZM5.91504 19.002L5.92892 20.0019L6.65238 19.9918L6.86912 19.3015L5.91504 19.002ZM7.19727 15.877L8.08684 16.3337L8.4175 15.6898L7.90904 15.1745L7.19727 15.877ZM5.46777 11.6631L4.46777 11.663V11.6631H5.46777ZM11.4668 5.66309V4.66309H11.4667L11.4668 5.66309ZM15.6182 7.33301L14.9261 8.05483L15.4487 8.55594L16.0879 8.2158L15.6182 7.33301ZM19.002 5.91504L19.3015 6.86912L19.9918 6.65238L20.0019 5.92892L19.002 5.91504ZM24.6709 14.6982L25.5574 14.2355L24.5971 12.3956L23.7566 14.2933L24.6709 14.6982ZM18.1445 18.1729L17.9708 19.1576L17.9709 19.1577L18.1445 18.1729ZM17.5869 18.0459L17.8525 17.0818L16.0158 16.5759L16.6426 18.3749L17.5869 18.0459ZM14.6982 25.3281L14.2355 24.4416L12.3955 25.4021L14.2934 26.2425L14.6982 25.3281ZM18.1729 31.8555L19.1577 32.0291L19.1577 32.0291L18.1729 31.8555ZM18.0459 32.4131L17.0818 32.1476L16.576 33.9841L18.3749 33.3574L18.0459 32.4131ZM25.3281 35.3008L24.4417 35.7637L25.4021 37.6027L26.2424 35.7058L25.3281 35.3008ZM31.8555 31.8271L32.0291 30.8423L32.0291 30.8423L31.8555 31.8271ZM32.4131 31.9531L32.1476 32.9172L33.9837 33.4228L33.3575 31.6243L32.4131 31.9531ZM35.3008 24.6709L35.7636 25.5573L37.6027 24.5971L35.7059 23.7566L35.3008 24.6709ZM31.8271 18.1445L30.8423 17.9709L30.8423 17.9709L31.8271 18.1445ZM31.9531 17.5869L32.9172 17.8524L33.4228 16.0163L31.6243 16.6425L31.9531 17.5869ZM25 0V1C27.7372 1 29.9593 3.19994 29.9972 5.92892L30.9971 5.91504L31.997 5.90116C31.9439 2.08109 28.8335 -1 25 -1V0ZM30.9971 5.91504L30.6976 6.86913C31.7272 7.19236 32.7191 7.60106 33.6653 8.08686L34.1221 7.19727L34.5788 6.30767C33.5328 5.77062 32.4357 5.31855 31.2966 4.96095L30.9971 5.91504ZM34.1221 7.19727L34.8246 7.90895C35.7288 7.01642 36.968 6.4668 38.3369 6.4668V5.4668V4.4668C36.4204 4.4668 34.6824 5.23907 33.4196 6.48558L34.1221 7.19727ZM38.3369 5.4668L38.3369 6.4668C41.098 6.46696 43.3367 8.7057 43.3369 11.4669L44.3369 11.4668L45.3369 11.4667C45.3366 7.60113 42.2026 4.46703 38.337 4.4668L38.3369 5.4668ZM44.3369 11.4668H43.3369C43.3369 12.8091 42.8073 14.026 41.9443 14.926L42.666 15.6182L43.3878 16.3103C44.5922 15.0544 45.3369 13.3474 45.3369 11.4668H44.3369ZM42.666 15.6182L41.7832 16.088C42.326 17.1078 42.7785 18.1823 43.1299 19.3015L44.084 19.002L45.0381 18.7024C44.6492 17.464 44.1487 16.2756 43.5488 15.1484L42.666 15.6182ZM44.084 19.002L44.0703 20.0019C46.7994 20.0393 49 22.2623 49 25H50H51C51 21.1663 47.9185 18.0545 44.0977 18.002L44.084 19.002ZM50 25H49C49 27.7375 46.7996 29.9597 44.0703 29.9972L44.084 30.9971L44.0977 31.997C47.9183 31.9445 51 28.8339 51 25H50ZM44.084 30.9971L43.1299 30.6975C42.8066 31.7273 42.398 32.7191 41.9122 33.6653L42.8018 34.1221L43.6913 34.5788C44.2285 33.5328 44.6804 32.4358 45.0381 31.2966L44.084 30.9971ZM42.8018 34.1221L42.0902 34.8247C42.9832 35.7291 43.5332 36.968 43.5332 38.3369H44.5332H45.5332C45.5332 36.4198 44.76 34.6821 43.5134 33.4195L42.8018 34.1221ZM44.5332 38.3369L43.5332 38.3369C43.5331 41.098 41.2943 43.3368 38.5331 43.3369L38.5332 44.3369L38.5333 45.3369C42.3989 45.3367 45.533 42.2026 45.5332 38.337L44.5332 38.3369ZM38.5332 44.3369V43.3369C37.1904 43.3369 35.9729 42.8075 35.0731 41.9444L34.3809 42.666L33.6886 43.3877C34.9448 44.5927 36.6526 45.3369 38.5332 45.3369V44.3369ZM34.3809 42.666L33.9111 41.7832C32.8911 42.326 31.8167 42.7786 30.6975 43.1299L30.9971 44.084L31.2966 45.0381C32.5351 44.6493 33.7234 44.1486 34.8506 43.5488L34.3809 42.666ZM30.9971 44.084L29.9972 44.0703C29.9597 46.7996 27.7375 49 25 49V50V51C28.8339 51 31.9445 47.9183 31.997 44.0977L30.9971 44.084ZM25 50V49C22.2623 49 20.0393 46.7994 20.0019 44.0703L19.002 44.084L18.002 44.0977C18.0545 47.9185 21.1663 51 25 51V50ZM19.002 44.084L19.3015 43.1299C18.2718 42.8066 17.2798 42.398 16.3338 41.9122L15.877 42.8018L15.4201 43.6913C16.4663 44.2285 17.5633 44.6804 18.7024 45.0381L19.002 44.084ZM15.877 42.8018L15.1745 42.0901C14.2698 42.983 13.0314 43.5332 11.6631 43.5332V44.5332V45.5332C13.5802 45.5332 15.3171 44.7595 16.5794 43.5135L15.877 42.8018ZM11.6631 44.5332L11.6632 43.5332C8.90226 43.533 6.66426 41.2944 6.66406 38.5331L5.66406 38.5332L4.66406 38.5333C4.66434 42.3986 7.79724 45.5329 11.663 45.5332L11.6631 44.5332ZM5.66406 38.5332H6.66406C6.66406 37.1899 7.19242 35.9722 8.05476 35.073L7.33301 34.3809L6.61126 33.6887C5.40616 34.9453 4.66406 36.6536 4.66406 38.5332H5.66406ZM7.33301 34.3809L8.21582 33.9111C7.6731 32.8911 7.22042 31.8166 6.86913 30.6976L5.91504 30.9971L4.96095 31.2966C5.34974 32.5351 5.85047 33.7235 6.4502 34.8506L7.33301 34.3809ZM5.91504 30.9971L5.92892 29.9972C3.19994 29.9593 1 27.7372 1 25H0H-1C-1 28.8335 2.08109 31.9439 5.90116 31.997L5.91504 30.9971ZM0 25H1C1 22.2626 3.20014 20.0397 5.92892 20.0019L5.91504 19.002L5.90116 18.0021C2.08087 18.0551 -1 21.1667 -1 25H0ZM5.91504 19.002L6.86912 19.3015C7.19241 18.2718 7.60105 17.2798 8.08684 16.3337L7.19727 15.877L6.30769 15.4202C5.77056 16.4662 5.31858 17.5634 4.96096 18.7024L5.91504 19.002ZM7.19727 15.877L7.90904 15.1745C7.01684 14.2705 6.46777 13.0319 6.46777 11.6631H5.46777H4.46777C4.46777 13.5792 5.23926 15.3165 6.48549 16.5794L7.19727 15.877ZM5.46777 11.6631L6.46777 11.6631C6.46795 8.90182 8.70594 6.66331 11.4669 6.66309L11.4668 5.66309L11.4667 4.66309C7.60094 4.66339 4.46801 7.79761 4.46777 11.663L5.46777 11.6631ZM11.4668 5.66309V6.66309C12.8091 6.66309 14.0264 7.19222 14.9261 8.05483L15.6182 7.33301L16.3102 6.61118C15.0542 5.40691 13.3468 4.66309 11.4668 4.66309V5.66309ZM15.6182 7.33301L16.0879 8.2158C17.1078 7.67309 18.1824 7.22048 19.3015 6.86912L19.002 5.91504L18.7024 4.96096C17.464 5.34978 16.2755 5.85041 15.1484 6.45022L15.6182 7.33301ZM19.002 5.91504L20.0019 5.92892C20.0397 3.20014 22.2626 1 25 1V0V-1C21.1667 -1 18.0551 2.08087 18.0021 5.90116L19.002 5.91504ZM24.6709 14.6982L23.7566 14.2933C22.8471 16.3466 20.6272 17.5952 18.3182 17.188L18.1445 18.1729L17.9709 19.1577C21.2073 19.7283 24.3123 17.977 25.5852 15.1032L24.6709 14.6982ZM18.1445 18.1729L18.3182 17.1881C18.1638 17.1608 18.0089 17.1249 17.8525 17.0818L17.5869 18.0459L17.3214 19.01C17.5291 19.0672 17.7457 19.1179 17.9708 19.1576L18.1445 18.1729ZM17.5869 18.0459L16.6426 18.3749C17.4513 20.6961 16.4399 23.2909 14.2355 24.4416L14.6982 25.3281L15.161 26.2146C18.2494 24.6024 19.6648 20.9706 18.5312 17.7169L17.5869 18.0459ZM14.6982 25.3281L14.2934 26.2425C16.3467 27.1517 17.5953 29.3724 17.188 31.6818L18.1729 31.8555L19.1577 32.0291C19.7283 28.7928 17.9776 25.6866 15.1031 24.4138L14.6982 25.3281ZM18.1729 31.8555L17.188 31.6818C17.1608 31.8362 17.1249 31.991 17.0818 32.1476L18.0459 32.4131L19.01 32.6786C19.0672 32.4709 19.1179 32.2543 19.1577 32.0291L18.1729 31.8555ZM18.0459 32.4131L18.3749 33.3574C20.6959 32.5488 23.2908 33.5598 24.4417 35.7637L25.3281 35.3008L26.2145 34.8379C24.602 31.7501 20.9701 30.3354 17.7169 31.4688L18.0459 32.4131ZM25.3281 35.3008L26.2424 35.7058C27.1518 33.653 29.3726 32.4048 31.6818 32.812L31.8555 31.8271L32.0291 30.8423C28.7932 30.2718 25.687 32.0219 24.4138 34.8957L25.3281 35.3008ZM31.8555 31.8271L31.6818 32.812C31.8392 32.8397 31.9944 32.8751 32.1476 32.9172L32.4131 31.9531L32.6786 30.989C32.4677 30.9309 32.2511 30.8815 32.0291 30.8423L31.8555 31.8271ZM32.4131 31.9531L33.3575 31.6243C32.5492 29.303 33.56 26.7079 35.7636 25.5573L35.3008 24.6709L34.8379 23.7845C31.7499 25.3968 30.336 29.0291 31.4687 32.282L32.4131 31.9531ZM35.3008 24.6709L35.7059 23.7566C33.6531 22.847 32.4048 20.627 32.812 18.3182L31.8271 18.1445L30.8423 17.9709C30.2718 21.2068 32.0223 24.312 34.8957 25.5852L35.3008 24.6709ZM31.8271 18.1445L32.812 18.3182C32.8397 18.1608 32.8751 18.0056 32.9172 17.8524L31.9531 17.5869L30.989 17.3214C30.9309 17.5323 30.8815 17.7489 30.8423 17.9709L31.8271 18.1445ZM31.9531 17.5869L31.6243 16.6425C29.3029 17.4508 26.7079 16.4396 25.5574 14.2355L24.6709 14.6982L23.7844 15.161C25.3965 18.2495 29.0287 19.6641 32.282 18.5313L31.9531 17.5869Z" fill="#00A9FF" mask="url(#path-1-inside-1_35_467)"/>
</svg>
