<svg width="55" height="47" viewBox="0 0 55 47" fill="none" xmlns="http://www.w3.org/2000/svg">
<path d="M26.5317 19.079L29.2477 24.2647C31.0719 27.748 31.1899 31.8784 29.5684 35.4606C28.7733 37.2169 27.5909 38.7703 26.1101 40.0047L22.7456 42.8089L18.6369 41.8544C17.1582 41.5109 15.7449 40.93 14.4516 40.1349C10.4616 37.6819 7.95261 33.405 7.75979 28.7252L7.57165 24.1593L26.5317 19.079Z" fill="#744322" stroke="#471D01"/>
<path d="M13.4663 9.12123C22.2292 6.77337 28.0241 12.3407 28.9927 15.9557C29.3512 17.2937 29.2917 18.1077 28.9976 18.6528C28.7042 19.1961 28.109 19.6006 27.0719 19.9482C26.0368 20.2952 24.6731 20.5512 22.9596 20.8783C21.2596 21.2027 19.2485 21.5916 16.9712 22.2018C14.6935 22.8121 12.7849 23.4735 11.1912 24.0316C9.58338 24.5947 8.33156 25.0391 7.31857 25.2411C6.30766 25.4428 5.65327 25.3771 5.17136 25.0532C4.67641 24.7203 4.23999 24.0334 3.87864 22.685C2.90358 19.046 4.72639 11.4631 13.4663 9.12123Z" fill="#CFB052" stroke="#471D01"/>
<rect x="12.0741" y="6.90613" width="2" height="3" transform="rotate(-15 12.0741 6.90613)" fill="#471D01"/>
<path d="M48.3249 19.313L48.5948 25.1607C48.776 29.0886 47.1374 32.8819 44.1539 35.4432C42.6911 36.6989 40.9629 37.607 39.0992 38.0999L34.8648 39.2196L31.5444 36.6181C30.3494 35.6818 29.3141 34.5581 28.478 33.2909C25.8984 29.3815 25.4321 24.4449 27.2351 20.1221L28.9942 15.9045L48.3249 19.313Z" fill="#744322" stroke="#471D01"/>
<path d="M40.6919 4.76658C49.626 6.34206 52.5252 13.8368 51.8753 17.5225C51.6347 18.8866 51.2368 19.5992 50.7398 19.9689C50.2444 20.3374 49.5339 20.4524 48.4471 20.3292C47.3623 20.2062 46.0182 19.8619 44.3271 19.4341C42.6493 19.0097 40.6622 18.5123 38.3404 18.1028C36.0182 17.6934 34.0088 17.4861 32.3286 17.3185C30.6335 17.1493 29.3111 17.023 28.3076 16.778C27.3062 16.5335 26.7409 16.1975 26.441 15.7002C26.1332 15.1894 26.0279 14.3824 26.2703 13.0076C26.9245 9.2975 31.7812 3.19538 40.6919 4.76658Z" fill="#CFB052" stroke="#471D01"/>
<rect x="40.3662" y="2.17059" width="2" height="3" transform="rotate(10 40.3662 2.17059)" fill="#471D01"/>
</svg>
