<svg width="28" height="38" viewBox="0 0 28 38" fill="none" xmlns="http://www.w3.org/2000/svg">
<path d="M23.8145 15.5L25.0957 21.2119C25.9563 25.0487 25.0012 29.0689 22.5078 32.1094C21.2853 33.6 19.7411 34.7944 17.9912 35.6035L14.0156 37.4414L10.2939 35.4561C8.9545 34.7414 7.73975 33.8146 6.69629 32.7119C3.4771 29.3098 2.16059 24.5292 3.18555 19.959L4.18555 15.5H23.8145Z" fill="#744322" stroke="#471D01"/>
<path d="M13.7715 2.5C22.8435 2.50015 27 9.37764 27 13.1201C26.9999 14.5053 26.7318 15.2762 26.3066 15.7266C25.8827 16.1755 25.203 16.4121 24.1113 16.4795C23.0216 16.5467 21.6382 16.4411 19.8984 16.3135C18.1724 16.1869 16.1291 16.042 13.7715 16.042C11.4135 16.042 9.39868 16.1868 7.71484 16.3135C6.01609 16.4413 4.6919 16.5465 3.66113 16.4795C2.63249 16.4126 2.0174 16.1798 1.63574 15.7422C1.24382 15.2925 1.00005 14.5161 1 13.1201C1 9.35277 4.72331 2.5 13.7715 2.5Z" fill="#CFB052" stroke="#471D01"/>
<rect x="13" width="2" height="3" fill="#471D01"/>
</svg>
