<svg width="56" height="47" viewBox="0 0 56 47" fill="none" xmlns="http://www.w3.org/2000/svg">
<path d="M17.999 12.9786C22.8493 11.679 27.5694 11.856 31.3366 13.3761C35.0933 14.8919 37.9106 17.7429 39.0092 21.8428C41.2029 30.03 35.1968 38.3935 25.5048 40.9905C15.8128 43.5874 6.42959 39.3475 4.23584 31.1603C3.13727 27.0604 4.15161 23.1827 6.64705 19.9916C9.1496 16.7916 13.1487 14.2783 17.999 12.9786Z" fill="#5C50E2" stroke="#190E52"/>
<path d="M16.6575 17.287L16.4768 17.7152C16.3505 18.0147 16.1531 18.2789 15.9017 18.4849L14.1427 19.9263C13.1333 20.7535 13.8111 22.3875 15.1096 22.2573C15.2382 22.2444 15.3674 22.2504 15.4943 22.2748C16.6536 22.4977 18.8337 22.8794 19.6153 22.8746C19.9916 22.8723 20.3016 22.5694 20.5419 22.1713C21.0239 21.3728 21.7604 20.6706 22.6928 20.6505L23.0747 20.6422C23.7664 20.6273 24.4012 20.256 24.7533 19.6604L25.2556 18.8104C25.8546 17.8677 25.1183 16.6463 24.0051 16.7356L21.2675 16.9554C20.8536 16.9887 20.4396 16.8922 20.0829 16.6796L19.5247 16.3466C18.4816 15.7245 17.1294 16.168 16.6575 17.287Z" fill="#A199F7" stroke="#190E52" stroke-linecap="round"/>
<path d="M37.2698 3.7049C42.2149 4.57685 46.4179 6.73207 49.1898 9.70183C51.9539 12.6633 53.3023 16.4378 52.5653 20.6179C51.0934 28.9651 42.1155 34.0067 32.234 32.2643C22.3526 30.522 15.6404 22.7138 17.1122 14.3665C17.8493 10.1865 20.4074 7.10076 24.0176 5.26328C27.6381 3.42068 32.3247 2.83294 37.2698 3.7049Z" fill="#5C50E2" stroke="#190E52"/>
<path d="M34.2332 7.04266L33.8886 7.3544C33.6475 7.57244 33.357 7.72844 33.042 7.8089L30.8387 8.37186C29.5742 8.69494 29.498 10.4623 30.7299 10.8931C30.8519 10.9357 30.9664 10.9958 31.0711 11.0716C32.0276 11.7635 33.8422 13.0308 34.5525 13.3568C34.8945 13.5137 35.3035 13.3702 35.6895 13.111C36.4638 12.591 37.428 12.2658 38.2817 12.6417L38.6312 12.7956C39.2644 13.0744 39.9967 13.0061 40.5675 12.6151L41.382 12.0571C42.3232 11.4558 42.1722 10.0376 41.1254 9.64816L38.5514 8.69041C38.1623 8.54561 37.8278 8.28326 37.5945 7.93978L37.2292 7.40209C36.5468 6.39749 35.1339 6.22798 34.2332 7.04266Z" fill="#A199F7" stroke="#190E52" stroke-linecap="round"/>
</svg>
