<svg width="37" height="30" viewBox="0 0 37 30" fill="none" xmlns="http://www.w3.org/2000/svg">
<path d="M18.5 0.5C23.5214 0.5 28.0348 1.89264 31.2803 4.33594C34.5166 6.77241 36.5 10.2555 36.5 14.5C36.5 22.976 28.5339 29.5 18.5 29.5C8.46612 29.5 0.5 22.976 0.5 14.5C0.5 10.2555 2.4834 6.77241 5.71973 4.33594C8.96523 1.89264 13.4786 0.5 18.5 0.5Z" fill="#5C50E2" stroke="#190E52"/>
<path d="M16.0891 4.31438L15.8038 4.68123C15.6043 4.93781 15.3452 5.1419 15.0491 5.27582L12.9769 6.21284C11.7878 6.75058 12.0196 8.50432 13.3076 8.71464C13.4352 8.73548 13.5584 8.77477 13.6746 8.83119C14.7367 9.34651 16.7438 10.2795 17.5 10.4771C17.864 10.5723 18.2419 10.3599 18.577 10.0376C19.2492 9.39105 20.1424 8.9034 21.0483 9.1253L21.4193 9.21617C22.0913 9.38077 22.8006 9.18638 23.2948 8.70218L24 8.01123C24.8225 7.2557 24.4275 5.88527 23.329 5.68348L20.6278 5.18724C20.2194 5.11222 19.8445 4.91193 19.5551 4.61418L19.102 4.14809C18.2555 3.27725 16.8346 3.35567 16.0891 4.31438Z" fill="#A199F7" stroke="#190E52" stroke-linecap="round"/>
</svg>
