<svg width="50" height="51" viewBox="0 0 50 51" fill="none" xmlns="http://www.w3.org/2000/svg">
<mask id="path-1-inside-1_112_422" fill="white">
<path d="M14.4223 2.4749C18.0644 -1.2603 25.6494 -1.01646 31.4389 4.92119C36.5738 10.1876 39.3451 19.589 38.4584 24.8157L46.2006 27.8763C46.6824 28.067 46.8824 28.6544 46.6215 29.1126L46.5541 29.2317C44.8085 32.2975 42.1629 34.7208 38.9965 36.1556C38.5373 36.3636 38.0061 36.1048 37.8754 35.6087L35.6059 26.9915C30.4035 27.237 21.7268 24.4166 16.7846 19.3479C10.995 13.4101 10.7802 6.21023 14.4223 2.4749Z"/>
</mask>
<path d="M14.4223 2.4749C18.0644 -1.2603 25.6494 -1.01646 31.4389 4.92119C36.5738 10.1876 39.3451 19.589 38.4584 24.8157L46.2006 27.8763C46.6824 28.067 46.8824 28.6544 46.6215 29.1126L46.5541 29.2317C44.8085 32.2975 42.1629 34.7208 38.9965 36.1556C38.5373 36.3636 38.0061 36.1048 37.8754 35.6087L35.6059 26.9915C30.4035 27.237 21.7268 24.4166 16.7846 19.3479C10.995 13.4101 10.7802 6.21023 14.4223 2.4749Z" fill="#6DD3F4"/>
<path d="M14.4223 2.4749L13.7063 1.77677L13.7063 1.77678L14.4223 2.4749ZM31.4389 4.92119L32.1549 4.22307L32.1549 4.22307L31.4389 4.92119ZM38.4584 24.8157L37.4725 24.6485L37.3369 25.4477L38.0908 25.7457L38.4584 24.8157ZM46.2006 27.8763L46.5687 26.9465L46.5682 26.9463L46.2006 27.8763ZM46.6215 29.1126L45.7524 28.6179L45.7511 28.6203L46.6215 29.1126ZM46.5541 29.2317L47.4231 29.7265L47.4246 29.724L46.5541 29.2317ZM38.9965 36.1556L39.4092 37.0664L39.4092 37.0664L38.9965 36.1556ZM37.8754 35.6087L36.9084 35.8634L36.9084 35.8634L37.8754 35.6087ZM35.6059 26.9915L36.5729 26.7368L36.3669 25.9545L35.5587 25.9926L35.6059 26.9915ZM16.7846 19.3479L16.0686 20.0461L16.0686 20.0461L16.7846 19.3479ZM14.4223 2.4749L15.1383 3.17303C18.2507 -0.0189401 25.1733 -0.0723673 30.7229 5.61931L31.4389 4.92119L32.1549 4.22307C26.1255 -1.96055 17.8781 -2.50165 13.7063 1.77677L14.4223 2.4749ZM31.4389 4.92119L30.7229 5.6193C33.1576 8.11635 35.0679 11.6384 36.2583 15.2003C37.4535 18.7763 37.8783 22.2569 37.4725 24.6485L38.4584 24.8157L39.4443 24.983C39.9253 22.1479 39.4078 18.3144 38.1552 14.5664C36.8979 10.8042 34.8551 6.9924 32.1549 4.22307L31.4389 4.92119ZM38.4584 24.8157L38.0908 25.7457L45.833 28.8062L46.2006 27.8763L46.5682 26.9463L38.8261 23.8857L38.4584 24.8157ZM46.2006 27.8763L45.8326 28.8061C45.7817 28.7859 45.7529 28.7458 45.7429 28.7164C45.733 28.6874 45.7342 28.6499 45.7525 28.6179L46.6215 29.1126L47.4906 29.6073C48.0421 28.6385 47.6347 27.3684 46.5687 26.9465L46.2006 27.8763ZM46.6215 29.1126L45.7511 28.6203L45.6837 28.7394L46.5541 29.2317L47.4246 29.724L47.4919 29.6049L46.6215 29.1126ZM46.5541 29.2317L45.6851 28.7369C44.0423 31.6222 41.555 33.8984 38.5838 35.2447L38.9965 36.1556L39.4092 37.0664C42.7707 35.5433 45.5747 32.9728 47.4231 29.7265L46.5541 29.2317ZM38.9965 36.1556L38.5838 35.2447C38.7069 35.1889 38.8206 35.2711 38.8424 35.3539L37.8754 35.6087L36.9084 35.8634C37.1916 36.9385 38.3678 37.5383 39.4092 37.0664L38.9965 36.1556ZM37.8754 35.6087L38.8424 35.354L36.5729 26.7368L35.6059 26.9915L34.6389 27.2462L36.9084 35.8634L37.8754 35.6087ZM35.6059 26.9915L35.5587 25.9926C33.1327 26.1071 29.8032 25.5027 26.4533 24.2279C23.109 22.9553 19.8424 21.0515 17.5006 18.6498L16.7846 19.3479L16.0686 20.0461C18.669 22.713 22.2118 24.7538 25.742 26.0972C29.2667 27.4384 32.8767 28.1214 35.653 27.9904L35.6059 26.9915ZM16.7846 19.3479L17.5006 18.6498C11.9437 12.9507 12.0057 6.38581 15.1383 3.17301L14.4223 2.4749L13.7063 1.77678C9.55473 6.03466 10.0463 13.8696 16.0686 20.0461L16.7846 19.3479Z" fill="#004E89" mask="url(#path-1-inside-1_112_422)"/>
<path d="M18.5004 15.0003L19.2261 14.777C22.8983 13.6471 25.9105 10.9981 27.5004 7.50031V7.50031" stroke="#004E89" stroke-linecap="round"/>
<path d="M23.0004 18.0003L23.4697 17.8518C26.3855 16.929 28.7642 14.7977 30.0004 12.0003V12.0003" stroke="#004E89" stroke-linecap="round"/>
<path d="M28.0004 21.0003L28.499 20.853C30.4794 20.268 32.1167 18.8667 33.0004 17.0003V17.0003" stroke="#004E89" stroke-linecap="round"/>
<mask id="path-6-inside-2_112_422" fill="white">
<path d="M3.44668 22.6671C3.83569 17.4646 9.80206 12.7764 18.0538 13.6036C25.3725 14.3372 33.538 19.7571 36.2184 24.3309L44.1166 21.6988C44.6081 21.535 45.1394 21.8562 45.2345 22.3747L45.2587 22.5099C45.8921 25.9806 45.4238 29.5382 43.9204 32.6726C43.7022 33.1269 43.1291 33.2689 42.7102 32.9729L35.4325 27.8319C31.6049 31.3639 23.1445 34.78 16.1007 34.074C7.84917 33.2467 3.05771 27.8695 3.44668 22.6671Z"/>
</mask>
<path d="M3.44668 22.6671C3.83569 17.4646 9.80206 12.7764 18.0538 13.6036C25.3725 14.3372 33.538 19.7571 36.2184 24.3309L44.1166 21.6988C44.6081 21.535 45.1394 21.8562 45.2345 22.3747L45.2587 22.5099C45.8921 25.9806 45.4238 29.5382 43.9204 32.6726C43.7022 33.1269 43.1291 33.2689 42.7102 32.9729L35.4325 27.8319C31.6049 31.3639 23.1445 34.78 16.1007 34.074C7.84917 33.2467 3.05771 27.8695 3.44668 22.6671Z" fill="#6DD3F4"/>
<path d="M3.44668 22.6671L2.44946 22.5925L2.44946 22.5925L3.44668 22.6671ZM18.0538 13.6036L18.1536 12.6086L18.1536 12.6086L18.0538 13.6036ZM36.2184 24.3309L35.3557 24.8365L35.7656 25.5359L36.5346 25.2796L36.2184 24.3309ZM44.1166 21.6988L44.4327 22.6475L44.4328 22.6475L44.1166 21.6988ZM45.2345 22.3747L46.2188 22.1984L46.2181 22.1945L45.2345 22.3747ZM45.2587 22.5099L44.2743 22.6862L44.2749 22.6895L45.2587 22.5099ZM43.9204 32.6726L44.8218 33.1054L44.822 33.1051L43.9204 32.6726ZM42.7102 32.9729L43.2873 32.1562L43.2871 32.1561L42.7102 32.9729ZM35.4325 27.8319L36.0094 27.0152L35.3488 26.5485L34.7543 27.097L35.4325 27.8319ZM16.1007 34.074L16.001 35.069L16.001 35.069L16.1007 34.074ZM3.44668 22.6671L4.44389 22.7416C4.77633 18.2958 10.0441 13.8057 17.9541 14.5986L18.0538 13.6036L18.1536 12.6086C9.55998 11.7472 2.89505 16.6333 2.44946 22.5925L3.44668 22.6671ZM18.0538 13.6036L17.9541 14.5986C21.4242 14.9465 25.1514 16.4164 28.3527 18.3796C31.5666 20.3506 34.1292 22.7437 35.3557 24.8365L36.2184 24.3309L37.0812 23.8252C35.6272 21.3443 32.7668 18.7405 29.3982 16.6747C26.017 14.6011 22.0021 12.9944 18.1536 12.6086L18.0538 13.6036ZM36.2184 24.3309L36.5346 25.2796L44.4327 22.6475L44.1166 21.6988L43.8004 20.7501L35.9023 23.3822L36.2184 24.3309ZM44.1166 21.6988L44.4328 22.6475C44.3808 22.6648 44.3332 22.6526 44.3068 22.6366C44.2808 22.6209 44.2575 22.5915 44.2508 22.5549L45.2345 22.3747L46.2181 22.1945C46.0171 21.0977 44.8877 20.3877 43.8004 20.7501L44.1166 21.6988ZM45.2345 22.3747L44.2501 22.551L44.2743 22.6862L45.2587 22.5099L46.243 22.3336L46.2188 22.1984L45.2345 22.3747ZM45.2587 22.5099L44.2749 22.6895C44.8711 25.956 44.4295 29.299 43.0187 32.2401L43.9204 32.6726L44.822 33.1051C46.4182 29.7773 46.9131 26.0053 46.2424 22.3304L45.2587 22.5099ZM43.9204 32.6726L43.0189 32.2397C43.0783 32.116 43.2191 32.1081 43.2873 32.1562L42.7102 32.9729L42.1331 33.7896C43.039 34.4297 44.3262 34.1377 44.8218 33.1054L43.9204 32.6726ZM42.7102 32.9729L43.2871 32.1561L36.0094 27.0152L35.4325 27.8319L34.8555 28.6487L42.1332 33.7897L42.7102 32.9729ZM35.4325 27.8319L34.7543 27.097C32.9694 28.7441 30.0301 30.4211 26.6444 31.5976C23.2643 32.7723 19.5381 33.4135 16.2005 33.079L16.1007 34.074L16.001 35.069C19.7072 35.4405 23.733 34.7267 27.3009 33.4868C30.8633 32.2489 34.0679 30.4518 36.1106 28.5669L35.4325 27.8319ZM16.1007 34.074L16.2005 33.079C8.28073 32.2849 4.10933 27.2164 4.44389 22.7416L3.44668 22.6671L2.44946 22.5925C2.00608 28.5226 7.41761 34.2084 16.001 35.069L16.1007 34.074Z" fill="#004E89" mask="url(#path-6-inside-2_112_422)"/>
<path d="M14.621 29.6405L15.0334 29.0031C17.1202 25.777 17.7249 21.8115 16.6945 18.1101V18.1101" stroke="#004E89" stroke-linecap="round"/>
<path d="M19.9966 29.0461L20.2606 28.6307C21.9011 26.0495 22.3533 22.8879 21.5021 19.9503V19.9503" stroke="#004E89" stroke-linecap="round"/>
<path d="M25.7552 28.1303L26.0424 27.6971C27.1835 25.9759 27.537 23.85 27.0142 21.8522V21.8522" stroke="#004E89" stroke-linecap="round"/>
</svg>
