<svg width="35" height="37" viewBox="0 0 35 37" fill="none" xmlns="http://www.w3.org/2000/svg">
<mask id="path-1-inside-1_112_392" fill="white">
<path d="M2.4223 2.47471C6.06443 -1.26027 13.6485 -1.01634 19.4379 4.921C24.5726 10.1871 27.3438 19.5877 26.4575 24.8146L34.1996 27.8761C34.6816 28.0666 34.8823 28.6541 34.6215 29.1124L34.5532 29.2316C32.8075 32.2973 30.1619 34.7207 26.9955 36.1554C26.5365 36.3632 26.0062 36.1044 25.8754 35.6085L23.6059 26.9913C18.4037 27.237 9.72696 24.4164 4.7846 19.3478C-1.00497 13.41 -1.21979 6.21005 2.4223 2.47471Z"/>
</mask>
<path d="M2.4223 2.47471C6.06443 -1.26027 13.6485 -1.01634 19.4379 4.921C24.5726 10.1871 27.3438 19.5877 26.4575 24.8146L34.1996 27.8761C34.6816 28.0666 34.8823 28.6541 34.6215 29.1124L34.5532 29.2316C32.8075 32.2973 30.1619 34.7207 26.9955 36.1554C26.5365 36.3632 26.0062 36.1044 25.8754 35.6085L23.6059 26.9913C18.4037 27.237 9.72696 24.4164 4.7846 19.3478C-1.00497 13.41 -1.21979 6.21005 2.4223 2.47471Z" fill="#6DD3F4"/>
<path d="M2.4223 2.47471L1.70635 1.77656L1.70631 1.7766L2.4223 2.47471ZM19.4379 4.921L20.1539 4.22289L20.1539 4.22287L19.4379 4.921ZM26.4575 24.8146L25.4715 24.6474L25.336 25.4465L26.0897 25.7445L26.4575 24.8146ZM34.1996 27.8761L33.8319 28.806L33.832 28.8061L34.1996 27.8761ZM34.6215 29.1124L35.4889 29.6101L35.4906 29.607L34.6215 29.1124ZM34.5532 29.2316L33.6858 28.7339L33.6842 28.7367L34.5532 29.2316ZM26.9955 36.1554L27.408 37.0664L27.4082 37.0662L26.9955 36.1554ZM25.8754 35.6085L24.9084 35.8632L24.9085 35.8635L25.8754 35.6085ZM23.6059 26.9913L24.5729 26.7366L24.3669 25.9543L23.5587 25.9924L23.6059 26.9913ZM4.7846 19.3478L4.06861 20.0459L4.06863 20.0459L4.7846 19.3478ZM2.4223 2.47471L3.13825 3.17287C6.25068 -0.0189179 13.1724 -0.0722588 18.722 5.61913L19.4379 4.921L20.1539 4.22287C14.1247 -1.96043 5.87817 -2.50162 1.70635 1.77656L2.4223 2.47471ZM19.4379 4.921L18.7219 5.61912C21.1565 8.11605 23.0668 11.6379 24.2571 15.1995C25.4522 18.7753 25.8771 22.2557 25.4715 24.6474L26.4575 24.8146L27.4434 24.9817C27.9241 22.1466 27.4066 18.3133 26.154 14.5655C24.8967 10.8036 22.854 6.99208 20.1539 4.22289L19.4379 4.921ZM26.4575 24.8146L26.0897 25.7445L33.8319 28.806L34.1996 27.8761L34.5674 26.9461L26.8252 23.8846L26.4575 24.8146ZM34.1996 27.8761L33.832 28.8061C33.7814 28.7861 33.7528 28.7462 33.7428 28.7169C33.7329 28.6879 33.734 28.6502 33.7524 28.6178L34.6215 29.1124L35.4906 29.607C36.0426 28.637 35.6328 27.3673 34.5672 26.9461L34.1996 27.8761ZM34.6215 29.1124L33.7542 28.6147L33.6858 28.7339L34.5532 29.2316L35.4205 29.7292L35.4889 29.6101L34.6215 29.1124ZM34.5532 29.2316L33.6842 28.7367C32.0412 31.622 29.5541 33.8983 26.5828 35.2445L26.9955 36.1554L27.4082 37.0662C30.7698 35.5431 33.5737 32.9726 35.4222 29.7264L34.5532 29.2316ZM26.9955 36.1554L26.5831 35.2444C26.7069 35.1883 26.8208 35.2716 26.8424 35.3535L25.8754 35.6085L24.9085 35.8635C25.1916 36.9372 26.366 37.5381 27.408 37.0664L26.9955 36.1554ZM25.8754 35.6085L26.8424 35.3538L24.5729 26.7366L23.6059 26.9913L22.6389 27.246L24.9084 35.8632L25.8754 35.6085ZM23.6059 26.9913L23.5587 25.9924C21.1328 26.107 17.8033 25.5026 14.4535 24.2278C11.1091 22.9551 7.84245 21.0513 5.50057 18.6496L4.7846 19.3478L4.06863 20.0459C6.66911 22.7128 10.212 24.7536 13.7421 26.097C17.2668 27.4383 20.8768 28.1213 23.6531 27.9902L23.6059 26.9913ZM4.7846 19.3478L5.50059 18.6496C-0.0562637 12.9505 0.00568803 6.38562 3.13828 3.17283L2.4223 2.47471L1.70631 1.7766C-2.44527 6.03447 -1.95368 13.8694 4.06861 20.0459L4.7846 19.3478Z" fill="#004E89" mask="url(#path-1-inside-1_112_392)"/>
<path d="M6.5 15L7.22564 14.7767C10.8979 13.6468 13.9101 10.9978 15.5 7.5V7.5" stroke="#004E89" stroke-linecap="round"/>
<path d="M11 18L11.4693 17.8515C14.3851 16.9287 16.7638 14.7974 18 12V12" stroke="#004E89" stroke-linecap="round"/>
<path d="M16 21L16.4985 20.8527C18.479 20.2677 20.1163 18.8664 21 17V17" stroke="#004E89" stroke-linecap="round"/>
</svg>
