<svg width="32" height="38" viewBox="0 0 32 38" fill="none" xmlns="http://www.w3.org/2000/svg">
<path d="M21.5 12.5V20.1172C21.5 22.7323 21.7586 25.3409 22.2715 27.9053L23.0488 31.7939C23.2717 32.9083 22.6885 34.0278 21.6475 34.4834C18.0474 36.0584 13.9526 36.0584 10.3525 34.4834C9.31147 34.0278 8.7283 32.9083 8.95117 31.7939L9.72852 27.9053C10.2414 25.3409 10.5 22.7323 10.5 20.1172V12.5H21.5Z" fill="#F7DA9F" stroke="#560000"/>
<path d="M16 0.5C20.1963 0.5 24.0677 3.28778 26.9219 6.88574C29.7784 10.4869 31.5 14.755 31.5 17.5C31.5 18.8393 31.0953 19.5269 30.4775 19.9131C29.8045 20.3339 28.7667 20.4743 27.3311 20.4248C25.9095 20.3758 24.2168 20.1484 22.2852 19.9277C20.3666 19.7086 18.2385 19.5 16 19.5C13.7615 19.5 11.6334 19.7086 9.71484 19.9277C7.78319 20.1484 6.09052 20.3758 4.66895 20.4248C3.23327 20.4743 2.19551 20.3339 1.52246 19.9131C0.904705 19.5269 0.5 18.8393 0.5 17.5C0.5 14.755 2.22157 10.4869 5.07812 6.88574C7.93226 3.28778 11.8037 0.5 16 0.5Z" fill="#E75353" stroke="#560000"/>
</svg>
