<svg width="58" height="47" viewBox="0 0 58 47" fill="none" xmlns="http://www.w3.org/2000/svg">
<path d="M24.695 17.2894L26.6665 24.6471C27.3434 27.1731 28.2684 29.6259 29.4274 31.9701L31.1847 35.5251C31.6884 36.5438 31.4149 37.7761 30.5272 38.4856C27.4575 40.9387 23.5022 41.9985 19.6171 41.409C18.4936 41.2383 17.6406 40.3079 17.5674 39.1738L17.3118 35.2165C17.1435 32.6068 16.7182 30.0201 16.0413 27.4941L14.0699 20.1365L24.695 17.2894Z" fill="#F7DA9F" stroke="#560000"/>
<path d="M16.2766 7.12183C20.3299 6.03575 24.791 7.72653 28.4791 10.4632C32.1703 13.2023 34.9379 16.8794 35.6484 19.5309C35.995 20.8245 35.7821 21.5934 35.2853 22.1264C34.7441 22.707 33.7781 23.1113 32.3785 23.435C30.9927 23.7556 29.2988 23.9741 27.3759 24.2609C25.4659 24.5457 23.3564 24.895 21.1942 25.4744C19.0319 26.0538 17.0304 26.806 15.2339 27.5143C13.4252 28.2274 11.849 28.8851 10.4886 29.3004C9.11462 29.7198 8.07588 29.8528 7.31685 29.6205C6.62018 29.4073 6.05131 28.8479 5.70468 27.5543C4.99422 24.9028 5.55245 20.3345 7.37964 16.1168C9.2053 11.9027 12.2233 8.2079 16.2766 7.12183Z" fill="#E75353" stroke="#560000"/>
<path d="M44.5146 16.0435L43.1919 23.545C42.7378 26.1203 42.5395 28.7343 42.5993 31.3487L42.6895 35.3133C42.7155 36.4494 41.9468 37.4506 40.8424 37.7185C37.0236 38.6445 32.991 37.9334 29.7191 35.7572C28.773 35.1277 28.3931 33.924 28.8061 32.8652L30.2469 29.1706C31.1972 26.7343 31.9049 24.2102 32.359 21.6348L33.6817 14.1334L44.5146 16.0435Z" fill="#F7DA9F" stroke="#560000"/>
<path d="M41.1819 3.27077C45.3145 3.99945 48.643 7.41715 50.829 11.4561C53.0168 15.4985 53.9711 20.0008 53.4944 22.7041C53.2619 24.023 52.7439 24.6298 52.0685 24.9029C51.3326 25.2005 50.2862 25.1586 48.8809 24.8605C47.4895 24.5653 45.862 24.0475 43.998 23.4948C42.1466 22.9458 40.0872 22.3708 37.8826 21.9821C35.6781 21.5934 33.5462 21.4293 31.6187 21.312C29.6781 21.1938 27.9716 21.1238 26.5631 20.9253C25.1407 20.7247 24.1431 20.4062 23.5533 19.8749C23.012 19.3873 22.7328 18.6399 22.9654 17.321C23.4421 14.6177 25.8786 10.7133 29.3171 7.66294C32.7527 4.61525 37.0494 2.5421 41.1819 3.27077Z" fill="#E75353" stroke="#560000"/>
</svg>
