<svg width="234" height="114" viewBox="0 0 234 114" fill="none" xmlns="http://www.w3.org/2000/svg">
<g filter="url(#filter0_d_33_202)">
<path d="M100.021 4.86981C122.333 -6.02913 147.866 3.50692 157.182 12.5928C166.497 21.6786 164.551 38.6148 168.923 34.7332C173.296 30.8516 184.935 30.1566 197.061 33.1633C211.611 36.7713 224.719 41.7948 229.571 50.4264C234.423 59.0579 231.512 67.6895 225.204 82.6811C218.896 97.6727 199.007 102.774 199.007 102.774C199.007 102.774 178.62 106.49 173.77 100.853C168.92 95.2154 164.059 107.478 135.443 109.357C106.826 111.236 93.221 100.304 89.8259 97.6727C86.4307 95.042 80.1145 97.8627 63.6237 103.124C47.1329 108.386 30.1431 90.4041 27.717 92.2212C25.2909 94.0384 12.6781 96.1034 6.37279 88.5869C0.0674752 81.0704 1.03752 71.2253 6.37279 64.8363C10.9866 59.3114 27.5448 60.2352 31.9388 60.5862C30.7899 59.4593 28.8808 57.4261 25.7818 53.9333C15.1114 41.9069 37.4289 26.8163 41.309 25.3129C45.1891 23.8096 52.4717 21.6786 58.2919 21.6786C64.1121 21.6786 81.0975 25.3129 81.0975 25.3129C81.0975 25.3129 77.7103 15.7687 100.021 4.86981Z" fill="white"/>
<path d="M229.674 51.043C234.379 59.6118 231.465 68.2263 225.203 83.1084C218.91 98.0653 199.098 103.178 199.007 103.201C199.007 103.201 178.619 106.917 173.769 101.279C168.919 95.6429 164.058 107.905 135.443 109.784C106.827 111.663 93.2208 100.731 89.8254 98.0996C86.4303 95.4688 80.1139 98.2893 63.6233 103.551C47.1324 108.812 30.1422 90.8313 27.716 92.6484C25.289 94.4655 12.6773 96.5297 6.37228 89.0137C4.01136 86.1992 2.67115 83.0582 2.19748 79.8945C3.07933 82.0284 4.15206 83.9235 5.3967 85.4072C11.7021 92.9236 25.2909 89.0408 27.717 87.2236C30.1435 85.4071 46.163 102.026 62.6535 96.7646C79.1443 91.5031 79.1529 87.3194 82.5481 89.9502C85.944 92.5818 100.514 106.82 129.129 104.941C157.745 103.062 165.038 89.31 169.888 94.9473C174.738 100.585 205.795 95.8555 205.795 95.8555C205.857 95.82 219.395 88.0978 225.689 73.1406C229.357 64.4228 230.398 57.2321 229.674 51.043Z" fill="#CDF5FD"/>
</g>
<defs>
<filter id="filter0_d_33_202" x="3.05176e-05" y="0" width="234" height="114" filterUnits="userSpaceOnUse" color-interpolation-filters="sRGB">
<feFlood flood-opacity="0" result="BackgroundImageFix"/>
<feColorMatrix in="SourceAlpha" type="matrix" values="0 0 0 0 0 0 0 0 0 0 0 0 0 0 0 0 0 0 127 0" result="hardAlpha"/>
<feOffset dy="2"/>
<feGaussianBlur stdDeviation="1"/>
<feComposite in2="hardAlpha" operator="out"/>
<feColorMatrix type="matrix" values="0 0 0 0 0 0 0 0 0 0 0 0 0 0 0 0 0 0 0.2 0"/>
<feBlend mode="normal" in2="BackgroundImageFix" result="effect1_dropShadow_33_202"/>
<feBlend mode="normal" in="SourceGraphic" in2="effect1_dropShadow_33_202" result="shape"/>
</filter>
</defs>
</svg>
