<svg width="111" height="29" viewBox="0 0 111 29" fill="none" xmlns="http://www.w3.org/2000/svg">
<path d="M10 4H11" stroke="black" stroke-width="7" stroke-linecap="round"/>
<path d="M4 10H17" stroke="black" stroke-width="7" stroke-linecap="round"/>
<circle cx="10.5" cy="21" r="4.5" stroke="black" stroke-width="7"/>
<path d="M23.5 4V15M23.5 25.5V15M23.5 15H30.1176" stroke="black" stroke-width="7" stroke-linecap="round"/>
<path d="M31 4V25.5" stroke="black" stroke-width="7" stroke-linecap="round"/>
<path d="M41 4V15.75M61 4V15.75M61 15.75V22.5C61 24.1568 59.6569 25.5 58 25.5H51M61 15.75H41M41 15.75V22.5C41 24.1568 42.3431 25.5 44 25.5H51M51 25.5V4M69 3.99995V25.5" stroke="black" stroke-width="7" stroke-linecap="round"/>
<path d="M80 4H106" stroke="black" stroke-width="7" stroke-linecap="round"/>
<path d="M80.9286 18L90.885 8.1025C92.0551 6.93931 93.9449 6.93931 95.115 8.1025L105.071 18" stroke="black" stroke-width="7" stroke-linecap="round"/>
<path d="M79 25.5H107" stroke="black" stroke-width="7" stroke-linecap="round"/>
<path d="M10 4H11" stroke="white" stroke-width="5" stroke-linecap="round"/>
<path d="M4 10H17" stroke="white" stroke-width="5" stroke-linecap="round"/>
<circle cx="10.5" cy="21" r="4.5" stroke="white" stroke-width="5"/>
<path d="M23.5 4V15M23.5 25.5V15M23.5 15H30.1176" stroke="white" stroke-width="5" stroke-linecap="round"/>
<path d="M31 4V25.5" stroke="white" stroke-width="5" stroke-linecap="round"/>
<path d="M41 4V15.75M61 4V15.75M61 15.75V22.5C61 24.1568 59.6569 25.5 58 25.5H51M61 15.75H41M41 15.75V22.5C41 24.1568 42.3431 25.5 44 25.5H51M51 25.5V4M69 3.99995V25.5" stroke="white" stroke-width="5" stroke-linecap="round"/>
<path d="M80 4H106" stroke="white" stroke-width="5" stroke-linecap="round"/>
<path d="M80.9286 18L90.885 8.1025C92.0551 6.93931 93.9449 6.93931 95.115 8.1025L105.071 18" stroke="white" stroke-width="5" stroke-linecap="round"/>
<path d="M79 25.5H107" stroke="white" stroke-width="5" stroke-linecap="round"/>
</svg>
