<svg width="28" height="26" viewBox="0 0 28 26" fill="none" xmlns="http://www.w3.org/2000/svg">
<circle cx="7.19998" cy="11.9999" r="5.2" stroke="#DCD23B" stroke-width="0.8"/>
<path d="M10.408 0.160156L12.8328 2.8877L9.89429 6.75391L7.23999 8.16016H6.99976L4.34448 6.75293L1.40601 2.8877L3.83179 0.160156H10.408Z" fill="#69E6FF" stroke="#BBF4FF" stroke-width="0.32"/>
<circle cx="14.713" cy="14.0903" r="5.2" transform="rotate(42.6642 14.713 14.0903)" stroke="#DCD23B" stroke-width="0.8"/>
<path d="M25.0958 7.55775L25.0304 11.2067L20.2495 12.0583L17.3447 11.2935L17.168 11.1307L16.1692 8.29644L16.6279 3.46278L20.2601 3.10107L25.0958 7.55775Z" fill="#FF6E6E" stroke="#FFCECE" stroke-width="0.32"/>
<path d="M11.9347 13.7345L15.4119 16.9625L12.0911 22.3313L8.82969 24.4813L8.52154 24.511L4.90924 23.0207L0.626446 18.3829L3.42608 14.5525L11.9347 13.7345Z" fill="#38BF31" stroke="#5EE557" stroke-width="0.416"/>
</svg>
