<svg width="106" height="126" viewBox="0 0 106 126" fill="none" xmlns="http://www.w3.org/2000/svg">
<g filter="url(#filter0_d_60_2965)">
<rect x="3" y="1" width="100" height="120" fill="white"/>
</g>
<circle cx="53" cy="11" r="5" fill="#BFBFBF"/>
<path d="M55.5 8.5L53 11M50.5 13.5L53 11M53 11L50.5 8.5L55.5 13.5" stroke="#696969"/>
<path d="M38 106.5C38.5523 106.5 39 106.948 39 107.5V110.5C39 110.776 38.7761 111 38.5 111C38.2239 111 38 110.776 38 110.5V107.5H29.5C29.2239 107.5 29 107.276 29 107C29 106.724 29.2239 106.5 29.5 106.5H38ZM49.5 100C49.7761 100 50 100.224 50 100.5V109.5C50 109.776 49.7761 110 49.5 110C49.2239 110 49 109.776 49 109.5V105H48C47.7239 105 47.5 104.776 47.5 104.5C47.5 104.224 47.7239 104 48 104H49V100.5C49 100.224 49.2239 100 49.5 100ZM51.5 100C51.7761 100 52 100.224 52 100.5V109.5C52 109.776 51.7761 110 51.5 110C51.2239 110 51 109.776 51 109.5V100.5C51 100.224 51.2239 100 51.5 100ZM63.5 100C63.7761 100 64 100.224 64 100.5V109.5C64 109.776 63.7761 110 63.5 110C63.2239 110 63 109.776 63 109.5V105.5H61.5C61.2239 105.5 61 105.276 61 105C61 104.724 61.2239 104.5 61.5 104.5H63V100.5C63 100.224 63.2239 100 63.5 100ZM77 100C77.2761 100 77.5 100.224 77.5 100.5V109.5C77.5 109.776 77.2761 110 77 110C76.7239 110 76.5 109.776 76.5 109.5V100.5C76.5 100.224 76.7239 100 77 100ZM74 100.5C74.5523 100.5 75 100.948 75 101.5V104.5C75 105.052 74.5523 105.5 74 105.5H68.5V108.5H74.5C74.7761 108.5 75 108.724 75 109C75 109.276 74.7761 109.5 74.5 109.5H68.5C67.9477 109.5 67.5 109.052 67.5 108.5V105.5C67.5 104.948 67.9477 104.5 68.5 104.5H74V101.5H68C67.7239 101.5 67.5 101.276 67.5 101C67.5 100.724 67.7239 100.5 68 100.5H74ZM43.5586 101.65C43.8746 100.766 45.1254 100.766 45.4414 101.65L47.4707 107.332L47.4951 107.43C47.5281 107.66 47.3957 107.889 47.168 107.971C46.9404 108.052 46.6928 107.959 46.5723 107.76L46.5293 107.668L44.5 101.986L42.4707 107.668C42.3778 107.928 42.0921 108.063 41.832 107.971C41.572 107.878 41.4365 107.592 41.5293 107.332L43.5586 101.65ZM56.5586 101.65C56.8746 100.766 58.1254 100.766 58.4414 101.65L60.4707 107.332L60.4951 107.43C60.5281 107.66 60.3957 107.889 60.168 107.971C59.9404 108.052 59.6928 107.959 59.5723 107.76L59.5293 107.668L57.5 101.986L55.4707 107.668C55.3778 107.928 55.0921 108.063 54.832 107.971C54.572 107.878 54.4365 107.592 54.5293 107.332L56.5586 101.65ZM31.5 98.5C33.433 98.5 35 100.067 35 102C35 103.933 33.433 105.5 31.5 105.5C29.567 105.5 28 103.933 28 102C28 100.067 29.567 98.5 31.5 98.5ZM38.5 98.5C38.7761 98.5 39 98.7239 39 99V105C39 105.276 38.7761 105.5 38.5 105.5C38.2239 105.5 38 105.276 38 105V102.5H37V105C37 105.276 36.7761 105.5 36.5 105.5C36.2239 105.5 36 105.276 36 105V99C36 98.7239 36.2239 98.5 36.5 98.5C36.7761 98.5 37 98.7239 37 99V101.5H38V99C38 98.7239 38.2239 98.5 38.5 98.5ZM31.5 99.5C30.1193 99.5 29 100.619 29 102C29 103.381 30.1193 104.5 31.5 104.5C32.8807 104.5 34 103.381 34 102C34 100.619 32.8807 99.5 31.5 99.5Z" fill="black"/>
<circle cx="40" cy="56" r="13" stroke="#DCD23B" stroke-width="2"/>
<path d="M39.4004 34.4004V45.9482L33.2656 34.4004H39.4004ZM46.334 34.4004L40.2002 45.9463V34.4004H46.334ZM32.3467 34.375L38.4355 45.8359L32.8652 42.8877L25.8779 33.6943L32.3467 34.375ZM46.7344 42.8867L41.165 45.8359L47.2529 34.375L53.7207 33.6943L46.7344 42.8867ZM46.0693 33.5996H33.5312L39.7998 26.9814L46.0693 33.5996ZM32.127 33.5479L25.8164 32.8828L31.1309 26.9033L32.127 33.5479ZM53.7822 32.8828L47.4717 33.5479L48.4688 26.9033L53.7822 32.8828ZM39.249 26.4004L32.873 33.1289L31.8652 26.4004H39.249ZM47.7354 26.4004L46.7256 33.1289L40.3516 26.4004H47.7354Z" fill="#69E6FF" stroke="#BBF4FF" stroke-width="0.8"/>
<circle cx="58.7825" cy="61.2259" r="13" transform="rotate(42.6642 58.7825 61.2259)" stroke="#DCD23B" stroke-width="2"/>
<path d="M72.9797 44.9363L65.1537 53.4279L68.4686 40.7787L72.9797 44.9363ZM78.0782 49.6352L65.7432 53.9684L73.5678 45.4783L78.0782 49.6352ZM67.8101 40.1373L64.5203 52.6914L62.4223 46.7484L63.5146 35.2529L67.8101 40.1373ZM72.6215 56.1468L66.5274 54.5412L78.7712 50.2393L83.9885 54.122L72.6215 56.1468ZM78.4263 48.867L69.2066 40.3699L78.3012 39.7515L78.4263 48.867ZM68.209 39.3802L64.0193 34.6145L71.9796 33.8191L68.209 39.3802ZM84.5837 53.5669L79.4926 49.7793L84.7288 45.569L84.5837 53.5669ZM78.29 38.951L69.0416 39.5777L72.8604 33.947L78.29 38.951ZM84.5303 44.7022L79.2279 48.9656L79.1007 39.6982L84.5303 44.7022Z" fill="#FF6E6E" stroke="#FFCECE" stroke-width="0.8"/>
<path d="M50.653 70.8979L44.1505 86.6039L42.714 71.6611L50.653 70.8979ZM41.6788 71.7606L43.1151 86.7015L33.7398 72.5238L41.6788 71.7606ZM32.5488 72.6059L41.8523 86.6797L34.2785 83.5571L24.0936 72.5299L32.5488 72.6059ZM52.2251 81.8318L45.3848 86.3401L51.8388 70.7515L60.1237 69.0653L52.2251 81.8318ZM50.2104 69.8956L33.9844 71.4555L41.273 62.1106L50.2104 69.8956ZM32.162 71.562L23.912 71.4878L30.0457 63.0899L32.162 71.562ZM60.1035 68.0086L52.0187 69.6531L52.4812 60.9321L60.1035 68.0086ZM40.4881 61.4267L33.0752 70.9277L30.9326 62.3453L40.4881 61.4267ZM51.4697 60.3711L51.0014 69.2045L41.9142 61.2897L51.4697 60.3711Z" fill="#38BF31" stroke="#5EE557" stroke-width="1.04"/>
<defs>
<filter id="filter0_d_60_2965" x="0" y="0" width="106" height="126" filterUnits="userSpaceOnUse" color-interpolation-filters="sRGB">
<feFlood flood-opacity="0" result="BackgroundImageFix"/>
<feColorMatrix in="SourceAlpha" type="matrix" values="0 0 0 0 0 0 0 0 0 0 0 0 0 0 0 0 0 0 127 0" result="hardAlpha"/>
<feOffset dy="2"/>
<feGaussianBlur stdDeviation="1.5"/>
<feComposite in2="hardAlpha" operator="out"/>
<feColorMatrix type="matrix" values="0 0 0 0 0 0 0 0 0 0 0 0 0 0 0 0 0 0 0.2 0"/>
<feBlend mode="normal" in2="BackgroundImageFix" result="effect1_dropShadow_60_2965"/>
<feBlend mode="normal" in="SourceGraphic" in2="effect1_dropShadow_60_2965" result="shape"/>
</filter>
</defs>
</svg>
