<svg width="30" height="30" viewBox="0 0 30 30" fill="none" xmlns="http://www.w3.org/2000/svg">
<path d="M9.85556 11.4797C10.6393 11.7114 11.3679 12.101 11.9958 12.6242L14.5454 14.749L17.8344 15.1934C18.6441 15.3029 19.4231 15.5766 20.1232 15.9978L22.5086 17.4338L25.0022 18.6943L22.7431 22.5526C22.4903 22.9845 22.1844 23.3835 21.8325 23.7395L21.0173 24.564C20.733 24.8516 20.4203 25.1097 20.084 25.3344L19.4067 25.7874C18.6588 26.2872 17.8019 26.6006 16.9081 26.7012C15.859 26.8193 14.7974 26.6397 13.8454 26.1836L12.7855 25.6756L10.7513 23.3711L7.678 23.4281L6.58646 22.9894C5.60723 22.5956 4.75828 21.9344 4.13673 21.0814C3.60713 20.3544 3.25929 19.5107 3.12253 18.6218L2.99899 17.8163C2.93752 17.4166 2.91656 17.0116 2.93653 16.6077L2.99374 15.4497C3.01851 14.9497 3.106 14.4547 3.25366 13.9764L4.57235 9.70433L7.18626 10.6913L9.85556 11.4797ZM9.25443 16.4196C7.75342 15.7591 5.37591 14.8835 5.13011 15.4391C4.88525 15.9956 5.92455 18.1274 7.4259 18.7881C8.92707 19.4487 10.1693 20.2251 10.4141 19.6688C10.6589 19.1122 10.7555 17.0803 9.25443 16.4196ZM16.9306 19.8295C15.4297 19.1693 14.012 20.5807 13.7714 21.1269C13.5311 21.6728 14.9408 22.0682 16.4422 22.7289C17.9435 23.3894 20.2051 22.7414 20.4453 22.1955C20.6845 21.6494 18.4317 20.49 16.9306 19.8295Z" fill="#B152B9"/>
<path d="M17.834 15.1937C18.6438 15.3033 19.4227 15.577 20.1228 15.9982L22.5083 17.4341L25.0018 18.6946L22.7428 22.5529C22.4899 22.9848 22.1839 23.3839 21.8321 23.7398L21.017 24.5643C20.7327 24.8518 20.4198 25.1101 20.0837 25.3347L19.4063 25.7878C18.6585 26.2874 17.8014 26.601 16.9077 26.7016C15.8587 26.8196 14.797 26.64 13.845 26.1839L13.5844 26.0586C14.4433 24.727 14.2586 22.8426 12.8693 21.7482L10.3498 19.7636C10.3753 19.7377 10.3971 19.7068 10.4138 19.6691C10.5833 19.2836 10.682 18.1901 10.2278 17.3349L10.9588 17.2885C12.5375 17.1867 13.9245 16.2045 14.545 14.7493L17.834 15.1937ZM16.9303 19.8298C15.4294 19.1697 14.0117 20.581 13.771 21.1272C13.5313 21.673 14.9407 22.0687 16.4418 22.7292C17.9429 23.3896 20.205 22.742 20.4458 22.1962C20.6851 21.6501 18.4313 20.4903 16.9303 19.8298Z" fill="#8A3492"/>
<path d="M11.928 11.0306L12.1271 6.15948C12.1342 5.98729 12.315 5.87842 12.4705 5.95277L18.0776 8.63439L20.3923 2.86606C20.4565 2.70612 20.6633 2.66394 20.785 2.78598L24.2273 6.2382L25.97 10.7107L13.6707 15.5031L11.928 11.0306Z" fill="#E4D44A"/>
<path d="M8.26367 7.80962C8.05089 7.40072 8.48072 6.95614 8.89656 7.15501L13.5361 9.37386L15.7957 3.74279C15.8989 3.48547 16.1981 3.36889 16.4483 3.48852L21.922 6.10633L23.8372 1.33344C24.0089 0.905643 24.6262 0.942207 24.7461 1.38727L27.2623 10.7225L26.6539 11.2045C22.8825 14.1928 18.2999 15.9783 13.501 16.3295L12.7268 16.3862L8.26367 7.80962Z" fill="#FFEF5B"/>
<path d="M16.4686 9.13272L17.1627 6.28654L19.5994 7.91284L20.2733 12.2866L18.9315 12.8094L16.4686 9.13272Z" fill="#E4D44A"/>
<path d="M17.7044 8.00742L17.8162 7.96385L17.9281 7.92029L19.4761 9.24893L19.2351 11.2746L19.1233 11.3182L19.0114 11.3618L17.4634 10.0331L17.7044 8.00742Z" fill="#F96868"/>
</svg>
