<svg width="106" height="126" viewBox="0 0 106 126" fill="none" xmlns="http://www.w3.org/2000/svg">
<g filter="url(#filter0_d_60_2949)">
<rect x="3" y="1" width="100" height="120" fill="white"/>
</g>
<circle cx="53" cy="11" r="5" fill="#BFBFBF"/>
<path d="M55.5 8.5L53 11M50.5 13.5L53 11M53 11L50.5 8.5L55.5 13.5" stroke="#696969"/>
<path d="M48 107H52.5M57 107H52.5M52.5 107V106" stroke="black" stroke-linecap="round"/>
<path d="M52.5 99.5C54.2319 99.5 55.5 100.689 55.5 102C55.5 103.311 54.2319 104.5 52.5 104.5C50.7681 104.5 49.5 103.311 49.5 102C49.5 100.689 50.7681 99.5 52.5 99.5Z" stroke="black"/>
<path d="M49.5 111L51.8598 109.033C52.2307 108.724 52.7693 108.724 53.1402 109.033L55.5 111" stroke="black" stroke-linecap="round"/>
<path d="M33.5559 24.0838C35.6071 23.2176 37.9728 24.1783 38.8392 26.2294L39.1007 26.8484C39.8225 28.5577 39.0215 30.5285 37.3122 31.2505C36.6285 31.5393 36.3089 32.3284 36.5975 33.0121L37.7093 35.6444L51.7793 36.5689L56.3254 37.1771C57.7368 37.3658 59.126 37.6961 60.4708 38.1645L62.9557 39.0305C63.1571 39.1006 63.3482 39.1984 63.5226 39.3211C64.7201 40.1638 64.8348 41.8971 63.7591 42.8902L62.4423 44.1047L62.1956 44.3138C62.0253 44.4457 61.8433 44.5622 61.6529 44.6629L61.3605 44.8012L25.9266 59.7674L25.6236 59.8806C25.4187 59.947 25.2082 59.9961 24.995 60.0263L24.6722 60.0577L22.8844 60.1545C21.4221 60.2337 20.259 58.9431 20.4898 57.4969C20.5234 57.2864 20.5866 57.0811 20.6767 56.8879L21.7894 54.5024C22.316 53.3733 22.9416 52.293 23.6583 51.2747L23.9709 50.8427L26.7054 47.1594L35.8516 36.429L34.7399 33.7967C34.018 32.0873 34.8186 30.1157 36.5279 29.3937C37.2115 29.1049 37.5316 28.3167 37.243 27.633L36.9815 27.0141C36.5483 25.9886 35.3657 25.5076 34.3401 25.9406L33.1023 26.4635C31.9057 26.9689 31.3452 28.3494 31.8504 29.546C32.0668 30.0587 31.8268 30.6499 31.3142 30.8665C30.8014 31.0831 30.2104 30.8428 29.9936 30.3302C29.0552 28.108 30.0958 25.5453 32.318 24.6067L33.5559 24.0838ZM28.2789 48.42L25.5902 52.0436C24.8225 53.0777 24.1609 54.1875 23.6165 55.3547L22.5039 57.7402C22.493 57.7637 22.4854 57.7889 22.4812 57.8145C22.4529 57.9921 22.5954 58.1506 22.7749 58.141L24.5627 58.0442C24.7619 58.0334 24.9587 57.9883 25.1424 57.9107L60.5762 42.9444C60.7598 42.8668 60.9287 42.7575 61.0752 42.6224L62.3911 41.4083C62.5229 41.2862 62.5097 41.0732 62.3627 40.9697C62.3413 40.9547 62.3174 40.9432 62.2928 40.9346L59.8078 40.0685C58.5915 39.6449 57.3348 39.3455 56.0582 39.1748L51.592 38.5774L37.4618 37.6486L28.2789 48.42Z" fill="black"/>
<path d="M53.5425 43.3207L61.2342 45.2084V45.2084C61.3588 52.0868 70.5259 54.3366 73.8207 48.2974V48.2974L81.5124 50.1851V50.1851C82.8757 51.0008 83.9357 52.2389 84.5315 53.7117L85.4447 55.969L86.4691 75.8667L77.9502 74.5173L79.5693 65.2769L78.4555 70.1931L74 89.8579L65.7012 88.9333L57.574 87.3094L49.6185 84.9862L41.8345 81.9638L46.9892 62.4706L48.2779 57.5974L45.4351 66.5374L37.2595 63.7896L47.4667 46.6484L49.5175 44.9549C50.6603 44.0111 52.0652 43.4407 53.5425 43.3207V43.3207Z" fill="#E9E8E8"/>
<path d="M73.9995 89.8581L65.7013 88.9337L57.5741 87.3091L49.6181 84.9865L41.8348 81.9642L43.4913 75.698L75.4322 83.5369L73.9995 89.8581ZM78.4556 70.1933L77.1823 75.8115L45.5166 68.0401L46.989 62.4707L47.7257 59.6862L79.0917 67.3841L78.4556 70.1933ZM45.4348 66.5378L37.2595 63.7894L40.7254 57.9682L47.6213 59.6606L45.4348 66.5378ZM86.4691 75.8664L77.9503 74.5178L79.1961 67.4097L86.1214 69.1093L86.4691 75.8664ZM61.2347 45.2085C61.3593 52.0869 70.5263 54.3367 73.8211 48.2975L81.5128 50.1852C82.8759 51.0008 83.936 52.2389 84.5318 53.7115L85.4449 55.9688L85.6959 60.8499L44.9623 50.8531L47.4664 46.6481L49.5178 44.9554C50.6606 44.0118 52.0649 43.4407 53.542 43.3206L61.2347 45.2085Z" fill="#6699FF"/>
<defs>
<filter id="filter0_d_60_2949" x="0" y="0" width="106" height="126" filterUnits="userSpaceOnUse" color-interpolation-filters="sRGB">
<feFlood flood-opacity="0" result="BackgroundImageFix"/>
<feColorMatrix in="SourceAlpha" type="matrix" values="0 0 0 0 0 0 0 0 0 0 0 0 0 0 0 0 0 0 127 0" result="hardAlpha"/>
<feOffset dy="2"/>
<feGaussianBlur stdDeviation="1.5"/>
<feComposite in2="hardAlpha" operator="out"/>
<feColorMatrix type="matrix" values="0 0 0 0 0 0 0 0 0 0 0 0 0 0 0 0 0 0 0.2 0"/>
<feBlend mode="normal" in2="BackgroundImageFix" result="effect1_dropShadow_60_2949"/>
<feBlend mode="normal" in="SourceGraphic" in2="effect1_dropShadow_60_2949" result="shape"/>
</filter>
</defs>
</svg>
