<svg width="72" height="94" viewBox="0 0 72 94" fill="none" xmlns="http://www.w3.org/2000/svg">
<path d="M25 65.2847L28.2174 64.0258C34.421 61.5985 39.0089 56.2418 40.4538 49.7389L43.2843 37.0004L46.1147 49.7389C47.5597 56.2418 52.1475 61.5985 58.3511 64.0258L61.5685 65.2847L58.3511 66.5435C52.1475 68.9708 47.5597 74.3275 46.1147 80.8305L43.2843 93.5689L40.4538 80.8305C39.0089 74.3275 34.421 68.9708 28.2174 66.5435L25 65.2847Z" fill="white"/>
<path d="M12 21.2163C17.5535 20.1143 21.7268 15.5002 22.2674 9.86426L23.2132 0.00310552L24.159 9.86426C24.6996 15.5002 28.8729 20.1143 34.4264 21.2163C28.8729 22.3183 24.6996 26.9324 24.159 32.5684L23.2132 42.4295L22.2674 32.5684C21.7268 26.9324 17.5535 22.3183 12 21.2163Z" fill="white"/>
<path d="M5 52.6064C7.77676 52.0555 9.86339 49.7484 10.1337 46.9304L10.6066 41.9998L11.0795 46.9304C11.3498 49.7484 13.4364 52.0555 16.2132 52.6064C13.4364 53.1574 11.3498 55.4645 11.0795 58.2825L10.6066 63.213L10.1337 58.2825C9.86339 55.4645 7.77676 53.1574 5 52.6064Z" fill="white"/>
</svg>
