<svg width="70" height="102" viewBox="0 0 70 102" fill="none" xmlns="http://www.w3.org/2000/svg">
<path d="M10 73.2817L13.2174 72.0229C19.421 69.5956 24.0089 64.2389 25.4538 57.736L28.2843 44.9975L31.1147 57.7359C32.5597 64.2389 37.1475 69.5956 43.3511 72.0229L46.5685 73.2817L43.3511 74.5406C37.1475 76.9679 32.5597 82.3246 31.1147 88.8275L28.2843 101.566L25.4538 88.8275C24.0089 82.3246 19.421 76.9679 13.2174 74.5406L10 73.2817Z" fill="white"/>
<path d="M37 47.2153C42.5535 46.1134 46.7268 41.4992 47.2674 35.8633L48.2132 26.0021L49.159 35.8633C49.6996 41.4992 53.8729 46.1134 59.4264 47.2153C53.8729 48.3173 49.6996 52.9314 49.159 58.5674L48.2132 68.4285L47.2674 58.5674C46.7268 52.9314 42.5535 48.3173 37 47.2153Z" fill="white"/>
<path d="M28 10.6064C30.7768 10.0555 32.8634 7.74839 33.1337 4.93042L33.6066 -0.000156224L34.0795 4.93042C34.3498 7.74839 36.4364 10.0555 39.2132 10.6064C36.4364 11.1574 34.3498 13.4645 34.0795 16.2825L33.6066 21.213L33.1337 16.2825C32.8634 13.4645 30.7768 11.1574 28 10.6064Z" fill="white"/>
</svg>
