<svg width="33" height="32" viewBox="0 0 33 32" fill="none" xmlns="http://www.w3.org/2000/svg">
<path d="M9.35488 3.42768C10.1753 3.08154 11.1214 3.46616 11.4678 4.2865L11.5723 4.5339C11.8609 5.21749 11.5407 6.0057 10.8573 6.2946C10.5838 6.41012 10.4564 6.72576 10.5719 6.99926L11.0165 8.05181L16.6438 8.42168L18.4619 8.66512C19.0264 8.74059 19.5827 8.87337 20.1205 9.0607L21.1146 9.40624C21.1951 9.43431 21.2714 9.47452 21.3412 9.52361C21.8198 9.86083 21.8656 10.5539 21.4352 10.9511L20.9087 11.4363C20.8134 11.5243 20.7072 11.5994 20.5929 11.6598L20.4764 11.7154L6.30306 17.7018L6.18114 17.747C6.05823 17.7867 5.93005 17.8105 5.80069 17.8175L5.08573 17.8566C4.53754 17.8863 4.09465 17.4343 4.11721 16.9013L4.12804 16.7939C4.13474 16.7519 4.14462 16.7099 4.15703 16.6693L4.2028 16.5493L4.64815 15.5958C4.88888 15.0796 5.18061 14.5887 5.52011 14.1313L6.61409 12.658L10.2734 8.36566L9.82881 7.31312C9.54 6.62934 9.85968 5.84033 10.5435 5.55152C10.8166 5.43591 10.9454 5.12069 10.8302 4.84737L10.7257 4.59998C10.5525 4.18991 10.0789 3.9979 9.66874 4.17075L9.17305 4.38012C8.69464 4.58233 8.47067 5.13384 8.67264 5.61235C8.7591 5.81732 8.66285 6.05407 8.45803 6.14082C8.25295 6.22744 8.01626 6.13122 7.92956 5.92621C7.55431 5.03742 7.97052 4.01254 8.8592 3.63704L9.35488 3.42768ZM7.24969 13.1538L6.16849 14.6123C5.86137 15.026 5.59593 15.4693 5.37817 15.9362L4.9332 16.8906C4.92884 16.9 4.92635 16.9104 4.92471 16.9207C4.91357 16.9916 4.97062 17.0551 5.04238 17.0512L5.75734 17.0121C5.83698 17.0078 5.91574 16.9898 5.98921 16.9587L20.1626 10.9723C20.236 10.9413 20.3039 10.8974 20.3625 10.8433L20.889 10.3581C20.9416 10.3094 20.9358 10.2242 20.8775 10.1827C20.869 10.1767 20.8589 10.1716 20.8491 10.1682L19.8547 9.82176C19.3684 9.65242 18.8659 9.5331 18.3555 9.46484L16.5544 9.2238L10.9165 8.85414L7.24969 13.1538Z" fill="black"/>
<path d="M17.349 11.1226L20.4257 11.8777C20.4755 14.6291 24.1424 15.529 25.4603 13.1133L28.537 13.8684C29.0823 14.1946 29.5063 14.6899 29.7446 15.279L30.1099 16.182L30.5197 24.141L27.1121 23.6013L27.7598 19.9051L27.3142 21.8716L25.532 29.7375L22.2125 29.3676L18.9616 28.7181L15.7794 27.7888L12.6658 26.5799L14.7277 18.7826L15.2432 16.8333L14.1061 20.4093L10.8358 19.3102L14.9187 12.4537L15.739 11.7763C16.1962 11.3988 16.7581 11.1706 17.349 11.1226Z" fill="#E9E8E8"/>
<path d="M25.5319 29.7374L22.2129 29.3673L18.9614 28.7181L15.7798 27.7885L12.6656 26.5797L13.3289 24.0738L26.105 27.2093L25.5319 29.7374ZM27.3144 21.8721L26.8051 24.1192L14.139 21.0106L14.7279 18.7831L15.0225 17.6689L27.5691 20.7481L27.3144 21.8721ZM14.1066 20.4094L10.8358 19.3101L12.2228 16.9817L14.9808 17.6586L14.1066 20.4094ZM30.5193 24.1408L27.1122 23.6013L27.6108 20.7583L30.3802 21.438L30.5193 24.1408ZM20.4257 11.8777C20.4755 14.629 24.1419 15.5288 25.4599 13.1132L28.5366 13.8683C29.0819 14.1945 29.5066 14.6899 29.7449 15.279L30.1096 16.1819L30.2096 18.1341L13.9168 14.1355L14.9187 12.4538L15.7386 11.7762C16.1958 11.3987 16.7581 11.1706 17.349 11.1226L20.4257 11.8777Z" fill="#6699FF"/>
</svg>
