<svg width="106" height="126" viewBox="0 0 106 126" fill="none" xmlns="http://www.w3.org/2000/svg">
<g filter="url(#filter0_d_60_2953)">
<rect x="3" y="1" width="100" height="120" fill="white"/>
</g>
<circle cx="53" cy="11" r="5" fill="#BFBFBF"/>
<path d="M55.5 8.5L53 11M50.5 13.5L53 11M53 11L50.5 8.5L55.5 13.5" stroke="#696969"/>
<path d="M75.1025 106.505C75.6067 106.556 76 106.982 76 107.5V110.5C76 110.776 75.7761 111 75.5 111C75.2239 111 75 110.776 75 110.5V107.5H68.5C68.2239 107.5 68 107.276 68 107C68 106.724 68.2239 106.5 68.5 106.5H75L75.1025 106.505ZM60 105.5C60.9293 105.5 61.8386 105.662 62.5547 106.006C63.2415 106.336 64 106.976 64 108C64 109.024 63.2415 109.664 62.5547 109.994C61.8386 110.338 60.9293 110.5 60 110.5C59.0922 110.5 58.1825 110.366 57.46 110.033C56.7357 109.7 56 109.05 56 108C56 106.95 56.7357 106.3 57.46 105.967C58.1825 105.634 59.0922 105.5 60 105.5ZM38.5 99.5C38.7761 99.5 39 99.7239 39 100V109C39 109.276 38.7761 109.5 38.5 109.5C38.2239 109.5 38 109.276 38 109V105H36C35.7239 105 35.5 104.776 35.5 104.5C35.5 104.224 35.7239 104 36 104H38V100C38 99.7239 38.2239 99.5 38.5 99.5ZM51.5 99.5C51.7761 99.5 52 99.7239 52 100V109C52 109.276 51.7761 109.5 51.5 109.5C51.2239 109.5 51 109.276 51 109V100C51 99.7239 51.2239 99.5 51.5 99.5ZM60 106.5C58.3431 106.5 57 107 57 108C57 109 58.3431 109.5 60 109.5C61.6569 109.5 63 108.914 63 108C63 107.086 61.6569 106.5 60 106.5ZM48.5 100C49.0523 100 49.5 100.448 49.5 101V104C49.5 104.552 49.0523 105 48.5 105H43V108H49C49.2761 108 49.5 108.224 49.5 108.5C49.5 108.776 49.2761 109 49 109H43C42.4477 109 42 108.552 42 108V105C42 104.448 42.4477 104 43 104H48.5V101H42.5C42.2239 101 42 100.776 42 100.5C42 100.224 42.2239 100 42.5 100H48.5ZM33.5 100.5C34.0523 100.5 34.5 100.948 34.5 101.5V107C34.5 107.552 34.0523 108 33.5 108H30C29.4477 108 29 107.552 29 107V101.5C29 100.948 29.4477 100.5 30 100.5H33.5ZM30 107H33.5V101.5H30V107ZM69.5771 99.915C69.9192 99.095 71.0808 99.095 71.4229 99.915L73.4619 104.808L73.4912 104.904C73.5359 105.133 73.4155 105.369 73.1924 105.462C72.9694 105.555 72.7176 105.474 72.5869 105.281L72.5381 105.192L70.5 100.3L68.4619 105.192C68.3557 105.447 68.0625 105.568 67.8076 105.462C67.5527 105.356 67.4319 105.063 67.5381 104.808L69.5771 99.915ZM75.5 99C75.7761 99 76 99.2239 76 99.5V105C76 105.276 75.7761 105.5 75.5 105.5C75.2239 105.5 75 105.276 75 105V99.5C75 99.2239 75.2239 99 75.5 99ZM63 98.5C63.2761 98.5 63.5 98.7239 63.5 99V101.5H64.5C64.7761 101.5 65 101.724 65 102C65 102.276 64.7761 102.5 64.5 102.5H63.5V104.5C63.5 104.776 63.2761 105 63 105C62.7239 105 62.5 104.776 62.5 104.5V99C62.5 98.7239 62.7239 98.5 63 98.5ZM60.5 99C60.7761 99 61 99.2239 61 99.5C61 99.7761 60.7761 100 60.5 100H58.8086L60.9473 104.276L60.9834 104.371C61.0435 104.596 60.9397 104.839 60.7236 104.947C60.5077 105.055 60.2511 104.992 60.1074 104.81L60.0527 104.724L58 100.618L55.9473 104.724C55.8238 104.971 55.5234 105.071 55.2764 104.947C55.0294 104.824 54.9292 104.523 55.0527 104.276L57.1914 100H55.5C55.2239 100 55 99.7761 55 99.5C55 99.2239 55.2239 99 55.5 99H60.5Z" fill="black"/>
<path d="M60.5836 57.9839C62.6083 58.2577 64.5563 58.9422 66.3069 59.9956L72.27 63.584L78.5028 66.7364L72.8565 76.3818C72.2243 77.4617 71.4587 78.4586 70.5791 79.3486L68.5426 81.4089C67.8316 82.1282 67.0492 82.7741 66.2083 83.336L64.5153 84.4678C62.6458 85.7172 60.5039 86.5005 58.2694 86.7521C55.6468 87.0473 52.9938 86.5987 50.6137 85.4584L47.9623 84.1882L42.8772 78.4275L35.1936 78.5695L32.4659 77.4727C30.0174 76.4881 27.8951 74.8353 26.3411 72.7023C25.017 70.8848 24.1468 68.7762 23.805 66.5536L23.4957 64.5408C23.342 63.5412 23.2897 62.528 23.3397 61.5178L23.483 58.6244C23.545 57.3746 23.7628 56.1367 24.1319 54.941L27.4292 44.262L33.9641 46.7279L40.6383 48.7003C42.5976 49.2795 44.4182 50.2533 45.9879 51.5612L52.3623 56.8724L60.5836 57.9839ZM39.1345 61.0477C35.3812 59.3961 29.4354 57.2074 28.8229 58.5981C28.2107 59.9892 30.8086 65.3186 34.5619 66.9703C38.3152 68.6219 41.4214 70.563 42.0336 69.172C42.6457 67.7809 42.8878 62.6993 39.1345 61.0477ZM58.3255 69.5746C54.5722 67.9233 51.0259 71.4529 50.4253 72.8178C49.8253 74.1825 53.3509 75.1699 57.104 76.8215C60.8574 78.4728 66.5125 76.8548 67.113 75.49C67.7133 74.1251 62.0788 71.2262 58.3255 69.5746Z" fill="#B152B9"/>
<path d="M60.584 57.9842C62.6084 58.258 64.556 58.9423 66.3064 59.9955L72.2695 63.584L78.5023 66.7364L72.856 76.3817C72.2239 77.4615 71.4582 78.4586 70.5786 79.3485L68.5421 81.4088C67.8311 82.128 67.0495 82.7745 66.2087 83.3364L64.5148 84.4677C62.6453 85.717 60.5033 86.5005 58.2689 86.752C55.6464 87.0471 52.9932 86.5986 50.6132 85.4584L49.9665 85.1482C52.1123 81.8194 51.6449 77.1076 48.1724 74.3722L41.8729 69.4098C41.9372 69.3449 41.9913 69.2667 42.033 69.1719C42.4569 68.2087 42.7026 65.4764 41.5679 63.3382L43.396 63.2208C47.2201 62.9741 50.5942 60.662 52.2113 57.2094L52.3618 56.8723L60.584 57.9842ZM58.325 69.5746C54.5718 67.9236 51.0254 71.4529 50.4248 72.8177C49.8251 74.1823 53.3506 75.17 57.1035 76.8214C60.8567 78.4727 66.5115 76.8547 67.1125 75.4899C67.7127 74.125 62.0783 71.2262 58.325 69.5746Z" fill="#8A3492"/>
<path d="M45.8186 47.5772L46.3165 35.3994C46.3341 34.969 46.7862 34.6968 47.1749 34.8827L61.1928 41.5867L66.9794 27.1659C67.1399 26.766 67.6569 26.6606 67.9611 26.9657L76.5669 35.5962L80.9236 46.7774L50.1753 58.7584L45.8186 47.5772Z" fill="#E4D44A"/>
<path d="M36.658 39.524C36.1261 38.5018 37.2006 37.3903 38.2402 37.8875L49.8391 43.4347L55.4881 29.357C55.7462 28.7137 56.4941 28.4222 57.1195 28.7213L70.8038 35.2658L75.5919 23.3336C76.021 22.2641 77.5643 22.3555 77.8642 23.4682L84.1546 46.8061L82.6335 48.0113C73.205 55.4819 61.7486 59.9458 49.7512 60.8238L47.8157 60.9654L36.658 39.524Z" fill="#FFEF5B"/>
<path d="M57.1704 42.8318L58.9055 35.7164L64.9973 39.7821L66.6821 50.7165L63.3277 52.0235L57.1704 42.8318Z" fill="#E4D44A"/>
<path d="M60.2597 40.0183L60.5393 39.9094L60.8188 39.8005L64.6888 43.1221L64.0863 48.1864L63.8068 48.2953L63.5273 48.4042L59.6573 45.0826L60.2597 40.0183Z" fill="#F96868"/>
<defs>
<filter id="filter0_d_60_2953" x="0" y="0" width="106" height="126" filterUnits="userSpaceOnUse" color-interpolation-filters="sRGB">
<feFlood flood-opacity="0" result="BackgroundImageFix"/>
<feColorMatrix in="SourceAlpha" type="matrix" values="0 0 0 0 0 0 0 0 0 0 0 0 0 0 0 0 0 0 127 0" result="hardAlpha"/>
<feOffset dy="2"/>
<feGaussianBlur stdDeviation="1.5"/>
<feComposite in2="hardAlpha" operator="out"/>
<feColorMatrix type="matrix" values="0 0 0 0 0 0 0 0 0 0 0 0 0 0 0 0 0 0 0.2 0"/>
<feBlend mode="normal" in2="BackgroundImageFix" result="effect1_dropShadow_60_2953"/>
<feBlend mode="normal" in="SourceGraphic" in2="effect1_dropShadow_60_2953" result="shape"/>
</filter>
</defs>
</svg>
