<svg width="29" height="27" viewBox="0 0 29 27" fill="none" xmlns="http://www.w3.org/2000/svg">
<path d="M3.02002 11.0728H25.02L28.54 13.2728H6.54002L3.02002 11.0728Z" fill="#402C0F"/>
<rect x="6.54004" y="2.27295" width="22" height="1.32" fill="#8D6122"/>
<path d="M7.46505 3.87305H28L24.7976 11.073H4.40002L7.46505 3.87305Z" fill="#593F18"/>
<path d="M6.54005 2.27295L7.53588 3.81295L4.12005 11.7329L3.02005 11.0729L2.80005 8.21295L3.02005 6.23295L4.12005 4.03295L6.54005 2.27295Z" fill="#7F5416"/>
<path d="M6.39995 3.07275L6.79995 4.07275L3.99995 10.8728L3.36719 9.79834L3.19995 8.27275L3.39995 6.47275L4.39995 4.47275L6.39995 3.07275Z" fill="#724D17"/>
<path d="M7.64006 3.81299L4.56006 11.293L24.8 11.273L28.2209 3.81299H7.64006Z" stroke="#6F5021" stroke-width="0.44" stroke-linecap="round"/>
<path d="M3.04683 16.0121L6.82656 8.49473L10.7061 7.41448L7.03219 14.6853L3.04683 16.0121Z" fill="#F2D140"/>
<path d="M7.03222 14.6856L10.7062 7.41483L13.3058 8.90966L9.08544 17.1139L7.03222 14.6856Z" fill="#AA7E2D"/>
<path d="M4.3726 13.3983L5.63723 14.0576M6.25184 9.76641L8.62615 10.9018M4.82034 12.6268L6.83183 13.519" stroke="#FDDC4D" stroke-width="1.2"/>
<path d="M3.04684 16.0123L7.03219 14.6855L9.08541 17.1138L3.87379 18.8489L3.04684 16.0123Z" fill="#D29729"/>
<path d="M11.2737 13.2801L16.9147 7.03698L20.9419 7.0262L15.4684 13.0597L11.2737 13.2801Z" fill="#F2D140"/>
<path d="M15.4684 13.0599L20.9419 7.02635L23.051 9.1581L16.8027 15.9464L15.4684 13.0599Z" fill="#AA7E2D"/>
<path d="M13.2461 11.1123L14.2902 12.0839M16.0227 8.11021L18.0101 9.83554M13.8827 10.4875L15.5849 11.882" stroke="#FDDC4D" stroke-width="1.2"/>
<path d="M11.2737 13.2802L15.4683 13.0598L16.8027 15.9463L11.3174 16.2345L11.2737 13.2802Z" fill="#D29729"/>
<path d="M8.20927 10.6832L16.5626 9.67314L19.6087 12.3074L11.5193 13.2691L8.20927 10.6832Z" fill="#F2D140"/>
<path d="M11.5193 13.2691L19.6087 12.3074L19.8016 15.3L10.6323 16.3229L11.5193 13.2691Z" fill="#AA7E2D"/>
<path d="M11.1202 10.3413L11.2705 11.7596M15.1853 9.89765L15.5529 12.5036M12.0105 10.2876L12.3801 12.4568" stroke="#FDDC4D" stroke-width="1.2"/>
<path d="M8.20926 10.6829L11.5193 13.2688L10.6323 16.3226L6.30375 12.941L8.20926 10.6829Z" fill="#D29729"/>
<path d="M15.6745 11.7769L24.0278 10.7669L27.0739 13.4011L18.9845 14.3629L15.6745 11.7769Z" fill="#F2D140"/>
<path d="M18.9844 14.3629L27.0738 13.4011L27.2667 16.3937L18.0974 17.4166L18.9844 14.3629Z" fill="#AA7E2D"/>
<path d="M18.5852 11.4351L18.7356 12.8533M22.6504 10.9914L23.018 13.5974M19.4756 11.3813L19.8452 13.5505" stroke="#FDDC4D" stroke-width="1.2"/>
<path d="M15.6745 11.7766L18.9845 14.3626L18.0975 17.4163L13.769 14.0347L15.6745 11.7766Z" fill="#D29729"/>
<path d="M3.02002 11.0728L6.54002 13.2728V26.4728L3.02002 24.2728V11.0728Z" fill="#6A4A1B"/>
<rect x="6.54004" y="13.2729" width="22" height="13.2" fill="#8D6122"/>
<path d="M6.40002 15.873H17.2" stroke="#7A541D" stroke-width="0.4"/>
<path d="M17.6 15.873H28.4" stroke="#7A541D" stroke-width="0.4"/>
<path d="M12.4 18.6729H23.2" stroke="#7A541D" stroke-width="0.4"/>
<path d="M8 21.4727H18.8" stroke="#7A541D" stroke-width="0.4"/>
<path d="M6 24.2729H16.8" stroke="#7A541D" stroke-width="0.4"/>
<path d="M17.2 24.2729H28" stroke="#7A541D" stroke-width="0.4"/>
<path d="M6.40002 21.4727H7.60002" stroke="#7A541D" stroke-width="0.4"/>
<path d="M19.2 21.4727H28.4" stroke="#7A541D" stroke-width="0.4"/>
<path d="M6.40002 18.6729H12" stroke="#7A541D" stroke-width="0.4"/>
<path d="M23.6 18.6729H28.4" stroke="#7A541D" stroke-width="0.4"/>
<path d="M3.78577 11.293L6.59963 13.053H27.7765L24.9592 11.293" stroke="#A87834" stroke-width="0.44" stroke-linecap="round"/>
<path d="M6.39995 15.8729L3.19995 13.6729" stroke="#583D16" stroke-width="0.4"/>
<path d="M6.39995 18.6727L3.19995 16.4727" stroke="#583D16" stroke-width="0.4"/>
<path d="M6.39995 21.4729L3.19995 19.2729" stroke="#583D16" stroke-width="0.4"/>
<path d="M6.39995 24.073L3.19995 21.873" stroke="#583D16" stroke-width="0.4"/>
<path d="M6.59998 13.8726H12" stroke="#996923" stroke-width="0.4"/>
<path d="M6.80005 18.2729H11.2" stroke="#996923" stroke-width="0.4"/>
<path d="M7.19995 17.8726H11.6" stroke="#996923" stroke-width="0.4"/>
<path d="M6.80005 16.6729H9.60005" stroke="#996923" stroke-width="0.4"/>
<path d="M7.59998 16.2729H10.4" stroke="#996923" stroke-width="0.4"/>
<path d="M20.8 21.0728H25.2" stroke="#996923" stroke-width="0.4"/>
<path d="M21.2 20.6729H27.8" stroke="#996923" stroke-width="0.4"/>
<path d="M20.8 19.4727H23.6" stroke="#996923" stroke-width="0.4"/>
<path d="M21.6 19.0728H24.4" stroke="#996923" stroke-width="0.4"/>
<path d="M25.2 19.8726H28" stroke="#996923" stroke-width="0.4"/>
<path d="M23.6 16.6729H26.4" stroke="#996923" stroke-width="0.4"/>
<path d="M24.4 17.0728H27.2" stroke="#996923" stroke-width="0.4"/>
<path d="M26.4 18.2729H28.4" stroke="#996923" stroke-width="0.4"/>
<path d="M6.80005 24.6729H8.80005" stroke="#996923" stroke-width="0.4"/>
<path d="M6.80005 25.0728H8.00005" stroke="#996923" stroke-width="0.4"/>
<path d="M22.4 24.6729H23.6" stroke="#996923" stroke-width="0.4"/>
<path d="M22.4 26.2729H25.2" stroke="#996923" stroke-width="0.4"/>
<path d="M23.2 25.8726H27.6" stroke="#996923" stroke-width="0.4"/>
<path d="M24 24.6729H28.4" stroke="#996923" stroke-width="0.4"/>
<path d="M25.6 25.0728H28" stroke="#996923" stroke-width="0.4"/>
<path d="M8 14.2729H13.4" stroke="#996923" stroke-width="0.4"/>
<path d="M8 15.0728H13.4" stroke="#996923" stroke-width="0.4"/>
<path d="M11.2 15.4727H14" stroke="#996923" stroke-width="0.4"/>
<path d="M14 13.8726H16.8" stroke="#996923" stroke-width="0.4"/>
<path d="M14.8 14.2729H16.4" stroke="#996923" stroke-width="0.4"/>
<path d="M17.6 13.4727H23" stroke="#996923" stroke-width="0.4"/>
<path d="M19 13.8726H24.4" stroke="#996923" stroke-width="0.4"/>
<path d="M19 14.6729H24.4" stroke="#996923" stroke-width="0.4"/>
<path d="M22.2 15.0728H25" stroke="#996923" stroke-width="0.4"/>
<path d="M25 13.4727H27.8" stroke="#996923" stroke-width="0.4"/>
<path d="M25.8 13.8726H27.4" stroke="#996923" stroke-width="0.4"/>
<path d="M12.8 16.6729H18.2" stroke="#996923" stroke-width="0.4"/>
<path d="M14.2 17.0728H19.6" stroke="#996923" stroke-width="0.4"/>
<path d="M14.2 17.8726H19.6" stroke="#996923" stroke-width="0.4"/>
<path d="M17.4 18.2729H20.2" stroke="#996923" stroke-width="0.4"/>
<path d="M20.2 16.6729H23" stroke="#996923" stroke-width="0.4"/>
<path d="M21 17.0728H22.6" stroke="#996923" stroke-width="0.4"/>
<path d="M8.40002 19.0728H13.8" stroke="#996923" stroke-width="0.4"/>
<path d="M9.80005 19.4727H15.2" stroke="#996923" stroke-width="0.4"/>
<path d="M9.80005 20.2729H15.2" stroke="#996923" stroke-width="0.4"/>
<path d="M13 20.6729H15.8" stroke="#996923" stroke-width="0.4"/>
<path d="M15.8 19.0728H18.6" stroke="#996923" stroke-width="0.4"/>
<path d="M16.6 19.4727H18.2" stroke="#996923" stroke-width="0.4"/>
<path d="M18 22.2729H23.4" stroke="#996923" stroke-width="0.4"/>
<path d="M19.4 22.6729H24.8" stroke="#996923" stroke-width="0.4"/>
<path d="M19.4 23.4727H24.8" stroke="#996923" stroke-width="0.4"/>
<path d="M22.6 23.8726H25.4" stroke="#996923" stroke-width="0.4"/>
<path d="M25.4 22.2729H28.2" stroke="#996923" stroke-width="0.4"/>
<path d="M26.2 22.6729H27.8" stroke="#996923" stroke-width="0.4"/>
<path d="M6.80005 21.8726H12.2" stroke="#996923" stroke-width="0.4"/>
<path d="M8.19995 22.2729H13.6" stroke="#996923" stroke-width="0.4"/>
<path d="M8.19995 23.0728H13.6" stroke="#996923" stroke-width="0.4"/>
<path d="M11.4 23.4727H14.2" stroke="#996923" stroke-width="0.4"/>
<path d="M14.2 21.8726H17" stroke="#996923" stroke-width="0.4"/>
<path d="M15 22.2729H16.6" stroke="#996923" stroke-width="0.4"/>
<path d="M10.4 24.6729H15.8" stroke="#996923" stroke-width="0.4"/>
<path d="M11.8 25.0728H17.2" stroke="#996923" stroke-width="0.4"/>
<path d="M11.8 25.8726H17.2" stroke="#996923" stroke-width="0.4"/>
<path d="M15 26.2729H17.8" stroke="#996923" stroke-width="0.4"/>
<path d="M17.8 24.6729H20.6" stroke="#996923" stroke-width="0.4"/>
<path d="M18.6 25.0728H20.2" stroke="#996923" stroke-width="0.4"/>
<path d="M17.2 15.4727L17.2 13.4727" stroke="#7A541D" stroke-width="0.4"/>
<path d="M12.4 18.2729L12.4 16.2729" stroke="#7A541D" stroke-width="0.4"/>
<path d="M23.2 18.2729L23.2 16.2729" stroke="#7A541D" stroke-width="0.4"/>
<path d="M19.2 21.0728L19.2 19.0728" stroke="#7A541D" stroke-width="0.4"/>
<path d="M8 21.0728L8 19.0728" stroke="#7A541D" stroke-width="0.4"/>
<path d="M16.8 23.8726L16.8 21.8726" stroke="#7A541D" stroke-width="0.4"/>
<path d="M9.19995 26.2729L9.19995 24.2729" stroke="#7A541D" stroke-width="0.4"/>
<path d="M21.6 26.2729L21.6 24.2729" stroke="#7A541D" stroke-width="0.4"/>
</svg>
