<svg width="106" height="126" viewBox="0 0 106 126" fill="none" xmlns="http://www.w3.org/2000/svg">
<g filter="url(#filter0_d_60_2959)">
<rect x="3" y="1" width="100" height="120" fill="white"/>
</g>
<circle cx="53" cy="11" r="5" fill="#BFBFBF"/>
<path d="M55.5 8.5L53 11M50.5 13.5L53 11M53 11L50.5 8.5L55.5 13.5" stroke="#696969"/>
<path d="M70 107C70.5523 107 71 107.448 71 108V110C71 110.552 70.5523 111 70 111H62C61.4823 111 61.0562 110.607 61.0049 110.103L61 110V108C61 107.448 61.4477 107 62 107H70ZM62 110H70V108H62V110ZM44.5 99.5C44.7761 99.5 45 99.7239 45 100V104H46.5C46.7761 104 47 104.224 47 104.5C47 104.776 46.7761 105 46.5 105H45V109C45 109.276 44.7761 109.5 44.5 109.5C44.2239 109.5 44 109.276 44 109V100C44 99.7239 44.2239 99.5 44.5 99.5ZM57.5 99.5C57.7761 99.5 58 99.7239 58 100V109C58 109.276 57.7761 109.5 57.5 109.5C57.2239 109.5 57 109.276 57 109V100C57 99.7239 57.2239 99.5 57.5 99.5ZM38.5 101.5C40.433 101.5 42 103.067 42 105C42 106.933 40.433 108.5 38.5 108.5C36.567 108.5 35 106.933 35 105C35 103.067 36.567 101.5 38.5 101.5ZM51.5 101.5C53.433 101.5 55 103.067 55 105C55 106.933 53.433 108.5 51.5 108.5C49.567 108.5 48 106.933 48 105C48 103.067 49.567 101.5 51.5 101.5ZM38.5 102.5C37.1193 102.5 36 103.619 36 105C36 106.381 37.1193 107.5 38.5 107.5C39.8807 107.5 41 106.381 41 105C41 103.619 39.8807 102.5 38.5 102.5ZM51.5 102.5C50.1193 102.5 49 103.619 49 105C49 106.381 50.1193 107.5 51.5 107.5C52.8807 107.5 54 106.381 54 105C54 103.619 52.8807 102.5 51.5 102.5ZM66 99C66.2761 99 66.5 99.2239 66.5 99.5C66.5 99.7761 66.2761 100 66 100H62V102H66C66.2761 102 66.5 102.224 66.5 102.5C66.5 102.776 66.2761 103 66 103H62V105H66C66.2761 105 66.5 105.224 66.5 105.5C66.5 105.776 66.2761 106 66 106H62C61.4477 106 61 105.552 61 105V100C61 99.4477 61.4477 99 62 99H66ZM68.5 99C68.7761 99 69 99.2239 69 99.5V105.5C69 105.776 68.7761 106 68.5 106C68.2239 106 68 105.776 68 105.5V103H67.5C67.2239 103 67 102.776 67 102.5C67 102.224 67.2239 102 67.5 102H68V99.5C68 99.2239 68.2239 99 68.5 99ZM70.5 99C70.7761 99 71 99.2239 71 99.5V105.5C71 105.776 70.7761 106 70.5 106C70.2239 106 70 105.776 70 105.5V99.5C70 99.2239 70.2239 99 70.5 99Z" fill="black"/>
<path d="M21.55 51.6826H76.5501L85.3501 57.1826H30.35L21.55 51.6826Z" fill="#402C0F"/>
<rect x="30.35" y="29.6826" width="55" height="3.3" fill="#8D6122"/>
<path d="M32.6626 33.6826H84L75.994 51.6826H25L32.6626 33.6826Z" fill="#593F18"/>
<path d="M30.35 29.6826L32.8396 33.5326L24.3 53.3326L21.55 51.6826L21 44.5326L21.55 39.5826L24.3 34.0826L30.35 29.6826Z" fill="#7F5416"/>
<path d="M30 31.6826L31 34.1826L24 51.1826L22.4181 48.4966L22 44.6826L22.5 40.1826L25 35.1826L30 31.6826Z" fill="#724D17"/>
<path d="M33.1 33.5327L25.4 52.2327L76 52.1827L84.5521 33.5327H33.1Z" stroke="#6F5021" stroke-width="1.1" stroke-linecap="round"/>
<path d="M21.6176 64.0308L31.0669 45.2373L40.7659 42.5367L31.581 60.7137L21.6176 64.0308Z" fill="#F2D140"/>
<path d="M31.581 60.7138L40.7658 42.5368L47.265 46.2739L36.714 66.7846L31.581 60.7138Z" fill="#AA7E2D"/>
<path d="M24.9319 57.4962L28.0935 59.1445M29.63 48.4165L35.5658 51.2549M26.0513 55.5676L31.08 57.7979" stroke="#FDDC4D" stroke-width="3"/>
<path d="M21.6176 64.0308L31.581 60.7137L36.7141 66.7844L23.685 71.1222L21.6176 64.0308Z" fill="#D29729"/>
<path d="M42.1848 57.2L56.2873 41.5922L66.3552 41.5653L52.6714 56.649L42.1848 57.2Z" fill="#F2D140"/>
<path d="M52.6714 56.6489L66.3552 41.5651L71.628 46.8945L56.0072 63.8652L52.6714 56.6489Z" fill="#AA7E2D"/>
<path d="M47.116 51.7808L49.7261 54.2098M54.0575 44.2755L59.0259 48.5889M48.7075 50.2189L52.9631 53.705" stroke="#FDDC4D" stroke-width="3"/>
<path d="M42.1849 57.2002L52.6715 56.6492L56.0073 63.8655L42.294 64.586L42.1849 57.2002Z" fill="#D29729"/>
<path d="M34.5234 50.7092L55.4066 48.1841L63.0219 54.7697L42.7986 57.174L34.5234 50.7092Z" fill="#F2D140"/>
<path d="M42.7986 57.174L63.0219 54.7696L63.5042 62.2511L40.581 64.8085L42.7986 57.174Z" fill="#AA7E2D"/>
<path d="M41.8004 49.8551L42.1764 53.4007M51.9632 48.7458L52.8824 55.2608M44.0263 49.7206L44.9503 55.1436" stroke="#FDDC4D" stroke-width="3"/>
<path d="M34.5234 50.7089L42.7985 57.1737L40.581 64.8082L29.7596 56.3542L34.5234 50.7089Z" fill="#D29729"/>
<path d="M53.1864 53.4421L74.0696 50.917L81.6849 57.5026L61.4615 59.9069L53.1864 53.4421Z" fill="#F2D140"/>
<path d="M61.4615 59.9069L81.6849 57.5025L82.1671 64.984L59.244 67.5414L61.4615 59.9069Z" fill="#AA7E2D"/>
<path d="M60.4634 52.588L60.8393 56.1336M70.6262 51.4787L71.5454 57.9937M62.6893 52.4535L63.6133 57.8765" stroke="#FDDC4D" stroke-width="3"/>
<path d="M53.1863 53.4418L61.4615 59.9066L59.2439 67.5411L48.4226 59.0871L53.1863 53.4418Z" fill="#D29729"/>
<path d="M21.55 51.6826L30.35 57.1826V90.1826L21.55 84.6826V51.6826Z" fill="#6A4A1B"/>
<rect x="30.3501" y="57.1826" width="55" height="33" fill="#8D6122"/>
<path d="M30 63.6826H57" stroke="#7A541D"/>
<path d="M58 63.6826H85" stroke="#7A541D"/>
<path d="M45 70.6826H72" stroke="#7A541D"/>
<path d="M34 77.6826H61" stroke="#7A541D"/>
<path d="M29 84.6826H56" stroke="#7A541D"/>
<path d="M57 84.6826H84" stroke="#7A541D"/>
<path d="M30 77.6826H33" stroke="#7A541D"/>
<path d="M62 77.6826H85" stroke="#7A541D"/>
<path d="M30 70.6826H44" stroke="#7A541D"/>
<path d="M73 70.6826H85" stroke="#7A541D"/>
<path d="M23.4644 52.2329L30.499 56.6329H83.4412L76.398 52.2329" stroke="#A87834" stroke-width="1.1" stroke-linecap="round"/>
<path d="M30 63.6826L22 58.1826" stroke="#583D16"/>
<path d="M30 70.6826L22 65.1826" stroke="#583D16"/>
<path d="M30 77.6826L22 72.1826" stroke="#583D16"/>
<path d="M30 84.1826L22 78.6826" stroke="#583D16"/>
<path d="M30.5 58.6826H44" stroke="#996923"/>
<path d="M31 69.6826H42" stroke="#996923"/>
<path d="M32 68.6826H43" stroke="#996923"/>
<path d="M31 65.6826H38" stroke="#996923"/>
<path d="M33 64.6826H40" stroke="#996923"/>
<path d="M66 76.6826H77" stroke="#996923"/>
<path d="M67 75.6826H83.5" stroke="#996923"/>
<path d="M66 72.6826H73" stroke="#996923"/>
<path d="M68 71.6826H75" stroke="#996923"/>
<path d="M77 73.6826H84" stroke="#996923"/>
<path d="M73 65.6826H80" stroke="#996923"/>
<path d="M75 66.6826H82" stroke="#996923"/>
<path d="M80 69.6826H85" stroke="#996923"/>
<path d="M31 85.6826H36" stroke="#996923"/>
<path d="M31 86.6826H34" stroke="#996923"/>
<path d="M70 85.6826H73" stroke="#996923"/>
<path d="M70 89.6826H77" stroke="#996923"/>
<path d="M72 88.6826H83" stroke="#996923"/>
<path d="M74 85.6826H85" stroke="#996923"/>
<path d="M78 86.6826H84" stroke="#996923"/>
<path d="M34 59.6826H47.5" stroke="#996923"/>
<path d="M34 61.6826H47.5" stroke="#996923"/>
<path d="M42 62.6826H49" stroke="#996923"/>
<path d="M49 58.6826H56" stroke="#996923"/>
<path d="M51 59.6826H55" stroke="#996923"/>
<path d="M58 57.6826H71.5" stroke="#996923"/>
<path d="M61.5 58.6826H75" stroke="#996923"/>
<path d="M61.5 60.6826H75" stroke="#996923"/>
<path d="M69.5 61.6826H76.5" stroke="#996923"/>
<path d="M76.5 57.6826H83.5" stroke="#996923"/>
<path d="M78.5 58.6826H82.5" stroke="#996923"/>
<path d="M46 65.6826H59.5" stroke="#996923"/>
<path d="M49.5 66.6826H63" stroke="#996923"/>
<path d="M49.5 68.6826H63" stroke="#996923"/>
<path d="M57.5 69.6826H64.5" stroke="#996923"/>
<path d="M64.5 65.6826H71.5" stroke="#996923"/>
<path d="M66.5 66.6826H70.5" stroke="#996923"/>
<path d="M35 71.6826H48.5" stroke="#996923"/>
<path d="M38.5 72.6826H52" stroke="#996923"/>
<path d="M38.5 74.6826H52" stroke="#996923"/>
<path d="M46.5 75.6826H53.5" stroke="#996923"/>
<path d="M53.5 71.6826H60.5" stroke="#996923"/>
<path d="M55.5 72.6826H59.5" stroke="#996923"/>
<path d="M59 79.6826H72.5" stroke="#996923"/>
<path d="M62.5 80.6826H76" stroke="#996923"/>
<path d="M62.5 82.6826H76" stroke="#996923"/>
<path d="M70.5 83.6826H77.5" stroke="#996923"/>
<path d="M77.5 79.6826H84.5" stroke="#996923"/>
<path d="M79.5 80.6826H83.5" stroke="#996923"/>
<path d="M31 78.6826H44.5" stroke="#996923"/>
<path d="M34.5 79.6826H48" stroke="#996923"/>
<path d="M34.5 81.6826H48" stroke="#996923"/>
<path d="M42.5 82.6826H49.5" stroke="#996923"/>
<path d="M49.5 78.6826H56.5" stroke="#996923"/>
<path d="M51.5 79.6826H55.5" stroke="#996923"/>
<path d="M40 85.6826H53.5" stroke="#996923"/>
<path d="M43.5 86.6826H57" stroke="#996923"/>
<path d="M43.5 88.6826H57" stroke="#996923"/>
<path d="M51.5 89.6826H58.5" stroke="#996923"/>
<path d="M58.5 85.6826H65.5" stroke="#996923"/>
<path d="M60.5 86.6826H64.5" stroke="#996923"/>
<path d="M57 62.6826L57 57.6826" stroke="#7A541D"/>
<path d="M45 69.6826L45 64.6826" stroke="#7A541D"/>
<path d="M72 69.6826L72 64.6826" stroke="#7A541D"/>
<path d="M62 76.6826L62 71.6826" stroke="#7A541D"/>
<path d="M34 76.6826L34 71.6826" stroke="#7A541D"/>
<path d="M56 83.6826L56 78.6826" stroke="#7A541D"/>
<path d="M37 89.6826L37 84.6826" stroke="#7A541D"/>
<path d="M68 89.6826L68 84.6826" stroke="#7A541D"/>
<defs>
<filter id="filter0_d_60_2959" x="0" y="0" width="106" height="126" filterUnits="userSpaceOnUse" color-interpolation-filters="sRGB">
<feFlood flood-opacity="0" result="BackgroundImageFix"/>
<feColorMatrix in="SourceAlpha" type="matrix" values="0 0 0 0 0 0 0 0 0 0 0 0 0 0 0 0 0 0 127 0" result="hardAlpha"/>
<feOffset dy="2"/>
<feGaussianBlur stdDeviation="1.5"/>
<feComposite in2="hardAlpha" operator="out"/>
<feColorMatrix type="matrix" values="0 0 0 0 0 0 0 0 0 0 0 0 0 0 0 0 0 0 0.2 0"/>
<feBlend mode="normal" in2="BackgroundImageFix" result="effect1_dropShadow_60_2959"/>
<feBlend mode="normal" in="SourceGraphic" in2="effect1_dropShadow_60_2959" result="shape"/>
</filter>
</defs>
</svg>
