<svg width="112" height="60" viewBox="0 0 112 60" fill="none" xmlns="http://www.w3.org/2000/svg">
<path d="M50.0004 0C70.1946 0.000104903 95.3891 7.13259 99.4379 23.0205L111.383 24.7002L99.936 34.1309C98.4714 52.7108 71.4224 59.9999 50.0004 60C27.0569 60 -2.34373 50.7939 0.148843 30C-2.34373 9.20611 27.0569 0 50.0004 0Z" fill="white"/>
<path d="M65 23V37" stroke="black" stroke-linecap="round"/>
<path d="M80 23V37" stroke="black" stroke-linecap="round"/>
<path d="M22 34H27.5M33 34H27.5M27.5 34V32" stroke="black" stroke-linecap="round"/>
<path d="M27.5 23.5C29.7661 23.5 31.5 25.1207 31.5 27C31.5 28.8793 29.7661 30.5 27.5 30.5C25.2339 30.5 23.5 28.8793 23.5 27C23.5 25.1207 25.2339 23.5 27.5 23.5Z" stroke="black"/>
<circle cx="41" cy="27" r="3.5" stroke="black"/>
<circle cx="57.5" cy="31.5" r="3" stroke="black"/>
<path d="M23 39L26.8356 35.5905C27.2145 35.2538 27.7855 35.2538 28.1644 35.5905L32 39" stroke="black" stroke-linecap="round"/>
<path d="M48 23V31" stroke="black" stroke-linecap="round"/>
<path d="M40 33V36M48.5 33.5V36M48.5 36V38C48.5 38.2761 48.2761 38.5 48 38.5H40.5C40.2239 38.5 40 38.2761 40 38V36M48.5 36H40" stroke="black" stroke-linecap="round"/>
<path d="M57.5 24V26.5M57.5 26.5H62M57.5 26.5H53" stroke="black" stroke-linecap="round"/>
<path d="M69 26H75.8989C76.2042 26 76.4283 26.2869 76.3542 26.5831V26.5831C75.7855 28.8578 75.0472 31.0867 74.1454 33.2511L73 36" stroke="black" stroke-linecap="round"/>
</svg>
