<svg width="129" height="88" viewBox="0 0 129 88" fill="none" xmlns="http://www.w3.org/2000/svg">
<path d="M3.2912 37.1157L113.317 2.83829L115.252 9.04733L117.186 15.2564L105.5 22.3028L119.12 21.4654L121.055 27.6745L115.971 32.6642L122.989 33.8835L124.924 40.0925L108.837 48.5101L126.858 46.3016L127.825 49.4061L128.792 52.5106L18.7661 86.7881L16.8317 80.579L14.8973 74.37L27.1333 67.1522L12.963 68.1609L11.0286 61.9519L9.09427 55.7428L7.15991 49.5338L22.6967 41.2877L5.22556 43.3248L3.2912 37.1157Z" fill="#C28A41"/>
<path d="M0.756531 34.7915L110.783 0.514068L112.717 6.72311L114.651 12.9321L102.966 19.9786L116.586 19.1412L118.52 25.3502L113.436 30.34L120.455 31.5593L122.389 37.7683L106.302 46.1858L124.323 43.9774L125.29 47.0819L126.258 50.1864L16.2314 84.4638L14.297 78.2548L12.3627 72.0457L24.5986 64.8279L10.4283 65.8367L8.49396 59.6277L6.5596 53.4186L4.62525 47.2096L20.162 38.9634L2.69089 41.0005L0.756531 34.7915Z" fill="#FFE1B9"/>
<path d="M36.2894 44.3045L38.1718 43.7516L38.5929 45.1851C38.9006 46.2328 39.0319 47.2761 38.9868 48.3149C38.9499 49.3388 38.7064 50.2983 38.2564 51.1934C37.8064 52.0885 37.1255 52.8575 36.2138 53.5005L34.4773 52.0595C35.2841 51.4848 35.886 50.8515 36.2831 50.1596C36.6768 49.4561 36.8989 48.7218 36.9493 47.9566C36.9997 47.1914 36.92 46.4518 36.7104 45.738L36.2894 44.3045ZM36.7557 44.1676L38.6036 43.6248L39.0855 45.2655C39.2275 45.7491 39.4353 46.2009 39.7087 46.6208C39.9936 47.0374 40.3392 47.4049 40.7454 47.7234C41.1516 48.0418 41.6266 48.2963 42.1703 48.4868C42.7106 48.6657 43.3261 48.7601 44.0169 48.7699L43.3528 50.916C42.2909 50.8777 41.3504 50.6349 40.5311 50.1876C39.7234 49.737 39.0407 49.137 38.483 48.3879C37.9367 47.6353 37.5216 46.7754 37.2376 45.8083L36.7557 44.1676ZM42.8108 41.4699L45.1078 40.7952L47.8825 50.2422L45.5855 50.9168L42.8108 41.4699ZM45.5716 44.6737L48.3176 43.8672L48.8756 45.767L46.1296 46.5735L45.5716 44.6737ZM42.7733 52.1368C43.8901 51.8087 44.8887 51.653 45.7691 51.6696C46.646 51.6747 47.3709 51.8432 47.9437 52.1753C48.5131 52.4958 48.8942 52.9842 49.0869 53.6405C49.2763 54.2853 49.2199 54.9022 48.9176 55.4912C48.6154 56.0803 48.0968 56.614 47.3618 57.0925C46.6303 57.5826 45.7061 57.9916 44.5892 58.3196C43.4839 58.6442 42.4853 58.7999 41.5935 58.7867C40.7165 58.7817 39.9859 58.6148 39.4016 58.2861C38.8288 57.9541 38.4477 57.4657 38.2583 56.8209C38.0656 56.1646 38.122 55.5477 38.4276 54.9702C38.7414 54.3778 39.2658 53.8423 40.0007 53.3638C40.7438 52.8704 41.668 52.4614 42.7733 52.1368ZM43.2958 53.9156C42.6164 54.1151 42.0617 54.3343 41.6316 54.5732C41.1981 54.8006 40.8892 55.0477 40.7049 55.3144C40.5173 55.5696 40.4674 55.8469 40.5553 56.1463C40.6398 56.4341 40.8318 56.6404 41.131 56.7651C41.4303 56.8898 41.8254 56.9364 42.3164 56.9047C42.804 56.8616 43.3875 56.7402 44.0668 56.5407C44.7461 56.3412 45.3025 56.1278 45.736 55.9004C46.1776 55.6581 46.4848 55.4053 46.6576 55.1419C46.8419 54.8752 46.8918 54.5979 46.8072 54.3101C46.7193 54.0107 46.5274 53.8044 46.2315 53.6912C45.9437 53.5631 45.5503 53.5223 45.0512 53.5689C44.5602 53.6005 43.9751 53.7161 43.2958 53.9156ZM58.1503 40.9418L61.1726 40.0541L61.7205 41.9193L58.6981 42.807L58.1503 40.9418ZM59.4928 36.5703L61.807 35.8906L64.5208 45.1303L62.2066 45.81L59.4928 36.5703ZM54.0353 48.9041L64.7085 45.7693L66.4534 51.7103L55.7803 54.8451L54.0353 48.9041ZM62.9736 48.2299L56.8253 50.0357L57.5101 52.3672L63.6584 50.5614L62.9736 48.2299ZM52.5495 40.2042L54.4147 39.6564L54.7139 40.6753C55.0081 41.677 55.1276 42.68 55.0724 43.6843C55.0172 44.6885 54.7571 45.6341 54.2922 46.5211C53.8354 47.3932 53.138 48.1483 52.1998 48.7866L50.5274 47.3079C51.1194 46.8964 51.6007 46.4486 51.9713 45.9646C52.3501 45.4656 52.6232 44.9477 52.7906 44.4107C52.9696 43.8704 53.0613 43.3307 53.0655 42.7916C53.0698 42.2526 52.9975 41.7298 52.8487 41.2232L52.5495 40.2042ZM53.033 40.0622L54.8637 39.5245L55.1579 40.5262C55.3405 41.1479 55.6498 41.7325 56.0857 42.2798C56.5182 42.8156 57.072 43.2533 57.747 43.5928C58.4336 43.929 59.2394 44.1176 60.1644 44.1585L59.5694 46.2844C58.4811 46.2413 57.5183 45.9863 56.6807 45.5194C55.8547 45.0491 55.1595 44.4279 54.595 43.6556C54.0305 42.8834 53.6079 42.0195 53.3272 41.0639L53.033 40.0622ZM49.1911 40.4589L57.7918 37.9328L58.3295 39.7635L49.7288 42.2896L49.1911 40.4589ZM71.7623 33.8296C72.8907 33.4982 73.9597 33.3906 74.9693 33.5068C75.9905 33.6196 76.8616 33.9453 77.5826 34.4839C78.3151 35.0192 78.8184 35.7531 79.0923 36.6858C79.3662 37.6184 79.3415 38.5136 79.0181 39.3715C78.7029 40.2145 78.1463 40.9595 77.3483 41.6066C76.5618 42.2504 75.6044 42.7379 74.4761 43.0693C73.3593 43.3973 72.2903 43.5049 71.2691 43.3921C70.2594 43.276 69.3883 42.9502 68.6558 42.415C67.9199 41.8682 67.415 41.1285 67.1411 40.1959C66.8672 39.2633 66.8936 38.3738 67.2203 37.5274C67.547 36.681 68.1036 35.936 68.8901 35.2923C69.6881 34.6452 70.6455 34.1576 71.7623 33.8296ZM72.3101 35.6948C71.5963 35.9045 70.9894 36.2015 70.4895 36.586C69.9896 36.9705 69.6393 37.4173 69.4387 37.9265C69.2461 38.4207 69.2344 38.9557 69.4035 39.5314C69.5726 40.1071 69.8734 40.5565 70.306 40.8797C70.7468 41.188 71.2814 41.3687 71.9098 41.4217C72.5382 41.4748 73.2093 41.3965 73.9232 41.1868C74.6601 40.9704 75.2727 40.6717 75.7611 40.2906C76.261 39.9061 76.6072 39.4667 76.7998 38.9725C77.0004 38.4633 77.0162 37.9209 76.8471 37.3452C76.678 36.7695 76.3731 36.3275 75.9324 36.0192C75.4998 35.696 74.9692 35.5079 74.3408 35.4548C73.7239 35.3984 73.047 35.4784 72.3101 35.6948ZM67.886 47.3311L82.376 43.0754L82.9289 44.9578L68.4389 49.2136L67.886 47.3311ZM83.8293 42.8549L98.3193 38.5991L98.8671 40.4643L84.3771 44.7201L83.8293 42.8549ZM89.0158 38.0297L91.2955 37.3602L92.4064 41.1424L90.1266 41.812L89.0158 38.0297ZM82.1374 31.0263L93.346 27.7342L94.9133 33.0708L86.0018 35.6882L86.788 38.3651L84.5083 39.0347L83.1945 34.5616L92.1061 31.9442L91.6039 30.2345L82.6751 32.8569L82.1374 31.0263ZM84.2445 38.1366L95.7985 34.7432L96.3362 36.5738L84.7822 39.9673L84.2445 38.1366Z" fill="#996E35"/>
</svg>
