<svg width="448" height="547" viewBox="0 0 448 547" fill="none" xmlns="http://www.w3.org/2000/svg">
<rect x="70" y="91" width="320" height="456" fill="#C28A41"/>
<rect x="70" y="91" width="320" height="107" fill="#A37334"/>
<rect x="90" y="178" width="280" height="349" fill="#FFEFDA"/>
<rect x="90" y="178" width="280" height="20" fill="#FAD4A2"/>
<path d="M320 163.693L331.007 174.965C343.164 187.415 363.33 186.944 374.892 173.938L384 163.693L379 54.929L320 2V163.693Z" fill="#BC0A0A"/>
<path d="M384 164.148L398.788 179.092C409.466 189.882 426.521 190.995 438.511 181.685L439.35 181.033C444.739 176.849 447.623 170.206 447.001 163.412L445 141.574L379 54.929L384 164.148Z" fill="#FF4343"/>
<path d="M256 163.693L244.993 174.965C232.836 187.415 212.67 186.944 201.108 173.938L192 163.693L192 0H256V163.693Z" fill="#BC0A0A"/>
<path d="M320 163.693L308.993 174.965C296.836 187.415 276.67 186.944 265.108 173.938L256 163.693V0H318C319.105 0 320 0.895432 320 2V163.693Z" fill="#FF4343"/>
<path d="M192 163.693L180.993 174.965C168.836 187.415 148.67 186.944 137.108 173.938L128 163.693L128 2C128 0.895432 128.895 0 130 0H192L192 163.693Z" fill="#FF4343"/>
<path d="M128 163.693L116.993 174.965C104.836 187.415 84.6705 186.944 73.1084 173.938L64 163.693L69 54.929L128 2L128 163.693Z" fill="#BC0A0A"/>
<path d="M64 164.148L49.2117 179.092C38.5338 189.882 21.4789 190.995 9.48887 181.685L8.64966 181.033C3.2607 176.849 0.376663 170.206 0.999184 163.412L3 141.574L69 54.929L64 164.148Z" fill="#FF4343"/>
</svg>
