<svg width="200" height="220" viewBox="0 0 200 220" fill="none" xmlns="http://www.w3.org/2000/svg">
<g clip-path="url(#clip0_351_308)">
<mask id="mask0_351_308" style="mask-type:alpha" maskUnits="userSpaceOnUse" x="78" y="122" width="45" height="59">
<path d="M80.5243 136.749C81.5902 133.623 83.8636 131.053 86.8374 129.616L91.1623 127.525L91.2091 127.502L91.252 127.473L93.8226 125.675C96.5763 123.75 99.9954 123.03 103.292 123.681L104.356 123.891C107.851 124.581 110.877 126.748 112.658 129.833L115.405 134.59C116.064 135.732 116.536 136.972 116.804 138.263L119.668 152.111C121.504 160.985 122.04 170.079 121.259 179.107C121.186 179.961 120.284 180.482 119.508 180.119C111.299 176.281 103.691 171.269 96.9238 165.242L86.3633 155.837C85.3788 154.961 84.5413 153.932 83.8821 152.79L81.1355 148.033C79.3544 144.948 78.9912 141.243 80.1406 137.872L80.5243 136.749Z" fill="#FF952C" stroke="#774E25" stroke-width="1.3"/>
</mask>
<g mask="url(#mask0_351_308)">
<path d="M87.121 130.201L91.4451 128.11L91.5395 128.065L91.6248 128.005L94.1945 126.208C96.8034 124.384 100.043 123.702 103.166 124.319L104.23 124.529C107.54 125.183 110.409 127.235 112.096 130.158L114.843 134.915C115.467 135.997 115.914 137.171 116.167 138.395L119.031 152.242C120.854 161.055 121.387 170.086 120.612 179.052C120.577 179.456 120.151 179.701 119.784 179.53C111.631 175.718 104.077 170.742 97.3562 164.757L86.7958 155.352C85.863 154.521 85.069 153.547 84.4445 152.465L81.6979 147.708C80.0106 144.785 79.6667 141.276 80.7557 138.082L81.1394 136.959C82.1492 133.997 84.3037 131.563 87.121 130.201Z" fill="#FF952C" stroke="#B17030" stroke-width="2.6"/>
<path d="M106.312 153.941C112.689 152.636 118.15 148.553 121.205 142.806L122.138 141.052" stroke="#E08325" stroke-width="2.6" stroke-linecap="round"/>
<path d="M110.213 160.696C116.589 159.391 122.05 155.308 125.105 149.561L126.038 147.807" stroke="#E08325" stroke-width="2.6" stroke-linecap="round"/>
</g>
<path d="M93.6376 131.987L77.1326 119" stroke="#2B833E" stroke-width="2.6"/>
<path d="M93.6376 131.987L84.5376 116.226" stroke="#2B833E" stroke-width="2.6"/>
<path d="M93.6375 131.987L92.1167 116.353" stroke="#2B833E" stroke-width="2.6"/>
<path d="M90.26 133.937C92.8837 133.401 95.2839 132.083 97.146 130.159L97.5779 129.712" stroke="#B17030" stroke-width="2.6"/>
</g>
<defs>
<clipPath id="clip0_351_308">
<rect width="200" height="220" fill="white"/>
</clipPath>
</defs>
</svg>
