<svg width="200" height="220" viewBox="0 0 200 220" fill="none" xmlns="http://www.w3.org/2000/svg">
<g clip-path="url(#clip0_351_321)">
<path d="M87.5537 126.883C91.9031 124.372 95.4602 123.167 98.4847 123.072C101.562 122.977 103.991 124.035 106.031 125.831C108.031 127.592 109.651 130.058 111.191 132.773C111.964 134.137 112.733 135.594 113.523 137.078C114.316 138.568 115.134 140.095 116.018 141.627L116.059 141.697L116.088 141.772C118.787 148.652 119.147 153.025 118.479 157.47C118.152 159.647 117.58 161.829 116.961 164.268C116.34 166.721 115.658 169.483 115.078 172.895L114.86 174.18L113.638 173.727C110.393 172.522 107.66 171.732 105.225 171.044C102.804 170.36 100.627 169.765 98.5784 168.959C94.3953 167.315 90.7883 164.818 86.1792 159.04L86.129 158.976L86.0885 158.906C85.2041 157.374 84.2912 155.903 83.3972 154.471C82.5064 153.045 81.6296 151.651 80.8349 150.299C79.2532 147.608 77.9278 144.972 77.4025 142.36C76.8668 139.695 77.1655 137.062 78.7868 134.445C80.3807 131.873 83.2041 129.395 87.5537 126.883Z" fill="#FFFFF3" stroke="#AED8A4" stroke-width="2.16"/>
<path d="M90.2533 131.56L76.5415 120.771" stroke="#2B833E" stroke-width="2.16"/>
<path d="M88.2351 131.09L80.8616 128.253" stroke="#2B833E" stroke-width="2.16"/>
<path d="M90.2534 131.56L82.6934 118.466" stroke="#2B833E" stroke-width="2.16"/>
<path d="M88.2462 128.531L85.2007 113.72" stroke="#2B833E" stroke-width="2.16"/>
<path d="M90.2532 131.56L88.9898 118.572" stroke="#2B833E" stroke-width="2.16"/>
<path d="M84.6768 126.718L77.6536 115.719" stroke="#2B833E" stroke-width="2.16"/>
<path d="M85.9722 132.785C88.1518 132.339 90.1459 131.245 91.6929 129.646L92.0517 129.275" stroke="#AAF19A" stroke-width="2.16"/>
</g>
<defs>
<clipPath id="clip0_351_321">
<rect width="200" height="220" fill="white"/>
</clipPath>
</defs>
</svg>
