<svg width="200" height="220" viewBox="0 0 200 220" fill="none" xmlns="http://www.w3.org/2000/svg">
<g clip-path="url(#clip0_351_378)">
<mask id="mask0_351_378" style="mask-type:alpha" maskUnits="userSpaceOnUse" x="35" y="154" width="130" height="40">
<path d="M145.439 155.64C155.217 155.101 163.44 162.884 163.44 172.676C163.44 181.614 156.542 189.038 147.627 189.692L132.408 190.81L100 191.998L67.5908 190.81L52.373 189.692C43.4585 189.038 36.5596 181.614 36.5596 172.676C36.5596 162.884 44.7835 155.101 54.5605 155.64L67.4141 156.347L67.4424 156.349L67.4717 156.35L99.9717 156.945L100 156.946L100.028 156.945L132.528 156.35L132.558 156.349L132.586 156.347L145.439 155.64Z" fill="white" stroke="#B1B1B1" stroke-width="3.12"/>
</mask>
<g mask="url(#mask0_351_378)">
<path d="M35 172.676C35 161.989 43.9751 153.494 54.6461 154.082L67.5 154.789L100 155.386L132.5 154.789L145.354 154.082C156.025 153.494 165 161.989 165 172.676C165 182.432 157.471 190.534 147.741 191.248L132.5 192.367L100 193.56L67.5 192.367L52.2589 191.248C42.5292 190.534 35 182.432 35 172.676Z" fill="white"/>
<rect width="6.08859" height="41.7271" transform="matrix(0.978924 0.204225 -0.182409 0.983223 53.0117 153)" fill="#187CFF"/>
<rect width="6.08859" height="41.7271" transform="matrix(0.978924 0.204225 -0.182409 0.983223 39.4912 151.96)" fill="#187CFF"/>
<rect width="6.08859" height="41.7271" transform="matrix(0.995451 0.0952724 -0.0731163 0.997324 65.2407 154.078)" fill="#187CFF"/>
<rect width="6.08859" height="41.7271" transform="matrix(0.999497 0.031731 -0.00950068 0.999955 79.0762 154.04)" fill="#187CFF"/>
<rect width="6.08859" height="41.7271" transform="matrix(0.999497 0.031731 -0.00950068 0.999955 93.6367 154.04)" fill="#187CFF"/>
<rect width="6.08859" height="41.7271" transform="matrix(0.999999 0.00130705 0.020927 0.999781 107.56 154.136)" fill="#187CFF"/>
<rect width="6.08859" height="41.7271" transform="matrix(0.999999 0.00130705 0.020927 0.999781 122.36 154.04)" fill="#187CFF"/>
<rect width="6.08859" height="41.7271" transform="matrix(0.998835 -0.0482655 0.0704614 0.997515 135.89 154.238)" fill="#187CFF"/>
<rect width="6.08859" height="41.7271" transform="matrix(0.998835 -0.0482655 0.0704614 0.997515 149.4 154.334)" fill="#187CFF"/>
<path d="M145.439 155.64C155.217 155.101 163.44 162.884 163.44 172.676C163.44 181.614 156.542 189.038 147.627 189.692L132.408 190.81L100 191.998L67.5908 190.81L52.373 189.692C43.4585 189.038 36.5596 181.614 36.5596 172.676C36.5596 162.884 44.7835 155.101 54.5605 155.64L67.4141 156.347L67.4424 156.349L67.4717 156.35L99.9717 156.945L100 156.946L100.028 156.945L132.528 156.35L132.558 156.349L132.586 156.347L145.439 155.64Z" stroke="#B1B1B1" stroke-width="3.12"/>
</g>
</g>
<defs>
<clipPath id="clip0_351_378">
<rect width="200" height="220" fill="white"/>
</clipPath>
</defs>
</svg>
