<svg width="200" height="220" viewBox="0 0 200 220" fill="none" xmlns="http://www.w3.org/2000/svg">
<g clip-path="url(#clip0_350_100)">
<mask id="path-1-inside-1_350_100" fill="white">
<path d="M111.155 148.097C115.7 144.193 122.244 144.357 125.77 148.463C129.297 152.568 126.324 161.883 121.779 165.787C117.233 169.691 112.835 166.707 109.309 162.602C105.782 158.496 106.609 152.002 111.155 148.097ZM122.16 151.808C120.437 149.801 116.705 150.18 113.825 152.653C110.946 155.127 110.008 158.758 111.731 160.764C113.454 162.77 115.756 164.097 118.636 161.624C121.516 159.15 123.883 153.814 122.16 151.808Z"/>
</mask>
<path d="M111.155 148.097C115.7 144.193 122.244 144.357 125.77 148.463C129.297 152.568 126.324 161.883 121.779 165.787C117.233 169.691 112.835 166.707 109.309 162.602C105.782 158.496 106.609 152.002 111.155 148.097ZM122.16 151.808C120.437 149.801 116.705 150.18 113.825 152.653C110.946 155.127 110.008 158.758 111.731 160.764C113.454 162.77 115.756 164.097 118.636 161.624C121.516 159.15 123.883 153.814 122.16 151.808Z" fill="#8BBDFF"/>
<path d="M111.155 148.097L110.243 147.035L110.243 147.035L111.155 148.097ZM125.77 148.463L126.832 147.55L126.832 147.55L125.77 148.463ZM121.779 165.787L122.691 166.849L122.691 166.849L121.779 165.787ZM109.309 162.602L108.247 163.514L108.247 163.514L109.309 162.602ZM122.16 151.808L123.222 150.895L123.222 150.895L122.16 151.808ZM113.825 152.653L112.913 151.591L112.913 151.591L113.825 152.653ZM111.731 160.764L110.669 161.676L110.669 161.676L111.731 160.764ZM118.636 161.624L119.548 162.686L119.548 162.686L118.636 161.624ZM111.155 148.097L112.067 149.159C116.13 145.67 121.771 145.955 124.708 149.375L125.77 148.463L126.832 147.55C122.717 142.759 115.271 142.717 110.243 147.035L111.155 148.097ZM125.77 148.463L124.708 149.375C126.016 150.897 126.279 153.663 125.447 156.846C124.632 159.966 122.878 162.998 120.866 164.725L121.779 165.787L122.691 166.849C125.225 164.672 127.23 161.095 128.156 157.555C129.065 154.079 129.051 150.134 126.832 147.55L125.77 148.463ZM121.779 165.787L120.866 164.725C119.885 165.568 118.978 165.985 118.153 166.137C117.33 166.29 116.499 166.197 115.642 165.883C113.877 165.238 112.089 163.689 110.371 161.689L109.309 162.602L108.247 163.514C110.056 165.62 112.229 167.616 114.681 168.513C115.932 168.971 117.274 169.148 118.663 168.891C120.052 168.633 121.399 167.958 122.691 166.849L121.779 165.787ZM109.309 162.602L110.371 161.689C107.433 158.269 108.003 152.649 112.067 149.159L111.155 148.097L110.243 147.035C105.215 151.354 104.131 158.722 108.247 163.514L109.309 162.602ZM122.16 151.808L123.222 150.895C121.979 149.448 120.106 148.973 118.285 149.158C116.459 149.343 114.543 150.191 112.913 151.591L113.825 152.653L114.738 153.715C115.987 152.642 117.378 152.064 118.568 151.943C119.764 151.822 120.618 152.161 121.098 152.72L122.16 151.808ZM113.825 152.653L112.913 151.591C111.283 152.991 110.156 154.756 109.697 156.534C109.239 158.306 109.426 160.229 110.669 161.676L111.731 160.764L112.793 159.852C112.313 159.293 112.107 158.398 112.408 157.234C112.707 156.076 113.488 154.789 114.738 153.715L113.825 152.653ZM111.731 160.764L110.669 161.676C111.601 162.762 112.848 163.861 114.426 164.236C116.11 164.636 117.851 164.143 119.548 162.686L118.636 161.624L117.724 160.562C116.54 161.578 115.691 161.659 115.073 161.512C114.349 161.34 113.583 160.772 112.793 159.852L111.731 160.764ZM118.636 161.624L119.548 162.686C121.187 161.278 122.621 159.124 123.429 157.048C123.835 156.004 124.11 154.91 124.141 153.882C124.171 152.866 123.964 151.759 123.222 150.895L122.16 151.808L121.098 152.72C121.218 152.859 121.361 153.172 121.342 153.798C121.323 154.412 121.15 155.183 120.819 156.033C120.153 157.745 118.965 159.496 117.724 160.562L118.636 161.624Z" fill="#4251A8" mask="url(#path-1-inside-1_350_100)"/>
<mask id="path-3-outside-2_350_100" maskUnits="userSpaceOnUse" x="62.8004" y="146.598" width="64.6386" height="54.9648" fill="black">
<rect fill="white" x="62.8004" y="146.598" width="64.6386" height="54.9648"/>
<path d="M107.328 151.285C107.951 150.995 108.692 151.2 109.078 151.768L122.63 171.745C124.566 174.598 123.487 178.506 120.363 179.963L95.4834 191.565C92.3584 193.022 88.6711 191.336 87.7293 188.019L86.3929 183.314L66.8788 173.856L67.9607 169.934L82.7407 170.449L81.1375 164.797C80.9499 164.136 81.2695 163.436 81.8922 163.146L107.328 151.285Z"/>
</mask>
<path d="M107.328 151.285C107.951 150.995 108.692 151.2 109.078 151.768L122.63 171.745C124.566 174.598 123.487 178.506 120.363 179.963L95.4834 191.565C92.3584 193.022 88.6711 191.336 87.7293 188.019L86.3929 183.314L66.8788 173.856L67.9607 169.934L82.7407 170.449L81.1375 164.797C80.9499 164.136 81.2695 163.436 81.8922 163.146L107.328 151.285Z" fill="#8BBDFF"/>
<path d="M107.328 151.285L106.737 150.016L106.736 150.016L107.328 151.285ZM109.078 151.768L107.92 152.554L107.92 152.554L109.078 151.768ZM122.63 171.745L123.789 170.959L123.789 170.959L122.63 171.745ZM120.363 179.963L120.954 181.232L120.954 181.232L120.363 179.963ZM87.7293 188.019L89.0761 187.637L89.076 187.637L87.7293 188.019ZM86.3929 183.314L87.7397 182.932L87.5682 182.328L87.0036 182.054L86.3929 183.314ZM66.8788 173.856L65.5292 173.483L65.2192 174.607L66.2682 175.115L66.8788 173.856ZM67.9607 169.934L68.0094 168.535L66.905 168.497L66.6111 169.562L67.9607 169.934ZM82.7407 170.449L82.692 171.848L84.6118 171.915L84.0876 170.067L82.7407 170.449ZM81.1375 164.797L82.4844 164.415L82.4843 164.415L81.1375 164.797ZM81.8922 163.146L81.3005 161.877L81.3002 161.877L81.8922 163.146ZM107.328 151.285L107.92 152.554L107.92 152.554L109.078 151.768L110.237 150.982C109.466 149.846 107.983 149.435 106.737 150.016L107.328 151.285ZM109.078 151.768L107.92 152.554L121.472 172.531L122.63 171.745L123.789 170.959L110.237 150.982L109.078 151.768ZM122.63 171.745L121.471 172.531C122.923 174.671 122.114 177.601 119.771 178.694L120.363 179.963L120.954 181.232C124.86 179.41 126.208 174.526 123.789 170.959L122.63 171.745ZM120.363 179.963L119.771 178.694L94.8918 190.296L95.4834 191.565L96.0751 192.833L120.954 181.232L120.363 179.963ZM95.4834 191.565L94.8918 190.296C92.5478 191.389 89.7824 190.124 89.0761 187.637L87.7293 188.019L86.3825 188.402C87.5599 192.548 92.169 194.655 96.0751 192.833L95.4834 191.565ZM87.7293 188.019L89.076 187.637L87.7397 182.932L86.3929 183.314L85.0462 183.697L86.3826 188.402L87.7293 188.019ZM86.3929 183.314L87.0036 182.054L67.4894 172.596L66.8788 173.856L66.2682 175.115L85.7823 184.574L86.3929 183.314ZM66.8788 173.856L68.2284 174.228L69.3102 170.307L67.9607 169.934L66.6111 169.562L65.5292 173.483L66.8788 173.856ZM67.9607 169.934L67.9119 171.333L82.692 171.848L82.7407 170.449L82.7895 169.05L68.0094 168.535L67.9607 169.934ZM82.7407 170.449L84.0876 170.067L82.4844 164.415L81.1375 164.797L79.7907 165.179L81.3939 170.831L82.7407 170.449ZM81.1375 164.797L82.4843 164.415L82.4841 164.415L81.8922 163.146L81.3002 161.877C80.0543 162.458 79.4156 163.858 79.7907 165.18L81.1375 164.797ZM81.8922 163.146L82.4838 164.415L107.92 152.554L107.328 151.285L106.736 150.016L81.3005 161.877L81.8922 163.146Z" fill="#4251A8" mask="url(#path-3-outside-2_350_100)"/>
<path d="M103.115 169.305C105.553 171.521 108.374 174.484 107.516 177.666C107.203 178.829 106.281 179.579 104.943 180.202C104.477 180.42 104.031 180.589 103.602 180.695C98.9436 181.85 98.3229 174.253 97.9473 169.469C97.8537 168.275 97.7264 166.688 97.5473 164.342C100.516 167.062 101.938 168.235 103.115 169.305Z" fill="white"/>
<path d="M65.743 165.598C65.9736 164.682 67.0264 164.252 67.8318 164.745L73.0229 167.925L73.4618 168.194L70.932 178.24L70.4182 178.268L64.3402 178.61C63.3974 178.663 62.6735 177.786 62.9041 176.871L65.743 165.598Z" fill="white" stroke="#D2D2D2" stroke-width="1.4"/>
</g>
<defs>
<clipPath id="clip0_350_100">
<rect width="200" height="220" fill="white"/>
</clipPath>
</defs>
</svg>
