<svg width="200" height="220" viewBox="0 0 200 220" fill="none" xmlns="http://www.w3.org/2000/svg">
<g clip-path="url(#clip0_351_436)">
<path d="M124.842 124.208C125.65 124.674 126.735 125.489 127.284 126.737C127.782 127.87 127.896 129.494 126.689 131.786C123.105 131.322 120.5 132.023 118.61 133.448C116.654 134.924 115.574 137.094 114.914 139.224C114.795 139.607 114.472 139.826 114.158 139.857C113.87 139.885 113.646 139.764 113.553 139.458C112.975 137.559 112.836 136.031 113.094 134.516C113.355 132.988 114.029 131.414 115.173 129.433C116.624 126.92 118.723 125.399 120.654 124.623C121.621 124.234 122.534 124.036 123.288 123.99C124.065 123.943 124.588 124.061 124.842 124.208Z" fill="#ECE938" stroke="#6F6700" stroke-width="1.44"/>
<mask id="path-2-outside-1_351_436" maskUnits="userSpaceOnUse" x="88.1923" y="105.854" width="63.3993" height="56.8109" fill="black">
<rect fill="white" x="88.1923" y="105.854" width="63.3993" height="56.8109"/>
<path d="M144.46 130.546C146.871 131.938 147.697 135.02 146.305 137.431L144.145 141.173C142.995 143.163 140.693 144.071 138.568 143.544L133.923 150.236L131.043 155.224C130.248 156.602 128.487 157.074 127.109 156.278L121.507 153.044C120.797 152.634 120.52 151.748 120.869 151.007C121.688 149.27 122.378 147.474 122.935 145.637L124.563 140.269C124.979 138.896 125.183 137.471 125.175 136.04L103.589 123.577C101.178 122.186 100.353 119.103 101.744 116.693L103.904 112.951C105.296 110.541 108.379 109.715 110.789 111.106L144.46 130.546Z"/>
</mask>
<path d="M144.46 130.546C146.871 131.938 147.697 135.02 146.305 137.431L144.145 141.173C142.995 143.163 140.693 144.071 138.568 143.544L133.923 150.236L131.043 155.224C130.248 156.602 128.487 157.074 127.109 156.278L121.507 153.044C120.797 152.634 120.52 151.748 120.869 151.007C121.688 149.27 122.378 147.474 122.935 145.637L124.563 140.269C124.979 138.896 125.183 137.471 125.175 136.04L103.589 123.577C101.178 122.186 100.353 119.103 101.744 116.693L103.904 112.951C105.296 110.541 108.379 109.715 110.789 111.106L144.46 130.546Z" fill="#ECE938"/>
<path d="M144.145 141.173L145.392 141.893L145.392 141.893L144.145 141.173ZM138.568 143.544L138.915 142.146L137.952 141.907L137.385 142.723L138.568 143.544ZM133.923 150.236L132.74 149.415L132.706 149.464L132.676 149.516L133.923 150.236ZM131.043 155.224L132.29 155.944L132.29 155.944L131.043 155.224ZM120.869 151.007L119.567 150.393L119.566 150.393L120.869 151.007ZM122.935 145.637L121.557 145.219L121.557 145.219L122.935 145.637ZM124.563 140.269L125.941 140.686L125.941 140.686L124.563 140.269ZM125.175 136.04L126.615 136.033L126.611 135.206L125.895 134.793L125.175 136.04ZM101.744 116.693L100.497 115.973L100.497 115.973L101.744 116.693ZM103.904 112.951L105.151 113.671L103.904 112.951ZM144.46 130.546L143.74 131.793C145.462 132.787 146.052 134.989 145.058 136.711L146.305 137.431L147.552 138.151C149.341 135.052 148.279 131.089 145.18 129.299L144.46 130.546ZM146.305 137.431L145.058 136.711L142.898 140.453L144.145 141.173L145.392 141.893L147.552 138.151L146.305 137.431ZM144.145 141.173L142.898 140.453C142.078 141.872 140.435 142.523 138.915 142.146L138.568 143.544L138.221 144.942C140.952 145.619 143.912 144.455 145.392 141.893L144.145 141.173ZM138.568 143.544L137.385 142.723L132.74 149.415L133.923 150.236L135.106 151.057L139.751 144.365L138.568 143.544ZM133.923 150.236L132.676 149.516L129.796 154.504L131.043 155.224L132.29 155.944L135.17 150.956L133.923 150.236ZM131.043 155.224L129.796 154.504C129.399 155.193 128.518 155.429 127.829 155.031L127.109 156.278L126.389 157.525C128.456 158.718 131.097 158.01 132.29 155.944L131.043 155.224ZM127.109 156.278L127.829 155.031L122.227 151.797L121.507 153.044L120.787 154.291L126.389 157.525L127.109 156.278ZM121.507 153.044L122.227 151.797C122.166 151.761 122.142 151.684 122.172 151.62L120.869 151.007L119.566 150.393C118.898 151.812 119.429 153.507 120.787 154.291L121.507 153.044ZM120.869 151.007L122.172 151.621C123.02 149.82 123.736 147.959 124.313 146.055L122.935 145.637L121.557 145.219C121.02 146.99 120.355 148.719 119.567 150.393L120.869 151.007ZM122.935 145.637L124.313 146.055L125.941 140.686L124.563 140.269L123.185 139.851L121.557 145.219L122.935 145.637ZM124.563 140.269L125.941 140.686C126.4 139.174 126.623 137.605 126.615 136.033L125.175 136.04L123.735 136.048C123.742 137.337 123.559 138.619 123.185 139.851L124.563 140.269ZM125.175 136.04L125.895 134.793L104.309 122.33L103.589 123.577L102.869 124.825L124.455 137.287L125.175 136.04ZM103.589 123.577L104.309 122.33C102.587 121.336 101.997 119.134 102.991 117.413L101.744 116.693L100.497 115.973C98.708 119.072 99.7696 123.035 102.869 124.825L103.589 123.577ZM101.744 116.693L102.991 117.413L105.151 113.671L103.904 112.951L102.657 112.231L100.497 115.973L101.744 116.693ZM103.904 112.951L105.151 113.671C106.145 111.949 108.347 111.359 110.069 112.353L110.789 111.106L111.509 109.859C108.41 108.07 104.447 109.132 102.657 112.231L103.904 112.951ZM110.789 111.106L110.069 112.353L143.74 131.793L144.46 130.546L145.18 129.299L111.509 109.859L110.789 111.106Z" fill="#6F6700" mask="url(#path-2-outside-1_351_436)"/>
<rect x="100.883" y="109.544" width="3.6" height="7.92" transform="rotate(30 100.883 109.544)" fill="#ECE938" stroke="#6F6700" stroke-width="1.44"/>
<path d="M111.361 123.076L138.485 138.736C139.174 139.134 140.054 138.898 140.452 138.209L142.792 134.156" stroke="#E0DD33" stroke-width="3.6" stroke-linecap="round"/>
<rect x="118.42" y="102.21" width="46.8" height="9.36" rx="4.68" transform="rotate(30 118.42 102.21)" fill="#ABECF0" stroke="#7093B4" stroke-width="1.44"/>
<mask id="mask0_351_436" style="mask-type:alpha" maskUnits="userSpaceOnUse" x="114" y="103" width="44" height="30">
<rect x="118.42" y="102.21" width="46.8" height="9.36" rx="4.68" transform="rotate(30 118.42 102.21)" fill="#ABECF0" stroke="#7093B4" stroke-width="1.44"/>
</mask>
<g mask="url(#mask0_351_436)">
<rect x="118.683" y="103.193" width="45.36" height="7.92" rx="3.96" transform="rotate(30 118.683 103.193)" fill="#ABECF0"/>
<path d="M144.345 116.346C144.216 120.169 142.191 123.676 138.945 125.699" stroke="#6BE0E7" stroke-width="3.6"/>
<path d="M149.957 119.586C149.828 123.409 147.803 126.916 144.557 128.939" stroke="#6BE0E7" stroke-width="3.6"/>
<rect x="118.42" y="102.21" width="46.8" height="9.36" rx="4.68" transform="rotate(30 118.42 102.21)" stroke="#7093B4" stroke-width="1.44"/>
</g>
</g>
<defs>
<clipPath id="clip0_351_436">
<rect width="200" height="220" fill="white"/>
</clipPath>
</defs>
</svg>
