<svg width="64" height="68" viewBox="0 0 64 68" fill="none" xmlns="http://www.w3.org/2000/svg">
<path d="M62.2499 34.5391C62.2499 56.4998 48.763 55.5971 31.7999 55.5971C14.8369 55.5971 2.04993 56.4998 2.04993 34.5391C2.04993 24.4547 4.84993 6.94703 12.8999 3.09707C24.5098 -2.45542 22.9764 10.0971 32.1499 10.0971C41.3235 10.0971 36.6999 2.39709 46.1499 1.69709C55.856 0.978118 62.2499 24.4547 62.2499 34.5391Z" fill="#F9F9F9"/>
<path d="M20.95 2.39697L26.4104 7.57006C27.1929 8.31132 28.1359 8.86188 29.166 9.17885L30.0059 9.43726C31.4003 9.86632 32.894 9.84896 34.2781 9.38759L34.8821 9.18627C35.849 8.86396 36.7339 8.33439 37.4748 7.63457L42.65 2.74697" stroke="#848484" stroke-width="2.1"/>
<path d="M29.6476 53.8467L29.0499 66.0967H12.714L10.3243 53.8467H29.6476Z" fill="#2C73C6" stroke="#1A3752" stroke-width="2.1"/>
<path d="M34.6523 53.8467L35.2499 66.0967H51.5859L53.9755 53.8467H34.6523Z" fill="#2C73C6" stroke="#1A3752" stroke-width="2.1"/>
<path d="M46.8496 15.6968L45.7041 16.686C59.7613 13.8436 58.7184 10.9801 61.2002 20.5972C64.0001 31.4469 63.6994 26.9064 62.9502 35.2974C61.2001 54.8969 50.3499 58.0469 32.1162 58.397C15.1723 58.397 1.7002 56.1074 1.7002 35.647C1.70019 26.3752 0.300017 28.9969 2.75 20.5972C5.14047 12.4015 3.84466 15.2947 19.3232 17.437L17.0996 15.6968L13.25 0.996582L21.2998 2.04639L24.3857 18.0366C26.6766 18.2637 29.2415 18.4635 32.1162 18.6138C35.0772 18.346 37.703 18.0239 40.0352 17.6772L43 2.04639L50.7002 0.996582L46.8496 15.6968Z" fill="#2C73C6"/>
<path d="M52.1 32.8467V46.9072C39.351 50.9857 25.6487 50.9858 12.8998 46.9072V32.8467H52.1Z" fill="#2C73C6" stroke="#1A3752" stroke-width="2.1"/>
<path d="M20.6 2.04688L24.9042 17.2772C25.0538 17.8066 25.4997 18.1993 26.0437 18.2809L31.1363 19.0448C31.8085 19.1457 32.4918 19.148 33.1647 19.0519L38.5366 18.2845C39.1158 18.2018 39.5824 17.7676 39.7067 17.196L43 2.04688" stroke="#1A3752" stroke-width="2.1"/>
<path d="M4.84988 20.2469L6.59988 13.9469L17.7999 16.3969L20.5999 25.1469L7.99988 29.347L4.84988 20.2469Z" fill="#F9F9F9"/>
<path d="M4.49988 18.147L7.99988 29.697L20.5999 25.497L13.2499 2.39697" stroke="#848484" stroke-width="2.1" stroke-linecap="round"/>
<path d="M59.4499 19.1968L56.9999 13.2359L46.4999 14.9968L43.1205 24.7879L55.7205 28.9879L59.4499 19.1968Z" fill="#F9F9F9"/>
<path d="M59.4499 18.1469L55.7205 29.3379L43.1205 25.1379L50.6999 2.04688" stroke="#848484" stroke-width="2.1" stroke-linecap="round"/>
<path d="M12.2 1.69678L7.29998 11.1468L4.84998 17.4468" stroke="#848484" stroke-width="2.1" stroke-linecap="round"/>
<path d="M51.4 1.69678L54.1486 6.46106C55.814 9.34785 57.2712 12.3499 58.509 15.4443L59.45 17.7968" stroke="#848484" stroke-width="2.1" stroke-linecap="round"/>
<path d="M10.7999 54.8967L8.35774 52.7418C6.04687 50.7028 4.20707 48.1856 2.96589 45.3648V45.3648C1.6721 42.4243 1.06171 39.2288 1.18061 36.0186L1.34994 31.4467L3.09994 22.3467" stroke="#1A3752" stroke-width="2.1" stroke-linecap="round"/>
<path d="M53.15 54.5466L56.8433 50.8533C58.567 49.1295 59.9667 47.1098 60.9754 44.8906V44.8906C62.2741 42.0334 62.8937 38.9143 62.7855 35.7777L62.6 30.3966L60.85 21.9966" stroke="#1A3752" stroke-width="2.1" stroke-linecap="round"/>
<path d="M20.2499 56.9966V56.9966C28.0764 58.8381 36.2235 58.8381 44.0499 56.9966V56.9966" stroke="#1A3752" stroke-width="2.1" stroke-linecap="round"/>
</svg>
