<svg width="64" height="68" viewBox="0 0 64 68" fill="none" xmlns="http://www.w3.org/2000/svg">
<path d="M62.25 34.5425C62.25 56.5032 48.763 55.6005 31.8 55.6005C14.837 55.6005 2.04999 56.5032 2.04999 34.5425C2.04999 24.4581 4.84999 6.95045 12.9 3.10049C24.5099 -2.45201 22.9765 10.1005 32.15 10.1005C41.3235 10.1005 36.7 2.4005 46.15 1.7005C55.8561 0.981536 62.25 24.4581 62.25 34.5425Z" fill="#F9F9F9"/>
<path d="M20.95 2.40039L26.4105 7.57348C27.1929 8.31474 28.136 8.8653 29.1661 9.18227L30.006 9.44068C31.4004 9.86974 32.8941 9.85237 34.2782 9.39101L34.8821 9.18968C35.8491 8.86738 36.7339 8.33781 37.4749 7.63799L42.65 2.75039" stroke="#848484" stroke-width="2.1"/>
<path d="M29.6476 53.8501L29.05 66.1001H12.7141L10.3244 53.8501H29.6476Z" fill="#688C46" stroke="#1C5320" stroke-width="2.1"/>
<path d="M34.6523 53.8501L35.25 66.1001H51.5859L53.9756 53.8501H34.6523Z" fill="#688C46" stroke="#1C5320" stroke-width="2.1"/>
<path d="M46.8497 15.7002L45.7042 16.6895C59.7613 13.847 58.7184 10.9835 61.2003 20.6006C64.0002 31.4503 63.6994 26.9098 62.9503 35.3008C61.2002 54.9003 50.35 58.0503 32.1163 58.4004C15.1724 58.4004 1.70026 56.1108 1.70026 35.6504C1.70025 26.3786 0.300073 29.0003 2.75006 20.6006C5.14053 12.4049 3.84468 15.2981 19.3233 17.4404L17.0997 15.7002L13.2501 1L21.2999 2.0498L24.3858 18.04C26.6766 18.2671 29.2416 18.4669 32.1163 18.6172C35.0772 18.3494 37.7031 18.0273 40.0352 17.6807L43.0001 2.0498L50.7003 1L46.8497 15.7002Z" fill="#688C46"/>
<path d="M52.1 32.8501V46.9106C39.3511 50.9892 25.6488 50.9892 12.8998 46.9106V32.8501H52.1Z" fill="#688C46" stroke="#1C5320" stroke-width="2.1"/>
<path d="M20.6 2.05029L24.9042 17.2806C25.0538 17.81 25.4997 18.2027 26.0438 18.2844L31.1364 19.0482C31.8085 19.1491 32.4918 19.1515 33.1647 19.0553L38.5367 18.2879C39.1158 18.2052 39.5824 17.7711 39.7067 17.1994L43 2.05029" stroke="#1C5320" stroke-width="2.1"/>
<path d="M4.85001 20.2504L6.60001 13.9504L17.8 16.4003L20.6 25.1504L8.00001 29.3504L4.85001 20.2504Z" fill="#F9F9F9"/>
<path d="M4.5 18.1504L8 29.7004L20.6 25.5004L13.25 2.40039" stroke="#848484" stroke-width="2.1" stroke-linecap="round"/>
<path d="M59.45 19.2002L57 13.2393L46.5 15.0002L43.1207 24.7913L55.7207 28.9913L59.45 19.2002Z" fill="#F9F9F9"/>
<path d="M59.45 18.1503L55.7207 29.3413L43.1207 25.1413L50.7 2.05029" stroke="#848484" stroke-width="2.1" stroke-linecap="round"/>
<path d="M12.2 1.7002L7.30004 11.1502L4.85004 17.4502" stroke="#848484" stroke-width="2.1" stroke-linecap="round"/>
<path d="M51.4 1.7002L54.1486 6.46448C55.8141 9.35127 57.2713 12.3533 58.509 15.4477L59.45 17.8002" stroke="#848484" stroke-width="2.1" stroke-linecap="round"/>
<path d="M10.8 54.9001L8.35781 52.7452C6.04693 50.7062 4.20713 48.189 2.96595 45.3682V45.3682C1.67216 42.4277 1.06177 39.2323 1.18067 36.022L1.35 31.4501L3.1 22.3501" stroke="#1C5320" stroke-width="2.1" stroke-linecap="round"/>
<path d="M53.15 54.55L56.8433 50.8567C58.5671 49.1329 59.9667 47.1132 60.9755 44.894V44.894C62.2742 42.0368 62.8937 38.9177 62.7856 35.7811L62.6 30.4L60.85 22" stroke="#1C5320" stroke-width="2.1" stroke-linecap="round"/>
<path d="M20.25 57V57C28.0765 58.8415 36.2235 58.8415 44.05 57V57" stroke="#1C5320" stroke-width="2.1" stroke-linecap="round"/>
</svg>
