<svg width="66" height="60" viewBox="0 0 66 60" fill="none" xmlns="http://www.w3.org/2000/svg">
<mask id="mask0_340_426" style="mask-type:alpha" maskUnits="userSpaceOnUse" x="0" y="0" width="66" height="60">
<path d="M14.791 1.06836C14.8635 1.04401 14.9563 1.00412 15.2305 1.24707C15.5547 1.53439 15.9287 2.05853 16.4033 2.86328C16.8875 3.68415 17.3432 4.5559 17.9648 5.64062C20.3429 9.78997 24.1895 15.2841 32.5498 15.2842C41.2254 15.2842 45.2972 9.90653 47.9268 5.79004C48.5991 4.73753 49.1353 3.83715 49.6709 3.04297C50.2052 2.25075 50.6423 1.71631 51.0361 1.41211C51.3864 1.14161 51.6182 1.11143 51.8545 1.17188C52.1768 1.25444 52.6997 1.56021 53.4639 2.42285C56.9618 6.37188 59.6182 12.1363 61.3984 18.2227C63.175 24.2966 64.0498 30.5914 64.0498 35.5254C64.0498 40.9087 63.178 44.9729 61.6523 48.0518C60.1351 51.1137 57.9443 53.2573 55.1973 54.7705C49.6236 57.8407 41.7565 58.334 32.5498 58.334C23.3431 58.334 15.4759 57.8407 9.90234 54.7705C7.15542 53.2573 4.96451 51.1136 3.44727 48.0518C1.92162 44.9729 1.0498 40.9086 1.0498 35.5254C1.04989 30.6788 2.74299 24.2821 5.17773 18.0908C7.60674 11.9142 10.7222 6.0723 13.4668 2.34961C14.1425 1.43312 14.5768 1.14025 14.791 1.06836Z" fill="#87D1FF" stroke="#3696D6" stroke-width="2.1"/>
</mask>
<g mask="url(#mask0_340_426)">
<path d="M65.1 35.5258C65.1 57.4864 50.8937 59.3838 32.55 59.3838C14.2063 59.3838 0 57.4864 0 35.5258C0 25.4413 6.99448 9.35928 12.6214 1.72694C18.2484 -5.90539 17.0298 14.2337 32.55 14.2337C48.7702 14.2337 47.7421 -5.6203 54.25 1.72694C61.5328 9.94901 65.1 25.4413 65.1 35.5258Z" fill="#87D1FF"/>
<rect x="-4.2002" y="19.4838" width="74.2" height="9.8" fill="white"/>
<rect x="-4.2002" y="38.3838" width="74.2" height="9.8" fill="white"/>
<path d="M14.791 1.06836C14.8635 1.04401 14.9563 1.00412 15.2305 1.24707C15.5547 1.53439 15.9287 2.05853 16.4033 2.86328C16.8875 3.68415 17.3432 4.5559 17.9648 5.64062C20.3429 9.78997 24.1895 15.2841 32.5498 15.2842C41.2254 15.2842 45.2972 9.90653 47.9268 5.79004C48.5991 4.73753 49.1353 3.83715 49.6709 3.04297C50.2052 2.25075 50.6423 1.71631 51.0361 1.41211C51.3864 1.14161 51.6182 1.11143 51.8545 1.17188C52.1768 1.25444 52.6997 1.56021 53.4639 2.42285C56.9618 6.37188 59.6182 12.1363 61.3984 18.2227C63.175 24.2966 64.0498 30.5914 64.0498 35.5254C64.0498 40.9087 63.178 44.9729 61.6523 48.0518C60.1351 51.1137 57.9443 53.2573 55.1973 54.7705C49.6236 57.8407 41.7565 58.334 32.5498 58.334C23.3431 58.334 15.4759 57.8407 9.90234 54.7705C7.15542 53.2573 4.96451 51.1136 3.44727 48.0518C1.92162 44.9729 1.0498 40.9086 1.0498 35.5254C1.04989 30.6788 2.74299 24.2821 5.17773 18.0908C7.60674 11.9142 10.7222 6.0723 13.4668 2.34961C14.1425 1.43312 14.5768 1.14025 14.791 1.06836Z" stroke="#3696D6" stroke-width="2.1"/>
</g>
</svg>
