<svg width="66" height="60" viewBox="0 0 66 60" fill="none" xmlns="http://www.w3.org/2000/svg">
<mask id="mask0_340_434" style="mask-type:alpha" maskUnits="userSpaceOnUse" x="0" y="0" width="66" height="60">
<path d="M14.791 1.06836C14.8635 1.04401 14.9563 1.00412 15.2305 1.24707C15.5547 1.53439 15.9287 2.05853 16.4033 2.86328C16.8875 3.68415 17.3432 4.5559 17.9648 5.64062C20.3429 9.78997 24.1895 15.2841 32.5498 15.2842C41.2254 15.2842 45.2972 9.90653 47.9268 5.79004C48.5991 4.73753 49.1353 3.83715 49.6709 3.04297C50.2052 2.25075 50.6423 1.71631 51.0361 1.41211C51.3864 1.14161 51.6182 1.11143 51.8545 1.17188C52.1768 1.25444 52.6997 1.56021 53.4639 2.42285C56.9618 6.37188 59.6182 12.1363 61.3984 18.2227C63.175 24.2966 64.0498 30.5914 64.0498 35.5254C64.0498 40.9087 63.178 44.9729 61.6523 48.0518C60.1351 51.1137 57.9443 53.2573 55.1973 54.7705C49.6236 57.8407 41.7565 58.334 32.5498 58.334C23.3431 58.334 15.4759 57.8407 9.90234 54.7705C7.15542 53.2573 4.96451 51.1136 3.44727 48.0518C1.92162 44.9729 1.0498 40.9086 1.0498 35.5254C1.04989 30.6788 2.74299 24.2821 5.17773 18.0908C7.60674 11.9142 10.7222 6.0723 13.4668 2.34961C14.1425 1.43312 14.5768 1.14025 14.791 1.06836Z" fill="#87D1FF" stroke="#3696D6" stroke-width="2.1"/>
</mask>
<g mask="url(#mask0_340_434)">
<path d="M65.1 35.5258C65.1 57.4864 50.8937 59.3838 32.55 59.3838C14.2063 59.3838 0 57.4864 0 35.5258C0 25.4413 6.99448 9.35928 12.6214 1.72694C18.2484 -5.90539 17.0298 14.2337 32.55 14.2337C48.7702 14.2337 47.7421 -5.6203 54.25 1.72694C61.5328 9.94901 65.1 25.4413 65.1 35.5258Z" fill="#F54346"/>
<path d="M8.39941 35.5838C9.70205 35.5838 10.7642 37.2105 10.8418 39.2635C12.2099 37.8324 14.0011 37.3242 14.9717 38.1404C16.0073 39.0113 15.7167 41.0607 14.3232 42.7176C14.2517 42.8026 14.1752 42.8852 14.0977 42.9686C14.3252 42.9469 14.5502 42.9334 14.7695 42.9334C16.9344 42.9334 18.6903 44.0306 18.6904 45.3836C18.6904 46.7367 16.9345 47.8338 14.7695 47.8338C14.7033 47.8338 14.6366 47.829 14.5693 47.827C15.849 49.4534 16.0911 51.3981 15.0889 52.241C14.1182 53.0573 12.3272 52.5486 10.959 51.117C10.8817 53.1705 9.81948 54.7977 8.5166 54.7977C7.21376 54.7976 6.15051 53.1705 6.07324 51.117C4.70527 52.5479 2.9159 53.0569 1.94531 52.241C0.944095 51.399 1.18383 49.4573 2.45996 47.8318C0.322606 47.8119 -1.40039 46.7242 -1.40039 45.3836C-1.40024 44.0763 0.238361 43.011 2.30176 42.9402C2.23367 42.8662 2.1659 42.7929 2.10254 42.7176C0.709223 41.0607 0.419519 39.0113 1.45508 38.1404C2.49073 37.2699 4.45923 37.9075 5.85254 39.5643C5.88795 39.6064 5.92128 39.6506 5.95605 39.6942C5.95422 39.6302 5.9502 39.5668 5.9502 39.5037C5.95021 37.339 7.04651 35.5841 8.39941 35.5838Z" fill="#FFF6F6"/>
<path d="M25.1997 18.0838C26.5023 18.0838 27.5645 19.7105 27.6421 21.7635C29.0102 20.3325 30.8014 19.8243 31.772 20.6404C32.8074 21.5114 32.5169 23.5607 31.1235 25.2176C31.052 25.3026 30.9754 25.3852 30.8979 25.4686C31.1255 25.4469 31.3505 25.4334 31.5698 25.4334C33.7347 25.4334 35.4896 26.5306 35.4897 27.8836C35.4897 29.2367 33.7348 30.3338 31.5698 30.3338C31.5032 30.3338 31.4362 30.329 31.3687 30.327C32.6485 31.9534 32.8913 33.898 31.8892 34.741C30.9185 35.5573 29.1274 35.0484 27.7593 33.617C27.682 35.6704 26.6197 37.2975 25.3169 37.2977C24.014 37.2977 22.9508 35.6705 22.8735 33.617C21.5054 35.0481 19.7152 35.5572 18.7446 34.741C17.7436 33.8989 17.9841 31.9572 19.2603 30.3318C17.1228 30.3119 15.3999 29.2243 15.3999 27.8836C15.4 26.5763 17.0385 25.5109 19.1021 25.4402C19.0339 25.3662 18.9662 25.293 18.9028 25.2176C17.5095 23.5607 17.219 21.5114 18.2544 20.6404C19.29 19.7696 21.2594 20.4073 22.6528 22.0643C22.6878 22.1059 22.72 22.1502 22.7544 22.1932C22.7526 22.1296 22.7495 22.0664 22.7495 22.0037C22.7495 19.8388 23.8467 18.0839 25.1997 18.0838Z" fill="#FFF6F6"/>
<path d="M39.1997 39.7838C40.5024 39.7838 41.5645 41.4105 41.6421 43.4635C43.0102 42.0325 44.8014 41.5243 45.772 42.3405C46.8074 43.2114 46.5169 45.2608 45.1235 46.9176C45.052 47.0026 44.9754 47.0852 44.8979 47.1686C45.1255 47.1469 45.3505 47.1334 45.5698 47.1334C47.7347 47.1334 49.4896 48.2306 49.4897 49.5836C49.4897 50.9367 47.7348 52.0338 45.5698 52.0338C45.5036 52.0338 45.4369 52.029 45.3696 52.027C46.6491 53.6533 46.8912 55.5981 45.8892 56.441C44.9185 57.2573 43.1274 56.7485 41.7593 55.317C41.682 57.3704 40.6197 58.9975 39.3169 58.9977C38.014 58.9977 36.9508 57.3706 36.8735 55.317C35.5054 56.7481 33.7152 57.2572 32.7446 56.441C31.7436 55.599 31.9841 53.6572 33.2603 52.0319C31.1228 52.012 29.3999 50.9243 29.3999 49.5836C29.4 48.2763 31.0385 47.2109 33.1021 47.1403C33.0339 47.0662 32.9662 46.993 32.9028 46.9176C31.5095 45.2608 31.219 43.2114 32.2544 42.3405C33.29 41.4696 35.2594 42.1073 36.6528 43.7643C36.6878 43.8059 36.72 43.8502 36.7544 43.8932C36.7526 43.8296 36.7495 43.7664 36.7495 43.7037C36.7495 41.5389 37.8467 39.7839 39.1997 39.7838Z" fill="#FFF6F6"/>
<path d="M50.3994 11.0838C51.7021 11.0838 52.7642 12.7105 52.8418 14.7635C54.2099 13.3324 56.0011 12.8242 56.9717 13.6404C58.0073 14.5113 57.7167 16.5607 56.3232 18.2176C56.2517 18.3026 56.1752 18.3852 56.0977 18.4686C56.3252 18.4469 56.5502 18.4334 56.7695 18.4334C58.9344 18.4334 60.6903 19.5306 60.6904 20.8836C60.6904 22.2367 58.9345 23.3338 56.7695 23.3338C56.7033 23.3338 56.6366 23.329 56.5693 23.327C57.849 24.9534 58.0911 26.8981 57.0889 27.741C56.1182 28.5573 54.3272 28.0486 52.959 26.617C52.8817 28.6705 51.8195 30.2977 50.5166 30.2977C49.2138 30.2976 48.1505 28.6705 48.0732 26.617C46.7053 28.0479 44.9159 28.5569 43.9453 27.741C42.9441 26.899 43.1838 24.9573 44.46 23.3318C42.3226 23.3119 40.5996 22.2242 40.5996 20.8836C40.5998 19.5763 42.2384 18.511 44.3018 18.4402C44.2337 18.3662 44.1659 18.2929 44.1025 18.2176C42.7092 16.5607 42.4195 14.5113 43.4551 13.6404C44.4907 12.7699 46.4592 13.4075 47.8525 15.0643C47.8879 15.1064 47.9213 15.1506 47.9561 15.1942C47.9542 15.1302 47.9502 15.0668 47.9502 15.0037C47.9502 12.839 49.0465 11.0841 50.3994 11.0838Z" fill="#FFF6F6"/>
<path d="M64.3994 29.9838C65.702 29.9838 66.7642 31.6105 66.8418 33.6635C68.2099 32.2324 70.0011 31.7242 70.9717 32.5404C72.0073 33.4113 71.7167 35.4606 70.3232 37.1176C70.2517 37.2026 70.1752 37.2852 70.0977 37.3685C70.3252 37.3469 70.5502 37.3334 70.7695 37.3334C72.9344 37.3334 74.6902 38.4306 74.6904 39.7836C74.6904 41.1367 72.9345 42.2338 70.7695 42.2338C70.7033 42.2338 70.6366 42.229 70.5693 42.2269C71.849 43.8534 72.0911 45.7981 71.0889 46.641C70.1182 47.4573 68.3272 46.9485 66.959 45.517C66.8817 47.5705 65.8195 49.1976 64.5166 49.1976C63.2137 49.1976 62.1505 47.5705 62.0732 45.517C60.7053 46.9479 58.9159 47.4569 57.9453 46.641C56.9441 45.799 57.1838 43.8573 58.46 42.2318C56.3226 42.2118 54.5996 41.1242 54.5996 39.7836C54.5998 38.4763 56.2384 37.4109 58.3018 37.3402C58.2337 37.2662 58.1659 37.1929 58.1025 37.1176C56.7092 35.4606 56.4195 33.4113 57.4551 32.5404C58.4907 31.6698 60.4592 32.3074 61.8525 33.9642C61.8879 34.0063 61.9213 34.0506 61.9561 34.0941C61.9542 34.0302 61.9502 33.9667 61.9502 33.9037C61.9502 31.739 63.0465 29.9841 64.3994 29.9838Z" fill="#FFF6F6"/>
<path d="M14.791 1.06836C14.8635 1.04401 14.9563 1.00412 15.2305 1.24707C15.5547 1.53439 15.9287 2.05853 16.4033 2.86328C16.8875 3.68415 17.3432 4.5559 17.9648 5.64062C20.3429 9.78997 24.1895 15.2841 32.5498 15.2842C41.2254 15.2842 45.2972 9.90653 47.9268 5.79004C48.5991 4.73753 49.1353 3.83715 49.6709 3.04297C50.2052 2.25075 50.6423 1.71631 51.0361 1.41211C51.3864 1.14161 51.6182 1.11143 51.8545 1.17188C52.1768 1.25444 52.6997 1.56021 53.4639 2.42285C56.9618 6.37188 59.6182 12.1363 61.3984 18.2227C63.175 24.2966 64.0498 30.5914 64.0498 35.5254C64.0498 40.9087 63.178 44.9729 61.6523 48.0518C60.1351 51.1137 57.9443 53.2573 55.1973 54.7705C49.6236 57.8407 41.7565 58.334 32.5498 58.334C23.3431 58.334 15.4759 57.8407 9.90234 54.7705C7.15542 53.2573 4.96451 51.1136 3.44727 48.0518C1.92162 44.9729 1.0498 40.9086 1.0498 35.5254C1.04989 30.6788 2.74299 24.2821 5.17773 18.0908C7.60674 11.9142 10.7222 6.0723 13.4668 2.34961C14.1425 1.43312 14.5768 1.14025 14.791 1.06836Z" stroke="#8E1E20" stroke-width="2.1"/>
</g>
</svg>
