<svg width="65" height="28" viewBox="0 0 65 28" fill="none" xmlns="http://www.w3.org/2000/svg">
<mask id="path-1-inside-1_340_512" fill="white">
<path d="M61.6328 28H33.6006V21H30.7998V28H2.76758L1.40039 21L0 0H64.4004L63 21L61.6328 28Z"/>
</mask>
<path d="M61.6328 28H33.6006V21H30.7998V28H2.76758L1.40039 21L0 0H64.4004L63 21L61.6328 28Z" fill="#E3E300"/>
<path d="M61.6328 28V30.1H63.3623L63.6939 28.4026L61.6328 28ZM33.6006 28H31.5006V30.1H33.6006V28ZM33.6006 21H35.7006V18.9H33.6006V21ZM30.7998 21V18.9H28.6998V21H30.7998ZM30.7998 28V30.1H32.8998V28H30.7998ZM2.76758 28L0.706522 28.4026L1.03806 30.1H2.76758V28ZM1.40039 21L-0.694956 21.1397L-0.68612 21.2722L-0.660666 21.4026L1.40039 21ZM0 0V-2.1H-2.2447L-2.09535 0.139729L0 0ZM64.4004 0L66.4957 0.139729L66.6451 -2.1L64.4004 -2.1V0ZM63 21L65.0611 21.4026L65.0865 21.2722L65.0953 21.1397L63 21ZM61.6328 28V25.9H33.6006V28V30.1H61.6328V28ZM33.6006 28H35.7006V21H33.6006H31.5006V28H33.6006ZM33.6006 21V18.9H30.7998V21V23.1H33.6006V21ZM30.7998 21H28.6998V28H30.7998H32.8998V21H30.7998ZM30.7998 28V25.9H2.76758V28V30.1H30.7998V28ZM2.76758 28L4.82863 27.5974L3.46145 20.5974L1.40039 21L-0.660666 21.4026L0.706522 28.4026L2.76758 28ZM1.40039 21L3.49574 20.8603L2.09535 -0.139729L0 0L-2.09535 0.139729L-0.694956 21.1397L1.40039 21ZM0 0V2.1H64.4004V0V-2.1H0V0ZM64.4004 0L62.305 -0.139729L60.9047 20.8603L63 21L65.0953 21.1397L66.4957 0.139729L64.4004 0ZM63 21L60.9389 20.5974L59.5718 27.5974L61.6328 28L63.6939 28.4026L65.0611 21.4026L63 21Z" fill="#A99500" mask="url(#path-1-inside-1_340_512)"/>
<line x1="5.95039" y1="2.09998" x2="5.95039" y2="25.9" stroke="white" stroke-width="2.1"/>
<line x1="9.45039" y1="2.09998" x2="9.45039" y2="25.9" stroke="white" stroke-width="2.1"/>
<line x1="54.9504" y1="2.09998" x2="54.9504" y2="25.9" stroke="white" stroke-width="2.1"/>
<line x1="58.4504" y1="2.09998" x2="58.4504" y2="25.9" stroke="white" stroke-width="2.1"/>
</svg>
