<svg width="43" height="44" viewBox="0 0 43 44" fill="none" xmlns="http://www.w3.org/2000/svg">
<path d="M21.5 35.5C22.0523 35.5 22.5 35.9477 22.5 36.5V42.5C22.5 43.0523 22.0523 43.5 21.5 43.5C20.9477 43.5 20.5 43.0523 20.5 42.5V36.5C20.5 35.9477 20.9477 35.5 21.5 35.5ZM26.5146 34.5537C27.0289 34.3525 27.6082 34.6059 27.8096 35.1201L29.998 40.707C30.1991 41.2211 29.9456 41.8005 29.4316 42.002C28.9174 42.2034 28.3371 41.9498 28.1357 41.4355L25.9482 35.8486C25.747 35.3344 26.0005 34.7551 26.5146 34.5537ZM14.5361 34.4902C14.7757 33.9926 15.3735 33.783 15.8711 34.0225C16.3686 34.262 16.5773 34.8599 16.3379 35.3574L13.7363 40.7637C13.4968 41.2613 12.899 41.4709 12.4014 41.2314C11.9037 40.9919 11.6941 40.3941 11.9336 39.8965L14.5361 34.4902ZM30.8623 31.8203C31.2668 31.4444 31.8994 31.4676 32.2754 31.8721L36.3604 36.2666C36.7363 36.6711 36.7139 37.3036 36.3096 37.6797C35.9051 38.0557 35.2715 38.0324 34.8955 37.6279L30.8105 33.2334C30.4346 32.8289 30.4579 32.1963 30.8623 31.8203ZM10.3701 31.0732C10.7746 30.6975 11.4073 30.7206 11.7832 31.125C12.1591 31.5295 12.1359 32.1621 11.7314 32.5381L7.33691 36.623C6.93247 36.999 6.29988 36.9766 5.92383 36.5723C5.54782 36.1678 5.5712 35.5352 5.97559 35.1592L10.3701 31.0732ZM21.5 9C28.4036 9 34 14.5964 34 21.5C34 28.4036 28.4036 34 21.5 34C14.5964 34 9 28.4036 9 21.5C9 14.5964 14.5964 9 21.5 9ZM33.8896 27.7129C34.1292 27.2153 34.727 27.0056 35.2246 27.2451L40.6309 29.8477C41.1283 30.0873 41.3371 30.6851 41.0977 31.1826C40.858 31.6798 40.2611 31.8887 39.7637 31.6494L34.3564 29.0479C33.859 28.8083 33.6502 28.2105 33.8896 27.7129ZM7.72559 26.3389C8.23957 26.1379 8.81902 26.3915 9.02051 26.9053C9.2219 27.4195 8.96836 27.9998 8.4541 28.2012L2.86719 30.3896C2.35319 30.5907 1.77377 30.3371 1.57227 29.8232C1.37087 29.309 1.62442 28.7287 2.13867 28.5273L7.72559 26.3389ZM7 21C7.55228 21 8 21.4477 8 22C8 22.5523 7.55228 23 7 23H1C0.447715 23 0 22.5523 0 22C0 21.4477 0.447715 21 1 21H7ZM42 21C42.5523 21 43 21.4477 43 22C43 22.5523 42.5523 23 42 23H36C35.4477 23 35 22.5523 35 22C35 21.4477 35.4477 21 36 21H42ZM40.3154 13.5762C40.8295 13.3751 41.4089 13.6286 41.6104 14.1426C41.8117 14.6568 41.5582 15.2371 41.0439 15.4385L35.457 17.626C34.9428 17.8272 34.3635 17.5738 34.1621 17.0596C33.9608 16.5454 34.2143 15.966 34.7285 15.7646L40.3154 13.5762ZM2.11816 11.8672C2.35765 11.3696 2.95551 11.16 3.45312 11.3994L8.85938 14.002C9.35702 14.2415 9.56666 14.8393 9.32715 15.3369C9.08754 15.8343 8.48973 16.0432 7.99219 15.8037L2.58594 13.2021C2.08835 12.9627 1.87879 12.3648 2.11816 11.8672ZM36.0039 7.24219C36.4084 6.86656 37.0411 6.8896 37.417 7.29395C37.793 7.69838 37.7696 8.33097 37.3652 8.70703L32.9707 12.793C32.5662 13.1688 31.9336 13.1456 31.5576 12.7412C31.1816 12.3367 31.2049 11.7042 31.6094 11.3281L36.0039 7.24219ZM7.05664 5.48047C7.46101 5.10454 8.09364 5.12712 8.46973 5.53125L12.5557 9.92578C12.9316 10.3302 12.9083 10.9628 12.5039 11.3389C12.0995 11.7148 11.4669 11.6923 11.0908 11.2881L7.00586 6.89355C6.62994 6.48919 6.65251 5.85655 7.05664 5.48047ZM29.7148 2.95215C29.9545 2.45484 30.5523 2.24592 31.0498 2.48535C31.5472 2.72499 31.756 3.3228 31.5166 3.82031L28.915 9.22656C28.6755 9.7242 28.0777 9.93287 27.5801 9.69336C27.0826 9.45388 26.8731 8.85691 27.1123 8.35938L29.7148 2.95215ZM14.0342 1.31543C14.5484 1.11404 15.1287 1.36763 15.3301 1.88184L17.5176 7.46875C17.719 7.983 17.4654 8.56325 16.9512 8.76465C16.437 8.96579 15.8566 8.71238 15.6553 8.19824L13.4678 2.61133C13.2664 2.0971 13.52 1.51685 14.0342 1.31543ZM22 0C22.5523 0 23 0.447715 23 1V7C23 7.55228 22.5523 8 22 8C21.4477 8 21 7.55228 21 7V1C21 0.447715 21.4477 0 22 0Z" fill="#FF4343"/>
</svg>
