<svg width="41" height="45" viewBox="0 0 41 45" fill="none" xmlns="http://www.w3.org/2000/svg">
<path d="M22.5 0C29.6515 0 36.0233 3.33683 40.1445 8.53809C37.6566 12.1046 36.5 17.244 36.5 22.957C36.5 28.4067 37.5539 33.3337 39.8105 36.8721C35.6834 41.8376 29.4614 45 22.5 45C10.0736 45 0 34.9264 0 22.5C0 10.0736 10.0736 0 22.5 0Z" fill="#DFEA29"/>
<path d="M11.5054 19.5C11.5054 22.8137 10.2145 25.5 8.00537 25.5C5.79623 25.5 6.0053 20.3137 6.0053 17C6.0053 13.6863 15.4642 7 17.6733 7C19.8825 7 11.5054 16.1863 11.5054 19.5Z" fill="#CDD919"/>
<path d="M20.0055 21.5001C18.5628 24.1731 13.977 26.0244 13.0054 25.5C12.0338 24.9756 14.1902 20.7232 15.6329 18.0501C17.0756 15.377 19.886 15.1857 20.8577 15.7101C21.8293 16.2345 21.4482 18.827 20.0055 21.5001Z" fill="#CDD919"/>
</svg>
