<svg width="43" height="44" viewBox="0 0 43 44" fill="none" xmlns="http://www.w3.org/2000/svg">
<path d="M21.5 35.5C22.0523 35.5 22.5 35.9477 22.5 36.5V42.5C22.5 43.0523 22.0523 43.5 21.5 43.5C20.9477 43.5 20.5 43.0523 20.5 42.5V36.5C20.5 35.9477 20.9477 35.5 21.5 35.5ZM30.8623 31.8203C31.2668 31.4444 31.8994 31.4676 32.2754 31.8721L36.3604 36.2666C36.7363 36.6711 36.7139 37.3036 36.3096 37.6797C35.9051 38.0557 35.2715 38.0324 34.8955 37.6279L30.8105 33.2334C30.4346 32.8289 30.4579 32.1963 30.8623 31.8203ZM10.3701 31.0732C10.7746 30.6975 11.4073 30.7206 11.7832 31.125C12.1591 31.5295 12.1359 32.1621 11.7314 32.5381L7.33691 36.623C6.93247 36.999 6.29988 36.9766 5.92383 36.5723C5.54782 36.1678 5.5712 35.5352 5.97559 35.1592L10.3701 31.0732ZM21.5 9C28.4036 9 34 14.5964 34 21.5C34 28.4036 28.4036 34 21.5 34C14.5964 34 9 28.4036 9 21.5C9 14.5964 14.5964 9 21.5 9ZM7 21C7.55228 21 8 21.4477 8 22C8 22.5523 7.55228 23 7 23H1C0.447715 23 0 22.5523 0 22C0 21.4477 0.447715 21 1 21H7ZM42 21C42.5523 21 43 21.4477 43 22C43 22.5523 42.5523 23 42 23H36C35.4477 23 35 22.5523 35 22C35 21.4477 35.4477 21 36 21H42ZM36.0039 7.24219C36.4084 6.86656 37.0411 6.8896 37.417 7.29395C37.793 7.69838 37.7696 8.33097 37.3652 8.70703L32.9707 12.793C32.5662 13.1688 31.9336 13.1456 31.5576 12.7412C31.1816 12.3367 31.2049 11.7042 31.6094 11.3281L36.0039 7.24219ZM7.05664 5.48047C7.46101 5.10454 8.09364 5.12712 8.46973 5.53125L12.5557 9.92578C12.9316 10.3302 12.9083 10.9628 12.5039 11.3389C12.0995 11.7148 11.4669 11.6923 11.0908 11.2881L7.00586 6.89355C6.62994 6.48919 6.65251 5.85655 7.05664 5.48047ZM22 0C22.5523 0 23 0.447715 23 1V7C23 7.55228 22.5523 8 22 8C21.4477 8 21 7.55228 21 7V1C21 0.447715 21.4477 0 22 0Z" fill="#FF4343"/>
</svg>
