<svg width="43" height="42" viewBox="0 0 43 42" fill="none" xmlns="http://www.w3.org/2000/svg">
<path d="M17.0063 18.0005L24.2742 28.1235C28.6454 34.212 34.864 38.7279 42.0063 41.0005" stroke="#69B031" stroke-width="2" stroke-linecap="round"/>
<path d="M3.5563 16.275C2.12832 9.09574 4.55452 9.11764 7.99427 9.6564C9.44732 9.88399 11.3558 10.5594 13.0638 11.6524C12.6044 9.59537 12.5822 7.46381 12.8226 5.92895C13.3916 2.29589 14.1151 -0.157351 20.1303 3.48044C26.9702 1.85575 26.9094 4.41305 26.3404 8.04619C26.1171 9.47199 25.5203 11.3187 24.582 13.0314C26.2235 12.7571 27.8587 12.7677 29.1755 12.9739C33.0256 13.577 35.7502 14.3619 31.8983 20.7141C33.6235 27.9399 30.7895 27.8541 26.9393 27.251C25.7171 27.0596 24.2854 26.6235 22.9033 25.9517C23.0838 27.5508 23.0384 29.1282 22.8362 30.4189C22.1993 34.4853 21.4077 37.3683 15.4415 33.4163C8.55318 35.3546 8.68154 32.368 9.3184 28.3017C9.53622 26.911 10.0274 25.2586 10.7765 23.6876C8.94996 24.1091 7.10787 24.1449 5.75809 23.9335C2.31833 23.3948 0.00155586 22.6739 3.5563 16.275ZM17.2436 17.7268C17.2499 17.8119 17.2538 17.8976 17.2567 17.9839C17.3079 17.9786 17.3593 17.9744 17.411 17.9705C17.4303 17.9198 17.4508 17.8697 17.4712 17.8198C17.3942 17.7904 17.3184 17.7593 17.2436 17.7268Z" fill="#82CD47"/>
<path d="M18.5063 16.0005L19.5063 8.00049" stroke="#69B031" stroke-linecap="round"/>
<path d="M7.00635 17.0005L14.5063 18.5005" stroke="#69B031" stroke-linecap="round"/>
<path d="M22.0063 20.0005L29.0063 20.5005" stroke="#69B031" stroke-linecap="round"/>
<path d="M16.0063 30.0005L17.5063 23.0005" stroke="#69B031" stroke-linecap="round"/>
</svg>
