<svg width="44" height="43" viewBox="0 0 44 43" fill="none" xmlns="http://www.w3.org/2000/svg">
<path d="M17.4648 18.7056L24.7327 28.8286C29.1039 34.9171 35.3225 39.433 42.4648 41.7056" stroke="#69B031" stroke-width="2" stroke-linecap="round"/>
<path d="M5.31963 25.3869C-0.5768 21.0496 1.23018 19.429 4.1331 17.5068C6.31493 16.0622 10.5145 14.6855 13.898 15.7664C11.9037 13.0916 11.3839 8.90264 11.665 6.33161C12.0646 2.67596 12.6733 0.192002 18.8514 3.54681C25.6085 1.60614 25.6664 4.16284 25.2667 7.8185C24.9817 10.425 23.5339 14.4776 20.9427 16.6375C24.2294 15.8461 28.1439 17.1218 30.4682 18.6157C33.7464 20.7229 35.9213 22.541 29.8315 26.7954C28.4903 34.1024 25.9325 32.879 22.6541 30.7718C20.447 29.353 17.823 26.548 17.0117 23.4274C16.0133 26.0954 13.835 28.4136 12.1109 29.5553C9.20799 31.4776 7.01108 32.5086 5.31963 25.3869ZM17.0292 18.0459C17.1488 18.3212 17.247 18.5979 17.3242 18.876C17.338 18.8453 17.3512 18.8143 17.3654 18.7836C17.6096 18.498 17.8706 18.2418 18.1444 18.013C17.858 18.0674 17.5631 18.1006 17.2596 18.1087C17.1819 18.0893 17.1051 18.0683 17.0292 18.0459Z" fill="#82CD47"/>
<path d="M18.4585 14.7051L19.9585 8.20508" stroke="#69B031" stroke-linecap="round"/>
<path d="M8.95898 23.2053L14.459 19.2053" stroke="#69B031" stroke-linecap="round"/>
<path d="M20.4585 19.2051L26.4585 24.7051" stroke="#69B031" stroke-linecap="round"/>
</svg>
