<svg width="45" height="35" viewBox="0 0 45 35" fill="none" xmlns="http://www.w3.org/2000/svg">
<path d="M10.1973 30.7998C12.1095 30.7999 14.0224 31.1376 15.9346 31.8125C16.1468 31.8874 16.36 31.9666 16.5723 32.0498V33.5498C16.36 33.633 16.1468 33.7122 15.9346 33.7871C14.0224 34.462 12.1095 34.7997 10.1973 34.7998C8.28502 34.7998 6.37221 34.462 4.45996 33.7871C4.24761 33.7122 4.03462 33.6331 3.82227 33.5498V32.0498C4.03462 31.9665 4.24761 31.8874 4.45996 31.8125C6.37221 31.1376 8.28502 30.7998 10.1973 30.7998ZM33.874 30.7998C35.7864 30.7998 37.699 31.1375 39.6113 31.8125C39.8237 31.8875 40.0366 31.9665 40.249 32.0498V33.5498C40.0366 33.6331 39.8237 33.7121 39.6113 33.7871C37.699 34.4621 35.7864 34.7998 33.874 34.7998C31.9616 34.7998 30.0491 34.4621 28.1367 33.7871C27.9242 33.7121 27.7115 33.6331 27.499 33.5498V32.0498C27.7115 31.9665 27.9242 31.8875 28.1367 31.8125C30.0491 31.1375 31.9616 30.7998 33.874 30.7998ZM2.9873 18.7002C3.66228 20.8002 4 22.9 4 25C4 27.1 3.66228 29.1998 2.9873 31.2998C2.9123 31.5331 2.83333 31.7667 2.75 32H1.25C1.16667 31.7667 1.0877 31.5331 1.0127 31.2998C0.337721 29.1998 0 27.1 0 25C1.75617e-08 22.9 0.337721 20.8002 1.0127 18.7002C1.0877 18.4669 1.16667 18.2333 1.25 18H2.75C2.83333 18.2333 2.9123 18.4669 2.9873 18.7002ZM19.3799 18.7002C20.0548 20.8001 20.3926 22.9001 20.3926 25C20.3926 27.0999 20.0548 29.1999 19.3799 31.2998C19.3049 31.5331 19.2259 31.7667 19.1426 32H17.6426C17.5593 31.7667 17.4803 31.5331 17.4053 31.2998C16.7303 29.1998 16.3926 27.1 16.3926 25C16.3926 22.9 16.7303 20.8002 17.4053 18.7002C17.4803 18.4669 17.5593 18.2333 17.6426 18H19.1426C19.2259 18.2333 19.3049 18.4669 19.3799 18.7002ZM26.666 18.7002C27.341 20.8001 27.6787 22.9001 27.6787 25C27.6787 27.0999 27.341 29.1999 26.666 31.2998C26.591 31.5331 26.512 31.7667 26.4287 32H24.9287C24.8454 31.7667 24.7664 31.5331 24.6914 31.2998C24.0164 29.1998 23.6787 27.1 23.6787 25C23.6787 22.9 24.0164 20.8002 24.6914 18.7002C24.7664 18.4669 24.8454 18.2333 24.9287 18H26.4287C26.512 18.2333 26.591 18.4669 26.666 18.7002ZM43.0586 18.7002C43.7335 20.8001 44.0713 22.9001 44.0713 25C44.0713 27.0999 43.7335 29.1999 43.0586 31.2998C42.9836 31.5331 42.9046 31.7667 42.8213 32H41.3213C41.238 31.7667 41.159 31.5331 41.084 31.2998C40.409 29.1998 40.0713 27.1 40.0713 25C40.0713 22.9 40.409 20.8002 41.084 18.7002C41.159 18.4669 41.238 18.2333 41.3213 18H42.8213C42.9046 18.2333 42.9836 18.4669 43.0586 18.7002ZM10.1973 15.2002C12.1095 15.2003 14.0224 15.538 15.9346 16.2129C16.1468 16.2878 16.36 16.367 16.5723 16.4502V17.9502C16.36 18.0334 16.1469 18.1126 15.9346 18.1875C14.0224 18.8624 12.1095 19.2001 10.1973 19.2002C8.28505 19.2002 6.37218 18.8623 4.45996 18.1875C4.24764 18.1126 4.03459 18.0335 3.82227 17.9502V16.4502C4.03465 16.3669 4.24758 16.2879 4.45996 16.2129C6.37223 15.538 8.285 15.2002 10.1973 15.2002ZM33.874 15.2002C35.7864 15.2002 37.699 15.5379 39.6113 16.2129C39.8237 16.2879 40.0366 16.3669 40.249 16.4502V17.9502C40.0366 18.0335 39.8237 18.1125 39.6113 18.1875C37.699 18.8625 35.7864 19.2002 33.874 19.2002C31.9617 19.2002 30.0491 18.8625 28.1367 18.1875C27.9243 18.1125 27.7115 18.0335 27.499 17.9502V16.4502C27.7115 16.3669 27.9243 16.2879 28.1367 16.2129C30.0491 15.5379 31.9616 15.2002 33.874 15.2002ZM19.3799 3.5C20.0548 5.59991 20.3926 7.69989 20.3926 9.7998C20.3926 11.8997 20.0548 13.9997 19.3799 16.0996C19.3049 16.3329 19.2259 16.5665 19.1426 16.7998H17.6426C17.5593 16.5665 17.4803 16.3329 17.4053 16.0996C16.7303 13.9997 16.3926 11.8998 16.3926 9.7998C16.3926 7.69985 16.7303 5.59996 17.4053 3.5C17.4803 3.26671 17.5593 3.03309 17.6426 2.7998H19.1426C19.2259 3.03309 19.3049 3.26672 19.3799 3.5ZM43.0586 3.5C43.7335 5.59991 44.0713 7.69989 44.0713 9.7998C44.0713 11.8997 43.7335 13.9997 43.0586 16.0996C42.9836 16.3329 42.9046 16.5665 42.8213 16.7998H41.3213C41.238 16.5665 41.159 16.3329 41.084 16.0996C40.409 13.9997 40.0713 11.8998 40.0713 9.7998C40.0713 7.69985 40.409 5.59996 41.084 3.5C41.159 3.26671 41.238 3.03309 41.3213 2.7998H42.8213C42.9046 3.03309 42.9836 3.26672 43.0586 3.5ZM3.09863 3.49902C3.77361 5.59898 4.11133 7.69887 4.11133 9.79883C4.11133 11.8988 3.77361 13.9987 3.09863 16.0986C3.02363 16.332 2.94466 16.5655 2.86133 16.7988H1.36133C1.27799 16.5655 1.19902 16.332 1.12402 16.0986C0.449049 13.9987 0.111328 11.8988 0.111328 9.79883C0.111328 7.69887 0.449049 5.59898 1.12402 3.49902C1.19902 3.26569 1.27799 3.03216 1.36133 2.79883H2.86133C2.94466 3.03216 3.02363 3.26569 3.09863 3.49902ZM26.7773 3.49902C27.4523 5.59898 27.79 7.69887 27.79 9.79883C27.79 11.8988 27.4523 13.9987 26.7773 16.0986C26.7023 16.332 26.6234 16.5655 26.54 16.7988H25.04C24.9567 16.5655 24.8777 16.332 24.8027 16.0986C24.1278 13.9987 23.79 11.8988 23.79 9.79883C23.79 7.69887 24.1278 5.59898 24.8027 3.49902C24.8777 3.26569 24.9567 3.03216 25.04 2.79883H26.54C26.6234 3.03216 26.7023 3.26569 26.7773 3.49902ZM10.1973 0C12.1095 8.33934e-05 14.0224 0.337779 15.9346 1.0127C16.1468 1.08762 16.36 1.16676 16.5723 1.25V2.75C16.36 2.83324 16.1468 2.91238 15.9346 2.9873C14.0224 3.66222 12.1095 3.99992 10.1973 4C8.28502 4 6.37221 3.66217 4.45996 2.9873C4.24761 2.91235 4.03462 2.83327 3.82227 2.75V1.25C4.03462 1.16673 4.24761 1.08765 4.45996 1.0127C6.37221 0.337828 8.28502 0 10.1973 0ZM33.874 0C35.7864 2.59226e-05 37.699 0.337721 39.6113 1.0127C39.8237 1.08767 40.0366 1.1667 40.249 1.25V2.75C40.0366 2.8333 39.8237 2.91233 39.6113 2.9873C37.699 3.66228 35.7864 3.99997 33.874 4C31.9616 4 30.0491 3.66227 28.1367 2.9873C27.9242 2.9123 27.7115 2.83333 27.499 2.75V1.25C27.7115 1.16667 27.9242 1.0877 28.1367 1.0127C30.0491 0.337726 31.9616 0 33.874 0Z" fill="black"/>
</svg>
