<svg width="45" height="45" viewBox="0 0 45 45" fill="none" xmlns="http://www.w3.org/2000/svg">
<circle cx="22.5" cy="22.5" r="22.5" fill="#DFEA29"/>
<path d="M39.5 26C39.5 38.4264 34.9261 45.0002 22.4997 45.0002C10.0733 45.0002 13.0004 37.0001 18.0003 31.0001C25.0003 31.0001 15.0736 36.0001 27.5 36.0001C39.9264 36.0001 28.5 31.5 39.5 26Z" fill="#CDD919"/>
<path d="M11 18.5C11 21.8137 9.70913 24.5 7.5 24.5C5.29086 24.5 5.49992 19.3137 5.49992 16C5.49992 12.6863 14.9588 6 17.168 6C19.3771 6 11 15.1863 11 18.5Z" fill="#CDD919"/>
<path d="M19.5001 20.5001C18.0574 23.1731 13.4716 25.0244 12.5 24.5C11.5284 23.9756 13.6849 19.7232 15.1275 17.0501C16.5702 14.377 19.3807 14.1857 20.3523 14.7101C21.3239 15.2345 20.9428 17.827 19.5001 20.5001Z" fill="#CDD919"/>
</svg>
