<svg width="44" height="41" viewBox="0 0 44 41" fill="none" xmlns="http://www.w3.org/2000/svg">
<path d="M20.5195 0C21.2027 0.667078 21.8532 1.3352 22.4697 2.00391C25.5903 5.38892 27.8567 8.79498 29.2695 12.2217C31.9097 10.3953 35.1136 8.8992 38.8818 7.73633C39.7322 7.47394 40.6118 7.2286 41.5195 7C41.7608 7.90468 41.9734 8.79318 42.1572 9.66406C43.8114 17.5015 43.1384 23.9705 40.1387 29.0703C37.1387 34.1699 31.8112 37.9017 24.1572 40.2637C23.3069 40.5261 22.4273 40.7714 21.5195 41C20.6118 40.7714 19.7322 40.5261 18.8818 40.2637C11.2279 37.9017 5.90039 34.17 2.90039 29.0703C-0.0993358 23.9705 -0.772379 17.5015 0.881836 9.66406C1.06566 8.79319 1.27824 7.90468 1.51953 7C2.42749 7.22865 3.30771 7.47387 4.1582 7.73633C7.46801 8.75776 10.3417 10.0369 12.7812 11.5703C14.0548 8.42925 16.0175 5.27134 18.6699 2.09668C19.2531 1.39873 19.8697 0.69958 20.5195 0Z" fill="#E94949"/>
</svg>
