<svg width="44" height="44" viewBox="0 0 44 44" fill="none" xmlns="http://www.w3.org/2000/svg">
<path d="M22 0C22.3333 0.375 22.6502 0.75 22.9502 1.125C25.2999 4.0621 26.6258 6.9994 26.9307 9.93652C27.0889 9.75941 27.2522 9.58663 27.4199 9.41895C29.8063 7.03278 33.1472 5.60136 37.4424 5.12402C37.9197 5.07099 38.4093 5.02946 38.9102 5C38.8807 5.50087 38.8392 5.99048 38.7861 6.46777C38.3088 10.763 36.8774 14.1039 34.4912 16.4902C34.304 16.6775 34.1092 16.8577 33.9102 17.0332C36.9069 17.2586 39.9037 18.598 42.9004 21.0498C43.267 21.3498 43.6334 21.6667 44 22C43.6334 22.3333 43.267 22.6502 42.9004 22.9502C39.9328 25.3783 36.9648 26.7135 33.9971 26.958C36.0801 29.2994 37.3437 32.4604 37.7861 36.4424C37.8392 36.9197 37.8807 37.4093 37.9102 37.9102C37.4093 37.8807 36.9197 37.8392 36.4424 37.7861C32.4203 37.3392 29.235 36.0553 26.8867 33.9346C26.5122 36.748 25.2009 39.5616 22.9502 42.375C22.6502 42.75 22.3333 43.125 22 43.5C21.6667 43.125 21.3498 42.75 21.0498 42.375C18.5332 39.2292 17.1894 36.0833 17.0186 32.9375C14.6706 35.056 11.4875 36.3395 7.46777 36.7861C6.99048 36.8392 6.50087 36.8807 6 36.9102C6.02946 36.4093 6.07099 35.9197 6.12402 35.4424C6.51189 31.9519 7.52929 29.0912 9.17773 26.8613C6.48512 26.4558 3.79213 25.1532 1.09961 22.9502C0.732989 22.6502 0.366621 22.3333 0 22C0.366621 21.6667 0.732989 21.3498 1.09961 21.0498C4.06855 18.6207 7.03783 17.2847 10.0068 17.041C9.80511 16.8634 9.60861 16.6799 9.41895 16.4902C7.03278 14.1039 5.60136 10.763 5.12402 6.46777C5.07099 5.99048 5.02946 5.50087 5 5C5.50087 5.02946 5.99048 5.07099 6.46777 5.12402C10.763 5.60136 14.1039 7.03278 16.4902 9.41895C16.6864 9.61514 16.8753 9.81923 17.0586 10.0283C17.345 7.06055 18.6756 4.09275 21.0498 1.125C21.3498 0.75 21.6667 0.375 22 0Z" fill="#E94949"/>
</svg>
