<svg width="35" height="34" viewBox="0 0 35 34" fill="none" xmlns="http://www.w3.org/2000/svg">
<path d="M0.273158 0.232939C3.42671 -0.350818 7.06288 0.201474 10.7575 1.45559L11.4392 6.65188L12.156 1.96341C13.907 2.6371 15.6589 3.45526 17.3669 4.37356L17.3415 4.42727L18.0827 9.50345L18.7487 5.14212C19.8591 5.78224 20.9446 6.46062 21.9929 7.1636L22.4089 14.2837L23.3542 8.10403C24.3864 8.84019 25.3737 9.59611 26.3025 10.3579C26.6997 10.7487 27.0685 11.1323 27.4148 11.5044L27.7614 18.979L28.6814 12.9575C33.6738 19.1576 31.2162 22.7385 27.153 26.8687C22.778 31.3158 17.2142 33.8917 9.80245 27.3648H13.9753L8.3464 25.8648L8.30636 25.8745C7.1705 24.4872 6.12515 22.9688 5.18722 21.3648H9.97531L4.35519 19.8667C3.75483 18.7277 3.20731 17.5556 2.71945 16.3648H8.84152L2.3464 14.8648L2.15597 14.9077C1.48503 13.0695 0.955938 11.204 0.590541 9.36477H5.1091L0.3464 7.86477L0.329799 7.86966C-0.0782448 5.1726 -0.11974 2.56787 0.273158 0.232939Z" fill="#82CD47"/>
<path d="M2.77051 2.73193L33.7705 33.2319" stroke="#69B031" stroke-linecap="round"/>
<path d="M12.2706 12.2319L6.84717 12.364" stroke="#69B031" stroke-linecap="round"/>
<path d="M22.7705 22.7319L14.8472 22.864" stroke="#69B031" stroke-linecap="round"/>
<path d="M17.2705 16.7319L19.3472 11.364" stroke="#69B031" stroke-linecap="round"/>
</svg>
