<svg width="71" height="78" viewBox="0 0 71 78" fill="none" xmlns="http://www.w3.org/2000/svg">
<path d="M39.5195 0C45.1426 0 49.6605 4.63469 49.5166 10.2559L49.2793 19.5L48.9395 32.7178L49.7793 32.6895L56.4375 32.459L56.2969 28.5L56.0381 21.25C55.8968 17.2886 59.0703 14.0003 63.0342 14H63.5254C67.4894 14.0001 70.6628 17.2885 70.5215 21.25L70.2627 28.5L69.7754 42.1406C69.7732 42.2956 69.7682 42.4495 69.7588 42.6025L69.7451 43H69.7285C69.2154 47.9897 64.9047 51.832 59.7793 51.6553L49.7793 51.3105L48.4639 51.2646L47.7793 78H22.7793L22.374 62.2295L15.2793 62.4824L8.0293 62.7412C4.15329 62.8791 0.923363 59.8441 0.786133 56H0.676758L0.228516 43L0.00390625 36.5C-0.118524 32.9493 2.72663 30.0004 6.2793 30C9.83233 30 12.6781 32.9491 12.5557 36.5L12.3311 43L12.1445 48.4053L15.2793 48.5176L22.0293 48.7578L21.2793 19.5L21.043 10.2559C20.8991 4.63489 25.4163 0.00033805 31.0391 0H39.5195ZM9.7832 44.0967C9.28435 43.8599 8.68807 44.0725 8.45117 44.5713L6.9043 47.8281L6.86523 47.9219C6.69491 48.3994 6.91107 48.938 7.37891 49.1602C7.84655 49.3821 8.40051 49.2098 8.66309 48.7764L8.71094 48.6855L10.2578 45.4287C10.4945 44.9299 10.282 44.3336 9.7832 44.0967ZM60.0498 34.71C59.5001 34.6568 59.0111 35.0597 58.958 35.6094L58.6113 39.1982L58.6064 39.2998C58.6087 39.8068 58.9952 40.2402 59.5107 40.29C60.0259 40.3397 60.4873 39.9889 60.5869 39.4922L60.6016 39.3906L60.9492 35.8018C61.0023 35.2521 60.5995 34.7631 60.0498 34.71ZM48.7832 35.0967C48.2843 34.8599 47.6881 35.0725 47.4512 35.5713L45.9043 38.8281L45.8652 38.9219C45.6949 39.3994 45.9111 39.938 46.3789 40.1602C46.8465 40.3821 47.4005 40.2098 47.6631 39.7764L47.7109 39.6855L49.2578 36.4287C49.4945 35.9299 49.282 35.3336 48.7832 35.0967ZM2.6123 34.4453C2.30597 33.9858 1.68511 33.8617 1.22559 34.168C0.766057 34.4743 0.64189 35.0952 0.948242 35.5547L2.94824 38.5547L3.00879 38.6367C3.33107 39.0281 3.90405 39.1193 4.33496 38.832C4.76567 38.5448 4.90203 37.9811 4.66504 37.5332L4.6123 37.4453L2.6123 34.4453ZM30.6123 34.4453C30.306 33.9858 29.6851 33.8617 29.2256 34.168C28.7661 34.4743 28.6419 35.0952 28.9482 35.5547L30.9482 38.5547L31.0088 38.6367C31.3311 39.0281 31.904 39.1193 32.335 38.832C32.7657 38.5448 32.902 37.9811 32.665 37.5332L32.6123 37.4453L30.6123 34.4453ZM68.7832 27.0967C68.2843 26.8599 67.6881 27.0725 67.4512 27.5713L65.9043 30.8281L65.8652 30.9219C65.6949 31.3994 65.9111 31.938 66.3789 32.1602C66.8465 32.3821 67.4005 32.2098 67.6631 31.7764L67.7109 31.6855L69.2578 28.4287C69.4945 27.9299 69.282 27.3336 68.7832 27.0967ZM36.7832 26.0967C36.2843 25.8599 35.6881 26.0725 35.4512 26.5713L33.9043 29.8281L33.8652 29.9219C33.6949 30.3994 33.9111 30.938 34.3789 31.1602C34.8465 31.3821 35.4005 31.2098 35.6631 30.7764L35.7109 30.6855L37.2578 27.4287C37.4945 26.9299 37.282 26.3336 36.7832 26.0967ZM26.1123 12.9453C25.806 12.4858 25.1851 12.3617 24.7256 12.668C24.2661 12.9743 24.1419 13.5952 24.4482 14.0547L26.4482 17.0547L26.5088 17.1367C26.8311 17.5281 27.404 17.6193 27.835 17.332C28.2657 17.0448 28.402 16.4811 28.165 16.0332L28.1123 15.9453L26.1123 12.9453ZM44.7832 4.09668C44.2843 3.85987 43.6881 4.07245 43.4512 4.57129L41.9043 7.82812L41.8652 7.92188C41.6949 8.39944 41.9111 8.93798 42.3789 9.16016C42.8465 9.38215 43.4005 9.20978 43.6631 8.77637L43.7109 8.68555L45.2578 5.42871C45.4945 4.92988 45.282 4.33356 44.7832 4.09668Z" fill="#50A335"/>
</svg>
