<svg width="78" height="54" viewBox="0 0 78 54" fill="none" xmlns="http://www.w3.org/2000/svg">
<path d="M38.3633 0C43.5807 0 48.1828 3.68397 51.6182 8.4668C52.8321 8.16499 54.0839 8.00003 55.3633 8C66.6098 8 73.5 18.1588 73.5 25C73.5 28.0593 73.0479 31.8813 71.5439 35.1729C75.1182 39.5695 77.5 44.2009 77.5 47.5C77.5 55.8502 62.2465 52.5 51 52.5C44.7667 52.5 39.1875 53.1088 35.4521 52.2305C33.5598 52.8078 30.986 53 27.5 53C26.6907 53 25.8713 52.9436 25.0469 52.8389C22.6505 53.3569 18.6864 52.5352 14 52.5352C6.26802 52.5352 5.31709e-06 53.7819 0 48.5352C0 45.7444 1.77291 41.6782 4.59668 38.4834C3.57977 36.3861 3 34.1937 3 32C3 22.4688 11.0287 15.0034 20.917 13.7012C24.482 6.72372 30.9616 0.000214852 38.3633 0Z" fill="#54B435"/>
</svg>
