<svg width="57" height="68" viewBox="0 0 57 68" fill="none" xmlns="http://www.w3.org/2000/svg">
<path d="M10.5 0.5L12 1L14 5.5L20 0L15 7L21 22.5L25.5 11H26.5L24.5 18.5L28.5 17.5L24 20L22.5 25.5L30 36L32 37L32.5 10L23 3L33 7.5L34 0L35 2L34.5 12.5L39 8.75L43.5 4V5L39.7583 11L44 12L43.5 12.5L38.5 12L35 16V18.5L43 15.5H44L35 20.5L35.5 32.5L36.5 36L40.5 34.5L40 26L40.5 21L41 26L46 19L47.5 18.5L42 27L43 33L49 29L51.75 24.75L49 20L52.5 23.5L55 20.5V21.5L51.5 27.5L57 27L56.3258 27.5L50.822 29L49 31.5L40.5 40L40 53.5L43 68H24.5L27.5 48V43.5L22 31.5L18 30L14 31.5L7 25.5L14 29L19.5 27.5L17 22.5L0 19V18.5L16 19L10.5 0.5Z" fill="#744322"/>
</svg>
