<svg width="79" height="66" viewBox="0 0 79 66" fill="none" xmlns="http://www.w3.org/2000/svg">
<path d="M28.5 57C30 59.5 31 61.5695 31 62.9502C30.9999 64.3308 29.8806 65.4502 28.5 65.4502C27.1194 65.4502 26.0001 64.3308 26 62.9502C26 61.5695 27 59.5 28.5 57ZM53.5 57C55 59.5 56 61.5695 56 62.9502C55.9999 64.3308 54.8806 65.4502 53.5 65.4502C52.1194 65.4502 51.0001 64.3308 51 62.9502C51 61.5695 52 59.5 53.5 57ZM15.5 46C17 48.5 18 50.5695 18 51.9502C17.9999 53.3308 16.8806 54.4502 15.5 54.4502C14.1194 54.4502 13.0001 53.3308 13 51.9502C13 50.5695 14 48.5 15.5 46ZM47.5 46C49 48.5 50 50.5695 50 51.9502C49.9999 53.3308 48.8806 54.4502 47.5 54.4502C46.1194 54.4502 45.0001 53.3308 45 51.9502C45 50.5695 46 48.5 47.5 46ZM68.5 46C70 48.5 71 50.5695 71 51.9502C70.9999 53.3308 69.8806 54.4502 68.5 54.4502C67.1194 54.4502 66.0001 53.3308 66 51.9502C66 50.5695 67 48.5 68.5 46ZM29.5 42C31 44.5 32 46.5695 32 47.9502C31.9999 49.3308 30.8806 50.4502 29.5 50.4502C28.1194 50.4502 27.0001 49.3308 27 47.9502C27 46.5695 28 44.5 29.5 42ZM40 0C49.5006 0 57.3718 4.40422 58.7764 10.1562C59.6607 10.0551 60.5707 10 61.5 10C70.0604 10 74.5 17.9772 74.5 23.5C74.5 26.2907 73.3656 27.9188 71.1396 28.8486C75.9176 30.4933 79 33.0839 79 36C79 40.9706 70.0457 45 59 45C53.6757 45 48.8387 44.0607 45.2549 42.5342C43.586 42.8369 41.823 43 40 43C36.6098 43 33.4274 42.4378 30.6719 41.4551C27.5833 42.4314 23.9242 43 20 43C8.9543 43 0 38.5228 0 33C0 28.9837 4.73588 25.5222 11.5674 23.9316C11.1984 23.0045 11 22.0201 11 21C11 16.2616 15.2848 12.2955 21.0361 11.2637C21.6385 4.97922 29.8981 0 40 0Z" fill="#98CFF3"/>
</svg>
