<svg width="48" height="75" viewBox="0 0 48 75" fill="none" xmlns="http://www.w3.org/2000/svg">
<path d="M14.8559 1.62409C18.6254 -1.22762 24.0313 -0.214938 26.5131 3.80769L30.8178 10.7852C32.9877 10.432 35.2767 10.563 37.5376 11.2676C45.8672 13.8639 50.1118 23.1049 46.6538 31.1153L41.5962 42.8311C44.8392 46.8915 46.5242 52.2185 45.8022 57.8497L43.6928 74.3057H2.69283L0.23678 58.3467C-1.43966 47.4484 5.97795 37.5137 16.4077 35.628L18.7016 22.7217C18.8985 21.6139 19.2134 20.5597 19.6303 19.5694L13.8891 13.546C10.5867 10.0808 11.0386 4.5122 14.8559 1.62409ZM32.9663 49.3077C32.4149 49.3393 31.9932 49.812 32.0249 50.3633L32.187 53.1866L32.1987 53.2882C32.2787 53.7886 32.7258 54.1576 33.2426 54.128C33.7594 54.0983 34.1617 53.6811 34.184 53.1749V53.0723L34.0219 50.2481C33.9901 49.6969 33.5175 49.2762 32.9663 49.3077ZM14.9663 48.3077C14.4149 48.3393 13.9932 48.812 14.0249 49.3633L14.187 52.1866L14.1987 52.2882C14.2787 52.7886 14.7258 53.1576 15.2426 53.128C15.7594 53.0983 16.1617 52.6811 16.184 52.1749V52.0723L16.0219 49.2481C15.9901 48.6969 15.5175 48.2762 14.9663 48.3077ZM43.0473 45.4141C42.5551 45.164 41.953 45.3605 41.7026 45.8526L40.4204 48.3731L40.3794 48.4669C40.1964 48.9394 40.3966 49.483 40.8579 49.7178C41.3194 49.9526 41.8775 49.7945 42.1518 49.3682L42.2026 49.2803L43.4858 46.7589C43.7359 46.2667 43.5395 45.6645 43.0473 45.4141ZM7.39889 43.5987C7.00835 43.2084 6.37528 43.2082 5.98483 43.5987C5.59461 43.9892 5.5946 44.6223 5.98483 45.0128L7.98483 47.0128L8.061 47.0811C8.45369 47.4014 9.03276 47.3787 9.39889 47.0128C9.76501 46.6466 9.7876 46.0676 9.46725 45.6749L9.39889 45.5987L7.39889 43.5987ZM15.9663 38.3077C15.4149 38.3393 14.9932 38.812 15.0249 39.3633L15.187 42.1866L15.1987 42.2882C15.2787 42.7886 15.7258 43.1576 16.2426 43.128C16.7594 43.0983 17.1617 42.6811 17.184 42.1749V42.0723L17.0219 39.2481C16.9901 38.6969 16.5175 38.2762 15.9663 38.3077ZM20.3989 27.5987C20.0083 27.2084 19.3753 27.2083 18.9848 27.5987C18.5946 27.9892 18.5946 28.6223 18.9848 29.0128L20.9848 31.0128L21.061 31.0811C21.4537 31.4014 22.0328 31.3787 22.3989 31.0128C22.765 30.6466 22.7876 30.0676 22.4672 29.6749L22.3989 29.5987L20.3989 27.5987ZM34.9663 20.3077C34.4149 20.3393 33.9932 20.812 34.0249 21.3633L34.187 24.1866L34.1987 24.2882C34.2787 24.7886 34.7258 25.1576 35.2426 25.128C35.7594 25.0983 36.1617 24.6811 36.184 24.1749V24.0723L36.0219 21.2481C35.9901 20.6969 35.5175 20.2762 34.9663 20.3077ZM42.0473 16.4141C41.5551 16.164 40.953 16.3605 40.7026 16.8526L39.4204 19.3731L39.3794 19.4669C39.1964 19.9394 39.3966 20.483 39.8579 20.7178C40.3194 20.9526 40.8775 20.7945 41.1518 20.3682L41.2026 20.2803L42.4858 17.7589C42.7359 17.2667 42.5395 16.6645 42.0473 16.4141ZM23.9663 7.30769C23.4149 7.33933 22.9932 7.81197 23.0249 8.36335L23.187 11.1866L23.1987 11.2882C23.2787 11.7886 23.7258 12.1576 24.2426 12.128C24.7594 12.0983 25.1617 11.6811 25.184 11.1749V11.0723L25.0219 8.24812C24.9901 7.69694 24.5175 7.27615 23.9663 7.30769ZM15.3989 6.5987C15.0083 6.20839 14.3753 6.20825 13.9848 6.5987C13.5946 6.98917 13.5946 7.6223 13.9848 8.01276L15.9848 10.0128L16.061 10.0811C16.4537 10.4014 17.0328 10.3787 17.3989 10.0128C17.765 9.64665 17.7876 9.06765 17.4672 8.67487L17.3989 8.5987L15.3989 6.5987Z" fill="#50A335"/>
</svg>
