<svg width="79" height="45" viewBox="0 0 79 45" fill="none" xmlns="http://www.w3.org/2000/svg">
<path d="M40 0C49.5006 0 57.3718 4.40422 58.7764 10.1562C59.6607 10.0551 60.5707 10 61.5 10C70.0604 10 74.5 17.9772 74.5 23.5C74.5 26.2907 73.3656 27.9188 71.1396 28.8486C75.9176 30.4933 79 33.0839 79 36C79 40.9706 70.0457 45 59 45C53.6757 45 48.8387 44.0607 45.2549 42.5342C43.586 42.8369 41.823 43 40 43C36.6098 43 33.4274 42.4378 30.6719 41.4551C27.5833 42.4314 23.9242 43 20 43C8.9543 43 0 38.5228 0 33C0 28.9837 4.73588 25.5222 11.5674 23.9316C11.1984 23.0045 11 22.0201 11 21C11 16.2616 15.2848 12.2955 21.0361 11.2637C21.6385 4.97922 29.8981 0 40 0Z" fill="#A0E9FF"/>
</svg>
