<svg width="78" height="54" viewBox="0 0 78 54" fill="none" xmlns="http://www.w3.org/2000/svg">
<path d="M38.3633 0C43.5807 0 48.1828 3.68397 51.6182 8.4668C52.8321 8.16499 54.0839 8.00003 55.3633 8C66.6098 8 73.5 18.1588 73.5 25C73.5 28.0593 73.0479 31.8813 71.5439 35.1729C75.1182 39.5695 77.5 44.2009 77.5 47.5C77.5 55.8502 62.2465 52.5 51 52.5C44.7667 52.5 39.1875 53.1088 35.4521 52.2305C33.5598 52.8078 30.986 53 27.5 53C26.6907 53 25.8713 52.9436 25.0469 52.8389C22.6505 53.3569 18.6864 52.5352 14 52.5352C6.26802 52.5352 5.31709e-06 53.7819 0 48.5352C0 45.7444 1.77291 41.6782 4.59668 38.4834C3.57977 36.3861 3 34.1937 3 32C3 22.4688 11.0287 15.0034 20.917 13.7012C24.482 6.72372 30.9616 0.000214852 38.3633 0Z" fill="#54B435"/>
<path d="M16 36.5777C16 38.468 14.433 40 12.5 40C10.567 40 9 38.468 9 36.5777C9 34.6875 10.4 33.1558 12.5 34.5245C15.3 33.8403 16 34.6875 16 36.5777Z" fill="#EA5C56"/>
<path d="M12.5 34.5L13 33" stroke="#7A1D1D" stroke-width="0.5"/>
<path d="M27 22.5777C27 24.468 25.433 26 23.5 26C21.567 26 20 24.468 20 22.5777C20 20.6875 21.4 19.1558 23.5 20.5245C26.3 19.8403 27 20.6875 27 22.5777Z" fill="#EA5C56"/>
<path d="M23.5 20.5L24 19" stroke="#7A1D1D" stroke-width="0.5"/>
<path d="M35 13.5777C35 15.468 33.433 17 31.5 17C29.567 17 28 15.468 28 13.5777C28 11.6875 29.4 10.1558 31.5 11.5245C34.3 10.8403 35 11.6875 35 13.5777Z" fill="#EA5C56"/>
<path d="M31.5 11.5L32 10" stroke="#7A1D1D" stroke-width="0.5"/>
<path d="M43 31.5777C43 33.468 41.433 35 39.5 35C37.567 35 36 33.468 36 31.5777C36 29.6875 37.4 28.1558 39.5 29.5245C42.3 28.8403 43 29.6875 43 31.5777Z" fill="#EA5C56"/>
<path d="M39.5 29.5L40 28" stroke="#7A1D1D" stroke-width="0.5"/>
<path d="M59 13.5777C59 15.468 57.433 17 55.5 17C53.567 17 52 15.468 52 13.5777C52 11.6875 53.4 10.1558 55.5 11.5245C58.3 10.8403 59 11.6875 59 13.5777Z" fill="#EA5C56"/>
<path d="M55.5 11.5L56 10" stroke="#7A1D1D" stroke-width="0.5"/>
<path d="M65 20.5777C65 22.468 63.433 24 61.5 24C59.567 24 58 22.468 58 20.5777C58 18.6875 59.4 17.1558 61.5 18.5245C64.3 17.8403 65 18.6875 65 20.5777Z" fill="#EA5C56"/>
<path d="M61.5 18.5L62 17" stroke="#7A1D1D" stroke-width="0.5"/>
<path d="M66 35.5777C66 37.468 64.433 39 62.5 39C60.567 39 59 37.468 59 35.5777C59 33.6875 60.4 32.1558 62.5 33.5245C65.3 32.8403 66 33.6875 66 35.5777Z" fill="#EA5C56"/>
<path d="M62.5 33.5L63 32" stroke="#7A1D1D" stroke-width="0.5"/>
</svg>
