<svg width="52" height="60" viewBox="0 0 52 60" fill="none" xmlns="http://www.w3.org/2000/svg">
<rect x="23.7915" y="3" width="2.8" height="4.2" fill="#471D01"/>
<path d="M17.3037 38.4268C15.6067 43.0988 18.8644 56.1719 23.0173 57.6803C27.1701 59.1887 31.9007 52.3263 33.5977 47.6543C35.2946 42.9824 29.3084 31.4045 26.7792 28.9341C23.3947 30.274 19.3385 34.022 17.3037 38.4268Z" fill="#956444"/>
<path d="M28.0324 33.9856C28.8651 38.8859 21.235 50.3519 18.2209 52.5751C13.2648 51.1613 11.1817 45.0455 10.3491 40.1452C9.51644 35.2449 17.4797 24.9265 20.4105 22.9491C23.5003 24.8736 26.8195 29.2875 28.0324 33.9856Z" fill="#744322"/>
<path d="M21.5862 33.9856C20.7536 38.8859 28.3837 50.3519 31.3977 52.5751C36.3538 51.1613 38.4369 45.0455 39.2696 40.1452C40.1022 35.2449 32.139 24.9265 29.2081 22.9491C26.1184 24.8736 22.7992 29.2875 21.5862 33.9856Z" fill="#744322"/>
<path d="M20.2915 27.5C18.6205 32.1813 12.0951 41.334 7.934 39.8487C3.77287 38.3633 4.50304 30.0604 6.17402 25.3791C7.845 20.6978 19.838 15.5939 23.3616 15.303C25.1149 18.493 21.5319 22.8091 20.2915 27.5Z" fill="#956444"/>
<path d="M28.7915 27.5C30.4625 32.1813 37.3936 41.334 41.5548 39.8487C45.7159 38.3633 44.9857 30.0604 43.3148 25.3791C41.6438 20.6978 29.6507 15.5939 26.1272 15.303C24.3739 18.493 27.5511 22.8091 28.7915 27.5Z" fill="#956444"/>
<path d="M17.3037 22.4268C15.6067 27.0988 18.8644 40.1719 23.0173 41.6803C27.1701 43.1887 31.9007 36.3263 33.5977 31.6543C35.2946 26.9824 29.3084 15.4045 26.7792 12.9341C23.3947 14.274 19.3385 18.022 17.3037 22.4268Z" fill="#956444"/>
<path d="M26.3226 20.1738C28.9928 24.3662 41.3435 29.7497 45.0701 28.3762C46.7967 25.0026 46.2383 17.07 43.5681 12.8775C40.8979 8.68512 28.0701 6.37618 24.5701 6.87618C23.5701 10.3762 24.0701 15.8762 26.3226 20.1738Z" fill="#744322"/>
<path d="M24.5368 20.2961C21.8665 24.4885 8.51587 27.872 4.78927 27.4985C2.06267 23.125 4.62107 17.1923 7.29128 12.9999C9.9615 8.80743 22.7893 6.49849 26.2893 6.99849C27.2893 10.4985 26.7893 15.9985 24.5368 20.2961Z" fill="#744322"/>
</svg>
