<svg width="58" height="51" viewBox="0 0 58 51" fill="none" xmlns="http://www.w3.org/2000/svg">
<circle cx="28.6001" cy="28.6001" r="22" fill="#E94949"/>
<circle cx="28.6" cy="28.6" r="17.05" fill="white" stroke="#D41717" stroke-width="1.1"/>
<path d="M24.75 3.0251C24.2944 3.0251 23.925 3.39446 23.925 3.8501C23.925 4.30573 24.2944 4.6751 24.75 4.6751V3.0251ZM31.35 4.6751C31.8056 4.6751 32.175 4.30573 32.175 3.8501C32.175 3.39446 31.8056 3.0251 31.35 3.0251V4.6751ZM28.05 6.6001H28.875V3.8501H28.05H27.225V6.6001H28.05ZM28.05 3.8501V3.0251H24.75V3.8501V4.6751H28.05V3.8501ZM28.05 3.8501V4.6751H31.35V3.8501V3.0251H28.05V3.8501Z" fill="#721616"/>
<path d="M5.83363 5.83385C9.05546 2.61202 14.2791 2.61202 17.5009 5.83385L5.83363 17.5011C2.61181 14.2793 2.61181 9.05568 5.83363 5.83385Z" fill="#E94949"/>
<path d="M51.2672 5.83363C54.489 9.05546 54.4891 14.2791 51.2672 17.5009L39.6 5.83363C42.8218 2.61181 48.0454 2.61181 51.2672 5.83363Z" fill="#E94949"/>
<path d="M27.2251 28.6C28.1418 28.6 29.0584 28.6 29.9751 28.6C29.9608 28.4579 29.9465 28.3158 29.9321 28.1737C29.6743 25.6162 29.4165 23.0587 29.1587 20.5012C29.1444 20.3591 29.13 20.217 29.1157 20.075C28.772 20.075 28.4282 20.075 28.0845 20.075C28.0701 20.217 28.0558 20.3591 28.0415 20.5012C27.7837 23.0587 27.5259 25.6162 27.2681 28.1737C27.2537 28.3158 27.2394 28.4579 27.2251 28.6Z" fill="#0E0000"/>
<path d="M27.2918 28.1767C28.1639 28.4589 29.0361 28.7411 29.9082 29.0233C29.9679 28.7922 30.0276 28.5611 30.0874 28.33C31.1621 24.1707 32.2368 20.0113 33.3115 15.8519C33.3712 15.6209 33.4309 15.3898 33.4906 15.1587C33.1635 15.0529 32.8365 14.9471 32.5094 14.8413C32.4225 15.0635 32.3355 15.2858 32.2485 15.5081C30.6832 19.5087 29.1179 23.5093 27.5526 27.51C27.4657 27.7322 27.3787 27.9545 27.2918 28.1767Z" fill="#0E0000"/>
<circle cx="28.6002" cy="28.8751" r="1.65" fill="#0E0000"/>
</svg>
