<svg width="56" height="50" viewBox="0 0 56 50" fill="none" xmlns="http://www.w3.org/2000/svg">
<rect y="4.54541" width="40" height="40.9091" fill="#744322"/>
<ellipse cx="20" cy="4.54545" rx="20" ry="4.54545" fill="#A15A2B"/>
<ellipse cx="20" cy="45.4546" rx="20" ry="4.54545" fill="#744322"/>
<path d="M5.5 13V32.5" stroke="#5D3418"/>
<path d="M8 25V39" stroke="#5D3418"/>
<path d="M17 17V31" stroke="#5D3418"/>
<path d="M17 39V44" stroke="#5D3418"/>
<path d="M33 41V46" stroke="#5D3418"/>
<path d="M20 22V36" stroke="#5D3418"/>
<path d="M37 10V24" stroke="#5D3418"/>
<path d="M25 15V41" stroke="#5D3418"/>
<path d="M20 1.5C24.671 1.5 28.8856 1.88995 31.9199 2.51465C33.4412 2.82784 34.6395 3.1947 35.4453 3.58691C35.8493 3.78354 36.1282 3.97479 36.2998 4.14746C36.4699 4.31865 36.5 4.43487 36.5 4.5C36.5 4.56513 36.4699 4.68135 36.2998 4.85254C36.1282 5.02521 35.8493 5.21646 35.4453 5.41309C34.6395 5.8053 33.4412 6.17216 31.9199 6.48535C28.8856 7.11005 24.671 7.5 20 7.5C15.329 7.5 11.1144 7.11005 8.08008 6.48535C6.55885 6.17216 5.36046 5.8053 4.55469 5.41309C4.15074 5.21646 3.87181 5.02521 3.7002 4.85254C3.53008 4.68135 3.5 4.56513 3.5 4.5C3.5 4.43487 3.53008 4.31865 3.7002 4.14746C3.87181 3.97479 4.15074 3.78354 4.55469 3.58691C5.36046 3.1947 6.55885 2.82784 8.08008 2.51465C11.1144 1.88995 15.329 1.5 20 1.5Z" stroke="#C0723E"/>
<path d="M20 3.5C22.1878 3.5 24.1554 3.66649 25.5645 3.93066C26.2731 4.06354 26.8158 4.2165 27.1689 4.37305C27.2727 4.41903 27.3492 4.46364 27.4062 4.5C27.3492 4.53636 27.2727 4.58097 27.1689 4.62695C26.8158 4.7835 26.2731 4.93646 25.5645 5.06934C24.1554 5.33351 22.1878 5.5 20 5.5C17.8122 5.5 15.8446 5.33351 14.4355 5.06934C13.7269 4.93646 13.1842 4.7835 12.8311 4.62695C12.7269 4.58079 12.6499 4.53646 12.5928 4.5C12.6499 4.46354 12.7269 4.41921 12.8311 4.37305C13.1842 4.2165 13.7269 4.06354 14.4355 3.93066C15.8446 3.66649 17.8122 3.5 20 3.5Z" stroke="#C0723E"/>
<path d="M47.2807 12.0401L49.797 13.6736L39.7459 30.9934L35.5521 28.271L47.2807 12.0401Z" fill="#744322"/>
<path d="M35 16V39" stroke="#5D3418"/>
<path d="M44 17C44.3707 17.0382 44.7329 17.0661 45.0865 17.0838C48.2693 17.2432 50.7607 16.5729 52.5607 15.0729C54.3607 13.5729 55.4693 11.2432 55.8865 8.08385C55.9329 7.73281 55.9707 7.37153 56 7C55.6293 6.96181 55.2671 6.93386 54.9135 6.91615C51.7307 6.75679 49.2393 7.42711 47.4393 8.92711C45.6393 10.4271 44.5307 12.7568 44.1135 15.9162C44.0671 16.2672 44.0293 16.6285 44 17Z" fill="#54B435"/>
<path d="M46 16L52 10" stroke="#50A335" stroke-linecap="round"/>
</svg>
