<svg width="58" height="51" viewBox="0 0 58 51" fill="none" xmlns="http://www.w3.org/2000/svg">
<circle cx="28.6001" cy="28.6001" r="22" fill="#E94949"/>
<circle cx="28.6" cy="28.6" r="17.05" fill="white" stroke="#D41717" stroke-width="1.1"/>
<path d="M24.75 3.0251C24.2944 3.0251 23.925 3.39446 23.925 3.8501C23.925 4.30573 24.2944 4.6751 24.75 4.6751V3.0251ZM31.35 4.6751C31.8056 4.6751 32.175 4.30573 32.175 3.8501C32.175 3.39446 31.8056 3.0251 31.35 3.0251V4.6751ZM28.05 6.6001H28.875V3.8501H28.05H27.225V6.6001H28.05ZM28.05 3.8501V3.0251H24.75V3.8501V4.6751H28.05V3.8501ZM28.05 3.8501V4.6751H31.35V3.8501V3.0251H28.05V3.8501Z" fill="#721616"/>
<path d="M5.83363 5.83385C9.05546 2.61202 14.2791 2.61202 17.5009 5.83385L5.83363 17.5011C2.61181 14.2793 2.61181 9.05568 5.83363 5.83385Z" fill="#E94949"/>
<path d="M51.2672 5.83363C54.489 9.05546 54.4891 14.2791 51.2672 17.5009L39.6 5.83363C42.8218 2.61181 48.0454 2.61181 51.2672 5.83363Z" fill="#E94949"/>
<path d="M27.2251 28.6C28.1418 28.6 29.0584 28.6 29.9751 28.6C29.9608 28.4579 29.9465 28.3158 29.9321 28.1737C29.6743 25.6162 29.4165 23.0587 29.1587 20.5012C29.1444 20.3591 29.13 20.217 29.1157 20.075C28.772 20.075 28.4282 20.075 28.0845 20.075C28.0701 20.217 28.0558 20.3591 28.0415 20.5012C27.7837 23.0587 27.5259 25.6162 27.2681 28.1737C27.2537 28.3158 27.2394 28.4579 27.2251 28.6Z" fill="#0E0000"/>
<path d="M29.7441 29.3627C28.9814 28.8542 28.2186 28.3458 27.4559 27.8373C27.3412 28.0352 27.2264 28.2332 27.1117 28.4311C25.0462 31.9941 22.9807 35.5571 20.9152 39.1201C20.8005 39.3181 20.6857 39.516 20.571 39.714C20.857 39.9047 21.143 40.0953 21.429 40.286C21.5676 40.104 21.7062 39.9219 21.8448 39.7399C24.3393 36.4629 26.8338 33.1859 29.3283 29.9089C29.4669 29.7268 29.6055 29.5448 29.7441 29.3627Z" fill="#0E0000"/>
<circle cx="28.6002" cy="28.8751" r="1.65" fill="#0E0000"/>
<path d="M5.5 21L4.38678 25.4529C4.13055 26.4778 4.03835 27.5369 4.11362 28.5907L4.5 34" stroke="#0E0000" stroke-width="2" stroke-linecap="round"/>
<path d="M2 23L1.35963 25.66C1.12128 26.6501 1.03556 27.6708 1.10544 28.6867L1.33333 32" stroke="#0E0000" stroke-width="2" stroke-linecap="round"/>
<path d="M46.0001 44.8613L47.8545 42.8496C48.5448 42.1009 49.1166 41.2511 49.5502 40.3296L50.9643 37.3246" stroke="#0E0000" stroke-width="2" stroke-linecap="round"/>
<path d="M48.0005 46.8613C49.3648 45.9617 50.4101 44.6542 50.9875 43.1254L51.0289 43.0159" stroke="#0E0000" stroke-width="2" stroke-linecap="round"/>
</svg>
