<svg width="38" height="55" viewBox="0 0 38 55" fill="none" xmlns="http://www.w3.org/2000/svg">
<path d="M4.59971 22.4001H33.1997L35.1161 30.9442C36.368 36.5259 34.9797 42.3733 31.3523 46.7966C29.5737 48.9655 27.3272 50.7036 24.7812 51.8808L18.8997 54.6001L13.382 51.6565C11.4399 50.6204 9.67833 49.2769 8.16547 47.6781C3.49838 42.7458 1.59087 35.8149 3.07697 29.1892L4.59971 22.4001Z" fill="#744322"/>
<path d="M37.8 19.7676C37.8 27.7845 31.6716 24.5584 18.5797 24.5584C5.4877 24.5584 0 27.7845 0 19.7676C0 14.1457 5.4877 4.19995 18.5797 4.19995C31.6716 4.19995 37.8 14.1457 37.8 19.7676Z" fill="#956444"/>
<rect x="17.5" width="2.8" height="4.2" fill="#471D01"/>
</svg>
