<svg width="60" height="57" viewBox="0 0 60 57" fill="none" xmlns="http://www.w3.org/2000/svg">
<rect x="25" y="26" width="11" height="31" fill="#C28A41"/>
<path d="M0.886719 1.6001H60.0001V5.1001V8.6001L53.202 10.3501L60.0001 12.1001V15.6001L56.7488 17.3501L60.0001 19.1001V22.6001L50.8375 24.3501L60.0001 26.1001V27.8501V29.6001H0.886719V26.1001V22.6001L7.98032 20.8501L0.886719 19.1001V15.6001V12.1001V8.6001L9.75372 6.8501L0.886719 5.1001V1.6001Z" fill="#C28A41"/>
<path d="M0 0H59.1133V3.5V7L52.3153 8.75L59.1133 10.5V14L55.8621 15.75L59.1133 17.5V21L49.9508 22.75L59.1133 24.5V26.25V28H0V24.5V21L7.0936 19.25L0 17.5V14V10.5V7L8.867 5.25L0 3.5V0Z" fill="#FFEFDA"/>
</svg>
