<svg width="38" height="78" viewBox="0 0 38 78" fill="none" xmlns="http://www.w3.org/2000/svg">
<mask id="mask0_350_183" style="mask-type:alpha" maskUnits="userSpaceOnUse" x="0" y="13" width="38" height="63">
<path d="M5.7627 17.5502C8.249 15.3756 11.5026 14.287 14.7969 14.5287L19.5879 14.8803L19.6396 14.8842L19.6914 14.8803L22.8164 14.6088C26.1637 14.3185 29.4846 15.4047 32.0137 17.6166L32.8311 18.3305C35.5123 20.6756 37.0498 24.0652 37.0498 27.6273V33.1205C37.0498 34.4389 36.839 35.7488 36.4248 37.0004L31.9814 50.4252C29.1341 59.0284 25.0516 67.1724 19.8613 74.601C19.3705 75.3035 18.3297 75.3035 17.8389 74.601C12.6486 67.1724 8.56609 59.0284 5.71875 50.4252L1.27539 37.0004C0.861191 35.7487 0.650403 34.4389 0.650391 33.1205V27.6273C0.650391 24.0652 2.18788 20.6756 4.86914 18.3305L5.7627 17.5502Z" fill="#FF952C" stroke="#774E25" stroke-width="1.3"/>
</mask>
<g mask="url(#mask0_350_183)">
<path d="M14.75 15.1771L19.54 15.5287L19.6445 15.5365L19.748 15.5277L22.8721 15.2562C26.0433 14.9812 29.1899 16.0102 31.5859 18.1059L32.4023 18.8197C34.9425 21.0414 36.4004 24.2527 36.4004 27.6273V33.1205C36.4004 34.3695 36.2 35.6105 35.8076 36.7963L31.3643 50.2211C28.5367 58.7646 24.4824 66.8519 19.3281 74.2289C19.096 74.5611 18.6042 74.561 18.3721 74.2289C13.2178 66.8519 9.16352 58.7646 6.33594 50.2211L1.89258 36.7963C1.50015 35.6105 1.29982 34.3695 1.2998 33.1205V27.6273C1.2998 24.2527 2.75673 21.0414 5.29688 18.8197L6.19043 18.0394C8.54594 15.9792 11.629 14.9481 14.75 15.1771Z" fill="#FF952C" stroke="#B17030" stroke-width="2.6"/>
<path d="M19.5 45.3328C25.6747 47.391 32.4459 46.5854 37.9652 43.1358L39.65 42.0828" stroke="#E08325" stroke-width="2.6" stroke-linecap="round"/>
<path d="M19.5 53.1328C25.6747 55.191 32.4459 54.3854 37.9652 50.9358L39.65 49.8828" stroke="#E08325" stroke-width="2.6" stroke-linecap="round"/>
</g>
<path d="M19.5002 19.9828L11.7002 0.482803" stroke="#2B833E" stroke-width="2.6"/>
<path d="M19.5 19.9828V1.78281" stroke="#2B833E" stroke-width="2.6"/>
<path d="M19.5 19.9828L26 5.6828" stroke="#2B833E" stroke-width="2.6"/>
<path d="M15.6001 19.9828C18.1407 20.8297 20.8779 20.8891 23.4529 20.1534L24.0501 19.9828" stroke="#B17030" stroke-width="2.6"/>
</svg>
