<svg width="42" height="79" viewBox="0 0 42 79" fill="none" xmlns="http://www.w3.org/2000/svg">
<path d="M20.6755 16.296C26.256 16.296 30.3486 17.1126 33.3113 18.7023C36.3251 20.3195 38.0758 22.6863 39.0408 25.548C39.987 28.3541 40.175 31.6264 40.1482 35.0948C40.1347 36.8377 40.0654 38.6659 40.0007 40.5333C39.9358 42.4076 39.8757 44.3306 39.8757 46.296V46.3859L39.8621 46.4757C38.6369 54.5953 36.5539 59.0026 33.4421 62.9083C31.9178 64.8215 30.1538 66.6042 28.2039 68.6075C26.2429 70.6222 24.0527 72.9 21.5994 75.8615L20.6755 76.9777L19.7517 75.8615C17.2982 72.8998 15.1073 70.6223 13.1462 68.6075C11.1963 66.6042 9.43319 64.8214 7.90894 62.9083C4.79711 59.0026 2.71423 54.5954 1.48901 46.4757L1.47534 46.3859V46.296C1.47534 44.3306 1.41426 42.4076 1.34937 40.5333C1.28471 38.666 1.21636 36.8377 1.20288 35.0948C1.17607 31.6264 1.36412 28.3541 2.3103 25.548C3.2752 22.6865 5.02518 20.3195 8.03882 18.7023C11.0016 17.1125 15.0949 16.296 20.6755 16.296Z" fill="#FFFFF3" stroke="#AED8A4" stroke-width="2.4"/>
<path d="M20.6756 22.2962L13.4756 4.2962" stroke="#2B833E" stroke-width="2.4"/>
<path d="M18.9949 20.7221L13.4756 13.8962" stroke="#2B833E" stroke-width="2.4"/>
<path d="M20.6755 22.2962V5.49622" stroke="#2B833E" stroke-width="2.4"/>
<path d="M20.4273 18.2658L25.7246 2.32283" stroke="#2B833E" stroke-width="2.4"/>
<path d="M20.6755 22.2962L26.6755 9.09621" stroke="#2B833E" stroke-width="2.4"/>
<path d="M17.9996 14.5388L17.352 0.0536031" stroke="#2B833E" stroke-width="2.4"/>
<path d="M15.8755 21.0962C18.2207 21.8779 20.7473 21.9328 23.1242 21.2537L23.6755 21.0962" stroke="#AAF19A" stroke-width="2.4"/>
</svg>
