<svg width="100" height="32" viewBox="0 0 100 32" fill="none" xmlns="http://www.w3.org/2000/svg">
<mask id="mask0_350_224" style="mask-type:alpha" maskUnits="userSpaceOnUse" x="0" y="0" width="100" height="32">
<path d="M84.9531 2.03027C92.474 1.61619 98.7998 7.60353 98.7998 15.1357C98.7996 22.0114 93.493 27.7212 86.6357 28.2246L74.9473 29.083L50 29.999L25.0518 29.083L13.3643 28.2246C6.50702 27.7212 1.20044 22.0114 1.2002 15.1357C1.2002 7.60352 7.52605 1.61619 15.0469 2.03027L24.9336 2.57422L24.9561 2.57617H24.9775L49.9775 3.03516H50.0225L75.0225 2.57617H75.0439L75.0664 2.57422L84.9531 2.03027Z" fill="white" stroke="#B1B1B1" stroke-width="2.4"/>
</mask>
<g mask="url(#mask0_350_224)">
<path d="M0 15.1353C0 6.91438 6.90392 0.380122 15.1124 0.83207L25 1.37647L50 1.83529L75 1.37647L84.8876 0.83207C93.0961 0.380122 100 6.91438 100 15.1353C100 22.6398 94.2083 28.8722 86.7239 29.4217L75 30.2824L50 31.2L25 30.2824L13.2761 29.4217C5.79172 28.8722 0 22.6398 0 15.1353Z" fill="white"/>
<rect width="4.68353" height="32.0978" transform="matrix(0.978924 0.204225 -0.182409 0.983223 13.855 0)" fill="#187CFF"/>
<rect width="4.68353" height="32.0978" transform="matrix(0.978924 0.204225 -0.182409 0.983223 3.45508 -0.799988)" fill="#187CFF"/>
<rect width="4.68353" height="32.0978" transform="matrix(0.995451 0.0952724 -0.0731163 0.997324 23.2622 0.828857)" fill="#187CFF"/>
<rect width="4.68353" height="32.0978" transform="matrix(0.999497 0.031731 -0.00950068 0.999955 33.9048 0.800003)" fill="#187CFF"/>
<rect width="4.68353" height="32.0978" transform="matrix(0.999497 0.031731 -0.00950068 0.999955 45.105 0.800003)" fill="#187CFF"/>
<rect width="4.68353" height="32.0978" transform="matrix(0.999999 0.00130705 0.020927 0.999781 55.8154 0.874039)" fill="#187CFF"/>
<rect width="4.68353" height="32.0978" transform="matrix(0.999999 0.00130705 0.020927 0.999781 67.2002 0.800003)" fill="#187CFF"/>
<rect width="4.68353" height="32.0978" transform="matrix(0.998835 -0.0482655 0.0704614 0.997515 77.6079 0.952469)" fill="#187CFF"/>
<rect width="4.68353" height="32.0978" transform="matrix(0.998835 -0.0482655 0.0704614 0.997515 88 1.02606)" fill="#187CFF"/>
<path d="M84.9531 2.03027C92.474 1.61619 98.7998 7.60353 98.7998 15.1357C98.7996 22.0114 93.493 27.7212 86.6357 28.2246L74.9473 29.083L50 29.999L25.0518 29.083L13.3643 28.2246C6.50702 27.7212 1.20044 22.0114 1.2002 15.1357C1.2002 7.60352 7.52605 1.61619 15.0469 2.03027L24.9336 2.57422L24.9561 2.57617H24.9775L49.9775 3.03516H50.0225L75.0225 2.57617H75.0439L75.0664 2.57422L84.9531 2.03027Z" stroke="#B1B1B1" stroke-width="2.4"/>
</g>
</svg>
