<svg width="125" height="39" viewBox="0 0 125 39" fill="none" xmlns="http://www.w3.org/2000/svg">
<mask id="mask0_259_618" style="mask-type:alpha" maskUnits="userSpaceOnUse" x="0" y="1" width="125" height="38">
<path d="M106.192 2.53809C115.593 2.02071 123.5 9.50387 123.5 18.9189C123.5 27.5138 116.867 34.652 108.295 35.2812L93.6914 36.3535L62.5 37.498L31.3076 36.3535L16.7051 35.2812C8.13334 34.652 1.5 27.5138 1.5 18.9189C1.50008 9.50387 9.40679 2.0207 18.8076 2.53809L31.168 3.21875L31.2227 3.2207L62.4727 3.79395H62.5273L93.7773 3.2207L93.832 3.21875L106.192 2.53809Z" fill="white" stroke="#B1B1B1" stroke-width="3"/>
</mask>
<g mask="url(#mask0_259_618)">
<path d="M0 18.9191C0 8.64297 8.62991 0.475153 18.8905 1.04009L31.25 1.72059L62.5 2.29412L93.75 1.72059L106.11 1.04009C116.37 0.475153 125 8.64297 125 18.9191C125 28.2997 117.76 36.0903 108.405 36.7771L93.75 37.8529L62.5 39L31.25 37.8529L16.5951 36.7771C7.23963 36.0903 0 28.2997 0 18.9191Z" fill="white"/>
<rect width="5.85441" height="40.1222" transform="matrix(0.978924 0.204225 -0.182409 0.983223 17.3186 0)" fill="#187CFF"/>
<rect width="5.85441" height="40.1222" transform="matrix(0.978924 0.204225 -0.182409 0.983223 4.3186 -1)" fill="#187CFF"/>
<rect width="5.85441" height="40.1222" transform="matrix(0.995451 0.0952724 -0.0731163 0.997324 29.0776 1.03606)" fill="#187CFF"/>
<rect width="5.85441" height="40.1222" transform="matrix(0.999497 0.031731 -0.00950068 0.999955 42.3811 1)" fill="#187CFF"/>
<rect width="5.85441" height="40.1222" transform="matrix(0.999497 0.031731 -0.00950068 0.999955 56.3811 1)" fill="#187CFF"/>
<rect width="5.85441" height="40.1222" transform="matrix(0.999999 0.00130705 0.020927 0.999781 69.7693 1.09254)" fill="#187CFF"/>
<rect width="5.85441" height="40.1222" transform="matrix(0.999999 0.00130705 0.020927 0.999781 84 1)" fill="#187CFF"/>
<rect width="5.85441" height="40.1222" transform="matrix(0.998835 -0.0482655 0.0704614 0.997515 97.0098 1.19058)" fill="#187CFF"/>
<rect width="5.85441" height="40.1222" transform="matrix(0.998835 -0.0482655 0.0704614 0.997515 110 1.28256)" fill="#187CFF"/>
<path d="M106.192 2.53809C115.593 2.02071 123.5 9.50387 123.5 18.9189C123.5 27.5138 116.867 34.652 108.295 35.2812L93.6914 36.3535L62.5 37.498L31.3076 36.3535L16.7051 35.2812C8.13334 34.652 1.5 27.5138 1.5 18.9189C1.50008 9.50387 9.40679 2.0207 18.8076 2.53809L31.168 3.21875L31.2227 3.2207L62.4727 3.79395H62.5273L93.7773 3.2207L93.832 3.21875L106.192 2.53809Z" stroke="#B1B1B1" stroke-width="3"/>
</g>
</svg>
