<svg width="125" height="39" viewBox="0 0 125 39" fill="none" xmlns="http://www.w3.org/2000/svg">
<mask id="mask0_259_597" style="mask-type:alpha" maskUnits="userSpaceOnUse" x="0" y="1" width="125" height="38">
<path d="M106.192 2.53809C115.593 2.02071 123.5 9.50387 123.5 18.9189C123.5 27.5138 116.867 34.652 108.295 35.2812L93.6914 36.3535L62.5 37.498L31.3076 36.3535L16.7051 35.2812C8.13334 34.652 1.5 27.5138 1.5 18.9189C1.50008 9.50387 9.40679 2.0207 18.8076 2.53809L31.168 3.21875L31.2227 3.2207L62.4727 3.79395H62.5273L93.7773 3.2207L93.832 3.21875L106.192 2.53809Z" fill="white" stroke="#B1B1B1" stroke-width="3"/>
</mask>
<g mask="url(#mask0_259_597)">
<path d="M0 18.9191C0 8.64297 8.62991 0.475153 18.8905 1.04009L31.25 1.72059L62.5 2.29412L93.75 1.72059L106.11 1.04009C116.37 0.475153 125 8.64297 125 18.9191C125 28.2997 117.76 36.0903 108.405 36.7771L93.75 37.8529L62.5 39L31.25 37.8529L16.5951 36.7771C7.23963 36.0903 0 28.2997 0 18.9191Z" fill="white"/>
<rect width="15.5173" height="40.1222" transform="matrix(0.996972 0.0777582 -0.0555726 0.998455 17.6045 0.587189)" fill="#FF1818"/>
<rect x="49.4187" y="1.14706" width="15.5039" height="40.1471" fill="#FF1818"/>
<rect width="15.5089" height="40.1378" transform="matrix(0.998876 -0.0474018 0.0338457 0.999427 79.7534 0.383698)" fill="#FF1818"/>
<rect width="15.5143" height="40.1278" transform="matrix(0.997656 -0.0684225 0.0488841 0.998805 108.528 -0.582703)" fill="#FF1818"/>
<path d="M106.192 2.53809C115.593 2.02071 123.5 9.50387 123.5 18.9189C123.5 27.5138 116.867 34.652 108.295 35.2812L93.6914 36.3535L62.5 37.498L31.3076 36.3535L16.7051 35.2812C8.13334 34.652 1.5 27.5138 1.5 18.9189C1.50008 9.50387 9.40679 2.0207 18.8076 2.53809L31.168 3.21875L31.2227 3.2207L62.4727 3.79395H62.5273L93.7773 3.2207L93.832 3.21875L106.192 2.53809Z" stroke="#B1B1B1" stroke-width="3"/>
</g>
</svg>
