<svg width="101" height="56" viewBox="0 0 101 56" fill="none" xmlns="http://www.w3.org/2000/svg">
<mask id="path-1-inside-1_252_55" fill="white">
<path d="M81.2917 6.49722C89.5343 4.18686 97.9079 8.34927 99.9949 15.7941C102.082 23.2391 92.6096 33.5031 84.3669 35.8136C76.1242 38.1241 72.2321 31.6063 70.1453 24.1613C68.0584 16.7163 73.0491 8.80769 81.2917 6.49722ZM93.3005 17.9445C92.2807 14.307 87.2215 12.5444 81.9998 14.008C76.7778 15.4717 73.3708 19.6075 74.3904 23.2453C75.4101 26.883 77.5893 29.9903 82.8113 28.5265C88.0333 27.0627 94.3202 21.5822 93.3005 17.9445Z"/>
</mask>
<path d="M81.2917 6.49722C89.5343 4.18686 97.9079 8.34927 99.9949 15.7941C102.082 23.2391 92.6096 33.5031 84.3669 35.8136C76.1242 38.1241 72.2321 31.6063 70.1453 24.1613C68.0584 16.7163 73.0491 8.80769 81.2917 6.49722ZM93.3005 17.9445C92.2807 14.307 87.2215 12.5444 81.9998 14.008C76.7778 15.4717 73.3708 19.6075 74.3904 23.2453C75.4101 26.883 77.5893 29.9903 82.8113 28.5265C88.0333 27.0627 94.3202 21.5822 93.3005 17.9445Z" fill="#8BBDFF"/>
<path d="M81.2917 6.49722L80.752 4.57144L80.7519 4.57145L81.2917 6.49722ZM99.9949 15.7941L101.921 15.2543L101.921 15.2543L99.9949 15.7941ZM84.3669 35.8136L84.9067 37.7394L84.9068 37.7394L84.3669 35.8136ZM70.1453 24.1613L68.2195 24.7011L68.2195 24.7011L70.1453 24.1613ZM93.3005 17.9445L95.2263 17.4047L95.2263 17.4046L93.3005 17.9445ZM81.9998 14.008L81.46 12.0822L81.46 12.0822L81.9998 14.008ZM74.3904 23.2453L72.4646 23.785L72.4646 23.7851L74.3904 23.2453ZM82.8113 28.5265L83.3511 30.4523L83.3511 30.4523L82.8113 28.5265ZM81.2917 6.49722L81.8315 8.423C89.1996 6.35776 96.3306 10.1323 98.0691 16.3339L99.9949 15.7941L101.921 15.2543C99.4851 6.56621 89.8691 2.01596 80.752 4.57144L81.2917 6.49722ZM99.9949 15.7941L98.0691 16.3339C98.8428 19.0941 97.5146 22.8336 94.5146 26.453C91.5758 29.9988 87.474 32.8656 83.8271 33.8879L84.3669 35.8136L84.9068 37.7394C89.5026 36.4511 94.2582 33.0306 97.5943 29.0056C100.869 25.0541 103.234 19.9391 101.921 15.2543L99.9949 15.7941ZM84.3669 35.8136L83.8271 33.8879C82.0472 34.3868 80.6216 34.3782 79.4615 34.0783C78.3032 33.7788 77.2839 33.1564 76.3641 32.2338C74.4687 30.3325 73.0875 27.2478 72.071 23.6215L70.1453 24.1613L68.2195 24.7011C69.2899 28.5198 70.8982 32.4165 73.5313 35.0578C74.8757 36.4064 76.5053 37.4455 78.4602 37.951C80.4134 38.456 82.5654 38.3957 84.9067 37.7394L84.3669 35.8136ZM70.1453 24.1613L72.071 23.6215C70.3327 17.4198 74.4633 10.4884 81.8316 8.423L81.2917 6.49722L80.7519 4.57145C71.6348 7.12702 65.7842 16.0127 68.2195 24.7011L70.1453 24.1613ZM93.3005 17.9445L95.2263 17.4046C94.4907 14.7809 92.3522 13.0345 89.8838 12.1747C87.4074 11.312 84.4156 11.2538 81.46 12.0822L81.9998 14.008L82.5395 15.9338C84.8057 15.2986 86.9544 15.3899 88.5679 15.952C90.1895 16.5169 91.0906 17.4706 91.3748 18.4844L93.3005 17.9445ZM81.9998 14.008L81.46 12.0822C78.5043 12.9107 75.9783 14.5155 74.3108 16.5397C72.6487 18.5574 71.7291 21.161 72.4646 23.785L74.3904 23.2453L76.3162 22.7055C76.032 21.6918 76.3061 20.4086 77.3982 19.083C78.4848 17.7639 80.2733 16.569 82.5396 15.9337L81.9998 14.008ZM74.3904 23.2453L72.4646 23.7851C73.0165 25.754 73.9669 27.9294 75.7838 29.3673C77.7228 30.9017 80.2749 31.3146 83.3511 30.4523L82.8113 28.5265L82.2715 26.6007C80.1257 27.2022 78.9772 26.7934 78.2661 26.2306C77.433 25.5714 76.7839 24.3743 76.3162 22.7055L74.3904 23.2453ZM82.8113 28.5265L83.3511 30.4523C86.3227 29.6193 89.4809 27.6963 91.7797 25.4953C92.9353 24.3889 93.9521 23.1382 94.6126 21.8259C95.2653 20.529 95.6654 18.9711 95.2263 17.4047L93.3005 17.9445L91.3748 18.4843C91.4455 18.7368 91.4421 19.228 91.0396 20.0276C90.6449 20.8117 89.9548 21.7047 89.0134 22.6061C87.1181 24.4207 84.5219 25.9699 82.2715 26.6007L82.8113 28.5265Z" fill="#4251A8" mask="url(#path-1-inside-1_252_55)"/>
<mask id="path-3-outside-2_252_55" maskUnits="userSpaceOnUse" x="5.41602" y="5.31375" width="79" height="50" fill="black">
<rect fill="white" x="5.41602" y="5.31375" width="79" height="50"/>
<path d="M74.4131 8.31375C75.3947 8.31375 76.2314 9.02632 76.3877 9.99539L81.873 44.0413C82.6566 48.9046 78.9006 53.3138 73.9746 53.3138H34.7588C29.8329 53.3136 26.0778 48.9045 26.8613 44.0413L27.9717 37.1429L8.41602 13.1165L12.1836 8.69266L31.0098 18.2825L32.3457 9.99539C32.502 9.02634 33.3387 8.31385 34.3203 8.31375H74.4131Z"/>
</mask>
<path d="M74.4131 8.31375C75.3947 8.31375 76.2314 9.02632 76.3877 9.99539L81.873 44.0413C82.6566 48.9046 78.9006 53.3138 73.9746 53.3138H34.7588C29.8329 53.3136 26.0778 48.9045 26.8613 44.0413L27.9717 37.1429L8.41602 13.1165L12.1836 8.69266L31.0098 18.2825L32.3457 9.99539C32.502 9.02634 33.3387 8.31385 34.3203 8.31375H74.4131Z" fill="#8BBDFF"/>
<path d="M76.3877 9.99539L78.3622 9.67726L78.3622 9.67689L76.3877 9.99539ZM81.873 44.0413L83.8476 43.7232L83.8476 43.7232L81.873 44.0413ZM34.7588 53.3138L34.7587 55.3138H34.7588V53.3138ZM26.8613 44.0413L28.8359 44.3594L28.8359 44.3591L26.8613 44.0413ZM27.9717 37.1429L29.9463 37.4607L30.0887 36.5756L29.5228 35.8803L27.9717 37.1429ZM8.41602 13.1165L6.89338 11.8197L5.81368 13.0875L6.86487 14.379L8.41602 13.1165ZM12.1836 8.69266L13.0914 6.91055L11.6846 6.19395L10.661 7.3959L12.1836 8.69266ZM31.0098 18.2825L30.102 20.0646L32.5475 21.3103L32.9843 18.6008L31.0098 18.2825ZM32.3457 9.99539L30.3712 9.67697L30.3712 9.67709L32.3457 9.99539ZM34.3203 8.31375V6.31375H34.3201L34.3203 8.31375ZM74.4131 8.31375V10.3138L74.4132 10.3139L76.3877 9.99539L78.3622 9.67689C78.0495 7.73878 76.3764 6.31375 74.4131 6.31375V8.31375ZM76.3877 9.99539L74.4132 10.3135L79.8985 44.3594L81.873 44.0413L83.8476 43.7232L78.3622 9.67726L76.3877 9.99539ZM81.873 44.0413L79.8985 44.3594C80.4861 48.0068 77.6692 51.3138 73.9746 51.3138V53.3138V55.3138C80.132 55.3138 84.827 49.8024 83.8476 43.7232L81.873 44.0413ZM73.9746 53.3138V51.3138H34.7588V53.3138V55.3138H73.9746V53.3138ZM34.7588 53.3138L34.7588 51.3138C31.0646 51.3137 28.2482 48.007 28.8359 44.3594L26.8613 44.0413L24.8868 43.7232C23.9074 49.802 28.6012 55.3136 34.7587 55.3138L34.7588 53.3138ZM26.8613 44.0413L28.8359 44.3591L29.9463 37.4607L27.9717 37.1429L25.9971 36.825L24.8867 43.7235L26.8613 44.0413ZM27.9717 37.1429L29.5228 35.8803L9.96716 11.854L8.41602 13.1165L6.86487 14.379L26.4205 38.4054L27.9717 37.1429ZM8.41602 13.1165L9.93865 14.4132L13.7062 9.98942L12.1836 8.69266L10.661 7.3959L6.89338 11.8197L8.41602 13.1165ZM12.1836 8.69266L11.2758 10.4748L30.102 20.0646L31.0098 18.2825L31.9176 16.5004L13.0914 6.91055L12.1836 8.69266ZM31.0098 18.2825L32.9843 18.6008L34.3202 10.3137L32.3457 9.99539L30.3712 9.67709L29.0353 17.9642L31.0098 18.2825ZM32.3457 9.99539L34.3202 10.3138L34.3205 10.3138L34.3203 8.31375L34.3201 6.31375C32.3572 6.31394 30.6838 7.73857 30.3712 9.67697L32.3457 9.99539ZM34.3203 8.31375V10.3138H74.4131V8.31375V6.31375H34.3203V8.31375Z" fill="#4251A8" mask="url(#path-3-outside-2_252_55)"/>
<path d="M58.079 29.1008C59.8981 33.4427 61.761 38.9816 58.7298 42.5834C57.6216 43.9002 55.9754 44.3139 53.8669 44.3139C53.1318 44.3139 52.4528 44.2636 51.8332 44.1423C45.1047 42.8246 48.8873 32.6146 51.2898 26.1929C51.8889 24.5915 52.6822 22.46 53.8669 19.3139C56.0683 24.6285 57.2008 27.0046 58.079 29.1008Z" fill="white"/>
<path d="M11.9316 1.73796C12.7832 0.691354 14.4058 0.770915 15.1507 1.89596L19.9523 9.14684L20.3575 9.75982L11.0172 21.2387L10.3353 20.9659L2.25904 17.7395C1.00605 17.2389 0.598253 15.6663 1.44986 14.6197L11.9316 1.73796Z" fill="white" stroke="#D2D2D2" stroke-width="2"/>
</svg>
