<svg width="89" height="56" viewBox="0 0 89 56" fill="none" xmlns="http://www.w3.org/2000/svg">
<mask id="path-1-inside-1_273_1609" fill="white">
<path d="M69.9247 10.1838C78.1673 7.87347 86.5409 12.0359 88.6279 19.4807C90.7147 26.9257 81.2426 37.1897 72.9999 39.5002C64.7572 41.8107 60.8651 35.2929 58.7782 27.8479C56.6914 20.4029 61.682 12.4943 69.9247 10.1838ZM81.9335 21.6311C80.9137 17.9936 75.8545 16.2311 70.6327 17.6946C65.4108 19.1583 62.0038 23.2941 63.0234 26.9319C64.043 30.5697 66.2222 33.6769 71.4443 32.2131C76.6663 30.7493 82.9532 25.2688 81.9335 21.6311Z"/>
</mask>
<path d="M69.9247 10.1838C78.1673 7.87347 86.5409 12.0359 88.6279 19.4807C90.7147 26.9257 81.2426 37.1897 72.9999 39.5002C64.7572 41.8107 60.8651 35.2929 58.7782 27.8479C56.6914 20.4029 61.682 12.4943 69.9247 10.1838ZM81.9335 21.6311C80.9137 17.9936 75.8545 16.2311 70.6327 17.6946C65.4108 19.1583 62.0038 23.2941 63.0234 26.9319C64.043 30.5697 66.2222 33.6769 71.4443 32.2131C76.6663 30.7493 82.9532 25.2688 81.9335 21.6311Z" fill="#8BBDFF"/>
<path d="M69.9247 10.1838L69.3849 8.25806L69.3849 8.25806L69.9247 10.1838ZM88.6279 19.4807L90.5536 18.9409L90.5536 18.9409L88.6279 19.4807ZM72.9999 39.5002L73.5397 41.426L73.5397 41.426L72.9999 39.5002ZM58.7782 27.8479L56.8525 28.3877L56.8525 28.3877L58.7782 27.8479ZM81.9335 21.6311L83.8593 21.0913L83.8593 21.0912L81.9335 21.6311ZM70.6327 17.6946L70.093 15.7688L70.0929 15.7688L70.6327 17.6946ZM63.0234 26.9319L61.0976 27.4716L61.0976 27.4717L63.0234 26.9319ZM71.4443 32.2131L71.9841 34.1389L71.9841 34.1389L71.4443 32.2131ZM69.9247 10.1838L70.4645 12.1096C77.8326 10.0444 84.9636 13.8189 86.7021 20.0206L88.6279 19.4807L90.5536 18.9409C88.1181 10.2528 78.502 5.70257 69.3849 8.25806L69.9247 10.1838ZM88.6279 19.4807L86.7021 20.0205C87.4758 22.7807 86.1475 26.5202 83.1476 30.1396C80.2087 33.6854 76.107 36.5522 72.4601 37.5745L72.9999 39.5002L73.5397 41.426C78.1356 40.1377 82.8912 36.7173 86.2273 32.6922C89.5024 28.7407 91.8668 23.6257 90.5536 18.9409L88.6279 19.4807ZM72.9999 39.5002L72.4601 37.5745C70.6801 38.0734 69.2546 38.0649 68.0945 37.7649C66.9362 37.4655 65.9169 36.8431 64.9971 35.9204C63.1017 34.0191 61.7205 30.9344 60.704 27.3081L58.7782 27.8479L56.8525 28.3877C57.9229 32.2064 59.5312 36.1032 62.1642 38.7444C63.5086 40.093 65.1383 41.1321 67.0932 41.6376C69.0464 42.1426 71.1983 42.0823 73.5397 41.426L72.9999 39.5002ZM58.7782 27.8479L60.704 27.3081C58.9657 21.1064 63.0963 14.175 70.4645 12.1096L69.9247 10.1838L69.3849 8.25806C60.2678 10.8136 54.4171 19.6994 56.8525 28.3877L58.7782 27.8479ZM81.9335 21.6311L83.8593 21.0912C83.1237 18.4675 80.9852 16.7212 78.5168 15.8613C76.0404 14.9986 73.0486 14.9404 70.093 15.7688L70.6327 17.6946L71.1725 19.6204C73.4387 18.9852 75.5873 19.0765 77.2009 19.6386C78.8225 20.2035 79.7235 21.1572 80.0078 22.171L81.9335 21.6311ZM70.6327 17.6946L70.0929 15.7688C67.1373 16.5973 64.6113 18.2021 62.9438 20.2263C61.2817 22.244 60.3621 24.8476 61.0976 27.4716L63.0234 26.9319L64.9492 26.3921C64.665 25.3784 64.9391 24.0953 66.0311 22.7696C67.1177 21.4506 68.9063 20.2556 71.1725 19.6204L70.6327 17.6946ZM63.0234 26.9319L61.0976 27.4717C61.6495 29.4406 62.5999 31.616 64.4168 33.0539C66.3558 34.5883 68.9078 35.0012 71.9841 34.1389L71.4443 32.2131L70.9045 30.2874C68.7587 30.8888 67.6101 30.48 66.899 29.9173C66.066 29.258 65.4169 28.0609 64.9491 26.3921L63.0234 26.9319ZM71.4443 32.2131L71.9841 34.1389C74.9557 33.3059 78.1139 31.3829 80.4127 29.1819C81.5683 28.0755 82.5851 26.8248 83.2456 25.5125C83.8983 24.2156 84.2984 22.6577 83.8593 21.0913L81.9335 21.6311L80.0077 22.1709C80.0785 22.4234 80.0751 22.9146 79.6726 23.7142C79.2779 24.4984 78.5878 25.3914 77.6464 26.2927C75.7511 28.1074 73.1548 29.6565 70.9044 30.2874L71.4443 32.2131Z" fill="#4251A8" mask="url(#path-1-inside-1_273_1609)"/>
<mask id="path-3-outside-2_273_1609" maskUnits="userSpaceOnUse" x="6.04907" y="6" width="66" height="50" fill="black">
<rect fill="white" x="6.04907" y="6" width="66" height="50"/>
<path d="M63.6096 9C64.6182 9.00009 65.4689 9.75121 65.594 10.752L69.8762 45.0078C70.4731 49.7826 66.7497 54 61.9377 54H35.0627C30.2508 54 26.5274 49.7826 27.1243 45.0078L28.0989 37.207L9.04907 13.8027L12.8167 9.37891L30.4543 18.3633L31.4065 10.752C31.5317 9.75117 32.3823 9 33.3909 9H63.6096Z"/>
</mask>
<path d="M63.6096 9C64.6182 9.00009 65.4689 9.75121 65.594 10.752L69.8762 45.0078C70.4731 49.7826 66.7497 54 61.9377 54H35.0627C30.2508 54 26.5274 49.7826 27.1243 45.0078L28.0989 37.207L9.04907 13.8027L12.8167 9.37891L30.4543 18.3633L31.4065 10.752C31.5317 9.75117 32.3823 9 33.3909 9H63.6096Z" fill="#8BBDFF"/>
<path d="M63.6096 9L63.6098 7H63.6096V9ZM65.594 10.752L67.5785 10.5039L67.5785 10.5038L65.594 10.752ZM69.8762 45.0078L71.8608 44.7597L71.8608 44.7597L69.8762 45.0078ZM61.9377 54L61.9377 56L61.9377 56L61.9377 54ZM27.1243 45.0078L29.1088 45.2559L29.1088 45.2558L27.1243 45.0078ZM28.0989 37.207L30.0834 37.455L30.1894 36.6072L29.65 35.9445L28.0989 37.207ZM9.04907 13.8027L7.52644 12.506L6.44672 13.7738L7.49794 15.0653L9.04907 13.8027ZM12.8167 9.37891L13.7244 7.59679L12.3177 6.8802L11.294 8.08215L12.8167 9.37891ZM30.4543 18.3633L29.5466 20.1454L32.0852 21.4386L32.4389 18.6115L30.4543 18.3633ZM31.4065 10.752L33.391 11.0002L33.391 11.0002L31.4065 10.752ZM63.6096 9L63.6094 11L63.6095 11.0001L65.594 10.752L67.5785 10.5038C67.3283 8.50244 65.627 7.00018 63.6098 7L63.6096 9ZM65.594 10.752L63.6094 11L67.8917 45.2559L69.8762 45.0078L71.8608 44.7597L67.5785 10.5039L65.594 10.752ZM69.8762 45.0078L67.8917 45.2559C68.3393 48.8369 65.5468 52 61.9377 52L61.9377 54L61.9377 56C67.9526 56 72.6069 50.7284 71.8608 44.7597L69.8762 45.0078ZM61.9377 54V52H35.0627V54V56H61.9377V54ZM35.0627 54V52C31.4536 52 28.6612 48.8369 29.1088 45.2559L27.1243 45.0078L25.1397 44.7597C24.3936 50.7284 29.0479 56 35.0627 56V54ZM27.1243 45.0078L29.1088 45.2558L30.0834 37.455L28.0989 37.207L26.1143 36.9591L25.1397 44.7599L27.1243 45.0078ZM28.0989 37.207L29.65 35.9445L10.6002 12.5402L9.04907 13.8027L7.49794 15.0653L26.5477 38.4696L28.0989 37.207ZM9.04907 13.8027L10.5717 15.0995L14.3393 10.6757L12.8167 9.37891L11.294 8.08215L7.52644 12.506L9.04907 13.8027ZM12.8167 9.37891L11.9089 11.161L29.5466 20.1454L30.4543 18.3633L31.3621 16.5812L13.7244 7.59679L12.8167 9.37891ZM30.4543 18.3633L32.4389 18.6115L33.391 11.0002L31.4065 10.752L29.422 10.5037L28.4698 18.115L30.4543 18.3633ZM31.4065 10.752L33.391 11.0002L33.3909 11V9V7C31.3732 7 29.6723 8.50262 29.422 10.5037L31.4065 10.752ZM33.3909 9V11H63.6096V9V7H33.3909V9Z" fill="#4251A8" mask="url(#path-3-outside-2_273_1609)"/>
<path d="M52.7121 29.7869C54.5312 34.1288 56.394 39.6678 53.3628 43.2696C52.2547 44.5863 50.6085 45 48.5 45C47.7648 45 47.0858 44.9497 46.4663 44.8284C39.7378 43.5107 43.5204 33.3007 45.9228 26.8791C46.5219 25.2777 47.3153 23.1462 48.5 20C50.7014 25.3146 51.8339 27.6907 52.7121 29.7869Z" fill="white"/>
<path d="M12.5646 2.42408C13.4162 1.37748 15.0388 1.45704 15.7837 2.58209L20.5853 9.83297L20.9905 10.4459L11.6503 21.9249L10.9684 21.652L2.8921 18.4256C1.6391 17.925 1.23131 16.3525 2.08292 15.3059L12.5646 2.42408Z" fill="white" stroke="#D2D2D2" stroke-width="2"/>
</svg>
