<svg width="83" height="62" viewBox="0 0 83 62" fill="none" xmlns="http://www.w3.org/2000/svg">
<path d="M40 23C41.2961 23 43.1665 23.2265 44.6943 24.3467C46.0802 25.3628 47.3465 27.2367 47.4863 30.8301C42.8524 32.7602 40.2058 35.4149 38.9229 38.4414C37.5946 41.5748 37.8021 44.9355 38.4873 47.9561C38.6106 48.4997 38.3739 48.9857 38.0186 49.2412C37.6923 49.4757 37.3379 49.4865 37.0127 49.1826C34.9985 47.2999 33.7705 45.559 33.0293 43.5576C32.2812 41.5376 32 39.1762 32 36C32 31.9694 33.4683 28.6826 35.252 26.4072C36.145 25.268 37.1057 24.396 37.9805 23.8174C38.8825 23.2207 39.5933 23 40 23Z" fill="#ECE938" stroke="#6F6700" stroke-width="2"/>
<mask id="path-2-outside-1_259_648" maskUnits="userSpaceOnUse" x="5" y="15" width="72" height="47" fill="black">
<rect fill="white" x="5" y="15" width="72" height="47"/>
<path d="M68 17C71.866 17 75 20.134 75 24V30C75 33.1929 72.8617 35.8844 69.9395 36.7256L69 48V56C69 58.2091 67.2091 60 65 60H56.0146C54.8759 59.9999 53.9276 59.127 53.833 57.9922C53.6115 55.3344 53.1959 52.6959 52.5898 50.0986L50.8193 42.5117C50.3669 40.5728 49.6251 38.7153 48.623 37H14C10.134 37 7 33.866 7 30V24C7 20.134 10.134 17 14 17H68Z"/>
</mask>
<path d="M68 17C71.866 17 75 20.134 75 24V30C75 33.1929 72.8617 35.8844 69.9395 36.7256L69 48V56C69 58.2091 67.2091 60 65 60H56.0146C54.8759 59.9999 53.9276 59.127 53.833 57.9922C53.6115 55.3344 53.1959 52.6959 52.5898 50.0986L50.8193 42.5117C50.3669 40.5728 49.6251 38.7153 48.623 37H14C10.134 37 7 33.866 7 30V24C7 20.134 10.134 17 14 17H68Z" fill="#ECE938"/>
<path d="M75 30H77H75ZM69.9395 36.7256L69.3862 34.8036L68.0609 35.1851L67.9464 36.5595L69.9395 36.7256ZM69 48L67.0069 47.8339L67 47.9168V48H69ZM65 60V62V60ZM56.0146 60L56.0144 62H56.0146V60ZM53.833 57.9922L51.8399 58.1583L51.8399 58.1584L53.833 57.9922ZM52.5898 50.0986L54.5375 49.6442L54.5375 49.6441L52.5898 50.0986ZM50.8193 42.5117L48.8717 42.9662L48.8717 42.9662L50.8193 42.5117ZM48.623 37L50.3499 35.9911L49.7709 35H48.623V37ZM7 24H5H7ZM14 17V15V17ZM68 17V19C70.7614 19 73 21.2386 73 24H75H77C77 19.0294 72.9706 15 68 15V17ZM75 24H73V30H75H77V24H75ZM75 30H73C73 32.2768 71.4757 34.2022 69.3862 34.8036L69.9395 36.7256L70.4927 38.6475C74.2477 37.5667 77 34.109 77 30H75ZM69.9395 36.7256L67.9464 36.5595L67.0069 47.8339L69 48L70.9931 48.1661L71.9325 36.8917L69.9395 36.7256ZM69 48H67V56H69H71V48H69ZM69 56H67C67 57.1046 66.1046 58 65 58V60V62C68.3137 62 71 59.3137 71 56H69ZM65 60V58H56.0146V60V62H65V60ZM56.0146 60L56.0149 58C55.9166 58 55.8343 57.9247 55.8261 57.826L53.833 57.9922L51.8399 58.1584C52.021 60.3293 53.8353 61.9998 56.0144 62L56.0146 60ZM53.833 57.9922L55.8261 57.8261C55.5965 55.0711 55.1657 52.3363 54.5375 49.6442L52.5898 50.0986L50.6422 50.5531C51.2261 53.0556 51.6265 55.5976 51.8399 58.1583L53.833 57.9922ZM52.5898 50.0986L54.5375 49.6441L52.767 42.0572L50.8193 42.5117L48.8717 42.9662L50.6422 50.5531L52.5898 50.0986ZM50.8193 42.5117L52.767 42.0573C52.2689 39.9225 51.4524 37.8782 50.3499 35.9911L48.623 37L46.8962 38.0089C47.7979 39.5524 48.4649 41.2231 48.8717 42.9662L50.8193 42.5117ZM48.623 37V35H14V37V39H48.623V37ZM14 37V35C11.2386 35 9 32.7614 9 30H7H5C5 34.9706 9.02944 39 14 39V37ZM7 30H9V24H7H5V30H7ZM7 24H9C9 21.2386 11.2386 19 14 19V17V15C9.02944 15 5 19.0294 5 24H7ZM14 17V19H68V17V15H14V17Z" fill="#6F6700" mask="url(#path-2-outside-1_259_648)"/>
<rect x="1" y="22" width="5" height="11" fill="#ECE938" stroke="#6F6700" stroke-width="2"/>
<path d="M23 31H66.5C67.6046 31 68.5 30.1046 68.5 29V22.5" stroke="#E0DD33" stroke-width="5" stroke-linecap="round"/>
<rect x="17" y="1" width="65" height="13" rx="6.5" fill="#ABECF0" stroke="#7093B4" stroke-width="2"/>
<mask id="mask0_259_648" style="mask-type:alpha" maskUnits="userSpaceOnUse" x="16" y="0" width="67" height="15">
<rect x="17" y="1" width="65" height="13" rx="6.5" fill="#ABECF0" stroke="#7093B4" stroke-width="2"/>
</mask>
<g mask="url(#mask0_259_648)">
<rect x="18" y="2" width="63" height="11" rx="5.5" fill="#ABECF0"/>
<path d="M58 0C60.5 4.6875 60.5 10.3125 58 15" stroke="#6BE0E7" stroke-width="5"/>
<path d="M67 0C69.5 4.6875 69.5 10.3125 67 15" stroke="#6BE0E7" stroke-width="5"/>
<rect x="17" y="1" width="65" height="13" rx="6.5" stroke="#7093B4" stroke-width="2"/>
</g>
</svg>
