<svg width="75" height="56" viewBox="0 0 75 56" fill="none" xmlns="http://www.w3.org/2000/svg">
<path d="M36 20.7004C37.1665 20.7004 38.8497 20.9033 40.2246 21.9113C41.472 22.8259 42.6105 24.513 42.7363 27.7473C38.5663 29.4843 36.1839 31.8732 35.0293 34.5969C33.8339 37.4169 34.021 40.4419 34.6377 43.1604C34.7487 43.6498 34.5358 44.0877 34.2158 44.3176C33.9221 44.5285 33.6032 44.5374 33.3105 44.2639C31.4978 42.5694 30.3937 41.0026 29.7266 39.2014C29.0533 37.3834 28.7998 35.2581 28.7998 32.3996C28.7999 28.7722 30.1203 25.8136 31.7256 23.7658C32.5293 22.7406 33.3944 21.9565 34.1816 21.4357C34.9936 20.8987 35.634 20.7004 36 20.7004Z" fill="#ECE938" stroke="#6F6700" stroke-width="1.8"/>
<mask id="path-2-outside-1_350_237" maskUnits="userSpaceOnUse" x="4.2998" y="13.3" width="66" height="43" fill="black">
<rect fill="white" x="4.2998" y="13.3" width="66" height="43"/>
<path d="M61.2002 15.3C64.6793 15.3002 67.4999 18.1206 67.5 21.5998V27.0002C67.4999 29.8737 65.5753 32.2959 62.9453 33.0529L62.0996 43.2004V50.3996C62.0996 52.3877 60.488 54 58.5 54.0002H50.4131C49.3881 54.0002 48.5343 53.214 48.4492 52.1926C48.2499 49.8006 47.8755 47.4265 47.3301 45.0891L45.7373 38.26C45.3301 36.515 44.6626 34.8437 43.7607 33.3H12.5996C9.12037 33.2999 6.29991 30.4794 6.2998 27.0002V21.5998C6.29991 18.1206 9.12037 15.3001 12.5996 15.3H61.2002Z"/>
</mask>
<path d="M61.2002 15.3C64.6793 15.3002 67.4999 18.1206 67.5 21.5998V27.0002C67.4999 29.8737 65.5753 32.2959 62.9453 33.0529L62.0996 43.2004V50.3996C62.0996 52.3877 60.488 54 58.5 54.0002H50.4131C49.3881 54.0002 48.5343 53.214 48.4492 52.1926C48.2499 49.8006 47.8755 47.4265 47.3301 45.0891L45.7373 38.26C45.3301 36.515 44.6626 34.8437 43.7607 33.3H12.5996C9.12037 33.2999 6.29991 30.4794 6.2998 27.0002V21.5998C6.29991 18.1206 9.12037 15.3001 12.5996 15.3H61.2002Z" fill="#ECE938"/>
<path d="M61.2002 15.3L61.2003 13.5H61.2002V15.3ZM67.5 21.5998L69.3 21.5998L69.3 21.5998L67.5 21.5998ZM67.5 27.0002L69.3 27.0003V27.0002H67.5ZM62.9453 33.0529L62.4474 31.3232L61.2546 31.6665L61.1515 32.9034L62.9453 33.0529ZM62.0996 43.2004L60.3058 43.0509L60.2996 43.1255V43.2004H62.0996ZM58.5 54.0002L58.5 55.8002L58.5002 55.8002L58.5 54.0002ZM48.4492 52.1926L50.243 52.0431L50.243 52.0431L48.4492 52.1926ZM47.3301 45.0891L45.5771 45.4979L45.5772 45.4981L47.3301 45.0891ZM45.7373 38.26L47.4903 37.8511L47.4902 37.8509L45.7373 38.26ZM43.7607 33.3L45.315 32.392L44.7938 31.5H43.7607V33.3ZM12.5996 33.3L12.5996 35.1H12.5996V33.3ZM6.2998 27.0002L4.4998 27.0002L4.4998 27.0003L6.2998 27.0002ZM6.2998 21.5998L4.4998 21.5998V21.5998H6.2998ZM12.5996 15.3L12.5996 13.5L12.5996 13.5L12.5996 15.3ZM61.2002 15.3L61.2001 17.1C63.6853 17.1002 65.6999 19.1148 65.7 21.5999L67.5 21.5998L69.3 21.5998C69.2999 17.1265 65.6734 13.5003 61.2003 13.5L61.2002 15.3ZM67.5 21.5998H65.7V27.0002H67.5H69.3V21.5998H67.5ZM67.5 27.0002L65.7 27.0001C65.6999 29.049 64.328 30.7818 62.4474 31.3232L62.9453 33.0529L63.4432 34.7827C66.8226 33.8099 69.2999 30.6984 69.3 27.0003L67.5 27.0002ZM62.9453 33.0529L61.1515 32.9034L60.3058 43.0509L62.0996 43.2004L63.8934 43.3499L64.7391 33.2024L62.9453 33.0529ZM62.0996 43.2004H60.2996V50.3996H62.0996H63.8996V43.2004H62.0996ZM62.0996 50.3996H60.2996C60.2996 51.394 59.4934 52.2001 58.4998 52.2002L58.5 54.0002L58.5002 55.8002C61.4826 55.7999 63.8996 53.3814 63.8996 50.3996H62.0996ZM58.5 54.0002V52.2002H50.4131V54.0002V55.8002H58.5V54.0002ZM50.4131 54.0002V52.2002C50.325 52.2002 50.2504 52.1324 50.243 52.0431L48.4492 52.1926L46.6554 52.3421C46.8182 54.2957 48.4512 55.8002 50.4131 55.8002V54.0002ZM48.4492 52.1926L50.243 52.0431C50.0364 49.5635 49.6483 47.1026 49.083 44.6801L47.3301 45.0891L45.5772 45.4981C46.1027 47.7504 46.4634 50.0378 46.6554 52.3421L48.4492 52.1926ZM47.3301 45.0891L49.083 44.6802L47.4903 37.8511L45.7373 38.26L43.9844 38.6688L45.5771 45.4979L47.3301 45.0891ZM45.7373 38.26L47.4902 37.8509C47.0419 35.9297 46.3071 34.0902 45.315 32.392L43.7607 33.3L42.2065 34.208C43.0181 35.5971 43.6184 37.1004 43.9844 38.669L45.7373 38.26ZM43.7607 33.3V31.5H12.5996V33.3V35.1H43.7607V33.3ZM12.5996 33.3L12.5997 31.5C10.1145 31.4999 8.09988 29.4853 8.0998 27.0001L6.2998 27.0002L4.4998 27.0003C4.49994 31.4736 8.12625 35.0999 12.5996 35.1L12.5996 33.3ZM6.2998 27.0002H8.0998V21.5998H6.2998H4.4998V27.0002H6.2998ZM6.2998 21.5998L8.0998 21.5999C8.09988 19.1147 10.1145 17.1001 12.5997 17.1L12.5996 15.3L12.5996 13.5C8.12625 13.5001 4.49994 17.1264 4.4998 21.5998L6.2998 21.5998ZM12.5996 15.3V17.1H61.2002V15.3V13.5H12.5996V15.3Z" fill="#6F6700" mask="url(#path-2-outside-1_350_237)"/>
<rect x="0.899805" y="19.8" width="4.5" height="9.9" fill="#ECE938" stroke="#6F6700" stroke-width="1.8"/>
<path d="M20.6997 27.9H59.8497C60.8438 27.9 61.6497 27.0941 61.6497 26.1V20.25" stroke="#E0DD33" stroke-width="4.5" stroke-linecap="round"/>
<rect x="15.2997" y="0.900003" width="58.5" height="11.7" rx="5.85" fill="#ABECF0" stroke="#7093B4" stroke-width="1.8"/>
<mask id="mask0_350_237" style="mask-type:alpha" maskUnits="userSpaceOnUse" x="14" y="0" width="61" height="14">
<rect x="15.2997" y="0.900003" width="58.5" height="11.7" rx="5.85" fill="#ABECF0" stroke="#7093B4" stroke-width="1.8"/>
</mask>
<g mask="url(#mask0_350_237)">
<rect x="16.1997" y="1.8" width="56.7" height="9.9" rx="4.95" fill="#ABECF0"/>
<path d="M52.1998 1.52588e-05C54.4498 4.21876 54.4498 9.28127 52.1998 13.5" stroke="#6BE0E7" stroke-width="4.5"/>
<path d="M60.2994 1.52588e-05C62.5494 4.21876 62.5494 9.28127 60.2994 13.5" stroke="#6BE0E7" stroke-width="4.5"/>
<rect x="15.2997" y="0.900003" width="58.5" height="11.7" rx="5.85" stroke="#7093B4" stroke-width="1.8"/>
</g>
</svg>
