<svg width="234" height="174" viewBox="0 0 234 174" fill="none" xmlns="http://www.w3.org/2000/svg">
<g filter="url(#filter0_d_110_463)">
<path d="M100.021 64.8699C122.333 53.971 147.866 63.507 157.182 72.5929C166.497 81.6787 164.551 98.6149 168.923 94.7333C173.296 90.8517 184.935 90.1568 197.061 93.1634C211.611 96.7714 224.719 101.795 229.571 110.427C234.423 119.058 231.512 127.69 225.204 142.681C218.896 157.673 199.007 162.775 199.007 162.775C199.007 162.775 178.62 166.49 173.77 160.853C168.92 155.216 164.059 167.478 135.443 169.357C106.826 171.236 93.221 160.304 89.8258 157.673C86.4307 155.042 80.1145 157.863 63.6237 163.124C47.1328 168.386 30.1431 150.404 27.717 152.221C25.2909 154.039 12.6781 156.104 6.37277 148.587C0.0674546 141.071 1.0375 131.225 6.37277 124.836C10.9865 119.311 27.5447 120.235 31.9388 120.586C30.7898 119.459 28.8808 117.426 25.7818 113.933C15.1113 101.907 37.4289 86.8164 41.309 85.3131C45.1891 83.8097 52.4717 81.6787 58.2919 81.6787C64.1121 81.6787 81.0975 85.3131 81.0975 85.3131C81.0975 85.3131 77.7103 75.7689 100.021 64.8699Z" fill="white"/>
<path d="M229.674 111.043C234.379 119.612 231.465 128.226 225.203 143.109C218.91 158.066 199.098 163.178 199.007 163.201C199.007 163.201 178.619 166.917 173.769 161.279C168.919 155.643 164.058 167.905 135.443 169.784C106.827 171.663 93.2209 160.731 89.8254 158.1C86.4303 155.469 80.1139 158.289 63.6233 163.551C47.1325 168.813 30.1422 150.831 27.7161 152.649C25.289 154.466 12.6773 156.53 6.37231 149.014C4.01139 146.199 2.67118 143.058 2.19751 139.895C3.07936 142.029 4.15209 143.924 5.39673 145.407C11.7021 152.924 25.2909 149.041 27.717 147.224C30.1436 145.407 46.163 162.026 62.6536 156.765C79.1443 151.503 79.1529 147.32 82.5481 149.95C85.944 152.582 100.514 166.821 129.129 164.942C157.746 163.062 165.038 149.31 169.888 154.947C174.738 160.585 205.795 155.856 205.795 155.856C205.857 155.82 219.395 148.098 225.689 133.141C229.357 124.423 230.398 117.232 229.674 111.043Z" fill="#CDF5FD"/>
<path d="M184.635 122.779C175.56 142.777 162.813 139.076 147.366 132.066C131.919 125.056 120.74 117.9 129.815 97.9021C133.983 88.719 146.518 76.7472 154.411 71.9473C162.303 67.1474 166.782 67.0816 175.136 70.8725C183.489 74.6634 185.53 78.0007 187.974 87.1782C190.709 97.4484 188.802 113.596 184.635 122.779Z" fill="#FF8E24"/>
<path d="M171.38 123.191C165.33 136.523 157.713 134.455 148.553 130.298C139.392 126.141 132.821 121.77 138.871 108.438C141.649 102.316 156.587 82.3583 161.5 79C166.413 75.6417 169.435 73.7519 174.389 76C179.342 78.2481 179 79 179.5 84.5C180.114 91.2542 174.158 117.069 171.38 123.191Z" fill="#F9F2D4"/>
<path d="M154.628 71.1747L148.608 75.586C145.715 77.7057 142.99 80.0446 140.456 82.582L139.994 83.0439C137.21 85.8321 134.665 88.8504 132.388 92.0667L130.456 94.7971L128.489 98.7357C127.005 101.71 126.233 104.988 126.235 108.312V108.312C126.236 110.567 126.594 112.808 127.295 114.951L128.007 117.132" stroke="#8C4107" stroke-width="2.1" stroke-linecap="round"/>
<path d="M188.238 86.0427L188.882 93.4779C189.191 97.0507 189.225 100.642 188.984 104.22L188.957 104.63C188.681 108.722 188.047 112.782 187.06 116.763L186.231 120.108L184.702 123.854C183.444 126.935 181.484 129.68 178.979 131.869V131.869C177.284 133.35 175.365 134.554 173.295 135.437L171.179 136.339" stroke="#8C4107" stroke-width="2.1" stroke-linecap="round"/>
<path d="M213.355 72.2824C205.593 88.9288 191.473 84.0957 174.108 75.998C156.742 67.9002 143.964 60.1907 151.726 43.5444C155.291 35.9003 167.597 26.7976 175.621 23.4962C183.646 20.1948 188.469 20.6805 197.861 25.0598C207.252 29.439 209.789 32.6488 213.353 41.0909C217.342 50.5383 216.92 64.6383 213.355 72.2824Z" fill="#FF8E24"/>
<path d="M207.942 80.6079C205.354 86.1567 191.473 84.0957 174.108 75.9979C156.742 67.9002 146.241 58.5917 148.828 53.0429C150.016 50.4948 155.809 52.0769 162.035 52.6324C168.261 53.188 171.21 59.3346 180.601 63.7139C189.993 68.0931 194.472 65.4978 199.767 70.2272C205.693 75.5196 209.13 78.0599 207.942 80.6079Z" fill="#F9F2D4"/>
<path d="M176.207 52.8603C175.724 54.5985 175.292 55.5265 174.274 55.9398C173.153 56.3944 170.987 55.4026 169.805 54.8512C167.547 53.7985 166.528 49.5641 167.581 47.3065C168.633 45.049 171.359 45.6233 173.617 46.676C175.874 47.7287 176.942 50.2171 176.207 52.8603Z" fill="#8C4107"/>
<ellipse cx="170.264" cy="48.9405" rx="1.04082" ry="1.38776" transform="rotate(55 170.264 48.9405)" fill="white"/>
<path d="M190.43 59.4926C189.409 60.98 188.976 61.9071 189.314 62.9533C189.686 64.1039 191.838 65.1255 193.021 65.6769C195.278 66.7296 199.177 64.7884 200.23 62.5309C201.282 60.2734 199.09 58.5544 196.833 57.5016C194.575 56.4489 191.983 57.2306 190.43 59.4926Z" fill="#8C4107"/>
<ellipse cx="192.635" cy="59.7416" rx="1.04082" ry="1.38776" transform="rotate(55 192.635 59.7416)" fill="white"/>
<path d="M184.823 25.0985C181.338 27.1104 175.401 28.1133 173.485 24.7945C173.895 23.5222 174.36 21.9633 175.082 20.2096C176.907 15.7764 180.172 11.9608 183.542 8.55163C184.463 7.62045 185.319 7.00599 185.967 7.20182C186.127 7.25028 186.275 7.36032 186.411 7.52072C190.146 11.9169 190.919 20.4059 186.427 24.0256C185.976 24.3892 185.445 24.7392 184.823 25.0985Z" fill="#FF8E24"/>
<path d="M188.175 17.0981C185.977 18.3673 177.71 17.4471 176.97 16.1661C177.293 15.6297 177.663 14.9904 178.151 14.2616C179.84 11.7406 182.152 9.65151 184.596 7.85412C185.121 7.46827 185.581 7.21025 185.887 7.2269C188.554 7.37177 188.242 12.0258 188.899 14.6137C189.159 15.6383 189.164 16.527 188.175 17.0981Z" fill="#8C4107"/>
<path d="M186.063 21.7641C183.587 23.1937 177.886 24.8014 175.99 23.7916C176.292 22.9134 176.636 21.8388 177.16 20.6279C178.506 17.5179 180.489 14.1587 183.631 12.8888C183.882 12.7873 184.121 12.7542 184.34 12.8161C184.601 12.8894 184.843 13.1229 185.069 13.4516C186.712 15.8456 186.019 18.8609 186.063 21.7641Z" fill="#F9F2D4"/>
<path d="M206.324 35.1248C207.023 39.0874 210.071 44.2802 213.845 43.6147C214.556 42.4826 215.451 41.1241 216.33 39.4439C218.554 35.1967 219.378 30.2427 219.823 25.4695C219.944 24.1657 219.865 23.1147 219.298 22.7445C219.158 22.6529 218.979 22.6107 218.769 22.6094C213 22.5736 206 27.4385 206.115 33.2063C206.126 33.7856 206.199 34.4172 206.324 35.1248Z" fill="#FF8E24"/>
<path d="M211.108 27.4963C211.549 29.9961 217.568 35.7376 219.025 35.4807C219.228 34.8886 219.48 34.1941 219.724 33.3517C220.57 30.4378 220.684 27.3239 220.49 24.2959C220.448 23.6459 220.35 23.1277 220.14 22.9036C218.316 20.9543 214.951 24.1847 212.546 25.3448C211.594 25.804 210.91 26.3713 211.108 27.4963Z" fill="#8C4107"/>
<path d="M208.344 31.6946C208.84 34.5102 211.274 39.9112 213.266 40.7143C213.744 39.9183 214.346 38.9642 214.937 37.7844C216.455 34.7545 217.753 31.0755 216.706 27.8525C216.623 27.5951 216.495 27.3911 216.306 27.2625C216.082 27.1098 215.748 27.0745 215.351 27.113C212.461 27.3931 210.596 29.8621 208.344 31.6946Z" fill="#F9F2D4"/>
<path d="M179.34 66.4661C178.827 66.5268 178.323 66.2982 178.032 65.8724L176.364 63.4391C175.566 62.274 176.816 60.8 178.096 61.397L182.594 63.4947C183.861 64.0852 183.559 65.9661 182.171 66.1305L179.34 66.4661Z" fill="#8C4107"/>
<path d="M188.91 21.2688L188.984 20.3848C189.32 16.3645 188.697 12.3218 187.167 8.58887V8.58887" stroke="#8C4107" stroke-width="2.08163" stroke-linecap="round"/>
<path d="M206.518 29.4796L207.148 28.8548C210.012 26.0133 213.509 23.8918 217.352 22.6646V22.6646" stroke="#8C4107" stroke-width="2.08163" stroke-linecap="round"/>
<path d="M170.572 26.1158L165.341 29.253C160.063 32.4187 155.704 36.9099 152.698 42.2807V42.2807" stroke="#8C4107" stroke-width="2.08163" stroke-linecap="round"/>
<path d="M152.698 42.2807C152.451 42.3637 150.637 45.7308 149.473 49.1982V49.1982C148.097 53.2931 149.412 57.6895 152.026 61.1283L152.452 61.6891" stroke="#8C4107" stroke-width="2.08163" stroke-linecap="round"/>
<path d="M214.592 46.6429L215.551 52.6663C216.519 58.7447 215.88 64.9704 213.698 70.7255V70.7255" stroke="#8C4107" stroke-width="2.08163" stroke-linecap="round"/>
<path d="M213.698 70.7255C213.794 70.9685 212.38 74.5221 210.473 77.643V77.643C208.22 81.3287 204.007 83.1475 199.692 83.3554L198.989 83.3893" stroke="#8C4107" stroke-width="2.08163" stroke-linecap="round"/>
<path d="M155.975 65.6284V65.6284C160.51 69.5212 165.556 72.7757 170.972 75.3016L173.5 76.4802L176.188 77.7335C181.708 80.3079 187.544 82.1442 193.545 83.1948L193.707 83.2231" stroke="#8C4107" stroke-width="2.08163" stroke-linecap="round"/>
<path d="M173.296 23.5579V23.5579C174.773 18.2446 177.723 13.4574 181.805 9.74944L184.19 7.58371" stroke="#8C4107" stroke-width="2.08163" stroke-linecap="round"/>
<path d="M215.094 42.2832V42.2832C218.501 37.647 220.378 32.064 220.464 26.3112L220.496 24.1308" stroke="#8C4107" stroke-width="2.08163" stroke-linecap="round"/>
<path d="M188.763 21.5832L190.64 22.2171C195.329 23.8003 199.834 25.8805 204.08 28.4221L206.372 29.7941" stroke="#8C4107" stroke-width="2.08163" stroke-linecap="round"/>
<ellipse cx="162.783" cy="53.491" rx="4.5102" ry="2.42857" transform="rotate(25 162.783 53.491)" fill="#FC4F4F"/>
<ellipse cx="198.628" cy="70.2059" rx="4.5102" ry="2.42857" transform="rotate(25 198.628 70.2059)" fill="#FC4F4F"/>
<ellipse cx="126" cy="112" rx="29" ry="26" fill="white"/>
<ellipse cx="175.5" cy="123" rx="37.5" ry="26" fill="white"/>
<path d="M105 94.5V94.5C118.114 82.1731 139.145 84.5092 149.234 99.4133L152 103.5L155.963 101.821C171.892 95.0713 190.154 96.8317 204.5 106.5V106.5" stroke="#CDF5FD" stroke-width="3" stroke-linecap="round"/>
<path d="M142.411 87.2527C144.571 88.3699 146.156 90.0097 146.998 91.7142C147.839 93.4193 147.911 95.1192 147.204 96.487C146.496 97.8549 145.067 98.7782 143.189 99.0767C141.312 99.3752 139.058 99.0286 136.898 97.9113C134.737 96.7941 133.152 95.1544 132.311 93.4498C131.469 91.7447 131.397 90.0448 132.104 88.677C132.812 87.3091 134.241 86.3858 136.119 86.0873C137.996 85.7888 140.25 86.1354 142.411 87.2527Z" fill="#FF8E24" stroke="#8C4107" stroke-width="2"/>
<path d="M182.275 93.5777C184.703 93.726 186.816 94.5845 188.275 95.8033C189.734 97.0225 190.487 98.5479 190.393 100.085C190.3 101.622 189.366 103.045 187.769 104.077C186.173 105.109 183.971 105.704 181.543 105.555C179.116 105.407 177.003 104.549 175.544 103.33C174.085 102.111 173.331 100.585 173.425 99.048C173.519 97.5109 174.453 96.0885 176.049 95.0561C177.646 94.024 179.848 93.4293 182.275 93.5777Z" fill="#FF8E24" stroke="#8C4107" stroke-width="2"/>
</g>
<defs>
<filter id="filter0_d_110_463" x="0" y="6.54291" width="234" height="167.457" filterUnits="userSpaceOnUse" color-interpolation-filters="sRGB">
<feFlood flood-opacity="0" result="BackgroundImageFix"/>
<feColorMatrix in="SourceAlpha" type="matrix" values="0 0 0 0 0 0 0 0 0 0 0 0 0 0 0 0 0 0 127 0" result="hardAlpha"/>
<feOffset dy="2"/>
<feGaussianBlur stdDeviation="1"/>
<feComposite in2="hardAlpha" operator="out"/>
<feColorMatrix type="matrix" values="0 0 0 0 0 0 0 0 0 0 0 0 0 0 0 0 0 0 0.2 0"/>
<feBlend mode="normal" in2="BackgroundImageFix" result="effect1_dropShadow_110_463"/>
<feBlend mode="normal" in="SourceGraphic" in2="effect1_dropShadow_110_463" result="shape"/>
</filter>
</defs>
</svg>
