<svg width="246" height="178" viewBox="0 0 246 178" fill="none" xmlns="http://www.w3.org/2000/svg">
<g filter="url(#filter0_d_369_184)">
<path d="M100.021 68.8699C122.333 57.971 147.866 67.507 157.182 76.5929C166.497 85.6787 164.551 102.615 168.923 98.7333C173.296 94.8517 184.935 94.1568 197.061 97.1634C211.611 100.771 224.719 105.795 229.571 114.427C234.423 123.058 231.512 131.69 225.204 146.681C218.896 161.673 199.007 166.775 199.007 166.775C199.007 166.775 178.62 170.49 173.77 164.853C168.92 159.216 164.059 171.478 135.443 173.357C106.826 175.236 93.221 164.304 89.8258 161.673C86.4307 159.042 80.1145 161.863 63.6237 167.124C47.1328 172.386 30.1431 154.404 27.717 156.221C25.2909 158.039 12.6781 160.104 6.37277 152.587C0.0674546 145.071 1.0375 135.225 6.37277 128.836C10.9865 123.311 27.5447 124.235 31.9388 124.586C30.7898 123.459 28.8808 121.426 25.7818 117.933C15.1113 105.907 37.4289 90.8164 41.309 89.3131C45.1891 87.8097 52.4717 85.6787 58.2919 85.6787C64.1121 85.6787 81.0975 89.3131 81.0975 89.3131C81.0975 89.3131 77.7103 79.7689 100.021 68.8699Z" fill="white"/>
<path d="M229.674 115.043C234.379 123.612 231.465 132.226 225.203 147.109C218.91 162.066 199.098 167.178 199.007 167.201C199.007 167.201 178.619 170.917 173.769 165.279C168.919 159.643 164.058 171.905 135.443 173.784C106.827 175.663 93.2209 164.731 89.8254 162.1C86.4303 159.469 80.1139 162.289 63.6233 167.551C47.1325 172.813 30.1422 154.831 27.7161 156.649C25.289 158.466 12.6773 160.53 6.37231 153.014C4.01139 150.199 2.67118 147.058 2.19751 143.895C3.07936 146.029 4.15209 147.924 5.39673 149.407C11.7021 156.924 25.2909 153.041 27.717 151.224C30.1436 149.407 46.163 166.026 62.6536 160.765C79.1443 155.503 79.1529 151.32 82.5481 153.95C85.944 156.582 100.514 170.821 129.129 168.942C157.746 167.062 165.038 153.31 169.888 158.947C174.738 164.585 205.795 159.856 205.795 159.856C205.857 159.82 219.395 152.098 225.689 137.141C229.357 128.423 230.398 121.232 229.674 115.043Z" fill="#CDF5FD"/>
<path d="M184.635 126.779C175.56 146.777 162.813 143.076 147.366 136.066C131.919 129.056 120.74 121.9 129.815 101.902C133.983 92.719 146.518 80.7472 154.411 75.9473C162.303 71.1474 166.782 71.0816 175.136 74.8725C183.489 78.6634 185.53 82.0007 187.974 91.1782C190.709 101.448 188.802 117.596 184.635 126.779Z" fill="#FF8E24"/>
<path d="M171.38 127.191C165.33 140.523 157.713 138.455 148.553 134.298C139.392 130.141 132.821 125.77 138.871 112.438C141.649 106.316 156.587 86.3583 161.5 83C166.413 79.6417 169.435 77.7519 174.389 80C179.342 82.2481 179 83 179.5 88.5C180.114 95.2542 174.158 121.069 171.38 127.191Z" fill="#F9F2D4"/>
<path d="M154.628 75.1748L148.608 79.586C145.715 81.7057 142.99 84.0446 140.456 86.582L139.994 87.044C137.21 89.8321 134.665 92.8504 132.388 96.0667L130.456 98.7971L128.489 102.736C127.005 105.71 126.233 108.988 126.235 112.312C126.236 114.567 126.594 116.808 127.295 118.951L128.007 121.132" stroke="#8C4107" stroke-width="2.1" stroke-linecap="round"/>
<path d="M188.238 90.0427L188.881 97.4779C189.191 101.051 189.225 104.642 188.984 108.22L188.957 108.63C188.681 112.722 188.046 116.782 187.06 120.763L186.231 124.108L184.702 127.854C183.444 130.935 181.484 133.68 178.978 135.869C177.283 137.35 175.365 138.554 173.295 139.437L171.179 140.339" stroke="#8C4107" stroke-width="2.1" stroke-linecap="round"/>
<path d="M213.355 76.2824C205.593 92.9288 191.473 88.0957 174.108 79.9979C156.742 71.9002 143.964 64.1907 151.726 47.5443C155.291 39.9002 167.597 30.7976 175.621 27.4962C183.646 24.1948 188.469 24.6805 197.861 29.0597C207.252 33.439 209.789 36.6487 213.353 45.0909C217.342 54.5383 216.92 68.6383 213.355 76.2824Z" fill="#FF8E24"/>
<path d="M207.942 84.608C205.354 90.1568 191.473 88.0957 174.108 79.998C156.742 71.9002 146.241 62.5917 148.828 57.0429C150.016 54.4949 155.809 56.0769 162.035 56.6325C168.261 57.188 171.21 63.3347 180.601 67.7139C189.993 72.0931 194.472 69.4979 199.767 74.2272C205.693 79.5196 209.13 82.0599 207.942 84.608Z" fill="#F9F2D4"/>
<path d="M176.207 56.8603C175.724 58.5985 175.292 59.5265 174.274 59.9398C173.153 60.3944 170.987 59.4027 169.805 58.8513C167.547 57.7986 166.528 53.5641 167.581 51.3066C168.633 49.049 171.359 49.6233 173.617 50.676C175.874 51.7287 176.942 54.2171 176.207 56.8603Z" fill="#8C4107"/>
<ellipse cx="170.264" cy="52.9405" rx="1.04082" ry="1.38776" transform="rotate(55 170.264 52.9405)" fill="white"/>
<path d="M190.43 63.4926C189.409 64.9801 188.976 65.9072 189.314 66.9533C189.686 68.104 191.838 69.1256 193.021 69.6769C195.278 70.7297 199.177 68.7885 200.23 66.5309C201.282 64.2734 199.09 62.5544 196.833 61.5017C194.575 60.449 191.983 61.2306 190.43 63.4926Z" fill="#8C4107"/>
<ellipse cx="192.635" cy="63.7416" rx="1.04082" ry="1.38776" transform="rotate(55 192.635 63.7416)" fill="white"/>
<path d="M184.823 29.0985C181.338 31.1104 175.401 32.1132 173.485 28.7945C173.895 27.5222 174.36 25.9633 175.082 24.2096C176.907 19.7764 180.172 15.9608 183.542 12.5516C184.463 11.6204 185.319 11.006 185.967 11.2018C186.127 11.2503 186.275 11.3603 186.411 11.5207C190.146 15.9169 190.919 24.4059 186.427 28.0256C185.976 28.3892 185.445 28.7392 184.823 29.0985Z" fill="#FF8E24"/>
<path d="M188.175 21.0981C185.977 22.3673 177.71 21.4471 176.97 20.1661C177.293 19.6297 177.663 18.9904 178.151 18.2616C179.84 15.7406 182.152 13.6515 184.596 11.8541C185.121 11.4683 185.581 11.2102 185.887 11.2269C188.554 11.3718 188.242 16.0258 188.899 18.6137C189.159 19.6383 189.164 20.527 188.175 21.0981Z" fill="#8C4107"/>
<path d="M186.063 25.7641C183.587 27.1937 177.886 28.8014 175.99 27.7916C176.292 26.9134 176.636 25.8388 177.16 24.6279C178.506 21.5179 180.489 18.1587 183.631 16.8888C183.882 16.7873 184.121 16.7542 184.34 16.816C184.601 16.8894 184.843 17.1229 185.069 17.4516C186.712 19.8456 186.019 22.8609 186.063 25.7641Z" fill="#F9F2D4"/>
<path d="M206.324 39.1247C207.022 43.0874 210.07 48.2801 213.844 47.6147C214.555 46.4826 215.45 45.1241 216.33 43.4439C218.553 39.1967 219.377 34.2426 219.822 29.4694C219.944 28.1657 219.864 27.1146 219.298 26.7444C219.158 26.6528 218.979 26.6107 218.768 26.6094C212.999 26.5736 206 31.4385 206.114 37.2063C206.126 37.7856 206.199 38.4171 206.324 39.1247Z" fill="#FF8E24"/>
<path d="M211.108 31.4962C211.549 33.9961 217.568 39.7376 219.025 39.4807C219.228 38.8886 219.48 38.194 219.724 37.3516C220.57 34.4378 220.684 31.3238 220.49 28.2959C220.448 27.6459 220.35 27.1277 220.14 26.9035C218.316 24.9543 214.951 28.1847 212.546 29.3447C211.594 29.804 210.91 30.3713 211.108 31.4962Z" fill="#8C4107"/>
<path d="M208.344 35.6946C208.84 38.5102 211.273 43.9112 213.266 44.7143C213.744 43.9183 214.346 42.9642 214.937 41.7844C216.454 38.7545 217.753 35.0755 216.706 31.8525C216.622 31.5951 216.494 31.3911 216.306 31.2625C216.082 31.1098 215.747 31.0745 215.351 31.113C212.461 31.3931 210.596 33.8621 208.344 35.6946Z" fill="#F9F2D4"/>
<path d="M179.34 70.4661C178.827 70.5269 178.323 70.2982 178.032 69.8725L176.364 67.4391C175.566 66.274 176.816 64.8001 178.096 65.397L182.594 67.4947C183.861 68.0853 183.559 69.9661 182.171 70.1305L179.34 70.4661Z" fill="#8C4107"/>
<path d="M188.91 25.2688L188.984 24.3848C189.32 20.3645 188.697 16.3218 187.167 12.5889" stroke="#8C4107" stroke-width="2.08163" stroke-linecap="round"/>
<path d="M206.518 33.4796L207.148 32.8549C210.012 30.0133 213.509 27.8918 217.352 26.6646" stroke="#8C4107" stroke-width="2.08163" stroke-linecap="round"/>
<path d="M170.572 30.1158L165.341 33.2529C160.063 36.4187 155.704 40.9099 152.698 46.2807" stroke="#8C4107" stroke-width="2.08163" stroke-linecap="round"/>
<path d="M152.698 46.2807C152.451 46.3637 150.637 49.7308 149.473 53.1982C148.097 57.2932 149.412 61.6895 152.026 65.1284L152.452 65.6891" stroke="#8C4107" stroke-width="2.08163" stroke-linecap="round"/>
<path d="M214.592 50.6429L215.551 56.6664C216.519 62.7447 215.88 68.9704 213.698 74.7255" stroke="#8C4107" stroke-width="2.08163" stroke-linecap="round"/>
<path d="M213.699 74.7255C213.794 74.9685 212.38 78.522 210.473 81.643C208.22 85.3287 204.007 87.1474 199.692 87.3553L198.989 87.3892" stroke="#8C4107" stroke-width="2.08163" stroke-linecap="round"/>
<path d="M155.975 69.6284C160.51 73.5212 165.556 76.7757 170.972 79.3016L173.5 80.4802L176.188 81.7335C181.708 84.3079 187.544 86.1442 193.545 87.1948L193.707 87.2231" stroke="#8C4107" stroke-width="2.08163" stroke-linecap="round"/>
<path d="M173.296 27.5579C174.773 22.2445 177.723 17.4574 181.805 13.7494L184.19 11.5837" stroke="#8C4107" stroke-width="2.08163" stroke-linecap="round"/>
<path d="M215.094 46.2832C218.501 41.647 220.378 36.064 220.464 30.3113L220.496 28.1308" stroke="#8C4107" stroke-width="2.08163" stroke-linecap="round"/>
<path d="M188.763 25.5832L190.64 26.2171C195.329 27.8003 199.834 29.8804 204.08 32.4221L206.372 33.794" stroke="#8C4107" stroke-width="2.08163" stroke-linecap="round"/>
<ellipse cx="162.783" cy="57.491" rx="4.5102" ry="2.42857" transform="rotate(25 162.783 57.491)" fill="#FC4F4F"/>
<ellipse cx="198.629" cy="74.2059" rx="4.5102" ry="2.42857" transform="rotate(25 198.629 74.2059)" fill="#FC4F4F"/>
<ellipse cx="126" cy="116" rx="29" ry="26" fill="white"/>
<ellipse cx="175.5" cy="127" rx="37.5" ry="26" fill="white"/>
<path d="M105 98.5C118.114 86.1731 139.145 88.5092 149.234 103.413L152 107.5L155.963 105.821C171.892 99.0713 190.154 100.832 204.5 110.5" stroke="#CDF5FD" stroke-width="3" stroke-linecap="round"/>
<path d="M142.411 91.2527C144.571 92.3699 146.156 94.0097 146.998 95.7142C147.839 97.4193 147.911 99.1192 147.204 100.487C146.496 101.855 145.067 102.778 143.189 103.077C141.312 103.375 139.058 103.029 136.898 101.911C134.737 100.794 133.152 99.1544 132.311 97.4498C131.469 95.7447 131.397 94.0448 132.104 92.677C132.812 91.3091 134.241 90.3858 136.119 90.0873C137.996 89.7888 140.25 90.1354 142.411 91.2527Z" fill="#FF8E24" stroke="#8C4107" stroke-width="2"/>
<path d="M182.275 97.5777C184.703 97.726 186.816 98.5845 188.275 99.8033C189.734 101.022 190.487 102.548 190.393 104.085C190.3 105.622 189.366 107.045 187.769 108.077C186.173 109.109 183.971 109.704 181.543 109.555C179.116 109.407 177.003 108.549 175.544 107.33C174.085 106.111 173.331 104.585 173.425 103.048C173.519 101.511 174.453 100.089 176.049 99.0561C177.646 98.024 179.848 97.4293 182.275 97.5777Z" fill="#FF8E24" stroke="#8C4107" stroke-width="2"/>
<path d="M198.034 34.4762C209.195 39.6808 218.775 45.4401 225.239 50.5254C228.478 53.0731 230.888 55.4153 232.33 57.3993C233.051 58.3915 233.497 59.2501 233.703 59.9631C233.907 60.6674 233.86 61.167 233.691 61.5305C233.521 61.8941 233.168 62.2507 232.498 62.5475C231.819 62.8478 230.875 63.058 229.651 63.1434C227.205 63.3141 223.861 62.9737 219.828 62.1304C211.777 60.4471 201.207 56.8104 190.046 51.6058C178.885 46.4012 169.306 40.6423 162.841 35.557C159.602 33.0091 157.192 30.6668 155.75 28.6827C155.029 27.6904 154.583 26.8319 154.377 26.1189C154.173 25.4146 154.219 24.915 154.389 24.5515C154.558 24.1879 154.911 23.8313 155.582 23.5345C156.261 23.2341 157.205 23.024 158.429 22.9386C160.875 22.7678 164.219 23.1086 168.253 23.952C176.303 25.6353 186.873 29.2717 198.034 34.4762Z" fill="#E7CB90" stroke="#8E743F" stroke-width="2.1"/>
<path d="M182.68 11.0887L198.073 16.4051C202.655 17.9877 207.06 20.0419 211.218 22.5348L225.185 30.9095L220.433 57.6651L165.239 31.9277L182.68 11.0887Z" fill="#E7CB90"/>
<path d="M169.17 26.8096L181.457 35.2425L189.547 39.7611C192.524 41.424 195.619 42.8671 198.806 44.0788L207.468 47.3717L221.826 51.3637" stroke="#8B4F00" stroke-width="4.9"/>
<path d="M167.056 29.6858L182.02 11.632C182.578 10.9586 183.496 10.7016 184.322 10.9871L193.925 14.3021L205.282 18.9333L216.447 24.8042L224.856 29.885C225.599 30.3336 225.989 31.1924 225.839 32.0466L221.87 54.5816" stroke="#8E743F" stroke-width="2.1"/>
</g>
<defs>
<filter id="filter0_d_369_184" x="0" y="9.82196" width="236.888" height="168.178" filterUnits="userSpaceOnUse" color-interpolation-filters="sRGB">
<feFlood flood-opacity="0" result="BackgroundImageFix"/>
<feColorMatrix in="SourceAlpha" type="matrix" values="0 0 0 0 0 0 0 0 0 0 0 0 0 0 0 0 0 0 127 0" result="hardAlpha"/>
<feOffset dy="2"/>
<feGaussianBlur stdDeviation="1"/>
<feComposite in2="hardAlpha" operator="out"/>
<feColorMatrix type="matrix" values="0 0 0 0 0 0 0 0 0 0 0 0 0 0 0 0 0 0 0.2 0"/>
<feBlend mode="normal" in2="BackgroundImageFix" result="effect1_dropShadow_369_184"/>
<feBlend mode="normal" in="SourceGraphic" in2="effect1_dropShadow_369_184" result="shape"/>
</filter>
</defs>
</svg>
