<svg width="234" height="174" viewBox="0 0 234 174" fill="none" xmlns="http://www.w3.org/2000/svg">
<g filter="url(#filter0_d_369_1453)">
<path d="M100.021 64.8699C122.333 53.971 147.866 63.507 157.182 72.5929C166.497 81.6787 164.551 98.6149 168.923 94.7333C173.296 90.8517 184.935 90.1568 197.061 93.1634C211.611 96.7714 224.719 101.795 229.571 110.427C234.423 119.058 231.512 127.69 225.204 142.681C218.896 157.673 199.007 162.775 199.007 162.775C199.007 162.775 178.62 166.49 173.77 160.853C168.92 155.216 164.059 167.478 135.443 169.357C106.826 171.236 93.221 160.304 89.8258 157.673C86.4307 155.042 80.1145 157.863 63.6237 163.124C47.1328 168.386 30.1431 150.404 27.717 152.221C25.2909 154.039 12.6781 156.104 6.37277 148.587C0.0674546 141.071 1.0375 131.225 6.37277 124.836C10.9865 119.311 27.5447 120.235 31.9388 120.586C30.7898 119.459 28.8808 117.426 25.7818 113.933C15.1113 101.907 37.4289 86.8164 41.309 85.3131C45.1891 83.8097 52.4717 81.6787 58.2919 81.6787C64.1121 81.6787 81.0975 85.3131 81.0975 85.3131C81.0975 85.3131 77.7103 75.7689 100.021 64.8699Z" fill="white"/>
<path d="M229.674 111.043C234.378 119.612 231.465 128.226 225.203 143.109C218.91 158.066 199.098 163.178 199.007 163.201C199.007 163.201 178.619 166.917 173.769 161.279C168.918 155.643 164.058 167.905 135.442 169.784C106.826 171.663 93.2206 160.731 89.8252 158.1C86.43 155.469 80.1137 158.289 63.623 163.551C47.1322 168.813 30.1419 150.831 27.7158 152.649C25.2888 154.466 12.6771 156.53 6.37207 149.014C4.01114 146.199 2.67094 143.058 2.19727 139.895C3.07911 142.029 4.15184 143.924 5.39648 145.407C11.7018 152.924 25.2907 149.041 27.7168 147.224C30.1433 145.407 46.1628 162.026 62.6533 156.765C79.1441 151.503 79.1527 147.32 82.5479 149.95C85.9438 152.582 100.514 166.821 129.129 164.942C157.745 163.062 165.037 149.31 169.888 154.947C174.738 160.585 205.795 155.856 205.795 155.856C205.857 155.82 219.395 148.098 225.688 133.141C229.357 124.423 230.398 117.232 229.674 111.043Z" fill="#CDF5FD"/>
<path d="M184.635 122.779C175.56 142.777 162.813 139.076 147.366 132.066C131.919 125.056 120.74 117.9 129.815 97.9021C133.983 88.719 146.518 76.7472 154.411 71.9473C162.303 67.1474 166.782 67.0816 175.136 70.8725C183.489 74.6634 185.53 78.0007 187.974 87.1782C190.709 97.4484 188.802 113.596 184.635 122.779Z" fill="#FF8E24"/>
<path d="M171.38 123.191C165.33 136.523 157.713 134.455 148.553 130.298C139.392 126.142 132.821 121.77 138.871 108.438C141.649 102.316 156.588 82.3583 161.5 79C166.413 75.6418 169.435 73.752 174.389 76C179.343 78.2481 179 79 179.5 84.5C180.114 91.2542 174.158 117.069 171.38 123.191Z" fill="#F9F2D4"/>
<path d="M154.628 71.1748L148.608 75.586C145.716 77.7057 142.99 80.0446 140.456 82.582L139.994 83.044C137.21 85.8321 134.666 88.8504 132.389 92.0667L130.456 94.7971L128.49 98.7358C127.005 101.71 126.233 104.988 126.235 108.312C126.237 110.567 126.594 112.808 127.295 114.951L128.008 117.132" stroke="#8C4107" stroke-width="2.1" stroke-linecap="round"/>
<path d="M188.238 86.0427L188.882 93.4779C189.191 97.0507 189.226 100.642 188.985 104.22L188.957 104.63C188.682 108.722 188.047 112.782 187.06 116.763L186.231 120.108L184.702 123.854C183.445 126.935 181.485 129.68 178.979 131.869C177.284 133.35 175.366 134.554 173.295 135.437L171.179 136.339" stroke="#8C4107" stroke-width="2.1" stroke-linecap="round"/>
<path d="M213.355 72.2824C205.593 88.9288 191.473 84.0957 174.107 75.9979C156.742 67.9002 143.964 60.1907 151.726 43.5443C155.29 35.9002 167.596 26.7976 175.621 23.4962C183.646 20.1948 188.469 20.6805 197.86 25.0597C207.252 29.439 209.789 32.6487 213.353 41.0909C217.341 50.5383 216.919 64.6383 213.355 72.2824Z" fill="#FF8E24"/>
<path d="M207.941 80.608C205.354 86.1568 191.473 84.0957 174.107 75.9979C156.742 67.9002 146.241 58.5917 148.828 53.0429C150.016 50.4949 155.809 52.0769 162.035 52.6325C168.261 53.188 171.21 59.3347 180.601 63.7139C189.993 68.0931 194.471 65.4979 199.767 70.2272C205.692 75.5196 209.13 78.0599 207.941 80.608Z" fill="#F9F2D4"/>
<path d="M176.207 52.8603C175.724 54.5985 175.292 55.5265 174.274 55.9398C173.153 56.3944 170.987 55.4027 169.805 54.8513C167.547 53.7986 166.528 49.5641 167.581 47.3066C168.633 45.049 171.359 45.6233 173.617 46.676C175.874 47.7287 176.942 50.2171 176.207 52.8603Z" fill="#8C4107"/>
<ellipse cx="170.264" cy="48.9405" rx="1.04082" ry="1.38776" transform="rotate(55 170.264 48.9405)" fill="white"/>
<path d="M190.43 59.4926C189.409 60.9801 188.976 61.9072 189.314 62.9533C189.686 64.104 191.838 65.1256 193.021 65.6769C195.278 66.7297 199.177 64.7885 200.23 62.5309C201.282 60.2734 199.09 58.5544 196.833 57.5017C194.575 56.449 191.983 57.2306 190.43 59.4926Z" fill="#8C4107"/>
<ellipse cx="192.635" cy="59.7416" rx="1.04082" ry="1.38776" transform="rotate(55 192.635 59.7416)" fill="white"/>
<path d="M184.823 25.0985C181.338 27.1104 175.401 28.1132 173.485 24.7945C173.895 23.5222 174.36 21.9633 175.082 20.2096C176.906 15.7764 180.172 11.9607 183.542 8.55161C184.463 7.62043 185.319 7.00597 185.967 7.20181C186.127 7.25026 186.274 7.3603 186.411 7.5207C190.146 11.9169 190.919 20.4059 186.427 24.0256C185.975 24.3892 185.445 24.7392 184.823 25.0985Z" fill="#FF8E24"/>
<path d="M188.175 17.0981C185.977 18.3673 177.71 17.4471 176.97 16.1661C177.293 15.6296 177.663 14.9904 178.151 14.2616C179.84 11.7406 182.152 9.6515 184.596 7.85411C185.121 7.46826 185.581 7.21024 185.887 7.2269C188.554 7.37176 188.242 12.0258 188.899 14.6137C189.159 15.6383 189.164 16.527 188.175 17.0981Z" fill="#8C4107"/>
<path d="M186.063 21.7641C183.586 23.1937 177.885 24.8014 175.989 23.7916C176.292 22.9134 176.635 21.8388 177.159 20.6279C178.505 17.5179 180.489 14.1587 183.631 12.8888C183.882 12.7873 184.12 12.7542 184.34 12.816C184.601 12.8894 184.843 13.1229 185.068 13.4516C186.711 15.8456 186.019 18.8609 186.063 21.7641Z" fill="#F9F2D4"/>
<path d="M206.324 35.1247C207.022 39.0874 210.07 44.2801 213.844 43.6147C214.555 42.4826 215.45 41.1241 216.33 39.4439C218.553 35.1967 219.377 30.2426 219.822 25.4694C219.944 24.1657 219.864 23.1146 219.298 22.7444C219.158 22.6528 218.979 22.6107 218.768 22.6094C212.999 22.5736 206 27.4385 206.114 33.2063C206.126 33.7856 206.199 34.4171 206.324 35.1247Z" fill="#FF8E24"/>
<path d="M211.108 27.4962C211.549 29.9961 217.568 35.7376 219.025 35.4807C219.228 34.8886 219.48 34.1941 219.724 33.3516C220.57 30.4378 220.684 27.3238 220.49 24.2959C220.448 23.6459 220.35 23.1277 220.14 22.9035C218.316 20.9543 214.951 24.1847 212.546 25.3447C211.594 25.804 210.91 26.3713 211.108 27.4962Z" fill="#8C4107"/>
<path d="M208.344 31.6946C208.84 34.5102 211.273 39.9112 213.266 40.7143C213.744 39.9183 214.346 38.9642 214.937 37.7844C216.454 34.7545 217.753 31.0755 216.706 27.8525C216.622 27.5951 216.494 27.3911 216.306 27.2625C216.082 27.1098 215.747 27.0745 215.351 27.113C212.461 27.3931 210.596 29.8621 208.344 31.6946Z" fill="#F9F2D4"/>
<path d="M179.34 66.4661C178.827 66.5269 178.323 66.2982 178.032 65.8725L176.364 63.4392C175.566 62.2741 176.816 60.8001 178.096 61.397L182.594 63.4947C183.861 64.0853 183.559 65.9661 182.171 66.1306L179.34 66.4661Z" fill="#8C4107"/>
<path d="M188.91 21.2688L188.984 20.3848C189.32 16.3645 188.697 12.3218 187.167 8.58888" stroke="#8C4107" stroke-width="2.08163" stroke-linecap="round"/>
<path d="M206.518 29.4796L207.148 28.8549C210.012 26.0134 213.509 23.8918 217.352 22.6646" stroke="#8C4107" stroke-width="2.08163" stroke-linecap="round"/>
<path d="M170.572 26.1158L165.341 29.2529C160.063 32.4187 155.704 36.9099 152.698 42.2807" stroke="#8C4107" stroke-width="2.08163" stroke-linecap="round"/>
<path d="M152.698 42.2807C152.45 42.3637 150.637 45.7308 149.472 49.1982C148.097 53.2932 149.412 57.6895 152.026 61.1284L152.452 61.6891" stroke="#8C4107" stroke-width="2.08163" stroke-linecap="round"/>
<path d="M214.592 46.6429L215.551 52.6664C216.519 58.7447 215.88 64.9704 213.698 70.7255" stroke="#8C4107" stroke-width="2.08163" stroke-linecap="round"/>
<path d="M213.699 70.7255C213.794 70.9685 212.38 74.522 210.473 77.643C208.22 81.3287 204.007 83.1475 199.692 83.3554L198.989 83.3893" stroke="#8C4107" stroke-width="2.08163" stroke-linecap="round"/>
<path d="M155.975 65.6284C160.51 69.5212 165.556 72.7757 170.972 75.3016L173.5 76.4802L176.188 77.7335C181.708 80.3079 187.544 82.1442 193.545 83.1948L193.707 83.2231" stroke="#8C4107" stroke-width="2.08163" stroke-linecap="round"/>
<path d="M173.296 23.5579C174.773 18.2445 177.723 13.4574 181.805 9.74942L184.19 7.58368" stroke="#8C4107" stroke-width="2.08163" stroke-linecap="round"/>
<path d="M215.094 42.2832C218.501 37.647 220.378 32.064 220.464 26.3113L220.496 24.1309" stroke="#8C4107" stroke-width="2.08163" stroke-linecap="round"/>
<path d="M188.763 21.5832L190.64 22.2171C195.329 23.8003 199.834 25.8804 204.08 28.4221L206.372 29.794" stroke="#8C4107" stroke-width="2.08163" stroke-linecap="round"/>
<ellipse cx="162.783" cy="53.491" rx="4.5102" ry="2.42857" transform="rotate(25 162.783 53.491)" fill="#FC4F4F"/>
<ellipse cx="198.629" cy="70.2059" rx="4.5102" ry="2.42857" transform="rotate(25 198.629 70.2059)" fill="#FC4F4F"/>
<ellipse cx="126" cy="112" rx="29" ry="26" fill="white"/>
<ellipse cx="175.5" cy="123" rx="37.5" ry="26" fill="white"/>
<path d="M105 94.5C118.114 82.1731 139.145 84.5092 149.234 99.4133L152 103.5L155.963 101.821C171.892 95.0713 190.154 96.8317 204.5 106.5" stroke="#CDF5FD" stroke-width="3" stroke-linecap="round"/>
<path d="M142.411 87.2527C144.571 88.3699 146.157 90.0097 146.998 91.7142C147.839 93.4193 147.912 95.1192 147.204 96.487C146.497 97.8549 145.068 98.7782 143.19 99.0767C141.312 99.3752 139.058 99.0286 136.898 97.9113C134.738 96.7941 133.152 95.1544 132.311 93.4498C131.469 91.7447 131.397 90.0448 132.104 88.677C132.812 87.3091 134.241 86.3858 136.119 86.0873C137.996 85.7888 140.251 86.1354 142.411 87.2527Z" fill="#FF8E24" stroke="#8C4107" stroke-width="2"/>
<path d="M182.275 93.5777C184.703 93.726 186.816 94.5845 188.275 95.8033C189.734 97.0225 190.487 98.5479 190.393 100.085C190.3 101.622 189.366 103.045 187.769 104.077C186.173 105.109 183.971 105.704 181.543 105.555C179.116 105.407 177.003 104.549 175.544 103.33C174.085 102.111 173.331 100.585 173.425 99.048C173.519 97.5109 174.453 96.0885 176.049 95.0561C177.646 94.024 179.848 93.4293 182.275 93.5777Z" fill="#FF8E24" stroke="#8C4107" stroke-width="2"/>
<path d="M164.544 82.2425C165.802 81.7846 167.227 81.6395 168.367 81.7176C168.938 81.7568 169.407 81.8501 169.731 81.9683C169.894 82.0274 169.998 82.0849 170.057 82.1284C170.065 82.1344 170.071 82.1406 170.076 82.1451C170.079 82.1732 170.082 82.2229 170.078 82.2983C170.07 82.4327 170.042 82.6099 169.988 82.8225C169.88 83.2478 169.678 83.7685 169.384 84.3C168.787 85.3783 167.873 86.3879 166.73 86.8041C165.365 87.3009 163.291 88.0491 161.522 88.5603C160.632 88.8173 159.852 89.0046 159.288 89.076C159.185 89.0891 159.095 89.0961 159.018 89.1007C159.081 88.9094 159.18 88.6688 159.314 88.3861C159.633 87.7118 160.123 86.8657 160.712 86.0096C161.301 85.1538 161.977 84.3058 162.66 83.6181C163.356 82.9177 164.008 82.4376 164.544 82.2425Z" fill="#353A82" stroke="#060040" stroke-width="1.4"/>
<path d="M174.092 85.9226C173.634 84.6642 172.829 83.4797 172.036 82.6563C171.639 82.2439 171.266 81.9448 170.967 81.7723C170.818 81.686 170.707 81.6431 170.636 81.6259C170.626 81.6235 170.617 81.6229 170.61 81.6217C170.587 81.6375 170.547 81.667 170.492 81.7188C170.394 81.8112 170.276 81.9464 170.148 82.1246C169.892 82.4808 169.622 82.9702 169.404 83.5372C168.962 84.6876 168.776 86.0367 169.192 87.1801C169.689 88.545 170.449 90.6141 171.194 92.2981C171.569 93.1449 171.928 93.8633 172.235 94.3408C172.291 94.4284 172.344 94.5019 172.39 94.5639C172.496 94.3925 172.617 94.1622 172.747 93.8779C173.059 93.1999 173.392 92.2806 173.669 91.279C173.946 90.2777 174.161 89.215 174.249 88.2496C174.338 87.2663 174.287 86.4586 174.092 85.9226Z" fill="#353A82" stroke="#060040" stroke-width="1.4"/>
<mask id="mask0_369_1453" style="mask-type:alpha" maskUnits="userSpaceOnUse" x="145" y="16" width="76" height="72">
<mask id="path-39-inside-1_369_1453" fill="white">
<path d="M198.18 20.5312C220.121 30.7625 225.722 52.5658 216.654 72.0117C206.952 91.1619 192.735 88.6637 169.992 83.465C151.39 69.3845 140.021 59.9515 148.454 40.2097C157.522 20.764 176.239 10.3 198.18 20.5312ZM193.191 34.0378C176.046 26.0433 162.562 31.4885 154.829 48.0718C149.495 65.7735 159.661 63.7691 171.891 79.7161C191.968 78.8336 196.719 87.7946 206.851 72.3303C214.584 55.7469 210.336 42.0325 193.191 34.0378Z"/>
</mask>
<path d="M198.18 20.5312C220.121 30.7625 225.722 52.5658 216.654 72.0117C206.952 91.1619 192.735 88.6637 169.992 83.465C151.39 69.3845 140.021 59.9515 148.454 40.2097C157.522 20.764 176.239 10.3 198.18 20.5312ZM193.191 34.0378C176.046 26.0433 162.562 31.4885 154.829 48.0718C149.495 65.7735 159.661 63.7691 171.891 79.7161C191.968 78.8336 196.719 87.7946 206.851 72.3303C214.584 55.7469 210.336 42.0325 193.191 34.0378Z" fill="white"/>
<path d="M198.18 20.5312L198.772 19.2624L198.18 20.5312ZM216.654 72.0117L217.903 72.6445L217.913 72.6241L217.923 72.6034L216.654 72.0117ZM169.992 83.465L169.147 84.5813L169.387 84.7628L169.68 84.8298L169.992 83.465ZM148.454 40.2097L147.186 39.618L147.176 39.6387L147.167 39.6597L148.454 40.2097ZM193.191 34.0378L193.782 32.769L193.782 32.769L193.191 34.0378ZM154.829 48.0718L153.56 47.4801L153.517 47.5714L153.488 47.6679L154.829 48.0718ZM171.891 79.7161L170.78 80.568L171.224 81.1468L171.952 81.1147L171.891 79.7161ZM206.851 72.3303L208.022 73.0975L208.077 73.0132L208.12 72.9219L206.851 72.3303ZM198.18 20.5312L197.588 21.8001C208.238 26.766 214.836 34.4896 217.715 43.2529C220.6 52.033 219.789 61.977 215.385 71.4201L216.654 72.0117L217.923 72.6034C222.587 62.6005 223.51 51.92 220.375 42.379C217.235 32.8214 210.063 24.5277 198.772 19.2624L198.18 20.5312ZM216.654 72.0117L215.405 71.379C213.046 76.0351 210.457 79.2878 207.608 81.5068C204.77 83.7173 201.607 84.955 198.01 85.4841C190.71 86.5578 181.746 84.7157 170.304 82.1002L169.992 83.465L169.68 84.8298C180.981 87.413 190.496 89.4194 198.417 88.2543C202.43 87.664 206.061 86.2605 209.329 83.7159C212.585 81.1798 215.411 77.5634 217.903 72.6445L216.654 72.0117ZM169.992 83.465L170.837 82.3487C161.478 75.2645 154.222 69.5423 150.272 63.2187C148.326 60.1013 147.203 56.8626 147.045 53.2554C146.886 49.6355 147.693 45.5555 149.742 40.7597L148.454 40.2097L147.167 39.6597C144.999 44.7348 144.065 49.2371 144.247 53.3783C144.43 57.5321 145.731 61.2333 147.898 64.7019C152.175 71.5504 159.904 77.5849 169.147 84.5813L169.992 83.465ZM148.454 40.2097L149.723 40.8014C154.147 31.3157 160.874 24.1254 169.054 20.5228C177.203 16.9339 186.945 16.837 197.588 21.8001L198.18 20.5312L198.772 19.2624C187.474 13.9941 176.887 14.0137 167.925 17.9603C158.995 21.8934 151.83 29.6579 147.186 39.618L148.454 40.2097ZM193.191 34.0378L193.782 32.769C184.976 28.6625 176.918 27.9239 169.988 30.5276C163.064 33.1288 157.529 38.9676 153.56 47.4801L154.829 48.0718L156.097 48.6635C159.861 40.5927 164.935 35.4173 170.973 33.1487C177.004 30.8825 184.261 31.4186 192.599 35.3067L193.191 34.0378ZM154.829 48.0718L153.488 47.6679C152.128 52.1815 151.701 55.6076 152.141 58.4554C152.59 61.3579 153.915 63.5096 155.743 65.4991C157.503 67.4157 159.88 69.3244 162.379 71.5738C164.929 73.8699 167.792 76.6714 170.78 80.568L171.891 79.7161L173.002 78.8642C169.875 74.7873 166.881 71.8592 164.252 69.4929C161.572 67.0798 159.447 65.3932 157.805 63.6049C156.229 61.8894 155.248 60.2264 154.908 58.0278C154.56 55.7745 154.862 52.813 156.169 48.4757L154.829 48.0718ZM171.891 79.7161L171.952 81.1147C176.859 80.8991 180.831 81.284 184.207 81.7512C187.514 82.209 190.473 82.7883 193.045 82.8903C195.718 82.9963 198.187 82.6104 200.673 81.0755C203.109 79.5713 205.441 77.037 208.022 73.0975L206.851 72.3303L205.68 71.563C203.195 75.3557 201.134 77.5005 199.202 78.693C197.32 79.8548 195.447 80.1834 193.156 80.0925C190.764 79.9976 188.138 79.4687 184.59 78.9777C181.112 78.4962 176.961 78.0919 171.829 78.3174L171.891 79.7161ZM206.851 72.3303L208.12 72.9219C212.085 64.4184 213.067 56.4566 210.674 49.5075C208.277 42.5474 202.589 36.8758 193.782 32.769L193.191 34.0378L192.599 35.3067C200.937 39.1946 205.946 44.3775 208.026 50.4191C210.111 56.4716 209.35 63.6588 205.582 71.7386L206.851 72.3303Z" fill="#848484" mask="url(#path-39-inside-1_369_1453)"/>
</mask>
<g mask="url(#mask0_369_1453)">
<path d="M198.18 20.5312C220.121 30.7625 225.722 52.5658 216.654 72.0117C206.952 91.1619 192.735 88.6637 169.992 83.465C151.39 69.3845 140.021 59.9515 148.454 40.2097C157.522 20.764 176.239 10.3 198.18 20.5312ZM193.191 34.0378C176.046 26.0433 162.562 31.4885 154.829 48.0718C149.495 65.7735 159.661 63.7691 171.891 79.7161C191.968 78.8336 196.719 87.7946 206.851 72.3303C214.584 55.7469 210.336 42.0325 193.191 34.0378Z" fill="#353A82"/>
<path d="M170.863 23.6265C171.563 23.9536 171.535 25.4967 170.8 27.0731C170.065 28.6494 168.901 29.6623 168.201 29.3361C167.5 29.0093 167.527 27.4665 168.262 25.8899C168.998 24.3132 170.162 23.2997 170.863 23.6265ZM174.035 25.1057C174.735 25.4327 174.707 26.9758 173.972 28.5523C173.237 30.1286 172.073 31.1416 171.373 30.8152C170.672 30.4885 170.699 28.9456 171.434 27.3691C172.17 25.7924 173.334 24.7789 174.035 25.1057ZM177.207 26.5848C177.908 26.9119 177.879 28.455 177.144 30.0315C176.409 31.6078 175.245 32.6208 174.545 32.2944C173.844 31.9676 173.871 30.4248 174.606 28.8482C175.342 27.2715 176.506 26.2581 177.207 26.5848Z" fill="#DFDFDF"/>
<path d="M155.301 27.1833C156.002 27.5105 155.973 29.0535 155.238 30.63C154.503 32.2062 153.34 33.2191 152.639 32.8929C151.938 32.5661 151.966 31.0233 152.701 29.4467C153.436 27.87 154.601 26.8566 155.301 27.1833ZM158.473 28.6625C159.174 28.9894 159.146 30.5326 158.41 32.1091C157.675 33.6855 156.512 34.6985 155.811 34.3721C155.11 34.0453 155.138 32.5025 155.873 30.9259C156.608 29.3492 157.773 28.3357 158.473 28.6625ZM161.646 30.1417C162.346 30.4686 162.318 32.0117 161.582 33.5883C160.847 35.1647 159.684 36.1777 158.983 35.8512C158.282 35.5245 158.31 33.9816 159.045 32.4051C159.78 30.8283 160.945 29.8149 161.646 30.1417Z" fill="#DFDFDF"/>
<path d="M151.33 41.506C151.714 42.1769 150.802 43.4218 149.293 44.2869C147.784 45.1518 146.25 45.3096 145.865 44.6392C145.48 43.9685 146.392 42.7232 147.901 41.8579C149.41 40.9927 150.946 40.8352 151.33 41.506ZM153.071 44.5424C153.455 45.2133 152.543 46.4582 151.034 47.3233C149.525 48.1883 147.99 48.3461 147.606 47.6756C147.221 47.0049 148.132 45.7596 149.641 44.8944C151.151 44.0291 152.686 43.8717 153.071 44.5424ZM154.812 47.5789C155.196 48.2497 154.284 49.4947 152.775 50.3598C151.266 51.2247 149.731 51.3825 149.346 50.7121C148.962 50.0413 149.873 48.796 151.382 47.9308C152.891 47.0656 154.427 46.9081 154.812 47.5789Z" fill="#DFDFDF"/>
<path d="M159.636 65.6233C160.02 66.2941 159.108 67.5391 157.599 68.4042C156.09 69.2691 154.555 69.4268 154.171 68.7565C153.786 68.0857 154.697 66.8404 156.206 65.9752C157.716 65.11 159.251 64.9525 159.636 65.6233ZM161.377 68.6597C161.761 69.3305 160.849 70.5755 159.34 71.4406C157.831 72.3055 156.296 72.4634 155.911 71.7929C155.527 71.1222 156.438 69.8769 157.947 69.0116C159.456 68.1464 160.992 67.9889 161.377 68.6597ZM163.117 71.6961C163.502 72.367 162.589 73.6119 161.08 74.477C159.571 75.342 158.037 75.4998 157.652 74.8293C157.267 74.1586 158.179 72.9133 159.688 72.0481C161.197 71.1828 162.733 71.0253 163.117 71.6961Z" fill="#DFDFDF"/>
<path d="M180.014 16.9885C180.787 16.9728 181.443 18.3698 181.479 20.1089C181.515 21.8477 180.919 23.2702 180.146 23.2869C179.373 23.3031 178.716 21.9067 178.68 20.1676C178.643 18.4282 179.241 17.0047 180.014 16.9885ZM183.513 16.9151C184.286 16.8991 184.942 18.2963 184.978 20.0355C185.015 21.7746 184.418 23.1972 183.645 23.2135C182.872 23.2298 182.216 21.8334 182.179 20.0942C182.143 18.3549 182.74 16.9313 183.513 16.9151ZM187.012 16.8418C187.785 16.8256 188.442 18.2228 188.478 19.9621C188.515 21.7013 187.917 23.1239 187.144 23.1402C186.371 23.1564 185.715 21.76 185.678 20.0208C185.642 18.2815 186.239 16.858 187.012 16.8418Z" fill="#DFDFDF"/>
<path d="M204.86 38.1651C205.633 38.1494 206.289 39.5464 206.325 41.2854C206.362 43.0243 205.765 44.4468 204.992 44.4635C204.219 44.4797 203.563 43.0833 203.526 41.3441C203.49 39.6048 204.087 38.1813 204.86 38.1651ZM208.359 38.0917C209.132 38.0759 209.788 39.473 209.824 41.2121C209.861 42.951 209.264 44.3735 208.491 44.3901C207.718 44.4063 207.062 43.0099 207.025 41.2708C206.989 39.5315 207.586 38.1079 208.359 38.0917ZM211.859 38.0183C212.631 38.0025 213.287 39.3996 213.324 41.1387C213.36 42.8777 212.763 44.3002 211.991 44.3168C211.218 44.333 210.561 42.9366 210.524 41.1974C210.488 39.4581 211.085 38.0346 211.859 38.0183Z" fill="#DFDFDF"/>
<path d="M200.965 21.6737C201.737 21.658 202.393 23.055 202.43 24.7941C202.466 26.5329 201.869 27.9554 201.097 27.9721C200.324 27.9883 199.667 26.5919 199.63 24.8527C199.594 23.1134 200.192 21.6899 200.965 21.6737ZM204.464 21.6003C205.237 21.5845 205.892 22.9816 205.929 24.7207C205.965 26.4596 205.369 27.8821 204.596 27.8987C203.823 27.915 203.166 26.5185 203.13 24.7794C203.093 23.0401 203.691 21.6165 204.464 21.6003ZM207.963 21.527C208.736 21.5111 209.392 22.9082 209.428 24.6473C209.465 26.3863 208.868 27.8088 208.095 27.8254C207.322 27.8416 206.665 26.4452 206.629 24.706C206.592 22.9667 207.19 21.5432 207.963 21.527Z" fill="#DFDFDF"/>
<path d="M203.22 69.8397C203.993 69.824 204.649 71.221 204.685 72.9601C204.721 74.6989 204.125 76.1214 203.352 76.1381C202.579 76.1543 201.922 74.7579 201.886 73.0187C201.849 71.2794 202.447 69.8559 203.22 69.8397ZM206.719 69.7663C207.492 69.7504 208.148 71.1476 208.184 72.8867C208.221 74.6257 207.624 76.0482 206.851 76.0647C206.078 76.081 205.422 74.6845 205.385 72.9454C205.349 71.2061 205.946 69.7825 206.719 69.7663ZM210.218 69.693C210.991 69.677 211.647 71.0742 211.684 72.8133C211.72 74.5523 211.123 75.9749 210.35 75.9914C209.577 76.0076 208.921 74.6112 208.884 72.872C208.848 71.1327 209.445 69.7092 210.218 69.693Z" fill="#DFDFDF"/>
<path d="M215.936 52.9113C216.476 53.4638 215.907 54.8984 214.664 56.1156C213.422 57.3326 211.977 57.8717 211.435 57.3199C210.894 56.7676 211.463 55.3329 212.705 54.1156C213.948 52.8981 215.394 52.359 215.936 52.9113ZM218.385 55.4115C218.926 55.9639 218.356 57.3985 217.114 58.6158C215.871 59.8329 214.426 60.3721 213.885 59.8201C213.344 59.2678 213.912 57.8331 215.154 56.6158C216.397 55.3983 217.844 54.8592 218.385 55.4115ZM220.834 57.9117C221.375 58.4641 220.806 59.8987 219.563 61.116C218.32 62.3331 216.875 62.8724 216.334 62.3203C215.793 61.768 216.361 60.3333 217.604 59.116C218.846 57.8986 220.293 57.3594 220.834 57.9117Z" fill="#DFDFDF"/>
<path d="M196.026 80.7008C196.566 81.2533 195.997 82.6878 194.755 83.905C193.512 85.1221 192.067 85.6611 191.526 85.1093C190.985 84.557 191.553 83.1224 192.795 81.905C194.038 80.6876 195.485 80.1484 196.026 80.7008ZM198.475 83.201C199.016 83.7535 198.447 85.188 197.204 86.4052C195.962 87.6223 194.516 88.1614 193.975 87.6095C193.434 87.0572 194.002 85.6226 195.245 84.4052C196.487 83.1878 197.934 82.6486 198.475 83.201ZM200.924 85.7012C201.465 86.2537 200.896 87.6882 199.653 88.9055C198.411 90.1225 196.965 90.6616 196.424 90.1097C195.883 89.5574 196.451 88.1228 197.694 86.9054C198.937 85.688 200.383 85.1488 200.924 85.7012Z" fill="#DFDFDF"/>
<path d="M173.104 78.5085C173.645 79.061 173.076 80.4956 171.833 81.7128C170.591 82.9298 169.146 83.4689 168.604 82.9171C168.063 82.3648 168.631 80.9301 169.874 79.7128C171.117 78.4953 172.563 77.9562 173.104 78.5085ZM175.554 81.0087C176.095 81.5611 175.525 82.9957 174.283 84.213C173.04 85.4301 171.595 85.9693 171.054 85.4173C170.513 84.865 171.081 83.4303 172.323 82.213C173.566 80.9955 175.013 80.4564 175.554 81.0087ZM178.003 83.5089C178.544 84.0613 177.975 85.4959 176.732 86.7132C175.489 87.9303 174.044 88.4696 173.503 87.9175C172.962 87.3652 173.53 85.9305 174.773 84.7132C176.015 83.4958 177.462 82.9566 178.003 83.5089Z" fill="#DFDFDF"/>
<path d="M191.095 25.7798C191.672 26.2939 191.203 27.7642 190.047 29.0639C188.891 30.3634 187.486 31.0005 186.908 30.4872C186.33 29.9733 186.799 28.5031 187.955 27.2032C189.111 25.9033 190.517 25.266 191.095 25.7798ZM193.71 28.1059C194.287 28.6199 193.818 30.0902 192.662 31.3899C191.506 32.6895 190.101 33.3266 189.523 32.8132C188.946 32.2994 189.414 30.8291 190.57 29.5292C191.726 28.2293 193.132 27.592 193.71 28.1059ZM196.325 30.4313C196.902 30.9451 196.433 32.416 195.277 33.716C194.121 35.0157 192.715 35.6524 192.138 35.1386C191.561 34.6245 192.029 33.1549 193.185 31.8553C194.341 30.5556 195.747 29.9179 196.325 30.4313Z" fill="#DFDFDF"/>
<mask id="path-54-inside-2_369_1453" fill="white">
<path d="M198.18 20.5312C220.121 30.7625 225.722 52.5658 216.654 72.0117C206.952 91.1619 192.735 88.6637 169.992 83.465C151.39 69.3845 140.021 59.9515 148.454 40.2097C157.522 20.764 176.239 10.3 198.18 20.5312ZM193.191 34.0378C176.046 26.0433 162.562 31.4885 154.829 48.0718C149.495 65.7735 159.661 63.7691 171.891 79.7161C191.968 78.8336 196.719 87.7946 206.851 72.3303C214.584 55.7469 210.336 42.0325 193.191 34.0378Z"/>
</mask>
<path d="M198.18 20.5312L198.772 19.2624L198.18 20.5312ZM216.654 72.0117L217.903 72.6445L217.913 72.6241L217.923 72.6034L216.654 72.0117ZM169.992 83.465L169.147 84.5813L169.387 84.7628L169.68 84.8298L169.992 83.465ZM148.454 40.2097L147.186 39.618L147.176 39.6387L147.167 39.6597L148.454 40.2097ZM193.191 34.0378L193.782 32.769L193.782 32.769L193.191 34.0378ZM154.829 48.0718L153.56 47.4801L153.517 47.5714L153.488 47.6679L154.829 48.0718ZM171.891 79.7161L170.78 80.568L171.224 81.1468L171.952 81.1147L171.891 79.7161ZM206.851 72.3303L208.022 73.0975L208.077 73.0132L208.12 72.9219L206.851 72.3303ZM198.18 20.5312L197.588 21.8001C208.238 26.766 214.836 34.4896 217.715 43.2529C220.6 52.033 219.789 61.977 215.385 71.4201L216.654 72.0117L217.923 72.6034C222.587 62.6005 223.51 51.92 220.375 42.379C217.235 32.8214 210.063 24.5277 198.772 19.2624L198.18 20.5312ZM216.654 72.0117L215.405 71.379C213.046 76.0351 210.457 79.2878 207.608 81.5068C204.77 83.7173 201.607 84.955 198.01 85.4841C190.71 86.5578 181.746 84.7157 170.304 82.1002L169.992 83.465L169.68 84.8298C180.981 87.413 190.496 89.4194 198.417 88.2543C202.43 87.664 206.061 86.2605 209.329 83.7159C212.585 81.1798 215.411 77.5634 217.903 72.6445L216.654 72.0117ZM169.992 83.465L170.837 82.3487C161.478 75.2645 154.222 69.5423 150.272 63.2187C148.326 60.1013 147.203 56.8626 147.045 53.2554C146.886 49.6355 147.693 45.5555 149.742 40.7597L148.454 40.2097L147.167 39.6597C144.999 44.7348 144.065 49.2371 144.247 53.3783C144.43 57.5321 145.731 61.2333 147.898 64.7019C152.175 71.5504 159.904 77.5849 169.147 84.5813L169.992 83.465ZM148.454 40.2097L149.723 40.8014C154.147 31.3157 160.874 24.1254 169.054 20.5228C177.203 16.9339 186.945 16.837 197.588 21.8001L198.18 20.5312L198.772 19.2624C187.474 13.9941 176.887 14.0137 167.925 17.9603C158.995 21.8934 151.83 29.6579 147.186 39.618L148.454 40.2097ZM193.191 34.0378L193.782 32.769C184.976 28.6625 176.918 27.9239 169.988 30.5276C163.064 33.1288 157.529 38.9676 153.56 47.4801L154.829 48.0718L156.097 48.6635C159.861 40.5927 164.935 35.4173 170.973 33.1487C177.004 30.8825 184.261 31.4186 192.599 35.3067L193.191 34.0378ZM154.829 48.0718L153.488 47.6679C152.128 52.1815 151.701 55.6076 152.141 58.4554C152.59 61.3579 153.915 63.5096 155.743 65.4991C157.503 67.4157 159.88 69.3244 162.379 71.5738C164.929 73.8699 167.792 76.6714 170.78 80.568L171.891 79.7161L173.002 78.8642C169.875 74.7873 166.881 71.8592 164.252 69.4929C161.572 67.0798 159.447 65.3932 157.805 63.6049C156.229 61.8894 155.248 60.2264 154.908 58.0278C154.56 55.7745 154.862 52.813 156.169 48.4757L154.829 48.0718ZM171.891 79.7161L171.952 81.1147C176.859 80.8991 180.831 81.284 184.207 81.7512C187.514 82.209 190.473 82.7883 193.045 82.8903C195.718 82.9963 198.187 82.6104 200.673 81.0755C203.109 79.5713 205.441 77.037 208.022 73.0975L206.851 72.3303L205.68 71.563C203.195 75.3557 201.134 77.5005 199.202 78.693C197.32 79.8548 195.447 80.1834 193.156 80.0925C190.764 79.9976 188.138 79.4687 184.59 78.9777C181.112 78.4962 176.961 78.0919 171.829 78.3174L171.891 79.7161ZM206.851 72.3303L208.12 72.9219C212.085 64.4184 213.067 56.4566 210.674 49.5075C208.277 42.5474 202.589 36.8758 193.782 32.769L193.191 34.0378L192.599 35.3067C200.937 39.1946 205.946 44.3775 208.026 50.4191C210.111 56.4716 209.35 63.6588 205.582 71.7386L206.851 72.3303Z" fill="#060040" mask="url(#path-54-inside-2_369_1453)"/>
</g>
</g>
<defs>
<filter id="filter0_d_369_1453" x="0" y="6.54286" width="234" height="167.457" filterUnits="userSpaceOnUse" color-interpolation-filters="sRGB">
<feFlood flood-opacity="0" result="BackgroundImageFix"/>
<feColorMatrix in="SourceAlpha" type="matrix" values="0 0 0 0 0 0 0 0 0 0 0 0 0 0 0 0 0 0 127 0" result="hardAlpha"/>
<feOffset dy="2"/>
<feGaussianBlur stdDeviation="1"/>
<feComposite in2="hardAlpha" operator="out"/>
<feColorMatrix type="matrix" values="0 0 0 0 0 0 0 0 0 0 0 0 0 0 0 0 0 0 0.2 0"/>
<feBlend mode="normal" in2="BackgroundImageFix" result="effect1_dropShadow_369_1453"/>
<feBlend mode="normal" in="SourceGraphic" in2="effect1_dropShadow_369_1453" result="shape"/>
</filter>
</defs>
</svg>
