<svg width="251" height="188" viewBox="0 0 251 188" fill="none" xmlns="http://www.w3.org/2000/svg">
<g filter="url(#filter0_d_369_848)">
<path d="M100.021 78.8699C122.333 67.971 147.866 77.507 157.182 86.5929C166.497 95.6787 164.551 112.615 168.923 108.733C173.296 104.852 184.935 104.157 197.061 107.163C211.611 110.771 224.719 115.795 229.571 124.427C234.423 133.058 231.512 141.69 225.204 156.681C218.896 171.673 199.007 176.775 199.007 176.775C199.007 176.775 178.62 180.49 173.77 174.853C168.92 169.216 164.059 181.478 135.443 183.357C106.826 185.236 93.221 174.304 89.8258 171.673C86.4307 169.042 80.1145 171.863 63.6237 177.124C47.1328 182.386 30.1431 164.404 27.717 166.221C25.2909 168.039 12.6781 170.104 6.37277 162.587C0.0674546 155.071 1.0375 145.225 6.37277 138.836C10.9865 133.311 27.5447 134.235 31.9388 134.586C30.7898 133.459 28.8808 131.426 25.7818 127.933C15.1113 115.907 37.4289 100.816 41.309 99.3131C45.1891 97.8097 52.4717 95.6787 58.2919 95.6787C64.1121 95.6787 81.0975 99.3131 81.0975 99.3131C81.0975 99.3131 77.7103 89.7689 100.021 78.8699Z" fill="white"/>
<path d="M229.674 125.043C234.378 133.612 231.465 142.226 225.203 157.109C218.91 172.066 199.098 177.178 199.007 177.201C199.007 177.201 178.619 180.917 173.769 175.279C168.918 169.643 164.058 181.905 135.442 183.784C106.826 185.663 93.2206 174.731 89.8252 172.1C86.43 169.469 80.1137 172.289 63.623 177.551C47.1322 182.813 30.1419 164.831 27.7158 166.649C25.2888 168.466 12.6771 170.53 6.37207 163.014C4.01114 160.199 2.67094 157.058 2.19727 153.895C3.07911 156.029 4.15184 157.924 5.39648 159.407C11.7018 166.924 25.2907 163.041 27.7168 161.224C30.1433 159.407 46.1628 176.026 62.6533 170.765C79.1441 165.503 79.1527 161.32 82.5479 163.95C85.9438 166.582 100.514 180.821 129.129 178.942C157.745 177.062 165.037 163.31 169.888 168.947C174.738 174.585 205.795 169.856 205.795 169.856C205.857 169.82 219.395 162.098 225.688 147.141C229.357 138.423 230.398 131.232 229.674 125.043Z" fill="#CDF5FD"/>
<path d="M188.104 14.6137L201.373 28.3742L222.35 30.5701L225.668 30.9168L222.75 32.5322L216.188 36.1647L233.573 44.622L232.954 46.6046L226.031 45.5402L231.403 60.9539L231.462 61.1223L231.461 61.301L231.444 72.1059L231.441 74.1192L229.792 72.9645L222.622 67.9413L226.73 79.2315L226.812 79.4547L226.789 79.6909L225.693 91.1513L225.53 92.8561L224.085 91.9379L218.769 88.5605L218.278 100.38L218.274 100.487L218.248 100.59L214.721 114.779L214.402 116.064L213.223 115.46L206.161 111.842L203.692 134.203L203.424 136.631L201.847 134.766L197.244 129.324L197.315 141.146L197.316 141.329L197.255 141.503L193.622 151.779L192.815 154.062L191.699 151.913L189.491 147.66L187.072 148.619C182.879 152.029 176.683 152.875 171.148 150.294C167.176 148.442 164.338 145.196 163.021 141.514L161.871 140.955C158.197 142.323 153.876 142.24 149.895 140.383C145.948 138.543 143.12 135.325 141.792 131.671C138.139 133.002 133.857 132.905 129.91 131.064C125.603 129.056 122.629 125.409 121.481 121.343L121.328 121.27L120.884 121.054L120.766 120.573L119.41 114.991L114.921 115.759L112.945 116.097L117.875 105.525L118.03 105.384L126.656 97.5114L121.637 96.2893L119.963 95.8807L121.092 94.5807L135.208 78.3099L129.123 75.4725L129.643 74.495L135.898 62.7363L136.004 62.5377L136.183 62.3991L145.85 54.9153L145.455 53.829L140.473 52.5522L138.694 52.0967L139.99 50.7947L149.438 41.2984L149.611 41.1246L149.843 41.0453L159.155 37.8527L150.768 35.3478L148.448 34.6549L150.539 33.4343L172.304 20.7377L169.165 16.783L166.693 13.6678L170.381 15.1569L187.218 21.9537L186.307 15.4894L185.855 12.2831L188.104 14.6137Z" fill="#6D4710"/>
<path d="M186.331 12.1864L189.974 14.8043C194.643 18.1612 198.388 22.6405 200.867 27.825C200.926 27.8546 200.983 27.8908 201.037 27.9326L203.143 29.5502C203.145 29.5496 203.147 29.5492 203.149 29.5487C208.826 28.0169 214.802 27.9739 220.501 29.425L224.848 30.533L227.683 31.2551L225.036 32.5L217.708 35.9468C224.85 38.1231 231.52 41.8001 237.147 46.7199L240.027 49.2386L236.265 48.5436L228.372 47.0859L229.096 49.4311C231.267 56.4508 232.337 63.7649 232.265 71.1123L232.248 72.8757L232.229 74.8571L230.6 73.7277L224.088 69.2138C226.413 74.2559 227.327 79.8678 226.686 85.4416L225.882 92.4189L225.673 94.2329L224.211 93.1404L219.449 89.5814C220.274 95.6614 219.576 101.867 217.399 107.633L214.537 115.214L214.137 116.273L207.148 113.014C205.093 118.475 204.038 124.266 204.038 130.107L204.038 135.018L204.038 137.607L202.235 135.749L198.868 132.28C199.197 139.521 197.351 146.712 193.547 152.915L193.253 153.396L192.227 155.069L191.404 153.287L189.331 148.79L181.532 152.019C176.88 153.945 171.547 153.101 167.715 149.847L131.827 132.73C131.78 132.708 131.736 132.681 131.694 132.653C126.721 131.821 122.629 128.271 121.11 123.457L118.57 115.408L113.793 116.711L111.899 117.226L112.521 115.364L112.701 114.829C115.007 107.929 119.329 101.893 125.088 97.4897L120.266 97.1408L118.44 97.009L119.475 95.4996L121.601 92.4038C125.04 87.3928 129.108 82.8427 133.705 78.8671L134.07 78.5513L127.534 75.5038L128.089 74.517L132.056 67.4515C135.074 62.0773 139.38 57.5539 144.567 54.278L138.78 52.9175L137.003 52.4995L138.258 51.1733L143.087 46.073C146.944 41.9989 151.831 39.0923 157.188 37.6322L149.544 35.5452L147.632 35.0229L149.138 33.7349L150.477 32.5881C156.06 27.8108 162.35 23.9286 169.123 21.0794L171.385 20.1268L165.195 15.0174L162.244 12.5823L166.025 13.1698C173.411 14.3179 180.515 17.0632 186.773 21.1355L184.703 13.3065L183.955 10.4784L186.331 12.1864ZM189.528 23.3416L190.284 26.2058L187.893 24.4585C182.467 20.4934 176.266 17.6192 169.742 16.0461L174.061 19.612L175.4 20.7166L173.8 21.3898L169.937 23.0149C163.432 25.7514 157.387 29.4712 152.012 34.0417L162.088 36.7932L161.932 38.8496C155.32 39.6156 149.189 42.6841 144.613 47.5172L141.038 51.2909L147.614 52.8378L150.321 53.4742L147.869 54.7851C141.998 57.9236 137.146 62.6756 133.887 68.4797L130.474 74.558L137.896 78.019L136.67 79.0796L135.079 80.4561C130.618 84.3141 126.67 88.7289 123.332 93.5916L122.243 95.1784L128.263 95.6147L131.538 95.8525L128.732 97.5596L127.681 98.1969C121.985 102.136 117.628 107.706 115.17 114.158L118.992 113.117L119.966 112.852L120.269 113.815L123.113 122.826C124.403 126.914 127.892 129.924 132.126 130.598C132.285 130.624 132.431 130.685 132.555 130.771C132.614 130.787 132.673 130.808 132.73 130.835L169.062 148.162C169.274 148.264 169.436 148.428 169.538 148.621C172.727 151.053 176.989 151.626 180.728 150.078L189.459 146.464L190.392 146.078L190.815 146.994L192.474 150.591C195.837 144.561 197.303 137.643 196.659 130.747L196.472 129.533L195.976 126.286L198.263 128.642L201.938 132.428L201.938 130.107C201.938 123.627 203.182 117.207 205.601 111.196L206.016 110.169L212.972 113.413L215.435 106.892C217.786 100.664 218.307 93.893 216.938 87.3786L216.366 84.6571L218.594 86.3219L224.005 90.3648L224.599 85.2011C225.36 78.5889 223.769 71.9197 220.106 66.3626L221.581 64.9212L230.166 70.8713C230.211 63.8154 229.175 56.7935 227.09 50.0516L225.852 46.0477L225.34 44.3897L227.046 44.7048L232.554 45.7217C227.156 41.7352 220.968 38.8327 214.443 37.2244L211.567 36.5161L214.247 35.2541L221.496 31.8449L219.983 31.4602C214.634 30.0982 209.024 30.1385 203.696 31.5762C203.644 31.5902 203.591 31.5978 203.54 31.6037C203.176 31.8468 202.683 31.8451 202.317 31.5637L199.794 29.6264C199.511 29.5456 199.262 29.3485 199.128 29.0604C196.804 24.0543 193.229 19.7311 188.748 16.5094L187.48 15.5973L189.528 23.3416Z" fill="#2C2300"/>
<path d="M174.99 85.1907C179.144 87.0755 181.682 88.8283 183.491 91.2169C185.307 93.6133 186.414 96.6833 187.635 101.268C188.988 106.348 189.197 112.907 188.544 119.352C187.891 125.795 186.379 132.087 184.315 136.634C179.808 146.566 174.437 150.522 168.351 151.202C162.208 151.888 155.244 149.257 147.51 145.747C139.776 142.237 133.211 138.729 129.682 133.655C126.186 128.626 125.626 121.979 130.133 112.046C132.192 107.51 136.335 102.255 140.965 97.5255C145.593 92.7986 150.678 88.6268 154.592 86.2463C158.517 83.8595 161.55 82.677 164.615 82.5382C167.683 82.3994 170.831 83.3031 174.99 85.1907Z" fill="#FFE7C8" stroke="#2C2300" stroke-width="0.7"/>
<path d="M154.628 85.1748L148.608 89.586C145.715 91.7058 142.99 94.0446 140.455 96.582L139.994 97.044C137.209 99.8321 134.665 102.85 132.388 106.067L130.455 108.797L128.489 112.736C127.004 115.71 126.233 118.988 126.235 122.312C126.236 124.567 126.594 126.808 127.294 128.951L128.007 131.132" stroke="#2C2300" stroke-width="2.1" stroke-linecap="round"/>
<path d="M188.238 100.043L188.881 107.478C189.191 111.051 189.225 114.642 188.984 118.22L188.957 118.63C188.681 122.722 188.046 126.782 187.06 130.763L186.231 134.108L184.702 137.854C183.444 140.935 181.484 143.68 178.978 145.869C177.283 147.35 175.365 148.554 173.295 149.437L171.179 150.339" stroke="#2C2300" stroke-width="2.1" stroke-linecap="round"/>
<ellipse cx="126" cy="126" rx="29" ry="26" fill="white"/>
<ellipse cx="175.5" cy="137" rx="37.5" ry="26" fill="white"/>
<path d="M105 108.5C118.114 96.1731 139.145 98.5092 149.234 113.413L152 117.5L155.963 115.821C171.892 109.071 190.154 110.832 204.5 120.5" stroke="#CDF5FD" stroke-width="3" stroke-linecap="round"/>
<path d="M213.013 86.1881C205.859 101.53 191.673 96.5292 174.153 88.3598C156.634 80.1904 143.684 72.5381 150.839 57.1956C154.124 50.1503 166.043 42.0299 173.904 39.2037C181.764 36.3775 186.571 36.9938 196.046 41.4118C205.52 45.8297 208.148 48.9228 211.97 56.9542C216.247 65.9418 216.298 79.1428 213.013 86.1881Z" fill="#FFE7C8"/>
<path d="M175.211 64.5581C174.32 66.4693 172.035 67.2901 170.108 66.3915C168.181 65.4929 167.341 63.215 168.233 61.3038C169.124 59.3926 171.731 57.8797 173.658 58.7783C175.585 59.6769 176.103 62.6469 175.211 64.5581Z" fill="#1A1C1F"/>
<path d="M197.416 74.9125C196.525 76.8237 194.24 77.6446 192.313 76.7459C190.386 75.8473 189.546 73.5695 190.438 71.6583C191.329 69.747 193.936 68.2341 195.863 69.1327C197.791 70.0314 198.308 73.0013 197.416 74.9125Z" fill="#1A1C1F"/>
<ellipse cx="171.206" cy="60.7244" rx="1.05003" ry="1.40004" transform="rotate(55 171.206 60.7244)" fill="white"/>
<ellipse cx="193.141" cy="71.3252" rx="1.05003" ry="1.40004" transform="rotate(55 193.141 71.3252)" fill="white"/>
<path d="M183.484 40.182C179.968 42.2117 173.979 43.2234 172.045 39.8753C172.315 39.041 172.339 38.2489 172.34 37.4223C172.351 32.5859 175.649 26.5554 180.485 26.5724C180.635 26.5729 180.781 26.5932 180.922 26.636C185.905 28.1428 189.375 34.6923 185.792 38.4682C185.216 39.0748 184.462 39.6171 183.484 40.182Z" fill="#FFE7C8"/>
<path d="M184.477 36.4039C181.979 37.8461 177.88 40.6147 174.685 38.6218C174.678 38.2748 174.558 37.8125 174.482 37.2391C174.037 33.8496 176.83 30.3866 180.106 29.409C180.357 29.3341 180.592 29.3164 180.803 29.3758C181.059 29.4478 181.414 29.5803 181.817 29.7547C184.603 30.9583 186.34 34.0083 184.477 36.4039Z" fill="#F0BB78"/>
<path d="M205.176 50.297C205.881 54.2947 208.956 59.5334 212.763 58.8621C213.188 58.1845 213.723 57.7189 214.299 57.2794C218.145 54.3467 220.289 48.3919 217.895 44.1898C217.766 43.9634 217.604 43.7788 217.402 43.6468C212.788 40.6302 205.389 41.9806 204.976 47.4782C204.912 48.3258 204.99 49.2461 205.176 50.297Z" fill="#FFE7C8"/>
<path d="M207.046 46.8621C207.547 49.7027 208.062 54.623 211.641 55.789C211.912 55.5712 212.343 55.3665 212.831 55.0556C215.714 53.2181 216.571 48.8525 215.215 45.7146C215.111 45.4743 214.973 45.2829 214.792 45.1592C214.572 45.0094 214.242 44.8227 213.85 44.6258C211.137 43.2658 207.684 43.8958 207.046 46.8621Z" fill="#F0BB78"/>
<path d="M179.685 78.7562C178.986 78.9839 178.229 78.6311 177.954 77.9488L177.085 75.7946C176.609 74.6162 177.823 73.4648 178.975 74.0018L182.053 75.4372C183.205 75.9742 183.103 77.6442 181.894 78.0374L179.685 78.7562Z" fill="#2C2300"/>
<path d="M187.607 36.3183C189.153 31.7407 185.988 26.9284 181.173 26.5344L180.605 26.488" stroke="#2C2300" stroke-width="2.10006" stroke-linecap="round"/>
<path d="M205.371 44.6018C207.884 40.4752 213.605 39.8064 217.002 43.242L217.402 43.6468" stroke="#2C2300" stroke-width="2.10006" stroke-linecap="round"/>
<path d="M169.572 41.0389L165.961 42.5067C160.278 44.8166 155.55 48.9911 152.554 54.3441" stroke="#2C2300" stroke-width="2.10006" stroke-linecap="round"/>
<path d="M152.554 54.344C152.305 54.4278 150.475 57.8247 149.3 61.3228C147.913 65.454 149.239 69.8892 151.876 73.3585L152.306 73.9243" stroke="#2C2300" stroke-width="2.10006" stroke-linecap="round"/>
<path d="M213.348 61.4519L214.545 65.1614C216.428 70.9995 216.269 77.3047 214.094 83.0406" stroke="#2C2300" stroke-width="2.10006" stroke-linecap="round"/>
<path d="M214.094 83.0406C214.191 83.2858 212.764 86.8708 210.84 90.0194C208.567 93.7377 204.317 95.5726 199.964 95.7823L199.254 95.8165" stroke="#2C2300" stroke-width="2.10006" stroke-linecap="round"/>
<path d="M155.86 77.8985C160.435 81.8257 165.526 85.109 170.99 87.6572L173.54 88.8463L176.252 90.1107C181.822 92.7079 187.709 94.5604 193.763 95.6203L193.926 95.6489" stroke="#2C2300" stroke-width="2.10006" stroke-linecap="round"/>
<path d="M171.855 38.6277L171.966 36.6255C172.159 33.1751 174.07 30.0513 177.053 28.3075" stroke="#2C2300" stroke-width="2.10006" stroke-linecap="round"/>
<path d="M214.023 57.5188L215.428 56.3546C218.064 54.1695 219.334 50.7431 218.757 47.3679" stroke="#2C2300" stroke-width="2.10006" stroke-linecap="round"/>
<path d="M187.015 37.5871C193.299 39.4927 199.28 42.2818 204.779 45.8707" stroke="#2C2300" stroke-width="2.10006" stroke-linecap="round"/>
<ellipse cx="163.406" cy="67.5142" rx="4.55013" ry="2.45007" transform="rotate(25 163.406 67.5142)" fill="#F0BB78"/>
<ellipse cx="197.031" cy="83.1937" rx="4.55013" ry="2.45007" transform="rotate(25 197.031 83.1937)" fill="#F0BB78"/>
<path d="M142.41 101.253C144.57 102.37 146.156 104.01 146.997 105.714C147.839 107.419 147.911 109.119 147.204 110.487C146.496 111.855 145.067 112.778 143.189 113.077C141.312 113.375 139.057 113.029 136.897 111.911C134.737 110.794 133.152 109.154 132.31 107.45C131.469 105.745 131.396 104.045 132.104 102.677C132.811 101.309 134.241 100.386 136.118 100.087C137.996 99.7888 140.25 100.135 142.41 101.253Z" fill="#FFE7C8" stroke="#2C2300" stroke-width="2"/>
<path d="M182.275 107.578C184.703 107.726 186.816 108.584 188.275 109.803C189.734 111.022 190.487 112.548 190.393 114.085C190.3 115.622 189.366 117.045 187.769 118.077C186.173 119.109 183.971 119.704 181.543 119.555C179.116 119.407 177.003 118.549 175.544 117.33C174.085 116.111 173.331 114.585 173.425 113.048C173.519 111.511 174.453 110.089 176.049 109.056C177.646 108.024 179.848 107.429 182.275 107.578Z" fill="#FFE7C8" stroke="#2C2300" stroke-width="2"/>
<path d="M164.544 94.2426C165.802 93.7846 167.227 93.6395 168.367 93.7176C168.938 93.7568 169.407 93.8501 169.731 93.9683C169.894 94.0274 169.998 94.0849 170.057 94.1284C170.065 94.1345 170.071 94.1406 170.076 94.1451C170.079 94.1732 170.082 94.2229 170.078 94.2983C170.07 94.4327 170.042 94.6099 169.988 94.8226C169.88 95.2478 169.678 95.7685 169.384 96.3C168.787 97.3783 167.873 98.388 166.73 98.8041C165.365 99.3009 163.291 100.049 161.522 100.56C160.632 100.817 159.852 101.005 159.288 101.076C159.185 101.089 159.095 101.096 159.018 101.101C159.081 100.909 159.18 100.669 159.314 100.386C159.633 99.7118 160.123 98.8657 160.712 98.0096C161.301 97.1538 161.977 96.3058 162.66 95.6181C163.356 94.9177 164.008 94.4376 164.544 94.2426Z" fill="white" stroke="#848484" stroke-width="1.4"/>
<path d="M174.092 97.9227C173.634 96.6642 172.829 95.4797 172.036 94.6563C171.639 94.2439 171.266 93.9448 170.967 93.7723C170.818 93.686 170.707 93.6431 170.636 93.6259C170.626 93.6235 170.617 93.6229 170.61 93.6217C170.587 93.6376 170.547 93.667 170.492 93.7188C170.394 93.8113 170.276 93.9464 170.148 94.1246C169.892 94.4809 169.622 94.9702 169.404 95.5373C168.962 96.6877 168.776 98.0367 169.192 99.1801C169.689 100.545 170.449 102.614 171.194 104.298C171.569 105.145 171.928 105.863 172.235 106.341C172.291 106.428 172.344 106.502 172.39 106.564C172.496 106.393 172.617 106.162 172.747 105.878C173.059 105.2 173.392 104.281 173.669 103.279C173.946 102.278 174.161 101.215 174.249 100.25C174.338 99.2663 174.287 98.4586 174.092 97.9227Z" fill="white" stroke="#848484" stroke-width="1.4"/>
<mask id="mask0_369_848" style="mask-type:alpha" maskUnits="userSpaceOnUse" x="145" y="28" width="76" height="72">
<mask id="path-37-inside-1_369_848" fill="white">
<path d="M198.18 32.5312C220.121 42.7625 225.722 64.5658 216.654 84.0117C206.952 103.162 192.735 100.664 169.992 95.465C151.39 81.3845 140.021 71.9515 148.454 52.2097C157.522 32.764 176.239 22.3 198.18 32.5312ZM193.191 46.0378C176.046 38.0433 162.562 43.4885 154.829 60.0718C149.495 77.7736 159.661 75.7691 171.891 91.7161C191.968 90.8336 196.719 99.7947 206.851 84.3303C214.584 67.7469 210.336 54.0325 193.191 46.0378Z"/>
</mask>
<path d="M198.18 32.5312C220.121 42.7625 225.722 64.5658 216.654 84.0117C206.952 103.162 192.735 100.664 169.992 95.465C151.39 81.3845 140.021 71.9515 148.454 52.2097C157.522 32.764 176.239 22.3 198.18 32.5312ZM193.191 46.0378C176.046 38.0433 162.562 43.4885 154.829 60.0718C149.495 77.7736 159.661 75.7691 171.891 91.7161C191.968 90.8336 196.719 99.7947 206.851 84.3303C214.584 67.7469 210.336 54.0325 193.191 46.0378Z" fill="white"/>
<path d="M198.18 32.5312L198.772 31.2624L198.18 32.5312ZM216.654 84.0117L217.903 84.6445L217.913 84.6241L217.923 84.6034L216.654 84.0117ZM169.992 95.465L169.147 96.5813L169.387 96.7628L169.68 96.8298L169.992 95.465ZM148.454 52.2097L147.186 51.618L147.176 51.6387L147.167 51.6597L148.454 52.2097ZM193.191 46.0378L193.782 44.769L193.782 44.769L193.191 46.0378ZM154.829 60.0718L153.56 59.4801L153.517 59.5714L153.488 59.6679L154.829 60.0718ZM171.891 91.7161L170.78 92.568L171.224 93.1468L171.952 93.1147L171.891 91.7161ZM206.851 84.3303L208.022 85.0975L208.077 85.0132L208.12 84.9219L206.851 84.3303ZM198.18 32.5312L197.588 33.8001C208.238 38.766 214.836 46.4896 217.715 55.2529C220.6 64.033 219.789 73.977 215.385 83.4201L216.654 84.0117L217.923 84.6034C222.587 74.6005 223.51 63.92 220.375 54.379C217.235 44.8214 210.063 36.5277 198.772 31.2624L198.18 32.5312ZM216.654 84.0117L215.405 83.379C213.046 88.0351 210.457 91.2878 207.608 93.5068C204.77 95.7173 201.607 96.955 198.01 97.4841C190.71 98.5578 181.746 96.7157 170.304 94.1002L169.992 95.465L169.68 96.8298C180.981 99.413 190.496 101.419 198.417 100.254C202.43 99.664 206.061 98.2605 209.329 95.7159C212.585 93.1798 215.411 89.5634 217.903 84.6445L216.654 84.0117ZM169.992 95.465L170.837 94.3487C161.478 87.2645 154.222 81.5423 150.272 75.2187C148.326 72.1013 147.203 68.8626 147.045 65.2554C146.886 61.6355 147.693 57.5555 149.742 52.7597L148.454 52.2097L147.167 51.6597C144.999 56.7348 144.065 61.2371 144.247 65.3783C144.43 69.5321 145.731 73.2333 147.898 76.7019C152.175 83.5504 159.904 89.5849 169.147 96.5813L169.992 95.465ZM148.454 52.2097L149.723 52.8014C154.147 43.3157 160.874 36.1254 169.054 32.5228C177.203 28.9339 186.945 28.837 197.588 33.8001L198.18 32.5312L198.772 31.2624C187.474 25.9941 176.887 26.0137 167.925 29.9603C158.995 33.8934 151.83 41.6579 147.186 51.618L148.454 52.2097ZM193.191 46.0378L193.782 44.769C184.976 40.6625 176.918 39.9239 169.988 42.5276C163.064 45.1288 157.529 50.9676 153.56 59.4801L154.829 60.0718L156.097 60.6635C159.861 52.5927 164.935 47.4173 170.973 45.1487C177.004 42.8825 184.261 43.4186 192.599 47.3067L193.191 46.0378ZM154.829 60.0718L153.488 59.6679C152.128 64.1815 151.701 67.6076 152.141 70.4554C152.59 73.3579 153.915 75.5096 155.743 77.4991C157.503 79.4157 159.88 81.3244 162.379 83.5738C164.929 85.8699 167.792 88.6714 170.78 92.568L171.891 91.7161L173.002 90.8642C169.875 86.7873 166.881 83.8592 164.252 81.4929C161.572 79.0798 159.447 77.3932 157.805 75.6049C156.229 73.8894 155.248 72.2264 154.908 70.0278C154.56 67.7745 154.862 64.813 156.169 60.4757L154.829 60.0718ZM171.891 91.7161L171.952 93.1147C176.859 92.8991 180.831 93.284 184.207 93.7512C187.514 94.209 190.473 94.7883 193.045 94.8903C195.718 94.9963 198.187 94.6104 200.673 93.0755C203.109 91.5713 205.441 89.037 208.022 85.0975L206.851 84.3303L205.68 83.563C203.195 87.3557 201.134 89.5005 199.202 90.693C197.32 91.8548 195.447 92.1834 193.156 92.0925C190.764 91.9976 188.138 91.4687 184.59 90.9777C181.112 90.4962 176.961 90.0919 171.829 90.3174L171.891 91.7161ZM206.851 84.3303L208.12 84.9219C212.085 76.4184 213.067 68.4566 210.674 61.5075C208.277 54.5474 202.589 48.8758 193.782 44.769L193.191 46.0378L192.599 47.3067C200.937 51.1946 205.946 56.3775 208.026 62.4191C210.111 68.4716 209.35 75.6588 205.582 83.7386L206.851 84.3303Z" fill="#848484" mask="url(#path-37-inside-1_369_848)"/>
</mask>
<g mask="url(#mask0_369_848)">
<path d="M198.18 32.5312C220.121 42.7625 225.722 64.5658 216.654 84.0117C206.952 103.162 192.735 100.664 169.992 95.465C151.39 81.3845 140.021 71.9515 148.454 52.2097C157.522 32.764 176.239 22.3 198.18 32.5312ZM193.191 46.0378C176.046 38.0433 162.562 43.4885 154.829 60.0718C149.495 77.7736 159.661 75.7691 171.891 91.7161C191.968 90.8336 196.719 99.7947 206.851 84.3303C214.584 67.7469 210.336 54.0325 193.191 46.0378Z" fill="white"/>
<path d="M179.383 32.2619L183.44 26.0442L185.98 33.0211" stroke="#00C914" stroke-width="2.1" stroke-linecap="round"/>
<path d="M179.826 31.3101C181.578 32.127 182.336 34.2095 181.519 35.9613C180.702 37.7132 178.62 38.4711 176.868 37.6542C175.116 36.8373 174.358 34.7549 175.175 33.003C175.992 31.2512 178.074 30.4932 179.826 31.3101ZM187.354 31.7309C189.105 32.5479 189.863 34.6303 189.047 36.3821C188.23 38.134 186.147 38.8919 184.395 38.0751C182.643 37.2581 181.885 35.1757 182.702 33.4238C183.519 31.6719 185.602 30.914 187.354 31.7309Z" fill="#FF6363"/>
<path d="M204.095 46.8956L210.89 43.9037L209.207 51.1349" stroke="#00C914" stroke-width="2.1" stroke-linecap="round"/>
<path d="M204.987 46.3407C206.008 47.9818 205.505 50.1401 203.864 51.1615C202.223 52.1828 200.065 51.6803 199.044 50.0391C198.022 48.3979 198.525 46.2395 200.166 45.2183C201.807 44.1971 203.965 44.6996 204.987 46.3407ZM211.062 50.8046C212.084 52.4457 211.581 54.6041 209.94 55.6254C208.299 56.6467 206.14 56.1441 205.119 54.503C204.098 52.8618 204.6 50.7035 206.241 49.6822C207.883 48.661 210.041 49.1634 211.062 50.8046Z" fill="#FF6363"/>
<path d="M211.057 82.1348L218.129 79.8733L215.695 86.8876" stroke="#00C914" stroke-width="2.1" stroke-linecap="round"/>
<path d="M212.002 81.6766C212.845 83.4159 212.119 85.5095 210.379 86.3528C208.64 87.1961 206.547 86.4696 205.703 84.7302C204.86 82.9909 205.586 80.8972 207.326 80.054C209.065 79.2109 211.159 79.9373 212.002 81.6766ZM217.575 86.754C218.418 88.4934 217.692 90.587 215.952 91.4303C214.213 92.2735 212.119 91.547 211.276 89.8077C210.433 88.0684 211.16 85.9747 212.899 85.1315C214.638 84.2882 216.732 85.0147 217.575 86.754Z" fill="#FF6363"/>
<circle cx="180.697" cy="92.9061" r="3.5" transform="rotate(64.1361 180.697 92.9061)" fill="#FF6363"/>
<path d="M160.527 44.9416L167.599 42.6801L165.165 49.6945" stroke="#00C914" stroke-width="2.1" stroke-linecap="round"/>
<path d="M161.472 44.4835C162.315 46.2227 161.589 48.3164 159.85 49.1597C158.11 50.0029 156.017 49.2764 155.173 47.5371C154.33 45.7977 155.057 43.7041 156.796 42.8609C158.535 42.0178 160.629 42.7442 161.472 44.4835ZM167.045 49.5609C167.889 51.3003 167.162 53.3939 165.423 54.2372C163.683 55.0804 161.59 54.3539 160.746 52.6146C159.903 50.8752 160.63 48.7816 162.369 47.9383C164.108 47.0951 166.202 47.8216 167.045 49.5609Z" fill="#FF6363"/>
<path d="M147.313 69.8388L149.921 62.8871L153.918 69.1441" stroke="#00C914" stroke-width="2.1" stroke-linecap="round"/>
<path d="M147.54 68.8132C149.427 69.2294 150.62 71.097 150.205 72.9846C149.788 74.8722 147.921 76.0651 146.033 75.6492C144.146 75.2331 142.953 73.3655 143.369 71.4779C143.785 69.5903 145.652 68.3972 147.54 68.8132ZM154.978 67.5858C156.866 68.0019 158.059 69.8695 157.643 71.7571C157.227 73.6447 155.359 74.8376 153.472 74.4217C151.584 74.0056 150.391 72.138 150.807 70.2504C151.223 68.3627 153.091 67.1697 154.978 67.5858Z" fill="#FF6363"/>
<mask id="path-51-inside-2_369_848" fill="white">
<path d="M198.18 32.5312C220.121 42.7625 225.722 64.5658 216.654 84.0117C206.952 103.162 192.735 100.664 169.992 95.465C151.39 81.3845 140.021 71.9515 148.454 52.2097C157.522 32.764 176.239 22.3 198.18 32.5312ZM193.191 46.0378C176.046 38.0433 162.562 43.4885 154.829 60.0718C149.495 77.7736 159.661 75.7691 171.891 91.7161C191.968 90.8336 196.719 99.7947 206.851 84.3303C214.584 67.7469 210.336 54.0325 193.191 46.0378Z"/>
</mask>
<path d="M198.18 32.5312L198.772 31.2624L198.18 32.5312ZM216.654 84.0117L217.903 84.6445L217.913 84.6241L217.923 84.6034L216.654 84.0117ZM169.992 95.465L169.147 96.5813L169.387 96.7628L169.68 96.8298L169.992 95.465ZM148.454 52.2097L147.186 51.618L147.176 51.6387L147.167 51.6597L148.454 52.2097ZM193.191 46.0378L193.782 44.769L193.782 44.769L193.191 46.0378ZM154.829 60.0718L153.56 59.4801L153.517 59.5714L153.488 59.6679L154.829 60.0718ZM171.891 91.7161L170.78 92.568L171.224 93.1468L171.952 93.1147L171.891 91.7161ZM206.851 84.3303L208.022 85.0975L208.077 85.0132L208.12 84.9219L206.851 84.3303ZM198.18 32.5312L197.588 33.8001C208.238 38.766 214.836 46.4896 217.715 55.2529C220.6 64.033 219.789 73.977 215.385 83.4201L216.654 84.0117L217.923 84.6034C222.587 74.6005 223.51 63.92 220.375 54.379C217.235 44.8214 210.063 36.5277 198.772 31.2624L198.18 32.5312ZM216.654 84.0117L215.405 83.379C213.046 88.0351 210.457 91.2878 207.608 93.5068C204.77 95.7173 201.607 96.955 198.01 97.4841C190.71 98.5578 181.746 96.7157 170.304 94.1002L169.992 95.465L169.68 96.8298C180.981 99.413 190.496 101.419 198.417 100.254C202.43 99.664 206.061 98.2605 209.329 95.7159C212.585 93.1798 215.411 89.5634 217.903 84.6445L216.654 84.0117ZM169.992 95.465L170.837 94.3487C161.478 87.2645 154.222 81.5423 150.272 75.2187C148.326 72.1013 147.203 68.8626 147.045 65.2554C146.886 61.6355 147.693 57.5555 149.742 52.7597L148.454 52.2097L147.167 51.6597C144.999 56.7348 144.065 61.2371 144.247 65.3783C144.43 69.5321 145.731 73.2333 147.898 76.7019C152.175 83.5504 159.904 89.5849 169.147 96.5813L169.992 95.465ZM148.454 52.2097L149.723 52.8014C154.147 43.3157 160.874 36.1254 169.054 32.5228C177.203 28.9339 186.945 28.837 197.588 33.8001L198.18 32.5312L198.772 31.2624C187.474 25.9941 176.887 26.0137 167.925 29.9603C158.995 33.8934 151.83 41.6579 147.186 51.618L148.454 52.2097ZM193.191 46.0378L193.782 44.769C184.976 40.6625 176.918 39.9239 169.988 42.5276C163.064 45.1288 157.529 50.9676 153.56 59.4801L154.829 60.0718L156.097 60.6635C159.861 52.5927 164.935 47.4173 170.973 45.1487C177.004 42.8825 184.261 43.4186 192.599 47.3067L193.191 46.0378ZM154.829 60.0718L153.488 59.6679C152.128 64.1815 151.701 67.6076 152.141 70.4554C152.59 73.3579 153.915 75.5096 155.743 77.4991C157.503 79.4157 159.88 81.3244 162.379 83.5738C164.929 85.8699 167.792 88.6714 170.78 92.568L171.891 91.7161L173.002 90.8642C169.875 86.7873 166.881 83.8592 164.252 81.4929C161.572 79.0798 159.447 77.3932 157.805 75.6049C156.229 73.8894 155.248 72.2264 154.908 70.0278C154.56 67.7745 154.862 64.813 156.169 60.4757L154.829 60.0718ZM171.891 91.7161L171.952 93.1147C176.859 92.8991 180.831 93.284 184.207 93.7512C187.514 94.209 190.473 94.7883 193.045 94.8903C195.718 94.9963 198.187 94.6104 200.673 93.0755C203.109 91.5713 205.441 89.037 208.022 85.0975L206.851 84.3303L205.68 83.563C203.195 87.3557 201.134 89.5005 199.202 90.693C197.32 91.8548 195.447 92.1834 193.156 92.0925C190.764 91.9976 188.138 91.4687 184.59 90.9777C181.112 90.4962 176.961 90.0919 171.829 90.3174L171.891 91.7161ZM206.851 84.3303L208.12 84.9219C212.085 76.4184 213.067 68.4566 210.674 61.5075C208.277 54.5474 202.589 48.8758 193.782 44.769L193.191 46.0378L192.599 47.3067C200.937 51.1946 205.946 56.3775 208.026 62.4191C210.111 68.4716 209.35 75.6588 205.582 83.7386L206.851 84.3303Z" fill="#848484" mask="url(#path-51-inside-2_369_848)"/>
</g>
</g>
<defs>
<filter id="filter0_d_369_848" x="0" y="10.4784" width="242.027" height="177.522" filterUnits="userSpaceOnUse" color-interpolation-filters="sRGB">
<feFlood flood-opacity="0" result="BackgroundImageFix"/>
<feColorMatrix in="SourceAlpha" type="matrix" values="0 0 0 0 0 0 0 0 0 0 0 0 0 0 0 0 0 0 127 0" result="hardAlpha"/>
<feOffset dy="2"/>
<feGaussianBlur stdDeviation="1"/>
<feComposite in2="hardAlpha" operator="out"/>
<feColorMatrix type="matrix" values="0 0 0 0 0 0 0 0 0 0 0 0 0 0 0 0 0 0 0.2 0"/>
<feBlend mode="normal" in2="BackgroundImageFix" result="effect1_dropShadow_369_848"/>
<feBlend mode="normal" in="SourceGraphic" in2="effect1_dropShadow_369_848" result="shape"/>
</filter>
</defs>
</svg>
