<svg width="251" height="188" viewBox="0 0 251 188" fill="none" xmlns="http://www.w3.org/2000/svg">
<g filter="url(#filter0_d_369_117)">
<path d="M100.021 78.8699C122.333 67.971 147.866 77.507 157.182 86.5929C166.497 95.6787 164.551 112.615 168.923 108.733C173.296 104.852 184.935 104.157 197.061 107.163C211.611 110.771 224.719 115.795 229.571 124.427C234.423 133.058 231.512 141.69 225.204 156.681C218.896 171.673 199.007 176.775 199.007 176.775C199.007 176.775 178.62 180.49 173.77 174.853C168.92 169.216 164.059 181.478 135.443 183.357C106.826 185.236 93.221 174.304 89.8258 171.673C86.4307 169.042 80.1145 171.863 63.6237 177.124C47.1328 182.386 30.1431 164.404 27.717 166.221C25.2909 168.039 12.6781 170.104 6.37277 162.587C0.0674546 155.071 1.0375 145.225 6.37277 138.836C10.9865 133.311 27.5447 134.235 31.9388 134.586C30.7898 133.459 28.8808 131.426 25.7818 127.933C15.1113 115.907 37.4289 100.816 41.309 99.3131C45.1891 97.8097 52.4717 95.6787 58.2919 95.6787C64.1121 95.6787 81.0975 99.3131 81.0975 99.3131C81.0975 99.3131 77.7103 89.7689 100.021 78.8699Z" fill="white"/>
<path d="M229.674 125.043C234.379 133.612 231.465 142.226 225.203 157.109C218.91 172.066 199.098 177.178 199.007 177.201C199.007 177.201 178.619 180.917 173.769 175.279C168.919 169.643 164.058 181.905 135.443 183.784C106.827 185.663 93.2209 174.731 89.8254 172.1C86.4303 169.469 80.1139 172.289 63.6233 177.551C47.1325 182.813 30.1422 164.831 27.7161 166.649C25.289 168.466 12.6773 170.53 6.37231 163.014C4.01139 160.199 2.67118 157.058 2.19751 153.895C3.07936 156.029 4.15209 157.924 5.39673 159.407C11.7021 166.924 25.2909 163.041 27.717 161.224C30.1436 159.407 46.163 176.026 62.6536 170.765C79.1443 165.503 79.1529 161.32 82.5481 163.95C85.944 166.582 100.514 180.821 129.129 178.942C157.746 177.062 165.038 163.31 169.888 168.947C174.738 174.585 205.795 169.856 205.795 169.856C205.857 169.82 219.395 162.098 225.689 147.141C229.357 138.423 230.398 131.232 229.674 125.043Z" fill="#CDF5FD"/>
<path d="M188.104 14.6137L201.373 28.3742L222.35 30.5701L225.668 30.9168L222.75 32.5322L216.188 36.1647L233.574 44.622L232.954 46.6046L226.032 45.5402L231.404 60.9539L231.462 61.1223L231.462 61.301L231.444 72.1059L231.441 74.1192L229.792 72.9645L222.622 67.9413L226.731 79.2315L226.812 79.4547L226.789 79.6909L225.694 91.1513L225.53 92.8561L224.086 91.9379L218.77 88.5605L218.278 100.38L218.274 100.487L218.248 100.59L214.721 114.779L214.402 116.064L213.223 115.46L206.161 111.842L203.693 134.203L203.425 136.631L201.847 134.766L197.244 129.324L197.315 141.146L197.316 141.329L197.256 141.503L193.622 151.779L192.815 154.062L191.7 151.913L189.492 147.66L187.072 148.619C182.879 152.029 176.684 152.875 171.148 150.294C167.177 148.442 164.339 145.196 163.021 141.514L161.871 140.955C158.198 142.323 153.876 142.24 149.895 140.383C145.948 138.543 143.121 135.325 141.792 131.671C138.139 133.002 133.857 132.905 129.91 131.064C125.604 129.056 122.629 125.409 121.482 121.343L121.328 121.27L120.884 121.054L120.766 120.573L119.411 114.991L114.921 115.759L112.945 116.097L117.875 105.525L118.03 105.384L126.656 97.5114L121.637 96.2893L119.964 95.8807L121.092 94.5807L135.208 78.3099L129.123 75.4725L129.643 74.495L135.899 62.7363L136.004 62.5377L136.183 62.3991L145.85 54.9153L145.455 53.829L140.473 52.5522L138.694 52.0967L139.99 50.7947L149.438 41.2984L149.611 41.1246L149.843 41.0453L159.155 37.8527L150.768 35.3478L148.448 34.6549L150.54 33.4343L172.304 20.7377L169.166 16.783L166.693 13.6678L170.381 15.1569L187.219 21.9537L186.308 15.4894L185.856 12.2831L188.104 14.6137Z" fill="#6D4710"/>
<path d="M186.331 12.1864L189.974 14.8043C194.643 18.1612 198.388 22.6405 200.867 27.825C200.926 27.8546 200.983 27.8908 201.037 27.9326L203.143 29.5502C203.145 29.5496 203.147 29.5492 203.149 29.5487C208.826 28.0169 214.802 27.9739 220.501 29.425L224.848 30.533L227.683 31.2551L225.036 32.5L217.708 35.9468C224.85 38.1231 231.52 41.8001 237.147 46.7199L240.027 49.2386L236.265 48.5436L228.372 47.0859L229.096 49.4311C231.267 56.4508 232.337 63.7649 232.265 71.1123L232.248 72.8757L232.229 74.8571L230.6 73.7277L224.088 69.2138C226.413 74.2559 227.327 79.8678 226.686 85.4416L225.882 92.4189L225.673 94.2329L224.211 93.1404L219.449 89.5814C220.274 95.6614 219.576 101.867 217.399 107.633L214.537 115.214L214.137 116.273L207.148 113.014C205.093 118.475 204.038 124.266 204.038 130.107L204.038 135.018L204.038 137.607L202.235 135.749L198.868 132.28C199.197 139.521 197.351 146.712 193.547 152.915L193.253 153.396L192.227 155.069L191.404 153.287L189.331 148.79L181.532 152.019C176.88 153.945 171.547 153.101 167.715 149.847L131.827 132.73C131.78 132.708 131.736 132.681 131.694 132.653C126.721 131.821 122.629 128.271 121.11 123.457L118.57 115.408L113.793 116.711L111.899 117.226L112.521 115.364L112.701 114.829C115.007 107.929 119.329 101.893 125.088 97.4897L120.266 97.1408L118.44 97.009L119.475 95.4996L121.601 92.4038C125.04 87.3928 129.108 82.8427 133.705 78.8671L134.07 78.5513L127.534 75.5038L128.089 74.517L132.056 67.4515C135.074 62.0773 139.38 57.5539 144.567 54.278L138.78 52.9175L137.003 52.4995L138.258 51.1733L143.087 46.073C146.944 41.9989 151.831 39.0923 157.188 37.6322L149.544 35.5452L147.632 35.0229L149.138 33.7349L150.477 32.5881C156.06 27.8108 162.35 23.9286 169.123 21.0794L171.385 20.1268L165.195 15.0174L162.244 12.5823L166.025 13.1698C173.411 14.3179 180.515 17.0632 186.773 21.1355L184.703 13.3065L183.955 10.4784L186.331 12.1864ZM189.528 23.3416L190.284 26.2058L187.893 24.4585C182.467 20.4934 176.266 17.6192 169.742 16.0461L174.061 19.612L175.4 20.7166L173.8 21.3898L169.937 23.0149C163.432 25.7514 157.387 29.4712 152.012 34.0417L162.088 36.7932L161.932 38.8496C155.32 39.6156 149.189 42.6841 144.613 47.5172L141.038 51.2909L147.614 52.8378L150.321 53.4742L147.869 54.7851C141.998 57.9236 137.146 62.6756 133.887 68.4797L130.474 74.558L137.896 78.019L136.67 79.0796L135.079 80.4561C130.618 84.3141 126.67 88.7289 123.332 93.5916L122.243 95.1784L128.263 95.6147L131.538 95.8525L128.732 97.5596L127.681 98.1969C121.985 102.136 117.628 107.706 115.17 114.158L118.992 113.117L119.966 112.852L120.269 113.815L123.113 122.826C124.403 126.914 127.892 129.924 132.126 130.598C132.285 130.624 132.431 130.685 132.555 130.771C132.614 130.787 132.673 130.808 132.73 130.835L169.062 148.162C169.274 148.264 169.436 148.428 169.538 148.621C172.727 151.053 176.989 151.626 180.728 150.078L189.459 146.464L190.392 146.078L190.815 146.994L192.474 150.591C195.837 144.561 197.303 137.643 196.659 130.747L196.472 129.533L195.976 126.286L198.263 128.642L201.938 132.428L201.938 130.107C201.938 123.627 203.182 117.207 205.601 111.196L206.016 110.169L212.972 113.413L215.435 106.892C217.786 100.664 218.307 93.893 216.938 87.3786L216.366 84.6571L218.594 86.3219L224.005 90.3648L224.599 85.2011C225.36 78.5889 223.769 71.9197 220.106 66.3626L221.581 64.9212L230.166 70.8713C230.211 63.8154 229.175 56.7935 227.09 50.0516L225.852 46.0477L225.34 44.3897L227.046 44.7048L232.554 45.7217C227.156 41.7352 220.968 38.8327 214.443 37.2244L211.567 36.5161L214.247 35.2541L221.496 31.8449L219.983 31.4602C214.634 30.0982 209.024 30.1385 203.696 31.5762C203.644 31.5902 203.591 31.5978 203.54 31.6037C203.176 31.8468 202.683 31.8451 202.317 31.5637L199.794 29.6264C199.511 29.5456 199.262 29.3485 199.128 29.0604C196.804 24.0543 193.229 19.7311 188.748 16.5094L187.48 15.5973L189.528 23.3416Z" fill="#2C2300"/>
<path d="M174.991 85.1907C179.144 87.0755 181.683 88.8283 183.492 91.2169C185.307 93.6133 186.415 96.6833 187.636 101.268C188.988 106.348 189.198 112.907 188.545 119.352C187.891 125.795 186.379 132.087 184.316 136.634C179.808 146.566 174.438 150.522 168.351 151.202C162.208 151.888 155.244 149.257 147.51 145.747C139.777 142.237 133.211 138.729 129.683 133.655C126.187 128.626 125.626 121.979 130.134 112.046C132.193 107.51 136.335 102.255 140.966 97.5255C145.594 92.7986 150.679 88.6268 154.593 86.2463C158.517 83.8595 161.551 82.677 164.616 82.5382C167.683 82.3994 170.831 83.3031 174.991 85.1907Z" fill="#FFE7C8" stroke="#2C2300" stroke-width="0.7"/>
<path d="M154.628 85.1748L148.608 89.586C145.715 91.7057 142.99 94.0446 140.456 96.582L139.994 97.044C137.21 99.8321 134.665 102.85 132.388 106.067L130.456 108.797L128.489 112.736C127.005 115.71 126.233 118.988 126.235 122.312C126.236 124.567 126.594 126.808 127.295 128.951L128.007 131.132" stroke="#2C2300" stroke-width="2.1" stroke-linecap="round"/>
<path d="M188.238 100.043L188.882 107.478C189.191 111.051 189.225 114.642 188.984 118.22L188.957 118.63C188.681 122.722 188.047 126.782 187.06 130.763L186.231 134.108L184.702 137.854C183.444 140.935 181.484 143.68 178.979 145.869C177.284 147.35 175.365 148.554 173.295 149.437L171.179 150.339" stroke="#2C2300" stroke-width="2.1" stroke-linecap="round"/>
<ellipse cx="126" cy="126" rx="29" ry="26" fill="white"/>
<ellipse cx="175.5" cy="137" rx="37.5" ry="26" fill="white"/>
<path d="M105 108.5C118.114 96.1731 139.145 98.5092 149.234 113.413L152 117.5L155.963 115.821C171.892 109.071 190.154 110.832 204.5 120.5" stroke="#CDF5FD" stroke-width="3" stroke-linecap="round"/>
<path d="M213.013 86.1881C205.859 101.53 191.673 96.5292 174.153 88.3598C156.634 80.1904 143.684 72.5381 150.838 57.1956C154.124 50.1503 166.043 42.0299 173.904 39.2037C181.764 36.3775 186.571 36.9938 196.045 41.4118C205.52 45.8297 208.148 48.9228 211.97 56.9542C216.247 65.9418 216.298 79.1428 213.013 86.1881Z" fill="#FFE7C8"/>
<path d="M175.211 64.5581C174.32 66.4693 172.035 67.2901 170.108 66.3915C168.181 65.4929 167.341 63.215 168.233 61.3038C169.124 59.3926 171.731 57.8797 173.658 58.7783C175.585 59.6769 176.103 62.6469 175.211 64.5581Z" fill="#1A1C1F"/>
<path d="M197.416 74.9125C196.525 76.8237 194.24 77.6446 192.313 76.7459C190.386 75.8473 189.546 73.5695 190.438 71.6583C191.329 69.747 193.936 68.2341 195.863 69.1327C197.791 70.0314 198.308 73.0013 197.416 74.9125Z" fill="#1A1C1F"/>
<ellipse cx="171.206" cy="60.7244" rx="1.05003" ry="1.40004" transform="rotate(55 171.206 60.7244)" fill="white"/>
<ellipse cx="193.141" cy="71.3252" rx="1.05003" ry="1.40004" transform="rotate(55 193.141 71.3252)" fill="white"/>
<path d="M183.484 40.182C179.968 42.2117 173.979 43.2234 172.046 39.8753C172.315 39.041 172.339 38.2489 172.341 37.4223C172.351 32.5859 175.649 26.5554 180.486 26.5724C180.635 26.5729 180.781 26.5932 180.923 26.636C185.905 28.1428 189.375 34.6923 185.792 38.4682C185.217 39.0748 184.462 39.6171 183.484 40.182Z" fill="#FFE7C8"/>
<path d="M184.478 36.4039C181.98 37.8461 177.88 40.6147 174.686 38.6218C174.679 38.2748 174.558 37.8125 174.483 37.2391C174.037 33.8496 176.831 30.3866 180.106 29.409C180.357 29.3341 180.592 29.3164 180.804 29.3758C181.06 29.4478 181.415 29.5803 181.818 29.7547C184.603 30.9583 186.34 34.0083 184.478 36.4039Z" fill="#F0BB78"/>
<path d="M205.176 50.297C205.881 54.2947 208.956 59.5334 212.763 58.8621C213.188 58.1845 213.723 57.7189 214.299 57.2794C218.145 54.3467 220.289 48.3919 217.895 44.1898C217.766 43.9634 217.604 43.7788 217.402 43.6468C212.788 40.6302 205.389 41.9806 204.976 47.4782C204.912 48.3258 204.99 49.2461 205.176 50.297Z" fill="#FFE7C8"/>
<path d="M207.046 46.8621C207.547 49.7027 208.062 54.623 211.642 55.789C211.912 55.5712 212.344 55.3665 212.831 55.0556C215.714 53.2181 216.572 48.8525 215.215 45.7146C215.111 45.4743 214.973 45.2829 214.792 45.1592C214.572 45.0094 214.243 44.8227 213.85 44.6258C211.138 43.2658 207.685 43.8958 207.046 46.8621Z" fill="#F0BB78"/>
<path d="M179.685 78.7562C178.986 78.9839 178.229 78.6311 177.954 77.9488L177.085 75.7946C176.609 74.6162 177.823 73.4648 178.975 74.0018L182.053 75.4372C183.205 75.9742 183.103 77.6442 181.894 78.0374L179.685 78.7562Z" fill="#2C2300"/>
<path d="M187.607 36.3183C189.153 31.7407 185.988 26.9284 181.173 26.5344L180.606 26.488" stroke="#2C2300" stroke-width="2.10006" stroke-linecap="round"/>
<path d="M205.371 44.6018C207.884 40.4752 213.605 39.8064 217.002 43.242L217.403 43.6468" stroke="#2C2300" stroke-width="2.10006" stroke-linecap="round"/>
<path d="M169.572 41.0389L165.961 42.5067C160.279 44.8166 155.551 48.9911 152.555 54.3441" stroke="#2C2300" stroke-width="2.10006" stroke-linecap="round"/>
<path d="M152.554 54.344C152.305 54.4278 150.475 57.8247 149.3 61.3228C147.913 65.454 149.239 69.8892 151.876 73.3585L152.306 73.9243" stroke="#2C2300" stroke-width="2.10006" stroke-linecap="round"/>
<path d="M213.348 61.4519L214.545 65.1614C216.428 70.9995 216.269 77.3047 214.094 83.0406" stroke="#2C2300" stroke-width="2.10006" stroke-linecap="round"/>
<path d="M214.094 83.0406C214.191 83.2858 212.765 86.8708 210.84 90.0194C208.567 93.7377 204.317 95.5726 199.964 95.7823L199.254 95.8165" stroke="#2C2300" stroke-width="2.10006" stroke-linecap="round"/>
<path d="M155.86 77.8985C160.435 81.8257 165.526 85.109 170.991 87.6572L173.54 88.8463L176.252 90.1107C181.822 92.7079 187.709 94.5604 193.763 95.6203L193.926 95.6489" stroke="#2C2300" stroke-width="2.10006" stroke-linecap="round"/>
<path d="M171.855 38.6277L171.967 36.6255C172.16 33.1751 174.07 30.0513 177.054 28.3075" stroke="#2C2300" stroke-width="2.10006" stroke-linecap="round"/>
<path d="M214.023 57.5188L215.428 56.3546C218.064 54.1695 219.334 50.7431 218.757 47.3679" stroke="#2C2300" stroke-width="2.10006" stroke-linecap="round"/>
<path d="M187.016 37.5871C193.3 39.4927 199.281 42.2818 204.78 45.8707" stroke="#2C2300" stroke-width="2.10006" stroke-linecap="round"/>
<ellipse cx="163.406" cy="67.5142" rx="4.55013" ry="2.45007" transform="rotate(25 163.406 67.5142)" fill="#F0BB78"/>
<ellipse cx="197.031" cy="83.1937" rx="4.55013" ry="2.45007" transform="rotate(25 197.031 83.1937)" fill="#F0BB78"/>
<path d="M142.411 101.253C144.571 102.37 146.156 104.01 146.998 105.714C147.839 107.419 147.911 109.119 147.204 110.487C146.496 111.855 145.067 112.778 143.189 113.077C141.312 113.375 139.058 113.029 136.898 111.911C134.737 110.794 133.152 109.154 132.311 107.45C131.469 105.745 131.397 104.045 132.104 102.677C132.812 101.309 134.241 100.386 136.119 100.087C137.996 99.7888 140.25 100.135 142.411 101.253Z" fill="#FFE7C8" stroke="#2C2300" stroke-width="2"/>
<path d="M182.275 107.578C184.703 107.726 186.816 108.584 188.275 109.803C189.734 111.022 190.487 112.548 190.393 114.085C190.3 115.622 189.366 117.045 187.769 118.077C186.173 119.109 183.971 119.704 181.543 119.555C179.116 119.407 177.003 118.549 175.544 117.33C174.085 116.111 173.331 114.585 173.425 113.048C173.519 111.511 174.453 110.089 176.049 109.056C177.646 108.024 179.848 107.429 182.275 107.578Z" fill="#FFE7C8" stroke="#2C2300" stroke-width="2"/>
<path d="M196.034 41.4762C207.195 46.6808 216.775 52.4401 223.239 57.5254C226.478 60.0731 228.888 62.4153 230.33 64.3993C231.051 65.3915 231.497 66.2501 231.703 66.9631C231.907 67.6674 231.86 68.167 231.691 68.5305C231.521 68.8941 231.168 69.2507 230.498 69.5475C229.819 69.8478 228.875 70.058 227.651 70.1434C225.205 70.3141 221.861 69.9737 217.828 69.1304C209.777 67.4471 199.207 63.8104 188.046 58.6058C176.885 53.4012 167.306 47.6423 160.841 42.557C157.602 40.0091 155.192 37.6668 153.75 35.6827C153.029 34.6904 152.583 33.8319 152.377 33.1189C152.173 32.4146 152.219 31.915 152.389 31.5515C152.558 31.1879 152.911 30.8313 153.582 30.5345C154.261 30.2341 155.205 30.024 156.429 29.9386C158.875 29.7678 162.219 30.1086 166.253 30.952C174.303 32.6353 184.873 36.2717 196.034 41.4762Z" fill="#E7CB90" stroke="#8E743F" stroke-width="2.1"/>
<path d="M180.68 18.0887L196.073 23.4051C200.655 24.9877 205.06 27.0419 209.218 29.5348L223.185 37.9095L218.433 64.6651L163.239 38.9277L180.68 18.0887Z" fill="#E7CB90"/>
<path d="M167.17 33.8096L179.457 42.2425L187.547 46.7611C190.524 48.424 193.619 49.8671 196.806 51.0788L205.468 54.3717L219.826 58.3637" stroke="#8B4F00" stroke-width="4.9"/>
<path d="M165.056 36.6858L180.02 18.632C180.578 17.9586 181.496 17.7016 182.322 17.9871L191.925 21.3021L203.282 25.9333L214.447 31.8042L222.856 36.885C223.599 37.3336 223.989 38.1924 223.839 39.0466L219.87 61.5816" stroke="#8E743F" stroke-width="2.1"/>
</g>
<defs>
<filter id="filter0_d_369_117" x="0" y="10.4784" width="242.027" height="177.522" filterUnits="userSpaceOnUse" color-interpolation-filters="sRGB">
<feFlood flood-opacity="0" result="BackgroundImageFix"/>
<feColorMatrix in="SourceAlpha" type="matrix" values="0 0 0 0 0 0 0 0 0 0 0 0 0 0 0 0 0 0 127 0" result="hardAlpha"/>
<feOffset dy="2"/>
<feGaussianBlur stdDeviation="1"/>
<feComposite in2="hardAlpha" operator="out"/>
<feColorMatrix type="matrix" values="0 0 0 0 0 0 0 0 0 0 0 0 0 0 0 0 0 0 0.2 0"/>
<feBlend mode="normal" in2="BackgroundImageFix" result="effect1_dropShadow_369_117"/>
<feBlend mode="normal" in="SourceGraphic" in2="effect1_dropShadow_369_117" result="shape"/>
</filter>
</defs>
</svg>
