<svg width="251" height="188" viewBox="0 0 251 188" fill="none" xmlns="http://www.w3.org/2000/svg">
<g filter="url(#filter0_d_369_953)">
<path d="M100.021 78.8699C122.333 67.971 147.866 77.507 157.182 86.5929C166.497 95.6787 164.551 112.615 168.923 108.733C173.296 104.852 184.935 104.157 197.061 107.163C211.611 110.771 224.719 115.795 229.571 124.427C234.423 133.058 231.512 141.69 225.204 156.681C218.896 171.673 199.007 176.775 199.007 176.775C199.007 176.775 178.62 180.49 173.77 174.853C168.92 169.216 164.059 181.478 135.443 183.357C106.826 185.236 93.221 174.304 89.8258 171.673C86.4307 169.042 80.1145 171.863 63.6237 177.124C47.1328 182.386 30.1431 164.404 27.717 166.221C25.2909 168.039 12.6781 170.104 6.37277 162.587C0.0674546 155.071 1.0375 145.225 6.37277 138.836C10.9865 133.311 27.5447 134.235 31.9388 134.586C30.7898 133.459 28.8808 131.426 25.7818 127.933C15.1113 115.907 37.4289 100.816 41.309 99.3131C45.1891 97.8097 52.4717 95.6787 58.2919 95.6787C64.1121 95.6787 81.0975 99.3131 81.0975 99.3131C81.0975 99.3131 77.7103 89.7689 100.021 78.8699Z" fill="white"/>
<path d="M229.674 125.043C234.378 133.612 231.465 142.226 225.203 157.109C218.91 172.066 199.098 177.178 199.007 177.201C199.007 177.201 178.619 180.917 173.769 175.279C168.918 169.643 164.058 181.905 135.442 183.784C106.826 185.663 93.2206 174.731 89.8252 172.1C86.43 169.469 80.1137 172.289 63.623 177.551C47.1322 182.813 30.1419 164.831 27.7158 166.649C25.2888 168.466 12.6771 170.53 6.37207 163.014C4.01114 160.199 2.67094 157.058 2.19727 153.895C3.07911 156.029 4.15184 157.924 5.39648 159.407C11.7018 166.924 25.2907 163.041 27.7168 161.224C30.1433 159.407 46.1628 176.026 62.6533 170.765C79.1441 165.503 79.1527 161.32 82.5479 163.95C85.9438 166.582 100.514 180.821 129.129 178.942C157.745 177.062 165.037 163.31 169.888 168.947C174.738 174.585 205.795 169.856 205.795 169.856C205.857 169.82 219.395 162.098 225.688 147.141C229.357 138.423 230.398 131.232 229.674 125.043Z" fill="#CDF5FD"/>
<path d="M188.104 14.6137L201.373 28.3742L222.35 30.5701L225.668 30.9168L222.75 32.5322L216.188 36.1647L233.573 44.622L232.954 46.6046L226.031 45.5402L231.403 60.9539L231.462 61.1223L231.461 61.301L231.444 72.1059L231.441 74.1192L229.792 72.9645L222.622 67.9413L226.73 79.2315L226.812 79.4547L226.789 79.6909L225.693 91.1513L225.53 92.8561L224.085 91.9379L218.769 88.5605L218.278 100.38L218.274 100.487L218.248 100.59L214.721 114.779L214.402 116.064L213.223 115.46L206.161 111.842L203.692 134.203L203.424 136.631L201.847 134.766L197.244 129.324L197.315 141.146L197.316 141.329L197.255 141.503L193.622 151.779L192.815 154.062L191.699 151.913L189.491 147.66L187.072 148.619C182.879 152.029 176.683 152.875 171.148 150.294C167.176 148.442 164.338 145.196 163.021 141.514L161.871 140.955C158.197 142.323 153.876 142.24 149.895 140.383C145.948 138.543 143.12 135.325 141.792 131.671C138.139 133.002 133.857 132.905 129.91 131.064C125.603 129.056 122.629 125.409 121.481 121.343L121.328 121.27L120.884 121.054L120.766 120.573L119.41 114.991L114.921 115.759L112.945 116.097L117.875 105.525L118.03 105.384L126.656 97.5114L121.637 96.2893L119.963 95.8807L121.092 94.5806L135.208 78.3099L129.123 75.4725L129.643 74.495L135.898 62.7363L136.004 62.5377L136.183 62.3991L145.85 54.9153L145.455 53.829L140.473 52.5522L138.694 52.0966L139.99 50.7947L149.438 41.2984L149.611 41.1246L149.843 41.0453L159.155 37.8527L150.768 35.3478L148.448 34.6549L150.539 33.4343L172.304 20.7377L169.165 16.783L166.693 13.6678L170.381 15.1569L187.218 21.9537L186.307 15.4894L185.855 12.2831L188.104 14.6137Z" fill="#6D4710"/>
<path d="M186.331 12.1864L189.974 14.8043C194.643 18.1612 198.388 22.6405 200.867 27.825C200.926 27.8546 200.983 27.8908 201.037 27.9326L203.143 29.5502C203.145 29.5496 203.147 29.5492 203.149 29.5487C208.826 28.0169 214.802 27.9739 220.501 29.425L224.848 30.533L227.683 31.2551L225.036 32.5L217.708 35.9468C224.85 38.1231 231.52 41.8001 237.147 46.7199L240.027 49.2386L236.265 48.5436L228.372 47.0859L229.096 49.4311C231.267 56.4508 232.337 63.7649 232.265 71.1123L232.248 72.8757L232.229 74.8571L230.6 73.7277L224.088 69.2138C226.413 74.2559 227.327 79.8678 226.686 85.4416L225.882 92.4189L225.673 94.2329L224.211 93.1404L219.449 89.5814C220.274 95.6614 219.576 101.867 217.399 107.633L214.537 115.214L214.137 116.273L207.148 113.014C205.093 118.475 204.038 124.266 204.038 130.107L204.038 135.018L204.038 137.607L202.235 135.749L198.868 132.28C199.197 139.521 197.351 146.712 193.547 152.915L193.253 153.396L192.227 155.069L191.404 153.287L189.331 148.79L181.532 152.019C176.88 153.945 171.547 153.101 167.715 149.847L131.827 132.73C131.78 132.708 131.736 132.681 131.694 132.653C126.721 131.821 122.629 128.271 121.11 123.457L118.57 115.408L113.793 116.711L111.899 117.226L112.521 115.364L112.701 114.829C115.007 107.929 119.329 101.893 125.088 97.4897L120.266 97.1408L118.44 97.009L119.475 95.4996L121.601 92.4038C125.04 87.3928 129.108 82.8427 133.705 78.8671L134.07 78.5513L127.534 75.5038L128.089 74.517L132.056 67.4515C135.074 62.0773 139.38 57.5539 144.567 54.278L138.78 52.9175L137.003 52.4995L138.258 51.1733L143.087 46.073C146.944 41.9989 151.831 39.0923 157.188 37.6322L149.544 35.5452L147.632 35.0229L149.138 33.7349L150.477 32.5881C156.06 27.8108 162.35 23.9286 169.123 21.0794L171.385 20.1268L165.195 15.0174L162.244 12.5823L166.025 13.1698C173.411 14.3179 180.515 17.0632 186.773 21.1355L184.703 13.3065L183.955 10.4784L186.331 12.1864ZM189.528 23.3416L190.284 26.2058L187.893 24.4585C182.467 20.4934 176.266 17.6192 169.742 16.0461L174.061 19.612L175.4 20.7166L173.8 21.3898L169.937 23.0149C163.432 25.7514 157.387 29.4712 152.012 34.0417L162.088 36.7932L161.932 38.8496C155.32 39.6156 149.189 42.6841 144.613 47.5172L141.038 51.2909L147.614 52.8378L150.321 53.4742L147.869 54.7851C141.998 57.9236 137.146 62.6756 133.887 68.4797L130.474 74.558L137.896 78.019L136.67 79.0796L135.079 80.4561C130.618 84.3141 126.67 88.7289 123.332 93.5916L122.243 95.1784L128.263 95.6147L131.538 95.8525L128.732 97.5596L127.681 98.1969C121.985 102.136 117.628 107.706 115.17 114.158L118.992 113.117L119.966 112.852L120.269 113.815L123.113 122.826C124.403 126.914 127.892 129.924 132.126 130.598C132.285 130.624 132.431 130.685 132.555 130.771C132.614 130.787 132.673 130.808 132.73 130.835L169.062 148.162C169.274 148.264 169.436 148.428 169.538 148.621C172.727 151.053 176.989 151.626 180.728 150.078L189.459 146.464L190.392 146.078L190.815 146.994L192.474 150.591C195.837 144.561 197.303 137.643 196.659 130.747L196.472 129.533L195.976 126.286L198.263 128.642L201.938 132.428L201.938 130.107C201.938 123.627 203.182 117.207 205.601 111.196L206.016 110.169L212.972 113.413L215.435 106.892C217.786 100.664 218.307 93.893 216.938 87.3786L216.366 84.6571L218.594 86.3219L224.005 90.3648L224.599 85.2011C225.36 78.5889 223.769 71.9197 220.106 66.3626L221.581 64.9212L230.166 70.8713C230.211 63.8154 229.175 56.7935 227.09 50.0516L225.852 46.0477L225.34 44.3897L227.046 44.7048L232.554 45.7217C227.156 41.7352 220.968 38.8327 214.443 37.2244L211.567 36.5161L214.247 35.2541L221.496 31.8449L219.983 31.4602C214.634 30.0982 209.024 30.1385 203.696 31.5762C203.644 31.5902 203.591 31.5978 203.54 31.6037C203.176 31.8468 202.683 31.8451 202.317 31.5637L199.794 29.6264C199.511 29.5456 199.262 29.3485 199.128 29.0604C196.804 24.0543 193.229 19.7311 188.748 16.5094L187.48 15.5973L189.528 23.3416Z" fill="#2C2300"/>
<path d="M174.99 85.1907C179.144 87.0755 181.682 88.8284 183.491 91.2169C185.307 93.6133 186.414 96.6833 187.635 101.268C188.988 106.348 189.197 112.907 188.544 119.352C187.891 125.795 186.379 132.087 184.315 136.634C179.808 146.566 174.437 150.522 168.351 151.202C162.208 151.888 155.244 149.257 147.51 145.747C139.776 142.237 133.211 138.729 129.682 133.655C126.186 128.626 125.626 121.979 130.133 112.046C132.192 107.51 136.335 102.255 140.965 97.5255C145.593 92.7986 150.678 88.6268 154.592 86.2463C158.517 83.8595 161.55 82.677 164.615 82.5382C167.683 82.3994 170.831 83.3031 174.99 85.1907Z" fill="#FFE7C8" stroke="#2C2300" stroke-width="0.7"/>
<path d="M154.628 85.1748L148.608 89.586C145.715 91.7057 142.99 94.0446 140.455 96.582L139.994 97.044C137.209 99.8321 134.665 102.85 132.388 106.067L130.455 108.797L128.489 112.736C127.004 115.71 126.233 118.988 126.235 122.312C126.236 124.567 126.594 126.808 127.294 128.951L128.007 131.132" stroke="#2C2300" stroke-width="2.1" stroke-linecap="round"/>
<path d="M188.238 100.043L188.881 107.478C189.191 111.051 189.225 114.642 188.984 118.22L188.957 118.63C188.681 122.722 188.046 126.782 187.06 130.763L186.231 134.108L184.702 137.854C183.444 140.935 181.484 143.68 178.978 145.869C177.283 147.35 175.365 148.554 173.295 149.437L171.179 150.339" stroke="#2C2300" stroke-width="2.1" stroke-linecap="round"/>
<ellipse cx="126" cy="126" rx="29" ry="26" fill="white"/>
<ellipse cx="175.5" cy="137" rx="37.5" ry="26" fill="white"/>
<path d="M105 108.5C118.114 96.1731 139.145 98.5092 149.234 113.413L152 117.5L155.963 115.821C171.892 109.071 190.154 110.832 204.5 120.5" stroke="#CDF5FD" stroke-width="3" stroke-linecap="round"/>
<path d="M213.013 86.1881C205.859 101.53 191.673 96.5292 174.153 88.3598C156.634 80.1904 143.684 72.5381 150.839 57.1957C154.124 50.1503 166.043 42.0299 173.904 39.2037C181.764 36.3775 186.571 36.9938 196.046 41.4118C205.52 45.8297 208.148 48.9228 211.97 56.9542C216.247 65.9418 216.298 79.1428 213.013 86.1881Z" fill="#FFE7C8"/>
<path d="M175.211 64.5581C174.32 66.4693 172.035 67.2901 170.108 66.3915C168.181 65.4929 167.341 63.215 168.233 61.3038C169.124 59.3926 171.731 57.8797 173.658 58.7783C175.585 59.6769 176.103 62.6469 175.211 64.5581Z" fill="#1A1C1F"/>
<path d="M197.416 74.9125C196.525 76.8237 194.24 77.6446 192.313 76.7459C190.386 75.8473 189.546 73.5695 190.438 71.6583C191.329 69.7471 193.936 68.2341 195.863 69.1327C197.791 70.0314 198.308 73.0013 197.416 74.9125Z" fill="#1A1C1F"/>
<ellipse cx="171.206" cy="60.7244" rx="1.05003" ry="1.40004" transform="rotate(55 171.206 60.7244)" fill="white"/>
<ellipse cx="193.141" cy="71.3252" rx="1.05003" ry="1.40004" transform="rotate(55 193.141 71.3252)" fill="white"/>
<path d="M183.484 40.182C179.968 42.2117 173.979 43.2234 172.045 39.8753C172.315 39.041 172.339 38.2489 172.34 37.4222C172.351 32.5859 175.649 26.5554 180.485 26.5724C180.635 26.5729 180.781 26.5932 180.922 26.636C185.905 28.1428 189.375 34.6923 185.792 38.4682C185.216 39.0748 184.462 39.6171 183.484 40.182Z" fill="#FFE7C8"/>
<path d="M184.477 36.4039C181.979 37.8461 177.88 40.6147 174.685 38.6218C174.678 38.2748 174.558 37.8126 174.482 37.2391C174.037 33.8496 176.83 30.3866 180.106 29.409C180.357 29.3341 180.592 29.3164 180.803 29.3758C181.059 29.4478 181.414 29.5804 181.817 29.7547C184.603 30.9583 186.34 34.0083 184.477 36.4039Z" fill="#F0BB78"/>
<path d="M205.176 50.297C205.881 54.2947 208.956 59.5334 212.763 58.8621C213.188 58.1845 213.723 57.7189 214.299 57.2794C218.145 54.3467 220.289 48.3919 217.895 44.1898C217.766 43.9634 217.604 43.7788 217.402 43.6468C212.788 40.6302 205.389 41.9806 204.976 47.4782C204.912 48.3258 204.99 49.2461 205.176 50.297Z" fill="#FFE7C8"/>
<path d="M207.046 46.8621C207.547 49.7027 208.062 54.623 211.641 55.789C211.912 55.5712 212.343 55.3665 212.831 55.0556C215.714 53.2181 216.571 48.8525 215.215 45.7146C215.111 45.4743 214.973 45.2829 214.792 45.1592C214.572 45.0094 214.242 44.8227 213.85 44.6258C211.137 43.2658 207.684 43.8958 207.046 46.8621Z" fill="#F0BB78"/>
<path d="M179.685 78.7562C178.986 78.9839 178.229 78.6311 177.954 77.9488L177.085 75.7946C176.609 74.6162 177.823 73.4648 178.975 74.0018L182.053 75.4372C183.205 75.9742 183.103 77.6442 181.894 78.0374L179.685 78.7562Z" fill="#2C2300"/>
<path d="M187.607 36.3183C189.153 31.7407 185.988 26.9284 181.173 26.5344L180.605 26.488" stroke="#2C2300" stroke-width="2.10006" stroke-linecap="round"/>
<path d="M205.371 44.6018C207.884 40.4752 213.605 39.8064 217.002 43.242L217.402 43.6468" stroke="#2C2300" stroke-width="2.10006" stroke-linecap="round"/>
<path d="M169.572 41.0389L165.961 42.5067C160.278 44.8166 155.55 48.9911 152.554 54.3441" stroke="#2C2300" stroke-width="2.10006" stroke-linecap="round"/>
<path d="M152.554 54.344C152.305 54.4278 150.475 57.8247 149.3 61.3228C147.913 65.454 149.239 69.8892 151.876 73.3585L152.306 73.9243" stroke="#2C2300" stroke-width="2.10006" stroke-linecap="round"/>
<path d="M213.348 61.4519L214.545 65.1614C216.428 70.9995 216.269 77.3047 214.094 83.0406" stroke="#2C2300" stroke-width="2.10006" stroke-linecap="round"/>
<path d="M214.094 83.0406C214.191 83.2858 212.764 86.8708 210.84 90.0194C208.567 93.7377 204.317 95.5726 199.964 95.7823L199.254 95.8165" stroke="#2C2300" stroke-width="2.10006" stroke-linecap="round"/>
<path d="M155.86 77.8985C160.435 81.8257 165.526 85.109 170.99 87.6572L173.54 88.8463L176.252 90.1107C181.822 92.7079 187.709 94.5604 193.763 95.6203L193.926 95.6489" stroke="#2C2300" stroke-width="2.10006" stroke-linecap="round"/>
<path d="M171.855 38.6277L171.966 36.6255C172.159 33.1751 174.07 30.0513 177.053 28.3075" stroke="#2C2300" stroke-width="2.10006" stroke-linecap="round"/>
<path d="M214.023 57.5188L215.428 56.3546C218.064 54.1695 219.334 50.7431 218.757 47.3679" stroke="#2C2300" stroke-width="2.10006" stroke-linecap="round"/>
<path d="M187.015 37.5872C193.299 39.4928 199.28 42.2818 204.779 45.8707" stroke="#2C2300" stroke-width="2.10006" stroke-linecap="round"/>
<ellipse cx="163.406" cy="67.5141" rx="4.55013" ry="2.45007" transform="rotate(25 163.406 67.5141)" fill="#F0BB78"/>
<ellipse cx="197.031" cy="83.1937" rx="4.55013" ry="2.45007" transform="rotate(25 197.031 83.1937)" fill="#F0BB78"/>
<path d="M142.41 101.253C144.57 102.37 146.156 104.01 146.997 105.714C147.839 107.419 147.911 109.119 147.204 110.487C146.496 111.855 145.067 112.778 143.189 113.077C141.312 113.375 139.057 113.029 136.897 111.911C134.737 110.794 133.152 109.154 132.31 107.45C131.469 105.745 131.396 104.045 132.104 102.677C132.811 101.309 134.241 100.386 136.118 100.087C137.996 99.7888 140.25 100.135 142.41 101.253Z" fill="#FFE7C8" stroke="#2C2300" stroke-width="2"/>
<path d="M182.275 107.578C184.703 107.726 186.816 108.584 188.275 109.803C189.734 111.022 190.487 112.548 190.393 114.085C190.3 115.622 189.366 117.045 187.769 118.077C186.173 119.109 183.971 119.704 181.543 119.555C179.116 119.407 177.003 118.549 175.544 117.33C174.085 116.111 173.331 114.585 173.425 113.048C173.519 111.511 174.453 110.089 176.049 109.056C177.646 108.024 179.848 107.429 182.275 107.578Z" fill="#FFE7C8" stroke="#2C2300" stroke-width="2"/>
<path d="M163.544 94.2425C164.802 93.7846 166.227 93.6395 167.367 93.7176C167.938 93.7568 168.407 93.8501 168.731 93.9683C168.894 94.0274 168.998 94.0849 169.057 94.1284C169.065 94.1344 169.071 94.1406 169.076 94.1451C169.079 94.1732 169.082 94.2229 169.078 94.2983C169.07 94.4327 169.042 94.6099 168.988 94.8225C168.88 95.2478 168.678 95.7685 168.384 96.3C167.787 97.3783 166.873 98.3879 165.73 98.8041C164.365 99.3009 162.291 100.049 160.522 100.56C159.632 100.817 158.852 101.005 158.288 101.076C158.185 101.089 158.095 101.096 158.018 101.101C158.081 100.909 158.18 100.669 158.314 100.386C158.633 99.7118 159.123 98.8657 159.712 98.0096C160.301 97.1538 160.977 96.3058 161.66 95.6181C162.356 94.9177 163.008 94.4376 163.544 94.2425Z" fill="#353A82" stroke="#060040" stroke-width="1.4"/>
<path d="M173.092 97.9226C172.634 96.6642 171.829 95.4797 171.036 94.6563C170.639 94.2439 170.266 93.9448 169.967 93.7723C169.818 93.686 169.707 93.6431 169.636 93.6259C169.626 93.6235 169.617 93.6229 169.61 93.6217C169.587 93.6375 169.547 93.667 169.492 93.7188C169.394 93.8112 169.276 93.9464 169.148 94.1246C168.892 94.4808 168.622 94.9702 168.404 95.5372C167.962 96.6876 167.776 98.0367 168.192 99.1801C168.689 100.545 169.449 102.614 170.194 104.298C170.569 105.145 170.928 105.863 171.235 106.341C171.291 106.428 171.344 106.502 171.39 106.564C171.496 106.393 171.617 106.162 171.747 105.878C172.059 105.2 172.392 104.281 172.669 103.279C172.946 102.278 173.161 101.215 173.249 100.25C173.338 99.2663 173.287 98.4586 173.092 97.9226Z" fill="#353A82" stroke="#060040" stroke-width="1.4"/>
<mask id="mask0_369_953" style="mask-type:alpha" maskUnits="userSpaceOnUse" x="144" y="28" width="76" height="72">
<mask id="path-37-inside-1_369_953" fill="white">
<path d="M197.18 32.5312C219.121 42.7625 224.722 64.5658 215.654 84.0117C205.952 103.162 191.735 100.664 168.992 95.465C150.39 81.3845 139.021 71.9515 147.454 52.2097C156.522 32.764 175.239 22.3 197.18 32.5312ZM192.191 46.0378C175.046 38.0433 161.562 43.4885 153.829 60.0718C148.495 77.7735 158.661 75.7691 170.891 91.7161C190.968 90.8336 195.719 99.7946 205.851 84.3303C213.584 67.7469 209.336 54.0325 192.191 46.0378Z"/>
</mask>
<path d="M197.18 32.5312C219.121 42.7625 224.722 64.5658 215.654 84.0117C205.952 103.162 191.735 100.664 168.992 95.465C150.39 81.3845 139.021 71.9515 147.454 52.2097C156.522 32.764 175.239 22.3 197.18 32.5312ZM192.191 46.0378C175.046 38.0433 161.562 43.4885 153.829 60.0718C148.495 77.7735 158.661 75.7691 170.891 91.7161C190.968 90.8336 195.719 99.7946 205.851 84.3303C213.584 67.7469 209.336 54.0325 192.191 46.0378Z" fill="white"/>
<path d="M197.18 32.5312L197.772 31.2624L197.18 32.5312ZM215.654 84.0117L216.903 84.6445L216.913 84.6241L216.923 84.6034L215.654 84.0117ZM168.992 95.465L168.147 96.5813L168.387 96.7628L168.68 96.8298L168.992 95.465ZM147.454 52.2097L146.186 51.618L146.176 51.6387L146.167 51.6597L147.454 52.2097ZM192.191 46.0378L192.782 44.769L192.782 44.769L192.191 46.0378ZM153.829 60.0718L152.56 59.4801L152.517 59.5714L152.488 59.6679L153.829 60.0718ZM170.891 91.7161L169.78 92.568L170.224 93.1468L170.952 93.1147L170.891 91.7161ZM205.851 84.3303L207.022 85.0975L207.077 85.0132L207.12 84.9219L205.851 84.3303ZM197.18 32.5312L196.588 33.8001C207.238 38.766 213.836 46.4896 216.715 55.2529C219.6 64.033 218.789 73.977 214.385 83.4201L215.654 84.0117L216.923 84.6034C221.587 74.6005 222.51 63.92 219.375 54.379C216.235 44.8214 209.063 36.5277 197.772 31.2624L197.18 32.5312ZM215.654 84.0117L214.405 83.379C212.046 88.0351 209.457 91.2878 206.608 93.5068C203.77 95.7173 200.607 96.955 197.01 97.4841C189.71 98.5578 180.746 96.7157 169.304 94.1002L168.992 95.465L168.68 96.8298C179.981 99.413 189.496 101.419 197.417 100.254C201.43 99.664 205.061 98.2605 208.329 95.7159C211.585 93.1798 214.411 89.5634 216.903 84.6445L215.654 84.0117ZM168.992 95.465L169.837 94.3487C160.478 87.2645 153.222 81.5423 149.272 75.2187C147.326 72.1013 146.203 68.8626 146.045 65.2554C145.886 61.6355 146.693 57.5555 148.742 52.7597L147.454 52.2097L146.167 51.6597C143.999 56.7348 143.065 61.2371 143.247 65.3783C143.43 69.5321 144.731 73.2333 146.898 76.7019C151.175 83.5504 158.904 89.5849 168.147 96.5813L168.992 95.465ZM147.454 52.2097L148.723 52.8014C153.147 43.3157 159.874 36.1254 168.054 32.5228C176.203 28.9339 185.945 28.837 196.588 33.8001L197.18 32.5312L197.772 31.2624C186.474 25.9941 175.887 26.0137 166.925 29.9603C157.995 33.8934 150.83 41.6579 146.186 51.618L147.454 52.2097ZM192.191 46.0378L192.782 44.769C183.976 40.6625 175.918 39.9239 168.988 42.5276C162.064 45.1288 156.529 50.9676 152.56 59.4801L153.829 60.0718L155.097 60.6635C158.861 52.5927 163.935 47.4173 169.973 45.1487C176.004 42.8825 183.261 43.4186 191.599 47.3067L192.191 46.0378ZM153.829 60.0718L152.488 59.6679C151.128 64.1815 150.701 67.6076 151.141 70.4554C151.59 73.3579 152.915 75.5096 154.743 77.4991C156.503 79.4157 158.88 81.3244 161.379 83.5738C163.929 85.8699 166.792 88.6714 169.78 92.568L170.891 91.7161L172.002 90.8642C168.875 86.7873 165.881 83.8592 163.252 81.4929C160.572 79.0798 158.447 77.3932 156.805 75.6049C155.229 73.8894 154.248 72.2264 153.908 70.0278C153.56 67.7745 153.862 64.813 155.169 60.4757L153.829 60.0718ZM170.891 91.7161L170.952 93.1147C175.859 92.8991 179.831 93.284 183.207 93.7512C186.514 94.209 189.473 94.7883 192.045 94.8903C194.718 94.9963 197.187 94.6104 199.673 93.0755C202.109 91.5713 204.441 89.037 207.022 85.0975L205.851 84.3303L204.68 83.563C202.195 87.3557 200.134 89.5005 198.202 90.693C196.32 91.8548 194.447 92.1834 192.156 92.0925C189.764 91.9976 187.138 91.4687 183.59 90.9777C180.112 90.4962 175.961 90.0919 170.829 90.3174L170.891 91.7161ZM205.851 84.3303L207.12 84.9219C211.085 76.4184 212.067 68.4566 209.674 61.5075C207.277 54.5474 201.589 48.8758 192.782 44.769L192.191 46.0378L191.599 47.3067C199.937 51.1946 204.946 56.3775 207.026 62.4191C209.111 68.4716 208.35 75.6588 204.582 83.7386L205.851 84.3303Z" fill="#848484" mask="url(#path-37-inside-1_369_953)"/>
</mask>
<g mask="url(#mask0_369_953)">
<path d="M197.18 32.5312C219.121 42.7625 224.722 64.5658 215.654 84.0117C205.952 103.162 191.735 100.664 168.992 95.465C150.39 81.3845 139.021 71.9515 147.454 52.2097C156.522 32.764 175.239 22.3 197.18 32.5312ZM192.191 46.0378C175.046 38.0433 161.562 43.4885 153.829 60.0718C148.495 77.7735 158.661 75.7691 170.891 91.7161C190.968 90.8336 195.719 99.7946 205.851 84.3303C213.584 67.7469 209.336 54.0325 192.191 46.0378Z" fill="#353A82"/>
<path d="M169.863 35.6265C170.563 35.9536 170.535 37.4967 169.8 39.0731C169.065 40.6494 167.901 41.6623 167.201 41.3361C166.5 41.0093 166.527 39.4665 167.262 37.8899C167.998 36.3132 169.162 35.2997 169.863 35.6265ZM173.035 37.1057C173.735 37.4327 173.707 38.9758 172.972 40.5523C172.237 42.1286 171.073 43.1416 170.373 42.8152C169.672 42.4885 169.699 40.9456 170.434 39.3691C171.17 37.7924 172.334 36.7789 173.035 37.1057ZM176.207 38.5848C176.908 38.9119 176.879 40.455 176.144 42.0315C175.409 43.6078 174.245 44.6208 173.545 44.2944C172.844 43.9676 172.871 42.4248 173.606 40.8482C174.342 39.2715 175.506 38.2581 176.207 38.5848Z" fill="#DFDFDF"/>
<path d="M154.301 39.1833C155.002 39.5105 154.973 41.0535 154.238 42.63C153.503 44.2062 152.34 45.2191 151.639 44.8929C150.938 44.5661 150.966 43.0233 151.701 41.4467C152.436 39.87 153.601 38.8566 154.301 39.1833ZM157.473 40.6625C158.174 40.9894 158.146 42.5326 157.41 44.1091C156.675 45.6855 155.512 46.6985 154.811 46.3721C154.11 46.0453 154.138 44.5025 154.873 42.9259C155.608 41.3492 156.773 40.3357 157.473 40.6625ZM160.646 42.1417C161.346 42.4686 161.318 44.0117 160.582 45.5883C159.847 47.1647 158.684 48.1777 157.983 47.8512C157.282 47.5245 157.31 45.9816 158.045 44.4051C158.78 42.8283 159.945 41.8149 160.646 42.1417Z" fill="#DFDFDF"/>
<path d="M150.33 53.506C150.714 54.1769 149.802 55.4218 148.293 56.2869C146.784 57.1518 145.25 57.3096 144.865 56.6392C144.48 55.9685 145.392 54.7232 146.901 53.8579C148.41 52.9927 149.946 52.8352 150.33 53.506ZM152.071 56.5424C152.455 57.2133 151.543 58.4582 150.034 59.3233C148.525 60.1883 146.99 60.3461 146.606 59.6756C146.221 59.0049 147.132 57.7596 148.641 56.8944C150.151 56.0291 151.686 55.8717 152.071 56.5424ZM153.812 59.5789C154.196 60.2497 153.284 61.4947 151.775 62.3598C150.266 63.2247 148.731 63.3825 148.346 62.7121C147.962 62.0413 148.873 60.796 150.382 59.9308C151.891 59.0656 153.427 58.9081 153.812 59.5789Z" fill="#DFDFDF"/>
<path d="M158.636 77.6233C159.02 78.2941 158.108 79.5391 156.599 80.4042C155.09 81.2691 153.555 81.4268 153.171 80.7565C152.786 80.0857 153.697 78.8404 155.206 77.9752C156.716 77.11 158.251 76.9525 158.636 77.6233ZM160.377 80.6597C160.761 81.3305 159.849 82.5755 158.34 83.4406C156.831 84.3055 155.296 84.4634 154.911 83.7929C154.527 83.1222 155.438 81.8769 156.947 81.0116C158.456 80.1464 159.992 79.9889 160.377 80.6597ZM162.117 83.6961C162.502 84.367 161.589 85.6119 160.08 86.477C158.571 87.342 157.037 87.4998 156.652 86.8293C156.267 86.1586 157.179 84.9133 158.688 84.0481C160.197 83.1828 161.733 83.0253 162.117 83.6961Z" fill="#DFDFDF"/>
<path d="M179.014 28.9885C179.787 28.9728 180.443 30.3698 180.479 32.1089C180.515 33.8477 179.919 35.2702 179.146 35.2869C178.373 35.3031 177.716 33.9067 177.68 32.1676C177.643 30.4282 178.241 29.0047 179.014 28.9885ZM182.513 28.9151C183.286 28.8991 183.942 30.2963 183.978 32.0355C184.015 33.7746 183.418 35.1972 182.645 35.2136C181.872 35.2298 181.216 33.8334 181.179 32.0942C181.143 30.3549 181.74 28.9313 182.513 28.9151ZM186.012 28.8418C186.785 28.8256 187.442 30.2228 187.478 31.9621C187.515 33.7013 186.917 35.1239 186.144 35.1402C185.371 35.1564 184.715 33.76 184.678 32.0208C184.642 30.2815 185.239 28.858 186.012 28.8418Z" fill="#DFDFDF"/>
<path d="M203.86 50.1651C204.633 50.1494 205.289 51.5464 205.325 53.2854C205.362 55.0243 204.765 56.4468 203.992 56.4635C203.219 56.4797 202.563 55.0833 202.526 53.3441C202.49 51.6048 203.087 50.1813 203.86 50.1651ZM207.359 50.0917C208.132 50.0759 208.788 51.473 208.824 53.2121C208.861 54.951 208.264 56.3735 207.491 56.3901C206.718 56.4063 206.062 55.0099 206.025 53.2708C205.989 51.5315 206.586 50.1079 207.359 50.0917ZM210.859 50.0183C211.631 50.0025 212.287 51.3996 212.324 53.1387C212.36 54.8777 211.763 56.3002 210.991 56.3168C210.218 56.333 209.561 54.9366 209.524 53.1974C209.488 51.4581 210.085 50.0346 210.859 50.0183Z" fill="#DFDFDF"/>
<path d="M199.965 33.6737C200.737 33.658 201.393 35.055 201.43 36.7941C201.466 38.5329 200.869 39.9554 200.097 39.9721C199.324 39.9883 198.667 38.5919 198.63 36.8527C198.594 35.1134 199.192 33.6899 199.965 33.6737ZM203.464 33.6003C204.237 33.5845 204.892 34.9816 204.929 36.7207C204.965 38.4596 204.369 39.8821 203.596 39.8987C202.823 39.915 202.166 38.5185 202.13 36.7794C202.093 35.0401 202.691 33.6165 203.464 33.6003ZM206.963 33.527C207.736 33.5111 208.392 34.9082 208.428 36.6473C208.465 38.3863 207.868 39.8088 207.095 39.8254C206.322 39.8416 205.665 38.4452 205.629 36.706C205.592 34.9667 206.19 33.5432 206.963 33.527Z" fill="#DFDFDF"/>
<path d="M202.22 81.8397C202.993 81.824 203.649 83.221 203.685 84.9601C203.721 86.6989 203.125 88.1214 202.352 88.1381C201.579 88.1543 200.922 86.7579 200.886 85.0187C200.849 83.2794 201.447 81.8559 202.22 81.8397ZM205.719 81.7663C206.492 81.7504 207.148 83.1476 207.184 84.8867C207.221 86.6257 206.624 88.0482 205.851 88.0647C205.078 88.081 204.422 86.6845 204.385 84.9454C204.349 83.2061 204.946 81.7825 205.719 81.7663ZM209.218 81.693C209.991 81.677 210.647 83.0742 210.684 84.8133C210.72 86.5523 210.123 87.9749 209.35 87.9914C208.577 88.0076 207.921 86.6112 207.884 84.872C207.848 83.1327 208.445 81.7092 209.218 81.693Z" fill="#DFDFDF"/>
<path d="M214.936 64.9113C215.476 65.4638 214.907 66.8984 213.664 68.1156C212.422 69.3326 210.977 69.8717 210.435 69.3199C209.894 68.7676 210.463 67.3329 211.705 66.1156C212.948 64.8981 214.394 64.359 214.936 64.9113ZM217.385 67.4115C217.926 67.9639 217.356 69.3985 216.114 70.6158C214.871 71.8329 213.426 72.3721 212.885 71.8201C212.344 71.2678 212.912 69.8331 214.154 68.6158C215.397 67.3983 216.844 66.8592 217.385 67.4115ZM219.834 69.9117C220.375 70.4641 219.806 71.8987 218.563 73.116C217.32 74.3331 215.875 74.8724 215.334 74.3203C214.793 73.768 215.361 72.3333 216.604 71.116C217.846 69.8985 219.293 69.3594 219.834 69.9117Z" fill="#DFDFDF"/>
<path d="M195.026 92.7008C195.566 93.2533 194.997 94.6878 193.755 95.905C192.512 97.1221 191.067 97.6611 190.526 97.1093C189.985 96.557 190.553 95.1224 191.795 93.905C193.038 92.6876 194.485 92.1484 195.026 92.7008ZM197.475 95.201C198.016 95.7535 197.447 97.188 196.204 98.4053C194.962 99.6223 193.516 100.161 192.975 99.6095C192.434 99.0572 193.002 97.6226 194.245 96.4052C195.487 95.1878 196.934 94.6486 197.475 95.201ZM199.924 97.7012C200.465 98.2537 199.896 99.6882 198.653 100.905C197.411 102.123 195.965 102.662 195.424 102.11C194.883 101.557 195.451 100.123 196.694 98.9054C197.937 97.688 199.383 97.1488 199.924 97.7012Z" fill="#DFDFDF"/>
<path d="M172.104 90.5085C172.645 91.061 172.076 92.4956 170.833 93.7128C169.591 94.9298 168.146 95.4689 167.604 94.9171C167.063 94.3648 167.631 92.9301 168.874 91.7128C170.117 90.4953 171.563 89.9562 172.104 90.5085ZM174.554 93.0087C175.095 93.5611 174.525 94.9957 173.283 96.213C172.04 97.4301 170.595 97.9693 170.054 97.4173C169.513 96.865 170.081 95.4303 171.323 94.213C172.566 92.9955 174.013 92.4564 174.554 93.0087ZM177.003 95.5089C177.544 96.0613 176.975 97.4959 175.732 98.7132C174.489 99.9303 173.044 100.47 172.503 99.9175C171.962 99.3652 172.53 97.9305 173.773 96.7132C175.015 95.4957 176.462 94.9566 177.003 95.5089Z" fill="#DFDFDF"/>
<path d="M190.095 37.7798C190.672 38.2939 190.203 39.7642 189.047 41.0639C187.891 42.3634 186.486 43.0005 185.908 42.4872C185.33 41.9733 185.799 40.5031 186.955 39.2032C188.111 37.9033 189.517 37.266 190.095 37.7798ZM192.71 40.1059C193.287 40.6199 192.818 42.0902 191.662 43.3899C190.506 44.6895 189.101 45.3266 188.523 44.8132C187.946 44.2994 188.414 42.8291 189.57 41.5292C190.726 40.2293 192.132 39.592 192.71 40.1059ZM195.325 42.4313C195.902 42.9451 195.433 44.416 194.277 45.716C193.121 47.0157 191.715 47.6524 191.138 47.1386C190.561 46.6245 191.029 45.1549 192.185 43.8553C193.341 42.5556 194.747 41.9179 195.325 42.4313Z" fill="#DFDFDF"/>
<mask id="path-52-inside-2_369_953" fill="white">
<path d="M197.18 32.5312C219.121 42.7625 224.722 64.5658 215.654 84.0117C205.952 103.162 191.735 100.664 168.992 95.465C150.39 81.3845 139.021 71.9515 147.454 52.2097C156.522 32.764 175.239 22.3 197.18 32.5312ZM192.191 46.0378C175.046 38.0433 161.562 43.4885 153.829 60.0718C148.495 77.7735 158.661 75.7691 170.891 91.7161C190.968 90.8336 195.719 99.7946 205.851 84.3303C213.584 67.7469 209.336 54.0325 192.191 46.0378Z"/>
</mask>
<path d="M197.18 32.5312L197.772 31.2624L197.18 32.5312ZM215.654 84.0117L216.903 84.6445L216.913 84.6241L216.923 84.6034L215.654 84.0117ZM168.992 95.465L168.147 96.5813L168.387 96.7628L168.68 96.8298L168.992 95.465ZM147.454 52.2097L146.186 51.618L146.176 51.6387L146.167 51.6597L147.454 52.2097ZM192.191 46.0378L192.782 44.769L192.782 44.769L192.191 46.0378ZM153.829 60.0718L152.56 59.4801L152.517 59.5714L152.488 59.6679L153.829 60.0718ZM170.891 91.7161L169.78 92.568L170.224 93.1468L170.952 93.1147L170.891 91.7161ZM205.851 84.3303L207.022 85.0975L207.077 85.0132L207.12 84.9219L205.851 84.3303ZM197.18 32.5312L196.588 33.8001C207.238 38.766 213.836 46.4896 216.715 55.2529C219.6 64.033 218.789 73.977 214.385 83.4201L215.654 84.0117L216.923 84.6034C221.587 74.6005 222.51 63.92 219.375 54.379C216.235 44.8214 209.063 36.5277 197.772 31.2624L197.18 32.5312ZM215.654 84.0117L214.405 83.379C212.046 88.0351 209.457 91.2878 206.608 93.5068C203.77 95.7173 200.607 96.955 197.01 97.4841C189.71 98.5578 180.746 96.7157 169.304 94.1002L168.992 95.465L168.68 96.8298C179.981 99.413 189.496 101.419 197.417 100.254C201.43 99.664 205.061 98.2605 208.329 95.7159C211.585 93.1798 214.411 89.5634 216.903 84.6445L215.654 84.0117ZM168.992 95.465L169.837 94.3487C160.478 87.2645 153.222 81.5423 149.272 75.2187C147.326 72.1013 146.203 68.8626 146.045 65.2554C145.886 61.6355 146.693 57.5555 148.742 52.7597L147.454 52.2097L146.167 51.6597C143.999 56.7348 143.065 61.2371 143.247 65.3783C143.43 69.5321 144.731 73.2333 146.898 76.7019C151.175 83.5504 158.904 89.5849 168.147 96.5813L168.992 95.465ZM147.454 52.2097L148.723 52.8014C153.147 43.3157 159.874 36.1254 168.054 32.5228C176.203 28.9339 185.945 28.837 196.588 33.8001L197.18 32.5312L197.772 31.2624C186.474 25.9941 175.887 26.0137 166.925 29.9603C157.995 33.8934 150.83 41.6579 146.186 51.618L147.454 52.2097ZM192.191 46.0378L192.782 44.769C183.976 40.6625 175.918 39.9239 168.988 42.5276C162.064 45.1288 156.529 50.9676 152.56 59.4801L153.829 60.0718L155.097 60.6635C158.861 52.5927 163.935 47.4173 169.973 45.1487C176.004 42.8825 183.261 43.4186 191.599 47.3067L192.191 46.0378ZM153.829 60.0718L152.488 59.6679C151.128 64.1815 150.701 67.6076 151.141 70.4554C151.59 73.3579 152.915 75.5096 154.743 77.4991C156.503 79.4157 158.88 81.3244 161.379 83.5738C163.929 85.8699 166.792 88.6714 169.78 92.568L170.891 91.7161L172.002 90.8642C168.875 86.7873 165.881 83.8592 163.252 81.4929C160.572 79.0798 158.447 77.3932 156.805 75.6049C155.229 73.8894 154.248 72.2264 153.908 70.0278C153.56 67.7745 153.862 64.813 155.169 60.4757L153.829 60.0718ZM170.891 91.7161L170.952 93.1147C175.859 92.8991 179.831 93.284 183.207 93.7512C186.514 94.209 189.473 94.7883 192.045 94.8903C194.718 94.9963 197.187 94.6104 199.673 93.0755C202.109 91.5713 204.441 89.037 207.022 85.0975L205.851 84.3303L204.68 83.563C202.195 87.3557 200.134 89.5005 198.202 90.693C196.32 91.8548 194.447 92.1834 192.156 92.0925C189.764 91.9976 187.138 91.4687 183.59 90.9777C180.112 90.4962 175.961 90.0919 170.829 90.3174L170.891 91.7161ZM205.851 84.3303L207.12 84.9219C211.085 76.4184 212.067 68.4566 209.674 61.5075C207.277 54.5474 201.589 48.8758 192.782 44.769L192.191 46.0378L191.599 47.3067C199.937 51.1946 204.946 56.3775 207.026 62.4191C209.111 68.4716 208.35 75.6588 204.582 83.7386L205.851 84.3303Z" fill="#060040" mask="url(#path-52-inside-2_369_953)"/>
</g>
</g>
<defs>
<filter id="filter0_d_369_953" x="0" y="10.4784" width="242.027" height="177.522" filterUnits="userSpaceOnUse" color-interpolation-filters="sRGB">
<feFlood flood-opacity="0" result="BackgroundImageFix"/>
<feColorMatrix in="SourceAlpha" type="matrix" values="0 0 0 0 0 0 0 0 0 0 0 0 0 0 0 0 0 0 127 0" result="hardAlpha"/>
<feOffset dy="2"/>
<feGaussianBlur stdDeviation="1"/>
<feComposite in2="hardAlpha" operator="out"/>
<feColorMatrix type="matrix" values="0 0 0 0 0 0 0 0 0 0 0 0 0 0 0 0 0 0 0.2 0"/>
<feBlend mode="normal" in2="BackgroundImageFix" result="effect1_dropShadow_369_953"/>
<feBlend mode="normal" in="SourceGraphic" in2="effect1_dropShadow_369_953" result="shape"/>
</filter>
</defs>
</svg>
