<svg width="234" height="172" viewBox="0 0 234 172" fill="none" xmlns="http://www.w3.org/2000/svg">
<g filter="url(#filter0_d_369_1206)">
<path d="M100.021 62.8699C122.333 51.971 147.866 61.507 157.182 70.5929C166.497 79.6787 164.551 96.6149 168.923 92.7333C173.296 88.8517 184.935 88.1568 197.061 91.1634C211.611 94.7714 224.719 99.795 229.571 108.427C234.423 117.058 231.512 125.69 225.204 140.681C218.896 155.673 199.007 160.775 199.007 160.775C199.007 160.775 178.62 164.49 173.77 158.853C168.92 153.216 164.059 165.478 135.443 167.357C106.826 169.236 93.221 158.304 89.8258 155.673C86.4307 153.042 80.1145 155.863 63.6237 161.124C47.1328 166.386 30.1431 148.404 27.717 150.221C25.2909 152.039 12.6781 154.104 6.37277 146.587C0.0674546 139.071 1.0375 129.225 6.37277 122.836C10.9865 117.311 27.5447 118.235 31.9388 118.586C30.7898 117.459 28.8808 115.426 25.7818 111.933C15.1113 99.907 37.4289 84.8164 41.309 83.3131C45.1891 81.8097 52.4717 79.6787 58.2919 79.6787C64.1121 79.6787 81.0975 83.3131 81.0975 83.3131C81.0975 83.3131 77.7103 73.7689 100.021 62.8699Z" fill="white"/>
<path d="M229.674 109.043C234.378 117.612 231.465 126.226 225.203 141.109C218.91 156.066 199.098 161.178 199.007 161.201C199.007 161.201 178.619 164.917 173.769 159.279C168.918 153.643 164.058 165.905 135.442 167.784C106.826 169.663 93.2206 158.731 89.8252 156.1C86.43 153.469 80.1137 156.289 63.623 161.551C47.1322 166.813 30.1419 148.831 27.7158 150.649C25.2888 152.466 12.6771 154.53 6.37207 147.014C4.01114 144.199 2.67094 141.058 2.19727 137.895C3.07911 140.029 4.15184 141.924 5.39648 143.407C11.7018 150.924 25.2907 147.041 27.7168 145.224C30.1433 143.407 46.1628 160.026 62.6533 154.765C79.1441 149.503 79.1527 145.32 82.5479 147.95C85.9438 150.582 100.514 164.821 129.129 162.942C157.745 161.062 165.037 147.31 169.888 152.947C174.738 158.585 205.795 153.856 205.795 153.856C205.857 153.82 219.395 146.098 225.688 131.141C229.357 122.423 230.398 115.232 229.674 109.043Z" fill="#CDF5FD"/>
<path d="M184.634 120.779C175.559 140.777 162.812 137.076 147.365 130.066C131.919 123.056 120.74 115.9 129.815 95.9021C133.982 86.719 146.518 74.7472 154.41 69.9473C162.303 65.1474 166.782 65.0816 175.135 68.8725C183.489 72.6634 185.529 76.0007 187.973 85.1782C190.708 95.4484 188.802 111.596 184.634 120.779Z" fill="#929AAB"/>
<path d="M171.379 121.191C165.329 134.523 157.712 132.456 148.552 128.299C139.392 124.142 132.82 119.77 138.87 106.438C141.648 100.316 149.572 92.1383 154.484 88.78C159.397 85.4217 162.111 85.2546 167.065 87.5027C172.019 89.7508 173.162 91.8771 174.388 97.8123C175.76 104.454 174.157 115.069 171.379 121.191Z" fill="#EEEEEE"/>
<path d="M154.628 69.1748L148.608 73.586C145.715 75.7058 142.99 78.0447 140.455 80.5821L139.994 81.044C137.209 83.8321 134.665 86.8504 132.388 90.0667L130.455 92.7972L128.489 96.7358C127.004 99.7097 126.233 102.988 126.235 106.312C126.236 108.567 126.594 110.808 127.294 112.951L128.007 115.132" stroke="#393E46" stroke-width="2.1" stroke-linecap="round"/>
<path d="M188.238 84.0427L188.881 91.4779C189.191 95.0507 189.225 98.6421 188.984 102.22L188.957 102.63C188.681 106.722 188.046 110.782 187.06 114.763L186.231 118.108L184.702 121.854C183.444 124.935 181.484 127.68 178.978 129.869C177.283 131.35 175.365 132.554 173.295 133.437L171.179 134.339" stroke="#393E46" stroke-width="2.1" stroke-linecap="round"/>
<path d="M213.355 70.5714C205.593 87.2178 191.473 82.3847 174.108 74.287C156.742 66.1892 143.964 58.4798 151.726 41.8334C155.291 34.1893 167.597 25.0866 175.621 21.7852C183.646 18.4838 187.296 21.485 196.688 25.8642C206.079 30.2435 209.789 30.9378 213.353 39.3799C217.342 48.8273 216.92 62.9273 213.355 70.5714Z" fill="#929AAB"/>
<path d="M182.484 51.3968C179.677 56.5956 173.034 57.7084 166.766 55.5514C161.036 52.8792 155.636 51.5096 159.469 44.1098C161.898 38.9001 170.16 35.0521 176.507 37.1253C187.47 40.7061 185.564 44.7938 182.484 51.3968Z" fill="#393E46"/>
<path d="M186.152 53.383C183.974 58.875 187.392 64.6797 193.073 68.0944C198.803 70.7666 203.324 74.0229 206.528 66.3298C208.957 61.1201 206.595 52.3181 200.927 48.7885C191.137 42.6922 189.231 46.7799 186.152 53.383Z" fill="#393E46"/>
<circle cx="173.765" cy="50.3933" r="3.46939" transform="rotate(25 173.765 50.3933)" fill="#1A1C1F"/>
<circle cx="192.631" cy="59.1907" r="3.46939" transform="rotate(25 192.631 59.1907)" fill="#1A1C1F"/>
<ellipse cx="173.14" cy="48.9399" rx="1.04082" ry="1.38776" transform="rotate(55 173.14 48.9399)" fill="white"/>
<ellipse cx="192.007" cy="57.7372" rx="1.04082" ry="1.38776" transform="rotate(55 192.007 57.7372)" fill="white"/>
<path d="M185.451 23.6806C181.967 25.6925 174.143 25.8156 172.227 22.4969C172.755 20.8594 173.136 18.6361 174.093 16.1593C175.413 12.7414 177.891 7.65919 181.399 8.7198C181.531 8.75995 181.686 8.82045 181.859 8.89853C187.118 11.2704 191.284 18.6291 187.046 22.5432C186.62 22.9368 186.095 23.3088 185.451 23.6806Z" fill="#929AAB"/>
<path d="M184.847 21.0176C182.371 22.4471 176.083 25.3126 174.774 23.045C175.135 21.9972 175.352 20.5753 175.891 18.9885C176.813 16.2782 178.525 11.9659 181.28 12.7407C184.635 13.6841 187.865 19.2751 184.847 21.0176Z" fill="#393E46"/>
<path d="M205.695 33.1204C206.394 37.0831 211.329 43.1555 215.103 42.4901C216.054 40.9745 217.593 39.1733 218.911 36.7042C220.537 33.6591 223.279 28.7904 220.39 26.9016C220.159 26.7508 219.793 26.5765 219.336 26.3919C213.985 24.2345 205.816 25.4052 205.541 31.1677C205.514 31.7472 205.566 32.3881 205.695 33.1204Z" fill="#929AAB"/>
<path d="M208.483 32.3664C208.976 35.1655 210.808 40.6358 213.336 40.1901C213.989 39.0857 215.157 37.8043 216.107 35.9892C217.154 33.99 219.147 30.8813 217.292 29.5967C214.21 27.4631 207.858 28.4464 208.446 32.148C208.457 32.2181 208.469 32.2909 208.483 32.3664Z" fill="#393E46"/>
<path d="M181.587 63.9937C181.101 65.0356 179.303 65.6082 178.045 65.0217C176.83 64.4549 176.07 62.6896 176.556 61.6477C177.042 60.6058 178.736 60.3672 179.952 60.9341C181.167 61.5009 182.073 62.9517 181.587 63.9937Z" fill="#393E46"/>
<path d="M188.659 21.7376L188.763 19.635C188.999 14.8783 186.108 10.5229 181.634 8.89162" stroke="#393E46" stroke-width="2.08163" stroke-linecap="round"/>
<path d="M187.758 22.8487L191.735 24.3565C194.935 25.5696 198.04 27.0177 201.026 28.689L204.737 30.7663" stroke="#393E46" stroke-width="2.08163" stroke-linecap="round"/>
<path d="M205.01 29.362L205.539 28.8712C209.645 25.0642 215.738 24.3379 220.624 27.0728" stroke="#393E46" stroke-width="2.08163" stroke-linecap="round"/>
<path d="M170.572 24.4048L165.341 27.5419C160.063 30.7077 155.704 35.1989 152.698 40.5697" stroke="#393E46" stroke-width="2.08163" stroke-linecap="round"/>
<path d="M152.698 40.5696C152.451 40.6527 150.637 44.0197 149.473 47.4872C148.097 51.5821 149.412 55.9784 152.026 59.4173L152.453 59.9781" stroke="#393E46" stroke-width="2.08163" stroke-linecap="round"/>
<path d="M214.593 44.932L215.552 50.9554C216.519 57.0337 215.881 63.2594 213.699 69.0145" stroke="#393E46" stroke-width="2.08163" stroke-linecap="round"/>
<path d="M213.699 69.0145C213.794 69.2575 212.38 72.8111 210.473 75.932C208.22 79.6177 204.007 81.4365 199.692 81.6444L198.989 81.6783" stroke="#393E46" stroke-width="2.08163" stroke-linecap="round"/>
<path d="M155.975 63.9175C160.51 67.8103 165.556 71.0648 170.973 73.5906L173.5 74.7693L176.188 76.0226C181.709 78.597 187.545 80.4332 193.545 81.4839L193.707 81.5122" stroke="#393E46" stroke-width="2.08163" stroke-linecap="round"/>
<path d="M172.374 22.1825L173.213 19.1628C174.153 15.7822 175.7 12.6005 177.778 9.773" stroke="#393E46" stroke-width="2.08163" stroke-linecap="round"/>
<path d="M215.766 42.4165L218.263 39.0187C220.069 36.5603 221.332 33.7454 221.966 30.7613" stroke="#393E46" stroke-width="2.08163" stroke-linecap="round"/>
<ellipse cx="126" cy="110" rx="29" ry="26" fill="white"/>
<ellipse cx="175.5" cy="121" rx="37.5" ry="26" fill="white"/>
<path d="M105 92.5C118.114 80.1731 139.145 82.5092 149.234 97.4133L152 101.5L155.963 99.8209C171.892 93.0713 190.154 94.8317 204.5 104.5" stroke="#CDF5FD" stroke-width="3" stroke-linecap="round"/>
<path d="M142.41 85.2527C144.57 86.3699 146.156 88.0097 146.997 89.7142C147.839 91.4193 147.911 93.1192 147.204 94.487C146.496 95.8549 145.067 96.7782 143.189 97.0767C141.312 97.3752 139.057 97.0286 136.897 95.9113C134.737 94.7941 133.152 93.1544 132.31 91.4498C131.469 89.7447 131.396 88.0448 132.104 86.677C132.811 85.3091 134.241 84.3858 136.118 84.0873C137.996 83.7888 140.25 84.1354 142.41 85.2527Z" fill="#929AAB" stroke="#393E46" stroke-width="2"/>
<path d="M182.275 91.5777C184.703 91.726 186.816 92.5845 188.275 93.8033C189.734 95.0225 190.487 96.5479 190.393 98.085C190.3 99.6222 189.366 101.045 187.769 102.077C186.173 103.109 183.971 103.704 181.543 103.555C179.116 103.407 177.003 102.549 175.544 101.33C174.085 100.111 173.331 98.5851 173.425 97.048C173.519 95.5109 174.453 94.0885 176.049 93.0561C177.646 92.024 179.848 91.4293 182.275 91.5777Z" fill="#929AAB" stroke="#393E46" stroke-width="2"/>
<path d="M164.544 80.2425C165.802 79.7846 167.227 79.6395 168.367 79.7176C168.938 79.7567 169.407 79.8501 169.731 79.9683C169.894 80.0274 169.998 80.0849 170.057 80.1284C170.065 80.1344 170.071 80.1406 170.076 80.1451C170.079 80.1732 170.082 80.2229 170.078 80.2983C170.07 80.4327 170.042 80.6099 169.988 80.8225C169.88 81.2478 169.678 81.7685 169.384 82.3C168.787 83.3783 167.873 84.3879 166.73 84.8041C165.365 85.3009 163.291 86.0491 161.522 86.5602C160.632 86.8173 159.852 87.0046 159.288 87.076C159.185 87.0891 159.095 87.0961 159.018 87.1007C159.081 86.9094 159.18 86.6688 159.314 86.3861C159.633 85.7118 160.123 84.8657 160.712 84.0096C161.301 83.1538 161.977 82.3058 162.66 81.6181C163.356 80.9177 164.008 80.4376 164.544 80.2425Z" fill="#353A82" stroke="#060040" stroke-width="1.4"/>
<path d="M174.092 83.9226C173.634 82.6642 172.829 81.4797 172.036 80.6562C171.639 80.2439 171.266 79.9448 170.967 79.7722C170.818 79.686 170.707 79.6431 170.636 79.6259C170.626 79.6235 170.617 79.6229 170.61 79.6217C170.587 79.6375 170.547 79.6669 170.492 79.7188C170.394 79.8112 170.276 79.9464 170.148 80.1246C169.892 80.4808 169.622 80.9702 169.404 81.5372C168.962 82.6876 168.776 84.0366 169.192 85.1801C169.689 86.545 170.449 88.6141 171.194 90.2981C171.569 91.1449 171.928 91.8633 172.235 92.3408C172.291 92.4284 172.344 92.5019 172.39 92.5639C172.496 92.3925 172.617 92.1622 172.747 91.8779C173.059 91.1999 173.392 90.2806 173.669 89.279C173.946 88.2777 174.161 87.215 174.249 86.2495C174.338 85.2663 174.287 84.4586 174.092 83.9226Z" fill="#353A82" stroke="#060040" stroke-width="1.4"/>
<mask id="mask0_369_1206" style="mask-type:alpha" maskUnits="userSpaceOnUse" x="145" y="14" width="76" height="72">
<mask id="path-36-inside-1_369_1206" fill="white">
<path d="M198.18 18.5312C220.121 28.7625 225.722 50.5658 216.654 70.0117C206.952 89.1619 192.735 86.6637 169.992 81.465C151.39 67.3845 140.021 57.9515 148.454 38.2097C157.522 18.764 176.239 8.29997 198.18 18.5312ZM193.191 32.0378C176.046 24.0433 162.562 29.4885 154.829 46.0718C149.495 63.7735 159.661 61.7691 171.891 77.7161C191.968 76.8336 196.719 85.7946 206.851 70.3303C214.584 53.7469 210.336 40.0325 193.191 32.0378Z"/>
</mask>
<path d="M198.18 18.5312C220.121 28.7625 225.722 50.5658 216.654 70.0117C206.952 89.1619 192.735 86.6637 169.992 81.465C151.39 67.3845 140.021 57.9515 148.454 38.2097C157.522 18.764 176.239 8.29997 198.18 18.5312ZM193.191 32.0378C176.046 24.0433 162.562 29.4885 154.829 46.0718C149.495 63.7735 159.661 61.7691 171.891 77.7161C191.968 76.8336 196.719 85.7946 206.851 70.3303C214.584 53.7469 210.336 40.0325 193.191 32.0378Z" fill="white"/>
<path d="M198.18 18.5312L198.772 17.2624L198.18 18.5312ZM216.654 70.0117L217.903 70.6445L217.913 70.6241L217.923 70.6034L216.654 70.0117ZM169.992 81.465L169.147 82.5813L169.387 82.7628L169.68 82.8298L169.992 81.465ZM148.454 38.2097L147.186 37.618L147.176 37.6387L147.167 37.6597L148.454 38.2097ZM193.191 32.0378L193.782 30.769L193.782 30.769L193.191 32.0378ZM154.829 46.0718L153.56 45.4801L153.517 45.5714L153.488 45.6679L154.829 46.0718ZM171.891 77.7161L170.78 78.568L171.224 79.1468L171.952 79.1147L171.891 77.7161ZM206.851 70.3303L208.022 71.0975L208.077 71.0132L208.12 70.9219L206.851 70.3303ZM198.18 18.5312L197.588 19.8001C208.238 24.766 214.836 32.4896 217.715 41.2529C220.6 50.033 219.789 59.977 215.385 69.4201L216.654 70.0117L217.923 70.6034C222.587 60.6005 223.51 49.92 220.375 40.379C217.235 30.8214 210.063 22.5277 198.772 17.2624L198.18 18.5312ZM216.654 70.0117L215.405 69.379C213.046 74.0351 210.457 77.2878 207.608 79.5068C204.77 81.7173 201.607 82.955 198.01 83.4841C190.71 84.5578 181.746 82.7157 170.304 80.1002L169.992 81.465L169.68 82.8298C180.981 85.413 190.496 87.4194 198.417 86.2543C202.43 85.664 206.061 84.2605 209.329 81.7159C212.585 79.1798 215.411 75.5634 217.903 70.6445L216.654 70.0117ZM169.992 81.465L170.837 80.3487C161.478 73.2645 154.222 67.5423 150.272 61.2187C148.326 58.1013 147.203 54.8626 147.045 51.2554C146.886 47.6355 147.693 43.5555 149.742 38.7597L148.454 38.2097L147.167 37.6597C144.999 42.7348 144.065 47.2371 144.247 51.3783C144.43 55.5321 145.731 59.2333 147.898 62.7019C152.175 69.5504 159.904 75.5849 169.147 82.5813L169.992 81.465ZM148.454 38.2097L149.723 38.8014C154.147 29.3157 160.874 22.1254 169.054 18.5228C177.203 14.9339 186.945 14.837 197.588 19.8001L198.18 18.5312L198.772 17.2624C187.474 11.9941 176.887 12.0137 167.925 15.9603C158.995 19.8934 151.83 27.6579 147.186 37.618L148.454 38.2097ZM193.191 32.0378L193.782 30.769C184.976 26.6625 176.918 25.9239 169.988 28.5276C163.064 31.1288 157.529 36.9676 153.56 45.4801L154.829 46.0718L156.097 46.6635C159.861 38.5927 164.935 33.4173 170.973 31.1487C177.004 28.8825 184.261 29.4186 192.599 33.3067L193.191 32.0378ZM154.829 46.0718L153.488 45.6679C152.128 50.1815 151.701 53.6076 152.141 56.4554C152.59 59.3579 153.915 61.5096 155.743 63.4991C157.503 65.4157 159.88 67.3244 162.379 69.5738C164.929 71.8699 167.792 74.6714 170.78 78.568L171.891 77.7161L173.002 76.8642C169.875 72.7873 166.881 69.8592 164.252 67.4929C161.572 65.0798 159.447 63.3932 157.805 61.6049C156.229 59.8894 155.248 58.2264 154.908 56.0278C154.56 53.7745 154.862 50.813 156.169 46.4757L154.829 46.0718ZM171.891 77.7161L171.952 79.1147C176.859 78.8991 180.831 79.284 184.207 79.7512C187.514 80.209 190.473 80.7883 193.045 80.8903C195.718 80.9963 198.187 80.6104 200.673 79.0755C203.109 77.5713 205.441 75.037 208.022 71.0975L206.851 70.3303L205.68 69.563C203.195 73.3557 201.134 75.5005 199.202 76.693C197.32 77.8548 195.447 78.1834 193.156 78.0925C190.764 77.9976 188.138 77.4687 184.59 76.9777C181.112 76.4962 176.961 76.0919 171.829 76.3174L171.891 77.7161ZM206.851 70.3303L208.12 70.9219C212.085 62.4184 213.067 54.4566 210.674 47.5075C208.277 40.5474 202.589 34.8758 193.782 30.769L193.191 32.0378L192.599 33.3067C200.937 37.1946 205.946 42.3775 208.026 48.4191C210.111 54.4716 209.35 61.6588 205.582 69.7386L206.851 70.3303Z" fill="#848484" mask="url(#path-36-inside-1_369_1206)"/>
</mask>
<g mask="url(#mask0_369_1206)">
<path d="M198.18 18.5312C220.121 28.7625 225.722 50.5658 216.654 70.0117C206.952 89.1619 192.735 86.6637 169.992 81.465C151.39 67.3845 140.021 57.9515 148.454 38.2097C157.522 18.764 176.239 8.29997 198.18 18.5312ZM193.191 32.0378C176.046 24.0433 162.562 29.4885 154.829 46.0718C149.495 63.7735 159.661 61.7691 171.891 77.7161C191.968 76.8336 196.719 85.7946 206.851 70.3303C214.584 53.7469 210.336 40.0325 193.191 32.0378Z" fill="#353A82"/>
<path d="M170.863 21.6265C171.563 21.9536 171.535 23.4967 170.8 25.0731C170.065 26.6494 168.901 27.6623 168.201 27.3361C167.5 27.0093 167.527 25.4665 168.262 23.8899C168.998 22.3132 170.162 21.2997 170.863 21.6265ZM174.035 23.1057C174.735 23.4327 174.707 24.9758 173.972 26.5523C173.237 28.1286 172.073 29.1416 171.373 28.8152C170.672 28.4885 170.699 26.9456 171.434 25.3691C172.17 23.7924 173.334 22.7789 174.035 23.1057ZM177.207 24.5848C177.908 24.9119 177.879 26.455 177.144 28.0315C176.409 29.6078 175.245 30.6208 174.545 30.2944C173.844 29.9676 173.871 28.4248 174.606 26.8482C175.342 25.2715 176.506 24.2581 177.207 24.5848Z" fill="#DFDFDF"/>
<path d="M155.301 25.1833C156.002 25.5104 155.973 27.0535 155.238 28.63C154.503 30.2062 153.34 31.2191 152.639 30.8929C151.938 30.5661 151.966 29.0233 152.701 27.4467C153.436 25.87 154.601 24.8566 155.301 25.1833ZM158.473 26.6625C159.174 26.9894 159.146 28.5326 158.41 30.1091C157.675 31.6855 156.512 32.6985 155.811 32.372C155.11 32.0453 155.138 30.5025 155.873 28.9259C156.608 27.3492 157.773 26.3357 158.473 26.6625ZM161.646 28.1417C162.346 28.4686 162.318 30.0117 161.582 31.5883C160.847 33.1647 159.684 34.1777 158.983 33.8512C158.282 33.5245 158.31 31.9816 159.045 30.405C159.78 28.8283 160.945 27.8149 161.646 28.1417Z" fill="#DFDFDF"/>
<path d="M151.33 39.506C151.714 40.1769 150.802 41.4218 149.293 42.2869C147.784 43.1518 146.25 43.3096 145.865 42.6392C145.48 41.9685 146.392 40.7232 147.901 39.858C149.41 38.9927 150.946 38.8352 151.33 39.506ZM153.071 42.5424C153.455 43.2133 152.543 44.4582 151.034 45.3234C149.525 46.1883 147.99 46.3461 147.606 45.6756C147.221 45.0049 148.132 43.7596 149.641 42.8944C151.151 42.0291 152.686 41.8717 153.071 42.5424ZM154.812 45.5789C155.196 46.2497 154.284 47.4947 152.775 48.3598C151.266 49.2247 149.731 49.3825 149.346 48.7121C148.962 48.0413 149.873 46.796 151.382 45.9308C152.891 45.0656 154.427 44.9081 154.812 45.5789Z" fill="#DFDFDF"/>
<path d="M159.636 63.6233C160.02 64.2941 159.108 65.5391 157.599 66.4042C156.09 67.2691 154.555 67.4268 154.171 66.7565C153.786 66.0857 154.697 64.8404 156.206 63.9752C157.716 63.11 159.251 62.9525 159.636 63.6233ZM161.377 66.6597C161.761 67.3305 160.849 68.5755 159.34 69.4406C157.831 70.3055 156.296 70.4634 155.911 69.7929C155.527 69.1222 156.438 67.8769 157.947 67.0116C159.456 66.1464 160.992 65.9889 161.377 66.6597ZM163.117 69.6961C163.502 70.367 162.589 71.6119 161.08 72.477C159.571 73.342 158.037 73.4998 157.652 72.8293C157.267 72.1586 158.179 70.9133 159.688 70.0481C161.197 69.1828 162.733 69.0253 163.117 69.6961Z" fill="#DFDFDF"/>
<path d="M180.014 14.9885C180.787 14.9728 181.443 16.3698 181.479 18.1089C181.515 19.8477 180.919 21.2702 180.146 21.2869C179.373 21.3031 178.716 19.9067 178.68 18.1676C178.643 16.4282 179.241 15.0047 180.014 14.9885ZM183.513 14.9151C184.286 14.8991 184.942 16.2963 184.978 18.0355C185.015 19.7746 184.418 21.1972 183.645 21.2136C182.872 21.2298 182.216 19.8334 182.179 18.0942C182.143 16.3549 182.74 14.9313 183.513 14.9151ZM187.012 14.8418C187.785 14.8256 188.442 16.2228 188.478 17.9621C188.515 19.7013 187.917 21.1239 187.144 21.1402C186.371 21.1564 185.715 19.76 185.678 18.0208C185.642 16.2815 186.239 14.858 187.012 14.8418Z" fill="#DFDFDF"/>
<path d="M204.86 36.1651C205.633 36.1493 206.289 37.5464 206.325 39.2854C206.362 41.0243 205.765 42.4468 204.992 42.4635C204.219 42.4797 203.563 41.0833 203.526 39.3441C203.49 37.6048 204.087 36.1813 204.86 36.1651ZM208.359 36.0917C209.132 36.0759 209.788 37.473 209.824 39.2121C209.861 40.951 209.264 42.3735 208.491 42.3901C207.718 42.4063 207.062 41.0099 207.025 39.2708C206.989 37.5314 207.586 36.1079 208.359 36.0917ZM211.859 36.0183C212.631 36.0025 213.287 37.3996 213.324 39.1387C213.36 40.8776 212.763 42.3002 211.991 42.3168C211.218 42.333 210.561 40.9365 210.524 39.1974C210.488 37.4581 211.085 36.0345 211.859 36.0183Z" fill="#DFDFDF"/>
<path d="M200.965 19.6737C201.737 19.658 202.393 21.0551 202.43 22.7941C202.466 24.5329 201.869 25.9555 201.097 25.9721C200.324 25.9883 199.667 24.5919 199.63 22.8528C199.594 21.1134 200.192 19.6899 200.965 19.6737ZM204.464 19.6003C205.237 19.5846 205.892 20.9816 205.929 22.7207C205.965 24.4596 205.369 25.8821 204.596 25.8988C203.823 25.915 203.166 24.5185 203.13 22.7794C203.093 21.0401 203.691 19.6165 204.464 19.6003ZM207.963 19.527C208.736 19.5111 209.392 20.9082 209.428 22.6473C209.465 24.3863 208.868 25.8088 208.095 25.8254C207.322 25.8416 206.665 24.4452 206.629 22.706C206.592 20.9667 207.19 19.5432 207.963 19.527Z" fill="#DFDFDF"/>
<path d="M203.22 67.8397C203.993 67.824 204.649 69.221 204.685 70.9601C204.721 72.6989 204.125 74.1214 203.352 74.1381C202.579 74.1543 201.922 72.7579 201.886 71.0187C201.849 69.2794 202.447 67.8559 203.22 67.8397ZM206.719 67.7663C207.492 67.7504 208.148 69.1476 208.184 70.8867C208.221 72.6257 207.624 74.0482 206.851 74.0647C206.078 74.081 205.422 72.6845 205.385 70.9454C205.349 69.2061 205.946 67.7825 206.719 67.7663ZM210.218 67.693C210.991 67.677 211.647 69.0742 211.684 70.8133C211.72 72.5524 211.123 73.9749 210.35 73.9914C209.577 74.0076 208.921 72.6112 208.884 70.872C208.848 69.1327 209.445 67.7092 210.218 67.693Z" fill="#DFDFDF"/>
<path d="M215.936 50.9113C216.476 51.4638 215.907 52.8984 214.664 54.1156C213.422 55.3326 211.977 55.8717 211.435 55.3199C210.894 54.7676 211.463 53.3329 212.705 52.1156C213.948 50.8981 215.394 50.359 215.936 50.9113ZM218.385 53.4115C218.926 53.9639 218.356 55.3985 217.114 56.6158C215.871 57.8329 214.426 58.3722 213.885 57.8201C213.344 57.2678 213.912 55.8331 215.154 54.6158C216.397 53.3984 217.844 52.8592 218.385 53.4115ZM220.834 55.9117C221.375 56.4641 220.806 57.8987 219.563 59.116C218.32 60.3331 216.875 60.8724 216.334 60.3203C215.793 59.768 216.361 58.3333 217.604 57.116C218.846 55.8986 220.293 55.3594 220.834 55.9117Z" fill="#DFDFDF"/>
<path d="M196.026 78.7007C196.566 79.2533 195.997 80.6878 194.755 81.905C193.512 83.1221 192.067 83.6611 191.526 83.1093C190.985 82.557 191.553 81.1224 192.795 79.905C194.038 78.6876 195.485 78.1484 196.026 78.7007ZM198.475 81.2009C199.016 81.7535 198.447 83.188 197.204 84.4052C195.962 85.6223 194.516 86.1614 193.975 85.6095C193.434 85.0572 194.002 83.6226 195.245 82.4052C196.487 81.1878 197.934 80.6486 198.475 81.2009ZM200.924 83.7012C201.465 84.2537 200.896 85.6882 199.653 86.9054C198.411 88.1225 196.965 88.6616 196.424 88.1097C195.883 87.5574 196.451 86.1228 197.694 84.9054C198.937 83.688 200.383 83.1488 200.924 83.7012Z" fill="#DFDFDF"/>
<path d="M173.104 76.5085C173.645 77.061 173.076 78.4956 171.833 79.7128C170.591 80.9298 169.146 81.4689 168.604 80.9171C168.063 80.3648 168.631 78.9301 169.874 77.7128C171.117 76.4953 172.563 75.9562 173.104 76.5085ZM175.554 79.0087C176.095 79.5611 175.525 80.9957 174.283 82.213C173.04 83.4301 171.595 83.9694 171.054 83.4173C170.513 82.865 171.081 81.4303 172.323 80.213C173.566 78.9955 175.013 78.4564 175.554 79.0087ZM178.003 81.5089C178.544 82.0613 177.975 83.4959 176.732 84.7132C175.489 85.9303 174.044 86.4696 173.503 85.9175C172.962 85.3652 173.53 83.9305 174.773 82.7132C176.015 81.4958 177.462 80.9566 178.003 81.5089Z" fill="#DFDFDF"/>
<path d="M191.095 23.7799C191.672 24.2939 191.203 25.7642 190.047 27.0639C188.891 28.3634 187.486 29.0005 186.908 28.4872C186.33 27.9734 186.799 26.5031 187.955 25.2032C189.111 23.9033 190.517 23.266 191.095 23.7799ZM193.71 26.1059C194.287 26.6199 193.818 28.0902 192.662 29.3899C191.506 30.6895 190.101 31.3266 189.523 30.8132C188.946 30.2994 189.414 28.8291 190.57 27.5292C191.726 26.2293 193.132 25.592 193.71 26.1059ZM196.325 28.4313C196.902 28.9451 196.433 30.416 195.277 31.716C194.121 33.0157 192.715 33.6524 192.138 33.1386C191.561 32.6245 192.029 31.1549 193.185 29.8553C194.341 28.5556 195.747 27.918 196.325 28.4313Z" fill="#DFDFDF"/>
<mask id="path-51-inside-2_369_1206" fill="white">
<path d="M198.18 18.5312C220.121 28.7625 225.722 50.5658 216.654 70.0117C206.952 89.1619 192.735 86.6637 169.992 81.465C151.39 67.3845 140.021 57.9515 148.454 38.2097C157.522 18.764 176.239 8.29997 198.18 18.5312ZM193.191 32.0378C176.046 24.0433 162.562 29.4885 154.829 46.0718C149.495 63.7735 159.661 61.7691 171.891 77.7161C191.968 76.8336 196.719 85.7946 206.851 70.3303C214.584 53.7469 210.336 40.0325 193.191 32.0378Z"/>
</mask>
<path d="M198.18 18.5312L198.772 17.2624L198.18 18.5312ZM216.654 70.0117L217.903 70.6445L217.913 70.6241L217.923 70.6034L216.654 70.0117ZM169.992 81.465L169.147 82.5813L169.387 82.7628L169.68 82.8298L169.992 81.465ZM148.454 38.2097L147.186 37.618L147.176 37.6387L147.167 37.6597L148.454 38.2097ZM193.191 32.0378L193.782 30.769L193.782 30.769L193.191 32.0378ZM154.829 46.0718L153.56 45.4801L153.517 45.5714L153.488 45.6679L154.829 46.0718ZM171.891 77.7161L170.78 78.568L171.224 79.1468L171.952 79.1147L171.891 77.7161ZM206.851 70.3303L208.022 71.0975L208.077 71.0132L208.12 70.9219L206.851 70.3303ZM198.18 18.5312L197.588 19.8001C208.238 24.766 214.836 32.4896 217.715 41.2529C220.6 50.033 219.789 59.977 215.385 69.4201L216.654 70.0117L217.923 70.6034C222.587 60.6005 223.51 49.92 220.375 40.379C217.235 30.8214 210.063 22.5277 198.772 17.2624L198.18 18.5312ZM216.654 70.0117L215.405 69.379C213.046 74.0351 210.457 77.2878 207.608 79.5068C204.77 81.7173 201.607 82.955 198.01 83.4841C190.71 84.5578 181.746 82.7157 170.304 80.1002L169.992 81.465L169.68 82.8298C180.981 85.413 190.496 87.4194 198.417 86.2543C202.43 85.664 206.061 84.2605 209.329 81.7159C212.585 79.1798 215.411 75.5634 217.903 70.6445L216.654 70.0117ZM169.992 81.465L170.837 80.3487C161.478 73.2645 154.222 67.5423 150.272 61.2187C148.326 58.1013 147.203 54.8626 147.045 51.2554C146.886 47.6355 147.693 43.5555 149.742 38.7597L148.454 38.2097L147.167 37.6597C144.999 42.7348 144.065 47.2371 144.247 51.3783C144.43 55.5321 145.731 59.2333 147.898 62.7019C152.175 69.5504 159.904 75.5849 169.147 82.5813L169.992 81.465ZM148.454 38.2097L149.723 38.8014C154.147 29.3157 160.874 22.1254 169.054 18.5228C177.203 14.9339 186.945 14.837 197.588 19.8001L198.18 18.5312L198.772 17.2624C187.474 11.9941 176.887 12.0137 167.925 15.9603C158.995 19.8934 151.83 27.6579 147.186 37.618L148.454 38.2097ZM193.191 32.0378L193.782 30.769C184.976 26.6625 176.918 25.9239 169.988 28.5276C163.064 31.1288 157.529 36.9676 153.56 45.4801L154.829 46.0718L156.097 46.6635C159.861 38.5927 164.935 33.4173 170.973 31.1487C177.004 28.8825 184.261 29.4186 192.599 33.3067L193.191 32.0378ZM154.829 46.0718L153.488 45.6679C152.128 50.1815 151.701 53.6076 152.141 56.4554C152.59 59.3579 153.915 61.5096 155.743 63.4991C157.503 65.4157 159.88 67.3244 162.379 69.5738C164.929 71.8699 167.792 74.6714 170.78 78.568L171.891 77.7161L173.002 76.8642C169.875 72.7873 166.881 69.8592 164.252 67.4929C161.572 65.0798 159.447 63.3932 157.805 61.6049C156.229 59.8894 155.248 58.2264 154.908 56.0278C154.56 53.7745 154.862 50.813 156.169 46.4757L154.829 46.0718ZM171.891 77.7161L171.952 79.1147C176.859 78.8991 180.831 79.284 184.207 79.7512C187.514 80.209 190.473 80.7883 193.045 80.8903C195.718 80.9963 198.187 80.6104 200.673 79.0755C203.109 77.5713 205.441 75.037 208.022 71.0975L206.851 70.3303L205.68 69.563C203.195 73.3557 201.134 75.5005 199.202 76.693C197.32 77.8548 195.447 78.1834 193.156 78.0925C190.764 77.9976 188.138 77.4687 184.59 76.9777C181.112 76.4962 176.961 76.0919 171.829 76.3174L171.891 77.7161ZM206.851 70.3303L208.12 70.9219C212.085 62.4184 213.067 54.4566 210.674 47.5075C208.277 40.5474 202.589 34.8758 193.782 30.769L193.191 32.0378L192.599 33.3067C200.937 37.1946 205.946 42.3775 208.026 48.4191C210.111 54.4716 209.35 61.6588 205.582 69.7386L206.851 70.3303Z" fill="#060040" mask="url(#path-51-inside-2_369_1206)"/>
</g>
</g>
<defs>
<filter id="filter0_d_369_1206" x="0" y="7.85052" width="234" height="164.15" filterUnits="userSpaceOnUse" color-interpolation-filters="sRGB">
<feFlood flood-opacity="0" result="BackgroundImageFix"/>
<feColorMatrix in="SourceAlpha" type="matrix" values="0 0 0 0 0 0 0 0 0 0 0 0 0 0 0 0 0 0 127 0" result="hardAlpha"/>
<feOffset dy="2"/>
<feGaussianBlur stdDeviation="1"/>
<feComposite in2="hardAlpha" operator="out"/>
<feColorMatrix type="matrix" values="0 0 0 0 0 0 0 0 0 0 0 0 0 0 0 0 0 0 0.2 0"/>
<feBlend mode="normal" in2="BackgroundImageFix" result="effect1_dropShadow_369_1206"/>
<feBlend mode="normal" in="SourceGraphic" in2="effect1_dropShadow_369_1206" result="shape"/>
</filter>
</defs>
</svg>
