<svg width="235" height="172" viewBox="0 0 235 172" fill="none" xmlns="http://www.w3.org/2000/svg">
<g filter="url(#filter0_d_369_1113)">
<path d="M100.021 62.8699C122.333 51.971 147.866 61.507 157.182 70.5929C166.497 79.6787 164.551 96.6149 168.923 92.7333C173.296 88.8517 184.935 88.1568 197.061 91.1634C211.611 94.7714 224.719 99.795 229.571 108.427C234.423 117.058 231.512 125.69 225.204 140.681C218.896 155.673 199.007 160.775 199.007 160.775C199.007 160.775 178.62 164.49 173.77 158.853C168.92 153.216 164.059 165.478 135.443 167.357C106.826 169.236 93.221 158.304 89.8258 155.673C86.4307 153.042 80.1145 155.863 63.6237 161.124C47.1328 166.386 30.1431 148.404 27.717 150.221C25.2909 152.039 12.6781 154.104 6.37277 146.587C0.0674546 139.071 1.0375 129.225 6.37277 122.836C10.9865 117.311 27.5447 118.235 31.9388 118.586C30.7898 117.459 28.8808 115.426 25.7818 111.933C15.1113 99.907 37.4289 84.8164 41.309 83.3131C45.1891 81.8097 52.4717 79.6787 58.2919 79.6787C64.1121 79.6787 81.0975 83.3131 81.0975 83.3131C81.0975 83.3131 77.7103 73.7689 100.021 62.8699Z" fill="white"/>
<path d="M229.674 109.043C234.378 117.612 231.465 126.226 225.203 141.109C218.91 156.066 199.098 161.178 199.007 161.201C199.007 161.201 178.619 164.917 173.769 159.279C168.918 153.643 164.058 165.905 135.442 167.784C106.826 169.663 93.2206 158.731 89.8252 156.1C86.43 153.469 80.1137 156.289 63.623 161.551C47.1322 166.813 30.1419 148.831 27.7158 150.649C25.2888 152.466 12.6771 154.53 6.37207 147.014C4.01114 144.199 2.67094 141.058 2.19727 137.895C3.07911 140.029 4.15184 141.924 5.39648 143.407C11.7018 150.924 25.2907 147.041 27.7168 145.224C30.1433 143.407 46.1628 160.026 62.6533 154.765C79.1441 149.503 79.1527 145.32 82.5479 147.95C85.9438 150.582 100.514 164.821 129.129 162.942C157.745 161.062 165.037 147.31 169.888 152.947C174.738 158.585 205.795 153.856 205.795 153.856C205.857 153.82 219.395 146.098 225.688 131.141C229.357 122.423 230.398 115.232 229.674 109.043Z" fill="#CDF5FD"/>
<path d="M184.634 120.779C175.559 140.777 162.812 137.076 147.365 130.066C131.919 123.056 120.74 115.9 129.815 95.9021C133.982 86.719 146.518 74.7472 154.41 69.9473C162.303 65.1474 166.782 65.0816 175.135 68.8725C183.489 72.6634 185.529 76.0007 187.973 85.1782C190.708 95.4484 188.802 111.596 184.634 120.779Z" fill="#929AAB"/>
<path d="M171.379 121.191C165.329 134.523 157.712 132.456 148.552 128.299C139.392 124.142 132.82 119.77 138.87 106.438C141.648 100.316 149.572 92.1383 154.484 88.78C159.397 85.4217 162.111 85.2546 167.065 87.5027C172.019 89.7508 173.162 91.8771 174.388 97.8123C175.76 104.454 174.157 115.069 171.379 121.191Z" fill="#EEEEEE"/>
<path d="M154.628 69.1748L148.608 73.586C145.715 75.7058 142.99 78.0447 140.455 80.5821L139.994 81.044C137.209 83.8321 134.665 86.8504 132.388 90.0667L130.455 92.7972L128.489 96.7358C127.004 99.7097 126.233 102.988 126.235 106.312C126.236 108.567 126.594 110.808 127.294 112.951L128.007 115.132" stroke="#393E46" stroke-width="2.1" stroke-linecap="round"/>
<path d="M188.238 84.0427L188.881 91.4779C189.191 95.0507 189.225 98.6421 188.984 102.22L188.957 102.63C188.681 106.722 188.046 110.782 187.06 114.763L186.231 118.108L184.702 121.854C183.444 124.935 181.484 127.68 178.978 129.869C177.283 131.35 175.365 132.554 173.295 133.437L171.179 134.339" stroke="#393E46" stroke-width="2.1" stroke-linecap="round"/>
<path d="M213.355 70.5714C205.593 87.2178 191.473 82.3847 174.108 74.287C156.742 66.1892 143.964 58.4798 151.726 41.8334C155.291 34.1893 167.597 25.0866 175.621 21.7852C183.646 18.4838 187.296 21.485 196.688 25.8642C206.079 30.2435 209.789 30.9378 213.353 39.3799C217.342 48.8273 216.92 62.9273 213.355 70.5714Z" fill="#929AAB"/>
<path d="M182.484 51.3968C179.677 56.5956 173.034 57.7084 166.766 55.5514C161.036 52.8792 155.636 51.5096 159.469 44.1098C161.898 38.9001 170.16 35.0521 176.507 37.1253C187.47 40.7061 185.564 44.7938 182.484 51.3968Z" fill="#393E46"/>
<path d="M186.152 53.383C183.974 58.875 187.392 64.6797 193.073 68.0944C198.803 70.7666 203.324 74.0229 206.528 66.3298C208.957 61.1201 206.595 52.3181 200.927 48.7885C191.137 42.6922 189.231 46.7799 186.152 53.383Z" fill="#393E46"/>
<circle cx="173.765" cy="50.3933" r="3.46939" transform="rotate(25 173.765 50.3933)" fill="#1A1C1F"/>
<circle cx="192.631" cy="59.1907" r="3.46939" transform="rotate(25 192.631 59.1907)" fill="#1A1C1F"/>
<ellipse cx="173.14" cy="48.9399" rx="1.04082" ry="1.38776" transform="rotate(55 173.14 48.9399)" fill="white"/>
<ellipse cx="192.007" cy="57.7372" rx="1.04082" ry="1.38776" transform="rotate(55 192.007 57.7372)" fill="white"/>
<path d="M185.451 23.6806C181.967 25.6925 174.143 25.8156 172.227 22.4969C172.755 20.8594 173.136 18.6361 174.093 16.1592C175.413 12.7413 177.891 7.65916 181.399 8.71977C181.531 8.75992 181.686 8.82042 181.859 8.8985C187.118 11.2704 191.284 18.6291 187.046 22.5432C186.62 22.9368 186.095 23.3088 185.451 23.6806Z" fill="#929AAB"/>
<path d="M184.847 21.0176C182.371 22.4471 176.083 25.3126 174.774 23.045C175.135 21.9972 175.352 20.5753 175.891 18.9885C176.813 16.2782 178.525 11.9659 181.28 12.7407C184.635 13.6841 187.865 19.2751 184.847 21.0176Z" fill="#393E46"/>
<path d="M205.695 33.1205C206.394 37.0831 211.329 43.1556 215.103 42.4902C216.054 40.9746 217.593 39.1734 218.911 36.7043C220.537 33.6592 223.279 28.7905 220.39 26.9017C220.159 26.7508 219.793 26.5765 219.336 26.392C213.985 24.2346 205.816 25.4053 205.541 31.1677C205.514 31.7472 205.566 32.3881 205.695 33.1205Z" fill="#929AAB"/>
<path d="M208.483 32.3664C208.976 35.1655 210.808 40.6358 213.336 40.1901C213.989 39.0857 215.157 37.8043 216.107 35.9892C217.154 33.99 219.147 30.8813 217.292 29.5967C214.21 27.4631 207.858 28.4464 208.446 32.148C208.457 32.2181 208.469 32.2909 208.483 32.3664Z" fill="#393E46"/>
<path d="M181.587 63.9937C181.101 65.0356 179.303 65.6082 178.045 65.0217C176.83 64.4549 176.07 62.6896 176.556 61.6477C177.042 60.6058 178.736 60.3672 179.952 60.9341C181.167 61.5009 182.073 62.9517 181.587 63.9937Z" fill="#393E46"/>
<path d="M188.659 21.7377L188.763 19.635C188.999 14.8784 186.108 10.5229 181.634 8.89168" stroke="#393E46" stroke-width="2.08163" stroke-linecap="round"/>
<path d="M187.758 22.8488L191.735 24.3566C194.935 25.5697 198.04 27.0178 201.026 28.6891L204.737 30.7664" stroke="#393E46" stroke-width="2.08163" stroke-linecap="round"/>
<path d="M205.01 29.362L205.539 28.8712C209.645 25.0642 215.738 24.3379 220.624 27.0728" stroke="#393E46" stroke-width="2.08163" stroke-linecap="round"/>
<path d="M170.572 24.4048L165.341 27.542C160.063 30.7077 155.704 35.1989 152.698 40.5697" stroke="#393E46" stroke-width="2.08163" stroke-linecap="round"/>
<path d="M152.698 40.5697C152.451 40.6527 150.637 44.0198 149.473 47.4872C148.097 51.5821 149.412 55.9785 152.026 59.4173L152.453 59.9781" stroke="#393E46" stroke-width="2.08163" stroke-linecap="round"/>
<path d="M214.593 44.932L215.552 50.9554C216.519 57.0337 215.881 63.2594 213.699 69.0145" stroke="#393E46" stroke-width="2.08163" stroke-linecap="round"/>
<path d="M213.699 69.0145C213.794 69.2576 212.38 72.8111 210.473 75.932C208.22 79.6177 204.007 81.4365 199.692 81.6444L198.989 81.6783" stroke="#393E46" stroke-width="2.08163" stroke-linecap="round"/>
<path d="M155.975 63.9175C160.51 67.8103 165.556 71.0648 170.973 73.5907L173.5 74.7693L176.188 76.0226C181.709 78.597 187.545 80.4333 193.545 81.4839L193.707 81.5122" stroke="#393E46" stroke-width="2.08163" stroke-linecap="round"/>
<path d="M172.374 22.1826L173.213 19.1629C174.153 15.7822 175.7 12.6006 177.778 9.77306" stroke="#393E46" stroke-width="2.08163" stroke-linecap="round"/>
<path d="M215.766 42.4165L218.263 39.0188C220.069 36.5603 221.332 33.7454 221.966 30.7613" stroke="#393E46" stroke-width="2.08163" stroke-linecap="round"/>
<ellipse cx="126" cy="110" rx="29" ry="26" fill="white"/>
<ellipse cx="175.5" cy="121" rx="37.5" ry="26" fill="white"/>
<path d="M105 92.5C118.114 80.1731 139.145 82.5092 149.234 97.4133L152 101.5L155.963 99.8209C171.892 93.0713 190.154 94.8317 204.5 104.5" stroke="#CDF5FD" stroke-width="3" stroke-linecap="round"/>
<path d="M142.41 85.2527C144.57 86.3699 146.156 88.0097 146.997 89.7142C147.839 91.4193 147.911 93.1192 147.204 94.487C146.496 95.8549 145.067 96.7782 143.189 97.0767C141.312 97.3752 139.057 97.0286 136.897 95.9113C134.737 94.7941 133.152 93.1544 132.31 91.4498C131.469 89.7447 131.396 88.0448 132.104 86.677C132.811 85.3091 134.241 84.3858 136.118 84.0873C137.996 83.7888 140.25 84.1354 142.41 85.2527Z" fill="#929AAB" stroke="#393E46" stroke-width="2"/>
<path d="M182.275 91.5777C184.703 91.726 186.816 92.5845 188.275 93.8033C189.734 95.0225 190.487 96.5479 190.393 98.085C190.3 99.6222 189.366 101.045 187.769 102.077C186.173 103.109 183.971 103.704 181.543 103.555C179.116 103.407 177.003 102.549 175.544 101.33C174.085 100.111 173.331 98.5851 173.425 97.048C173.519 95.5109 174.453 94.0885 176.049 93.0561C177.646 92.024 179.848 91.4293 182.275 91.5777Z" fill="#929AAB" stroke="#393E46" stroke-width="2"/>
<path d="M165.544 79.2426C166.802 78.7846 168.227 78.6395 169.367 78.7176C169.938 78.7568 170.407 78.8501 170.731 78.9683C170.894 79.0274 170.998 79.0849 171.057 79.1284C171.065 79.1345 171.071 79.1406 171.076 79.1452C171.079 79.1732 171.082 79.2229 171.078 79.2983C171.07 79.4327 171.042 79.6099 170.988 79.8226C170.88 80.2478 170.678 80.7685 170.384 81.3C169.787 82.3783 168.873 83.388 167.73 83.8041C166.365 84.3009 164.291 85.0491 162.522 85.5603C161.632 85.8173 160.852 86.0047 160.288 86.0761C160.185 86.0891 160.095 86.0962 160.018 86.1007C160.081 85.9094 160.18 85.6689 160.314 85.3861C160.633 84.7118 161.123 83.8657 161.712 83.0096C162.301 82.1538 162.977 81.3059 163.66 80.6181C164.356 79.9177 165.008 79.4376 165.544 79.2426Z" fill="white" stroke="#848484" stroke-width="1.4"/>
<path d="M175.092 82.9227C174.634 81.6642 173.829 80.4798 173.036 79.6563C172.639 79.2439 172.266 78.9448 171.967 78.7723C171.818 78.686 171.707 78.6431 171.636 78.6259C171.626 78.6235 171.617 78.6229 171.61 78.6217C171.587 78.6376 171.547 78.667 171.492 78.7188C171.394 78.8113 171.276 78.9464 171.148 79.1246C170.892 79.4809 170.622 79.9702 170.404 80.5373C169.962 81.6877 169.776 83.0367 170.192 84.1801C170.689 85.545 171.449 87.6141 172.194 89.2982C172.569 90.1449 172.928 90.8633 173.235 91.3408C173.291 91.4284 173.344 91.502 173.39 91.5639C173.496 91.3926 173.617 91.1622 173.747 90.8779C174.059 90.1999 174.392 89.2807 174.669 88.279C174.946 87.2778 175.161 86.2151 175.249 85.2496C175.338 84.2663 175.287 83.4586 175.092 82.9227Z" fill="white" stroke="#848484" stroke-width="1.4"/>
<mask id="mask0_369_1113" style="mask-type:alpha" maskUnits="userSpaceOnUse" x="146" y="13" width="76" height="72">
<mask id="path-36-inside-1_369_1113" fill="white">
<path d="M199.18 17.5312C221.121 27.7625 226.722 49.5658 217.654 69.0117C207.952 88.1619 193.735 85.6637 170.992 80.465C152.39 66.3845 141.021 56.9515 149.454 37.2097C158.522 17.764 177.239 7.29997 199.18 17.5312ZM194.191 31.0378C177.046 23.0433 163.562 28.4885 155.829 45.0718C150.495 62.7736 160.661 60.7691 172.891 76.7161C192.968 75.8336 197.719 84.7947 207.851 69.3303C215.584 52.7469 211.336 39.0325 194.191 31.0378Z"/>
</mask>
<path d="M199.18 17.5312C221.121 27.7625 226.722 49.5658 217.654 69.0117C207.952 88.1619 193.735 85.6637 170.992 80.465C152.39 66.3845 141.021 56.9515 149.454 37.2097C158.522 17.764 177.239 7.29997 199.18 17.5312ZM194.191 31.0378C177.046 23.0433 163.562 28.4885 155.829 45.0718C150.495 62.7736 160.661 60.7691 172.891 76.7161C192.968 75.8336 197.719 84.7947 207.851 69.3303C215.584 52.7469 211.336 39.0325 194.191 31.0378Z" fill="white"/>
<path d="M199.18 17.5312L199.772 16.2624L199.18 17.5312ZM217.654 69.0117L218.903 69.6445L218.913 69.6241L218.923 69.6034L217.654 69.0117ZM170.992 80.465L170.147 81.5813L170.387 81.7628L170.68 81.8298L170.992 80.465ZM149.454 37.2097L148.186 36.618L148.176 36.6387L148.167 36.6597L149.454 37.2097ZM194.191 31.0378L194.782 29.769L194.782 29.769L194.191 31.0378ZM155.829 45.0718L154.56 44.4801L154.517 44.5714L154.488 44.6679L155.829 45.0718ZM172.891 76.7161L171.78 77.568L172.224 78.1468L172.952 78.1147L172.891 76.7161ZM207.851 69.3303L209.022 70.0975L209.077 70.0132L209.12 69.9219L207.851 69.3303ZM199.18 17.5312L198.588 18.8001C209.238 23.766 215.836 31.4896 218.715 40.2529C221.6 49.033 220.789 58.977 216.385 68.4201L217.654 69.0117L218.923 69.6034C223.587 59.6005 224.51 48.92 221.375 39.379C218.235 29.8214 211.063 21.5277 199.772 16.2624L199.18 17.5312ZM217.654 69.0117L216.405 68.379C214.046 73.0351 211.457 76.2878 208.608 78.5068C205.77 80.7173 202.607 81.955 199.01 82.4841C191.71 83.5578 182.746 81.7157 171.304 79.1002L170.992 80.465L170.68 81.8298C181.981 84.413 191.496 86.4194 199.417 85.2543C203.43 84.664 207.061 83.2605 210.329 80.7159C213.585 78.1798 216.411 74.5634 218.903 69.6445L217.654 69.0117ZM170.992 80.465L171.837 79.3487C162.478 72.2645 155.222 66.5423 151.272 60.2187C149.326 57.1013 148.203 53.8626 148.045 50.2554C147.886 46.6355 148.693 42.5555 150.742 37.7597L149.454 37.2097L148.167 36.6597C145.999 41.7348 145.065 46.2371 145.247 50.3783C145.43 54.5321 146.731 58.2333 148.898 61.7019C153.175 68.5504 160.904 74.5849 170.147 81.5813L170.992 80.465ZM149.454 37.2097L150.723 37.8014C155.147 28.3157 161.874 21.1254 170.054 17.5228C178.203 13.9339 187.945 13.837 198.588 18.8001L199.18 17.5312L199.772 16.2624C188.474 10.9941 177.887 11.0137 168.925 14.9603C159.995 18.8934 152.83 26.6579 148.186 36.618L149.454 37.2097ZM194.191 31.0378L194.782 29.769C185.976 25.6625 177.918 24.9239 170.988 27.5276C164.064 30.1288 158.529 35.9676 154.56 44.4801L155.829 45.0718L157.097 45.6635C160.861 37.5927 165.935 32.4173 171.973 30.1487C178.004 27.8825 185.261 28.4186 193.599 32.3067L194.191 31.0378ZM155.829 45.0718L154.488 44.6679C153.128 49.1815 152.701 52.6076 153.141 55.4554C153.59 58.3579 154.915 60.5096 156.743 62.4991C158.503 64.4157 160.88 66.3244 163.379 68.5738C165.929 70.8699 168.792 73.6714 171.78 77.568L172.891 76.7161L174.002 75.8642C170.875 71.7873 167.881 68.8592 165.252 66.4929C162.572 64.0798 160.447 62.3932 158.805 60.6049C157.229 58.8894 156.248 57.2264 155.908 55.0278C155.56 52.7745 155.862 49.813 157.169 45.4757L155.829 45.0718ZM172.891 76.7161L172.952 78.1147C177.859 77.8991 181.831 78.284 185.207 78.7512C188.514 79.209 191.473 79.7883 194.045 79.8903C196.718 79.9963 199.187 79.6104 201.673 78.0755C204.109 76.5713 206.441 74.037 209.022 70.0975L207.851 69.3303L206.68 68.563C204.195 72.3557 202.134 74.5005 200.202 75.693C198.32 76.8548 196.447 77.1834 194.156 77.0925C191.764 76.9976 189.138 76.4687 185.59 75.9777C182.112 75.4962 177.961 75.0919 172.829 75.3174L172.891 76.7161ZM207.851 69.3303L209.12 69.9219C213.085 61.4184 214.067 53.4566 211.674 46.5075C209.277 39.5474 203.589 33.8758 194.782 29.769L194.191 31.0378L193.599 32.3067C201.937 36.1946 206.946 41.3775 209.026 47.4191C211.111 53.4716 210.35 60.6588 206.582 68.7386L207.851 69.3303Z" fill="#848484" mask="url(#path-36-inside-1_369_1113)"/>
</mask>
<g mask="url(#mask0_369_1113)">
<path d="M199.18 17.5312C221.121 27.7625 226.722 49.5658 217.654 69.0117C207.952 88.1619 193.735 85.6637 170.992 80.465C152.39 66.3845 141.021 56.9515 149.454 37.2097C158.522 17.764 177.239 7.29997 199.18 17.5312ZM194.191 31.0378C177.046 23.0433 163.562 28.4885 155.829 45.0718C150.495 62.7736 160.661 60.7691 172.891 76.7161C192.968 75.8336 197.719 84.7947 207.851 69.3303C215.584 52.7469 211.336 39.0325 194.191 31.0378Z" fill="white"/>
<path d="M180.383 17.2619L184.44 11.0443L186.98 18.0211" stroke="#00C914" stroke-width="2.1" stroke-linecap="round"/>
<path d="M180.826 16.3101C182.578 17.127 183.336 19.2095 182.519 20.9613C181.702 22.7132 179.62 23.4711 177.868 22.6543C176.116 21.8373 175.358 19.7549 176.175 18.003C176.992 16.2513 179.074 15.4932 180.826 16.3101ZM188.354 16.7309C190.105 17.5479 190.863 19.6303 190.047 21.3822C189.23 23.1341 187.147 23.892 185.395 23.0751C183.643 22.2582 182.885 20.1758 183.702 18.4239C184.519 16.672 186.602 15.914 188.354 16.7309Z" fill="#FF6363"/>
<path d="M205.095 31.8956L211.89 28.9037L210.207 36.1349" stroke="#00C914" stroke-width="2.1" stroke-linecap="round"/>
<path d="M205.987 31.3406C207.008 32.9818 206.505 35.1401 204.864 36.1615C203.223 37.1827 201.065 36.6802 200.044 35.0391C199.022 33.3979 199.525 31.2395 201.166 30.2183C202.807 29.1971 204.965 29.6996 205.987 31.3406ZM212.062 35.8046C213.084 37.4457 212.581 39.6041 210.94 40.6254C209.299 41.6467 207.14 41.1441 206.119 39.503C205.098 37.8618 205.6 35.7035 207.241 34.6822C208.883 33.6609 211.041 34.1634 212.062 35.8046Z" fill="#FF6363"/>
<path d="M212.057 67.1347L219.129 64.8732L216.695 71.8876" stroke="#00C914" stroke-width="2.1" stroke-linecap="round"/>
<path d="M213.002 66.6766C213.845 68.4159 213.119 70.5095 211.379 71.3528C209.64 72.1961 207.547 71.4696 206.703 69.7302C205.86 67.9909 206.586 65.8972 208.326 65.054C210.065 64.2108 212.159 64.9373 213.002 66.6766ZM218.575 71.754C219.418 73.4934 218.692 75.587 216.952 76.4303C215.213 77.2734 213.119 76.547 212.276 74.8077C211.433 73.0684 212.16 70.9747 213.899 70.1314C215.638 69.2882 217.732 70.0147 218.575 71.754Z" fill="#FF6363"/>
<circle cx="181.697" cy="77.9061" r="3.5" transform="rotate(64.1361 181.697 77.9061)" fill="#FF6363"/>
<path d="M161.527 29.9416L168.599 27.6801L166.165 34.6945" stroke="#00C914" stroke-width="2.1" stroke-linecap="round"/>
<path d="M162.472 29.4835C163.315 31.2227 162.589 33.3164 160.85 34.1597C159.11 35.0029 157.017 34.2764 156.173 32.5371C155.33 30.7977 156.057 28.7041 157.796 27.8609C159.535 27.0178 161.629 27.7442 162.472 29.4835ZM168.045 34.5609C168.889 36.3003 168.162 38.3939 166.423 39.2372C164.683 40.0804 162.59 39.3539 161.746 37.6146C160.903 35.8752 161.63 33.7816 163.369 32.9383C165.108 32.0951 167.202 32.8216 168.045 34.5609Z" fill="#FF6363"/>
<path d="M148.313 54.8388L150.921 47.8871L154.918 54.1441" stroke="#00C914" stroke-width="2.1" stroke-linecap="round"/>
<path d="M148.54 53.8132C150.427 54.2294 151.62 56.097 151.205 57.9845C150.788 59.8722 148.921 61.0651 147.033 60.6491C145.146 60.2331 143.953 58.3655 144.369 56.4778C144.785 54.5902 146.652 53.3972 148.54 53.8132ZM155.978 52.5857C157.866 53.0019 159.059 54.8695 158.643 56.7571C158.227 58.6446 156.359 59.8376 154.472 59.4217C152.584 59.0056 151.391 57.138 151.807 55.2503C152.223 53.3627 154.091 52.1697 155.978 52.5857Z" fill="#FF6363"/>
<mask id="path-50-inside-2_369_1113" fill="white">
<path d="M199.18 17.5312C221.121 27.7625 226.722 49.5658 217.654 69.0117C207.952 88.1619 193.735 85.6637 170.992 80.465C152.39 66.3845 141.021 56.9515 149.454 37.2097C158.522 17.764 177.239 7.29997 199.18 17.5312ZM194.191 31.0378C177.046 23.0433 163.562 28.4885 155.829 45.0718C150.495 62.7736 160.661 60.7691 172.891 76.7161C192.968 75.8336 197.719 84.7947 207.851 69.3303C215.584 52.7469 211.336 39.0325 194.191 31.0378Z"/>
</mask>
<path d="M199.18 17.5312L199.772 16.2624L199.18 17.5312ZM217.654 69.0117L218.903 69.6445L218.913 69.6241L218.923 69.6034L217.654 69.0117ZM170.992 80.465L170.147 81.5813L170.387 81.7628L170.68 81.8298L170.992 80.465ZM149.454 37.2097L148.186 36.618L148.176 36.6387L148.167 36.6597L149.454 37.2097ZM194.191 31.0378L194.782 29.769L194.782 29.769L194.191 31.0378ZM155.829 45.0718L154.56 44.4801L154.517 44.5714L154.488 44.6679L155.829 45.0718ZM172.891 76.7161L171.78 77.568L172.224 78.1468L172.952 78.1147L172.891 76.7161ZM207.851 69.3303L209.022 70.0975L209.077 70.0132L209.12 69.9219L207.851 69.3303ZM199.18 17.5312L198.588 18.8001C209.238 23.766 215.836 31.4896 218.715 40.2529C221.6 49.033 220.789 58.977 216.385 68.4201L217.654 69.0117L218.923 69.6034C223.587 59.6005 224.51 48.92 221.375 39.379C218.235 29.8214 211.063 21.5277 199.772 16.2624L199.18 17.5312ZM217.654 69.0117L216.405 68.379C214.046 73.0351 211.457 76.2878 208.608 78.5068C205.77 80.7173 202.607 81.955 199.01 82.4841C191.71 83.5578 182.746 81.7157 171.304 79.1002L170.992 80.465L170.68 81.8298C181.981 84.413 191.496 86.4194 199.417 85.2543C203.43 84.664 207.061 83.2605 210.329 80.7159C213.585 78.1798 216.411 74.5634 218.903 69.6445L217.654 69.0117ZM170.992 80.465L171.837 79.3487C162.478 72.2645 155.222 66.5423 151.272 60.2187C149.326 57.1013 148.203 53.8626 148.045 50.2554C147.886 46.6355 148.693 42.5555 150.742 37.7597L149.454 37.2097L148.167 36.6597C145.999 41.7348 145.065 46.2371 145.247 50.3783C145.43 54.5321 146.731 58.2333 148.898 61.7019C153.175 68.5504 160.904 74.5849 170.147 81.5813L170.992 80.465ZM149.454 37.2097L150.723 37.8014C155.147 28.3157 161.874 21.1254 170.054 17.5228C178.203 13.9339 187.945 13.837 198.588 18.8001L199.18 17.5312L199.772 16.2624C188.474 10.9941 177.887 11.0137 168.925 14.9603C159.995 18.8934 152.83 26.6579 148.186 36.618L149.454 37.2097ZM194.191 31.0378L194.782 29.769C185.976 25.6625 177.918 24.9239 170.988 27.5276C164.064 30.1288 158.529 35.9676 154.56 44.4801L155.829 45.0718L157.097 45.6635C160.861 37.5927 165.935 32.4173 171.973 30.1487C178.004 27.8825 185.261 28.4186 193.599 32.3067L194.191 31.0378ZM155.829 45.0718L154.488 44.6679C153.128 49.1815 152.701 52.6076 153.141 55.4554C153.59 58.3579 154.915 60.5096 156.743 62.4991C158.503 64.4157 160.88 66.3244 163.379 68.5738C165.929 70.8699 168.792 73.6714 171.78 77.568L172.891 76.7161L174.002 75.8642C170.875 71.7873 167.881 68.8592 165.252 66.4929C162.572 64.0798 160.447 62.3932 158.805 60.6049C157.229 58.8894 156.248 57.2264 155.908 55.0278C155.56 52.7745 155.862 49.813 157.169 45.4757L155.829 45.0718ZM172.891 76.7161L172.952 78.1147C177.859 77.8991 181.831 78.284 185.207 78.7512C188.514 79.209 191.473 79.7883 194.045 79.8903C196.718 79.9963 199.187 79.6104 201.673 78.0755C204.109 76.5713 206.441 74.037 209.022 70.0975L207.851 69.3303L206.68 68.563C204.195 72.3557 202.134 74.5005 200.202 75.693C198.32 76.8548 196.447 77.1834 194.156 77.0925C191.764 76.9976 189.138 76.4687 185.59 75.9777C182.112 75.4962 177.961 75.0919 172.829 75.3174L172.891 76.7161ZM207.851 69.3303L209.12 69.9219C213.085 61.4184 214.067 53.4566 211.674 46.5075C209.277 39.5474 203.589 33.8758 194.782 29.769L194.191 31.0378L193.599 32.3067C201.937 36.1946 206.946 41.3775 209.026 47.4191C211.111 53.4716 210.35 60.6588 206.582 68.7386L207.851 69.3303Z" fill="#848484" mask="url(#path-50-inside-2_369_1113)"/>
</g>
</g>
<defs>
<filter id="filter0_d_369_1113" x="0" y="7.85059" width="234" height="164.15" filterUnits="userSpaceOnUse" color-interpolation-filters="sRGB">
<feFlood flood-opacity="0" result="BackgroundImageFix"/>
<feColorMatrix in="SourceAlpha" type="matrix" values="0 0 0 0 0 0 0 0 0 0 0 0 0 0 0 0 0 0 127 0" result="hardAlpha"/>
<feOffset dy="2"/>
<feGaussianBlur stdDeviation="1"/>
<feComposite in2="hardAlpha" operator="out"/>
<feColorMatrix type="matrix" values="0 0 0 0 0 0 0 0 0 0 0 0 0 0 0 0 0 0 0.2 0"/>
<feBlend mode="normal" in2="BackgroundImageFix" result="effect1_dropShadow_369_1113"/>
<feBlend mode="normal" in="SourceGraphic" in2="effect1_dropShadow_369_1113" result="shape"/>
</filter>
</defs>
</svg>
