<svg width="234" height="172" viewBox="0 0 234 172" fill="none" xmlns="http://www.w3.org/2000/svg">
<g filter="url(#filter0_d_109_343)">
<path d="M100.021 62.8699C122.333 51.971 147.866 61.507 157.182 70.5929C166.497 79.6787 164.551 96.6149 168.923 92.7333C173.296 88.8517 184.935 88.1568 197.061 91.1634C211.611 94.7714 224.719 99.795 229.571 108.427C234.423 117.058 231.512 125.69 225.204 140.681C218.896 155.673 199.007 160.775 199.007 160.775C199.007 160.775 178.62 164.49 173.77 158.853C168.92 153.216 164.059 165.478 135.443 167.357C106.826 169.236 93.221 158.304 89.8258 155.673C86.4307 153.042 80.1145 155.863 63.6237 161.124C47.1328 166.386 30.1431 148.404 27.717 150.221C25.2909 152.039 12.6781 154.104 6.37277 146.587C0.0674546 139.071 1.0375 129.225 6.37277 122.836C10.9865 117.311 27.5447 118.235 31.9388 118.586C30.7898 117.459 28.8808 115.426 25.7818 111.933C15.1113 99.907 37.4289 84.8164 41.309 83.3131C45.1891 81.8097 52.4717 79.6787 58.2919 79.6787C64.1121 79.6787 81.0975 83.3131 81.0975 83.3131C81.0975 83.3131 77.7103 73.7689 100.021 62.8699Z" fill="white"/>
<path d="M229.674 109.043C234.379 117.612 231.465 126.226 225.203 141.109C218.91 156.065 199.098 161.178 199.007 161.201C199.007 161.201 178.619 164.917 173.769 159.279C168.919 153.643 164.058 165.905 135.443 167.784C106.827 169.663 93.2209 158.731 89.8254 156.1C86.4303 153.469 80.1139 156.289 63.6233 161.551C47.1325 166.812 30.1422 148.831 27.7161 150.649C25.289 152.466 12.6773 154.53 6.37231 147.014C4.01139 144.199 2.67118 141.058 2.19751 137.895C3.07936 140.029 4.15209 141.924 5.39673 143.407C11.7021 150.924 25.2909 147.041 27.717 145.224C30.1436 143.407 46.163 160.026 62.6536 154.765C79.1443 149.503 79.1529 145.32 82.5481 147.95C85.944 150.582 100.514 164.82 129.129 162.942C157.746 161.062 165.038 147.31 169.888 152.947C174.738 158.585 205.795 153.856 205.795 153.856C205.857 153.82 219.395 146.098 225.689 131.141C229.357 122.423 230.398 115.232 229.674 109.043Z" fill="#CDF5FD"/>
<path d="M184.635 120.779C175.56 140.777 162.813 137.076 147.366 130.066C131.919 123.056 120.74 115.9 129.815 95.9021C133.983 86.719 146.518 74.7472 154.411 69.9473C162.303 65.1474 166.782 65.0817 175.136 68.8725C183.489 72.6634 185.53 76.0007 187.974 85.1782C190.709 95.4485 188.802 111.596 184.635 120.779Z" fill="#929AAB"/>
<path d="M171.38 121.191C165.33 134.523 157.713 132.456 148.553 128.299C139.392 124.142 132.821 119.77 138.871 106.438C141.649 100.316 149.572 92.1383 154.485 88.7801C159.398 85.4218 162.112 85.2546 167.066 87.5027C172.02 89.7508 173.163 91.8772 174.389 97.8123C175.76 104.454 174.158 115.069 171.38 121.191Z" fill="#EEEEEE"/>
<path d="M154.628 69.1749L148.608 73.5861C145.715 75.7058 142.99 78.0447 140.456 80.5821L139.994 81.0441C137.21 83.8322 134.665 86.8505 132.388 90.0668L130.456 92.7972L128.489 96.7359C127.005 99.7097 126.233 102.988 126.235 106.312V106.312C126.236 108.567 126.594 110.808 127.295 112.951L128.007 115.132" stroke="#393E46" stroke-width="2.1" stroke-linecap="round"/>
<path d="M188.238 84.0428L188.882 91.478C189.191 95.0508 189.225 98.6422 188.984 102.22L188.957 102.63C188.681 106.722 188.047 110.782 187.06 114.763L186.231 118.108L184.702 121.854C183.444 124.935 181.484 127.68 178.979 129.87V129.87C177.284 131.351 175.365 132.555 173.295 133.437L171.179 134.339" stroke="#393E46" stroke-width="2.1" stroke-linecap="round"/>
<path d="M213.355 70.5714C205.593 87.2178 191.473 82.3847 174.108 74.287C156.742 66.1892 143.964 58.4797 151.726 41.8334C155.291 34.1893 167.597 25.0866 175.621 21.7852C183.646 18.4838 187.296 21.485 196.688 25.8642C206.079 30.2435 209.789 30.9378 213.353 39.3799C217.342 48.8273 216.92 62.9273 213.355 70.5714Z" fill="#929AAB"/>
<path d="M182.485 51.3969C179.678 56.5957 173.034 57.7085 166.766 55.5515C161.036 52.8792 155.636 51.5096 159.469 44.1098C161.899 38.9001 170.16 35.0522 176.507 37.1254C187.47 40.7061 185.564 44.7938 182.485 51.3969Z" fill="#393E46"/>
<path d="M186.152 53.383C183.974 58.875 187.392 64.6798 193.073 68.0944C198.804 70.7667 203.324 74.023 206.528 66.3299C208.958 61.1202 206.595 52.3181 200.927 48.7886C191.137 42.6923 189.231 46.78 186.152 53.383Z" fill="#393E46"/>
<circle cx="173.765" cy="50.3934" r="3.46939" transform="rotate(25 173.765 50.3934)" fill="#1A1C1F"/>
<circle cx="192.631" cy="59.1908" r="3.46939" transform="rotate(25 192.631 59.1908)" fill="#1A1C1F"/>
<ellipse cx="173.141" cy="48.94" rx="1.04082" ry="1.38776" transform="rotate(55 173.141 48.94)" fill="white"/>
<ellipse cx="192.007" cy="57.7373" rx="1.04082" ry="1.38776" transform="rotate(55 192.007 57.7373)" fill="white"/>
<path d="M185.452 23.6806C181.967 25.6925 174.143 25.8156 172.227 22.4969C172.755 20.8594 173.136 18.6361 174.093 16.1592C175.413 12.7413 177.892 7.65916 181.399 8.71977C181.532 8.75992 181.687 8.82042 181.86 8.8985C187.119 11.2704 191.284 18.6291 187.046 22.5432C186.62 22.9368 186.096 23.3088 185.452 23.6806Z" fill="#929AAB"/>
<path d="M184.848 21.0176C182.372 22.4471 176.084 25.3126 174.775 23.045C175.135 21.9971 175.353 20.5753 175.892 18.9885C176.813 16.2782 178.525 11.9659 181.281 12.7407C184.636 13.6841 187.866 19.2751 184.848 21.0176Z" fill="#393E46"/>
<path d="M205.695 33.1205C206.394 37.0831 211.329 43.1556 215.103 42.4902C216.054 40.9746 217.593 39.1734 218.911 36.7043C220.537 33.6592 223.279 28.7905 220.39 26.9017C220.159 26.7508 219.793 26.5765 219.336 26.392C213.985 24.2346 205.816 25.4053 205.541 31.1677C205.514 31.7472 205.566 32.3881 205.695 33.1205Z" fill="#929AAB"/>
<path d="M208.483 32.3664C208.976 35.1655 210.808 40.6358 213.336 40.1902C213.989 39.0858 215.157 37.8043 216.107 35.9893C217.154 33.9901 219.147 30.8813 217.292 29.5968C214.21 27.4632 207.858 28.4464 208.446 32.1481C208.457 32.2182 208.469 32.2909 208.483 32.3664Z" fill="#393E46"/>
<path d="M181.587 63.9937C181.101 65.0356 179.303 65.6082 178.045 65.0217C176.83 64.4549 176.07 62.6896 176.556 61.6477C177.042 60.6058 178.736 60.3672 179.951 60.9341C181.167 61.5009 182.073 62.9517 181.587 63.9937Z" fill="#393E46"/>
<path d="M188.659 21.7376L188.763 19.6349C188.998 14.8782 186.108 10.5228 181.634 8.89156V8.89156" stroke="#393E46" stroke-width="2.08163" stroke-linecap="round"/>
<path d="M187.758 22.8487L191.735 24.3565C194.935 25.5696 198.04 27.0177 201.026 28.689L204.737 30.7663" stroke="#393E46" stroke-width="2.08163" stroke-linecap="round"/>
<path d="M205.009 29.3619L205.539 28.8711C209.645 25.0641 215.737 24.3378 220.624 27.0727V27.0727" stroke="#393E46" stroke-width="2.08163" stroke-linecap="round"/>
<path d="M170.572 24.4047L165.341 27.5419C160.063 30.7077 155.704 35.1989 152.698 40.5697V40.5697" stroke="#393E46" stroke-width="2.08163" stroke-linecap="round"/>
<path d="M152.698 40.5697C152.451 40.6527 150.637 44.0198 149.473 47.4872V47.4872C148.097 51.5821 149.412 55.9785 152.026 59.4173L152.452 59.9781" stroke="#393E46" stroke-width="2.08163" stroke-linecap="round"/>
<path d="M214.592 44.9319L215.551 50.9553C216.519 57.0337 215.88 63.2594 213.698 69.0145V69.0145" stroke="#393E46" stroke-width="2.08163" stroke-linecap="round"/>
<path d="M213.698 69.0144C213.794 69.2575 212.38 72.811 210.473 75.9319V75.9319C208.22 79.6177 204.007 81.4364 199.692 81.6443L198.989 81.6782" stroke="#393E46" stroke-width="2.08163" stroke-linecap="round"/>
<path d="M155.975 63.9175V63.9175C160.51 67.8103 165.556 71.0648 170.972 73.5906L173.5 74.7693L176.188 76.0226C181.709 78.597 187.545 80.4332 193.545 81.4839L193.707 81.5122" stroke="#393E46" stroke-width="2.08163" stroke-linecap="round"/>
<path d="M172.374 22.1825L173.213 19.1628C174.153 15.7822 175.7 12.6005 177.778 9.773V9.773" stroke="#393E46" stroke-width="2.08163" stroke-linecap="round"/>
<path d="M215.765 42.4164L218.262 39.0186C220.069 36.5602 221.331 33.7453 221.966 30.7612V30.7612" stroke="#393E46" stroke-width="2.08163" stroke-linecap="round"/>
<ellipse cx="126" cy="110" rx="29" ry="26" fill="white"/>
<ellipse cx="175.5" cy="121" rx="37.5" ry="26" fill="white"/>
<path d="M105 92.5V92.5C118.114 80.1731 139.145 82.5092 149.234 97.4133L152 101.5L155.963 99.8209C171.892 93.0713 190.154 94.8317 204.5 104.5V104.5" stroke="#CDF5FD" stroke-width="3" stroke-linecap="round"/>
<path d="M142.411 85.2527C144.571 86.3699 146.156 88.0097 146.998 89.7142C147.839 91.4193 147.911 93.1192 147.204 94.487C146.496 95.8549 145.067 96.7782 143.189 97.0767C141.312 97.3752 139.058 97.0286 136.898 95.9113C134.737 94.7941 133.152 93.1544 132.311 91.4498C131.469 89.7447 131.397 88.0448 132.104 86.677C132.812 85.3091 134.241 84.3858 136.119 84.0873C137.996 83.7888 140.25 84.1354 142.411 85.2527Z" fill="#929AAB" stroke="#393E46" stroke-width="2"/>
<path d="M182.275 91.5777C184.703 91.726 186.816 92.5845 188.275 93.8033C189.734 95.0225 190.487 96.5479 190.393 98.085C190.3 99.6222 189.366 101.045 187.769 102.077C186.173 103.109 183.971 103.704 181.543 103.555C179.116 103.407 177.003 102.549 175.544 101.33C174.085 100.111 173.331 98.5851 173.425 97.048C173.519 95.5109 174.453 94.0885 176.049 93.0561C177.646 92.024 179.848 91.4293 182.275 91.5777Z" fill="#929AAB" stroke="#393E46" stroke-width="2"/>
</g>
<defs>
<filter id="filter0_d_109_343" x="0" y="7.85046" width="234" height="164.15" filterUnits="userSpaceOnUse" color-interpolation-filters="sRGB">
<feFlood flood-opacity="0" result="BackgroundImageFix"/>
<feColorMatrix in="SourceAlpha" type="matrix" values="0 0 0 0 0 0 0 0 0 0 0 0 0 0 0 0 0 0 127 0" result="hardAlpha"/>
<feOffset dy="2"/>
<feGaussianBlur stdDeviation="1"/>
<feComposite in2="hardAlpha" operator="out"/>
<feColorMatrix type="matrix" values="0 0 0 0 0 0 0 0 0 0 0 0 0 0 0 0 0 0 0.2 0"/>
<feBlend mode="normal" in2="BackgroundImageFix" result="effect1_dropShadow_109_343"/>
<feBlend mode="normal" in="SourceGraphic" in2="effect1_dropShadow_109_343" result="shape"/>
</filter>
</defs>
</svg>
