<svg width="247" height="184" viewBox="0 0 247 184" fill="none" xmlns="http://www.w3.org/2000/svg">
<g filter="url(#filter0_d_369_2)">
<path d="M100.021 74.8699C122.333 63.971 147.866 73.507 157.182 82.5929C166.497 91.6787 164.551 108.615 168.923 104.733C173.296 100.852 184.935 100.157 197.061 103.163C211.611 106.771 224.719 111.795 229.571 120.427C234.423 129.058 231.512 137.69 225.204 152.681C218.896 167.673 199.007 172.775 199.007 172.775C199.007 172.775 178.62 176.49 173.77 170.853C168.92 165.216 164.059 177.478 135.443 179.357C106.826 181.236 93.221 170.304 89.8258 167.673C86.4307 165.042 80.1145 167.863 63.6237 173.124C47.1328 178.386 30.1431 160.404 27.717 162.221C25.2909 164.039 12.6781 166.104 6.37277 158.587C0.0674546 151.071 1.0375 141.225 6.37277 134.836C10.9865 129.311 27.5447 130.235 31.9388 130.586C30.7898 129.459 28.8808 127.426 25.7818 123.933C15.1113 111.907 37.4289 96.8164 41.309 95.3131C45.1891 93.8097 52.4717 91.6787 58.2919 91.6787C64.1121 91.6787 81.0975 95.3131 81.0975 95.3131C81.0975 95.3131 77.7103 85.7689 100.021 74.8699Z" fill="white"/>
<path d="M229.674 121.043C234.379 129.612 231.465 138.226 225.203 153.109C218.91 168.066 199.098 173.178 199.007 173.201C199.007 173.201 178.619 176.917 173.769 171.279C168.919 165.643 164.058 177.905 135.443 179.784C106.827 181.663 93.2209 170.731 89.8254 168.1C86.4303 165.469 80.1139 168.289 63.6233 173.551C47.1325 178.813 30.1422 160.831 27.7161 162.649C25.289 164.466 12.6773 166.53 6.37231 159.014C4.01139 156.199 2.67118 153.058 2.19751 149.895C3.07936 152.029 4.15209 153.924 5.39673 155.407C11.7021 162.924 25.2909 159.041 27.717 157.224C30.1436 155.407 46.163 172.026 62.6536 166.765C79.1443 161.503 79.1529 157.32 82.5481 159.95C85.944 162.582 100.514 176.821 129.129 174.942C157.746 173.062 165.038 159.31 169.888 164.947C174.738 170.585 205.795 165.856 205.795 165.856C205.857 165.82 219.395 158.098 225.689 143.141C229.357 134.423 230.398 127.232 229.674 121.043Z" fill="#CDF5FD"/>
<path d="M184.635 132.779C175.56 152.777 162.813 149.076 147.366 142.066C131.919 135.056 120.74 127.9 129.815 107.902C133.983 98.719 146.518 86.7472 154.411 81.9473C162.303 77.1474 166.782 77.0816 175.136 80.8725C183.489 84.6634 185.53 88.0007 187.974 97.1782C190.709 107.448 188.802 123.596 184.635 132.779Z" fill="#929AAB"/>
<path d="M171.38 133.191C165.33 146.523 157.713 144.456 148.553 140.299C139.392 136.142 132.821 131.77 138.871 118.438C141.649 112.316 149.572 104.138 154.485 100.78C159.398 97.4217 162.112 97.2546 167.066 99.5027C172.02 101.751 173.163 103.877 174.389 109.812C175.76 116.454 174.158 127.069 171.38 133.191Z" fill="#EEEEEE"/>
<path d="M154.628 81.1748L148.608 85.586C145.715 87.7058 142.99 90.0447 140.456 92.5821L139.994 93.044C137.21 95.8321 134.665 98.8504 132.388 102.067L130.456 104.797L128.489 108.736C127.005 111.71 126.233 114.988 126.235 118.312C126.236 120.567 126.594 122.808 127.295 124.951L128.007 127.132" stroke="#393E46" stroke-width="2.1" stroke-linecap="round"/>
<path d="M188.238 96.0427L188.881 103.478C189.191 107.051 189.225 110.642 188.984 114.22L188.957 114.63C188.681 118.722 188.046 122.782 187.06 126.763L186.231 130.108L184.702 133.854C183.444 136.935 181.484 139.68 178.978 141.869C177.283 143.35 175.365 144.554 173.295 145.437L171.179 146.339" stroke="#393E46" stroke-width="2.1" stroke-linecap="round"/>
<path d="M213.355 82.5714C205.593 99.2178 191.473 94.3847 174.108 86.287C156.742 78.1892 143.964 70.4798 151.726 53.8334C155.291 46.1893 167.597 37.0866 175.621 33.7852C183.646 30.4838 187.296 33.485 196.688 37.8642C206.079 42.2435 209.789 42.9378 213.353 51.3799C217.342 60.8273 216.92 74.9273 213.355 82.5714Z" fill="#929AAB"/>
<path d="M182.484 63.3968C179.677 68.5956 173.034 69.7084 166.766 67.5514C161.036 64.8792 155.636 63.5096 159.469 56.1098C161.898 50.9001 170.16 47.0521 176.507 49.1253C187.47 52.7061 185.564 56.7938 182.484 63.3968Z" fill="#393E46"/>
<path d="M186.152 65.383C183.974 70.875 187.392 76.6797 193.073 80.0944C198.803 82.7666 203.324 86.0229 206.528 78.3298C208.957 73.1201 206.595 64.3181 200.927 60.7885C191.137 54.6922 189.231 58.7799 186.152 65.383Z" fill="#393E46"/>
<circle cx="173.765" cy="62.3933" r="3.46939" transform="rotate(25 173.765 62.3933)" fill="#1A1C1F"/>
<circle cx="192.631" cy="71.1907" r="3.46939" transform="rotate(25 192.631 71.1907)" fill="#1A1C1F"/>
<ellipse cx="173.141" cy="60.9399" rx="1.04082" ry="1.38776" transform="rotate(55 173.141 60.9399)" fill="white"/>
<ellipse cx="192.007" cy="69.7372" rx="1.04082" ry="1.38776" transform="rotate(55 192.007 69.7372)" fill="white"/>
<path d="M185.452 35.6806C181.967 37.6925 174.143 37.8156 172.227 34.4969C172.755 32.8594 173.136 30.6361 174.093 28.1593C175.413 24.7414 177.892 19.6592 181.399 20.7198C181.532 20.76 181.687 20.8205 181.86 20.8985C187.119 23.2704 191.284 30.6291 187.046 34.5432C186.62 34.9368 186.096 35.3088 185.452 35.6806Z" fill="#929AAB"/>
<path d="M184.848 33.0176C182.372 34.4471 176.084 37.3126 174.775 35.045C175.135 33.9972 175.353 32.5753 175.892 30.9885C176.813 28.2782 178.525 23.9659 181.281 24.7407C184.636 25.6841 187.866 31.2751 184.848 33.0176Z" fill="#393E46"/>
<path d="M205.695 45.1204C206.394 49.0831 211.329 55.1555 215.103 54.4901C216.054 52.9745 217.593 51.1733 218.911 48.7042C220.537 45.6591 223.279 40.7904 220.39 38.9016C220.159 38.7508 219.793 38.5765 219.336 38.3919C213.985 36.2345 205.816 37.4052 205.541 43.1677C205.514 43.7472 205.566 44.3881 205.695 45.1204Z" fill="#929AAB"/>
<path d="M208.483 44.3664C208.976 47.1655 210.808 52.6358 213.336 52.1901C213.989 51.0857 215.157 49.8043 216.107 47.9892C217.154 45.99 219.147 42.8813 217.292 41.5967C214.21 39.4631 207.858 40.4464 208.446 44.148C208.457 44.2181 208.469 44.2909 208.483 44.3664Z" fill="#393E46"/>
<path d="M181.587 75.9937C181.101 77.0356 179.303 77.6082 178.045 77.0217C176.83 76.4549 176.07 74.6896 176.556 73.6477C177.042 72.6058 178.736 72.3672 179.951 72.9341C181.167 73.5009 182.073 74.9517 181.587 75.9937Z" fill="#393E46"/>
<path d="M188.659 33.7376L188.763 31.635C188.998 26.8783 186.108 22.5229 181.634 20.8916" stroke="#393E46" stroke-width="2.08163" stroke-linecap="round"/>
<path d="M187.758 34.8487L191.735 36.3565C194.935 37.5696 198.04 39.0177 201.026 40.689L204.737 42.7663" stroke="#393E46" stroke-width="2.08163" stroke-linecap="round"/>
<path d="M205.01 41.362L205.539 40.8712C209.645 37.0642 215.738 36.3379 220.624 39.0728" stroke="#393E46" stroke-width="2.08163" stroke-linecap="round"/>
<path d="M170.572 36.4048L165.341 39.5419C160.063 42.7077 155.704 47.1989 152.698 52.5697" stroke="#393E46" stroke-width="2.08163" stroke-linecap="round"/>
<path d="M152.698 52.5696C152.451 52.6527 150.637 56.0197 149.473 59.4872C148.097 63.5821 149.412 67.9784 152.026 71.4173L152.452 71.9781" stroke="#393E46" stroke-width="2.08163" stroke-linecap="round"/>
<path d="M214.592 56.932L215.551 62.9554C216.519 69.0337 215.88 75.2594 213.698 81.0145" stroke="#393E46" stroke-width="2.08163" stroke-linecap="round"/>
<path d="M213.699 81.0145C213.794 81.2575 212.38 84.8111 210.473 87.932C208.22 91.6177 204.007 93.4365 199.692 93.6444L198.989 93.6783" stroke="#393E46" stroke-width="2.08163" stroke-linecap="round"/>
<path d="M155.975 75.9175C160.51 79.8103 165.556 83.0648 170.972 85.5906L173.5 86.7693L176.188 88.0226C181.709 90.597 187.545 92.4332 193.545 93.4839L193.707 93.5122" stroke="#393E46" stroke-width="2.08163" stroke-linecap="round"/>
<path d="M172.374 34.1825L173.213 31.1628C174.153 27.7822 175.7 24.6005 177.778 21.773" stroke="#393E46" stroke-width="2.08163" stroke-linecap="round"/>
<path d="M215.765 54.4165L218.262 51.0187C220.069 48.5603 221.331 45.7454 221.966 42.7613" stroke="#393E46" stroke-width="2.08163" stroke-linecap="round"/>
<ellipse cx="126" cy="122" rx="29" ry="26" fill="white"/>
<ellipse cx="175.5" cy="133" rx="37.5" ry="26" fill="white"/>
<path d="M105 104.5C118.114 92.1731 139.145 94.5092 149.234 109.413L152 113.5L155.963 111.821C171.892 105.071 190.154 106.832 204.5 116.5" stroke="#CDF5FD" stroke-width="3" stroke-linecap="round"/>
<path d="M142.411 97.2527C144.571 98.3699 146.156 100.01 146.998 101.714C147.839 103.419 147.911 105.119 147.204 106.487C146.496 107.855 145.067 108.778 143.189 109.077C141.312 109.375 139.058 109.029 136.898 107.911C134.737 106.794 133.152 105.154 132.311 103.45C131.469 101.745 131.397 100.045 132.104 98.677C132.812 97.3091 134.241 96.3858 136.119 96.0873C137.996 95.7888 140.25 96.1354 142.411 97.2527Z" fill="#929AAB" stroke="#393E46" stroke-width="2"/>
<path d="M182.275 103.578C184.703 103.726 186.816 104.584 188.275 105.803C189.734 107.022 190.487 108.548 190.393 110.085C190.3 111.622 189.366 113.045 187.769 114.077C186.173 115.109 183.971 115.704 181.543 115.555C179.116 115.407 177.003 114.549 175.544 113.33C174.085 112.111 173.331 110.585 173.425 109.048C173.519 107.511 174.453 106.089 176.049 105.056C177.646 104.024 179.848 103.429 182.275 103.578Z" fill="#929AAB" stroke="#393E46" stroke-width="2"/>
<path d="M199.034 34.4762C210.195 39.6808 219.775 45.4401 226.239 50.5254C229.478 53.0731 231.888 55.4153 233.33 57.3993C234.051 58.3915 234.497 59.2501 234.703 59.9631C234.907 60.6674 234.86 61.167 234.691 61.5305C234.521 61.8941 234.168 62.2507 233.498 62.5475C232.819 62.8478 231.875 63.058 230.651 63.1434C228.205 63.3141 224.861 62.9737 220.828 62.1304C212.777 60.4471 202.207 56.8104 191.046 51.6058C179.885 46.4012 170.306 40.6423 163.841 35.557C160.602 33.0091 158.192 30.6668 156.75 28.6827C156.029 27.6904 155.583 26.8319 155.377 26.1189C155.173 25.4146 155.219 24.915 155.389 24.5515C155.558 24.1879 155.911 23.8313 156.582 23.5345C157.261 23.2341 158.205 23.024 159.429 22.9386C161.875 22.7678 165.219 23.1086 169.253 23.952C177.303 25.6353 187.873 29.2717 199.034 34.4762Z" fill="#E7CB90" stroke="#8E743F" stroke-width="2.1"/>
<path d="M183.68 11.0887L199.073 16.4052C203.655 17.9877 208.06 20.0419 212.218 22.5348L226.185 30.9095L221.433 57.6651L166.239 31.9277L183.68 11.0887Z" fill="#E7CB90"/>
<path d="M170.17 26.8096L182.457 35.2425L190.547 39.7611C193.524 41.424 196.619 42.8671 199.806 44.0788L208.468 47.3717L222.826 51.3637" stroke="#8B4F00" stroke-width="4.9"/>
<path d="M168.056 29.6858L183.02 11.632C183.578 10.9586 184.496 10.7016 185.322 10.9871L194.925 14.3021L206.282 18.9333L217.447 24.8042L225.856 29.885C226.599 30.3336 226.989 31.1924 226.839 32.0466L222.87 54.5816" stroke="#8E743F" stroke-width="2.1"/>
</g>
<defs>
<filter id="filter0_d_369_2" x="0" y="9.82196" width="237.888" height="174.178" filterUnits="userSpaceOnUse" color-interpolation-filters="sRGB">
<feFlood flood-opacity="0" result="BackgroundImageFix"/>
<feColorMatrix in="SourceAlpha" type="matrix" values="0 0 0 0 0 0 0 0 0 0 0 0 0 0 0 0 0 0 127 0" result="hardAlpha"/>
<feOffset dy="2"/>
<feGaussianBlur stdDeviation="1"/>
<feComposite in2="hardAlpha" operator="out"/>
<feColorMatrix type="matrix" values="0 0 0 0 0 0 0 0 0 0 0 0 0 0 0 0 0 0 0.2 0"/>
<feBlend mode="normal" in2="BackgroundImageFix" result="effect1_dropShadow_369_2"/>
<feBlend mode="normal" in="SourceGraphic" in2="effect1_dropShadow_369_2" result="shape"/>
</filter>
</defs>
</svg>
