<svg width="244" height="177" viewBox="0 0 244 177" fill="none" xmlns="http://www.w3.org/2000/svg">
<g filter="url(#filter0_d_369_57)">
<path d="M100.021 67.8699C122.333 56.971 147.866 66.507 157.182 75.5929C166.497 84.6787 164.551 101.615 168.923 97.7333C173.296 93.8517 184.935 93.1568 197.061 96.1634C211.611 99.7714 224.719 104.795 229.571 113.427C234.423 122.058 231.512 130.69 225.204 145.681C218.896 160.673 199.007 165.775 199.007 165.775C199.007 165.775 178.62 169.49 173.77 163.853C168.92 158.216 164.059 170.478 135.443 172.357C106.826 174.236 93.221 163.304 89.8258 160.673C86.4307 158.042 80.1145 160.863 63.6237 166.124C47.1328 171.386 30.1431 153.404 27.717 155.221C25.2909 157.039 12.6781 159.104 6.37277 151.587C0.0674546 144.071 1.0375 134.225 6.37277 127.836C10.9865 122.311 27.5447 123.235 31.9388 123.586C30.7898 122.459 28.8808 120.426 25.7818 116.933C15.1113 104.907 37.4289 89.8164 41.309 88.3131C45.1891 86.8097 52.4717 84.6787 58.2919 84.6787C64.1121 84.6787 81.0975 88.3131 81.0975 88.3131C81.0975 88.3131 77.7103 78.7689 100.021 67.8699Z" fill="white"/>
<path d="M229.674 114.043C234.379 122.612 231.465 131.226 225.203 146.109C218.91 161.066 199.098 166.178 199.007 166.201C199.007 166.201 178.619 169.917 173.769 164.279C168.919 158.643 164.058 170.905 135.443 172.784C106.827 174.663 93.2209 163.731 89.8254 161.1C86.4303 158.469 80.1139 161.289 63.6233 166.551C47.1325 171.813 30.1422 153.831 27.7161 155.649C25.289 157.466 12.6773 159.53 6.37231 152.014C4.01139 149.199 2.67118 146.058 2.19751 142.895C3.07936 145.029 4.15209 146.924 5.39673 148.407C11.7021 155.924 25.2909 152.041 27.717 150.224C30.1436 148.407 46.163 165.026 62.6536 159.765C79.1443 154.503 79.1529 150.32 82.5481 152.95C85.944 155.582 100.514 169.821 129.129 167.942C157.746 166.062 165.038 152.31 169.888 157.947C174.738 163.585 205.795 158.856 205.795 158.856C205.857 158.82 219.395 151.098 225.689 136.141C229.357 127.423 230.398 120.232 229.674 114.043Z" fill="#CDF5FD"/>
<path d="M184.635 125.779C175.56 145.777 162.813 142.076 147.366 135.066C131.919 128.056 120.74 120.9 129.815 100.902C133.983 91.719 146.518 79.7472 154.411 74.9473C162.303 70.1474 166.782 70.0816 175.136 73.8725C183.489 77.6634 185.53 81.0007 187.974 90.1782C190.709 100.448 188.802 116.596 184.635 125.779Z" fill="#F6C183"/>
<path d="M171.38 126.191C165.33 139.523 157.713 137.456 148.553 133.299C139.392 129.142 132.821 124.77 138.871 111.438C141.649 105.316 149.572 97.1383 154.485 93.78C159.398 90.4217 162.112 90.2546 167.066 92.5027C172.02 94.7508 173.163 96.8771 174.389 102.812C175.76 109.454 174.158 120.069 171.38 126.191Z" fill="#F9F2D4"/>
<path d="M154.628 74.1748L148.608 78.586C145.715 80.7058 142.99 83.0447 140.456 85.5821L139.994 86.044C137.21 88.8321 134.665 91.8504 132.388 95.0667L130.456 97.7972L128.489 101.736C127.005 104.71 126.233 107.988 126.235 111.312C126.236 113.567 126.594 115.808 127.295 117.951L128.007 120.132" stroke="#744322" stroke-width="2.1" stroke-linecap="round"/>
<path d="M188.238 89.0427L188.882 96.4779C189.191 100.051 189.225 103.642 188.984 107.22L188.957 107.63C188.681 111.722 188.047 115.782 187.06 119.763L186.231 123.108L184.702 126.854C183.444 129.935 181.484 132.68 178.979 134.869C177.284 136.35 175.365 137.554 173.295 138.437L171.179 139.339" stroke="#744322" stroke-width="2.1" stroke-linecap="round"/>
<path d="M213.452 76.0308C205.615 92.8215 191.373 87.9411 173.857 79.7662C156.34 71.5913 143.452 63.8097 151.288 47.019C154.887 39.3086 167.304 30.1296 175.401 26.8017C183.497 23.4739 188.363 23.9654 197.836 28.3864C207.309 32.8073 209.867 36.0462 213.46 44.5641C217.48 54.0961 217.05 68.3204 213.452 76.0308Z" fill="#F6C183"/>
<mask id="mask0_369_57" style="mask-type:alpha" maskUnits="userSpaceOnUse" x="148" y="24" width="69" height="64">
<path d="M213.452 76.0308C205.615 92.8215 191.373 87.9411 173.857 79.7662C156.34 71.5913 143.452 63.8097 151.288 47.019C154.887 39.3086 167.304 30.1296 175.401 26.8017C183.497 23.4739 188.363 23.9654 197.836 28.3864C207.309 32.8073 209.867 36.0462 213.46 44.5641C217.48 54.0961 217.05 68.3204 213.452 76.0308Z" fill="#F6C183"/>
</mask>
<g mask="url(#mask0_369_57)">
<path d="M191.345 25.7432L185.466 39.9943" stroke="#744322" stroke-width="4.2" stroke-linecap="round"/>
<path d="M204.179 31.3468L196.884 45.323" stroke="#744322" stroke-width="4.2" stroke-linecap="round"/>
<path d="M197.836 28.3864L191.323 42.3415" stroke="#744322" stroke-width="4.2" stroke-linecap="round"/>
</g>
<path d="M175.982 56.4251C175.494 58.1784 175.059 59.1145 174.031 59.5311C172.9 59.9893 170.716 58.9881 169.523 58.4315C167.246 57.3687 166.261 54.6613 167.324 52.3842C168.387 50.107 171.094 49.1226 173.371 50.1853C175.648 51.2481 176.725 53.7588 175.982 56.4251Z" fill="#744322"/>
<ellipse cx="169.988" cy="52.4688" rx="1.05" ry="1.4" transform="rotate(55.0186 169.988 52.4688)" fill="white"/>
<path d="M190.329 63.1206C189.299 64.6209 188.861 65.556 189.202 66.6115C189.577 67.7724 191.747 68.8037 192.94 69.3604C195.217 70.4231 197.925 69.4387 198.987 67.1616C200.05 64.8844 199.066 62.177 196.789 61.1142C194.511 60.0515 191.896 60.8392 190.329 63.1206Z" fill="#744322"/>
<ellipse cx="192.554" cy="63.3725" rx="1.05" ry="1.4" transform="rotate(55.0186 192.554 63.3725)" fill="white"/>
<path d="M184.683 28.4211C181.167 30.4496 175.177 31.4594 173.245 28.1107C173.66 26.8274 174.129 25.2549 174.858 23.4859C176.7 19.0142 179.453 14.0784 183.969 12.3473C184.316 12.2142 184.647 12.1766 184.955 12.2699C189.97 13.7883 190.596 22.9776 186.955 26.7461C186.384 27.3372 185.641 27.8684 184.683 28.4211Z" fill="#F6C183"/>
<path d="M185.935 25.0578C183.437 26.4991 177.093 29.3878 175.773 27.0998C176.078 26.214 176.425 25.13 176.954 23.9086C178.313 20.7716 180.315 17.3834 183.485 16.1033C183.738 16.001 183.979 15.9677 184.201 16.0302C184.312 16.0617 184.421 16.1224 184.526 16.2073C187.122 18.3028 188.825 23.3904 185.935 25.0578Z" fill="#EF8441"/>
<path d="M206.371 38.5429C207.074 42.5408 210.148 47.7803 213.955 47.1103C214.673 45.9684 215.576 44.5982 216.464 42.9035C218.708 38.6195 220.723 33.3395 219.15 28.7665C219.029 28.4151 218.845 28.1369 218.575 27.9606C214.19 25.092 206.745 30.5145 206.195 35.7254C206.109 36.5428 206.179 37.4535 206.371 38.5429Z" fill="#F6C183"/>
<path d="M208.21 36.5567C208.707 39.3807 210.554 44.8999 213.104 44.4511C213.578 43.6507 214.175 42.6907 214.759 41.502C216.249 38.4733 217.47 34.8289 216.49 31.599C216.407 31.3256 216.278 31.1092 216.083 30.9744C213.198 28.975 207.577 32.5943 208.127 36.0618C208.151 36.2139 208.179 36.3783 208.21 36.5567Z" fill="#EF8441"/>
<path d="M179.074 70.6342C178.445 70.7818 177.796 70.479 177.505 69.9017L175.999 66.9166C175.401 65.7301 176.637 64.4554 177.841 65.0174L182.602 67.2393C183.806 67.8013 183.623 69.5677 182.329 69.871L179.074 70.6342Z" fill="#744322"/>
<path d="M188.807 24.559L189.498 22.5145C190.838 18.5505 188.984 14.2128 185.192 12.4432" stroke="#744322" stroke-width="2.1" stroke-linecap="round"/>
<path d="M206.568 32.8481L207.691 31.0052C209.869 27.4321 214.385 26.0676 218.177 27.8372" stroke="#744322" stroke-width="2.1" stroke-linecap="round"/>
<path d="M170.306 29.4428L165.028 32.6059C159.702 35.7979 155.304 40.3273 152.269 45.7445" stroke="#744322" stroke-width="2.1" stroke-linecap="round"/>
<path d="M152.269 45.7444C152.02 45.8281 150.189 49.2243 149.013 52.722C147.624 56.8526 148.949 61.2881 151.585 64.7582L152.015 65.324" stroke="#744322" stroke-width="2.1" stroke-linecap="round"/>
<path d="M214.708 50.1655L215.674 56.2424C216.648 62.3746 216.001 68.6551 213.798 74.4602" stroke="#744322" stroke-width="2.1" stroke-linecap="round"/>
<path d="M213.798 74.4602C213.895 74.7055 212.467 78.2899 210.542 81.4377C208.268 85.1552 204.017 86.9886 199.664 87.197L198.955 87.2309" stroke="#744322" stroke-width="2.1" stroke-linecap="round"/>
<path d="M155.567 69.2993C160.141 73.2279 165.23 76.5128 170.694 79.0627L173.243 80.2525L175.954 81.5178C181.523 84.1168 187.41 85.9711 193.463 87.033L193.626 87.0616" stroke="#744322" stroke-width="2.1" stroke-linecap="round"/>
<path d="M173.055 26.8633L173.113 26.6527C174.557 21.466 177.655 16.8925 181.936 13.6272" stroke="#744322" stroke-width="2.1" stroke-linecap="round"/>
<path d="M215.216 45.7675L215.95 44.7691C218.884 40.7796 220.262 35.8571 219.826 30.9243" stroke="#744322" stroke-width="2.1" stroke-linecap="round"/>
<ellipse cx="163.116" cy="58.9177" rx="4.55" ry="2.45" transform="rotate(25.0186 163.116 58.9177)" fill="#EF8441"/>
<ellipse cx="196.735" cy="74.6077" rx="4.55" ry="2.45" transform="rotate(25.0186 196.735 74.6077)" fill="#EF8441"/>
<ellipse cx="126" cy="115" rx="29" ry="26" fill="white"/>
<ellipse cx="175.5" cy="126" rx="37.5" ry="26" fill="white"/>
<path d="M105 97.5C118.114 85.1731 139.145 87.5092 149.234 102.413L152 106.5L155.963 104.821C171.892 98.0713 190.154 99.8317 204.5 109.5" stroke="#CDF5FD" stroke-width="3" stroke-linecap="round"/>
<path d="M142.411 90.2527C144.571 91.3699 146.156 93.0097 146.998 94.7142C147.839 96.4193 147.911 98.1192 147.204 99.487C146.496 100.855 145.067 101.778 143.189 102.077C141.312 102.375 139.058 102.029 136.898 100.911C134.737 99.7941 133.152 98.1544 132.311 96.4498C131.469 94.7447 131.397 93.0448 132.104 91.677C132.812 90.3091 134.241 89.3858 136.119 89.0873C137.996 88.7888 140.25 89.1354 142.411 90.2527Z" fill="#F6C183" stroke="#744322" stroke-width="2"/>
<path d="M182.275 96.5777C184.703 96.726 186.816 97.5845 188.275 98.8033C189.734 100.022 190.487 101.548 190.393 103.085C190.3 104.622 189.366 106.045 187.769 107.077C186.173 108.109 183.971 108.704 181.543 108.555C179.116 108.407 177.003 107.549 175.544 106.33C174.085 105.111 173.331 103.585 173.425 102.048C173.519 100.511 174.453 99.0885 176.049 98.0561C177.646 97.024 179.848 96.4293 182.275 96.5777Z" fill="#F6C183" stroke="#744322" stroke-width="2"/>
<path d="M196.034 34.4762C207.195 39.6808 216.775 45.4401 223.239 50.5254C226.478 53.0731 228.888 55.4153 230.33 57.3993C231.051 58.3915 231.497 59.2501 231.703 59.9631C231.907 60.6674 231.86 61.167 231.691 61.5305C231.521 61.8941 231.168 62.2507 230.498 62.5475C229.819 62.8478 228.875 63.058 227.651 63.1434C225.205 63.3141 221.861 62.9737 217.828 62.1304C209.777 60.4471 199.207 56.8104 188.046 51.6058C176.885 46.4012 167.306 40.6423 160.841 35.557C157.602 33.0091 155.192 30.6668 153.75 28.6827C153.029 27.6904 152.583 26.8319 152.377 26.1189C152.173 25.4146 152.219 24.915 152.389 24.5515C152.558 24.1879 152.911 23.8313 153.582 23.5345C154.261 23.2341 155.205 23.024 156.429 22.9386C158.875 22.7678 162.219 23.1086 166.253 23.952C174.303 25.6353 184.873 29.2717 196.034 34.4762Z" fill="#E7CB90" stroke="#8E743F" stroke-width="2.1"/>
<path d="M180.68 11.0887L196.073 16.4052C200.655 17.9877 205.06 20.0419 209.218 22.5348L223.185 30.9095L218.433 57.6651L163.239 31.9277L180.68 11.0887Z" fill="#E7CB90"/>
<path d="M167.17 26.8096L179.457 35.2425L187.547 39.7611C190.524 41.424 193.619 42.8671 196.806 44.0788L205.468 47.3717L219.826 51.3637" stroke="#8B4F00" stroke-width="4.9"/>
<path d="M165.056 29.6858L180.02 11.632C180.578 10.9586 181.496 10.7016 182.322 10.9871L191.925 14.3021L203.282 18.9333L214.447 24.8042L222.856 29.885C223.599 30.3336 223.989 31.1924 223.839 32.0466L219.87 54.5816" stroke="#8E743F" stroke-width="2.1"/>
</g>
<defs>
<filter id="filter0_d_369_57" x="0" y="9.82196" width="234.888" height="167.178" filterUnits="userSpaceOnUse" color-interpolation-filters="sRGB">
<feFlood flood-opacity="0" result="BackgroundImageFix"/>
<feColorMatrix in="SourceAlpha" type="matrix" values="0 0 0 0 0 0 0 0 0 0 0 0 0 0 0 0 0 0 127 0" result="hardAlpha"/>
<feOffset dy="2"/>
<feGaussianBlur stdDeviation="1"/>
<feComposite in2="hardAlpha" operator="out"/>
<feColorMatrix type="matrix" values="0 0 0 0 0 0 0 0 0 0 0 0 0 0 0 0 0 0 0.2 0"/>
<feBlend mode="normal" in2="BackgroundImageFix" result="effect1_dropShadow_369_57"/>
<feBlend mode="normal" in="SourceGraphic" in2="effect1_dropShadow_369_57" result="shape"/>
</filter>
</defs>
</svg>
