<svg width="235" height="172" viewBox="0 0 235 172" fill="none" xmlns="http://www.w3.org/2000/svg">
<g filter="url(#filter0_d_369_602)">
<path d="M100.021 62.8699C122.333 51.971 147.866 61.507 157.182 70.5929C166.497 79.6787 164.551 96.6149 168.923 92.7333C173.296 88.8517 184.935 88.1568 197.061 91.1634C211.611 94.7714 224.719 99.795 229.571 108.427C234.423 117.058 231.512 125.69 225.204 140.681C218.896 155.673 199.007 160.775 199.007 160.775C199.007 160.775 178.62 164.49 173.77 158.853C168.92 153.216 164.059 165.478 135.443 167.357C106.826 169.236 93.221 158.304 89.8258 155.673C86.4307 153.042 80.1145 155.863 63.6237 161.124C47.1328 166.386 30.1431 148.404 27.717 150.221C25.2909 152.039 12.6781 154.104 6.37277 146.587C0.0674546 139.071 1.0375 129.225 6.37277 122.836C10.9865 117.311 27.5447 118.235 31.9388 118.586C30.7898 117.459 28.8808 115.426 25.7818 111.933C15.1113 99.907 37.4289 84.8164 41.309 83.3131C45.1891 81.8097 52.4717 79.6787 58.2919 79.6787C64.1121 79.6787 81.0975 83.3131 81.0975 83.3131C81.0975 83.3131 77.7103 73.7689 100.021 62.8699Z" fill="white"/>
<path d="M229.674 109.043C234.378 117.612 231.465 126.226 225.203 141.109C218.91 156.066 199.098 161.178 199.007 161.201C199.007 161.201 178.619 164.917 173.769 159.279C168.918 153.643 164.058 165.905 135.442 167.784C106.826 169.663 93.2206 158.731 89.8252 156.1C86.43 153.469 80.1137 156.289 63.623 161.551C47.1322 166.813 30.1419 148.831 27.7158 150.649C25.2888 152.466 12.6771 154.53 6.37207 147.014C4.01114 144.199 2.67094 141.058 2.19727 137.895C3.07911 140.029 4.15184 141.924 5.39648 143.407C11.7018 150.924 25.2907 147.041 27.7168 145.224C30.1433 143.407 46.1628 160.026 62.6533 154.765C79.1441 149.503 79.1527 145.32 82.5479 147.95C85.9438 150.582 100.514 164.821 129.129 162.942C157.745 161.062 165.037 147.31 169.888 152.947C174.738 158.585 205.795 153.856 205.795 153.856C205.857 153.82 219.395 146.098 225.688 131.141C229.357 122.423 230.398 115.232 229.674 109.043Z" fill="#CDF5FD"/>
<path d="M184.634 120.779C175.559 140.777 162.812 137.076 147.365 130.066C131.919 123.056 120.74 115.9 129.815 95.9021C133.982 86.719 146.518 74.7472 154.41 69.9473C162.303 65.1474 166.782 65.0816 175.135 68.8725C183.489 72.6634 185.529 76.0007 187.973 85.1782C190.708 95.4484 188.802 111.596 184.634 120.779Z" fill="#F6C183"/>
<path d="M171.379 121.191C165.329 134.523 157.712 132.456 148.552 128.299C139.392 124.142 132.82 119.77 138.87 106.438C141.648 100.316 149.572 92.1383 154.484 88.78C159.397 85.4217 162.111 85.2546 167.065 87.5027C172.019 89.7508 173.162 91.8771 174.388 97.8123C175.76 104.454 174.157 115.069 171.379 121.191Z" fill="#F9F2D4"/>
<path d="M154.628 69.1748L148.608 73.586C145.715 75.7058 142.99 78.0447 140.455 80.5821L139.994 81.044C137.209 83.8321 134.665 86.8504 132.388 90.0667L130.455 92.7972L128.489 96.7358C127.004 99.7097 126.233 102.988 126.235 106.312C126.236 108.567 126.594 110.808 127.294 112.951L128.007 115.132" stroke="#744322" stroke-width="2.1" stroke-linecap="round"/>
<path d="M188.238 84.0427L188.881 91.4779C189.191 95.0507 189.225 98.6421 188.984 102.22L188.957 102.63C188.681 106.722 188.046 110.782 187.06 114.763L186.231 118.108L184.702 121.854C183.444 124.935 181.484 127.68 178.978 129.869C177.283 131.35 175.365 132.554 173.295 133.437L171.179 134.339" stroke="#744322" stroke-width="2.1" stroke-linecap="round"/>
<path d="M213.451 71.0308C205.615 87.8215 191.373 82.9411 173.856 74.7663C156.34 66.5914 143.452 58.8097 151.288 42.019C154.887 34.3086 167.304 25.1297 175.401 21.8018C183.497 18.4739 188.363 18.9655 197.836 23.3864C207.308 27.8073 209.867 31.0463 213.46 39.5641C217.48 49.0961 217.05 63.3204 213.451 71.0308Z" fill="#F6C183"/>
<mask id="mask0_369_602" style="mask-type:alpha" maskUnits="userSpaceOnUse" x="148" y="19" width="69" height="64">
<path d="M213.451 71.0308C205.615 87.8215 191.373 82.9411 173.856 74.7663C156.34 66.5914 143.452 58.8097 151.288 42.019C154.887 34.3086 167.304 25.1297 175.401 21.8018C183.497 18.4739 188.363 18.9655 197.836 23.3864C207.308 27.8073 209.867 31.0463 213.46 39.5641C217.48 49.0961 217.05 63.3204 213.451 71.0308Z" fill="#F6C183"/>
</mask>
<g mask="url(#mask0_369_602)">
<path d="M191.344 20.7433L185.466 34.9944" stroke="#744322" stroke-width="4.2" stroke-linecap="round"/>
<path d="M204.179 26.3469L196.884 40.3231" stroke="#744322" stroke-width="4.2" stroke-linecap="round"/>
<path d="M197.835 23.3865L191.323 37.3416" stroke="#744322" stroke-width="4.2" stroke-linecap="round"/>
</g>
<path d="M175.982 51.4251C175.494 53.1784 175.059 54.1145 174.031 54.5311C172.9 54.9893 170.715 53.9881 169.523 53.4315C167.246 52.3687 166.261 49.6613 167.324 47.3842C168.387 45.107 171.094 44.1226 173.371 45.1853C175.648 46.2481 176.724 48.7588 175.982 51.4251Z" fill="#744322"/>
<ellipse cx="169.988" cy="47.4688" rx="1.05" ry="1.4" transform="rotate(55.0186 169.988 47.4688)" fill="white"/>
<path d="M190.328 58.1206C189.298 59.6209 188.86 60.556 189.201 61.6115C189.576 62.7724 191.747 63.8037 192.94 64.3604C195.217 65.4231 197.924 64.4387 198.987 62.1616C200.05 59.8844 199.065 57.177 196.788 56.1142C194.511 55.0515 191.895 55.8392 190.328 58.1206Z" fill="#744322"/>
<ellipse cx="192.553" cy="58.3725" rx="1.05" ry="1.4" transform="rotate(55.0186 192.553 58.3725)" fill="white"/>
<path d="M184.683 23.4211C181.166 25.4496 175.177 26.4594 173.245 23.1107C173.659 21.8274 174.129 20.2549 174.858 18.4859C176.7 14.0142 179.452 9.07838 183.968 7.34722C184.315 7.2142 184.646 7.17655 184.955 7.26986C189.97 8.78828 190.596 17.9776 186.955 21.746C186.384 22.3372 185.641 22.8683 184.683 23.4211Z" fill="#F6C183"/>
<path d="M185.935 20.0578C183.437 21.4991 177.092 24.3878 175.772 22.0998C176.077 21.214 176.425 20.13 176.954 18.9086C178.312 15.7716 180.315 12.3834 183.484 11.1033C183.738 11.001 183.978 10.9677 184.2 11.0302C184.312 11.0617 184.42 11.1224 184.525 11.2073C187.122 13.3028 188.825 18.3904 185.935 20.0578Z" fill="#EF8441"/>
<path d="M206.37 33.543C207.074 37.5408 210.147 42.7804 213.955 42.1103C214.672 40.9684 215.576 39.5983 216.464 37.9036C218.708 33.6196 220.723 28.3396 219.149 23.7665C219.029 23.4151 218.845 23.137 218.575 22.9607C214.19 20.0921 206.745 25.5145 206.195 30.7255C206.109 31.5429 206.179 32.4536 206.37 33.543Z" fill="#F6C183"/>
<path d="M208.21 31.5568C208.707 34.3807 210.554 39.8999 213.104 39.4511C213.577 38.6508 214.174 37.6907 214.759 36.502C216.249 33.4733 217.47 29.8289 216.49 26.5991C216.407 26.3257 216.278 26.1093 216.083 25.9745C213.197 23.975 207.577 27.5943 208.126 31.0618C208.15 31.2139 208.178 31.3783 208.21 31.5568Z" fill="#EF8441"/>
<path d="M179.074 65.6342C178.445 65.7818 177.796 65.479 177.505 64.9017L175.999 61.9166C175.4 60.7301 176.637 59.4554 177.841 60.0174L182.602 62.2393C183.806 62.8013 183.623 64.5677 182.329 64.871L179.074 65.6342Z" fill="#744322"/>
<path d="M188.807 19.559L189.498 17.5145C190.838 13.5506 188.984 9.21286 185.192 7.44324" stroke="#744322" stroke-width="2.1" stroke-linecap="round"/>
<path d="M206.568 27.8481L207.691 26.0052C209.869 22.4321 214.385 21.0677 218.176 22.8373" stroke="#744322" stroke-width="2.1" stroke-linecap="round"/>
<path d="M170.305 24.4428L165.028 27.6059C159.702 30.7979 155.303 35.3273 152.269 40.7445" stroke="#744322" stroke-width="2.1" stroke-linecap="round"/>
<path d="M152.269 40.7445C152.019 40.8282 150.189 44.2243 149.013 47.722C147.624 51.8526 148.949 56.2881 151.585 59.7582L152.015 60.3241" stroke="#744322" stroke-width="2.1" stroke-linecap="round"/>
<path d="M214.708 45.1655L215.674 51.2424C216.648 57.3747 216.001 63.6551 213.798 69.4603" stroke="#744322" stroke-width="2.1" stroke-linecap="round"/>
<path d="M213.798 69.4603C213.895 69.7055 212.467 73.2899 210.542 76.4378C208.268 80.1553 204.017 81.9887 199.664 82.197L198.955 82.231" stroke="#744322" stroke-width="2.1" stroke-linecap="round"/>
<path d="M155.567 64.2993C160.141 68.2279 165.23 71.5128 170.694 74.0627L173.243 75.2526L175.954 76.5178C181.523 79.1168 187.41 80.9711 193.463 82.033L193.626 82.0616" stroke="#744322" stroke-width="2.1" stroke-linecap="round"/>
<path d="M173.055 21.8633L173.113 21.6527C174.557 16.466 177.655 11.8925 181.936 8.62724" stroke="#744322" stroke-width="2.1" stroke-linecap="round"/>
<path d="M215.216 40.7675L215.95 39.7692C218.884 35.7797 220.262 30.8572 219.826 25.9244" stroke="#744322" stroke-width="2.1" stroke-linecap="round"/>
<ellipse cx="163.116" cy="53.9177" rx="4.55" ry="2.45" transform="rotate(25.0186 163.116 53.9177)" fill="#EF8441"/>
<ellipse cx="196.735" cy="69.6077" rx="4.55" ry="2.45" transform="rotate(25.0186 196.735 69.6077)" fill="#EF8441"/>
<ellipse cx="126" cy="110" rx="29" ry="26" fill="white"/>
<ellipse cx="175.5" cy="121" rx="37.5" ry="26" fill="white"/>
<path d="M105 92.5C118.114 80.1731 139.145 82.5092 149.234 97.4133L152 101.5L155.963 99.8209C171.892 93.0713 190.154 94.8317 204.5 104.5" stroke="#CDF5FD" stroke-width="3" stroke-linecap="round"/>
<path d="M142.41 85.2527C144.57 86.3699 146.156 88.0097 146.997 89.7142C147.839 91.4193 147.911 93.1192 147.204 94.487C146.496 95.8549 145.067 96.7782 143.189 97.0767C141.312 97.3752 139.057 97.0286 136.897 95.9113C134.737 94.7941 133.152 93.1544 132.31 91.4498C131.469 89.7447 131.396 88.0448 132.104 86.677C132.811 85.3091 134.241 84.3858 136.118 84.0873C137.996 83.7888 140.25 84.1354 142.41 85.2527Z" fill="#F6C183" stroke="#744322" stroke-width="2"/>
<path d="M182.275 91.5777C184.703 91.726 186.816 92.5845 188.275 93.8033C189.734 95.0225 190.487 96.5479 190.393 98.085C190.3 99.6222 189.366 101.045 187.769 102.077C186.173 103.109 183.971 103.704 181.543 103.555C179.116 103.407 177.003 102.549 175.544 101.33C174.085 100.111 173.331 98.5851 173.425 97.048C173.519 95.5109 174.453 94.0885 176.049 93.0561C177.646 92.024 179.848 91.4293 182.275 91.5777Z" fill="#F6C183" stroke="#744322" stroke-width="2"/>
<path d="M165.544 79.2426C166.802 78.7846 168.227 78.6395 169.367 78.7176C169.938 78.7568 170.407 78.8501 170.731 78.9683C170.894 79.0274 170.998 79.0849 171.057 79.1284C171.065 79.1345 171.071 79.1406 171.076 79.1452C171.079 79.1732 171.082 79.2229 171.078 79.2983C171.07 79.4327 171.042 79.6099 170.988 79.8226C170.88 80.2478 170.678 80.7685 170.384 81.3C169.787 82.3783 168.873 83.388 167.73 83.8041C166.365 84.3009 164.291 85.0491 162.522 85.5603C161.632 85.8173 160.852 86.0047 160.288 86.0761C160.185 86.0891 160.095 86.0962 160.018 86.1007C160.081 85.9094 160.18 85.6689 160.314 85.3861C160.633 84.7118 161.123 83.8657 161.712 83.0096C162.301 82.1538 162.977 81.3059 163.66 80.6181C164.356 79.9177 165.008 79.4376 165.544 79.2426Z" fill="white" stroke="#848484" stroke-width="1.4"/>
<path d="M175.092 82.9227C174.634 81.6642 173.829 80.4798 173.036 79.6563C172.639 79.2439 172.266 78.9448 171.967 78.7723C171.818 78.686 171.707 78.6431 171.636 78.6259C171.626 78.6235 171.617 78.6229 171.61 78.6217C171.587 78.6376 171.547 78.667 171.492 78.7188C171.394 78.8113 171.276 78.9464 171.148 79.1246C170.892 79.4809 170.622 79.9702 170.404 80.5373C169.962 81.6877 169.776 83.0367 170.192 84.1801C170.689 85.545 171.449 87.6141 172.194 89.2982C172.569 90.1449 172.928 90.8633 173.235 91.3408C173.291 91.4284 173.344 91.502 173.39 91.5639C173.496 91.3926 173.617 91.1622 173.747 90.8779C174.059 90.1999 174.392 89.2807 174.669 88.279C174.946 87.2778 175.161 86.2151 175.249 85.2496C175.338 84.2663 175.287 83.4586 175.092 82.9227Z" fill="white" stroke="#848484" stroke-width="1.4"/>
<mask id="mask1_369_602" style="mask-type:alpha" maskUnits="userSpaceOnUse" x="146" y="13" width="76" height="72">
<mask id="path-39-inside-1_369_602" fill="white">
<path d="M199.18 17.5312C221.121 27.7625 226.722 49.5658 217.654 69.0117C207.952 88.1619 193.735 85.6637 170.992 80.465C152.39 66.3845 141.021 56.9515 149.454 37.2097C158.522 17.764 177.239 7.29997 199.18 17.5312ZM194.191 31.0378C177.046 23.0433 163.562 28.4885 155.829 45.0718C150.495 62.7736 160.661 60.7691 172.891 76.7161C192.968 75.8336 197.719 84.7947 207.851 69.3303C215.584 52.7469 211.336 39.0325 194.191 31.0378Z"/>
</mask>
<path d="M199.18 17.5312C221.121 27.7625 226.722 49.5658 217.654 69.0117C207.952 88.1619 193.735 85.6637 170.992 80.465C152.39 66.3845 141.021 56.9515 149.454 37.2097C158.522 17.764 177.239 7.29997 199.18 17.5312ZM194.191 31.0378C177.046 23.0433 163.562 28.4885 155.829 45.0718C150.495 62.7736 160.661 60.7691 172.891 76.7161C192.968 75.8336 197.719 84.7947 207.851 69.3303C215.584 52.7469 211.336 39.0325 194.191 31.0378Z" fill="white"/>
<path d="M199.18 17.5312L199.772 16.2624L199.18 17.5312ZM217.654 69.0117L218.903 69.6445L218.913 69.6241L218.923 69.6034L217.654 69.0117ZM170.992 80.465L170.147 81.5813L170.387 81.7628L170.68 81.8298L170.992 80.465ZM149.454 37.2097L148.186 36.618L148.176 36.6387L148.167 36.6597L149.454 37.2097ZM194.191 31.0378L194.782 29.769L194.782 29.769L194.191 31.0378ZM155.829 45.0718L154.56 44.4801L154.517 44.5714L154.488 44.6679L155.829 45.0718ZM172.891 76.7161L171.78 77.568L172.224 78.1468L172.952 78.1147L172.891 76.7161ZM207.851 69.3303L209.022 70.0975L209.077 70.0132L209.12 69.9219L207.851 69.3303ZM199.18 17.5312L198.588 18.8001C209.238 23.766 215.836 31.4896 218.715 40.2529C221.6 49.033 220.789 58.977 216.385 68.4201L217.654 69.0117L218.923 69.6034C223.587 59.6005 224.51 48.92 221.375 39.379C218.235 29.8214 211.063 21.5277 199.772 16.2624L199.18 17.5312ZM217.654 69.0117L216.405 68.379C214.046 73.0351 211.457 76.2878 208.608 78.5068C205.77 80.7173 202.607 81.955 199.01 82.4841C191.71 83.5578 182.746 81.7157 171.304 79.1002L170.992 80.465L170.68 81.8298C181.981 84.413 191.496 86.4194 199.417 85.2543C203.43 84.664 207.061 83.2605 210.329 80.7159C213.585 78.1798 216.411 74.5634 218.903 69.6445L217.654 69.0117ZM170.992 80.465L171.837 79.3487C162.478 72.2645 155.222 66.5423 151.272 60.2187C149.326 57.1013 148.203 53.8626 148.045 50.2554C147.886 46.6355 148.693 42.5555 150.742 37.7597L149.454 37.2097L148.167 36.6597C145.999 41.7348 145.065 46.2371 145.247 50.3783C145.43 54.5321 146.731 58.2333 148.898 61.7019C153.175 68.5504 160.904 74.5849 170.147 81.5813L170.992 80.465ZM149.454 37.2097L150.723 37.8014C155.147 28.3157 161.874 21.1254 170.054 17.5228C178.203 13.9339 187.945 13.837 198.588 18.8001L199.18 17.5312L199.772 16.2624C188.474 10.9941 177.887 11.0137 168.925 14.9603C159.995 18.8934 152.83 26.6579 148.186 36.618L149.454 37.2097ZM194.191 31.0378L194.782 29.769C185.976 25.6625 177.918 24.9239 170.988 27.5276C164.064 30.1288 158.529 35.9676 154.56 44.4801L155.829 45.0718L157.097 45.6635C160.861 37.5927 165.935 32.4173 171.973 30.1487C178.004 27.8825 185.261 28.4186 193.599 32.3067L194.191 31.0378ZM155.829 45.0718L154.488 44.6679C153.128 49.1815 152.701 52.6076 153.141 55.4554C153.59 58.3579 154.915 60.5096 156.743 62.4991C158.503 64.4157 160.88 66.3244 163.379 68.5738C165.929 70.8699 168.792 73.6714 171.78 77.568L172.891 76.7161L174.002 75.8642C170.875 71.7873 167.881 68.8592 165.252 66.4929C162.572 64.0798 160.447 62.3932 158.805 60.6049C157.229 58.8894 156.248 57.2264 155.908 55.0278C155.56 52.7745 155.862 49.813 157.169 45.4757L155.829 45.0718ZM172.891 76.7161L172.952 78.1147C177.859 77.8991 181.831 78.284 185.207 78.7512C188.514 79.209 191.473 79.7883 194.045 79.8903C196.718 79.9963 199.187 79.6104 201.673 78.0755C204.109 76.5713 206.441 74.037 209.022 70.0975L207.851 69.3303L206.68 68.563C204.195 72.3557 202.134 74.5005 200.202 75.693C198.32 76.8548 196.447 77.1834 194.156 77.0925C191.764 76.9976 189.138 76.4687 185.59 75.9777C182.112 75.4962 177.961 75.0919 172.829 75.3174L172.891 76.7161ZM207.851 69.3303L209.12 69.9219C213.085 61.4184 214.067 53.4566 211.674 46.5075C209.277 39.5474 203.589 33.8758 194.782 29.769L194.191 31.0378L193.599 32.3067C201.937 36.1946 206.946 41.3775 209.026 47.4191C211.111 53.4716 210.35 60.6588 206.582 68.7386L207.851 69.3303Z" fill="#848484" mask="url(#path-39-inside-1_369_602)"/>
</mask>
<g mask="url(#mask1_369_602)">
<path d="M199.18 17.5312C221.121 27.7625 226.722 49.5658 217.654 69.0117C207.952 88.1619 193.735 85.6637 170.992 80.465C152.39 66.3845 141.021 56.9515 149.454 37.2097C158.522 17.764 177.239 7.29997 199.18 17.5312ZM194.191 31.0378C177.046 23.0433 163.562 28.4885 155.829 45.0718C150.495 62.7736 160.661 60.7691 172.891 76.7161C192.968 75.8336 197.719 84.7947 207.851 69.3303C215.584 52.7469 211.336 39.0325 194.191 31.0378Z" fill="white"/>
<path d="M180.383 17.2619L184.44 11.0443L186.98 18.0211" stroke="#00C914" stroke-width="2.1" stroke-linecap="round"/>
<path d="M180.826 16.3101C182.578 17.127 183.336 19.2095 182.519 20.9613C181.702 22.7132 179.62 23.4711 177.868 22.6543C176.116 21.8373 175.358 19.7549 176.175 18.003C176.992 16.2513 179.074 15.4932 180.826 16.3101ZM188.354 16.7309C190.105 17.5479 190.863 19.6303 190.047 21.3822C189.23 23.1341 187.147 23.892 185.395 23.0751C183.643 22.2582 182.885 20.1758 183.702 18.4239C184.519 16.672 186.602 15.914 188.354 16.7309Z" fill="#FF6363"/>
<path d="M205.096 31.8954L211.891 28.9036L210.207 36.1348" stroke="#00C914" stroke-width="2.1" stroke-linecap="round"/>
<path d="M205.987 31.3405C207.008 32.9816 206.505 35.14 204.864 36.1613C203.223 37.1826 201.065 36.6801 200.044 35.039C199.022 33.3978 199.525 31.2394 201.166 30.2181C202.807 29.197 204.965 29.6995 205.987 31.3405ZM212.062 35.8044C213.084 37.4456 212.581 39.604 210.94 40.6253C209.299 41.6465 207.14 41.144 206.119 39.5029C205.098 37.8617 205.6 35.7034 207.241 34.6821C208.883 33.6608 211.041 34.1633 212.062 35.8044Z" fill="#FF6363"/>
<path d="M212.057 67.1347L219.129 64.8732L216.695 71.8876" stroke="#00C914" stroke-width="2.1" stroke-linecap="round"/>
<path d="M213.002 66.6766C213.845 68.4159 213.119 70.5095 211.379 71.3528C209.64 72.1961 207.547 71.4696 206.703 69.7302C205.86 67.9909 206.586 65.8972 208.326 65.054C210.065 64.2108 212.159 64.9373 213.002 66.6766ZM218.575 71.754C219.418 73.4934 218.692 75.587 216.952 76.4303C215.213 77.2734 213.119 76.547 212.276 74.8077C211.433 73.0684 212.16 70.9747 213.899 70.1314C215.638 69.2882 217.732 70.0147 218.575 71.754Z" fill="#FF6363"/>
<circle cx="181.697" cy="77.9061" r="3.5" transform="rotate(64.1361 181.697 77.9061)" fill="#FF6363"/>
<path d="M161.527 29.9416L168.599 27.6801L166.165 34.6945" stroke="#00C914" stroke-width="2.1" stroke-linecap="round"/>
<path d="M162.472 29.4835C163.315 31.2227 162.589 33.3164 160.85 34.1597C159.11 35.0029 157.017 34.2764 156.173 32.5371C155.33 30.7977 156.057 28.7041 157.796 27.8609C159.535 27.0178 161.629 27.7442 162.472 29.4835ZM168.045 34.5609C168.889 36.3003 168.162 38.3939 166.423 39.2372C164.683 40.0804 162.59 39.3539 161.746 37.6146C160.903 35.8752 161.63 33.7816 163.369 32.9383C165.108 32.0951 167.202 32.8216 168.045 34.5609Z" fill="#FF6363"/>
<path d="M148.313 54.8387L150.921 47.887L154.918 54.1439" stroke="#00C914" stroke-width="2.1" stroke-linecap="round"/>
<path d="M148.54 53.8131C150.427 54.2292 151.62 56.0968 151.205 57.9844C150.788 59.872 148.921 61.0649 147.033 60.649C145.146 60.2329 143.953 58.3654 144.369 56.4777C144.785 54.5901 146.652 53.397 148.54 53.8131ZM155.978 52.5856C157.866 53.0018 159.059 54.8693 158.643 56.7569C158.227 58.6445 156.359 59.8374 154.472 59.4215C152.584 59.0054 151.391 57.1379 151.807 55.2502C152.223 53.3625 154.091 52.1695 155.978 52.5856Z" fill="#FF6363"/>
<mask id="path-53-inside-2_369_602" fill="white">
<path d="M199.18 17.5312C221.121 27.7625 226.722 49.5658 217.654 69.0117C207.952 88.1619 193.735 85.6637 170.992 80.465C152.39 66.3845 141.021 56.9515 149.454 37.2097C158.522 17.764 177.239 7.29997 199.18 17.5312ZM194.191 31.0378C177.046 23.0433 163.562 28.4885 155.829 45.0718C150.495 62.7736 160.661 60.7691 172.891 76.7161C192.968 75.8336 197.719 84.7947 207.851 69.3303C215.584 52.7469 211.336 39.0325 194.191 31.0378Z"/>
</mask>
<path d="M199.18 17.5312L199.772 16.2624L199.18 17.5312ZM217.654 69.0117L218.903 69.6445L218.913 69.6241L218.923 69.6034L217.654 69.0117ZM170.992 80.465L170.147 81.5813L170.387 81.7628L170.68 81.8298L170.992 80.465ZM149.454 37.2097L148.186 36.618L148.176 36.6387L148.167 36.6597L149.454 37.2097ZM194.191 31.0378L194.782 29.769L194.782 29.769L194.191 31.0378ZM155.829 45.0718L154.56 44.4801L154.517 44.5714L154.488 44.6679L155.829 45.0718ZM172.891 76.7161L171.78 77.568L172.224 78.1468L172.952 78.1147L172.891 76.7161ZM207.851 69.3303L209.022 70.0975L209.077 70.0132L209.12 69.9219L207.851 69.3303ZM199.18 17.5312L198.588 18.8001C209.238 23.766 215.836 31.4896 218.715 40.2529C221.6 49.033 220.789 58.977 216.385 68.4201L217.654 69.0117L218.923 69.6034C223.587 59.6005 224.51 48.92 221.375 39.379C218.235 29.8214 211.063 21.5277 199.772 16.2624L199.18 17.5312ZM217.654 69.0117L216.405 68.379C214.046 73.0351 211.457 76.2878 208.608 78.5068C205.77 80.7173 202.607 81.955 199.01 82.4841C191.71 83.5578 182.746 81.7157 171.304 79.1002L170.992 80.465L170.68 81.8298C181.981 84.413 191.496 86.4194 199.417 85.2543C203.43 84.664 207.061 83.2605 210.329 80.7159C213.585 78.1798 216.411 74.5634 218.903 69.6445L217.654 69.0117ZM170.992 80.465L171.837 79.3487C162.478 72.2645 155.222 66.5423 151.272 60.2187C149.326 57.1013 148.203 53.8626 148.045 50.2554C147.886 46.6355 148.693 42.5555 150.742 37.7597L149.454 37.2097L148.167 36.6597C145.999 41.7348 145.065 46.2371 145.247 50.3783C145.43 54.5321 146.731 58.2333 148.898 61.7019C153.175 68.5504 160.904 74.5849 170.147 81.5813L170.992 80.465ZM149.454 37.2097L150.723 37.8014C155.147 28.3157 161.874 21.1254 170.054 17.5228C178.203 13.9339 187.945 13.837 198.588 18.8001L199.18 17.5312L199.772 16.2624C188.474 10.9941 177.887 11.0137 168.925 14.9603C159.995 18.8934 152.83 26.6579 148.186 36.618L149.454 37.2097ZM194.191 31.0378L194.782 29.769C185.976 25.6625 177.918 24.9239 170.988 27.5276C164.064 30.1288 158.529 35.9676 154.56 44.4801L155.829 45.0718L157.097 45.6635C160.861 37.5927 165.935 32.4173 171.973 30.1487C178.004 27.8825 185.261 28.4186 193.599 32.3067L194.191 31.0378ZM155.829 45.0718L154.488 44.6679C153.128 49.1815 152.701 52.6076 153.141 55.4554C153.59 58.3579 154.915 60.5096 156.743 62.4991C158.503 64.4157 160.88 66.3244 163.379 68.5738C165.929 70.8699 168.792 73.6714 171.78 77.568L172.891 76.7161L174.002 75.8642C170.875 71.7873 167.881 68.8592 165.252 66.4929C162.572 64.0798 160.447 62.3932 158.805 60.6049C157.229 58.8894 156.248 57.2264 155.908 55.0278C155.56 52.7745 155.862 49.813 157.169 45.4757L155.829 45.0718ZM172.891 76.7161L172.952 78.1147C177.859 77.8991 181.831 78.284 185.207 78.7512C188.514 79.209 191.473 79.7883 194.045 79.8903C196.718 79.9963 199.187 79.6104 201.673 78.0755C204.109 76.5713 206.441 74.037 209.022 70.0975L207.851 69.3303L206.68 68.563C204.195 72.3557 202.134 74.5005 200.202 75.693C198.32 76.8548 196.447 77.1834 194.156 77.0925C191.764 76.9976 189.138 76.4687 185.59 75.9777C182.112 75.4962 177.961 75.0919 172.829 75.3174L172.891 76.7161ZM207.851 69.3303L209.12 69.9219C213.085 61.4184 214.067 53.4566 211.674 46.5075C209.277 39.5474 203.589 33.8758 194.782 29.769L194.191 31.0378L193.599 32.3067C201.937 36.1946 206.946 41.3775 209.026 47.4191C211.111 53.4716 210.35 60.6588 206.582 68.7386L207.851 69.3303Z" fill="#848484" mask="url(#path-53-inside-2_369_602)"/>
</g>
</g>
<defs>
<filter id="filter0_d_369_602" x="0" y="6.39301" width="234" height="165.607" filterUnits="userSpaceOnUse" color-interpolation-filters="sRGB">
<feFlood flood-opacity="0" result="BackgroundImageFix"/>
<feColorMatrix in="SourceAlpha" type="matrix" values="0 0 0 0 0 0 0 0 0 0 0 0 0 0 0 0 0 0 127 0" result="hardAlpha"/>
<feOffset dy="2"/>
<feGaussianBlur stdDeviation="1"/>
<feComposite in2="hardAlpha" operator="out"/>
<feColorMatrix type="matrix" values="0 0 0 0 0 0 0 0 0 0 0 0 0 0 0 0 0 0 0.2 0"/>
<feBlend mode="normal" in2="BackgroundImageFix" result="effect1_dropShadow_369_602"/>
<feBlend mode="normal" in="SourceGraphic" in2="effect1_dropShadow_369_602" result="shape"/>
</filter>
</defs>
</svg>
