<svg width="108" height="115" viewBox="0 0 108 115" fill="none" xmlns="http://www.w3.org/2000/svg">
<path d="M46.2069 100.207C47.56 98.8542 49.3176 97.8062 50.8418 97.2187C51.6048 96.9246 52.2673 96.7616 52.7587 96.7187C53.0045 96.6973 53.174 96.7091 53.2766 96.7298C53.2912 96.7327 53.3026 96.7382 53.3125 96.7408C53.3331 96.7755 53.3668 96.8372 53.4064 96.937C53.4774 97.1157 53.5483 97.362 53.6067 97.6703C53.7233 98.2863 53.7765 99.0825 53.7164 99.9484C53.5946 101.705 53.0218 103.564 51.7926 104.793C50.3254 106.26 48.0925 108.48 46.1102 110.21C45.1135 111.08 44.2161 111.795 43.5297 112.227C43.4043 112.306 43.2922 112.37 43.1955 112.422C43.1618 112.136 43.1424 111.765 43.1451 111.318C43.1514 110.252 43.2755 108.862 43.5214 107.398C43.7673 105.934 44.1292 104.428 44.5986 103.125C45.0766 101.798 45.6308 100.783 46.2069 100.207Z" fill="#353A82" stroke="#060040" stroke-width="2"/>
<path d="M60.7931 99.2073C59.44 97.8541 57.6824 96.8061 56.1582 96.2186C55.3952 95.9245 54.7327 95.7615 54.2413 95.7187C53.9955 95.6973 53.826 95.709 53.7234 95.7297C53.7088 95.7327 53.6974 95.7382 53.6875 95.7408C53.6669 95.7754 53.6332 95.8372 53.5936 95.9369C53.5226 96.1156 53.4517 96.362 53.3933 96.6702C53.2767 97.2862 53.2235 98.0824 53.2836 98.9483C53.4054 100.705 53.9782 102.564 55.2074 103.793C56.6746 105.26 58.9075 107.48 60.8898 109.21C61.8865 110.08 62.7839 110.795 63.4703 111.227C63.5957 111.306 63.7078 111.37 63.8045 111.422C63.8382 111.136 63.8576 110.765 63.8549 110.318C63.8486 109.252 63.7245 107.862 63.4786 106.398C63.2327 104.934 62.8708 103.428 62.4014 102.125C61.9234 100.798 61.3692 99.7834 60.7931 99.2073Z" fill="#353A82" stroke="#060040" stroke-width="2"/>
<mask id="mask0_369_498" style="mask-type:alpha" maskUnits="userSpaceOnUse" x="0" y="0" width="108" height="99">
<mask id="path-3-inside-1_369_498" fill="white">
<path d="M52.5 0C87.0848 0 107.5 24.8482 107.5 55.5C106.5 86.1518 86.5848 91.5 54 98.5C21.4152 91.5 1 86.1518 0 55.5C0 24.8482 17.9152 0 52.5 0ZM54.1953 20.5C27.1709 20.5 13 35.6905 13 61.8301C16.7814 87.9695 28.7338 79.2361 54.1953 92.5C79.6569 79.2361 91.2186 87.9695 95 61.8301C95 35.6905 81.2197 20.5 54.1953 20.5Z"/>
</mask>
<path d="M52.5 0C87.0848 0 107.5 24.8482 107.5 55.5C106.5 86.1518 86.5848 91.5 54 98.5C21.4152 91.5 1 86.1518 0 55.5C0 24.8482 17.9152 0 52.5 0ZM54.1953 20.5C27.1709 20.5 13 35.6905 13 61.8301C16.7814 87.9695 28.7338 79.2361 54.1953 92.5C79.6569 79.2361 91.2186 87.9695 95 61.8301C95 35.6905 81.2197 20.5 54.1953 20.5Z" fill="white"/>
<path d="M107.5 55.5L109.499 55.5652L109.5 55.5326V55.5H107.5ZM54 98.5L53.5799 100.455L54 100.546L54.4201 100.455L54 98.5ZM0 55.5H-2V55.5326L-1.99894 55.5652L0 55.5ZM54.1953 20.5V18.5V18.5V20.5ZM13 61.8301H11V61.974L11.0206 62.1164L13 61.8301ZM54.1953 92.5L53.2713 94.2738L54.1953 94.7551L55.1193 94.2738L54.1953 92.5ZM95 61.8301L96.9794 62.1164L97 61.974V61.8301H95ZM52.5 0V2C69.2864 2 82.4928 8.0162 91.511 17.6243C100.546 27.2507 105.5 40.6153 105.5 55.5H107.5H109.5C109.5 39.7329 104.246 25.3475 94.4276 14.8868C84.592 4.4079 70.2984 -2 52.5 -2V0ZM107.5 55.5L105.501 55.4348C105.258 62.8874 103.869 68.6619 101.52 73.2549C99.1804 77.8303 95.832 81.3425 91.4943 84.1991C82.6923 89.9957 69.9734 93.0229 53.5799 96.5446L54 98.5L54.4201 100.455C70.6114 96.9771 84.1425 93.8302 93.6943 87.5397C98.5335 84.3528 102.388 80.3433 105.082 75.0763C107.766 69.827 109.242 63.4385 109.499 55.5652L107.5 55.5ZM54 98.5L54.4201 96.5446C38.0259 93.0228 25.1766 89.995 16.2453 84.1923C11.8424 81.3317 8.43403 77.8162 6.05088 73.2416C3.65941 68.651 2.24186 62.881 1.99894 55.4348L0 55.5L-1.99894 55.5652C-1.74186 63.4449 -0.232508 69.8379 2.50339 75.0896C5.24762 80.3574 9.16711 84.3636 14.0661 87.5465C23.7386 93.8309 37.3893 96.9772 53.5799 100.455L54 98.5ZM0 55.5H2C2 40.548 6.36889 27.1769 14.7848 17.5738C23.169 8.00693 35.7235 2 52.5 2V0V-2C34.6917 -2 20.9962 4.41717 11.7766 14.9374C2.58871 25.4213 -2 39.8002 -2 55.5H0ZM54.1953 20.5V18.5C40.314 18.5 29.4352 22.4084 22.0348 29.9631C14.6413 37.5108 11 48.4121 11 61.8301H13H15C15 49.1085 18.4442 39.3447 24.8922 32.7622C31.3334 26.1868 41.0523 22.5 54.1953 22.5V20.5ZM13 61.8301L11.0206 62.1164C11.9848 68.7815 13.5002 73.4752 15.7892 76.8967C18.1223 80.3839 21.1371 82.3696 24.7046 83.8421C28.1413 85.2606 32.3711 86.2968 36.9641 87.7006C41.6525 89.1336 47.0498 91.0327 53.2713 94.2738L54.1953 92.5L55.1193 90.7262C48.61 87.3353 42.9652 85.3522 38.1333 83.8753C33.2061 82.3693 29.4374 81.4682 26.2307 80.1446C23.1547 78.8751 20.8811 77.314 19.1138 74.6725C17.3026 71.9653 15.9059 67.9484 14.9794 61.5437L13 61.8301ZM54.1953 92.5L55.1193 94.2738C61.3426 91.0318 66.7171 89.1324 71.3696 87.6993C75.9276 86.2954 80.1085 85.2589 83.5005 83.838C87.025 82.3616 89.989 80.3711 92.281 76.8829C94.5272 73.4643 96.0161 68.7754 96.9794 62.1164L95 61.8301L93.0206 61.5437C92.0932 67.9544 90.7188 71.9762 88.9381 74.6863C87.2031 77.3268 84.9762 78.8831 81.955 80.1487C78.8011 81.4698 75.0812 82.3707 70.1922 83.8766C65.3976 85.3533 59.7788 87.3362 53.2713 90.7262L54.1953 92.5ZM95 61.8301H97C97 48.4263 93.4641 37.5257 86.1704 29.9733C78.8653 22.4091 68.0773 18.5 54.1953 18.5V20.5V22.5C67.3377 22.5 76.9521 26.1861 83.2932 32.7521C89.6457 39.3299 93 49.0942 93 61.8301H95Z" fill="#848484" mask="url(#path-3-inside-1_369_498)"/>
</mask>
<g mask="url(#mask0_369_498)">
<path d="M52.5 0C87.0848 0 107.5 24.8482 107.5 55.5C106.5 86.1518 86.5848 91.5 54 98.5C21.4152 91.5 1 86.1518 0 55.5C0 24.8482 17.9152 0 52.5 0ZM54.1953 20.5C27.1709 20.5 13 35.6905 13 61.8301C16.7814 87.9695 28.7338 79.2361 54.1953 92.5C79.6569 79.2361 91.2186 87.9695 95 61.8301C95 35.6905 81.2197 20.5 54.1953 20.5Z" fill="#353A82"/>
<path d="M19 20.5C20.1046 20.5 21 22.5147 21 25C21 27.4853 20.1046 29.5 19 29.5C17.8954 29.5 17 27.4853 17 25C17 22.5147 17.8954 20.5 19 20.5ZM24 20.5C25.1046 20.5 26 22.5147 26 25C26 27.4853 25.1046 29.5 24 29.5C22.8954 29.5 22 27.4853 22 25C22 22.5147 22.8954 20.5 24 20.5ZM29 20.5C30.1046 20.5 31 22.5147 31 25C31 27.4853 30.1046 29.5 29 29.5C27.8954 29.5 27 27.4853 27 25C27 22.5147 27.8954 20.5 29 20.5Z" fill="#DFDFDF"/>
<path d="M1 34.5C2.10457 34.5 3 36.5147 3 39C3 41.4853 2.10457 43.5 1 43.5C-0.104569 43.5 -1 41.4853 -1 39C-1 36.5147 -0.104569 34.5 1 34.5ZM6 34.5C7.10457 34.5 8 36.5147 8 39C8 41.4853 7.10457 43.5 6 43.5C4.89543 43.5 4 41.4853 4 39C4 36.5147 4.89543 34.5 6 34.5ZM11 34.5C12.1046 34.5 13 36.5147 13 39C13 41.4853 12.1046 43.5 11 43.5C9.89543 43.5 9 41.4853 9 39C9 36.5147 9.89543 34.5 11 34.5Z" fill="#DFDFDF"/>
<path d="M4.50539 55.4413C5.40826 56.0776 4.97954 58.2403 3.54783 60.2718C2.11611 62.3032 0.22355 63.4342 -0.679319 62.7979C-1.58219 62.1616 -1.15347 59.9989 0.278249 57.9674C1.70997 55.936 3.60252 54.805 4.50539 55.4413ZM8.59236 58.3217C9.49523 58.958 9.06651 61.1207 7.6348 63.1522C6.20308 65.1836 4.31052 66.3146 3.40765 65.6783C2.50478 65.0419 2.9335 62.8793 4.36522 60.8478C5.79694 58.8164 7.68949 57.6854 8.59236 58.3217ZM12.6793 61.2021C13.5822 61.8384 13.1535 64.0011 11.7218 66.0325C10.29 68.064 8.39749 69.195 7.49462 68.5587C6.59175 67.9223 7.02047 65.7597 8.45219 63.7282C9.88391 61.6968 11.7765 60.5658 12.6793 61.2021Z" fill="#DFDFDF"/>
<path d="M29.8194 81.6522C30.7222 82.2885 30.2935 84.4511 28.8618 86.4826C27.4301 88.514 25.5375 89.645 24.6346 89.0087C23.7318 88.3724 24.1605 86.2097 25.5922 84.1783C27.0239 82.1468 28.9165 81.0158 29.8194 81.6522ZM33.9063 84.5326C34.8092 85.1689 34.3805 87.3315 32.9488 89.363C31.517 91.3944 29.6245 92.5254 28.7216 91.8891C27.8187 91.2528 28.2475 89.0901 29.6792 87.0587C31.1109 85.0272 33.0035 83.8962 33.9063 84.5326ZM37.9933 87.4129C38.8962 88.0493 38.4674 90.2119 37.0357 92.2434C35.604 94.2748 33.7115 95.4058 32.8086 94.7695C31.9057 94.1332 32.3344 91.9705 33.7662 89.9391C35.1979 87.9076 37.0904 86.7766 37.9933 87.4129Z" fill="#DFDFDF"/>
<path d="M26.8409 6.38082C27.832 5.89313 29.5249 7.30548 30.6222 9.5354C31.7196 11.7653 31.8057 13.9684 30.8146 14.4561C29.8235 14.9438 28.1306 13.5314 27.0332 11.3015C25.9359 9.07158 25.8498 6.86852 26.8409 6.38082ZM31.3271 4.17321C32.3182 3.68551 34.0112 5.09786 35.1085 7.32778C36.2058 9.5577 36.2919 11.7608 35.3008 12.2485C34.3098 12.7361 32.6168 11.3238 31.5195 9.09388C30.4222 6.86396 30.3361 4.6609 31.3271 4.17321ZM35.8134 1.96559C36.8045 1.47789 38.4974 2.89025 39.5947 5.12016C40.692 7.35008 40.7782 9.55314 39.7871 10.0408C38.796 10.5285 37.103 9.11618 36.0057 6.88626C34.9084 4.65634 34.8223 2.45328 35.8134 1.96559Z" fill="#DFDFDF"/>
<path d="M71.7945 18.7983C72.7856 18.3106 74.4785 19.7229 75.5759 21.9529C76.6732 24.1828 76.7593 26.3858 75.7682 26.8735C74.7771 27.3612 73.0842 25.9489 71.9869 23.719C70.8895 21.489 70.8034 19.286 71.7945 18.7983ZM76.2807 16.5907C77.2718 16.103 78.9648 17.5153 80.0621 19.7452C81.1594 21.9752 81.2455 24.1782 80.2545 24.6659C79.2634 25.1536 77.5704 23.7413 76.4731 21.5113C75.3758 19.2814 75.2897 17.0784 76.2807 16.5907ZM80.767 14.3831C81.7581 13.8954 83.451 15.3077 84.5484 17.5376C85.6457 19.7675 85.7318 21.9706 84.7407 22.4583C83.7496 22.946 82.0567 21.5336 80.9594 19.3037C79.862 17.0738 79.7759 14.8707 80.767 14.3831Z" fill="#DFDFDF"/>
<path d="M56.7945 -0.201712C57.7856 -0.689405 59.4785 0.722947 60.5759 2.95287C61.6732 5.18278 61.7593 7.38584 60.7682 7.87354C59.7771 8.36123 58.0842 6.94888 56.9869 4.71896C55.8895 2.48904 55.8034 0.285982 56.7945 -0.201712ZM61.2807 -2.40933C62.2718 -2.89702 63.9648 -1.48467 65.0621 0.745248C66.1594 2.97517 66.2455 5.17822 65.2545 5.66592C64.2634 6.15361 62.5704 4.74126 61.4731 2.51134C60.3758 0.281424 60.2897 -1.92164 61.2807 -2.40933ZM65.767 -4.61695C66.7581 -5.10464 68.451 -3.69229 69.5484 -1.46237C70.6457 0.767548 70.7318 2.97061 69.7407 3.4583C68.7496 3.94599 67.0567 2.53364 65.9594 0.303724C64.862 -1.92619 64.7759 -4.12925 65.767 -4.61695Z" fill="#DFDFDF"/>
<path d="M88.7945 60.7983C89.7856 60.3106 91.4785 61.7229 92.5759 63.9529C93.6732 66.1828 93.7593 68.3858 92.7682 68.8735C91.7771 69.3612 90.0842 67.9489 88.9869 65.719C87.8895 63.489 87.8034 61.286 88.7945 60.7983ZM93.2807 58.5907C94.2718 58.103 95.9648 59.5153 97.0621 61.7452C98.1594 63.9752 98.2455 66.1782 97.2545 66.6659C96.2634 67.1536 94.5704 65.7413 93.4731 63.5113C92.3758 61.2814 92.2897 59.0784 93.2807 58.5907ZM97.767 56.3831C98.7581 55.8954 100.451 57.3077 101.548 59.5376C102.646 61.7675 102.732 63.9706 101.741 64.4583C100.75 64.946 99.0567 63.5336 97.9594 61.3037C96.862 59.0738 96.7759 56.8707 97.767 56.3831Z" fill="#DFDFDF"/>
<path d="M95.0373 31.2033C96.0713 31.5918 96.201 33.7927 95.327 36.1192C94.453 38.4458 92.9063 40.0169 91.8723 39.6285C90.8382 39.24 90.7085 37.0391 91.5825 34.7126C92.4565 32.386 94.0033 30.8149 95.0373 31.2033ZM99.7179 32.9617C100.752 33.3501 100.882 35.5511 100.008 37.8776C99.1336 40.2041 97.5869 41.7753 96.5529 41.3868C95.5189 40.9984 95.3891 38.7974 96.2631 36.4709C97.1371 34.1444 98.6839 32.5732 99.7179 32.9617ZM104.399 34.72C105.433 35.1085 105.562 37.3094 104.688 39.6359C103.814 41.9625 102.268 43.5336 101.233 43.1452C100.199 42.7567 100.07 40.5558 100.944 38.2293C101.818 35.9027 103.365 34.3316 104.399 34.72Z" fill="#DFDFDF"/>
<path d="M86.0373 79.2033C87.0713 79.5918 87.201 81.7927 86.327 84.1192C85.453 86.4458 83.9063 88.0169 82.8723 87.6285C81.8382 87.24 81.7085 85.0391 82.5825 82.7126C83.4565 80.386 85.0033 78.8149 86.0373 79.2033ZM90.7179 80.9617C91.7519 81.3501 91.8816 83.5511 91.0076 85.8776C90.1336 88.2041 88.5869 89.7753 87.5529 89.3868C86.5189 88.9984 86.3891 86.7974 87.2631 84.4709C88.1371 82.1444 89.6839 80.5732 90.7179 80.9617ZM95.3985 82.72C96.4325 83.1085 96.5623 85.3094 95.6883 87.6359C94.8143 89.9625 93.2675 91.5336 92.2335 91.1452C91.1995 90.7567 91.0698 88.5558 91.9438 86.2293C92.8178 83.9027 94.3645 82.3316 95.3985 82.72Z" fill="#DFDFDF"/>
<path d="M55.0373 90.2033C56.0713 90.5918 56.201 92.7927 55.327 95.1192C54.453 97.4458 52.9063 99.0169 51.8723 98.6285C50.8382 98.24 50.7085 96.0391 51.5825 93.7126C52.4565 91.386 54.0033 89.8149 55.0373 90.2033ZM59.7179 91.9617C60.7519 92.3501 60.8816 94.5511 60.0076 96.8776C59.1336 99.2041 57.5869 100.775 56.5529 100.387C55.5189 99.9984 55.3891 97.7974 56.2631 95.4709C57.1371 93.1444 58.6839 91.5732 59.7179 91.9617ZM64.3985 93.72C65.4325 94.1085 65.5623 96.3094 64.6883 98.6359C63.8143 100.962 62.2675 102.534 61.2335 102.145C60.1995 101.757 60.0698 99.5558 60.9438 97.2293C61.8178 94.9027 63.3645 93.3316 64.3985 93.72Z" fill="#DFDFDF"/>
<path d="M46.4948 11.0731C47.553 11.3895 47.8336 13.5764 47.1215 15.9574C46.4094 18.3385 44.9743 20.0122 43.916 19.6957C42.8577 19.3792 42.5771 17.1924 43.2892 14.8113C44.0013 12.4302 45.4365 10.7566 46.4948 11.0731ZM51.2851 12.5057C52.3434 12.8222 52.624 15.009 51.9119 17.3901C51.1998 19.7712 49.7646 21.4448 48.7064 21.1283C47.6481 20.8119 47.3675 18.625 48.0796 16.244C48.7917 13.8629 50.2269 12.1892 51.2851 12.5057ZM56.0755 13.9383C57.1337 14.2548 57.4143 16.4416 56.7022 18.8227C55.9901 21.2038 54.555 22.8775 53.4967 22.561C52.4385 22.2445 52.1579 20.0577 52.87 17.6766C53.5821 15.2955 55.0172 13.6218 56.0755 13.9383Z" fill="#DFDFDF"/>
<mask id="path-18-inside-2_369_498" fill="white">
<path d="M52.5 0C87.0848 0 107.5 24.8482 107.5 55.5C106.5 86.1518 86.5848 91.5 54 98.5C21.4152 91.5 1 86.1518 0 55.5C0 24.8482 17.9152 0 52.5 0ZM54.1953 20.5C27.1709 20.5 13 35.6905 13 61.8301C16.7814 87.9695 28.7338 79.2361 54.1953 92.5C79.6569 79.2361 91.2186 87.9695 95 61.8301C95 35.6905 81.2197 20.5 54.1953 20.5Z"/>
</mask>
<path d="M107.5 55.5L109.499 55.5652L109.5 55.5326V55.5H107.5ZM54 98.5L53.5799 100.455L54 100.546L54.4201 100.455L54 98.5ZM0 55.5H-2V55.5326L-1.99894 55.5652L0 55.5ZM54.1953 20.5V18.5V18.5V20.5ZM13 61.8301H11V61.974L11.0206 62.1164L13 61.8301ZM54.1953 92.5L53.2713 94.2738L54.1953 94.7551L55.1193 94.2738L54.1953 92.5ZM95 61.8301L96.9794 62.1164L97 61.974V61.8301H95ZM52.5 0V2C69.2864 2 82.4928 8.0162 91.511 17.6243C100.546 27.2507 105.5 40.6153 105.5 55.5H107.5H109.5C109.5 39.7329 104.246 25.3475 94.4276 14.8868C84.592 4.4079 70.2984 -2 52.5 -2V0ZM107.5 55.5L105.501 55.4348C105.258 62.8874 103.869 68.6619 101.52 73.2549C99.1804 77.8303 95.832 81.3425 91.4943 84.1991C82.6923 89.9957 69.9734 93.0229 53.5799 96.5446L54 98.5L54.4201 100.455C70.6114 96.9771 84.1425 93.8302 93.6943 87.5397C98.5335 84.3528 102.388 80.3433 105.082 75.0763C107.766 69.827 109.242 63.4385 109.499 55.5652L107.5 55.5ZM54 98.5L54.4201 96.5446C38.0259 93.0228 25.1766 89.995 16.2453 84.1923C11.8424 81.3317 8.43403 77.8162 6.05088 73.2416C3.65941 68.651 2.24186 62.881 1.99894 55.4348L0 55.5L-1.99894 55.5652C-1.74186 63.4449 -0.232508 69.8379 2.50339 75.0896C5.24762 80.3574 9.16711 84.3636 14.0661 87.5465C23.7386 93.8309 37.3893 96.9772 53.5799 100.455L54 98.5ZM0 55.5H2C2 40.548 6.36889 27.1769 14.7848 17.5738C23.169 8.00693 35.7235 2 52.5 2V0V-2C34.6917 -2 20.9962 4.41717 11.7766 14.9374C2.58871 25.4213 -2 39.8002 -2 55.5H0ZM54.1953 20.5V18.5C40.314 18.5 29.4352 22.4084 22.0348 29.9631C14.6413 37.5108 11 48.4121 11 61.8301H13H15C15 49.1085 18.4442 39.3447 24.8922 32.7622C31.3334 26.1868 41.0523 22.5 54.1953 22.5V20.5ZM13 61.8301L11.0206 62.1164C11.9848 68.7815 13.5002 73.4752 15.7892 76.8967C18.1223 80.3839 21.1371 82.3696 24.7046 83.8421C28.1413 85.2606 32.3711 86.2968 36.9641 87.7006C41.6525 89.1336 47.0498 91.0327 53.2713 94.2738L54.1953 92.5L55.1193 90.7262C48.61 87.3353 42.9652 85.3522 38.1333 83.8753C33.2061 82.3693 29.4374 81.4682 26.2307 80.1446C23.1547 78.8751 20.8811 77.314 19.1138 74.6725C17.3026 71.9653 15.9059 67.9484 14.9794 61.5437L13 61.8301ZM54.1953 92.5L55.1193 94.2738C61.3426 91.0318 66.7171 89.1324 71.3696 87.6993C75.9276 86.2954 80.1085 85.2589 83.5005 83.838C87.025 82.3616 89.989 80.3711 92.281 76.8829C94.5272 73.4643 96.0161 68.7754 96.9794 62.1164L95 61.8301L93.0206 61.5437C92.0932 67.9544 90.7188 71.9762 88.9381 74.6863C87.2031 77.3268 84.9762 78.8831 81.955 80.1487C78.8011 81.4698 75.0812 82.3707 70.1922 83.8766C65.3976 85.3533 59.7788 87.3362 53.2713 90.7262L54.1953 92.5ZM95 61.8301H97C97 48.4263 93.4641 37.5257 86.1704 29.9733C78.8653 22.4091 68.0773 18.5 54.1953 18.5V20.5V22.5C67.3377 22.5 76.9521 26.1861 83.2932 32.7521C89.6457 39.3299 93 49.0942 93 61.8301H95Z" fill="#060040" mask="url(#path-18-inside-2_369_498)"/>
</g>
</svg>
