<svg width="108" height="115" viewBox="0 0 108 115" fill="none" xmlns="http://www.w3.org/2000/svg">
<path d="M46.2069 100.207C47.56 98.8542 49.3176 97.8062 50.8418 97.2187C51.6048 96.9246 52.2673 96.7616 52.7587 96.7187C53.0045 96.6973 53.174 96.7091 53.2766 96.7298C53.2912 96.7327 53.3026 96.7382 53.3125 96.7408C53.3331 96.7755 53.3668 96.8372 53.4064 96.937C53.4774 97.1157 53.5483 97.362 53.6067 97.6703C53.7233 98.2863 53.7765 99.0825 53.7164 99.9484C53.5946 101.705 53.0218 103.564 51.7926 104.793C50.3254 106.26 48.0925 108.48 46.1102 110.21C45.1135 111.08 44.2161 111.795 43.5297 112.227C43.4043 112.306 43.2922 112.37 43.1955 112.422C43.1618 112.136 43.1424 111.765 43.1451 111.318C43.1514 110.252 43.2755 108.862 43.5214 107.398C43.7673 105.934 44.1292 104.428 44.5986 103.125C45.0766 101.798 45.6308 100.783 46.2069 100.207Z" fill="white" stroke="#848484" stroke-width="2"/>
<path d="M60.7931 99.2073C59.44 97.8541 57.6824 96.8061 56.1582 96.2186C55.3952 95.9245 54.7327 95.7615 54.2413 95.7187C53.9955 95.6973 53.826 95.709 53.7234 95.7297C53.7088 95.7327 53.6974 95.7382 53.6875 95.7408C53.6669 95.7754 53.6332 95.8372 53.5936 95.9369C53.5226 96.1156 53.4517 96.362 53.3933 96.6702C53.2767 97.2862 53.2235 98.0824 53.2836 98.9483C53.4054 100.705 53.9782 102.564 55.2074 103.793C56.6746 105.26 58.9075 107.48 60.8898 109.21C61.8865 110.08 62.7839 110.795 63.4703 111.227C63.5957 111.306 63.7078 111.37 63.8045 111.422C63.8382 111.136 63.8576 110.765 63.8549 110.318C63.8486 109.252 63.7245 107.862 63.4786 106.398C63.2327 104.934 62.8708 103.428 62.4014 102.125C61.9234 100.798 61.3692 99.7834 60.7931 99.2073Z" fill="white" stroke="#848484" stroke-width="2"/>
<mask id="mask0_369_405" style="mask-type:alpha" maskUnits="userSpaceOnUse" x="0" y="0" width="108" height="99">
<mask id="path-3-inside-1_369_405" fill="white">
<path d="M52.5 0C87.0848 0 107.5 24.8482 107.5 55.5C106.5 86.1518 86.5848 91.5 54 98.5C21.4152 91.5 1 86.1518 0 55.5C0 24.8482 17.9152 0 52.5 0ZM54.1953 20.5C27.1709 20.5 13 35.6905 13 61.8301C16.7814 87.9695 28.7338 79.2361 54.1953 92.5C79.6569 79.2361 91.2186 87.9695 95 61.8301C95 35.6905 81.2197 20.5 54.1953 20.5Z"/>
</mask>
<path d="M52.5 0C87.0848 0 107.5 24.8482 107.5 55.5C106.5 86.1518 86.5848 91.5 54 98.5C21.4152 91.5 1 86.1518 0 55.5C0 24.8482 17.9152 0 52.5 0ZM54.1953 20.5C27.1709 20.5 13 35.6905 13 61.8301C16.7814 87.9695 28.7338 79.2361 54.1953 92.5C79.6569 79.2361 91.2186 87.9695 95 61.8301C95 35.6905 81.2197 20.5 54.1953 20.5Z" fill="white"/>
<path d="M107.5 55.5L109.499 55.5652L109.5 55.5326V55.5H107.5ZM54 98.5L53.5799 100.455L54 100.546L54.4201 100.455L54 98.5ZM0 55.5H-2V55.5326L-1.99894 55.5652L0 55.5ZM54.1953 20.5V18.5V18.5V20.5ZM13 61.8301H11V61.974L11.0206 62.1164L13 61.8301ZM54.1953 92.5L53.2713 94.2738L54.1953 94.7551L55.1193 94.2738L54.1953 92.5ZM95 61.8301L96.9794 62.1164L97 61.974V61.8301H95ZM52.5 0V2C69.2864 2 82.4928 8.0162 91.511 17.6243C100.546 27.2507 105.5 40.6153 105.5 55.5H107.5H109.5C109.5 39.7329 104.246 25.3475 94.4276 14.8868C84.592 4.4079 70.2984 -2 52.5 -2V0ZM107.5 55.5L105.501 55.4348C105.258 62.8874 103.869 68.6619 101.52 73.2549C99.1804 77.8303 95.832 81.3425 91.4943 84.1991C82.6923 89.9957 69.9734 93.0229 53.5799 96.5446L54 98.5L54.4201 100.455C70.6114 96.9771 84.1425 93.8302 93.6943 87.5397C98.5335 84.3528 102.388 80.3433 105.082 75.0763C107.766 69.827 109.242 63.4385 109.499 55.5652L107.5 55.5ZM54 98.5L54.4201 96.5446C38.0259 93.0228 25.1766 89.995 16.2453 84.1923C11.8424 81.3317 8.43403 77.8162 6.05088 73.2416C3.65941 68.651 2.24186 62.881 1.99894 55.4348L0 55.5L-1.99894 55.5652C-1.74186 63.4449 -0.232508 69.8379 2.50339 75.0896C5.24762 80.3574 9.16711 84.3636 14.0661 87.5465C23.7386 93.8309 37.3893 96.9772 53.5799 100.455L54 98.5ZM0 55.5H2C2 40.548 6.36889 27.1769 14.7848 17.5738C23.169 8.00693 35.7235 2 52.5 2V0V-2C34.6917 -2 20.9962 4.41717 11.7766 14.9374C2.58871 25.4213 -2 39.8002 -2 55.5H0ZM54.1953 20.5V18.5C40.314 18.5 29.4352 22.4084 22.0348 29.9631C14.6413 37.5108 11 48.4121 11 61.8301H13H15C15 49.1085 18.4442 39.3447 24.8922 32.7622C31.3334 26.1868 41.0523 22.5 54.1953 22.5V20.5ZM13 61.8301L11.0206 62.1164C11.9848 68.7815 13.5002 73.4752 15.7892 76.8967C18.1223 80.3839 21.1371 82.3696 24.7046 83.8421C28.1413 85.2606 32.3711 86.2968 36.9641 87.7006C41.6525 89.1336 47.0498 91.0327 53.2713 94.2738L54.1953 92.5L55.1193 90.7262C48.61 87.3353 42.9652 85.3522 38.1333 83.8753C33.2061 82.3693 29.4374 81.4682 26.2307 80.1446C23.1547 78.8751 20.8811 77.314 19.1138 74.6725C17.3026 71.9653 15.9059 67.9484 14.9794 61.5437L13 61.8301ZM54.1953 92.5L55.1193 94.2738C61.3426 91.0318 66.7171 89.1324 71.3696 87.6993C75.9276 86.2954 80.1085 85.2589 83.5005 83.838C87.025 82.3616 89.989 80.3711 92.281 76.8829C94.5272 73.4643 96.0161 68.7754 96.9794 62.1164L95 61.8301L93.0206 61.5437C92.0932 67.9544 90.7188 71.9762 88.9381 74.6863C87.2031 77.3268 84.9762 78.8831 81.955 80.1487C78.8011 81.4698 75.0812 82.3707 70.1922 83.8766C65.3976 85.3533 59.7788 87.3362 53.2713 90.7262L54.1953 92.5ZM95 61.8301H97C97 48.4263 93.4641 37.5257 86.1704 29.9733C78.8653 22.4091 68.0773 18.5 54.1953 18.5V20.5V22.5C67.3377 22.5 76.9521 26.1861 83.2932 32.7521C89.6457 39.3299 93 49.0942 93 61.8301H95Z" fill="#848484" mask="url(#path-3-inside-1_369_405)"/>
</mask>
<g mask="url(#mask0_369_405)">
<path d="M52.5 0C87.0848 0 107.5 24.8482 107.5 55.5C106.5 86.1518 86.5848 91.5 54 98.5C21.4152 91.5 1 86.1518 0 55.5C0 24.8482 17.9152 0 52.5 0ZM54.1953 20.5C27.1709 20.5 13 35.6905 13 61.8301C16.7814 87.9695 28.7338 79.2361 54.1953 92.5C79.6569 79.2361 91.2186 87.9695 95 61.8301C95 35.6905 81.2197 20.5 54.1953 20.5Z" fill="white"/>
<path d="M28 11L29.5 0.5L37 8" stroke="#00C914" stroke-width="3" stroke-linecap="round"/>
<path d="M28 9.5C30.7614 9.5 33 11.7386 33 14.5C33 17.2614 30.7614 19.5 28 19.5C25.2386 19.5 23 17.2614 23 14.5C23 11.7386 25.2386 9.5 28 9.5ZM38 5.5C40.7614 5.5 43 7.73858 43 10.5C43 13.2614 40.7614 15.5 38 15.5C35.2386 15.5 33 13.2614 33 10.5C33 7.73858 35.2386 5.5 38 5.5Z" fill="#FF6363"/>
<path d="M68.8309 15.0264L75.8224 7.05024L78.0084 17.4291" stroke="#00C914" stroke-width="3" stroke-linecap="round"/>
<path d="M69.65 13.7699C71.9632 15.2782 72.6156 18.376 71.1074 20.6892C69.5991 23.0023 66.5012 23.6548 64.1881 22.1465C61.875 20.6382 61.2225 17.5404 62.7308 15.2272C64.239 12.9141 67.3369 12.2616 69.65 13.7699ZM80.2114 15.8812C82.5245 17.3894 83.177 20.4873 81.6687 22.8004C80.1605 25.1136 77.0626 25.766 74.7495 24.2578C72.4363 22.7495 71.7839 19.6516 73.2921 17.3385C74.8004 15.0254 77.8983 14.3729 80.2114 15.8812Z" fill="#FF6363"/>
<path d="M99.1203 56.4484L106.911 49.2509L107.995 59.802" stroke="#00C914" stroke-width="3" stroke-linecap="round"/>
<path d="M100.067 55.285C102.209 57.0279 102.532 60.1771 100.789 62.319C99.0465 64.4609 95.8972 64.7844 93.7553 63.0415C91.6134 61.2985 91.29 58.1493 93.0329 56.0074C94.7758 53.8655 97.9251 53.5421 100.067 55.285ZM110.348 58.494C112.49 60.2369 112.813 63.3862 111.071 65.5281C109.328 67.67 106.178 67.9934 104.036 66.2505C101.895 64.5076 101.571 61.3583 103.314 59.2164C105.057 57.0745 108.206 56.7511 110.348 58.494Z" fill="#FF6363"/>
<circle cx="66.3152" cy="88.7239" r="5" transform="rotate(39.1361 66.3152 88.7239)" fill="#FF6363"/>
<path d="M11.2434 38.8001L19.0341 31.6026L20.1177 42.1537" stroke="#00C914" stroke-width="3" stroke-linecap="round"/>
<path d="M12.19 37.6367C14.3319 39.3796 14.6553 42.5288 12.9124 44.6707C11.1695 46.8126 8.02026 47.1361 5.87836 45.3931C3.73647 43.6502 3.41303 40.501 5.15594 38.3591C6.89886 36.2172 10.0481 35.8937 12.19 37.6367ZM22.4712 40.8457C24.6131 42.5886 24.9365 45.7379 23.1936 47.8798C21.4507 50.0217 18.3014 50.3451 16.1595 48.6022C14.0176 46.8593 13.6942 43.71 15.4371 41.5681C17.18 39.4262 20.3293 39.1028 22.4712 40.8457Z" fill="#FF6363"/>
<path d="M9.16555 79.0129L8.34442 68.4381L17.2969 74.1261" stroke="#00C914" stroke-width="3" stroke-linecap="round"/>
<path d="M8.83907 77.5488C11.5343 76.9478 14.2064 78.6456 14.8074 81.3408C15.4084 84.036 13.7107 86.7081 11.0154 87.3091C8.3202 87.9101 5.64808 86.2124 5.0471 83.5172C4.44612 80.8219 6.14384 78.1498 8.83907 77.5488ZM17.7288 71.4683C20.4241 70.8674 23.0962 72.5651 23.6972 75.2603C24.2981 77.9555 22.6004 80.6277 19.9052 81.2286C17.21 81.8296 14.5378 80.1319 13.9369 77.4367C13.3359 74.7414 15.0336 72.0693 17.7288 71.4683Z" fill="#FF6363"/>
<mask id="path-17-inside-2_369_405" fill="white">
<path d="M52.5 0C87.0848 0 107.5 24.8482 107.5 55.5C106.5 86.1518 86.5848 91.5 54 98.5C21.4152 91.5 1 86.1518 0 55.5C0 24.8482 17.9152 0 52.5 0ZM54.1953 20.5C27.1709 20.5 13 35.6905 13 61.8301C16.7814 87.9695 28.7338 79.2361 54.1953 92.5C79.6569 79.2361 91.2186 87.9695 95 61.8301C95 35.6905 81.2197 20.5 54.1953 20.5Z"/>
</mask>
<path d="M107.5 55.5L109.499 55.5652L109.5 55.5326V55.5H107.5ZM54 98.5L53.5799 100.455L54 100.546L54.4201 100.455L54 98.5ZM0 55.5H-2V55.5326L-1.99894 55.5652L0 55.5ZM54.1953 20.5V18.5V18.5V20.5ZM13 61.8301H11V61.974L11.0206 62.1164L13 61.8301ZM54.1953 92.5L53.2713 94.2738L54.1953 94.7551L55.1193 94.2738L54.1953 92.5ZM95 61.8301L96.9794 62.1164L97 61.974V61.8301H95ZM52.5 0V2C69.2864 2 82.4928 8.0162 91.511 17.6243C100.546 27.2507 105.5 40.6153 105.5 55.5H107.5H109.5C109.5 39.7329 104.246 25.3475 94.4276 14.8868C84.592 4.4079 70.2984 -2 52.5 -2V0ZM107.5 55.5L105.501 55.4348C105.258 62.8874 103.869 68.6619 101.52 73.2549C99.1804 77.8303 95.832 81.3425 91.4943 84.1991C82.6923 89.9957 69.9734 93.0229 53.5799 96.5446L54 98.5L54.4201 100.455C70.6114 96.9771 84.1425 93.8302 93.6943 87.5397C98.5335 84.3528 102.388 80.3433 105.082 75.0763C107.766 69.827 109.242 63.4385 109.499 55.5652L107.5 55.5ZM54 98.5L54.4201 96.5446C38.0259 93.0228 25.1766 89.995 16.2453 84.1923C11.8424 81.3317 8.43403 77.8162 6.05088 73.2416C3.65941 68.651 2.24186 62.881 1.99894 55.4348L0 55.5L-1.99894 55.5652C-1.74186 63.4449 -0.232508 69.8379 2.50339 75.0896C5.24762 80.3574 9.16711 84.3636 14.0661 87.5465C23.7386 93.8309 37.3893 96.9772 53.5799 100.455L54 98.5ZM0 55.5H2C2 40.548 6.36889 27.1769 14.7848 17.5738C23.169 8.00693 35.7235 2 52.5 2V0V-2C34.6917 -2 20.9962 4.41717 11.7766 14.9374C2.58871 25.4213 -2 39.8002 -2 55.5H0ZM54.1953 20.5V18.5C40.314 18.5 29.4352 22.4084 22.0348 29.9631C14.6413 37.5108 11 48.4121 11 61.8301H13H15C15 49.1085 18.4442 39.3447 24.8922 32.7622C31.3334 26.1868 41.0523 22.5 54.1953 22.5V20.5ZM13 61.8301L11.0206 62.1164C11.9848 68.7815 13.5002 73.4752 15.7892 76.8967C18.1223 80.3839 21.1371 82.3696 24.7046 83.8421C28.1413 85.2606 32.3711 86.2968 36.9641 87.7006C41.6525 89.1336 47.0498 91.0327 53.2713 94.2738L54.1953 92.5L55.1193 90.7262C48.61 87.3353 42.9652 85.3522 38.1333 83.8753C33.2061 82.3693 29.4374 81.4682 26.2307 80.1446C23.1547 78.8751 20.8811 77.314 19.1138 74.6725C17.3026 71.9653 15.9059 67.9484 14.9794 61.5437L13 61.8301ZM54.1953 92.5L55.1193 94.2738C61.3426 91.0318 66.7171 89.1324 71.3696 87.6993C75.9276 86.2954 80.1085 85.2589 83.5005 83.838C87.025 82.3616 89.989 80.3711 92.281 76.8829C94.5272 73.4643 96.0161 68.7754 96.9794 62.1164L95 61.8301L93.0206 61.5437C92.0932 67.9544 90.7188 71.9762 88.9381 74.6863C87.2031 77.3268 84.9762 78.8831 81.955 80.1487C78.8011 81.4698 75.0812 82.3707 70.1922 83.8766C65.3976 85.3533 59.7788 87.3362 53.2713 90.7262L54.1953 92.5ZM95 61.8301H97C97 48.4263 93.4641 37.5257 86.1704 29.9733C78.8653 22.4091 68.0773 18.5 54.1953 18.5V20.5V22.5C67.3377 22.5 76.9521 26.1861 83.2932 32.7521C89.6457 39.3299 93 49.0942 93 61.8301H95Z" fill="#848484" mask="url(#path-17-inside-2_369_405)"/>
</g>
</svg>
