<svg width="128" height="55" viewBox="0 0 128 55" fill="none" xmlns="http://www.w3.org/2000/svg">
<path d="M64 26.0018C81.5928 26.0018 97.4723 27.6741 108.912 30.3553C114.644 31.6987 119.178 33.2771 122.243 34.9754C123.776 35.8248 124.872 36.6669 125.569 37.4656C126.258 38.2546 126.5 38.9287 126.5 39.5018C126.5 40.0749 126.258 40.7489 125.569 41.5379C124.872 42.3367 123.776 43.1788 122.243 44.0281C119.178 45.7264 114.644 47.3049 108.912 48.6483C97.4723 51.3294 81.5928 53.0018 64 53.0018C46.4072 53.0018 30.5277 51.3294 19.0879 48.6483C13.3561 47.3049 8.82168 45.7264 5.75684 44.0281C4.224 43.1788 3.12805 42.3367 2.43066 41.5379C1.74181 40.7489 1.5 40.0749 1.5 39.5018C1.5 38.9287 1.74181 38.2546 2.43066 37.4656C3.12805 36.6669 4.224 35.8248 5.75684 34.9754C8.82168 33.2771 13.3561 31.6987 19.0879 30.3553C30.5277 27.6741 46.4072 26.0018 64 26.0018Z" fill="#E7CB90" stroke="#8E743F" stroke-width="3"/>
<path d="M30 4.99113L53.14 2.58086C60.028 1.86341 66.972 1.86341 73.86 2.58086L97 4.99113L107 42.5018H20L30 4.99113Z" fill="#E7CB90"/>
<path d="M22 33.5018L43 37.0018L56.2024 37.9678C61.061 38.3233 65.939 38.3233 70.7976 37.9678L84 37.0018L105 33.5018" stroke="#8B4F00" stroke-width="7"/>
<path d="M21 38.5018L29.4746 6.09258C29.7907 4.8837 30.823 3.99733 32.0658 3.86771L46.5 2.36224L64 1.50177L82 2.36224L95.9558 3.86329C97.1878 3.99581 98.2116 4.87215 98.5326 6.06898L107 37.6413" stroke="#8E743F" stroke-width="3"/>
</svg>
