<svg width="128" height="55" viewBox="0 0 128 55" fill="none" xmlns="http://www.w3.org/2000/svg">
<path d="M64 26.5C81.5928 26.5 97.4723 28.1724 108.912 30.8535C114.644 32.1969 119.178 33.7754 122.243 35.4736C123.776 36.323 124.872 37.1651 125.569 37.9639C126.258 38.7529 126.5 39.4269 126.5 40C126.5 40.5731 126.258 41.2471 125.569 42.0361C124.872 42.8349 123.776 43.677 122.243 44.5264C119.178 46.2246 114.644 47.8031 108.912 49.1465C97.4723 51.8276 81.5928 53.5 64 53.5C46.4072 53.5 30.5277 51.8276 19.0879 49.1465C13.3561 47.8031 8.82168 46.2246 5.75684 44.5264C4.224 43.677 3.12805 42.8349 2.43066 42.0361C1.74181 41.2471 1.5 40.5731 1.5 40C1.5 39.4269 1.74181 38.7529 2.43066 37.9639C3.12805 37.1651 4.224 36.323 5.75684 35.4736C8.82168 33.7754 13.3561 32.1969 19.0879 30.8535C30.5277 28.1724 46.4072 26.5 64 26.5Z" fill="#E7CB90" stroke="#8E743F" stroke-width="3"/>
<path d="M30 5.48936L53.14 3.07909C60.028 2.36164 66.972 2.36164 73.86 3.07909L97 5.48936L107 43H20L30 5.48936Z" fill="#E7CB90"/>
<path d="M22 34L43 37.5L56.2024 38.466C61.061 38.8215 65.939 38.8215 70.7976 38.466L84 37.5L105 34" stroke="#8B4F00" stroke-width="7"/>
<path d="M21 39L29.4746 6.59081C29.7907 5.38193 30.823 4.49556 32.0658 4.36594L46.5 2.86047L64 2L82 2.86047L95.9558 4.36152C97.1878 4.49404 98.2116 5.37038 98.5326 6.56721L107 38.1395" stroke="#8E743F" stroke-width="3"/>
</svg>
