<svg width="104" height="92" viewBox="0 0 104 92" fill="none" xmlns="http://www.w3.org/2000/svg">
<circle cx="52" cy="52" r="40" fill="#E94949"/>
<circle cx="52" cy="52" r="31" fill="white" stroke="#D41717" stroke-width="2"/>
<path d="M45 5.5C44.1716 5.5 43.5 6.17157 43.5 7C43.5 7.82843 44.1716 8.5 45 8.5V5.5ZM57 8.5C57.8284 8.5 58.5 7.82843 58.5 7C58.5 6.17157 57.8284 5.5 57 5.5V8.5ZM51 12H52.5V7H51H49.5V12H51ZM51 7V5.5H45V7V8.5H51V7ZM51 7V8.5H57V7V5.5H51V7Z" fill="#721616"/>
<path d="M10.6066 10.6068C16.4645 4.74891 25.9619 4.74891 31.8198 10.6068L10.6066 31.82C4.74874 25.9621 4.74874 16.4646 10.6066 10.6068Z" fill="#E94949"/>
<path d="M93.2133 10.6066C99.0712 16.4645 99.0712 25.9619 93.2133 31.8198L72.0001 10.6066C77.858 4.74874 87.3554 4.74874 93.2133 10.6066Z" fill="#E94949"/>
<path d="M49.5 52C51.1667 52 52.8333 52 54.5 52C54.474 51.7417 54.4479 51.4833 54.4219 51.225C53.9531 46.575 53.4844 41.925 53.0156 37.275C52.9896 37.0167 52.9635 36.7583 52.9375 36.5C52.3125 36.5 51.6875 36.5 51.0625 36.5C51.0365 36.7583 51.0104 37.0167 50.9844 37.275C50.5156 41.925 50.0469 46.575 49.5781 51.225C49.5521 51.4833 49.526 51.7417 49.5 52Z" fill="#0E0000"/>
<path d="M53.2301 49.8236C52.41 51.2745 51.59 52.7255 50.7699 54.1764C51.166 54.3704 51.5622 54.5644 51.9583 54.7584C59.089 58.2503 66.2196 61.7422 73.3503 65.2342C73.7464 65.4282 74.1425 65.6222 74.5387 65.8162C74.8462 65.2721 75.1538 64.7279 75.4613 64.1838C75.0908 63.9445 74.7203 63.7052 74.3497 63.4658C67.6804 59.1578 61.0111 54.8497 54.3417 50.5416C53.9712 50.3023 53.6007 50.0629 53.2301 49.8236Z" fill="#0E0000"/>
<circle cx="52" cy="52.5" r="3" fill="#0E0000"/>
<circle cx="52" cy="52" r="3" fill="#721616"/>
</svg>
