<svg width="141" height="217" viewBox="0 0 141 217" fill="none" xmlns="http://www.w3.org/2000/svg">
<mask id="mask0_109_231" style="mask-type:alpha" maskUnits="userSpaceOnUse" x="81" y="67" width="59" height="109">
<path d="M139 135C137.5 163.5 111 179.5 85.5 174C71.6929 174 99.0002 146.614 99.0002 119C99.0002 91.3857 112.5 79 124 69C135 63 127.485 70.8087 129 89.5C129.832 99.7656 139.568 124.202 139 135Z" fill="#FF9F45"/>
</mask>
<g mask="url(#mask0_109_231)">
<path d="M139 135C137.5 163.5 111 179.5 85.5 174C71.6929 174 99.0002 146.614 99.0002 119C99.0002 91.3857 112.5 79 124 69C135 63 127.485 70.8087 129 89.5C129.832 99.7656 139.568 124.202 139 135Z" fill="#FF8E24"/>
<path d="M134.5 90.5C133.011 106.588 130 97.5 106 117.5C93 126.5 99.5 110.588 99.5 95C99.5 79.4119 112.671 73.7662 124.087 68.1213C135.006 64.7343 134.496 66.4489 136 77C136.826 82.7949 135.064 84.4047 134.5 90.5Z" fill="#F9F2D4"/>
</g>
<path d="M139 135C137.5 163.5 111 179.5 85.5 174C71.6929 174 99.0002 146.614 99.0002 119C99.0002 91.3857 112.5 79 124 69C135 63 127.485 70.3087 129 89C129.832 99.2656 139.568 124.202 139 135Z" stroke="#8C4107" stroke-width="3" stroke-linecap="round" stroke-dasharray="200 20"/>
<ellipse cx="60" cy="203" rx="60" ry="14" fill="black" fill-opacity="0.15"/>
<path d="M99 145.917C99 177.29 80.2329 180 56 180C31.7671 180 13 177.29 13 145.917C13 131.511 22.24 108.536 29.6735 97.6331C37.1069 86.7298 42.895 84 56 84C69.105 84 73.7292 87.1371 82.3265 97.6331C91.9475 109.379 99 131.511 99 145.917Z" fill="#FF8E24"/>
<path d="M24.9999 173.452C24.9999 162.341 33.1737 168.952 40.4999 168.952C47.8262 168.952 50.4999 169.912 50.4999 181.023C50.4999 186.125 51.2472 196.09 48.9999 199.952C46.7526 203.814 44.4619 202.952 40.4999 202.952C36.5379 202.952 35.1399 201.841 32.5407 198.124C29.6321 193.964 24.9999 178.554 24.9999 173.452Z" fill="#FF8E24"/>
<path d="M29 191.507C29 187.19 36.0191 189.758 42.3104 189.758C48.6016 189.758 50.8977 190.131 50.8977 194.448C50.8977 196.431 50.4298 200.5 48.5 202C46.5702 203.5 45.7127 202.968 42.3104 202.968C38.9081 202.968 37.7076 202.536 35.4756 201.092C32.9778 199.476 29 193.489 29 191.507Z" fill="#8C4107"/>
<path d="M86.6192 173.452C86.6192 162.341 78.4454 168.952 71.1192 168.952C63.793 168.952 61.1192 169.912 61.1192 181.023C61.1192 186.125 60.3719 196.09 62.6193 199.952C64.8666 203.814 67.1572 202.952 71.1192 202.952C75.0812 202.952 76.4792 201.841 79.0784 198.124C81.9871 193.964 86.6192 178.554 86.6192 173.452Z" fill="#FF8E24"/>
<path d="M81.9999 191.507C81.9999 187.19 74.9808 189.758 68.6896 189.758C62.3983 189.758 60.1023 190.131 60.1023 194.448C60.1023 196.431 61.0701 201 63 202.5C64.9298 204 65.2873 202.968 68.6896 202.968C72.0919 202.968 73.2924 202.536 75.5244 201.092C78.0221 199.476 81.9999 193.489 81.9999 191.507Z" fill="#8C4107"/>
<path d="M82 154.278C82 175.193 70.8707 177 56.5 177C42.1293 177 31 175.193 31 154.278C31 144.674 37.5343 119.901 40.8878 112.089C45.296 101.82 49.2284 98.5 57 98.5C64.7716 98.5 69 103 72.1122 112.089C75.251 121.255 82 144.674 82 154.278Z" fill="#F9F2D4"/>
<path d="M20.844 126.919C19.3903 117.472 25.3007 122.317 29.8229 121.621C34.3451 120.925 36.1212 121.487 37.5749 130.935C38.2425 135.273 40.0075 143.676 39.1256 147.173C38.2436 150.67 36.7169 150.154 34.2713 150.531C31.8257 150.907 30.8174 150.095 28.7267 147.181C26.387 143.92 21.5116 131.258 20.844 126.919Z" fill="#FF8E24"/>
<path d="M90.6843 126.919C92.138 117.472 86.2276 122.317 81.7054 121.621C77.1832 120.925 75.4071 121.487 73.9534 130.935C73.2859 135.273 71.5208 143.676 72.4028 147.173C73.2847 150.67 74.8114 150.154 77.257 150.531C79.7026 150.907 80.7109 150.095 82.8016 147.181C85.1413 143.92 90.0167 131.258 90.6843 126.919Z" fill="#FF8E24"/>
<path d="M39 141.5C39 144.538 37.366 150.5 33.5 150.5C29.634 150.5 25 144.538 25 141.5C23.5 138 28.134 136 32 136C35.866 136 38.5 135 39 141.5Z" fill="#8C4107"/>
<path d="M73 142.555C73 145.593 74.634 151.555 78.5 151.555C82.366 151.555 87 145.593 87 142.555C88.5 139.055 83.866 137.055 80 137.055C76.134 137.055 73.5 136.055 73 142.555Z" fill="#8C4107"/>
<path d="M29.5 96.5L24.2731 105.792C21.7614 110.257 19.5966 114.909 17.7977 119.706L17.4702 120.579C15.4936 125.85 13.9656 131.279 12.9025 136.807L12 141.5L11.7672 147.784C11.5915 152.53 12.523 157.25 14.4878 161.573C15.8209 164.506 17.6089 167.21 19.7858 169.584L22 172" stroke="#8C4107" stroke-width="3" stroke-linecap="round"/>
<path d="M82 96L87.2269 105.292C89.7386 109.757 91.9034 114.409 93.7023 119.206L93.9081 119.755C95.9654 125.241 97.5365 130.897 98.6034 136.658L99.5 141.5L99.7221 147.276C99.9049 152.026 98.9756 156.754 97.0083 161.082C95.6778 164.009 93.8932 166.707 91.7205 169.078L89.5 171.5" stroke="#8C4107" stroke-width="3" stroke-linecap="round"/>
<path d="M25.5 177.5L29.5 190.5L32 196.5L32.2064 196.964C34.386 201.869 39.829 204.436 45 203" stroke="#8C4107" stroke-width="3" stroke-linecap="round"/>
<path d="M50.5 184V194.495C50.5 195.816 50.2171 197.122 49.6703 198.325L49.3086 199.121C48.4741 200.957 46.913 202.362 45 203" stroke="#8C4107" stroke-width="3" stroke-linecap="round"/>
<path d="M20.4878 128.347L24.992 141.141L27.853 146.921C28.1925 147.607 28.6538 148.225 29.2144 148.746C31.9769 151.314 36.3588 150.906 38.5998 147.872L38.9877 147.347" stroke="#8C4107" stroke-width="3" stroke-linecap="round"/>
<path d="M33.6225 119L38.6535 135.793C39.006 136.97 39.2351 138.18 39.3369 139.405L39.6859 143.598C39.8277 145.302 39.327 146.998 38.2821 148.352" stroke="#8C4107" stroke-width="3" stroke-linecap="round"/>
<path d="M91.7002 128.347L87.196 141.141L84.335 146.921C83.9955 147.607 83.5342 148.225 82.9736 148.746C80.2111 151.314 75.8292 150.906 73.5882 147.872L73.2003 147.347" stroke="#8C4107" stroke-width="3" stroke-linecap="round"/>
<path d="M78.5655 119L73.5345 135.793C73.182 136.97 72.9529 138.18 72.851 139.405L72.5021 143.598C72.3603 145.302 72.861 146.998 73.9059 148.352" stroke="#8C4107" stroke-width="3" stroke-linecap="round"/>
<path d="M86 178L82 191L79.5 197L79.2936 197.464C77.114 202.369 71.671 204.936 66.5 203.5" stroke="#8C4107" stroke-width="3" stroke-linecap="round"/>
<path d="M61 184.5V194.995C61 196.316 61.2829 197.622 61.8297 198.825L62.1914 199.621C63.0259 201.457 64.587 202.862 66.5 203.5" stroke="#8C4107" stroke-width="3" stroke-linecap="round"/>
<path d="M39 177C50.1807 179.631 61.8193 179.631 73 177" stroke="#8C4107" stroke-width="3" stroke-linecap="round"/>
<path d="M105 69.2426C105 95.7131 83.6142 98 56 98C28.3858 98 7 95.7131 7 69.2426C7 57.0873 17.5293 37.7027 26 28.503C34.4707 19.3033 41.0663 17 56 17C70.9337 17 76.2031 19.6469 86 28.503C96.9634 38.4135 105 57.0873 105 69.2426Z" fill="#FF8E24"/>
<path d="M103 83.4142C103 92.2377 83.6142 98 56 98C28.3858 98 9 92.2377 9 83.4142C9 79.3624 17.5293 77.9009 26 74.8343C34.4707 71.7677 42.0663 78 57 78C71.9337 78 76.2031 71.8823 86 74.8343C96.9634 78.1378 103 79.3624 103 83.4142Z" fill="#F9F2D4"/>
<path d="M44.65 66.5C45.0774 69.0646 45.0791 70.5396 44 71.7C42.8132 72.9763 39.3803 73 37.5 73C33.9101 73 30 68.0899 30 64.5C30 60.9101 33.9101 60 37.5 60C41.0899 60 44 62.6 44.65 66.5Z" fill="#8C4107"/>
<ellipse cx="34.5" cy="65" rx="1.5" ry="2" transform="rotate(30 34.5 65)" fill="white"/>
<path d="M67.267 66.5C66.8396 69.0646 66.8379 70.5396 67.917 71.7C69.1038 72.9763 72.5367 73 74.417 73C78.0068 73 81.917 68.0899 81.917 64.5C81.917 60.9101 78.0068 60 74.417 60C70.8271 60 67.917 62.6 67.267 66.5Z" fill="#8C4107"/>
<ellipse cx="70.299" cy="65.482" rx="1.5" ry="2" transform="rotate(30 70.299 65.482)" fill="white"/>
<path d="M38.9942 24.9915C35.668 29.7418 28.5241 34.6678 24 31.5C23.7611 29.5884 23.4194 27.2688 23.2939 24.5386C22.9769 17.637 24.9179 10.6643 27.2437 4.1587C27.879 2.38175 28.6234 1.05752 29.5885 0.918893C29.8273 0.884594 30.0868 0.938582 30.3625 1.06508C37.9193 4.53197 44.0987 15.1494 40.436 22.6132C40.0681 23.3629 39.5881 24.1433 38.9942 24.9915Z" fill="#FF8E24"/>
<path d="M38.5001 12.5C36.4018 15.4967 25.0432 19.33 23.297 18.1073C23.392 17.2099 23.4862 16.1495 23.6799 14.9003C24.3498 10.5791 26.0972 6.44225 28.1953 2.60573C28.6458 1.78216 29.0895 1.16495 29.5 1C33.0706 -0.434637 35.4979 5.8341 37.9325 8.81404C38.8964 9.99383 39.4444 11.1515 38.5001 12.5Z" fill="#8C4107"/>
<path d="M38.5834 19.8809C36.22 23.2562 29.7523 28.8287 26.6612 28.6643C26.5211 27.3332 26.3157 25.7202 26.2625 23.8195C26.126 18.9377 26.6712 13.3417 30.0013 9.76952C30.2673 9.48416 30.5587 9.2957 30.8834 9.24255C31.2687 9.1795 31.7271 9.33708 32.222 9.62903C35.8262 11.7552 36.7577 16.1156 38.5834 19.8809Z" fill="#F9F2D4"/>
<path d="M73.185 24.9915C76.5112 29.7418 83.6551 34.6678 88.1792 31.5C88.4181 29.5884 88.7598 27.2688 88.8853 24.5386C89.2023 17.637 87.2613 10.6643 84.9355 4.1587C84.3002 2.38175 83.5558 1.05752 82.5907 0.918893C82.3519 0.884594 82.0924 0.938582 81.8167 1.06508C74.2599 4.53197 68.0805 15.1494 71.7432 22.6132C72.1111 23.3629 72.5911 24.1433 73.185 24.9915Z" fill="#FF8E24"/>
<path d="M74.7875 12.1137C76.8858 15.1104 88.2444 18.9437 89.9906 17.721C89.8956 16.8236 89.8014 15.7632 89.6077 14.514C88.9378 10.1928 87.1904 6.05596 85.0922 2.21944C84.6418 1.39586 84.1981 0.778663 83.7876 0.613708C80.217 -0.820928 77.7897 5.44781 75.3551 8.42775C74.3912 9.60754 73.8432 10.7652 74.7875 12.1137Z" fill="#8C4107"/>
<path d="M73.7342 19.2809C76.0976 22.6562 82.5653 28.2287 85.6564 28.0643C85.7966 26.7332 86.0019 25.1202 86.0551 23.2195C86.1916 18.3377 85.6464 12.7418 82.3163 9.16954C82.0503 8.88418 81.759 8.69572 81.4342 8.64257C81.049 8.57953 80.5905 8.73711 80.0956 9.02906C76.4914 11.1552 75.5599 15.5156 73.7342 19.2809Z" fill="#F9F2D4"/>
<path d="M57.0286 82.3632C56.3962 82.7547 55.5988 82.7629 54.9585 82.3845L51.2985 80.2219C49.5461 79.1863 50.2805 76.5 52.316 76.5H59.4695C61.4834 76.5 62.2345 79.1405 60.5222 80.2005L57.0286 82.3632Z" fill="#8C4107"/>
<path d="M42 17.5L41.5581 16.3005C39.5481 10.8447 36.2723 5.94369 32 2" stroke="#8C4107" stroke-width="3" stroke-linecap="round"/>
<path d="M70 17.5L70.4419 16.3005C72.4519 10.8447 75.7277 5.94369 80 2" stroke="#8C4107" stroke-width="3" stroke-linecap="round"/>
<path d="M21 35L16.0788 42.2834C11.1127 49.6332 8.15526 58.154 7.5 67" stroke="#8C4107" stroke-width="3" stroke-linecap="round"/>
<path d="M7.49996 67C7.22712 67.2593 6.90918 72.7617 7.5 78C8.19773 84.1862 12.5926 89.1277 18.1017 92.0272L19 92.5" stroke="#8C4107" stroke-width="3" stroke-linecap="round"/>
<path d="M91 35L95.9212 42.2834C100.887 49.6332 103.845 58.154 104.5 67" stroke="#8C4107" stroke-width="3" stroke-linecap="round"/>
<path d="M104.5 67C104.773 67.2593 105.091 72.7617 104.5 78C103.802 84.1862 99.4074 89.1277 93.8983 92.0272L93 92.5" stroke="#8C4107" stroke-width="3" stroke-linecap="round"/>
<path d="M26 95.5C34.2944 97.8224 42.8674 99 51.4808 99H55.5H59.7739C68.5531 99 77.294 97.8439 85.7713 95.5616L86 95.5" stroke="#8C4107" stroke-width="3" stroke-linecap="round"/>
<path d="M23 30C21.6934 22.1602 22.631 14.1106 25.7047 6.78102L27.5 2.5" stroke="#8C4107" stroke-width="3" stroke-linecap="round"/>
<path d="M89 29C90.6261 20.8693 89.6773 12.434 86.2855 4.86774L85 2" stroke="#8C4107" stroke-width="3" stroke-linecap="round"/>
<path d="M42 18L44.8378 17.6847C51.9256 16.8972 59.0773 16.8701 66.1709 17.6039L70 18" stroke="#8C4107" stroke-width="3" stroke-linecap="round"/>
<ellipse cx="27.5" cy="75.5" rx="6.5" ry="3.5" fill="#FC4F4F"/>
<ellipse cx="84.5" cy="75.5" rx="6.5" ry="3.5" fill="#FC4F4F"/>
</svg>
