<svg width="102" height="101" viewBox="0 0 102 101" fill="none" xmlns="http://www.w3.org/2000/svg">
<path d="M100 69.2426C100 95.7131 78.6142 98 51 98C23.3858 98 2 95.7131 2 69.2426C2 57.0873 12.5293 37.7027 21 28.503C29.4707 19.3033 36.0663 17 51 17C65.9337 17 71.2031 19.6469 81 28.503C91.9634 38.4135 100 57.0873 100 69.2426Z" fill="#FF8E24"/>
<path d="M98 83.4142C98 92.2377 78.6142 98 51 98C23.3858 98 4 92.2377 4 83.4142C4 79.3624 12.5293 77.9009 21 74.8343C29.4707 71.7677 37.0663 78 52 78C66.9337 78 71.2031 71.8823 81 74.8343C91.9634 78.1378 98 79.3624 98 83.4142Z" fill="#F9F2D4"/>
<path d="M39.65 66.5C40.0774 69.0646 40.0791 70.5396 39 71.7C37.8132 72.9763 34.3803 73 32.5 73C28.9101 73 25 68.0899 25 64.5C25 60.9101 28.9101 60 32.5 60C36.0899 60 39 62.6 39.65 66.5Z" fill="#8C4107"/>
<ellipse cx="29.5" cy="65" rx="1.5" ry="2" transform="rotate(30 29.5 65)" fill="white"/>
<path d="M62.267 66.5C61.8396 69.0646 61.8379 70.5396 62.917 71.7C64.1038 72.9763 67.5367 73 69.417 73C73.0068 73 76.917 68.0899 76.917 64.5C76.917 60.9101 73.0068 60 69.417 60C65.8271 60 62.917 62.6 62.267 66.5Z" fill="#8C4107"/>
<ellipse cx="65.299" cy="65.482" rx="1.5" ry="2" transform="rotate(30 65.299 65.482)" fill="white"/>
<path d="M33.9942 24.9915C30.668 29.7418 23.5241 34.6678 19 31.5C18.7611 29.5884 18.4194 27.2688 18.2939 24.5386C17.9769 17.637 19.9179 10.6643 22.2437 4.1587C22.879 2.38175 23.6234 1.05752 24.5885 0.918893C24.8273 0.884594 25.0868 0.938582 25.3625 1.06508C32.9193 4.53197 39.0987 15.1494 35.436 22.6132C35.0681 23.3629 34.5881 24.1433 33.9942 24.9915Z" fill="#FF8E24"/>
<path d="M33.5001 12.5C31.4018 15.4967 20.0432 19.33 18.297 18.1073C18.392 17.2099 18.4862 16.1495 18.6799 14.9003C19.3498 10.5791 21.0972 6.44225 23.1953 2.60573C23.6458 1.78216 24.0895 1.16495 24.5 1C28.0706 -0.434637 30.4979 5.8341 32.9325 8.81404C33.8964 9.99383 34.4444 11.1515 33.5001 12.5Z" fill="#8C4107"/>
<path d="M33.5834 19.8809C31.22 23.2562 24.7523 28.8287 21.6612 28.6643C21.5211 27.3332 21.3157 25.7202 21.2625 23.8195C21.126 18.9377 21.6712 13.3417 25.0013 9.76952C25.2673 9.48416 25.5587 9.2957 25.8834 9.24255C26.2687 9.1795 26.7271 9.33708 27.222 9.62903C30.8262 11.7552 31.7577 16.1156 33.5834 19.8809Z" fill="#F9F2D4"/>
<path d="M68.185 24.9915C71.5112 29.7418 78.6551 34.6678 83.1792 31.5C83.4181 29.5884 83.7598 27.2688 83.8853 24.5386C84.2023 17.637 82.2613 10.6643 79.9355 4.1587C79.3002 2.38175 78.5558 1.05752 77.5907 0.918893C77.3519 0.884594 77.0924 0.938582 76.8167 1.06508C69.2599 4.53197 63.0805 15.1494 66.7432 22.6132C67.1111 23.3629 67.5911 24.1433 68.185 24.9915Z" fill="#FF8E24"/>
<path d="M69.7875 12.1137C71.8858 15.1104 83.2444 18.9437 84.9906 17.721C84.8956 16.8236 84.8014 15.7632 84.6077 14.514C83.9378 10.1928 82.1904 6.05596 80.0922 2.21944C79.6418 1.39586 79.1981 0.778663 78.7876 0.613708C75.217 -0.820928 72.7897 5.44781 70.3551 8.42775C69.3912 9.60754 68.8432 10.7652 69.7875 12.1137Z" fill="#8C4107"/>
<path d="M68.7342 19.2809C71.0976 22.6562 77.5653 28.2287 80.6564 28.0643C80.7966 26.7332 81.0019 25.1202 81.0551 23.2195C81.1916 18.3377 80.6464 12.7418 77.3163 9.16954C77.0503 8.88418 76.759 8.69572 76.4342 8.64257C76.049 8.57953 75.5905 8.73711 75.0956 9.02906C71.4914 11.1552 70.5599 15.5156 68.7342 19.2809Z" fill="#F9F2D4"/>
<path d="M52.0286 82.3632C51.3962 82.7547 50.5988 82.7629 49.9585 82.3845L46.2985 80.2219C44.5461 79.1863 45.2805 76.5 47.316 76.5H54.4695C56.4834 76.5 57.2345 79.1405 55.5222 80.2005L52.0286 82.3632Z" fill="#8C4107"/>
<path d="M37 17.5L36.5581 16.3005C34.5481 10.8447 31.2723 5.94369 27 2V2" stroke="#8C4107" stroke-width="3" stroke-linecap="round"/>
<path d="M65 17.5L65.4419 16.3005C67.4519 10.8447 70.7277 5.94369 75 2V2" stroke="#8C4107" stroke-width="3" stroke-linecap="round"/>
<path d="M16 35L11.0788 42.2834C6.11272 49.6332 3.15526 58.154 2.5 67V67" stroke="#8C4107" stroke-width="3" stroke-linecap="round"/>
<path d="M2.49996 67C2.22712 67.2593 1.90918 72.7617 2.5 78V78C3.19773 84.1862 7.59264 89.1277 13.1017 92.0272L14 92.5" stroke="#8C4107" stroke-width="3" stroke-linecap="round"/>
<path d="M86 35L90.9212 42.2834C95.8873 49.6332 98.8447 58.154 99.5 67V67" stroke="#8C4107" stroke-width="3" stroke-linecap="round"/>
<path d="M99.5 67C99.7729 67.2593 100.091 72.7617 99.5 78V78C98.8023 84.1862 94.4074 89.1277 88.8983 92.0272L88 92.5" stroke="#8C4107" stroke-width="3" stroke-linecap="round"/>
<path d="M21 95.5V95.5C29.2944 97.8224 37.8674 99 46.4808 99H50.5H54.7739C63.5531 99 72.294 97.8439 80.7713 95.5616L81 95.5" stroke="#8C4107" stroke-width="3" stroke-linecap="round"/>
<path d="M18 30V30C16.6934 22.1602 17.631 14.1106 20.7047 6.78102L22.5 2.5" stroke="#8C4107" stroke-width="3" stroke-linecap="round"/>
<path d="M84 29V29C85.6261 20.8693 84.6773 12.434 81.2855 4.86774L80 2" stroke="#8C4107" stroke-width="3" stroke-linecap="round"/>
<path d="M37 18L39.8378 17.6847C46.9256 16.8972 54.0773 16.8701 61.1709 17.6039L65 18" stroke="#8C4107" stroke-width="3" stroke-linecap="round"/>
<ellipse cx="22.5" cy="75.5" rx="6.5" ry="3.5" fill="#FC4F4F"/>
<ellipse cx="79.5" cy="75.5" rx="6.5" ry="3.5" fill="#FC4F4F"/>
</svg>
