<svg width="140" height="122" viewBox="0 0 140 122" fill="none" xmlns="http://www.w3.org/2000/svg">
<path d="M43.2861 2.85059L68.7764 12.6543L97.2588 2.83301L101.764 1.2793L98.9609 5.13281L92.6582 13.7979L120.272 14.251L120.668 17.1914L111.062 19.9922L127.323 36.7051L127.501 36.8877L127.608 37.1191L134.108 51.1191L135.319 53.7275L132.487 53.2285L120.173 51.0547L132.309 63.1904L132.549 63.4297L132.662 63.749L138.162 79.249L138.979 81.5547L136.554 81.2383L127.633 80.0742L134.133 95.6738L134.248 95.9512V103.908L132.843 103.997L118.794 104.889L120.973 116.217L121.487 118.893L118.951 117.896L105.023 112.425L94.3936 109.525L71.1904 112.488L71.0059 112.512L70.8213 112.489L46.1973 109.534L22.5518 118.895L19.9463 119.926L20.5332 117.186L22.3613 108.644L10.8584 109.496L9.41895 109.603L9.25781 108.168L7.50977 92.668L7.46191 92.2471L7.6416 91.8623L12.9414 80.5654L11.7471 79.3711L4.52441 80.7256L1.94629 81.209L2.83691 78.7412L9.33691 60.7412L9.45605 60.4131L9.70801 60.1709L19.8379 50.415L7.46582 52.2354L4.04395 52.7383L6.01562 49.8965L26.5283 20.3184L14.9951 14.5518L20.6689 14.2529L46.5732 12.8887L41.4902 5.06836L38.9697 1.19043L43.2861 2.85059Z" fill="#6D4710"/>
<path d="M39.5273 0.777344L45.8232 1.96875C53.8961 3.49605 61.4497 7.03476 67.7891 12.252C67.883 12.2546 67.9781 12.266 68.0732 12.2871L71.7754 13.1094C71.7777 13.1074 71.7799 13.1054 71.7822 13.1035C78.2075 7.69287 85.9193 4.03023 94.1729 2.46875L100.469 1.27734L104.576 0.5L101.9 3.71094L94.4941 12.5977C105.055 11.1032 115.91 11.8378 126.166 14.8105L125.748 16.251L126.124 17.7031L115.024 20.5801L117.38 23.1797C124.429 30.9576 130.228 39.7821 134.571 49.3379L135.613 51.6299L136.785 54.208L133.994 53.7295L122.838 51.8164C128.892 56.9409 133.464 63.6542 135.998 71.2578L139.996 83.252L137.442 82.7197L129.205 81.0029C133.753 87.9713 136.051 96.196 135.747 104.555L134.248 104.5V106H121.448C122.398 108.311 122.775 110.831 122.523 113.343L121.992 118.649L121.809 120.484L120.05 119.931L93.4629 111.561L79.2012 112.987C72.4167 113.666 65.581 113.659 58.7979 112.967L44.7012 111.528L21.5361 120.4L19.5 121.181V116.123C19.5 114.005 19.6919 111.893 20.0732 109.813L9.22852 111.482L7.79688 111.703L7.52637 110.28L6.57422 105.268C4.94691 96.702 6.53629 87.8835 10.958 80.4688L2.55371 82.2197L0 82.752L3.99805 70.7578C6.53259 63.1542 11.1039 56.4409 17.1582 51.3164L6.00195 53.2295L3.21094 53.708L4.38281 51.1299L5.4248 48.8379C9.76836 39.2821 15.5675 30.4576 22.6162 22.6797L24.9717 20.0801L13.8721 17.2031L14.248 15.751L13.8301 14.3105C24.086 11.3378 34.9407 10.6032 45.502 12.0977L38.0957 3.21094L35.4199 0L39.5273 0.777344ZM50.4004 13.291L49.248 14.251L48.958 15.7227C39.5375 13.8651 29.7742 13.8874 20.377 15.79L28.124 17.7988L30.5244 18.4209L28.8594 20.2578L24.8398 24.6943C18.0698 32.1647 12.4867 40.6295 8.28613 49.793L22.9941 47.2725L23.248 48.751L24.0342 50.0283C15.9365 55.0115 9.85054 62.6858 6.84375 71.7061L4.49512 78.75L13.9424 76.7822L14.248 78.251L15.4482 79.1514C9.96819 86.4582 7.81688 95.734 9.52148 104.707L10.2031 108.297L21.7715 106.518L22 108L23.4551 108.364C22.8207 110.902 22.5 113.507 22.5 116.123V116.819L43.9639 108.6L44.2969 108.472L44.6523 108.508L59.1025 109.982C65.6851 110.654 72.3185 110.66 78.9023 110.002L92.9775 108.595C93.2132 108.507 93.4717 108.479 93.7314 108.52L93.8506 108.508C94.2992 108.463 94.7205 108.621 95.0254 108.907L119.191 116.515L119.538 113.044C119.809 110.332 119.172 107.606 117.728 105.295L119 104.5V103H132.772C132.754 94.9497 130.139 87.1053 125.293 80.6445L124.548 79.6514L122.164 76.4717L126.054 77.2822L135.501 79.25L133.152 72.2061C130.146 63.1858 124.06 55.5115 115.962 50.5283L116.748 49.251L117.002 47.7725L131.71 50.293C127.509 41.1295 121.926 32.6647 115.156 25.1943L111.137 20.7578L109.472 18.9209L111.872 18.2988L119.619 16.29C110.222 14.3874 100.459 14.3651 91.0381 16.2227L90.748 14.751L89.5957 13.791L96.9209 5.00098L94.7305 5.41602C87.2257 6.83583 80.1979 10.1066 74.2832 14.9268L73.7139 15.3984L73.5918 15.4912C73.5707 15.5056 73.548 15.5171 73.5264 15.5303C73.2272 16.0214 72.6644 16.3108 72.0742 16.2412L71.9229 16.2148L67.4902 15.2295C67.1207 15.2899 66.7309 15.214 66.4043 14.9912L66.2822 14.8984L65.7129 14.4268C59.7981 9.60662 52.7703 6.33583 45.2656 4.91602L43.0752 4.50098L50.4004 13.291Z" fill="#2C2300"/>
<path d="M118.748 80.4788C118.748 104.662 97.3623 106.751 69.748 106.751C42.1338 106.751 20.748 104.662 20.748 80.4788C20.748 69.3739 31.2774 51.6645 39.748 43.2599C48.2187 34.8552 54.8144 32.751 69.748 32.751C84.6817 32.751 89.9511 35.1691 99.748 43.2599C110.711 52.3139 118.748 69.3739 118.748 80.4788Z" fill="#FFE7C8"/>
<path d="M56.748 75.2964C56.748 78.3089 54.2856 80.751 51.248 80.751C48.2105 80.751 45.748 78.3089 45.748 75.2964C45.748 72.284 48.2105 68.751 51.248 68.751C54.2856 68.751 56.748 72.284 56.748 75.2964Z" fill="#1A1C1F"/>
<path d="M91.748 75.2964C91.748 78.3089 89.2856 80.751 86.248 80.751C83.2105 80.751 80.748 78.3089 80.748 75.2964C80.748 72.284 83.2105 68.751 86.248 68.751C89.2856 68.751 91.748 72.284 91.748 75.2964Z" fill="#1A1C1F"/>
<ellipse cx="49.2481" cy="72.751" rx="1.5" ry="2" transform="rotate(30 49.2481 72.751)" fill="white"/>
<ellipse cx="84.0471" cy="73.233" rx="1.5" ry="2" transform="rotate(30 84.0471 73.233)" fill="white"/>
<path d="M52.7422 38.7425C49.416 43.4928 42.2721 48.4188 37.748 45.251C37.5927 44.0085 37.1457 42.9684 36.6489 41.897C33.7424 35.6293 34.3721 25.8304 40.6439 22.9325C40.8382 22.8428 41.0393 22.781 41.248 22.751C48.6085 21.6937 57.0552 28.0784 54.6958 35.1302C54.3168 36.2631 53.6679 37.4205 52.7422 38.7425Z" fill="#FFE7C8"/>
<path d="M51.7481 33.251C49.3847 36.6263 45.7481 42.686 40.4093 42.0343C40.191 41.5891 39.7556 41.0636 39.3119 40.3666C36.6889 36.2472 38.2143 30.0774 41.8654 26.834C42.1451 26.5855 42.4385 26.4208 42.7481 26.3701C43.1229 26.3087 43.6625 26.2661 44.2899 26.2483C48.6226 26.1251 52.7127 29.0253 51.7481 33.251Z" fill="#F0BB78"/>
<path d="M86.9331 38.7425C90.2593 43.4927 97.4032 48.4188 101.927 45.251C102.069 44.1169 102.48 43.1916 102.96 42.2746C106.169 36.1559 105.35 27.1516 99.7135 23.1566C99.4099 22.9414 99.0891 22.8 98.7481 22.751C90.9525 21.6313 82.189 27.8464 84.973 35.2135C85.4022 36.3494 86.0587 37.4938 86.9331 38.7425Z" fill="#FFE7C8"/>
<path d="M87.2813 33.166C89.6447 36.5412 93.2813 42.601 98.6201 41.9493C98.8385 41.5041 99.2738 40.9785 99.7175 40.2816C102.341 36.1621 100.815 29.9924 97.164 26.7489C96.8843 26.5005 96.5909 26.3357 96.2813 26.2851C95.9065 26.2237 95.367 26.1811 94.7395 26.1632C90.4069 26.04 86.3167 28.9403 87.2813 33.166Z" fill="#F0BB78"/>
<path d="M71.1127 90.9773C70.3443 91.6945 69.1518 91.6945 68.3834 90.9773L65.9574 88.7131C64.6304 87.4745 65.5068 85.251 67.3221 85.251H72.174C73.9892 85.251 74.8657 87.4745 73.5386 88.7131L71.1127 90.9773Z" fill="#2C2300"/>
<path d="M55.748 31.251V31.251C54.9858 24.3911 47.9829 20.0714 41.5105 22.4686L40.748 22.751" stroke="#2C2300" stroke-width="3" stroke-linecap="round"/>
<path d="M83.748 31.251V31.251C84.5103 24.3911 91.5131 20.0714 97.9856 22.4686L98.748 22.751" stroke="#2C2300" stroke-width="3" stroke-linecap="round"/>
<path d="M35.248 48.251L31.4593 52.3312C25.4964 58.7527 21.8954 67.0118 21.248 75.751V75.751" stroke="#2C2300" stroke-width="3" stroke-linecap="round"/>
<path d="M21.248 75.751C20.9752 76.0102 20.6572 81.5126 21.248 86.751V86.751C21.9458 92.9372 26.3407 97.8787 31.8497 100.778L32.748 101.251" stroke="#2C2300" stroke-width="3" stroke-linecap="round"/>
<path d="M104.248 48.251L108.037 52.3312C114 58.7527 117.601 67.0118 118.248 75.751V75.751" stroke="#2C2300" stroke-width="3" stroke-linecap="round"/>
<path d="M118.248 75.751C118.521 76.0102 118.839 81.5126 118.248 86.751V86.751C117.55 92.9372 113.155 97.8787 107.646 100.778L106.748 101.251" stroke="#2C2300" stroke-width="3" stroke-linecap="round"/>
<path d="M39.748 104.251V104.251C48.0424 106.573 56.6154 107.751 65.2288 107.751H69.248H73.522C82.3011 107.751 91.0421 106.595 99.5193 104.313L99.748 104.251" stroke="#2C2300" stroke-width="3" stroke-linecap="round"/>
<path d="M36.748 43.751L35.6841 41.0912C33.8507 36.5076 34.438 31.3099 37.248 27.251V27.251" stroke="#2C2300" stroke-width="3" stroke-linecap="round"/>
<path d="M102.748 42.751L103.864 40.3957C105.958 35.975 105.532 30.7727 102.748 26.751V26.751" stroke="#2C2300" stroke-width="3" stroke-linecap="round"/>
<path d="M55.748 33.251V33.251C65.0342 31.9244 74.4619 31.9244 83.748 33.251V33.251" stroke="#2C2300" stroke-width="3" stroke-linecap="round"/>
<ellipse cx="43.248" cy="86.251" rx="6.5" ry="3.5" fill="#F0BB78"/>
<ellipse cx="96.248" cy="86.251" rx="6.5" ry="3.5" fill="#F0BB78"/>
</svg>
