<svg width="140" height="221" viewBox="0 0 140 221" fill="none" xmlns="http://www.w3.org/2000/svg">
<ellipse cx="69.748" cy="206.751" rx="60" ry="14" fill="black" fill-opacity="0.15"/>
<path d="M43.2861 2.85059L68.7764 12.6543L97.2588 2.83301L101.764 1.2793L98.9609 5.13281L92.6582 13.7979L120.272 14.251L120.668 17.1914L111.062 19.9922L127.323 36.7051L127.501 36.8877L127.608 37.1191L134.108 51.1191L135.319 53.7275L132.487 53.2285L120.173 51.0547L132.309 63.1904L132.549 63.4297L132.662 63.749L138.162 79.249L138.979 81.5547L136.554 81.2383L127.633 80.0742L134.133 95.6738L134.191 95.8145L134.221 95.9639L138.221 116.464L138.582 118.32L136.692 118.25L125.365 117.83L135.669 148.271L136.787 151.575L133.619 150.113L124.374 145.846L131.604 161.108L131.716 161.346L131.741 161.606L133.241 177.106L133.574 180.548L130.833 178.439L125.408 174.266L122.854 176.971C119.483 183.917 111.973 188.751 103.248 188.751C96.9883 188.751 91.354 186.262 87.4248 182.29L85.5986 182.262C81.6682 186.25 76.0226 188.751 69.748 188.751C63.5269 188.751 57.9239 186.292 53.998 182.363C50.0722 186.292 44.4692 188.751 38.248 188.751C31.4605 188.751 25.409 185.824 21.4688 181.254L21.2246 181.251L20.5186 181.239L20.0771 180.688L14.9502 174.28L9.60156 177.984L7.24805 179.614V162.951L7.36328 162.674L13.7793 147.273L6.54199 148.722L4.12988 149.204L4.80566 146.839L13.2598 117.251H3.66699L3.75 115.672L4.75 96.6719L4.7666 96.3506L4.91504 96.0645L12.9131 80.5371L11.7471 79.3711L4.52441 80.7256L1.94629 81.209L2.83691 78.7412L9.33691 60.7412L9.45605 60.4131L9.70801 60.1709L19.8379 50.415L7.46582 52.2354L4.04395 52.7383L6.01562 49.8965L26.5283 20.3184L14.9951 14.5518L20.6689 14.2529L46.5732 12.8887L41.4902 5.06836L38.9697 1.19043L43.2861 2.85059Z" fill="#6D4710"/>
<path d="M39.5273 0.777344L45.8232 1.96875C53.8961 3.49605 61.4497 7.03476 67.7891 12.252C67.883 12.2546 67.9781 12.266 68.0732 12.2871L71.7754 13.1094C71.7777 13.1074 71.7799 13.1054 71.7822 13.1035C78.2075 7.69287 85.9193 4.03023 94.1729 2.46875L100.469 1.27734L104.576 0.5L101.9 3.71094L94.4941 12.5977C105.055 11.1032 115.91 11.8378 126.166 14.8105L125.748 16.251L126.124 17.7031L115.024 20.5801L117.38 23.1797C124.429 30.9576 130.228 39.7821 134.571 49.3379L135.613 51.6299L136.785 54.208L133.994 53.7295L122.838 51.8164C128.892 56.9409 133.464 63.6542 135.998 71.2578L139.996 83.252L137.442 82.7197L129.128 80.9873C133.867 88.3607 136.71 96.8157 137.373 105.596L138.244 117.138L138.365 118.751H128.064L128.347 119.381C131.898 127.303 134.418 135.649 135.846 144.213L136.728 149.504L137.157 152.084L134.714 151.152L128.259 148.692C133.057 157.87 135.01 168.293 133.83 178.62L133.738 179.421L133.42 182.207L131.279 180.396L125.88 175.827L117.732 184.715C112.871 190.018 105.455 192.146 98.5283 190.244L41.7354 189.751L41.582 189.742C41.5596 189.74 41.5377 189.735 41.5156 189.731C34.5752 191.656 27.1363 189.53 22.2637 184.215L14.1162 175.327L8.7168 179.896L6.57617 181.707L6.25781 178.921L6.16602 178.12C4.98579 167.793 6.93875 157.37 11.7373 148.192L5.28223 150.652L2.83887 151.584L3.26855 149.004L4.15039 143.713C5.57775 135.149 8.09797 126.803 11.6494 118.881L11.9316 118.251H1.63086L1.75195 116.638L2.62305 105.096C3.28569 96.3157 6.12899 87.8607 10.8682 80.4873L2.55371 82.2197L0 82.752L3.99805 70.7578C6.53259 63.1542 11.1039 56.4409 17.1582 51.3164L6.00195 53.2295L3.21094 53.708L4.38281 51.1299L5.4248 48.8379C9.76836 39.2821 15.5675 30.4576 22.6162 22.6797L24.9717 20.0801L13.8721 17.2031L14.248 15.751L13.8301 14.3105C24.086 11.3378 34.9407 10.6032 45.502 12.0977L38.0957 3.21094L35.4199 0L39.5273 0.777344ZM50.4004 13.291L49.248 14.251L48.958 15.7227C39.5375 13.8651 29.7742 13.8874 20.377 15.79L28.124 17.7988L30.5244 18.4209L28.8594 20.2578L24.8398 24.6943C18.0698 32.1647 12.4867 40.6295 8.28613 49.793L22.9941 47.2725L23.248 48.751L24.0342 50.0283C15.9365 55.0115 9.85054 62.6858 6.84375 71.7061L4.49512 78.75L13.9424 76.7822L14.248 78.251L15.4482 79.1514C9.74264 86.7589 6.3309 95.8389 5.61523 105.321L4.86621 115.251H16.5645L15.6172 117.364L14.3867 120.107C10.9402 127.796 8.49457 135.895 7.10938 144.206L6.65723 146.918L14.7139 143.85L19.0986 142.179L16.4961 146.083L15.5234 147.54C10.5255 156.08 8.24622 165.922 8.95898 175.761L13.2793 172.105L14.3799 171.175L15.3535 172.237L24.4746 182.188C28.613 186.702 34.9471 188.491 40.8359 186.809C41.0587 186.745 41.2839 186.737 41.498 186.773C41.5835 186.759 41.6711 186.75 41.7607 186.751L99.2607 187.251L99.4141 187.26C99.6916 187.29 99.9457 187.397 100.156 187.558C105.754 188.78 111.615 186.949 115.521 182.688L124.643 172.737L125.616 171.675L126.717 172.605L131.037 176.261C131.75 166.422 129.471 156.58 124.473 148.04L123.5 146.583L120.897 142.679L125.282 144.35L133.339 147.418L132.887 144.706C131.502 136.395 129.056 128.296 125.609 120.607L124.379 117.864L123.432 115.751H135.13L134.381 105.821C133.665 96.3389 130.253 87.2589 124.548 79.6514L125.748 78.751L126.054 77.2822L135.501 79.25L133.152 72.2061C130.146 63.1858 124.06 55.5115 115.962 50.5283L116.748 49.251L117.002 47.7725L131.71 50.293C127.509 41.1295 121.926 32.6647 115.156 25.1943L111.137 20.7578L109.472 18.9209L111.872 18.2988L119.619 16.29C110.222 14.3874 100.459 14.3651 91.0381 16.2227L90.748 14.751L89.5957 13.791L96.9209 5.00098L94.7305 5.41602C87.2257 6.83583 80.1979 10.1066 74.2832 14.9268L73.7139 15.3984L73.5918 15.4912C73.5707 15.5056 73.548 15.5171 73.5264 15.5303C73.2272 16.0214 72.6644 16.3108 72.0742 16.2412L71.9229 16.2148L67.4902 15.2295C67.1207 15.2899 66.7309 15.214 66.4043 14.9912L66.2822 14.8984L65.7129 14.4268C59.7981 9.60662 52.7703 6.33583 45.2656 4.91602L43.0752 4.50098L50.4004 13.291Z" fill="#2C2300"/>
<path d="M112.498 153.573C112.498 181.351 93.7309 183.751 69.498 183.751C45.2651 183.751 26.498 181.351 26.498 153.573C26.498 140.818 35.7381 120.476 43.1715 110.822C50.605 101.168 56.393 98.751 69.498 98.751C82.6031 98.751 87.2273 101.529 95.8246 110.822C105.446 121.222 112.498 140.818 112.498 153.573Z" fill="#FFE7C8"/>
<path d="M38.7481 177.203C38.7481 166.092 46.9219 172.703 54.2481 172.703C61.5743 172.703 64.2481 173.663 64.2481 184.774C64.2481 189.876 64.9954 199.841 62.748 203.703C60.5007 207.564 58.2101 206.703 54.2481 206.703C50.2861 206.703 48.8881 205.592 46.2889 201.874C43.3803 197.715 38.7481 182.305 38.7481 177.203Z" fill="#FFE7C8"/>
<path d="M100.367 177.203C100.367 166.092 92.1935 172.703 84.8673 172.703C77.541 172.703 74.8673 173.663 74.8673 184.774C74.8673 189.876 74.12 199.841 76.3673 203.703C78.6146 207.564 80.9053 206.703 84.8673 206.703C88.8292 206.703 90.2273 205.592 92.8264 201.874C95.7351 197.715 100.367 182.305 100.367 177.203Z" fill="#FFE7C8"/>
<path d="M35.5922 135.67C34.1385 126.223 40.0489 131.068 44.5711 130.372C49.0933 129.676 50.8693 130.238 52.3231 139.686C52.9906 144.024 54.7557 152.427 53.8737 155.924C52.9918 159.42 51.4651 158.905 49.0195 159.282C46.5739 159.658 45.5656 158.846 43.4749 155.932C41.1352 152.671 36.2598 140.009 35.5922 135.67Z" fill="#FFE7C8"/>
<path d="M105.432 135.67C106.886 126.223 100.976 131.068 96.4534 130.372C91.9312 129.676 90.1552 130.238 88.7015 139.686C88.0339 144.024 86.2688 152.427 87.1508 155.924C88.0328 159.42 89.5594 158.905 92.005 159.282C94.4506 159.658 95.4589 158.846 97.5497 155.932C99.8894 152.671 104.765 140.009 105.432 135.67Z" fill="#FFE7C8"/>
<path d="M43.498 109.751L38.3732 117.836C35.7942 121.905 33.5557 126.18 31.6806 130.617C29.5635 135.627 27.9183 140.823 26.7664 146.139L25.998 149.685L25.7788 154.937C25.5948 159.347 26.5556 163.73 28.5679 167.658C29.8459 170.153 31.5258 172.421 33.54 174.371L35.998 176.751" stroke="#2C2300" stroke-width="3" stroke-linecap="round"/>
<path d="M95.498 109.751L100.722 117.869C103.235 121.775 105.418 125.883 107.249 130.151C109.41 135.188 111.07 140.425 112.206 145.786L112.998 149.526L113.204 154.21C113.397 158.586 112.434 162.936 110.413 166.823C109.145 169.261 107.483 171.474 105.494 173.371L102.998 175.751" stroke="#2C2300" stroke-width="3" stroke-linecap="round"/>
<path d="M39.248 181.251L43.248 194.251L45.748 200.251L45.9544 200.715C48.1341 205.62 53.577 208.187 58.748 206.751" stroke="#2C2300" stroke-width="3" stroke-linecap="round"/>
<path d="M64.248 187.751V198.246C64.248 199.567 63.9651 200.873 63.4184 202.076L63.0566 202.872C62.2222 204.708 60.6611 206.113 58.748 206.751" stroke="#2C2300" stroke-width="3" stroke-linecap="round"/>
<path d="M34.236 139.098L38.7401 151.892L41.6011 157.672C41.9407 158.358 42.402 158.976 42.9625 159.497C45.7251 162.065 50.107 161.657 52.3479 158.623L52.7358 158.098" stroke="#2C2300" stroke-width="3" stroke-linecap="round"/>
<path d="M47.3707 129.751L52.4016 146.544C52.7542 147.721 52.9832 148.931 53.0851 150.155L53.434 154.349C53.5759 156.053 53.0752 157.749 52.0303 159.103" stroke="#2C2300" stroke-width="3" stroke-linecap="round"/>
<path d="M105.448 139.098L100.944 151.892L98.0828 157.672C97.7433 158.358 97.282 158.976 96.7214 159.497C93.9589 162.065 89.577 161.657 87.336 158.623L86.9481 158.098" stroke="#2C2300" stroke-width="3" stroke-linecap="round"/>
<path d="M92.3133 129.751L87.2823 146.544C86.9298 147.721 86.7007 148.931 86.5989 150.155L86.2499 154.349C86.1081 156.053 86.6088 157.749 87.6537 159.103" stroke="#2C2300" stroke-width="3" stroke-linecap="round"/>
<path d="M99.748 181.751L95.748 194.751L93.248 200.751L93.0417 201.215C90.862 206.12 85.4191 208.687 80.248 207.251" stroke="#2C2300" stroke-width="3" stroke-linecap="round"/>
<path d="M74.748 188.251V198.746C74.748 200.067 75.031 201.373 75.5777 202.576L75.9395 203.372C76.7739 205.208 78.335 206.613 80.248 207.251" stroke="#2C2300" stroke-width="3" stroke-linecap="round"/>
<path d="M52.748 180.751C63.9287 183.382 75.5674 183.382 86.748 180.751" stroke="#2C2300" stroke-width="3" stroke-linecap="round"/>
<path d="M118.748 80.4788C118.748 104.662 97.3623 106.751 69.748 106.751C42.1338 106.751 20.748 104.662 20.748 80.4788C20.748 69.3739 31.2774 51.6645 39.748 43.2599C48.2187 34.8552 54.8144 32.751 69.748 32.751C84.6817 32.751 89.9511 35.1691 99.748 43.2599C110.711 52.3139 118.748 69.3739 118.748 80.4788Z" fill="#FFE7C8"/>
<path d="M56.748 75.2964C56.748 78.3089 54.2856 80.751 51.248 80.751C48.2105 80.751 45.748 78.3089 45.748 75.2964C45.748 72.284 48.2105 68.751 51.248 68.751C54.2856 68.751 56.748 72.284 56.748 75.2964Z" fill="#1A1C1F"/>
<path d="M91.748 75.2964C91.748 78.3089 89.2856 80.751 86.248 80.751C83.2105 80.751 80.748 78.3089 80.748 75.2964C80.748 72.284 83.2105 68.751 86.248 68.751C89.2856 68.751 91.748 72.284 91.748 75.2964Z" fill="#1A1C1F"/>
<ellipse cx="49.2481" cy="72.751" rx="1.5" ry="2" transform="rotate(30 49.2481 72.751)" fill="white"/>
<ellipse cx="84.0471" cy="73.233" rx="1.5" ry="2" transform="rotate(30 84.0471 73.233)" fill="white"/>
<path d="M52.7422 38.7425C49.416 43.4928 42.2721 48.4188 37.748 45.251C37.5927 44.0085 37.1457 42.9684 36.6489 41.897C33.7424 35.6293 34.3721 25.8304 40.6439 22.9325C40.8382 22.8428 41.0393 22.781 41.248 22.751C48.6085 21.6937 57.0552 28.0784 54.6958 35.1302C54.3168 36.2631 53.6679 37.4205 52.7422 38.7425Z" fill="#FFE7C8"/>
<path d="M51.7481 33.251C49.3847 36.6263 45.7481 42.686 40.4093 42.0343C40.191 41.5891 39.7556 41.0636 39.3119 40.3666C36.6889 36.2472 38.2143 30.0774 41.8654 26.834C42.1451 26.5855 42.4385 26.4208 42.7481 26.3701C43.1229 26.3087 43.6625 26.2661 44.2899 26.2483C48.6226 26.1251 52.7127 29.0253 51.7481 33.251Z" fill="#F0BB78"/>
<path d="M86.9331 38.7425C90.2593 43.4927 97.4032 48.4188 101.927 45.251C102.069 44.1169 102.48 43.1916 102.96 42.2746C106.169 36.1559 105.35 27.1516 99.7135 23.1566C99.4099 22.9414 99.0891 22.8 98.7481 22.751C90.9525 21.6313 82.189 27.8464 84.973 35.2135C85.4022 36.3494 86.0587 37.4938 86.9331 38.7425Z" fill="#FFE7C8"/>
<path d="M87.2813 33.166C89.6447 36.5412 93.2813 42.601 98.6201 41.9493C98.8385 41.5041 99.2738 40.9785 99.7175 40.2816C102.341 36.1621 100.815 29.9924 97.164 26.7489C96.8843 26.5005 96.5909 26.3357 96.2813 26.2851C95.9065 26.2237 95.367 26.1811 94.7395 26.1632C90.4069 26.04 86.3167 28.9403 87.2813 33.166Z" fill="#F0BB78"/>
<path d="M71.1127 90.9773C70.3443 91.6945 69.1518 91.6945 68.3834 90.9773L65.9574 88.7131C64.6304 87.4745 65.5068 85.251 67.3221 85.251H72.174C73.9892 85.251 74.8657 87.4745 73.5386 88.7131L71.1127 90.9773Z" fill="#2C2300"/>
<path d="M55.748 31.251C54.9858 24.3911 47.9829 20.0714 41.5105 22.4686L40.748 22.751" stroke="#2C2300" stroke-width="3" stroke-linecap="round"/>
<path d="M83.748 31.251C84.5103 24.3911 91.5131 20.0714 97.9856 22.4686L98.748 22.751" stroke="#2C2300" stroke-width="3" stroke-linecap="round"/>
<path d="M35.248 48.251L31.4593 52.3312C25.4964 58.7527 21.8954 67.0118 21.248 75.751" stroke="#2C2300" stroke-width="3" stroke-linecap="round"/>
<path d="M21.248 75.751C20.9752 76.0102 20.6572 81.5126 21.248 86.751C21.9458 92.9372 26.3407 97.8787 31.8497 100.778L32.748 101.251" stroke="#2C2300" stroke-width="3" stroke-linecap="round"/>
<path d="M104.248 48.251L108.037 52.3312C114 58.7527 117.601 67.0118 118.248 75.751" stroke="#2C2300" stroke-width="3" stroke-linecap="round"/>
<path d="M118.248 75.751C118.521 76.0102 118.839 81.5126 118.248 86.751C117.55 92.9372 113.155 97.8787 107.646 100.778L106.748 101.251" stroke="#2C2300" stroke-width="3" stroke-linecap="round"/>
<path d="M39.748 104.251C48.0424 106.573 56.6154 107.751 65.2288 107.751H69.248H73.522C82.3011 107.751 91.0421 106.595 99.5193 104.313L99.748 104.251" stroke="#2C2300" stroke-width="3" stroke-linecap="round"/>
<path d="M36.748 43.751L35.6841 41.0912C33.8507 36.5076 34.438 31.3099 37.248 27.251" stroke="#2C2300" stroke-width="3" stroke-linecap="round"/>
<path d="M102.748 42.751L103.864 40.3957C105.958 35.975 105.532 30.7727 102.748 26.751" stroke="#2C2300" stroke-width="3" stroke-linecap="round"/>
<path d="M55.748 33.251C65.0342 31.9244 74.4619 31.9244 83.748 33.251" stroke="#2C2300" stroke-width="3" stroke-linecap="round"/>
<ellipse cx="43.248" cy="86.251" rx="6.5" ry="3.5" fill="#F0BB78"/>
<ellipse cx="96.248" cy="86.251" rx="6.5" ry="3.5" fill="#F0BB78"/>
</svg>
