<svg width="150" height="215" viewBox="0 0 150 215" fill="none" xmlns="http://www.w3.org/2000/svg">
<ellipse cx="60" cy="200.279" rx="60" ry="14" fill="black" fill-opacity="0.15"/>
<mask id="mask0_107_141" style="mask-type:alpha" maskUnits="userSpaceOnUse" x="86" y="71" width="64" height="94">
<path d="M144 119.279C134.469 160.578 108.5 166.779 92.5001 161.779C80.9021 161.779 94 149.804 94 125.779C94 102.095 91.0844 69.2261 126.451 73.0896C127.459 73.1997 128.483 73.5009 129.394 73.9437C151.438 84.6499 149.879 93.8046 144 119.279Z" fill="#F6C183" stroke="#744322" stroke-width="3" stroke-linecap="round" stroke-dasharray="200 30"/>
</mask>
<g mask="url(#mask0_107_141)">
<path d="M144 119.279C134.469 160.578 108.5 166.779 92.5001 161.779C80.9021 161.779 94 149.804 94 125.779C94 102.095 91.0844 69.2261 126.451 73.0896C127.459 73.1997 128.483 73.5009 129.394 73.9437C151.438 84.6499 149.879 93.8046 144 119.279Z" fill="#929AAB"/>
<path d="M94 125.779L117.5 127.779L141 128.779L137.5 138.779L129.5 148.279L96 146.488L94 125.779Z" fill="#393E46"/>
<path d="M96.5 90.2792L120.5 92.2792L147.5 93.7792V103.279L145.5 113.279L93 109.779L96.5 90.2792Z" fill="#393E46"/>
<path d="M144 119.279C134.469 160.578 108.5 166.779 92.5001 161.779C80.9021 161.779 94 149.804 94 125.779C94 102.095 91.0844 69.2261 126.451 73.0896C127.459 73.1997 128.483 73.5009 129.394 73.9437C151.438 84.6499 149.879 93.8046 144 119.279Z" stroke="#393E46" stroke-width="3" stroke-linecap="round" stroke-dasharray="200 30"/>
</g>
<path d="M99 143.196C99 174.569 80.2329 177.279 56 177.279C31.7671 177.279 13 174.569 13 143.196C13 128.79 22.24 105.816 29.6735 94.9123C37.1069 84.009 42.895 81.2792 56 81.2792C69.105 81.2792 73.7292 84.4162 82.3265 94.9123C91.9475 106.658 99 128.79 99 143.196Z" fill="#929AAB"/>
<path d="M24.9999 170.731C24.9999 159.62 33.1737 166.231 40.4999 166.231C47.8262 166.231 50.4999 167.191 50.4999 178.302C50.4999 183.404 51.2472 193.369 48.9999 197.231C46.7526 201.093 44.4619 200.231 40.4999 200.231C36.5379 200.231 35.1399 199.12 32.5407 195.403C29.6321 191.243 24.9999 175.833 24.9999 170.731Z" fill="#929AAB"/>
<path d="M86.6192 170.731C86.6192 159.62 78.4454 166.231 71.1192 166.231C63.793 166.231 61.1192 167.191 61.1192 178.302C61.1192 183.404 60.3719 193.369 62.6193 197.231C64.8666 201.093 67.1572 200.231 71.1192 200.231C75.0812 200.231 76.4792 199.12 79.0784 195.403C81.9871 191.243 86.6192 175.833 86.6192 170.731Z" fill="#929AAB"/>
<path d="M82 151.557C82 172.472 70.8707 174.279 56.5 174.279C42.1293 174.279 31 172.472 31 151.557C31 141.953 36.4795 126.637 40.8878 119.368C45.296 112.099 48.7284 110.279 56.5 110.279C64.2716 110.279 67.0139 112.371 72.1122 119.368C77.8177 127.198 82 141.953 82 151.557Z" fill="#EEEEEE"/>
<path d="M20.844 124.199C19.3903 114.751 25.3007 119.596 29.8229 118.9C34.3451 118.204 36.1212 118.766 37.5749 128.214C38.2425 132.553 40.0075 140.955 39.1256 144.452C38.2436 147.949 36.7169 147.434 34.2713 147.81C31.8257 148.186 30.8174 147.374 28.7267 144.46C26.387 141.199 21.5116 128.537 20.844 124.199Z" fill="#929AAB"/>
<path d="M90.6843 124.199C92.138 114.751 86.2276 119.596 81.7054 118.9C77.1832 118.204 75.4071 118.766 73.9534 128.214C73.2859 132.553 71.5208 140.955 72.4028 144.452C73.2847 147.949 74.8114 147.434 77.257 147.81C79.7026 148.186 80.7109 147.374 82.8016 144.46C85.1413 141.199 90.0167 128.537 90.6843 124.199Z" fill="#929AAB"/>
<path d="M29.5 93.7792L24.2731 103.071C21.7614 107.537 19.5966 112.188 17.7977 116.985L17.4702 117.859C15.4936 123.13 13.9656 128.558 12.9025 134.086L12 138.779L11.7672 145.064C11.5915 149.809 12.523 154.53 14.4878 158.852C15.8209 161.785 17.6089 164.489 19.7858 166.864L22 169.279" stroke="#393E46" stroke-width="3" stroke-linecap="round"/>
<path d="M82 93.2792L87.2269 102.571C89.7386 107.037 91.9034 111.688 93.7023 116.485L93.9081 117.034C95.9654 122.52 97.5365 128.176 98.6034 133.938L99.5 138.779L99.7221 144.555C99.9049 149.305 98.9756 154.033 97.0083 158.361C95.6778 161.288 93.8932 163.987 91.7205 166.357L89.5 168.779" stroke="#393E46" stroke-width="3" stroke-linecap="round"/>
<path d="M25.5 174.779L29.5 187.779L32 193.779L32.2064 194.243C34.386 199.148 39.829 201.716 45 200.279" stroke="#393E46" stroke-width="3" stroke-linecap="round"/>
<path d="M50.5 181.279V191.774C50.5 193.096 50.2171 194.402 49.6703 195.604L49.3086 196.4C48.4741 198.236 46.913 199.642 45 200.279" stroke="#393E46" stroke-width="3" stroke-linecap="round"/>
<path d="M20.4878 125.626L24.992 138.42L27.853 144.2C28.1925 144.886 28.6538 145.504 29.2144 146.025C31.9769 148.593 36.3588 148.185 38.5998 145.151L38.9877 144.626" stroke="#393E46" stroke-width="3" stroke-linecap="round"/>
<path d="M33.6225 116.279L38.6535 133.072C39.006 134.249 39.2351 135.459 39.3369 136.684L39.6859 140.877C39.8277 142.581 39.327 144.277 38.2821 145.632" stroke="#393E46" stroke-width="3" stroke-linecap="round"/>
<path d="M91.7002 125.626L87.196 138.42L84.335 144.2C83.9955 144.886 83.5342 145.504 82.9736 146.025C80.2111 148.593 75.8292 148.185 73.5882 145.151L73.2003 144.626" stroke="#393E46" stroke-width="3" stroke-linecap="round"/>
<path d="M78.5655 116.279L73.5345 133.072C73.182 134.249 72.9529 135.459 72.851 136.684L72.5021 140.877C72.3603 142.581 72.861 144.277 73.9059 145.632" stroke="#393E46" stroke-width="3" stroke-linecap="round"/>
<path d="M86 175.279L82 188.279L79.5 194.279L79.2936 194.743C77.114 199.648 71.671 202.216 66.5 200.779" stroke="#393E46" stroke-width="3" stroke-linecap="round"/>
<path d="M61 181.779V192.274C61 193.596 61.2829 194.902 61.8297 196.104L62.1914 196.9C63.0259 198.736 64.587 200.142 66.5 200.779" stroke="#393E46" stroke-width="3" stroke-linecap="round"/>
<path d="M39 174.279C50.1807 176.91 61.8193 176.91 73 174.279" stroke="#393E46" stroke-width="3" stroke-linecap="round"/>
<path d="M105 66.5218C105 92.9923 83.6142 95.2792 56 95.2792C28.3858 95.2792 7 92.9923 7 66.5218C7 54.3665 17.5293 34.9819 26 25.7822C34.4707 16.5825 41.0663 18.2792 56 18.2792C70.9337 18.2792 76.2031 16.9261 86 25.7822C96.9634 35.6927 105 54.3665 105 66.5218Z" fill="#929AAB"/>
<path d="M53.0001 60.2792C52.5001 68.7793 44.5001 74.2793 35.0001 75.2792C25.8874 75.2792 18 76.7793 18.5001 64.7792C18.5001 56.495 26.9472 46.4372 36.5001 45.2792C53.0001 43.2792 53.0001 49.7793 53.0001 60.2792Z" fill="#393E46"/>
<path d="M58.9999 60.6398C59.4999 69.1399 67.4999 74.6399 76.9999 75.6398C86.1126 75.6398 94 77.1399 93.4999 65.1398C93.4999 56.8556 85.0528 46.7978 75.4999 45.6398C58.9999 43.6398 58.9999 50.1399 58.9999 60.6398Z" fill="#393E46"/>
<circle cx="41" cy="64.2792" r="5" fill="#1A1C1F"/>
<circle cx="71" cy="64.2792" r="5" fill="#1A1C1F"/>
<ellipse cx="39.299" cy="62.7612" rx="1.5" ry="2" transform="rotate(30 39.299 62.7612)" fill="white"/>
<ellipse cx="69.299" cy="62.7612" rx="1.5" ry="2" transform="rotate(30 69.299 62.7612)" fill="white"/>
<path d="M39.9943 22.2707C36.6681 27.021 26.5242 31.947 22.0001 28.7792C21.6926 26.3188 20.8365 23.1826 20.5774 19.3648C20.2199 14.0965 20.3618 5.94885 25.5886 5.19809C25.7865 5.16966 26.0258 5.15429 26.2994 5.15084C34.6129 5.04589 44.5361 12.1202 41.3845 19.8138C41.0675 20.5875 40.609 21.3928 39.9943 22.2707Z" fill="#929AAB"/>
<path d="M37.5835 19.16C35.2201 22.5353 28.7524 30.1078 25.6613 27.9434C25.494 26.3551 24.9122 24.3655 24.6501 21.9645C24.2025 17.8633 23.8122 11.188 27.8835 10.5217C32.8399 9.7105 40.4641 15.046 37.5835 19.16Z" fill="#393E46"/>
<path d="M72.1851 22.2707C75.5113 27.0209 85.6552 31.947 90.1793 28.7792C90.4992 26.22 91.4125 22.9299 91.6302 18.9021C91.8987 13.9347 92.5149 5.90532 87.5908 5.19804C87.1974 5.14154 86.6137 5.13662 85.9033 5.17434C77.6009 5.61524 67.6434 12.1201 70.7949 19.8137C71.1119 20.5875 71.5704 21.3928 72.1851 22.2707Z" fill="#929AAB"/>
<path d="M75.3662 19.5882C77.7157 22.9436 83.4409 28.9726 86.4707 26.8511C86.6516 25.0106 87.3962 22.6257 87.5318 19.6762C87.6811 16.4276 88.3914 11.153 85.1858 10.6051C79.8614 9.69509 72.1629 14.8485 75.1853 19.3253C75.2426 19.4101 75.3029 19.4977 75.3662 19.5882Z" fill="#393E46"/>
<path d="M59.5 77.2792C59.5 78.936 57.5 80.7792 55.5 80.7792C53.567 80.7792 51.5 78.936 51.5 77.2792C51.5 75.6223 53.567 74.2792 55.5 74.2792C57.433 74.2792 59.5 75.6223 59.5 77.2792Z" fill="#393E46"/>
<path d="M43 17.7792L41.8553 14.9694C39.2657 8.61306 32.8378 4.68458 26 5.27917" stroke="#393E46" stroke-width="3" stroke-linecap="round"/>
<path d="M42.5 19.7792L48.6128 19.3264C53.5309 18.9621 58.4691 18.9621 63.3872 19.3264L69.5 19.7792" stroke="#393E46" stroke-width="3" stroke-linecap="round"/>
<path d="M69 17.7792L69.3925 16.8157C72.4373 9.34218 79.9521 4.68304 88 5.27917" stroke="#393E46" stroke-width="3" stroke-linecap="round"/>
<path d="M21 32.2792L16.0788 39.5626C11.1127 46.9124 8.15526 55.4332 7.5 64.2792" stroke="#393E46" stroke-width="3" stroke-linecap="round"/>
<path d="M7.49996 64.2792C7.22712 64.5384 6.90918 70.0408 7.5 75.2792C8.19773 81.4654 12.5926 86.4069 18.1017 89.3064L19 89.7792" stroke="#393E46" stroke-width="3" stroke-linecap="round"/>
<path d="M91 32.2792L95.9212 39.5626C100.887 46.9124 103.845 55.4332 104.5 64.2792" stroke="#393E46" stroke-width="3" stroke-linecap="round"/>
<path d="M104.5 64.2792C104.773 64.5384 105.091 70.0408 104.5 75.2792C103.802 81.4654 99.4074 86.4069 93.8983 89.3064L93 89.7792" stroke="#393E46" stroke-width="3" stroke-linecap="round"/>
<path d="M26 92.7792C34.2944 95.1016 42.8674 96.2792 51.4808 96.2792H55.5H59.7739C68.5531 96.2792 77.294 95.1231 85.7713 92.8408L86 92.7792" stroke="#393E46" stroke-width="3" stroke-linecap="round"/>
<path d="M22 28.2792L21.2574 23.8236C20.4261 18.8355 20.5083 13.7379 21.5 8.77917" stroke="#393E46" stroke-width="3" stroke-linecap="round"/>
<path d="M91 28.2792L92.1917 22.3205C93.054 18.009 92.9887 13.5634 92 9.27917" stroke="#393E46" stroke-width="3" stroke-linecap="round"/>
</svg>
