<svg width="102" height="98" viewBox="0 0 102 98" fill="none" xmlns="http://www.w3.org/2000/svg">
<path d="M100 66.5218C100 92.9923 78.6142 95.2792 51 95.2792C23.3858 95.2792 2 92.9923 2 66.5218C2 54.3665 12.5293 34.9819 21 25.7822C29.4707 16.5825 36.0663 18.2792 51 18.2792C65.9337 18.2792 71.2031 16.9261 81 25.7822C91.9634 35.6927 100 54.3665 100 66.5218Z" fill="#929AAB"/>
<path d="M48.0001 60.2792C47.5001 68.7793 39.5001 74.2793 30.0001 75.2792C20.8874 75.2792 13 76.7793 13.5001 64.7792C13.5001 56.495 21.9472 46.4372 31.5001 45.2792C48.0001 43.2792 48.0001 49.7793 48.0001 60.2792Z" fill="#393E46"/>
<path d="M53.9999 60.6398C54.4999 69.1399 62.4999 74.6399 71.9999 75.6398C81.1126 75.6398 89 77.1399 88.4999 65.1398C88.4999 56.8556 80.0528 46.7978 70.4999 45.6398C53.9999 43.6398 53.9999 50.1399 53.9999 60.6398Z" fill="#393E46"/>
<circle cx="36" cy="64.2792" r="5" fill="#1A1C1F"/>
<circle cx="66" cy="64.2792" r="5" fill="#1A1C1F"/>
<ellipse cx="34.299" cy="62.7612" rx="1.5" ry="2" transform="rotate(30 34.299 62.7612)" fill="white"/>
<ellipse cx="64.299" cy="62.7612" rx="1.5" ry="2" transform="rotate(30 64.299 62.7612)" fill="white"/>
<path d="M34.9943 22.2707C31.6681 27.021 21.5242 31.947 17.0001 28.7792C16.6926 26.3188 15.8365 23.1826 15.5774 19.3648C15.2199 14.0965 15.3618 5.94885 20.5886 5.19809C20.7865 5.16966 21.0258 5.15429 21.2994 5.15084C29.6129 5.04589 39.5361 12.1202 36.3845 19.8138C36.0675 20.5875 35.609 21.3928 34.9943 22.2707Z" fill="#929AAB"/>
<path d="M32.5835 19.16C30.2201 22.5353 23.7524 30.1078 20.6613 27.9434C20.494 26.3551 19.9122 24.3655 19.6501 21.9645C19.2025 17.8633 18.8122 11.188 22.8835 10.5217C27.8399 9.7105 35.4641 15.046 32.5835 19.16Z" fill="#393E46"/>
<path d="M67.1851 22.2707C70.5113 27.0209 80.6552 31.947 85.1793 28.7792C85.4992 26.22 86.4125 22.9299 86.6302 18.9021C86.8987 13.9347 87.5149 5.90532 82.5908 5.19804C82.1974 5.14154 81.6137 5.13662 80.9033 5.17434C72.6009 5.61524 62.6434 12.1201 65.7949 19.8137C66.1119 20.5875 66.5704 21.3928 67.1851 22.2707Z" fill="#929AAB"/>
<path d="M70.3662 19.5882C72.7157 22.9436 78.4409 28.9726 81.4707 26.8511C81.6516 25.0106 82.3962 22.6257 82.5318 19.6762C82.6811 16.4276 83.3914 11.153 80.1858 10.6051C74.8614 9.69509 67.1629 14.8485 70.1853 19.3253C70.2426 19.4101 70.3029 19.4977 70.3662 19.5882Z" fill="#393E46"/>
<path d="M54.5 77.2792C54.5 78.936 52.5 80.7792 50.5 80.7792C48.567 80.7792 46.5 78.936 46.5 77.2792C46.5 75.6223 48.567 74.2792 50.5 74.2792C52.433 74.2792 54.5 75.6223 54.5 77.2792Z" fill="#393E46"/>
<path d="M38 17.7792L36.8553 14.9694C34.2657 8.61306 27.8378 4.68458 21 5.27917V5.27917" stroke="#393E46" stroke-width="3" stroke-linecap="round"/>
<path d="M37.5 19.7792L43.6128 19.3264C48.5309 18.9621 53.4691 18.9621 58.3872 19.3264L64.5 19.7792" stroke="#393E46" stroke-width="3" stroke-linecap="round"/>
<path d="M64 17.7792L64.3925 16.8157C67.4373 9.34218 74.9521 4.68304 83 5.27917V5.27917" stroke="#393E46" stroke-width="3" stroke-linecap="round"/>
<path d="M16 32.2792L11.0788 39.5626C6.11272 46.9124 3.15526 55.4332 2.5 64.2792V64.2792" stroke="#393E46" stroke-width="3" stroke-linecap="round"/>
<path d="M2.49996 64.2792C2.22712 64.5384 1.90918 70.0408 2.5 75.2792V75.2792C3.19773 81.4654 7.59264 86.4069 13.1017 89.3064L14 89.7792" stroke="#393E46" stroke-width="3" stroke-linecap="round"/>
<path d="M86 32.2792L90.9212 39.5626C95.8873 46.9124 98.8447 55.4332 99.5 64.2792V64.2792" stroke="#393E46" stroke-width="3" stroke-linecap="round"/>
<path d="M99.5 64.2792C99.7729 64.5384 100.091 70.0408 99.5 75.2792V75.2792C98.8023 81.4654 94.4074 86.4069 88.8983 89.3064L88 89.7792" stroke="#393E46" stroke-width="3" stroke-linecap="round"/>
<path d="M21 92.7792V92.7792C29.2944 95.1016 37.8674 96.2792 46.4808 96.2792H50.5H54.7739C63.5531 96.2792 72.294 95.1231 80.7713 92.8408L81 92.7792" stroke="#393E46" stroke-width="3" stroke-linecap="round"/>
<path d="M17 28.2792L16.2574 23.8236C15.4261 18.8355 15.5083 13.7379 16.5 8.77917V8.77917" stroke="#393E46" stroke-width="3" stroke-linecap="round"/>
<path d="M86 28.2792L87.1917 22.3205C88.054 18.009 87.9887 13.5634 87 9.27917V9.27917" stroke="#393E46" stroke-width="3" stroke-linecap="round"/>
</svg>
