<svg width="102" height="99" viewBox="0 0 102 99" fill="none" xmlns="http://www.w3.org/2000/svg">
<path d="M100 67.2426C100 93.7131 78.6142 96 51 96C23.3858 96 2 93.7131 2 67.2426C2 55.0873 12.5293 35.7027 21 26.503C29.4707 17.3033 36.0663 15 51 15C65.9337 15 71.2031 17.6469 81 26.503C91.9634 36.4135 100 55.0873 100 67.2426Z" fill="#F6C183"/>
<mask id="mask0_111_202" style="mask-type:alpha" maskUnits="userSpaceOnUse" x="2" y="15" width="98" height="81">
<path d="M100 67.2426C100 93.7131 78.6142 96 51 96C23.3858 96 2 93.7131 2 67.2426C2 55.0873 12.5293 35.7027 21 26.503C29.4707 17.3033 36.0663 15 51 15C65.9337 15 71.2031 17.6469 81 26.503C91.9634 36.4135 100 55.0873 100 67.2426Z" fill="#F6C183"/>
</mask>
<g mask="url(#mask0_111_202)">
<path d="M41 15.5L42 37.5" stroke="#744322" stroke-width="6" stroke-linecap="round"/>
<path d="M61 15L60 37.5" stroke="#744322" stroke-width="6" stroke-linecap="round"/>
<path d="M51 15V37" stroke="#744322" stroke-width="6" stroke-linecap="round"/>
</g>
<path d="M39.65 64.5C40.0774 67.0646 40.0791 68.5396 39 69.7C37.8132 70.9763 34.3803 71 32.5 71C28.9101 71 26 68.0899 26 64.5C26 60.9101 28.9101 58 32.5 58C36.0899 58 39 60.6 39.65 64.5Z" fill="#744322"/>
<ellipse cx="29.5" cy="63" rx="1.5" ry="2" transform="rotate(30 29.5 63)" fill="white"/>
<path d="M62.267 64.5C61.8396 67.0646 61.8379 68.5396 62.917 69.7C64.1038 70.9763 67.5367 71 69.417 71C73.0068 71 75.917 68.0899 75.917 64.5C75.917 60.9101 73.0068 58 69.417 58C65.8271 58 62.917 60.6 62.267 64.5Z" fill="#744322"/>
<ellipse cx="65.299" cy="63.4821" rx="1.5" ry="2" transform="rotate(30 65.299 63.4821)" fill="white"/>
<path d="M33.9942 22.9915C30.668 27.7418 23.5241 32.6678 19 29.5C18.761 27.5883 18.4194 25.2688 18.2939 22.5385C17.9768 15.6369 18.5582 7.58435 23.358 2.61507C23.7269 2.23323 24.1331 1.98427 24.5885 1.91886C31.998 0.854582 38.3601 12.3722 35.9237 19.4503C35.5416 20.5605 34.9005 21.6971 33.9942 22.9915Z" fill="#F6C183"/>
<path d="M33.5834 17.8809C31.22 21.2562 24.7523 28.8287 21.6612 26.6643C21.5211 25.3332 21.3157 23.7202 21.2625 21.8195C21.126 16.9377 21.6712 11.3417 25.0013 7.76952C25.2673 7.48416 25.5587 7.2957 25.8834 7.24255C26.0473 7.21574 26.2243 7.22883 26.4118 7.27518C31.0389 8.4193 36.3173 13.9764 33.5834 17.8809Z" fill="#EF8441"/>
<path d="M68.185 22.9915C71.5112 27.7418 78.6551 32.6678 83.1792 29.5C83.4182 27.5883 83.7598 25.2688 83.8853 22.5385C84.2024 15.6369 83.621 7.58435 78.8212 2.61507C78.4523 2.23323 78.0461 1.98427 77.5907 1.91886C70.1812 0.854582 63.8191 12.3722 66.2555 19.4503C66.6376 20.5605 67.2787 21.6971 68.185 22.9915Z" fill="#F6C183"/>
<path d="M69.3662 19.309C71.7157 22.6644 77.4409 28.6934 80.4707 26.5719C80.6006 25.2495 80.7935 23.646 80.8322 21.754C80.9307 16.9333 80.3101 11.4775 77.0902 7.88843C76.8176 7.58461 76.519 7.38282 76.1858 7.32586C71.2421 6.48094 66.1534 14.5617 68.9592 18.7187C69.0822 18.901 69.2178 19.097 69.3662 19.309Z" fill="#EF8441"/>
<path d="M52.2372 81.026C51.5114 81.5974 50.4886 81.5974 49.7628 81.026L46.01 78.0714C44.5185 76.8971 45.3489 74.5 47.2472 74.5H54.7528C56.6511 74.5 57.4815 76.8971 55.99 78.0714L52.2372 81.026Z" fill="#744322"/>
<path d="M37 15.5L36.6595 12.4358C35.9994 6.49468 30.9777 2 25 2V2" stroke="#744322" stroke-width="3" stroke-linecap="round"/>
<path d="M65 15.5L65.3405 12.4358C66.0006 6.49468 71.0223 2 77 2V2" stroke="#744322" stroke-width="3" stroke-linecap="round"/>
<path d="M16 33L11.0788 40.2834C6.11272 47.6332 3.15526 56.154 2.5 65V65" stroke="#744322" stroke-width="3" stroke-linecap="round"/>
<path d="M2.49996 65C2.22712 65.2593 1.90918 70.7617 2.5 76V76C3.19773 82.1862 7.59264 87.1277 13.1017 90.0272L14 90.5" stroke="#744322" stroke-width="3" stroke-linecap="round"/>
<path d="M86 33L90.9212 40.2834C95.8873 47.6332 98.8447 56.154 99.5 65V65" stroke="#744322" stroke-width="3" stroke-linecap="round"/>
<path d="M99.5 65C99.7729 65.2593 100.091 70.7617 99.5 76V76C98.8023 82.1862 94.4074 87.1277 88.8983 90.0272L88 90.5" stroke="#744322" stroke-width="3" stroke-linecap="round"/>
<path d="M21 93.5V93.5C29.2944 95.8224 37.8674 97 46.4808 97H50.5H54.7739C63.5531 97 72.294 95.8439 80.7713 93.5616L81 93.5" stroke="#744322" stroke-width="3" stroke-linecap="round"/>
<path d="M18 28L17.9487 27.692C16.6842 20.1053 17.9312 12.3132 21.5 5.5V5.5" stroke="#744322" stroke-width="3" stroke-linecap="round"/>
<path d="M84 27L84.3472 25.2641C85.7346 18.3271 84.5445 11.1223 81 5V5" stroke="#744322" stroke-width="3" stroke-linecap="round"/>
<ellipse cx="24.5" cy="75.5" rx="6.5" ry="3.5" fill="#EF8441"/>
<ellipse cx="77.5" cy="75.5" rx="6.5" ry="3.5" fill="#EF8441"/>
</svg>
