<svg width="234" height="172" viewBox="0 0 234 172" fill="none" xmlns="http://www.w3.org/2000/svg">
<g filter="url(#filter0_d_33_238)">
<path d="M100.021 62.8699C122.333 51.971 147.866 61.507 157.182 70.5929C166.497 79.6787 164.551 96.6149 168.923 92.7333C173.296 88.8517 184.935 88.1568 197.061 91.1634C211.611 94.7714 224.719 99.795 229.571 108.427C234.423 117.058 231.512 125.69 225.204 140.681C218.896 155.673 199.007 160.775 199.007 160.775C199.007 160.775 178.62 164.49 173.77 158.853C168.92 153.216 164.059 165.478 135.443 167.357C106.826 169.236 93.221 158.304 89.8258 155.673C86.4307 153.042 80.1145 155.863 63.6237 161.124C47.1328 166.386 30.1431 148.404 27.717 150.221C25.2909 152.039 12.6781 154.104 6.37277 146.587C0.0674546 139.071 1.0375 129.225 6.37277 122.836C10.9865 117.311 27.5447 118.235 31.9388 118.586C30.7898 117.459 28.8808 115.426 25.7818 111.933C15.1113 99.907 37.4289 84.8164 41.309 83.3131C45.1891 81.8097 52.4717 79.6787 58.2919 79.6787C64.1121 79.6787 81.0975 83.3131 81.0975 83.3131C81.0975 83.3131 77.7103 73.7689 100.021 62.8699Z" fill="white"/>
<path d="M229.674 109.043C234.379 117.612 231.465 126.226 225.203 141.109C218.91 156.065 199.098 161.178 199.007 161.201C199.007 161.201 178.619 164.917 173.769 159.279C168.919 153.643 164.058 165.905 135.443 167.784C106.827 169.663 93.2209 158.731 89.8254 156.1C86.4303 153.469 80.1139 156.289 63.6233 161.551C47.1325 166.812 30.1422 148.831 27.7161 150.649C25.289 152.466 12.6773 154.53 6.37231 147.014C4.01139 144.199 2.67118 141.058 2.19751 137.895C3.07936 140.029 4.15209 141.924 5.39673 143.407C11.7021 150.924 25.2909 147.041 27.717 145.224C30.1436 143.407 46.163 160.026 62.6536 154.765C79.1443 149.503 79.1529 145.32 82.5481 147.95C85.944 150.582 100.514 164.82 129.129 162.942C157.746 161.062 165.038 147.31 169.888 152.947C174.738 158.585 205.795 153.856 205.795 153.856C205.857 153.82 219.395 146.098 225.689 131.141C229.357 122.423 230.398 115.232 229.674 109.043Z" fill="#CDF5FD"/>
<path d="M184.635 120.779C175.56 140.777 162.813 137.076 147.366 130.066C131.919 123.056 120.74 115.9 129.815 95.9021C133.983 86.719 146.518 74.7472 154.411 69.9473C162.303 65.1474 166.782 65.0817 175.136 68.8725C183.489 72.6634 185.529 76.0007 187.973 85.1782C190.708 95.4485 188.802 111.596 184.635 120.779Z" fill="#F6C183"/>
<path d="M171.38 121.191C165.33 134.523 157.713 132.456 148.552 128.299C139.392 124.142 132.821 119.77 138.871 106.438C141.649 100.316 149.572 92.1383 154.485 88.7801C159.397 85.4218 162.112 85.2546 167.066 87.5027C172.02 89.7508 173.163 91.8772 174.388 97.8123C175.76 104.454 174.158 115.069 171.38 121.191Z" fill="#F9F2D4"/>
<path d="M154.628 69.1749L148.608 73.5861C145.715 75.7058 142.99 78.0447 140.456 80.5821L139.994 81.0441C137.209 83.8322 134.665 86.8505 132.388 90.0668L130.456 92.7972L128.489 96.7359C127.005 99.7097 126.233 102.988 126.235 106.312V106.312C126.236 108.567 126.594 110.808 127.294 112.951L128.007 115.132" stroke="#744322" stroke-width="2.1" stroke-linecap="round"/>
<path d="M188.238 84.0428L188.882 91.478C189.191 95.0508 189.225 98.6422 188.984 102.22L188.957 102.63C188.681 106.722 188.047 110.782 187.06 114.763L186.231 118.108L184.702 121.854C183.444 124.935 181.484 127.68 178.978 129.87V129.87C177.284 131.351 175.365 132.555 173.295 133.437L171.179 134.339" stroke="#744322" stroke-width="2.1" stroke-linecap="round"/>
<path d="M213.452 71.0308C205.615 87.8215 191.373 82.9411 173.857 74.7663C156.34 66.5914 143.452 58.8097 151.288 42.019C154.887 34.3086 167.304 25.1297 175.401 21.8018C183.497 18.4739 188.363 18.9655 197.836 23.3864C207.309 27.8073 209.867 31.0463 213.46 39.5641C217.48 49.0961 217.05 63.3204 213.452 71.0308Z" fill="#F6C183"/>
<mask id="mask0_33_238" style="mask-type:alpha" maskUnits="userSpaceOnUse" x="148" y="19" width="69" height="64">
<path d="M213.452 71.0308C205.615 87.8215 191.373 82.9411 173.857 74.7663C156.34 66.5914 143.452 58.8097 151.288 42.019C154.887 34.3086 167.304 25.1297 175.401 21.8018C183.497 18.4739 188.363 18.9655 197.836 23.3864C207.309 27.8073 209.867 31.0463 213.46 39.5641C217.48 49.0961 217.05 63.3204 213.452 71.0308Z" fill="#F6C183"/>
</mask>
<g mask="url(#mask0_33_238)">
<path d="M191.345 20.7433L185.466 34.9944" stroke="#744322" stroke-width="4.2" stroke-linecap="round"/>
<path d="M204.179 26.3468L196.884 40.3229" stroke="#744322" stroke-width="4.2" stroke-linecap="round"/>
<path d="M197.836 23.3865L191.323 37.3415" stroke="#744322" stroke-width="4.2" stroke-linecap="round"/>
</g>
<path d="M175.982 51.425C175.494 53.1783 175.059 54.1144 174.031 54.531C172.9 54.9892 170.715 53.988 169.523 53.4314C167.246 52.3687 166.261 49.6612 167.324 47.3841C168.387 45.107 171.094 44.1225 173.371 45.1852C175.648 46.248 176.725 48.7587 175.982 51.425Z" fill="#744322"/>
<ellipse cx="169.988" cy="47.4687" rx="1.05" ry="1.4" transform="rotate(55.0186 169.988 47.4687)" fill="white"/>
<path d="M190.329 58.1206C189.298 59.6209 188.861 60.556 189.202 61.6115C189.577 62.7724 191.747 63.8037 192.94 64.3604C195.217 65.4231 197.925 64.4386 198.987 62.1615C200.05 59.8844 199.066 57.1769 196.788 56.1142C194.511 55.0515 191.896 55.8392 190.329 58.1206Z" fill="#744322"/>
<ellipse cx="192.553" cy="58.3724" rx="1.05" ry="1.4" transform="rotate(55.0186 192.553 58.3724)" fill="white"/>
<path d="M184.683 23.4212C181.167 25.4497 175.177 26.4594 173.245 23.1108C173.659 21.8274 174.129 20.2549 174.858 18.4859C176.7 14.0143 179.453 9.07844 183.968 7.34728C184.315 7.21426 184.647 7.17661 184.955 7.26992C189.97 8.78834 190.596 17.9776 186.955 21.7461C186.384 22.3372 185.641 22.8684 184.683 23.4212Z" fill="#F6C183"/>
<path d="M185.935 20.0578C183.437 21.4991 177.093 24.3878 175.773 22.0998C176.078 21.214 176.425 20.13 176.954 18.9086C178.313 15.7716 180.315 12.3834 183.485 11.1033C183.738 11.001 183.979 10.9677 184.201 11.0302C184.312 11.0617 184.421 11.1224 184.526 11.2073C187.122 13.3028 188.825 18.3904 185.935 20.0578Z" fill="#EF8441"/>
<path d="M206.371 33.5429C207.074 37.5408 210.148 42.7803 213.955 42.1103C214.673 40.9684 215.576 39.5982 216.464 37.9035C218.708 33.6195 220.723 28.3395 219.15 23.7665C219.029 23.4151 218.845 23.1369 218.575 22.9606C214.19 20.092 206.745 25.5145 206.195 30.7254C206.109 31.5428 206.179 32.4535 206.371 33.5429Z" fill="#F6C183"/>
<path d="M208.21 31.5567C208.707 34.3806 210.554 39.8998 213.104 39.4511C213.578 38.6507 214.175 37.6907 214.76 36.502C216.249 33.4733 217.471 29.8288 216.491 26.599C216.408 26.3256 216.278 26.1092 216.084 25.9744C213.198 23.975 207.578 27.5943 208.127 31.0618C208.151 31.2138 208.179 31.3783 208.21 31.5567Z" fill="#EF8441"/>
<path d="M179.074 65.6342C178.445 65.7818 177.796 65.479 177.505 64.9017L175.999 61.9166C175.401 60.7301 176.637 59.4554 177.841 60.0174L182.602 62.2394C183.806 62.8014 183.623 64.5677 182.329 64.871L179.074 65.6342Z" fill="#744322"/>
<path d="M188.807 19.559L189.498 17.5145C190.839 13.5506 188.984 9.21286 185.192 7.44324V7.44324" stroke="#744322" stroke-width="2.1" stroke-linecap="round"/>
<path d="M206.568 27.848L207.691 26.0051C209.869 22.432 214.385 21.0675 218.177 22.8372V22.8372" stroke="#744322" stroke-width="2.1" stroke-linecap="round"/>
<path d="M170.306 24.4427L165.028 27.6058C159.702 30.7978 155.304 35.3272 152.269 40.7444V40.7444" stroke="#744322" stroke-width="2.1" stroke-linecap="round"/>
<path d="M152.269 40.7444C152.02 40.8281 150.189 44.2243 149.013 47.722V47.722C147.624 51.8526 148.949 56.2881 151.585 59.7582L152.015 60.324" stroke="#744322" stroke-width="2.1" stroke-linecap="round"/>
<path d="M214.708 45.1655L215.674 51.2423C216.648 57.3746 216.001 63.655 213.798 69.4602V69.4602" stroke="#744322" stroke-width="2.1" stroke-linecap="round"/>
<path d="M213.798 69.4601C213.895 69.7054 212.467 73.2898 210.542 76.4377V76.4377C208.268 80.1551 204.017 81.9886 199.665 82.1969L198.955 82.2308" stroke="#744322" stroke-width="2.1" stroke-linecap="round"/>
<path d="M155.567 64.2992V64.2992C160.141 68.2278 165.23 71.5127 170.694 74.0626L173.244 75.2525L175.955 76.5177C181.523 79.1167 187.41 80.971 193.463 82.0329L193.626 82.0615" stroke="#744322" stroke-width="2.1" stroke-linecap="round"/>
<path d="M173.055 21.8632L173.113 21.6526C174.557 16.4659 177.655 11.8924 181.936 8.62711V8.62711" stroke="#744322" stroke-width="2.1" stroke-linecap="round"/>
<path d="M215.216 40.7674L215.95 39.7691C218.884 35.7795 220.262 30.8571 219.826 25.9243V25.9243" stroke="#744322" stroke-width="2.1" stroke-linecap="round"/>
<ellipse cx="163.116" cy="53.9177" rx="4.55" ry="2.45" transform="rotate(25.0186 163.116 53.9177)" fill="#EF8441"/>
<ellipse cx="196.735" cy="69.6077" rx="4.55" ry="2.45" transform="rotate(25.0186 196.735 69.6077)" fill="#EF8441"/>
<ellipse cx="126" cy="110" rx="29" ry="26" fill="white"/>
<ellipse cx="175.5" cy="121" rx="37.5" ry="26" fill="white"/>
<path d="M105 92.5V92.5C118.114 80.1731 139.145 82.5092 149.234 97.4133L152 101.5L155.963 99.8209C171.892 93.0713 190.154 94.8317 204.5 104.5V104.5" stroke="#CDF5FD" stroke-width="3" stroke-linecap="round"/>
<path d="M142.411 85.2527C144.571 86.3699 146.156 88.0097 146.998 89.7142C147.839 91.4193 147.911 93.1192 147.204 94.487C146.496 95.8549 145.067 96.7782 143.189 97.0767C141.312 97.3752 139.058 97.0286 136.898 95.9113C134.737 94.7941 133.152 93.1544 132.311 91.4498C131.469 89.7447 131.397 88.0448 132.104 86.677C132.812 85.3091 134.241 84.3858 136.119 84.0873C137.996 83.7888 140.25 84.1354 142.411 85.2527Z" fill="#F6C183" stroke="#744322" stroke-width="2"/>
<path d="M182.275 91.5777C184.703 91.726 186.816 92.5845 188.275 93.8033C189.734 95.0225 190.487 96.5479 190.393 98.085C190.3 99.6222 189.366 101.045 187.769 102.077C186.173 103.109 183.971 103.704 181.543 103.555C179.116 103.407 177.003 102.549 175.544 101.33C174.085 100.111 173.331 98.5851 173.425 97.048C173.519 95.5109 174.453 94.0885 176.049 93.0561C177.646 92.024 179.848 91.4293 182.275 91.5777Z" fill="#F6C183" stroke="#744322" stroke-width="2"/>
</g>
<defs>
<filter id="filter0_d_33_238" x="0" y="6.39294" width="234" height="165.607" filterUnits="userSpaceOnUse" color-interpolation-filters="sRGB">
<feFlood flood-opacity="0" result="BackgroundImageFix"/>
<feColorMatrix in="SourceAlpha" type="matrix" values="0 0 0 0 0 0 0 0 0 0 0 0 0 0 0 0 0 0 127 0" result="hardAlpha"/>
<feOffset dy="2"/>
<feGaussianBlur stdDeviation="1"/>
<feComposite in2="hardAlpha" operator="out"/>
<feColorMatrix type="matrix" values="0 0 0 0 0 0 0 0 0 0 0 0 0 0 0 0 0 0 0.2 0"/>
<feBlend mode="normal" in2="BackgroundImageFix" result="effect1_dropShadow_33_238"/>
<feBlend mode="normal" in="SourceGraphic" in2="effect1_dropShadow_33_238" result="shape"/>
</filter>
</defs>
</svg>
