<svg width="157" height="215" viewBox="0 0 157 215" fill="none" xmlns="http://www.w3.org/2000/svg">
<ellipse cx="60" cy="200.5" rx="60" ry="14" fill="black" fill-opacity="0.15"/>
<path d="M153 101.522C126.5 159.522 109.5 85.5 113 141.5C93.1177 141.5 81 125.823 81 101.522C81 77.2219 101.618 47 121.5 47C141.382 47 161 64.0225 153 101.522Z" fill="#F6C183"/>
<path d="M113 150.5C113 159.059 104.889 169.5 95.5 169.5C86.1112 169.5 86 162.441 86 152.5C86 142.559 93.6112 134.5 103 134.5C112.389 134.5 113 122.5 113 150.5Z" fill="#F6C183"/>
<path d="M125 50L112.5 55C106.673 58.5607 102.229 63.9951 99.8955 70.4125L89.5 99M97 112.5L103.5 88.5C108.745 74.0751 120 58 139 55" stroke="#EF8441" stroke-width="6" stroke-linecap="round"/>
<path d="M114.5 119L119.5 120L122.829 122.561C124.885 124.142 127.407 125 130.001 125C131.969 125 133.905 124.506 135.633 123.564L138.04 122.251C141.927 120.131 145.102 116.911 147.169 112.996L150.008 107.616C152.319 103.239 153.85 98.4931 154.534 93.5914L155 90.25C155.978 83.2378 154.877 76.0926 151.833 69.7002L151.5 69L149.404 64.5985C147.492 60.5838 144.706 57.0478 141.25 54.25C137.802 51.4584 133.727 49.5454 129.377 48.6753L125.87 47.9741C124.294 47.6588 122.69 47.5 121.083 47.5C116.144 47.5 111.321 48.9978 107.252 51.7958L105.5 53" stroke="#744322" stroke-width="3" stroke-linecap="round"/>
<path d="M92.5 170.5L96.8365 169.712C101.147 168.928 105.056 166.684 107.908 163.358C110.871 159.9 112.5 155.497 112.5 150.943V125" stroke="#744322" stroke-width="3" stroke-linecap="round"/>
<path d="M102 143.417C102 174.79 83.2329 177.5 59 177.5C34.7671 177.5 16 174.79 16 143.417C16 129.011 25.24 106.036 32.6735 95.1331C40.1069 84.2298 45.895 81.5 59 81.5C72.105 81.5 76.7292 84.6371 85.3265 95.1331C94.9475 106.879 102 129.011 102 143.417Z" fill="#F6C183"/>
<path d="M28 170.952C28 159.841 36.1738 166.452 43.5001 166.452C50.8263 166.452 53.5 167.412 53.5 178.523C53.5 183.625 54.2473 193.59 52 197.452C49.7527 201.314 47.462 200.452 43.5001 200.452C39.5381 200.452 38.14 199.341 35.5409 195.624C32.6322 191.464 28 176.054 28 170.952Z" fill="#F6C183"/>
<path d="M89.6192 170.952C89.6192 159.841 81.4454 166.452 74.1192 166.452C66.793 166.452 64.1192 167.412 64.1192 178.523C64.1192 183.625 63.3719 193.59 65.6193 197.452C67.8666 201.314 70.1572 200.452 74.1192 200.452C78.0812 200.452 79.4792 199.341 82.0784 195.624C84.9871 191.464 89.6192 176.054 89.6192 170.952Z" fill="#F6C183"/>
<path d="M85 151.778C85 172.693 73.8707 174.5 59.5 174.5C45.1293 174.5 34 172.693 34 151.778C34 142.174 39.4795 126.858 43.8878 119.589C48.296 112.32 51.7284 110.5 59.5 110.5C67.2716 110.5 70.0139 112.591 75.1122 119.589C80.8177 127.419 85 142.174 85 151.778Z" fill="#F9F2D4"/>
<path d="M23.8442 124.419C22.3904 114.972 28.3008 119.817 32.823 119.121C37.3453 118.425 39.1213 118.987 40.575 128.435C41.2426 132.773 43.0076 141.176 42.1257 144.673C41.2437 148.17 39.7171 147.654 37.2715 148.031C34.8259 148.407 33.8176 147.595 31.7268 144.681C29.3871 141.42 24.5117 128.758 23.8442 124.419Z" fill="#F6C183"/>
<path d="M93.6843 124.419C95.138 114.972 89.2276 119.817 84.7054 119.121C80.1832 118.425 78.4071 118.987 76.9534 128.435C76.2859 132.773 74.5208 141.176 75.4028 144.673C76.2847 148.17 77.8114 147.654 80.257 148.031C82.7026 148.407 83.7109 147.595 85.8016 144.681C88.1413 141.42 93.0167 128.758 93.6843 124.419Z" fill="#F6C183"/>
<path d="M32.5 94L27.2731 103.292C24.7614 107.757 22.5966 112.409 20.7977 117.206L20.4702 118.079C18.4936 123.35 16.9656 128.779 15.9025 134.307L15 139L14.7672 145.284C14.5915 150.03 15.523 154.75 17.4878 159.073C18.8209 162.006 20.6089 164.71 22.7858 167.084L25 169.5" stroke="#744322" stroke-width="3" stroke-linecap="round"/>
<path d="M85 93.5L90.2269 102.792C92.7386 107.257 94.9034 111.909 96.7023 116.706L96.9081 117.255C98.9654 122.741 100.537 128.397 101.603 134.158L102.5 139L102.722 144.776C102.905 149.526 101.976 154.254 100.008 158.582C98.6778 161.509 96.8932 164.207 94.7205 166.578L92.5 169" stroke="#744322" stroke-width="3" stroke-linecap="round"/>
<path d="M28.5 175L32.5 188L35 194L35.2064 194.464C37.386 199.369 42.829 201.936 48 200.5" stroke="#744322" stroke-width="3" stroke-linecap="round"/>
<path d="M53.5 181.5V191.995C53.5 193.316 53.2171 194.622 52.6703 195.825L52.3086 196.621C51.4741 198.457 49.913 199.862 48 200.5" stroke="#744322" stroke-width="3" stroke-linecap="round"/>
<path d="M23.4879 125.847L27.9921 138.641L30.8531 144.421C31.1926 145.107 31.6539 145.725 32.2145 146.246C34.977 148.814 39.3589 148.406 41.5999 145.372L41.9878 144.847" stroke="#744322" stroke-width="3" stroke-linecap="round"/>
<path d="M36.6227 116.5L41.6536 133.293C42.0061 134.47 42.2352 135.68 42.3371 136.904L42.686 141.098C42.8278 142.802 42.3271 144.498 41.2822 145.852" stroke="#744322" stroke-width="3" stroke-linecap="round"/>
<path d="M94.7 125.847L90.1958 138.641L87.3348 144.421C86.9953 145.107 86.534 145.725 85.9734 146.246C83.2108 148.814 78.829 148.406 76.588 145.372L76.2001 144.847" stroke="#744322" stroke-width="3" stroke-linecap="round"/>
<path d="M81.5652 116.5L76.5343 133.293C76.1817 134.47 75.9527 135.68 75.8508 136.904L75.5019 141.098C75.36 142.802 75.8608 144.498 76.9056 145.852" stroke="#744322" stroke-width="3" stroke-linecap="round"/>
<path d="M89 175.5L85 188.5L82.5 194.5L82.2936 194.964C80.114 199.869 74.671 202.436 69.5 201" stroke="#744322" stroke-width="3" stroke-linecap="round"/>
<path d="M64 182V192.495C64 193.816 64.2829 195.122 64.8297 196.325L65.1914 197.121C66.0259 198.957 67.587 200.362 69.5 201" stroke="#744322" stroke-width="3" stroke-linecap="round"/>
<path d="M42 174.5C53.1807 177.131 64.8193 177.131 76 174.5" stroke="#744322" stroke-width="3" stroke-linecap="round"/>
<path d="M108 66.7426C108 93.2131 86.6142 95.5 59 95.5C31.3858 95.5 10 93.2131 10 66.7426C10 54.5873 20.5293 35.2027 29 26.003C37.4707 16.8033 44.0663 14.5 59 14.5C73.9337 14.5 79.2031 17.1469 89 26.003C99.9634 35.9135 108 54.5873 108 66.7426Z" fill="#F6C183"/>
<mask id="mask0_30_403" style="mask-type:alpha" maskUnits="userSpaceOnUse" x="10" y="14" width="98" height="82">
<path d="M108 66.7426C108 93.2131 86.6142 95.5 59 95.5C31.3858 95.5 10 93.2131 10 66.7426C10 54.5873 20.5293 35.2027 29 26.003C37.4707 16.8033 44.0663 14.5 59 14.5C73.9337 14.5 79.2031 17.1469 89 26.003C99.9634 35.9135 108 54.5873 108 66.7426Z" fill="#F6C183"/>
</mask>
<g mask="url(#mask0_30_403)">
<path d="M49 15L50 37" stroke="#744322" stroke-width="6" stroke-linecap="round"/>
<path d="M69 14.5L68 37" stroke="#744322" stroke-width="6" stroke-linecap="round"/>
<path d="M59 14.5V36.5" stroke="#744322" stroke-width="6" stroke-linecap="round"/>
</g>
<path d="M47.65 64C48.0774 66.5646 48.0791 68.0396 47 69.2C45.8132 70.4763 42.3803 70.5 40.5 70.5C36.9101 70.5 34 67.5899 34 64C34 60.4101 36.9101 57.5 40.5 57.5C44.0899 57.5 47 60.1 47.65 64Z" fill="#744322"/>
<ellipse cx="37.5" cy="62.5" rx="1.5" ry="2" transform="rotate(30 37.5 62.5)" fill="white"/>
<path d="M70.267 64C69.8396 66.5646 69.8379 68.0396 70.917 69.2C72.1038 70.4763 75.5367 70.5 77.417 70.5C81.0068 70.5 83.917 67.5899 83.917 64C83.917 60.4101 81.0068 57.5 77.417 57.5C73.8271 57.5 70.917 60.1 70.267 64Z" fill="#744322"/>
<ellipse cx="73.299" cy="62.9821" rx="1.5" ry="2" transform="rotate(30 73.299 62.9821)" fill="white"/>
<path d="M41.9942 22.4915C38.668 27.2418 31.5241 32.1678 27 29C26.761 27.0883 26.4194 24.7688 26.2939 22.0385C25.9768 15.1369 26.5582 7.08435 31.358 2.11507C31.7269 1.73323 32.1331 1.48427 32.5885 1.41886C39.998 0.354582 46.3601 11.8722 43.9237 18.9503C43.5416 20.0605 42.9005 21.1971 41.9942 22.4915Z" fill="#F6C183"/>
<path d="M41.5834 17.3809C39.22 20.7562 32.7523 28.3287 29.6612 26.1643C29.5211 24.8332 29.3157 23.2202 29.2625 21.3195C29.126 16.4377 29.6712 10.8417 33.0013 7.26952C33.2673 6.98416 33.5587 6.7957 33.8834 6.74255C34.0473 6.71574 34.2243 6.72883 34.4118 6.77518C39.0389 7.9193 44.3173 13.4764 41.5834 17.3809Z" fill="#EF8441"/>
<path d="M76.185 22.4915C79.5112 27.2418 86.6551 32.1678 91.1792 29C91.4182 27.0883 91.7598 24.7688 91.8853 22.0385C92.2024 15.1369 91.621 7.08435 86.8212 2.11507C86.4523 1.73323 86.0461 1.48427 85.5907 1.41886C78.1812 0.354582 71.8191 11.8722 74.2555 18.9503C74.6376 20.0605 75.2787 21.1971 76.185 22.4915Z" fill="#F6C183"/>
<path d="M77.3662 18.809C79.7157 22.1644 85.4409 28.1934 88.4707 26.0719C88.6006 24.7495 88.7935 23.146 88.8322 21.254C88.9307 16.4333 88.3101 10.9775 85.0902 7.38843C84.8176 7.08461 84.519 6.88282 84.1858 6.82586C79.2421 5.98094 74.1534 14.0617 76.9592 18.2187C77.0822 18.401 77.2178 18.597 77.3662 18.809Z" fill="#EF8441"/>
<path d="M60.2372 80.526C59.5114 81.0974 58.4886 81.0974 57.7628 80.526L54.01 77.5714C52.5185 76.3971 53.3489 74 55.2472 74H62.7528C64.6511 74 65.4815 76.3971 63.99 77.5714L60.2372 80.526Z" fill="#744322"/>
<path d="M45 15L44.6595 11.9358C43.9994 5.99468 38.9777 1.5 33 1.5" stroke="#744322" stroke-width="3" stroke-linecap="round"/>
<path d="M73 15L73.3405 11.9358C74.0006 5.99468 79.0223 1.5 85 1.5" stroke="#744322" stroke-width="3" stroke-linecap="round"/>
<path d="M24 32.5L19.0788 39.7834C14.1127 47.1332 11.1553 55.654 10.5 64.5" stroke="#744322" stroke-width="3" stroke-linecap="round"/>
<path d="M10.5 64.5C10.2271 64.7593 9.90918 70.2617 10.5 75.5C11.1977 81.6862 15.5926 86.6277 21.1017 89.5272L22 90" stroke="#744322" stroke-width="3" stroke-linecap="round"/>
<path d="M94 32.5L98.9212 39.7834C103.887 47.1332 106.845 55.654 107.5 64.5" stroke="#744322" stroke-width="3" stroke-linecap="round"/>
<path d="M107.5 64.5C107.773 64.7593 108.091 70.2617 107.5 75.5C106.802 81.6862 102.407 86.6277 96.8983 89.5272L96 90" stroke="#744322" stroke-width="3" stroke-linecap="round"/>
<path d="M29 93C37.2944 95.3224 45.8674 96.5 54.4808 96.5H58.5H62.7739C71.5531 96.5 80.294 95.3439 88.7713 93.0616L89 93" stroke="#744322" stroke-width="3" stroke-linecap="round"/>
<path d="M26 27.5L25.9487 27.192C24.6842 19.6053 25.9312 11.8132 29.5 5" stroke="#744322" stroke-width="3" stroke-linecap="round"/>
<path d="M92 26.5L92.3472 24.7641C93.7346 17.8271 92.5445 10.6223 89 4.5" stroke="#744322" stroke-width="3" stroke-linecap="round"/>
<ellipse cx="32.5" cy="75" rx="6.5" ry="3.5" fill="#EF8441"/>
<ellipse cx="85.5" cy="75" rx="6.5" ry="3.5" fill="#EF8441"/>
</svg>
