<svg width="92" height="93" viewBox="0 0 92 93" fill="none" xmlns="http://www.w3.org/2000/svg">
<path d="M89 48.9172C89 80.2896 69.7329 79 45.5 79C21.2671 79 3 80.2896 3 48.9172C3 34.5109 7 9.5 18.5 4.00006C35.0856 -3.93208 32.895 14 46 14C59.105 14 52.5 3.00008 66 2.00008C79.8658 0.972977 89 34.5109 89 48.9172Z" fill="#F9F9F9"/>
<path d="M30 3L37.8007 10.3901C38.9185 11.4491 40.2657 12.2356 41.7373 12.6884L42.9371 13.0576C44.9291 13.6705 47.0629 13.6457 49.0402 12.9866L49.903 12.699C51.2843 12.2386 52.5484 11.482 53.607 10.4823L61 3.5" stroke="#848484" stroke-width="3"/>
<path d="M42.4248 73.5L41.5713 91H18.2363L14.8213 73.5H42.4248Z" fill="#2C73C6" stroke="#1A3752" stroke-width="3"/>
<path d="M49.5752 73.5L50.4287 91H73.7637L77.1787 73.5H49.5752Z" fill="#2C73C6" stroke="#1A3752" stroke-width="3"/>
<path d="M67 21.9998L65.3574 23.4177C85.4457 19.3567 83.9543 15.26 87.5 28.9998C91.5 44.4996 91.0703 38.013 90 49.9998C87.5 77.9997 71.9997 82.4997 45.9512 82.9998C21.7458 82.9997 2.5 79.7288 2.5 50.4998C2.49997 37.2546 0.499933 40.9997 4 28.9998C7.41513 17.291 5.56344 21.4285 27.6807 24.489L24.5 21.9998L19 0.999756L30.5 2.49976L34.9072 25.3416C38.18 25.666 41.844 25.953 45.9512 26.1677C50.1813 25.7851 53.9329 25.3241 57.2646 24.8289L61.5 2.49976L72.5 0.999756L67 21.9998Z" fill="#2C73C6"/>
<path d="M74.5 46.5V66.5898C56.288 72.4158 36.712 72.4158 18.5 66.5898V46.5H74.5Z" fill="#2C73C6" stroke="#1A3752" stroke-width="3"/>
<path d="M29.5 2.5L35.6489 24.2576C35.8626 25.0139 36.4995 25.5749 37.2768 25.6915L44.5519 26.7828C45.5122 26.9268 46.4883 26.9302 47.4496 26.7929L55.1238 25.6966C55.9512 25.5784 56.6178 24.9582 56.7953 24.1416L61.5 2.5" stroke="#1A3752" stroke-width="3"/>
<path d="M10.844 29.9194C9.39031 20.4717 15.3007 25.3167 19.8229 24.6209C24.3451 23.925 26.1212 24.4873 27.5749 33.9349C28.2425 38.2733 30.0075 46.6756 29.1256 50.1726C28.2436 53.6695 26.7169 53.1545 24.2713 53.5308C21.8257 53.9071 20.8174 53.0952 18.7267 50.1812C16.387 46.9203 11.5116 34.2578 10.844 29.9194Z" fill="#FFE7C8"/>
<path d="M80.6843 28.9194C82.138 19.4717 76.2276 24.3167 71.7054 23.6209C67.1832 22.925 65.4071 23.4873 63.9534 32.9349C63.2859 37.2733 61.5208 45.6756 62.4028 49.1726C63.2847 52.6695 64.8114 52.1545 67.257 52.5308C69.7026 52.9071 70.7109 52.0952 72.8016 49.1812C75.1413 45.9203 80.0167 33.2578 80.6843 28.9194Z" fill="#FFE7C8"/>
<path d="M10.4878 30.3473L14.992 43.1413L17.853 48.9209C18.1925 49.6067 18.6538 50.2253 19.2144 50.7463V50.7463C21.9769 53.3138 26.3588 52.9058 28.5998 49.8724L28.9877 49.3473" stroke="#2C2300" stroke-width="3" stroke-linecap="round"/>
<path d="M25.5 26L28.7484 37.9608C29.038 39.0269 29.2297 40.1172 29.3213 41.2181L29.6858 45.598C29.8276 47.3025 29.3269 48.9984 28.282 50.3525V50.3525" stroke="#2C2300" stroke-width="3" stroke-linecap="round"/>
<path d="M81.7002 30.3473L77.196 43.1413L74.335 48.9209C73.9955 49.6067 73.5342 50.2253 72.9736 50.7463V50.7463C70.2111 53.3138 65.8292 52.9058 63.5882 49.8724L63.2003 49.3473" stroke="#2C2300" stroke-width="3" stroke-linecap="round"/>
<path d="M66.5 24L63.0042 39.5633L62.502 45.5981C62.3602 47.3025 62.8609 48.9985 63.9058 50.3526V50.3526" stroke="#2C2300" stroke-width="3" stroke-linecap="round"/>
<path d="M7.00001 28.5L9.50001 19.5L25.5 23L29.5 35.5L11.5 41.5L7.00001 28.5Z" fill="#F9F9F9"/>
<path d="M6.5 25.5L11.5 42L29.5 36L19 3" stroke="#848484" stroke-width="3" stroke-linecap="round"/>
<path d="M85 27.0001L81.5 18.4845L66.5 21L61.6723 34.9873L79.6724 40.9873L85 27.0001Z" fill="#F9F9F9"/>
<path d="M85 25.5L79.6724 41.4872L61.6724 35.4872L72.5 2.5" stroke="#848484" stroke-width="3" stroke-linecap="round"/>
<path d="M17.5 2L10.5 15.5L7 24.5" stroke="#848484" stroke-width="3" stroke-linecap="round"/>
<path d="M73.5 2L77.4266 8.80612C79.8058 12.9301 81.8875 17.2187 83.6557 21.6393L85 25" stroke="#848484" stroke-width="3" stroke-linecap="round"/>
<path d="M16.5 78L13.2 75.4333C9.45462 72.5203 6.46231 68.7517 4.47395 64.4436V64.4436C2.51888 60.2076 1.58999 55.5703 1.76266 50.9081L2 44.5L4.5 31.5" stroke="#1A3752" stroke-width="3" stroke-linecap="round"/>
<path d="M75 78.5L81.2762 72.2238C83.7386 69.7614 85.7382 66.8761 87.1792 63.7057V63.7057C89.0345 59.624 89.9196 55.1682 89.7651 50.6873L89.5 43L87 31" stroke="#1A3752" stroke-width="3" stroke-linecap="round"/>
<path d="M29 81V81C40.1807 83.6307 51.8193 83.6307 63 81V81" stroke="#1A3752" stroke-width="3" stroke-linecap="round"/>
</svg>
