<svg width="95" height="82" viewBox="0 0 95 82" fill="none" xmlns="http://www.w3.org/2000/svg">
<mask id="mask0_257_417" style="mask-type:alpha" maskUnits="userSpaceOnUse" x="0" y="0" width="95" height="82">
<path d="M21.5508 1.53027C21.7082 1.4803 21.8789 1.45129 22.2783 1.78613C22.7502 2.18184 23.2926 2.90241 23.9834 4.01074C24.6905 5.14518 25.3529 6.34255 26.2627 7.84473C27.9951 10.705 30.2671 14.0443 33.6357 16.6592C37.0394 19.3012 41.4973 21.1543 47.5 21.1543C53.7364 21.1543 58.3874 19.3395 61.9766 16.7451C65.5335 14.174 67.982 10.8834 69.8916 8.05469C70.8746 6.59863 71.6551 5.35711 72.4365 4.26074C73.214 3.16998 73.85 2.43447 74.4258 2.01367C74.9404 1.63758 75.3084 1.57774 75.6973 1.67188C76.1923 1.79177 76.9617 2.22478 78.0713 3.41016C83.1703 8.85734 87.0414 16.8061 89.6357 25.1992C92.2253 33.5769 93.5 42.2568 93.5 49.0557C93.5 56.4738 92.2312 62.0663 90.0137 66.3008C87.8077 70.5131 84.6149 73.4739 80.5947 75.5693C72.4401 79.8197 60.9343 80.5 47.5 80.5C34.0657 80.5 22.5599 79.8197 14.4053 75.5693C10.3851 73.4739 7.19233 70.5131 4.98633 66.3008C2.76879 62.0663 1.5 56.4738 1.5 49.0557C1.50001 42.3884 3.9628 33.5729 7.51465 25.0264C11.0567 16.5035 15.5999 8.44275 19.6016 3.30664C20.5808 2.04985 21.2169 1.63634 21.5508 1.53027Z" fill="#87D1FF" stroke="#3696D6" stroke-width="3"/>
</mask>
<g mask="url(#mask0_257_417)">
<path d="M95 49.0557C95 79.3801 74.2689 82 47.5 82C20.7311 82 0 79.3801 0 49.0557C0 35.1306 10.207 12.9238 18.4184 2.38465C26.6297 -8.15446 24.8515 19.6547 47.5 19.6547C71.1701 19.6547 69.6697 -7.76079 79.1667 2.38465C89.7945 13.7381 95 35.1306 95 49.0557Z" fill="#87D1FF"/>
<rect x="-6.12939" y="26.9042" width="108.28" height="13.5323" fill="white"/>
<rect x="-6.12939" y="53.0022" width="108.28" height="13.5323" fill="white"/>
<path d="M21.5508 1.53027C21.7082 1.4803 21.8789 1.45129 22.2783 1.78613C22.7502 2.18184 23.2926 2.90241 23.9834 4.01074C24.6905 5.14518 25.3529 6.34255 26.2627 7.84473C27.9951 10.705 30.2671 14.0443 33.6357 16.6592C37.0394 19.3012 41.4973 21.1543 47.5 21.1543C53.7364 21.1543 58.3874 19.3395 61.9766 16.7451C65.5335 14.174 67.982 10.8834 69.8916 8.05469C70.8746 6.59863 71.6551 5.35711 72.4365 4.26074C73.214 3.16998 73.85 2.43447 74.4258 2.01367C74.9404 1.63758 75.3084 1.57774 75.6973 1.67188C76.1923 1.79177 76.9617 2.22478 78.0713 3.41016C83.1703 8.85734 87.0414 16.8061 89.6357 25.1992C92.2253 33.5769 93.5 42.2568 93.5 49.0557C93.5 56.4738 92.2312 62.0663 90.0137 66.3008C87.8077 70.5131 84.6149 73.4739 80.5947 75.5693C72.4401 79.8197 60.9343 80.5 47.5 80.5C34.0657 80.5 22.5599 79.8197 14.4053 75.5693C10.3851 73.4739 7.19233 70.5131 4.98633 66.3008C2.76879 62.0663 1.5 56.4738 1.5 49.0557C1.50001 42.3884 3.9628 33.5729 7.51465 25.0264C11.0567 16.5035 15.5999 8.44275 19.6016 3.30664C20.5808 2.04985 21.2169 1.63634 21.5508 1.53027Z" stroke="#3696D6" stroke-width="3"/>
</g>
<path d="M27.8504 55.7854C27.2525 55.8545 26.8345 55.8758 26.2512 55.9634C24.8301 56.177 23.5751 56.083 22.3558 55.3272C21.2633 54.6498 20.3415 53.5142 19.3203 52.1245C18.0295 50.3679 16.1795 46.3398 14.6101 42.3855C13.0335 38.4126 11.6011 34.1628 11.2416 31.8819C10.4873 27.0952 11.0171 23.0933 12.448 20.1341C13.8821 17.1686 16.2564 15.2142 19.0805 14.7897C20.8901 14.5179 22.4434 15.4508 23.6333 16.6742C24.8341 17.9087 25.8908 19.6542 26.8008 21.6049C28.6291 25.5241 30.0367 30.6526 30.772 35.318C31.0863 37.3123 31.7088 40.5262 32.1185 43.4986C32.3268 45.0102 32.4908 46.5272 32.5449 47.898C32.5979 49.2433 32.5508 50.5605 32.2772 51.6196C31.786 53.521 30.9974 54.7601 29.609 55.3642C29.0026 55.6279 28.3765 55.7246 27.8504 55.7854Z" fill="#FF8E24" stroke="#8C4107" stroke-width="3"/>
<path d="M67.2619 55.7854C67.8598 55.8545 68.2778 55.8758 68.8611 55.9634C70.2822 56.177 71.5373 56.083 72.7565 55.3272C73.849 54.6498 74.7708 53.5142 75.792 52.1245C77.0828 50.3679 78.9329 46.3398 80.5022 42.3855C82.0788 38.4126 83.5112 34.1628 83.8707 31.8819C84.6101 27.1898 84.4668 23.2367 83.4448 20.2939C82.4046 17.2986 80.3869 15.2298 77.4603 14.7901C75.6798 14.5225 74.0529 15.4262 72.7514 16.6106C71.4199 17.8223 70.1761 19.5477 69.0778 21.5037C66.8761 25.4247 65.0868 30.5815 64.3403 35.318C64.0261 37.3123 63.4035 40.5262 62.9938 43.4986C62.7855 45.0102 62.6215 46.5272 62.5674 47.898C62.5144 49.2433 62.5615 50.5605 62.8351 51.6196C63.3263 53.521 64.1149 54.7601 65.5033 55.3642C66.1097 55.6279 66.7358 55.7246 67.2619 55.7854Z" fill="#FF8E24" stroke="#8C4107" stroke-width="3"/>
<path d="M33 46.5C33 49.5376 29.366 55.9999 25.5 55.9999C21.634 55.9999 16.2892 48.5929 16.2892 45.5553C14.7893 42.0553 19.4232 40.0553 23.2892 40.0553C27.1552 40.0553 32.5 40 33 46.5Z" fill="#8C4107"/>
<path d="M62.789 46.577C62.789 49.6145 64.423 55.577 68.289 55.577C72.155 55.577 78.5 49.6145 78.5 46.5769C80 43.0769 73.655 41.077 69.789 41.077C65.923 41.077 63.289 40.077 62.789 46.577Z" fill="#8C4107"/>
</svg>
