<svg width="95" height="82" viewBox="0 0 95 82" fill="none" xmlns="http://www.w3.org/2000/svg">
<mask id="mask0_257_711" style="mask-type:alpha" maskUnits="userSpaceOnUse" x="0" y="0" width="95" height="82">
<path d="M21.5508 1.53027C21.7082 1.4803 21.8789 1.45129 22.2783 1.78613C22.7502 2.18184 23.2926 2.90241 23.9834 4.01074C24.6905 5.14518 25.3529 6.34255 26.2627 7.84473C27.9951 10.705 30.2671 14.0443 33.6357 16.6592C37.0394 19.3012 41.4973 21.1543 47.5 21.1543C53.7364 21.1543 58.3874 19.3395 61.9766 16.7451C65.5335 14.174 67.982 10.8834 69.8916 8.05469C70.8746 6.59863 71.6551 5.35711 72.4365 4.26074C73.214 3.16998 73.85 2.43447 74.4258 2.01367C74.9404 1.63758 75.3084 1.57774 75.6973 1.67188C76.1923 1.79177 76.9617 2.22478 78.0713 3.41016C83.1703 8.85734 87.0414 16.8061 89.6357 25.1992C92.2253 33.5769 93.5 42.2568 93.5 49.0557C93.5 56.4738 92.2312 62.0663 90.0137 66.3008C87.8077 70.5131 84.6149 73.4739 80.5947 75.5693C72.4401 79.8197 60.9343 80.5 47.5 80.5C34.0657 80.5 22.5599 79.8197 14.4053 75.5693C10.3851 73.4739 7.19233 70.5131 4.98633 66.3008C2.76879 62.0663 1.5 56.4738 1.5 49.0557C1.50001 42.3884 3.9628 33.5729 7.51465 25.0264C11.0567 16.5035 15.5999 8.44275 19.6016 3.30664C20.5808 2.04985 21.2169 1.63634 21.5508 1.53027Z" fill="#87D1FF" stroke="#3696D6" stroke-width="3"/>
</mask>
<g mask="url(#mask0_257_711)">
<path d="M95 49.0557C95 79.3801 74.2689 82 47.5 82C20.7311 82 0 79.3801 0 49.0557C0 35.1306 10.207 12.9238 18.4184 2.38465C26.6297 -8.15446 24.8515 19.6547 47.5 19.6547C71.1701 19.6547 69.6697 -7.76079 79.1667 2.38465C89.7945 13.7381 95 35.1306 95 49.0557Z" fill="#F54346"/>
<path d="M12 51C13.8603 51 15.3805 53.3223 15.4922 56.2539C17.4462 54.212 20.0029 53.487 21.3887 54.6523C22.868 55.8965 22.4534 58.8244 20.4629 61.1914C20.3622 61.3112 20.2555 61.4285 20.1465 61.5459C20.4694 61.5154 20.7894 61.5 21.1006 61.5C24.1932 61.5002 26.7002 63.0671 26.7002 65C26.7002 66.9329 24.1931 68.4998 21.1006 68.5C21.009 68.5 20.9162 68.4978 20.8232 68.4951C22.6461 70.8171 22.9859 73.5931 21.5557 74.7959C20.1699 75.9613 17.6142 75.2363 15.6602 73.1943C15.5486 76.1261 14.0274 78.4482 12.167 78.4482C10.3067 78.448 8.78541 76.126 8.67383 73.1943C6.71983 75.2361 4.16405 75.9612 2.77832 74.7959C1.34909 73.5936 1.68743 70.8192 3.50781 68.498C0.457602 68.4672 -1.99998 66.9137 -2 65C-2 63.1337 0.337329 61.6089 3.28223 61.5059C3.18659 61.4017 3.09299 61.2973 3.00391 61.1914C1.01339 58.8244 0.599713 55.8964 2.0791 54.6523C3.55853 53.4088 6.37093 54.319 8.36133 56.6855C8.40932 56.7426 8.45673 56.8014 8.50391 56.8604C8.5015 56.773 8.5 56.6858 8.5 56.5996C8.50012 53.507 10.0671 51.0001 12 51Z" fill="#FFF6F6"/>
<path d="M36 26C37.8603 26 39.3805 28.3223 39.4922 31.2539C41.4462 29.212 44.0029 28.487 45.3887 29.6523C46.868 30.8965 46.4534 33.8244 44.4629 36.1914C44.3622 36.3112 44.2555 36.4285 44.1465 36.5459C44.4694 36.5154 44.7894 36.5 45.1006 36.5C48.1932 36.5002 50.7002 38.0671 50.7002 40C50.7002 41.9329 48.1931 43.4998 45.1006 43.5C45.009 43.5 44.9162 43.4978 44.8232 43.4951C46.6461 45.8171 46.9859 48.5931 45.5557 49.7959C44.1699 50.9613 41.6142 50.2363 39.6602 48.1943C39.5486 51.1261 38.0274 53.4482 36.167 53.4482C34.3067 53.448 32.7854 51.126 32.6738 48.1943C30.7198 50.2361 28.164 50.9612 26.7783 49.7959C25.3491 48.5936 25.6874 45.8192 27.5078 43.498C24.4576 43.4672 22 41.9137 22 40C22 38.1337 24.3373 36.6089 27.2822 36.5059C27.1866 36.4017 27.093 36.2973 27.0039 36.1914C25.0134 33.8244 24.5997 30.8964 26.0791 29.6523C27.5585 28.4088 30.3709 29.319 32.3613 31.6855C32.4093 31.7426 32.4567 31.8014 32.5039 31.8604C32.5015 31.773 32.5 31.6858 32.5 31.5996C32.5001 28.507 34.0671 26.0001 36 26Z" fill="#FFF6F6"/>
<path d="M56 57C57.8603 57 59.3805 59.3223 59.4922 62.2539C61.4462 60.212 64.0029 59.487 65.3887 60.6523C66.868 61.8965 66.4534 64.8244 64.4629 67.1914C64.3622 67.3112 64.2555 67.4285 64.1465 67.5459C64.4694 67.5154 64.7894 67.5 65.1006 67.5C68.1932 67.5002 70.7002 69.0671 70.7002 71C70.7002 72.9329 68.1931 74.4998 65.1006 74.5C65.009 74.5 64.9162 74.4978 64.8232 74.4951C66.6461 76.8171 66.9859 79.5931 65.5557 80.7959C64.1699 81.9613 61.6142 81.2363 59.6602 79.1943C59.5486 82.1261 58.0274 84.4482 56.167 84.4482C54.3067 84.448 52.7854 82.126 52.6738 79.1943C50.7198 81.2361 48.164 81.9612 46.7783 80.7959C45.3491 79.5936 45.6874 76.8192 47.5078 74.498C44.4576 74.4672 42 72.9137 42 71C42 69.1337 44.3373 67.6089 47.2822 67.5059C47.1866 67.4017 47.093 67.2973 47.0039 67.1914C45.0134 64.8244 44.5997 61.8964 46.0791 60.6523C47.5585 59.4088 50.3709 60.319 52.3613 62.6855C52.4093 62.7426 52.4567 62.8014 52.5039 62.8604C52.5015 62.773 52.5 62.6858 52.5 62.5996C52.5001 59.507 54.0671 57.0001 56 57Z" fill="#FFF6F6"/>
<path d="M72 16C73.8603 16 75.3805 18.3223 75.4922 21.2539C77.4462 19.212 80.0029 18.487 81.3887 19.6523C82.868 20.8965 82.4534 23.8244 80.4629 26.1914C80.3622 26.3112 80.2555 26.4285 80.1465 26.5459C80.4694 26.5154 80.7894 26.5 81.1006 26.5C84.1932 26.5002 86.7002 28.0671 86.7002 30C86.7002 31.9329 84.1931 33.4998 81.1006 33.5C81.009 33.5 80.9162 33.4978 80.8232 33.4951C82.6461 35.8171 82.9859 38.5931 81.5557 39.7959C80.1699 40.9613 77.6142 40.2363 75.6602 38.1943C75.5486 41.1261 74.0274 43.4482 72.167 43.4482C70.3067 43.448 68.7854 41.126 68.6738 38.1943C66.7198 40.2361 64.164 40.9612 62.7783 39.7959C61.3491 38.5936 61.6874 35.8192 63.5078 33.498C60.4576 33.4672 58 31.9137 58 30C58 28.1337 60.3373 26.6089 63.2822 26.5059C63.1866 26.4017 63.093 26.2973 63.0039 26.1914C61.0134 23.8244 60.5997 20.8964 62.0791 19.6523C63.5585 18.4088 66.3709 19.319 68.3613 21.6855C68.4093 21.7426 68.4567 21.8014 68.5039 21.8604C68.5015 21.773 68.5 21.6858 68.5 21.5996C68.5001 18.507 70.0671 16.0001 72 16Z" fill="#FFF6F6"/>
<path d="M92 43C93.8603 43 95.3805 45.3223 95.4922 48.2539C97.4462 46.212 100.003 45.487 101.389 46.6523C102.868 47.8965 102.453 50.8244 100.463 53.1914C100.362 53.3112 100.256 53.4285 100.146 53.5459C100.469 53.5154 100.789 53.5 101.101 53.5C104.193 53.5002 106.7 55.0671 106.7 57C106.7 58.9329 104.193 60.4998 101.101 60.5C101.009 60.5 100.916 60.4978 100.823 60.4951C102.646 62.8171 102.986 65.5931 101.556 66.7959C100.17 67.9613 97.6142 67.2363 95.6602 65.1943C95.5486 68.1261 94.0274 70.4482 92.167 70.4482C90.3067 70.448 88.7854 68.126 88.6738 65.1943C86.7198 67.2361 84.164 67.9612 82.7783 66.7959C81.3491 65.5936 81.6874 62.8192 83.5078 60.498C80.4576 60.4672 78 58.9137 78 57C78 55.1337 80.3373 53.6089 83.2822 53.5059C83.1866 53.4017 83.093 53.2973 83.0039 53.1914C81.0134 50.8244 80.5997 47.8964 82.0791 46.6523C83.5585 45.4088 86.3709 46.319 88.3613 48.6855C88.4093 48.7426 88.4567 48.8014 88.5039 48.8604C88.5015 48.773 88.5 48.6858 88.5 48.5996C88.5001 45.507 90.0671 43.0001 92 43Z" fill="#FFF6F6"/>
<path d="M21.5508 1.53027C21.7082 1.4803 21.8789 1.45129 22.2783 1.78613C22.7502 2.18184 23.2926 2.90241 23.9834 4.01074C24.6905 5.14518 25.3529 6.34255 26.2627 7.84473C27.9951 10.705 30.2671 14.0443 33.6357 16.6592C37.0394 19.3012 41.4973 21.1543 47.5 21.1543C53.7364 21.1543 58.3874 19.3395 61.9766 16.7451C65.5335 14.174 67.982 10.8834 69.8916 8.05469C70.8746 6.59863 71.6551 5.35711 72.4365 4.26074C73.214 3.16998 73.85 2.43447 74.4258 2.01367C74.9404 1.63758 75.3084 1.57774 75.6973 1.67188C76.1923 1.79177 76.9617 2.22478 78.0713 3.41016C83.1703 8.85734 87.0414 16.8061 89.6357 25.1992C92.2253 33.5769 93.5 42.2568 93.5 49.0557C93.5 56.4738 92.2312 62.0663 90.0137 66.3008C87.8077 70.5131 84.6149 73.4739 80.5947 75.5693C72.4401 79.8197 60.9343 80.5 47.5 80.5C34.0657 80.5 22.5599 79.8197 14.4053 75.5693C10.3851 73.4739 7.19233 70.5131 4.98633 66.3008C2.76879 62.0663 1.5 56.4738 1.5 49.0557C1.50001 42.3884 3.9628 33.5729 7.51465 25.0264C11.0567 16.5035 15.5999 8.44275 19.6016 3.30664C20.5808 2.04985 21.2169 1.63634 21.5508 1.53027Z" stroke="#8E1E20" stroke-width="3"/>
</g>
<path d="M27.8504 55.7854C27.2525 55.8545 26.8345 55.8758 26.2512 55.9634C24.8301 56.177 23.5751 56.083 22.3558 55.3272C21.2633 54.6498 20.3415 53.5142 19.3203 52.1245C18.0295 50.3679 16.1795 46.3398 14.6101 42.3855C13.0335 38.4126 11.6011 34.1628 11.2416 31.8819C10.4873 27.0952 11.0171 23.0933 12.448 20.1341C13.8821 17.1686 16.2564 15.2142 19.0805 14.7897C20.8901 14.5179 22.4434 15.4508 23.6333 16.6742C24.8341 17.9087 25.8908 19.6542 26.8008 21.6049C28.6291 25.5241 30.0367 30.6526 30.772 35.318C31.0863 37.3123 31.7088 40.5262 32.1185 43.4986C32.3268 45.0102 32.4908 46.5272 32.5449 47.898C32.5979 49.2433 32.5508 50.5605 32.2772 51.6196C31.786 53.521 30.9974 54.7601 29.609 55.3642C29.0026 55.6279 28.3765 55.7246 27.8504 55.7854Z" fill="#FF8E24" stroke="#8C4107" stroke-width="3"/>
<path d="M67.2619 55.7854C67.8598 55.8545 68.2778 55.8758 68.8611 55.9634C70.2822 56.177 71.5373 56.083 72.7565 55.3272C73.849 54.6498 74.7708 53.5142 75.792 52.1245C77.0828 50.3679 78.9329 46.3398 80.5022 42.3855C82.0788 38.4126 83.5112 34.1628 83.8707 31.8819C84.6101 27.1898 84.4668 23.2367 83.4448 20.2939C82.4046 17.2986 80.3869 15.2298 77.4603 14.7901C75.6798 14.5225 74.0529 15.4262 72.7514 16.6106C71.4199 17.8223 70.1761 19.5477 69.0778 21.5037C66.8761 25.4247 65.0868 30.5815 64.3403 35.318C64.0261 37.3123 63.4035 40.5262 62.9938 43.4986C62.7855 45.0102 62.6215 46.5272 62.5674 47.898C62.5144 49.2433 62.5615 50.5605 62.8351 51.6196C63.3263 53.521 64.1149 54.7601 65.5033 55.3642C66.1097 55.6279 66.7358 55.7246 67.2619 55.7854Z" fill="#FF8E24" stroke="#8C4107" stroke-width="3"/>
<path d="M33 46.5001C33 49.5376 29.366 56 25.5 56C21.634 56 16.2892 48.5929 16.2892 45.5554C14.7893 42.0554 19.4232 40.0554 23.2892 40.0554C27.1552 40.0554 32.5 40.0001 33 46.5001Z" fill="#8C4107"/>
<path d="M62.789 46.577C62.789 49.6145 64.423 55.577 68.289 55.577C72.155 55.577 78.5 49.6145 78.5 46.5769C80 43.0769 73.655 41.077 69.789 41.077C65.923 41.077 63.289 40.077 62.789 46.577Z" fill="#8C4107"/>
</svg>
