<svg width="93" height="109" viewBox="0 0 93 109" fill="none" xmlns="http://www.w3.org/2000/svg">
<mask id="mask0_257_711" style="mask-type:alpha" maskUnits="userSpaceOnUse" x="0" y="1" width="92" height="82">
<path d="M20.8975 2.52637C21.0087 2.48988 21.1438 2.44033 21.5254 2.77051C21.9792 3.16341 22.5047 3.883 23.1748 4.99316C23.8594 6.12734 24.5012 7.32484 25.3818 8.82617C28.7511 14.5703 34.1927 22.1543 46 22.1543C58.2526 22.1543 64.012 14.7329 67.7363 9.03613C68.6881 7.58025 69.4434 6.33855 70.2002 5.24219C70.9542 4.14993 71.5692 3.41725 72.1221 3C72.613 2.62958 72.9436 2.58356 73.2852 2.66895C73.7424 2.78337 74.4795 3.2054 75.5557 4.39258C80.4923 9.83844 84.2421 17.7883 86.7559 26.1855C89.2646 34.5665 90.5 43.2514 90.5 50.0557C90.5 57.4799 89.27 63.0792 87.1201 67.3184C84.9822 71.5338 81.8924 74.4898 78.0107 76.5791C70.1329 80.8192 59.0117 81.5 46 81.5C32.9883 81.5 21.8671 80.8192 13.9893 76.5791C10.1076 74.4898 7.01784 71.5338 4.87988 67.3184C2.73003 63.0792 1.5 57.4799 1.5 50.0557C1.50001 43.3791 3.88824 34.5577 7.32812 26.0107C10.7591 17.4859 15.1589 9.42411 19.0342 4.28809C19.9851 3.02778 20.5949 2.62581 20.8975 2.52637Z" fill="#87D1FF" stroke="#3696D6" stroke-width="3"/>
</mask>
<g mask="url(#mask0_257_711)">
<path d="M92 50.0557C92 80.3801 71.9236 83 46 83C20.0764 83 0 80.3801 0 50.0557C0 36.1306 9.88467 13.9238 17.8367 3.38465C25.7888 -7.15446 24.0667 20.6547 46 20.6547C68.9226 20.6547 67.4696 -6.76079 76.6667 3.38465C86.9588 14.7381 92 36.1306 92 50.0557Z" fill="#F54346"/>
<path d="M11.6216 52C13.423 52.0003 14.8952 54.3225 15.0034 57.2539C16.8956 55.2124 19.3704 54.4873 20.7124 55.6523C22.1451 56.8965 21.7436 59.8244 19.8159 62.1914C19.7182 62.3114 19.6151 62.4293 19.5093 62.5469C19.8224 62.5163 20.1323 62.5 20.4341 62.5C23.4292 62.5 25.8569 64.067 25.8569 66C25.8569 67.933 23.4292 69.5 20.4341 69.5C20.3452 69.5 20.2556 69.4978 20.1655 69.4951C21.9308 71.8171 22.2596 74.5931 20.8745 75.7959C19.5322 76.9612 17.0569 76.2359 15.1646 74.1934C15.0568 77.1255 13.5846 79.4482 11.7827 79.4482C9.98102 79.4482 8.50797 77.1261 8.3999 74.1943C6.50762 76.236 4.03286 76.9612 2.69092 75.7959C1.30668 74.5936 1.63481 71.8193 3.39795 69.498C0.443563 69.4676 -1.93699 67.914 -1.93701 66C-1.93701 64.1337 0.326411 62.6089 3.17822 62.5059C3.08573 62.4019 2.99583 62.2972 2.90967 62.1914C0.981942 59.8244 0.580493 56.8965 2.01318 55.6523C3.44585 54.4086 6.16957 55.3189 8.09717 57.6855C8.14359 57.7426 8.18922 57.8015 8.23486 57.8604C8.23253 57.773 8.23193 57.6858 8.23193 57.5996C8.23206 54.507 9.74971 52 11.6216 52Z" fill="#FFF6F6"/>
<path d="M34.8638 27C36.6652 27.0004 38.1374 29.3226 38.2456 32.2539C40.1379 30.2121 42.6136 29.487 43.9556 30.6523C45.3881 31.8965 44.9867 34.8244 43.0591 37.1914C42.9614 37.3113 42.8582 37.4293 42.7524 37.5469C43.0652 37.5164 43.3748 37.5 43.6763 37.5C46.6713 37.5001 49.0991 39.0671 49.0991 41C49.0991 42.9329 46.6713 44.4999 43.6763 44.5C43.5875 44.5 43.4978 44.4978 43.4077 44.4951C45.173 46.8171 45.5018 49.5931 44.1167 50.7959C42.7747 51.9612 40.3 51.2361 38.4077 49.1943C38.2996 52.1261 36.8266 54.4482 35.0249 54.4482C33.2233 54.4481 31.7501 52.126 31.6421 49.1943C29.7498 51.2361 27.2751 51.9612 25.9331 50.7959C24.5488 49.5937 24.8762 46.8193 26.6392 44.498C23.6852 44.4673 21.3052 42.9137 21.3052 41C21.3052 39.1337 23.5686 37.6089 26.4204 37.5059C26.3279 37.4019 26.238 37.2972 26.1519 37.1914C24.2241 34.8244 23.8227 31.8965 25.2554 30.6523C26.6881 29.4087 29.4118 30.3189 31.3394 32.6855C31.3858 32.7426 31.4314 32.8015 31.4771 32.8604C31.4747 32.773 31.4741 32.6858 31.4741 32.5996C31.4742 29.507 32.9919 27 34.8638 27Z" fill="#FFF6F6"/>
<path d="M54.2314 58C56.033 58.0001 57.5051 60.3224 57.6133 63.2539C59.5056 61.212 61.9812 60.4871 63.3232 61.6523C64.7559 62.8965 64.3545 65.8244 62.4268 68.1914C62.3291 68.3114 62.2259 68.4293 62.1201 68.5469C62.4332 68.5163 62.7432 68.5 63.0449 68.5C66.0399 68.5001 68.4678 70.0671 68.4678 72C68.4678 73.9329 66.0399 75.4999 63.0449 75.5C62.9562 75.5 62.8664 75.4978 62.7764 75.4951C64.5416 77.8171 64.8704 80.5931 63.4854 81.7959C62.1431 82.9614 59.6678 82.2359 57.7754 80.1934C57.6676 83.1254 56.1953 85.4479 54.3936 85.4482C52.5919 85.4482 51.1178 83.1261 51.0098 80.1943C49.1175 82.2357 46.6436 82.9611 45.3018 81.7959C43.9174 80.5937 44.2448 77.8193 46.0078 75.498C43.0537 75.4674 40.6738 73.9138 40.6738 72C40.6738 70.1337 42.9371 68.6088 45.7891 68.5059C45.6965 68.4017 45.6058 68.2973 45.5195 68.1914C43.5919 65.8244 43.1914 62.8964 44.624 61.6523C46.0568 60.4088 48.7805 61.3189 50.708 63.6855C50.7545 63.7426 50.8 63.8015 50.8457 63.8604C50.8434 63.773 50.8418 63.6858 50.8418 63.5996C50.8419 60.507 52.3596 58 54.2314 58Z" fill="#FFF6F6"/>
<path d="M69.7261 17C71.5277 17 73.0007 19.3223 73.1089 22.2539C75.0011 20.2124 77.4759 19.4872 78.8179 20.6523C80.2506 21.8965 79.8491 24.8244 77.9214 27.1914C77.8237 27.3114 77.7205 27.4293 77.6147 27.5469C77.9278 27.5163 78.2378 27.5 78.5396 27.5C81.5345 27.5001 83.9624 29.0671 83.9624 31C83.9624 32.9329 81.5345 34.4999 78.5396 34.5C78.4508 34.5 78.361 34.4978 78.271 34.4951C80.0362 36.8171 80.3651 39.5931 78.98 40.7959C77.6378 41.9614 75.1624 41.2359 73.27 39.1934C73.1622 42.1254 71.6899 44.448 69.8882 44.4482C68.0867 44.4482 66.6127 42.1267 66.5044 39.1953C64.6122 41.2363 62.1381 41.961 60.7964 40.7959C59.4121 39.5937 59.7395 36.8193 61.5024 34.498C58.5484 34.4674 56.1685 32.9138 56.1685 31C56.1685 29.1337 58.4318 27.6088 61.2837 27.5059C61.1911 27.4017 61.1004 27.2973 61.0142 27.1914C59.0865 24.8244 58.686 21.8964 60.1187 20.6523C61.5514 19.4087 64.2751 20.3189 66.2026 22.6855C66.2491 22.7426 66.2947 22.8015 66.3403 22.8604C66.338 22.773 66.3374 22.6858 66.3374 22.5996C66.3375 19.5072 67.8544 17.0004 69.7261 17Z" fill="#FFF6F6"/>
<path d="M89.0942 44C90.8958 44 92.3689 46.3223 92.4771 49.2539C94.3692 47.2123 96.844 46.4874 98.186 47.6523C99.6187 48.8964 99.2182 51.8244 97.2905 54.1914C97.1929 54.3113 97.0896 54.4293 96.9839 54.5469C97.2967 54.5163 97.6062 54.5 97.9077 54.5C100.903 54.5 103.331 56.067 103.331 58C103.331 59.933 100.903 61.5 97.9077 61.5C97.8188 61.5 97.7293 61.4978 97.6392 61.4951C99.4044 63.817 99.7339 66.593 98.3491 67.7959C97.0069 68.9615 94.5306 68.2361 92.6382 66.1934C92.5304 69.1256 91.0582 71.4482 89.2563 71.4482C87.4545 71.4482 85.9813 69.1256 85.8735 66.1934C83.9812 68.2355 81.5066 68.9613 80.1646 67.7959C78.7802 66.5937 79.1076 63.8194 80.8706 61.498C77.9167 61.4673 75.5366 59.9137 75.5366 58C75.5366 56.1337 77.8 54.6089 80.6519 54.5059C80.5594 54.4019 80.4695 54.2972 80.3833 54.1914C78.4556 51.8244 78.0541 48.8965 79.4868 47.6523C80.9195 46.4084 83.6441 47.3186 85.5718 49.6855C85.618 49.7423 85.663 49.8008 85.7085 49.8594C85.7062 49.7724 85.7056 49.6855 85.7056 49.5996C85.7057 46.5072 87.2225 44.0003 89.0942 44Z" fill="#FFF6F6"/>
<path d="M20.8975 2.52637C21.0087 2.48988 21.1438 2.44033 21.5254 2.77051C21.9792 3.16341 22.5047 3.883 23.1748 4.99316C23.8594 6.12734 24.5012 7.32484 25.3818 8.82617C28.7511 14.5703 34.1927 22.1543 46 22.1543C58.2526 22.1543 64.012 14.7329 67.7363 9.03613C68.6881 7.58025 69.4434 6.33855 70.2002 5.24219C70.9542 4.14993 71.5692 3.41725 72.1221 3C72.613 2.62958 72.9436 2.58356 73.2852 2.66895C73.7424 2.78337 74.4795 3.2054 75.5557 4.39258C80.4923 9.83844 84.2421 17.7883 86.7559 26.1855C89.2646 34.5665 90.5 43.2514 90.5 50.0557C90.5 57.4799 89.27 63.0792 87.1201 67.3184C84.9822 71.5338 81.8924 74.4898 78.0107 76.5791C70.1329 80.8192 59.0117 81.5 46 81.5C32.9883 81.5 21.8671 80.8192 13.9893 76.5791C10.1076 74.4898 7.01784 71.5338 4.87988 67.3184C2.73003 63.0792 1.5 57.4799 1.5 50.0557C1.50001 43.3791 3.88824 34.5577 7.32812 26.0107C10.7591 17.4859 15.1589 9.42411 19.0342 4.28809C19.9851 3.02778 20.5949 2.62581 20.8975 2.52637Z" stroke="#8E1E20" stroke-width="3"/>
</g>
<path d="M26.9674 56.7861C26.3823 56.8559 25.9861 56.8771 25.4229 56.9645C24.03 57.1805 22.7942 57.0846 21.6003 56.3202C20.5386 55.6404 19.6459 54.5038 18.6584 53.1162C17.4103 51.3622 15.6204 47.3374 14.1008 43.3834C12.5738 39.4102 11.1888 35.1644 10.8416 32.889C10.1123 28.1106 10.6236 24.1161 12.0081 21.1594C13.3951 18.1977 15.7041 16.2191 18.4779 15.7886C20.2727 15.5102 21.793 16.4672 22.9389 17.6838C24.101 18.9175 25.1239 20.6599 26.004 22.608C27.7729 26.5234 29.1342 31.6485 29.8458 36.3109C30.1506 38.3081 30.7527 41.5182 31.1495 44.4909C31.3512 46.0019 31.5103 47.5178 31.5625 48.8867C31.6138 50.2301 31.5688 51.5421 31.3049 52.597C30.8324 54.4861 30.0701 55.7417 28.6971 56.3587C28.0975 56.628 27.4791 56.7251 26.9674 56.7861Z" fill="#FF8E24" stroke="#8C4107" stroke-width="3"/>
<path d="M65.1415 56.7861C65.7266 56.8559 66.1228 56.8771 66.686 56.9645C68.0789 57.1805 69.3147 57.0846 70.5086 56.3202C71.5702 55.6404 72.463 54.5038 73.4505 53.1162C74.6985 51.3622 76.4884 47.3374 78.0081 43.3834C79.5351 39.4102 80.9201 35.1644 81.2673 32.889C81.9827 28.2016 81.8442 24.2549 80.8561 21.3171C79.8525 18.3332 77.8932 16.2354 75.0139 15.7887C73.2497 15.5152 71.6565 16.4407 70.4017 17.6199C69.1121 18.8318 67.9083 20.5558 66.846 22.5095C64.7156 26.4272 62.9852 31.5796 62.2631 36.3109C61.9583 38.3081 61.3562 41.5182 60.9594 44.4909C60.7577 46.0019 60.5986 47.5178 60.5463 48.8867C60.4951 50.2301 60.5401 51.5421 60.804 52.597C61.2765 54.4861 62.0388 55.7417 63.4118 56.3587C64.0114 56.628 64.6298 56.7251 65.1415 56.7861Z" fill="#FF8E24" stroke="#8C4107" stroke-width="3"/>
<path d="M31.9578 47.5001C31.9578 50.5376 28.4385 57 24.6946 57C20.9507 57 15.7747 49.5929 15.7747 46.5554C14.3221 43.0554 18.8098 41.0554 22.5537 41.0554C26.2976 41.0554 31.4736 41.0001 31.9578 47.5001Z" fill="#8C4107"/>
<path d="M60.8064 47.577C60.8064 50.6145 62.3888 56.577 66.1327 56.577C69.8766 56.577 76.0213 50.6145 76.0213 47.5769C77.4739 44.0769 71.3292 42.077 67.5853 42.077C63.8414 42.077 61.2906 41.077 60.8064 47.577Z" fill="#8C4107"/>
</svg>
