<svg width="93" height="109" viewBox="0 0 93 109" fill="none" xmlns="http://www.w3.org/2000/svg">
<mask id="path-1-inside-1_259_519" fill="white">
<path d="M88.0469 97H48V87H44V97H3.95312L2 87L0 57H92L90 87L88.0469 97Z"/>
</mask>
<path d="M88.0469 97H48V87H44V97H3.95312L2 87L0 57H92L90 87L88.0469 97Z" fill="#E3E300"/>
<path d="M88.0469 97V100H90.5176L90.9912 97.5751L88.0469 97ZM48 97H45V100H48V97ZM48 87H51V84H48V87ZM44 87V84H41V87H44ZM44 97V100H47V97H44ZM3.95312 97L1.00876 97.5751L1.48238 100H3.95312V97ZM2 87L-0.993355 87.1996L-0.980735 87.3889L-0.944366 87.5751L2 87ZM0 57V54H-3.20666L-2.99336 57.1996L0 57ZM92 57L94.9934 57.1996L95.2067 54H92V57ZM90 87L92.9444 87.5751L92.9807 87.3889L92.9934 87.1996L90 87ZM88.0469 97V94H48V97V100H88.0469V97ZM48 97H51V87H48H45V97H48ZM48 87V84H44V87V90H48V87ZM44 87H41V97H44H47V87H44ZM44 97V94H3.95312V97V100H44V97ZM3.95312 97L6.89749 96.4249L4.94437 86.4249L2 87L-0.944366 87.5751L1.00876 97.5751L3.95312 97ZM2 87L4.99336 86.8004L2.99336 56.8004L0 57L-2.99336 57.1996L-0.993355 87.1996L2 87ZM0 57V60H92V57V54H0V57ZM92 57L89.0066 56.8004L87.0066 86.8004L90 87L92.9934 87.1996L94.9934 57.1996L92 57ZM90 87L87.0556 86.4249L85.1025 96.4249L88.0469 97L90.9912 97.5751L92.9444 87.5751L90 87Z" fill="#A99500" mask="url(#path-1-inside-1_259_519)"/>
<line x1="8.5" y1="60" x2="8.5" y2="94" stroke="white" stroke-width="3"/>
<line x1="13.5" y1="60" x2="13.5" y2="94" stroke="white" stroke-width="3"/>
<line x1="78.5" y1="60" x2="78.5" y2="94" stroke="white" stroke-width="3"/>
<line x1="83.5" y1="60" x2="83.5" y2="94" stroke="white" stroke-width="3"/>
</svg>
