<svg width="93" height="109" viewBox="0 0 93 109" fill="none" xmlns="http://www.w3.org/2000/svg">
<path d="M90 48.9172C90 80.2896 70.7329 79 46.5 79C22.2671 79 4 80.2896 4 48.9172C4 34.5109 8 9.5 19.5 4.00006C36.0856 -3.93208 33.895 14 47 14C60.105 14 53.5 3.00008 67 2.00008C80.8658 0.972977 90 34.5109 90 48.9172Z" fill="#F9F9F9"/>
<path d="M31 3L38.8007 10.3901C39.9185 11.4491 41.2657 12.2356 42.7373 12.6884L43.9371 13.0576C45.9291 13.6705 48.0629 13.6457 50.0402 12.9866L50.903 12.699C52.2843 12.2386 53.5484 11.482 54.607 10.4823L62 3.5" stroke="#848484" stroke-width="3"/>
<path d="M43.4248 76.5L42.5713 94H19.2363L15.8213 76.5H43.4248Z" fill="#2C73C6" stroke="#1A3752" stroke-width="3"/>
<path d="M50.5752 76.5L51.4287 94H74.7637L78.1787 76.5H50.5752Z" fill="#2C73C6" stroke="#1A3752" stroke-width="3"/>
<path d="M67.9995 21.9998L66.3569 23.4177C86.4456 19.3567 84.9538 15.2601 88.4995 28.9998C92.4995 44.4996 92.0698 38.0129 90.9995 49.9998C88.4995 77.9996 73 82.4997 46.9517 82.9998C22.7461 82.9998 3.49951 79.7289 3.49951 50.4998C3.49948 37.2546 1.50042 40.9997 5.00049 28.9998C8.41553 17.2913 6.56345 21.4285 28.6802 24.489L25.4995 21.9998L19.9995 0.999756L31.4995 2.49976L35.9067 25.3416C39.1797 25.666 42.8442 25.953 46.9517 26.1677C51.1815 25.7852 54.9325 25.3241 58.2642 24.8289L62.4995 2.49976L73.4995 0.999756L67.9995 21.9998Z" fill="#2C73C6"/>
<path d="M75.5 46.5V66.5898C57.288 72.4158 37.712 72.4158 19.5 66.5898V46.5H75.5Z" fill="#2C73C6" stroke="#1A3752" stroke-width="3"/>
<path d="M30.5 2.5L36.6489 24.2576C36.8626 25.0139 37.4995 25.5749 38.2768 25.6915L45.5519 26.7828C46.5122 26.9268 47.4883 26.9302 48.4496 26.7929L56.1238 25.6966C56.9512 25.5784 57.6178 24.9582 57.7953 24.1416L62.5 2.5" stroke="#1A3752" stroke-width="3"/>
<path d="M11.844 29.9194C10.3903 20.4717 16.3007 25.3167 20.8229 24.6209C25.3451 23.925 27.1212 24.4873 28.5749 33.9349C29.2425 38.2733 31.0075 46.6756 30.1256 50.1726C29.2436 53.6695 27.7169 53.1545 25.2713 53.5308C22.8257 53.9071 21.8174 53.0952 19.7267 50.1812C17.387 46.9203 12.5116 34.2578 11.844 29.9194Z" fill="#8C4107"/>
<path d="M81.6843 28.9194C83.138 19.4717 77.2276 24.3167 72.7054 23.6209C68.1832 22.925 66.4071 23.4873 64.9534 32.9349C64.2859 37.2733 62.5208 45.6756 63.4028 49.1726C64.2847 52.6695 65.8114 52.1545 68.257 52.5308C70.7026 52.9071 71.7109 52.0952 73.8016 49.1812C76.1413 45.9203 81.0167 33.2578 81.6843 28.9194Z" fill="#8C4107"/>
<path d="M11.4878 30.3473L15.992 43.1413L18.853 48.9209C19.1925 49.6067 19.6538 50.2253 20.2144 50.7463C22.9769 53.3138 27.3588 52.9058 29.5998 49.8724L29.9877 49.3473" stroke="#401C00" stroke-width="3" stroke-linecap="round"/>
<path d="M26.5 26L29.7484 37.9608C30.038 39.0269 30.2297 40.1172 30.3213 41.2181L30.6858 45.598C30.8276 47.3025 30.3269 48.9984 29.282 50.3525" stroke="#401C00" stroke-width="3" stroke-linecap="round"/>
<path d="M82.7002 30.3473L78.196 43.1413L75.335 48.9209C74.9955 49.6067 74.5342 50.2253 73.9736 50.7463C71.2111 53.3138 66.8292 52.9058 64.5882 49.8724L64.2003 49.3473" stroke="#401C00" stroke-width="3" stroke-linecap="round"/>
<path d="M67.5 24L64.0042 39.5633L63.502 45.5981C63.3602 47.3025 63.8609 48.9985 64.9058 50.3526" stroke="#401C00" stroke-width="3" stroke-linecap="round"/>
<path d="M8.00001 28.5L10.5 19.5L26.5 23L30.5 35.5L12.5 41.5L8.00001 28.5Z" fill="#F9F9F9"/>
<path d="M7.5 25.5L12.5 42L30.5 36L20 3" stroke="#848484" stroke-width="3" stroke-linecap="round"/>
<path d="M86 27.0001L82.5 18.4845L67.5 21L62.6723 34.9873L80.6724 40.9873L86 27.0001Z" fill="#F9F9F9"/>
<path d="M86 25.5L80.6724 41.4872L62.6724 35.4872L73.5 2.5" stroke="#848484" stroke-width="3" stroke-linecap="round"/>
<path d="M18.5 2L11.5 15.5L8 24.5" stroke="#848484" stroke-width="3" stroke-linecap="round"/>
<path d="M74.5 2L78.4266 8.80612C80.8058 12.9301 82.8875 17.2187 84.6557 21.6393L86 25" stroke="#848484" stroke-width="3" stroke-linecap="round"/>
<path d="M16.5 78L15.1213 76.966C10.7832 73.7124 7.37573 69.3767 5.23969 64.3926C3.43571 60.1833 2.58792 55.6263 2.75741 51.0498L3 44.5L5.5 31.5" stroke="#1A3752" stroke-width="3" stroke-linecap="round"/>
<path d="M77 78.5L82.7939 72.0623C84.9187 69.7014 86.6688 67.0286 87.9832 64.137C89.9674 59.7716 90.914 55.0062 90.7488 50.2139L90.5 43L88 31" stroke="#1A3752" stroke-width="3" stroke-linecap="round"/>
<path d="M30 81C41.1807 83.6307 52.8193 83.6307 64 81" stroke="#1A3752" stroke-width="3" stroke-linecap="round"/>
</svg>
