<svg width="95" height="109" viewBox="0 0 95 109" fill="none" xmlns="http://www.w3.org/2000/svg">
<mask id="mask0_257_417" style="mask-type:alpha" maskUnits="userSpaceOnUse" x="0" y="1" width="95" height="82">
<path d="M21.5508 2.53027C21.7082 2.4803 21.8789 2.45129 22.2783 2.78613C22.7502 3.18184 23.2926 3.90241 23.9834 5.01074C24.6905 6.14518 25.3529 7.34255 26.2627 8.84473C27.9951 11.705 30.2671 15.0443 33.6357 17.6592C37.0394 20.3012 41.4973 22.1543 47.5 22.1543C53.7364 22.1543 58.3874 20.3395 61.9766 17.7451C65.5335 15.174 67.982 11.8834 69.8916 9.05469C70.8746 7.59863 71.6551 6.35711 72.4365 5.26074C73.214 4.16998 73.85 3.43447 74.4258 3.01367C74.9404 2.63758 75.3084 2.57774 75.6973 2.67188C76.1923 2.79177 76.9617 3.22478 78.0713 4.41016C83.1703 9.85734 87.0414 17.8061 89.6357 26.1992C92.2253 34.5769 93.5 43.2568 93.5 50.0557C93.5 57.4738 92.2312 63.0663 90.0137 67.3008C87.8077 71.5131 84.6149 74.4739 80.5947 76.5693C72.4401 80.8197 60.9343 81.5 47.5 81.5C34.0657 81.5 22.5599 80.8197 14.4053 76.5693C10.3851 74.4739 7.19233 71.5131 4.98633 67.3008C2.76879 63.0663 1.5 57.4738 1.5 50.0557C1.50001 43.3884 3.9628 34.5729 7.51465 26.0264C11.0567 17.5035 15.5999 9.44275 19.6016 4.30664C20.5808 3.04985 21.2169 2.63634 21.5508 2.53027Z" fill="#87D1FF" stroke="#3696D6" stroke-width="3"/>
</mask>
<g mask="url(#mask0_257_417)">
<path d="M95 50.0557C95 80.3801 74.2689 83 47.5 83C20.7311 83 0 80.3801 0 50.0557C0 36.1306 10.207 13.9238 18.4184 3.38465C26.6297 -7.15446 24.8515 20.6547 47.5 20.6547C71.1701 20.6547 69.6697 -6.76079 79.1667 3.38465C89.7945 14.7381 95 36.1306 95 50.0557Z" fill="#87D1FF"/>
<rect x="-6.12939" y="27.9042" width="108.28" height="13.5323" fill="white"/>
<rect x="-6.12939" y="54.0022" width="108.28" height="13.5323" fill="white"/>
<path d="M21.5508 2.53027C21.7082 2.4803 21.8789 2.45129 22.2783 2.78613C22.7502 3.18184 23.2926 3.90241 23.9834 5.01074C24.6905 6.14518 25.3529 7.34255 26.2627 8.84473C27.9951 11.705 30.2671 15.0443 33.6357 17.6592C37.0394 20.3012 41.4973 22.1543 47.5 22.1543C53.7364 22.1543 58.3874 20.3395 61.9766 17.7451C65.5335 15.174 67.982 11.8834 69.8916 9.05469C70.8746 7.59863 71.6551 6.35711 72.4365 5.26074C73.214 4.16998 73.85 3.43447 74.4258 3.01367C74.9404 2.63758 75.3084 2.57774 75.6973 2.67188C76.1923 2.79177 76.9617 3.22478 78.0713 4.41016C83.1703 9.85734 87.0414 17.8061 89.6357 26.1992C92.2253 34.5769 93.5 43.2568 93.5 50.0557C93.5 57.4738 92.2312 63.0663 90.0137 67.3008C87.8077 71.5131 84.6149 74.4739 80.5947 76.5693C72.4401 80.8197 60.9343 81.5 47.5 81.5C34.0657 81.5 22.5599 80.8197 14.4053 76.5693C10.3851 74.4739 7.19233 71.5131 4.98633 67.3008C2.76879 63.0663 1.5 57.4738 1.5 50.0557C1.50001 43.3884 3.9628 34.5729 7.51465 26.0264C11.0567 17.5035 15.5999 9.44275 19.6016 4.30664C20.5808 3.04985 21.2169 2.63634 21.5508 2.53027Z" stroke="#3696D6" stroke-width="3"/>
</g>
<path d="M27.8504 56.7854C27.2525 56.8545 26.8345 56.8758 26.2512 56.9634C24.8301 57.177 23.5751 57.083 22.3558 56.3272C21.2633 55.6498 20.3415 54.5142 19.3203 53.1245C18.0295 51.3679 16.1795 47.3398 14.6101 43.3855C13.0335 39.4126 11.6011 35.1628 11.2416 32.8819C10.4873 28.0952 11.0171 24.0933 12.448 21.1341C13.8821 18.1686 16.2564 16.2142 19.0805 15.7897C20.8901 15.5179 22.4434 16.4508 23.6333 17.6742C24.8341 18.9087 25.8908 20.6542 26.8008 22.6049C28.6291 26.5241 30.0367 31.6526 30.772 36.318C31.0863 38.3123 31.7088 41.5262 32.1185 44.4986C32.3268 46.0102 32.4908 47.5272 32.5449 48.898C32.5979 50.2433 32.5508 51.5605 32.2772 52.6196C31.786 54.521 30.9974 55.7601 29.609 56.3642C29.0026 56.6279 28.3765 56.7246 27.8504 56.7854Z" fill="#FF8E24" stroke="#8C4107" stroke-width="3"/>
<path d="M67.2619 56.7854C67.8598 56.8545 68.2778 56.8758 68.8611 56.9634C70.2822 57.177 71.5373 57.083 72.7565 56.3272C73.849 55.6498 74.7708 54.5142 75.792 53.1245C77.0828 51.3679 78.9329 47.3398 80.5022 43.3855C82.0788 39.4126 83.5112 35.1628 83.8707 32.8819C84.6101 28.1898 84.4668 24.2367 83.4448 21.2939C82.4046 18.2986 80.3869 16.2298 77.4603 15.7901C75.6798 15.5225 74.0529 16.4262 72.7514 17.6106C71.4199 18.8223 70.1761 20.5477 69.0778 22.5037C66.8761 26.4247 65.0868 31.5815 64.3403 36.318C64.0261 38.3123 63.4035 41.5262 62.9938 44.4986C62.7855 46.0102 62.6215 47.5272 62.5674 48.898C62.5144 50.2433 62.5615 51.5605 62.8351 52.6196C63.3263 54.521 64.1149 55.7601 65.5033 56.3642C66.1097 56.6279 66.7358 56.7246 67.2619 56.7854Z" fill="#FF8E24" stroke="#8C4107" stroke-width="3"/>
<path d="M33 47.5C33 50.5376 29.366 56.9999 25.5 56.9999C21.634 56.9999 16.2892 49.5929 16.2892 46.5553C14.7893 43.0553 19.4232 41.0553 23.2892 41.0553C27.1552 41.0553 32.5 41 33 47.5Z" fill="#8C4107"/>
<path d="M62.789 47.577C62.789 50.6145 64.423 56.577 68.289 56.577C72.155 56.577 78.5 50.6145 78.5 47.5769C80 44.0769 73.655 42.077 69.789 42.077C65.923 42.077 63.289 41.077 62.789 47.577Z" fill="#8C4107"/>
</svg>
