<svg width="91" height="76" viewBox="0 0 91 76" fill="none" xmlns="http://www.w3.org/2000/svg">
<mask id="mask0_257_634" style="mask-type:alpha" maskUnits="userSpaceOnUse" x="0" y="0" width="91" height="76">
<path d="M20.6494 1.52734C20.7952 1.48259 20.9504 1.45639 21.3184 1.75488C21.7592 2.11253 22.2721 2.7686 22.9326 3.79395C23.611 4.84696 24.2381 5.94698 25.1143 7.34668C26.7769 10.0028 28.9617 13.1087 32.2002 15.541C35.4716 17.998 39.7484 19.7168 45.5 19.7168C51.4756 19.7168 55.9376 18.0337 59.3857 15.6221C62.8035 13.2315 65.1562 10.1718 66.9883 7.5459C67.9329 6.19199 68.6761 5.04729 69.4238 4.03223C70.1666 3.02391 70.7691 2.35159 71.3105 1.96875C71.7917 1.62857 72.1374 1.57192 72.5059 1.6582C72.9718 1.76734 73.6995 2.16215 74.7549 3.25293C79.6245 8.28637 83.3247 15.6354 85.8057 23.4014C88.282 31.1531 89.4999 39.1821 89.5 45.4658C89.5 52.3224 88.2884 57.48 86.1777 61.3799C84.078 65.2595 81.0353 67.9945 77.1904 69.9336C69.3871 73.869 58.3708 74.5 45.5 74.5C32.6292 74.5 21.6129 73.869 13.8096 69.9336C9.96471 67.9945 6.92205 65.2595 4.82227 61.3799C2.71163 57.48 1.5 52.3224 1.5 45.4658C1.50011 39.3177 3.84979 31.1691 7.25 23.2529C10.6393 15.3622 14.986 7.90213 18.8115 3.15137C19.7428 1.99483 20.3411 1.6221 20.6494 1.52734Z" fill="#87D1FF" stroke="#3696D6" stroke-width="3"/>
</mask>
<g mask="url(#mask0_257_634)">
<path d="M91 45.4663C91 73.5718 71.1418 76 45.5 76C19.8582 76 0 73.5718 0 45.4663C0 32.5601 9.77723 9.92408 17.6429 0.156131C25.5085 -9.61182 23.8051 18.2165 45.5 18.2165C68.1734 18.2165 65.9029 -6.40315 75 2.99994C85.1803 13.5226 91 32.5601 91 45.4663Z" fill="#F54346"/>
<path d="M12 51C13.8603 51 15.3805 53.3223 15.4922 56.2539C17.4462 54.212 20.0029 53.487 21.3887 54.6523C22.868 55.8965 22.4534 58.8244 20.4629 61.1914C20.3622 61.3112 20.2555 61.4285 20.1465 61.5459C20.4694 61.5154 20.7894 61.5 21.1006 61.5C24.1932 61.5002 26.7002 63.0671 26.7002 65C26.7002 66.9329 24.1931 68.4998 21.1006 68.5C21.009 68.5 20.9162 68.4978 20.8232 68.4951C22.6461 70.8171 22.9859 73.5931 21.5557 74.7959C20.1699 75.9613 17.6142 75.2363 15.6602 73.1943C15.5486 76.1261 14.0274 78.4482 12.167 78.4482C10.3067 78.448 8.78541 76.126 8.67383 73.1943C6.71983 75.2361 4.16405 75.9612 2.77832 74.7959C1.34909 73.5936 1.68743 70.8192 3.50781 68.498C0.457602 68.4672 -1.99998 66.9137 -2 65C-2 63.1337 0.337329 61.6089 3.28223 61.5059C3.18659 61.4017 3.09299 61.2973 3.00391 61.1914C1.01339 58.8244 0.599713 55.8964 2.0791 54.6523C3.55853 53.4088 6.37093 54.319 8.36133 56.6855C8.40932 56.7426 8.45673 56.8014 8.50391 56.8604C8.5015 56.773 8.5 56.6858 8.5 56.5996C8.50012 53.507 10.0671 51.0001 12 51Z" fill="#FFF6F6"/>
<path d="M36 26C37.8603 26 39.3805 28.3223 39.4922 31.2539C41.4462 29.212 44.0029 28.487 45.3887 29.6523C46.868 30.8965 46.4534 33.8244 44.4629 36.1914C44.3622 36.3112 44.2555 36.4285 44.1465 36.5459C44.4694 36.5154 44.7894 36.5 45.1006 36.5C48.1932 36.5002 50.7002 38.0671 50.7002 40C50.7002 41.9329 48.1931 43.4998 45.1006 43.5C45.009 43.5 44.9162 43.4978 44.8232 43.4951C46.6461 45.8171 46.9859 48.5931 45.5557 49.7959C44.1699 50.9613 41.6142 50.2363 39.6602 48.1943C39.5486 51.1261 38.0274 53.4482 36.167 53.4482C34.3067 53.448 32.7854 51.126 32.6738 48.1943C30.7198 50.2361 28.164 50.9612 26.7783 49.7959C25.3491 48.5936 25.6874 45.8192 27.5078 43.498C24.4576 43.4672 22 41.9137 22 40C22 38.1337 24.3373 36.6089 27.2822 36.5059C27.1866 36.4017 27.093 36.2973 27.0039 36.1914C25.0134 33.8244 24.5997 30.8964 26.0791 29.6523C27.5585 28.4088 30.3709 29.319 32.3613 31.6855C32.4093 31.7426 32.4567 31.8014 32.5039 31.8604C32.5015 31.773 32.5 31.6858 32.5 31.5996C32.5001 28.507 34.0671 26.0001 36 26Z" fill="#FFF6F6"/>
<path d="M56 57C57.8603 57 59.3805 59.3223 59.4922 62.2539C61.4462 60.212 64.0029 59.487 65.3887 60.6523C66.868 61.8965 66.4534 64.8244 64.4629 67.1914C64.3622 67.3112 64.2555 67.4285 64.1465 67.5459C64.4694 67.5154 64.7894 67.5 65.1006 67.5C68.1932 67.5002 70.7002 69.0671 70.7002 71C70.7002 72.9329 68.1931 74.4998 65.1006 74.5C65.009 74.5 64.9162 74.4978 64.8232 74.4951C66.6461 76.8171 66.9859 79.5931 65.5557 80.7959C64.1699 81.9613 61.6142 81.2363 59.6602 79.1943C59.5486 82.1261 58.0274 84.4482 56.167 84.4482C54.3067 84.448 52.7854 82.126 52.6738 79.1943C50.7198 81.2361 48.164 81.9612 46.7783 80.7959C45.3491 79.5936 45.6874 76.8192 47.5078 74.498C44.4576 74.4672 42 72.9137 42 71C42 69.1337 44.3373 67.6089 47.2822 67.5059C47.1866 67.4017 47.093 67.2973 47.0039 67.1914C45.0134 64.8244 44.5997 61.8964 46.0791 60.6523C47.5585 59.4088 50.3709 60.319 52.3613 62.6855C52.4093 62.7426 52.4567 62.8014 52.5039 62.8604C52.5015 62.773 52.5 62.6858 52.5 62.5996C52.5001 59.507 54.0671 57.0001 56 57Z" fill="#FFF6F6"/>
<path d="M72 16C73.8603 16 75.3805 18.3223 75.4922 21.2539C77.4462 19.212 80.0029 18.487 81.3887 19.6523C82.868 20.8965 82.4534 23.8244 80.4629 26.1914C80.3622 26.3112 80.2555 26.4285 80.1465 26.5459C80.4694 26.5154 80.7894 26.5 81.1006 26.5C84.1932 26.5002 86.7002 28.0671 86.7002 30C86.7002 31.9329 84.1931 33.4998 81.1006 33.5C81.009 33.5 80.9162 33.4978 80.8232 33.4951C82.6461 35.8171 82.9859 38.5931 81.5557 39.7959C80.1699 40.9613 77.6142 40.2363 75.6602 38.1943C75.5486 41.1261 74.0274 43.4482 72.167 43.4482C70.3067 43.448 68.7854 41.126 68.6738 38.1943C66.7198 40.2361 64.164 40.9612 62.7783 39.7959C61.3491 38.5936 61.6874 35.8192 63.5078 33.498C60.4576 33.4672 58 31.9137 58 30C58 28.1337 60.3373 26.6089 63.2822 26.5059C63.1866 26.4017 63.093 26.2973 63.0039 26.1914C61.0134 23.8244 60.5997 20.8964 62.0791 19.6523C63.5585 18.4088 66.3709 19.319 68.3613 21.6855C68.4093 21.7426 68.4567 21.8014 68.5039 21.8604C68.5015 21.773 68.5 21.6858 68.5 21.5996C68.5001 18.507 70.0671 16.0001 72 16Z" fill="#FFF6F6"/>
<path d="M92 43C93.8603 43 95.3805 45.3223 95.4922 48.2539C97.4462 46.212 100.003 45.487 101.389 46.6523C102.868 47.8965 102.453 50.8244 100.463 53.1914C100.362 53.3112 100.256 53.4285 100.146 53.5459C100.469 53.5154 100.789 53.5 101.101 53.5C104.193 53.5002 106.7 55.0671 106.7 57C106.7 58.9329 104.193 60.4998 101.101 60.5C101.009 60.5 100.916 60.4978 100.823 60.4951C102.646 62.8171 102.986 65.5931 101.556 66.7959C100.17 67.9613 97.6142 67.2363 95.6602 65.1943C95.5486 68.1261 94.0274 70.4482 92.167 70.4482C90.3067 70.448 88.7854 68.126 88.6738 65.1943C86.7198 67.2361 84.164 67.9612 82.7783 66.7959C81.3491 65.5936 81.6874 62.8192 83.5078 60.498C80.4576 60.4672 78 58.9137 78 57C78 55.1337 80.3373 53.6089 83.2822 53.5059C83.1866 53.4017 83.093 53.2973 83.0039 53.1914C81.0134 50.8244 80.5997 47.8964 82.0791 46.6523C83.5585 45.4088 86.3709 46.319 88.3613 48.6855C88.4093 48.7426 88.4567 48.8014 88.5039 48.8604C88.5015 48.773 88.5 48.6858 88.5 48.5996C88.5001 45.507 90.0671 43.0001 92 43Z" fill="#FFF6F6"/>
<path d="M20.5986 0.558228C20.7066 0.529104 20.8668 0.490274 21.2686 0.846313C21.7271 1.25272 22.2499 1.97226 22.9121 3.06018C23.6049 4.19833 24.2107 5.31869 25.0977 6.8053C26.7587 9.58925 28.9395 12.8278 32.1758 15.3619C35.4477 17.9238 39.7333 19.7164 45.5 19.7164C51.4647 19.7164 55.9011 18.0898 59.3193 15.7555C62.7095 13.4403 65.0232 10.478 66.8154 7.94885C67.7397 6.64448 68.4614 5.54988 69.1875 4.58362C69.9091 3.62332 70.4861 3.00054 70.999 2.65588C71.4437 2.35718 71.7722 2.30623 72.1494 2.40491C72.6267 2.5298 73.3617 2.94687 74.4219 4.0426C79.3061 9.09114 83.087 16.2591 85.6465 23.8199C88.2031 31.3723 89.5 39.1962 89.5 45.4664C89.5 52.3231 88.2885 57.4806 86.1777 61.3805C84.078 65.26 81.0352 67.9942 77.1904 69.9332C69.3871 73.8686 58.3708 74.4996 45.5 74.4996C32.6292 74.4996 21.6129 73.8686 13.8096 69.9332C9.9648 67.9942 6.92202 65.26 4.82227 61.3805C2.71152 57.4806 1.50003 52.3231 1.5 45.4664C1.5 39.3115 3.85384 30.9019 7.25684 22.7242C10.6503 14.5696 14.996 6.86195 18.8115 2.12366C19.7422 0.967986 20.3237 0.632525 20.5986 0.558228Z" stroke="#8E1E20" stroke-width="3"/>
</g>
<path d="M26.5805 56.7524C26.0108 56.8171 25.6204 56.8369 25.0692 56.9182C23.7177 57.1178 22.512 57.0318 21.3362 56.3155C20.2843 55.6746 19.4007 54.6025 18.4342 53.3099C17.7925 52.4517 17.0426 51.0775 16.2918 49.5279C15.5273 47.9499 14.7175 46.0973 13.9606 44.2231C12.4683 40.5277 11.1072 36.5622 10.7644 34.4245C10.0328 29.8621 10.8694 25.8241 12.5198 22.8061C14.1425 19.8389 16.6629 17.6884 19.3978 17.2846C21.2416 17.0124 22.6887 18.0902 23.7006 19.3618C24.7222 20.6459 25.5654 22.4311 26.2719 24.3756C27.6944 28.2909 28.7262 33.3224 29.4117 37.5968C29.7078 39.4431 30.2992 42.4452 30.687 45.2103C30.8846 46.6187 31.0408 48.0347 31.0923 49.3159C31.1426 50.5713 31.0986 51.8102 30.8351 52.8126C30.3646 54.6029 29.6032 55.7826 28.2624 56.356C27.68 56.605 27.0796 56.6957 26.5805 56.7524Z" fill="#FFE7C8" stroke="#2C2300" stroke-width="3"/>
<path d="M65.3673 56.7524C65.9369 56.8171 66.3273 56.8369 66.8785 56.9182C68.23 57.1178 69.4358 57.0318 70.6116 56.3155C71.6635 55.6746 72.547 54.6025 73.5136 53.3099C74.1553 52.4517 74.9052 51.0775 75.6559 49.5279C76.4205 47.9499 77.2302 46.0973 77.9871 44.2231C79.4795 40.5277 80.8405 36.5622 81.1833 34.4245C82.6329 25.3852 77.8576 18.9676 72.5502 18.1839C70.7688 17.9209 69.3287 18.8639 68.2853 20.0742C67.2481 21.2771 66.397 22.9576 65.6865 24.7966C64.2563 28.4987 63.2226 33.3157 62.536 37.5968C62.24 39.4431 61.6485 42.4452 61.2607 45.2103C61.0632 46.6187 60.9069 48.0347 60.8555 49.3159C60.8051 50.5713 60.8492 51.8102 61.1126 52.8126C61.5832 54.6029 62.3446 55.7826 63.6853 56.356C64.2677 56.605 64.8681 56.6957 65.3673 56.7524Z" fill="#FFE7C8" stroke="#2C2300" stroke-width="3"/>
</svg>
