<svg width="92" height="92" viewBox="0 0 92 92" fill="none" xmlns="http://www.w3.org/2000/svg">
<path d="M88.7576 48.4175C88.7576 79.7899 69.4905 78.5003 45.2576 78.5003C21.0247 78.5003 2.75757 79.7899 2.75757 48.4175C2.75757 34.0111 6.75757 9.00024 18.2576 3.5003C34.8431 -4.43184 32.6525 13.5003 45.7576 13.5003C58.8626 13.5003 52.2576 2.50032 65.7576 1.50032C79.6234 0.473221 88.7576 34.0111 88.7576 48.4175Z" fill="#F9F9F9"/>
<path d="M29.7576 2.50031L37.5583 9.89044C38.676 10.9494 40.0232 11.7359 41.4949 12.1887L42.6946 12.5579C44.6867 13.1708 46.8205 13.146 48.7978 12.4869L49.6606 12.1993C51.0419 11.7389 52.306 10.9823 53.3646 9.98259L60.7576 3.00031" stroke="#848484" stroke-width="3"/>
<path d="M42.1824 73.0003L41.3289 90.5003H17.9939L14.5789 73.0003H42.1824Z" fill="#688C46" stroke="#1C5320" stroke-width="3"/>
<path d="M49.3328 73.0003L50.1863 90.5003H73.5212L76.9363 73.0003H49.3328Z" fill="#688C46" stroke="#1C5320" stroke-width="3"/>
<path d="M66.7578 21.5001L65.1152 22.9171C85.203 18.8561 83.7121 14.7603 87.2578 28.5001C91.2578 43.9999 90.8281 37.5133 89.7578 49.5001C87.2578 77.5 71.7575 82 45.709 82.5001C21.5035 82.5001 2.25781 79.2292 2.25781 50.0001C2.25778 36.7549 0.257745 40.5 3.75781 28.5001C7.17292 16.7914 5.3209 20.9288 27.4385 23.9893L24.2578 21.5001L18.7578 0.500061L30.2578 2.00006L34.665 24.8419C37.9378 25.1663 41.6019 25.4533 45.709 25.668C49.9393 25.2854 53.6906 24.8244 57.0225 24.3292L61.2578 2.00006L72.2578 0.500061L66.7578 21.5001Z" fill="#688C46"/>
<path d="M74.2576 46.0003V66.0901C56.0455 71.9161 36.4696 71.9161 18.2576 66.0901V46.0003H74.2576Z" fill="#688C46" stroke="#1C5320" stroke-width="3"/>
<path d="M29.2576 2.00031L35.4064 23.7579C35.6202 24.5142 36.2571 25.0752 37.0344 25.1918L44.3095 26.2831C45.2698 26.4271 46.2459 26.4305 47.2071 26.2932L54.8814 25.1969C55.7087 25.0787 56.3753 24.4585 56.5529 23.6419L61.2576 2.00031" stroke="#1C5320" stroke-width="3"/>
<path d="M10.6016 29.4196C9.14788 19.972 15.0583 24.817 19.5805 24.1211C24.1027 23.4253 25.8787 23.9876 27.3325 33.4352C28 37.7736 29.7651 46.1759 28.8831 49.6728C28.0012 53.1698 26.4745 52.6547 24.0289 53.031C21.5833 53.4073 20.575 52.5954 18.4843 49.6814C16.1446 46.4205 11.2692 33.758 10.6016 29.4196Z" fill="#FFE7C8"/>
<path d="M80.4418 28.4196C81.8956 18.972 75.9852 23.817 71.463 23.1211C66.9407 22.4253 65.1647 22.9876 63.711 32.4352C63.0434 36.7736 61.2784 45.1759 62.1603 48.6728C63.0423 52.1698 64.5689 51.6547 67.0145 52.031C69.4601 52.4073 70.4685 51.5954 72.5592 48.6814C74.8989 45.4205 79.7743 32.758 80.4418 28.4196Z" fill="#FFE7C8"/>
<path d="M10.2454 29.8475L14.7495 42.6416L17.6105 48.4211C17.9501 49.107 18.4114 49.7255 18.9719 50.2465C21.7345 52.814 26.1164 52.406 28.3573 49.3726L28.7452 48.8475" stroke="#2C2300" stroke-width="3" stroke-linecap="round"/>
<path d="M25.2576 25.5002L28.506 37.461C28.7955 38.5271 28.9873 39.6174 29.0789 40.7183L29.4434 45.0982C29.5852 46.8027 29.0845 48.4986 28.0396 49.8527" stroke="#2C2300" stroke-width="3" stroke-linecap="round"/>
<path d="M81.4578 29.8475L76.9536 42.6415L74.0926 48.421C73.7531 49.1069 73.2918 49.7254 72.7312 50.2465C69.9687 52.814 65.5868 52.4059 63.3458 49.3725L62.9579 48.8475" stroke="#2C2300" stroke-width="3" stroke-linecap="round"/>
<path d="M66.2576 23.5001L62.7618 39.0634L62.2596 45.0982C62.1178 46.8027 62.6185 48.4986 63.6634 49.8527" stroke="#2C2300" stroke-width="3" stroke-linecap="round"/>
<path d="M6.75758 28.0003L9.25758 19.0003L25.2576 22.5003L29.2576 35.0003L11.2576 41.0004L6.75758 28.0003Z" fill="#F9F9F9"/>
<path d="M6.25757 25.0003L11.2576 41.5003L29.2576 35.5003L18.7576 2.50031" stroke="#848484" stroke-width="3" stroke-linecap="round"/>
<path d="M84.7575 26.5003L81.2575 17.9847L66.2576 20.5002L61.4299 34.4875L79.4299 40.4876L84.7575 26.5003Z" fill="#F9F9F9"/>
<path d="M84.7576 25.0003L79.4299 40.9875L61.4299 34.9875L72.2576 2.00031" stroke="#848484" stroke-width="3" stroke-linecap="round"/>
<path d="M17.2576 1.50031L10.2576 15.0003L6.75757 24.0003" stroke="#848484" stroke-width="3" stroke-linecap="round"/>
<path d="M73.2576 1.50031L77.1842 8.30643C79.5634 12.4304 81.6451 16.7191 83.4133 21.1396L84.7576 24.5003" stroke="#848484" stroke-width="3" stroke-linecap="round"/>
<path d="M16.2576 77.5003L12.9575 74.9336C9.21219 72.0206 6.21988 68.252 4.23152 63.9439C2.27644 59.7079 1.34756 55.0706 1.52023 50.4084L1.75757 44.0003L4.25757 31.0003" stroke="#1C5320" stroke-width="3" stroke-linecap="round"/>
<path d="M74.7576 78.0003L81.0337 71.7241C83.4962 69.2617 85.4957 66.3764 86.9368 63.206C88.7921 59.1244 89.6772 54.6685 89.5226 50.1876L89.2576 42.5003L86.7576 30.5003" stroke="#1C5320" stroke-width="3" stroke-linecap="round"/>
<path d="M28.7576 80.5003C39.9382 83.1311 51.5769 83.1311 62.7576 80.5003" stroke="#1C5320" stroke-width="3" stroke-linecap="round"/>
</svg>
