<svg width="93" height="109" viewBox="0 0 93 109" fill="none" xmlns="http://www.w3.org/2000/svg">
<mask id="path-1-inside-1_259_436" fill="white">
<path d="M86.2607 90H48.3916V83.25H44.6084V90H6.73828L4.8916 83.25L3 63H90L88.1084 83.25L86.2607 90Z"/>
</mask>
<path d="M86.2607 90H48.3916V83.25H44.6084V90H6.73828L4.8916 83.25L3 63H90L88.1084 83.25L86.2607 90Z" fill="#E3E300"/>
<path d="M86.2607 90V93H88.5499L89.1543 90.792L86.2607 90ZM48.3916 90H45.3916V93H48.3916V90ZM48.3916 83.25H51.3916V80.25H48.3916V83.25ZM44.6084 83.25V80.25H41.6084V83.25H44.6084ZM44.6084 90V93H47.6084V90H44.6084ZM6.73828 90L3.84462 90.7917L4.44878 93H6.73828V90ZM4.8916 83.25L1.90461 83.529L1.92893 83.7894L1.99794 84.0417L4.8916 83.25ZM3 63V60H-0.293298L0.0130038 63.279L3 63ZM90 63L92.987 63.279L93.2933 60H90V63ZM88.1084 83.25L91.002 84.042L91.0711 83.7896L91.0954 83.529L88.1084 83.25ZM86.2607 90V87H48.3916V90V93H86.2607V90ZM48.3916 90H51.3916V83.25H48.3916H45.3916V90H48.3916ZM48.3916 83.25V80.25H44.6084V83.25V86.25H48.3916V83.25ZM44.6084 83.25H41.6084V90H44.6084H47.6084V83.25H44.6084ZM44.6084 90V87H6.73828V90V93H44.6084V90ZM6.73828 90L9.63194 89.2083L7.78526 82.4583L4.8916 83.25L1.99794 84.0417L3.84462 90.7917L6.73828 90ZM4.8916 83.25L7.8786 82.971L5.987 62.721L3 63L0.0130038 63.279L1.90461 83.529L4.8916 83.25ZM3 63V66H90V63V60H3V63ZM90 63L87.013 62.721L85.1214 82.971L88.1084 83.25L91.0954 83.529L92.987 63.279L90 63ZM88.1084 83.25L85.2148 82.458L83.3672 89.208L86.2607 90L89.1543 90.792L91.002 84.042L88.1084 83.25Z" fill="#A99500" mask="url(#path-1-inside-1_259_436)"/>
<line x1="76.5" y1="66" x2="76.5" y2="87" stroke="white" stroke-width="3"/>
<line x1="81.5" y1="66" x2="81.5" y2="87" stroke="white" stroke-width="3"/>
<line x1="10.5" y1="66" x2="10.5" y2="87" stroke="white" stroke-width="3"/>
<line x1="15.5" y1="66" x2="15.5" y2="87" stroke="white" stroke-width="3"/>
</svg>
