<svg width="93" height="109" viewBox="0 0 93 109" fill="none" xmlns="http://www.w3.org/2000/svg">
<path d="M90 52.9172C90 84.2896 70.7329 83 46.5 83C22.2671 83 4 84.2896 4 52.9172C4 38.5108 8 13.4999 19.5 8C36.0856 0.0678558 33.895 18 47 18C60.105 18 53.5 7.00001 67 6.00001C80.8658 4.97292 90 38.5108 90 52.9172Z" fill="#F9F9F9"/>
<path d="M31 7L38.8007 14.3901C39.9185 15.4491 41.2657 16.2356 42.7373 16.6884L43.9371 17.0576C45.9291 17.6705 48.0629 17.6457 50.0402 16.9866L50.903 16.699C52.2843 16.2386 53.5484 15.482 54.607 14.4823L62 7.5" stroke="#848484" stroke-width="3"/>
<path d="M43.4248 77.5L42.5713 95H19.2363L15.8213 77.5H43.4248Z" fill="#688C46" stroke="#1C5320" stroke-width="3"/>
<path d="M50.5752 77.5L51.4287 95H74.7637L78.1787 77.5H50.5752Z" fill="#688C46" stroke="#1C5320" stroke-width="3"/>
<path d="M68.0002 25.9998L66.3577 27.4167C86.4454 23.3558 84.9545 19.26 88.5002 32.9998C92.5002 48.4996 92.0705 42.013 91.0002 53.9998C88.5002 81.9997 72.9999 86.4997 46.9514 86.9998C22.7459 86.9998 3.50024 83.7289 3.50024 54.4998C3.50021 41.2546 1.50018 44.9997 5.00024 32.9998C8.41535 21.2911 6.56333 25.4285 28.6809 28.489L25.5002 25.9998L20.0002 4.99976L31.5002 6.49976L35.9075 29.3416C39.1803 29.666 42.8443 29.953 46.9514 30.1677C51.1817 29.7851 54.933 29.3241 58.2649 28.8289L62.5002 6.49976L73.5002 4.99976L68.0002 25.9998Z" fill="#688C46"/>
<path d="M75.5 50.5V70.5898C57.288 76.4158 37.712 76.4158 19.5 70.5898V50.5H75.5Z" fill="#688C46" stroke="#1C5320" stroke-width="3"/>
<path d="M30.5 6.5L36.6489 28.2576C36.8626 29.0139 37.4995 29.5749 38.2768 29.6915L45.5519 30.7828C46.5122 30.9268 47.4883 30.9302 48.4496 30.7929L56.1238 29.6966C56.9512 29.5784 57.6178 28.9582 57.7953 28.1416L62.5 6.5" stroke="#1C5320" stroke-width="3"/>
<path d="M11.844 33.9193C10.3903 24.4717 16.3007 29.3167 20.8229 28.6208C25.3451 27.925 27.1212 28.4872 28.5749 37.9349C29.2425 42.2733 31.0075 50.6756 30.1256 54.1725C29.2436 57.6694 27.7169 57.1544 25.2713 57.5307C22.8257 57.907 21.8174 57.0951 19.7267 54.1811C17.387 50.9202 12.5116 38.2577 11.844 33.9193Z" fill="#FFE7C8"/>
<path d="M81.6843 32.9193C83.138 23.4717 77.2276 28.3167 72.7054 27.6208C68.1832 26.925 66.4071 27.4872 64.9534 36.9349C64.2859 41.2733 62.5208 49.6756 63.4028 53.1725C64.2847 56.6694 65.8114 56.1544 68.257 56.5307C70.7026 56.907 71.7109 56.0951 73.8016 53.1811C76.1413 49.9202 81.0167 37.2577 81.6843 32.9193Z" fill="#FFE7C8"/>
<path d="M11.4878 34.3472L15.992 47.1413L18.853 52.9208C19.1925 53.6067 19.6538 54.2252 20.2144 54.7462C22.9769 57.3137 27.3588 56.9057 29.5998 53.8723L29.9877 53.3472" stroke="#2C2300" stroke-width="3" stroke-linecap="round"/>
<path d="M26.5 29.9999L29.7484 41.9607C30.038 43.0268 30.2297 44.1171 30.3213 45.218L30.6858 49.5979C30.8276 51.3024 30.3269 52.9983 29.282 54.3524" stroke="#2C2300" stroke-width="3" stroke-linecap="round"/>
<path d="M82.7002 34.3472L78.196 47.1412L75.335 52.9207C74.9955 53.6066 74.5342 54.2251 73.9736 54.7462C71.2111 57.3137 66.8292 56.9056 64.5882 53.8722L64.2003 53.3472" stroke="#2C2300" stroke-width="3" stroke-linecap="round"/>
<path d="M67.5 27.9998L64.0042 43.5631L63.502 49.5979C63.3602 51.3024 63.8609 52.9983 64.9058 54.3524" stroke="#2C2300" stroke-width="3" stroke-linecap="round"/>
<path d="M8.00001 32.5L10.5 23.5L26.5 27L30.5 39.5L12.5 45.5L8.00001 32.5Z" fill="#F9F9F9"/>
<path d="M7.5 29.5L12.5 46L30.5 40L20 7" stroke="#848484" stroke-width="3" stroke-linecap="round"/>
<path d="M86 31L82.5 22.4844L67.5 24.9999L62.6723 38.9872L80.6724 44.9872L86 31Z" fill="#F9F9F9"/>
<path d="M86 29.5L80.6724 45.4872L62.6724 39.4872L73.5 6.5" stroke="#848484" stroke-width="3" stroke-linecap="round"/>
<path d="M18.5 6L11.5 19.5L8 28.5" stroke="#848484" stroke-width="3" stroke-linecap="round"/>
<path d="M74.5 6L78.4266 12.8061C80.8058 16.9301 82.8875 21.2187 84.6557 25.6393L86 29" stroke="#848484" stroke-width="3" stroke-linecap="round"/>
<path d="M17.5 82L14.2 79.4333C10.4546 76.5203 7.46231 72.7517 5.47395 68.4436C3.51888 64.2076 2.58999 59.5703 2.76266 54.9081L3 48.5L5.5 35.5" stroke="#1C5320" stroke-width="3" stroke-linecap="round"/>
<path d="M76 82.5L82.2762 76.2238C84.7386 73.7614 86.7382 70.8761 88.1792 67.7057C90.0345 63.624 90.9196 59.1682 90.7651 54.6873L90.5 47L88 35" stroke="#1C5320" stroke-width="3" stroke-linecap="round"/>
<path d="M30 85C41.1807 87.6307 52.8193 87.6307 64 85" stroke="#1C5320" stroke-width="3" stroke-linecap="round"/>
</svg>
