<svg width="91" height="76" viewBox="0 0 91 76" fill="none" xmlns="http://www.w3.org/2000/svg">
<mask id="mask0_257_334" style="mask-type:alpha" maskUnits="userSpaceOnUse" x="0" y="0" width="91" height="76">
<path d="M20.6494 1.52734C20.7952 1.48259 20.9504 1.45639 21.3184 1.75488C21.7592 2.11253 22.2721 2.7686 22.9326 3.79395C23.611 4.84696 24.2381 5.94698 25.1143 7.34668C26.7769 10.0028 28.9617 13.1087 32.2002 15.541C35.4716 17.998 39.7484 19.7168 45.5 19.7168C51.4756 19.7168 55.9376 18.0337 59.3857 15.6221C62.8035 13.2315 65.1562 10.1718 66.9883 7.5459C67.9329 6.19199 68.6761 5.04729 69.4238 4.03223C70.1666 3.02391 70.7691 2.35159 71.3105 1.96875C71.7917 1.62857 72.1374 1.57192 72.5059 1.6582C72.9718 1.76734 73.6995 2.16215 74.7549 3.25293C79.6245 8.28637 83.3247 15.6354 85.8057 23.4014C88.282 31.1531 89.4999 39.1821 89.5 45.4658C89.5 52.3224 88.2884 57.48 86.1777 61.3799C84.078 65.2595 81.0353 67.9945 77.1904 69.9336C69.3871 73.869 58.3708 74.5 45.5 74.5C32.6292 74.5 21.6129 73.869 13.8096 69.9336C9.96471 67.9945 6.92205 65.2595 4.82227 61.3799C2.71163 57.48 1.5 52.3224 1.5 45.4658C1.50011 39.3177 3.84979 31.1691 7.25 23.2529C10.6393 15.3622 14.986 7.90213 18.8115 3.15137C19.7428 1.99483 20.3411 1.6221 20.6494 1.52734Z" fill="#87D1FF" stroke="#3696D6" stroke-width="3"/>
</mask>
<g mask="url(#mask0_257_334)">
<path d="M91 45.4663C91 73.5719 71.1418 76.0001 45.5 76.0001C19.8582 76.0001 0 73.5719 0 45.4663C0 32.5602 9.77723 9.92415 17.6429 0.156192C25.5085 -9.61176 23.8051 18.2166 45.5 18.2166C68.1734 18.2166 65.9029 -6.40309 75 3C85.1803 13.5227 91 32.5602 91 45.4663Z" fill="#87D1FF"/>
<rect x="-6" y="25" width="94" height="12" fill="white"/>
<rect x="-5.87061" y="49.124" width="103.72" height="12.5422" fill="white"/>
<path d="M20.5986 0.558228C20.7066 0.529104 20.8668 0.490274 21.2686 0.846313C21.7271 1.25272 22.2499 1.97226 22.9121 3.06018C23.6049 4.19833 24.2107 5.31869 25.0977 6.8053C26.7587 9.58925 28.9395 12.8278 32.1758 15.3619C35.4477 17.9238 39.7333 19.7164 45.5 19.7164C51.4647 19.7164 55.9011 18.0898 59.3193 15.7555C62.7095 13.4403 65.0232 10.478 66.8154 7.94885C67.7397 6.64448 68.4614 5.54988 69.1875 4.58362C69.9091 3.62332 70.4861 3.00054 70.999 2.65588C71.4437 2.35718 71.7722 2.30623 72.1494 2.40491C72.6267 2.5298 73.3617 2.94687 74.4219 4.0426C79.3061 9.09114 83.087 16.2591 85.6465 23.8199C88.2031 31.3723 89.5 39.1962 89.5 45.4664C89.5 52.3231 88.2885 57.4806 86.1777 61.3805C84.078 65.26 81.0352 67.9942 77.1904 69.9332C69.3871 73.8686 58.3708 74.4996 45.5 74.4996C32.6292 74.4996 21.6129 73.8686 13.8096 69.9332C9.9648 67.9942 6.92202 65.26 4.82227 61.3805C2.71152 57.4806 1.50003 52.3231 1.5 45.4664C1.5 39.3115 3.85384 30.9019 7.25684 22.7242C10.6503 14.5696 14.996 6.86195 18.8115 2.12366C19.7422 0.967986 20.3237 0.632525 20.5986 0.558228Z" stroke="#3696D6" stroke-width="3"/>
</g>
<path d="M26.5805 56.7524C26.0108 56.8171 25.6204 56.8369 25.0692 56.9182C23.7177 57.1178 22.512 57.0318 21.3362 56.3155C20.2843 55.6746 19.4007 54.6025 18.4342 53.3099C17.7925 52.4517 17.0426 51.0775 16.2918 49.5279C15.5273 47.9499 14.7175 46.0973 13.9606 44.2231C12.4683 40.5277 11.1072 36.5622 10.7644 34.4245C10.0328 29.8621 10.8694 25.8241 12.5198 22.8061C14.1425 19.8389 16.6629 17.6884 19.3978 17.2846C21.2416 17.0124 22.6887 18.0902 23.7006 19.3618C24.7222 20.6459 25.5654 22.4311 26.2719 24.3756C27.6944 28.2909 28.7262 33.3224 29.4117 37.5968C29.7078 39.4431 30.2992 42.4452 30.687 45.2103C30.8846 46.6187 31.0408 48.0347 31.0923 49.3159C31.1426 50.5713 31.0986 51.8102 30.8351 52.8126C30.3646 54.6029 29.6032 55.7826 28.2624 56.356C27.68 56.605 27.0796 56.6957 26.5805 56.7524Z" fill="#FFE7C8" stroke="#2C2300" stroke-width="3"/>
<path d="M65.3673 56.7524C65.9369 56.8171 66.3273 56.8369 66.8785 56.9182C68.23 57.1178 69.4358 57.0318 70.6116 56.3155C71.6635 55.6746 72.547 54.6025 73.5136 53.3099C74.1553 52.4517 74.9052 51.0775 75.6559 49.5279C76.4205 47.9499 77.2302 46.0973 77.9871 44.2231C79.4795 40.5277 80.8405 36.5622 81.1833 34.4245C82.6329 25.3852 77.8576 18.9676 72.5502 18.1839C70.7688 17.9209 69.3287 18.8639 68.2853 20.0742C67.2481 21.2771 66.397 22.9576 65.6865 24.7966C64.2563 28.4987 63.2226 33.3157 62.536 37.5968C62.24 39.4431 61.6485 42.4452 61.2607 45.2103C61.0632 46.6187 60.9069 48.0347 60.8555 49.3159C60.8051 50.5713 60.8492 51.8102 61.1126 52.8126C61.5832 54.6029 62.3446 55.7826 63.6853 56.356C64.2677 56.605 64.8681 56.6957 65.3673 56.7524Z" fill="#FFE7C8" stroke="#2C2300" stroke-width="3"/>
</svg>
