<svg width="87" height="27" viewBox="0 0 87 27" fill="none" xmlns="http://www.w3.org/2000/svg">
<mask id="path-1-inside-1_259_436" fill="white">
<path d="M83.2607 27H45.3916V20.25H41.6084V27H3.73828L1.8916 20.25L0 0H87L85.1084 20.25L83.2607 27Z"/>
</mask>
<path d="M83.2607 27H45.3916V20.25H41.6084V27H3.73828L1.8916 20.25L0 0H87L85.1084 20.25L83.2607 27Z" fill="#E3E300"/>
<path d="M83.2607 27V30H85.5499L86.1543 27.792L83.2607 27ZM45.3916 27H42.3916V30H45.3916V27ZM45.3916 20.25H48.3916V17.25H45.3916V20.25ZM41.6084 20.25V17.25H38.6084V20.25H41.6084ZM41.6084 27V30H44.6084V27H41.6084ZM3.73828 27L0.844619 27.7917L1.44878 30H3.73828V27ZM1.8916 20.25L-1.09539 20.529L-1.07107 20.7894L-1.00206 21.0417L1.8916 20.25ZM0 0V-3H-3.2933L-2.987 0.279023L0 0ZM87 0L89.987 0.279023L90.2933 -3H87V0ZM85.1084 20.25L88.002 21.042L88.0711 20.7896L88.0954 20.529L85.1084 20.25ZM83.2607 27V24H45.3916V27V30H83.2607V27ZM45.3916 27H48.3916V20.25H45.3916H42.3916V27H45.3916ZM45.3916 20.25V17.25H41.6084V20.25V23.25H45.3916V20.25ZM41.6084 20.25H38.6084V27H41.6084H44.6084V20.25H41.6084ZM41.6084 27V24H3.73828V27V30H41.6084V27ZM3.73828 27L6.63194 26.2083L4.78526 19.4583L1.8916 20.25L-1.00206 21.0417L0.844619 27.7917L3.73828 27ZM1.8916 20.25L4.8786 19.971L2.987 -0.279023L0 0L-2.987 0.279023L-1.09539 20.529L1.8916 20.25ZM0 0V3H87V0V-3H0V0ZM87 0L84.013 -0.279023L82.1214 19.971L85.1084 20.25L88.0954 20.529L89.987 0.279023L87 0ZM85.1084 20.25L82.2148 19.458L80.3672 26.208L83.2607 27L86.1543 27.792L88.002 21.042L85.1084 20.25Z" fill="#A99500" mask="url(#path-1-inside-1_259_436)"/>
<line x1="73.5" y1="3" x2="73.5" y2="24" stroke="white" stroke-width="3"/>
<line x1="78.5" y1="3" x2="78.5" y2="24" stroke="white" stroke-width="3"/>
<line x1="7.5" y1="3" x2="7.5" y2="24" stroke="white" stroke-width="3"/>
<line x1="12.5" y1="3" x2="12.5" y2="24" stroke="white" stroke-width="3"/>
</svg>
