<svg width="93" height="109" viewBox="0 0 93 109" fill="none" xmlns="http://www.w3.org/2000/svg">
<mask id="mask0_257_334" style="mask-type:alpha" maskUnits="userSpaceOnUse" x="1" y="7" width="91" height="76">
<path d="M21.6494 8.52734C21.7952 8.48259 21.9504 8.45639 22.3184 8.75488C22.7592 9.11253 23.2721 9.7686 23.9326 10.7939C24.611 11.847 25.2381 12.947 26.1143 14.3467C27.7769 17.0028 29.9617 20.1087 33.2002 22.541C36.4716 24.998 40.7484 26.7168 46.5 26.7168C52.4756 26.7168 56.9376 25.0337 60.3857 22.6221C63.8035 20.2315 66.1562 17.1718 67.9883 14.5459C68.9329 13.192 69.6761 12.0473 70.4238 11.0322C71.1666 10.0239 71.7691 9.35159 72.3105 8.96875C72.7917 8.62857 73.1374 8.57192 73.5059 8.6582C73.9718 8.76734 74.6995 9.16215 75.7549 10.2529C80.6245 15.2864 84.3247 22.6354 86.8057 30.4014C89.282 38.1531 90.4999 46.1821 90.5 52.4658C90.5 59.3224 89.2884 64.48 87.1777 68.3799C85.078 72.2595 82.0353 74.9945 78.1904 76.9336C70.3871 80.869 59.3708 81.5 46.5 81.5C33.6292 81.5 22.6129 80.869 14.8096 76.9336C10.9647 74.9945 7.92205 72.2595 5.82227 68.3799C3.71163 64.48 2.5 59.3224 2.5 52.4658C2.50011 46.3177 4.84979 38.1691 8.25 30.2529C11.6393 22.3622 15.986 14.9021 19.8115 10.1514C20.7428 8.99483 21.3411 8.6221 21.6494 8.52734Z" fill="#87D1FF" stroke="#3696D6" stroke-width="3"/>
</mask>
<g mask="url(#mask0_257_334)">
<path d="M92 52.4663C92 80.5719 72.1418 83.0001 46.5 83.0001C20.8582 83.0001 1 80.5719 1 52.4663C1 39.5602 10.7772 16.9241 18.6429 7.15619C26.5085 -2.61176 24.8051 25.2166 46.5 25.2166C69.1734 25.2166 66.9029 0.596911 76 10C86.1803 20.5227 92 39.5602 92 52.4663Z" fill="#87D1FF"/>
<rect x="-5" y="32" width="94" height="12" fill="white"/>
<rect x="-4.87061" y="56.124" width="103.72" height="12.5422" fill="white"/>
<path d="M21.5986 7.55823C21.7066 7.5291 21.8668 7.49027 22.2686 7.84631C22.7271 8.25272 23.2499 8.97226 23.9121 10.0602C24.6049 11.1983 25.2107 12.3187 26.0977 13.8053C27.7587 16.5892 29.9395 19.8278 33.1758 22.3619C36.4477 24.9238 40.7333 26.7164 46.5 26.7164C52.4647 26.7164 56.9011 25.0898 60.3193 22.7555C63.7095 20.4403 66.0232 17.478 67.8154 14.9489C68.7397 13.6445 69.4614 12.5499 70.1875 11.5836C70.9091 10.6233 71.4861 10.0005 71.999 9.65588C72.4437 9.35718 72.7722 9.30623 73.1494 9.40491C73.6267 9.5298 74.3617 9.94687 75.4219 11.0426C80.3061 16.0911 84.087 23.2591 86.6465 30.8199C89.2031 38.3723 90.5 46.1962 90.5 52.4664C90.5 59.3231 89.2885 64.4806 87.1777 68.3805C85.078 72.26 82.0352 74.9942 78.1904 76.9332C70.3871 80.8686 59.3708 81.4996 46.5 81.4996C33.6292 81.4996 22.6129 80.8686 14.8096 76.9332C10.9648 74.9942 7.92202 72.26 5.82227 68.3805C3.71152 64.4806 2.50003 59.3231 2.5 52.4664C2.5 46.3115 4.85384 37.9019 8.25684 29.7242C11.6503 21.5696 15.996 13.8619 19.8115 9.12366C20.7422 7.96799 21.3237 7.63253 21.5986 7.55823Z" stroke="#3696D6" stroke-width="3"/>
</g>
<path d="M27.5805 63.7524C27.0108 63.8171 26.6204 63.8369 26.0692 63.9182C24.7177 64.1178 23.512 64.0318 22.3362 63.3155C21.2843 62.6746 20.4007 61.6025 19.4342 60.3099C18.7925 59.4517 18.0426 58.0775 17.2918 56.5279C16.5273 54.9499 15.7175 53.0973 14.9606 51.2231C13.4683 47.5277 12.1072 43.5622 11.7644 41.4245C11.0328 36.8621 11.8694 32.8241 13.5198 29.8061C15.1425 26.8389 17.6629 24.6884 20.3978 24.2846C22.2416 24.0124 23.6887 25.0902 24.7006 26.3618C25.7222 27.6459 26.5654 29.4311 27.2719 31.3756C28.6944 35.2909 29.7262 40.3224 30.4117 44.5968C30.7078 46.4431 31.2992 49.4452 31.687 52.2103C31.8846 53.6187 32.0408 55.0347 32.0923 56.3159C32.1426 57.5713 32.0986 58.8102 31.8351 59.8126C31.3646 61.6029 30.6032 62.7826 29.2624 63.356C28.68 63.605 28.0796 63.6957 27.5805 63.7524Z" fill="#FFE7C8" stroke="#2C2300" stroke-width="3"/>
<path d="M66.3673 63.7524C66.9369 63.8171 67.3273 63.8369 67.8785 63.9182C69.23 64.1178 70.4358 64.0318 71.6116 63.3155C72.6635 62.6746 73.547 61.6025 74.5136 60.3099C75.1553 59.4517 75.9052 58.0775 76.6559 56.5279C77.4205 54.9499 78.2302 53.0973 78.9871 51.2231C80.4795 47.5277 81.8405 43.5622 82.1833 41.4245C83.6329 32.3852 78.8576 25.9676 73.5502 25.1839C71.7688 24.9209 70.3287 25.8639 69.2853 27.0742C68.2481 28.2771 67.397 29.9576 66.6865 31.7966C65.2563 35.4987 64.2226 40.3157 63.536 44.5968C63.24 46.4431 62.6485 49.4452 62.2607 52.2103C62.0632 53.6187 61.9069 55.0347 61.8555 56.3159C61.8051 57.5713 61.8492 58.8102 62.1126 59.8126C62.5832 61.6029 63.3446 62.7826 64.6853 63.356C65.2677 63.605 65.8681 63.6957 66.3673 63.7524Z" fill="#FFE7C8" stroke="#2C2300" stroke-width="3"/>
</svg>
