<svg width="93" height="109" viewBox="0 0 93 109" fill="none" xmlns="http://www.w3.org/2000/svg">
<mask id="mask0_257_634" style="mask-type:alpha" maskUnits="userSpaceOnUse" x="1" y="7" width="91" height="76">
<path d="M21.6494 8.52734C21.7952 8.48259 21.9504 8.45639 22.3184 8.75488C22.7592 9.11253 23.2721 9.7686 23.9326 10.7939C24.611 11.847 25.2381 12.947 26.1143 14.3467C27.7769 17.0028 29.9617 20.1087 33.2002 22.541C36.4716 24.998 40.7484 26.7168 46.5 26.7168C52.4756 26.7168 56.9376 25.0337 60.3857 22.6221C63.8035 20.2315 66.1562 17.1718 67.9883 14.5459C68.9329 13.192 69.6761 12.0473 70.4238 11.0322C71.1666 10.0239 71.7691 9.35159 72.3105 8.96875C72.7917 8.62857 73.1374 8.57192 73.5059 8.6582C73.9718 8.76734 74.6995 9.16215 75.7549 10.2529C80.6245 15.2864 84.3247 22.6354 86.8057 30.4014C89.282 38.1531 90.4999 46.1821 90.5 52.4658C90.5 59.3224 89.2884 64.48 87.1777 68.3799C85.078 72.2595 82.0353 74.9945 78.1904 76.9336C70.3871 80.869 59.3708 81.5 46.5 81.5C33.6292 81.5 22.6129 80.869 14.8096 76.9336C10.9647 74.9945 7.92205 72.2595 5.82227 68.3799C3.71163 64.48 2.5 59.3224 2.5 52.4658C2.50011 46.3177 4.84979 38.1691 8.25 30.2529C11.6393 22.3622 15.986 14.9021 19.8115 10.1514C20.7428 8.99483 21.3411 8.6221 21.6494 8.52734Z" fill="#87D1FF" stroke="#3696D6" stroke-width="3"/>
</mask>
<g mask="url(#mask0_257_634)">
<path d="M92 52.4663C92 80.5718 72.1418 83 46.5 83C20.8582 83 1 80.5718 1 52.4663C1 39.5601 10.7772 16.9241 18.6429 7.15613C26.5085 -2.61182 24.8051 25.2165 46.5 25.2165C69.1734 25.2165 66.9029 0.59685 76 9.99994C86.1803 20.5226 92 39.5601 92 52.4663Z" fill="#F54346"/>
<path d="M13 58C14.8603 58 16.3805 60.3223 16.4922 63.2539C18.4462 61.212 21.0029 60.487 22.3887 61.6523C23.868 62.8965 23.4534 65.8244 21.4629 68.1914C21.3622 68.3112 21.2555 68.4285 21.1465 68.5459C21.4694 68.5154 21.7894 68.5 22.1006 68.5C25.1932 68.5002 27.7002 70.0671 27.7002 72C27.7002 73.9329 25.1931 75.4998 22.1006 75.5C22.009 75.5 21.9162 75.4978 21.8232 75.4951C23.6461 77.8171 23.9859 80.5931 22.5557 81.7959C21.1699 82.9613 18.6142 82.2363 16.6602 80.1943C16.5486 83.1261 15.0274 85.4482 13.167 85.4482C11.3067 85.448 9.78541 83.126 9.67383 80.1943C7.71983 82.2361 5.16405 82.9612 3.77832 81.7959C2.34909 80.5936 2.68743 77.8192 4.50781 75.498C1.4576 75.4672 -0.999979 73.9137 -1 72C-1 70.1337 1.33733 68.6089 4.28223 68.5059C4.18659 68.4017 4.09299 68.2973 4.00391 68.1914C2.01339 65.8244 1.59971 62.8964 3.0791 61.6523C4.55853 60.4088 7.37093 61.319 9.36133 63.6855C9.40932 63.7426 9.45673 63.8014 9.50391 63.8604C9.5015 63.773 9.5 63.6858 9.5 63.5996C9.50012 60.507 11.0671 58.0001 13 58Z" fill="#FFF6F6"/>
<path d="M37 33C38.8603 33 40.3805 35.3223 40.4922 38.2539C42.4462 36.212 45.0029 35.487 46.3887 36.6523C47.868 37.8965 47.4534 40.8244 45.4629 43.1914C45.3622 43.3112 45.2555 43.4285 45.1465 43.5459C45.4694 43.5154 45.7894 43.5 46.1006 43.5C49.1932 43.5002 51.7002 45.0671 51.7002 47C51.7002 48.9329 49.1931 50.4998 46.1006 50.5C46.009 50.5 45.9162 50.4978 45.8232 50.4951C47.6461 52.8171 47.9859 55.5931 46.5557 56.7959C45.1699 57.9613 42.6142 57.2363 40.6602 55.1943C40.5486 58.1261 39.0274 60.4482 37.167 60.4482C35.3067 60.448 33.7854 58.126 33.6738 55.1943C31.7198 57.2361 29.164 57.9612 27.7783 56.7959C26.3491 55.5936 26.6874 52.8192 28.5078 50.498C25.4576 50.4672 23 48.9137 23 47C23 45.1337 25.3373 43.6089 28.2822 43.5059C28.1866 43.4017 28.093 43.2973 28.0039 43.1914C26.0134 40.8244 25.5997 37.8964 27.0791 36.6523C28.5585 35.4088 31.3709 36.319 33.3613 38.6855C33.4093 38.7426 33.4567 38.8014 33.5039 38.8604C33.5015 38.773 33.5 38.6858 33.5 38.5996C33.5001 35.507 35.0671 33.0001 37 33Z" fill="#FFF6F6"/>
<path d="M57 64C58.8603 64 60.3805 66.3223 60.4922 69.2539C62.4462 67.212 65.0029 66.487 66.3887 67.6523C67.868 68.8965 67.4534 71.8244 65.4629 74.1914C65.3622 74.3112 65.2555 74.4285 65.1465 74.5459C65.4694 74.5154 65.7894 74.5 66.1006 74.5C69.1932 74.5002 71.7002 76.0671 71.7002 78C71.7002 79.9329 69.1931 81.4998 66.1006 81.5C66.009 81.5 65.9162 81.4978 65.8232 81.4951C67.6461 83.8171 67.9859 86.5931 66.5557 87.7959C65.1699 88.9613 62.6142 88.2363 60.6602 86.1943C60.5486 89.1261 59.0274 91.4482 57.167 91.4482C55.3067 91.448 53.7854 89.126 53.6738 86.1943C51.7198 88.2361 49.164 88.9612 47.7783 87.7959C46.3491 86.5936 46.6874 83.8192 48.5078 81.498C45.4576 81.4672 43 79.9137 43 78C43 76.1337 45.3373 74.6089 48.2822 74.5059C48.1866 74.4017 48.093 74.2973 48.0039 74.1914C46.0134 71.8244 45.5997 68.8964 47.0791 67.6523C48.5585 66.4088 51.3709 67.319 53.3613 69.6855C53.4093 69.7426 53.4567 69.8014 53.5039 69.8604C53.5015 69.773 53.5 69.6858 53.5 69.5996C53.5001 66.507 55.0671 64.0001 57 64Z" fill="#FFF6F6"/>
<path d="M73 23C74.8603 23 76.3805 25.3223 76.4922 28.2539C78.4462 26.212 81.0029 25.487 82.3887 26.6523C83.868 27.8965 83.4534 30.8244 81.4629 33.1914C81.3622 33.3112 81.2555 33.4285 81.1465 33.5459C81.4694 33.5154 81.7894 33.5 82.1006 33.5C85.1932 33.5002 87.7002 35.0671 87.7002 37C87.7002 38.9329 85.1931 40.4998 82.1006 40.5C82.009 40.5 81.9162 40.4978 81.8232 40.4951C83.6461 42.8171 83.9859 45.5931 82.5557 46.7959C81.1699 47.9613 78.6142 47.2363 76.6602 45.1943C76.5486 48.1261 75.0274 50.4482 73.167 50.4482C71.3067 50.448 69.7854 48.126 69.6738 45.1943C67.7198 47.2361 65.164 47.9612 63.7783 46.7959C62.3491 45.5936 62.6874 42.8192 64.5078 40.498C61.4576 40.4672 59 38.9137 59 37C59 35.1337 61.3373 33.6089 64.2822 33.5059C64.1866 33.4017 64.093 33.2973 64.0039 33.1914C62.0134 30.8244 61.5997 27.8964 63.0791 26.6523C64.5585 25.4088 67.3709 26.319 69.3613 28.6855C69.4093 28.7426 69.4567 28.8014 69.5039 28.8604C69.5015 28.773 69.5 28.6858 69.5 28.5996C69.5001 25.507 71.0671 23.0001 73 23Z" fill="#FFF6F6"/>
<path d="M93 50C94.8603 50 96.3805 52.3223 96.4922 55.2539C98.4462 53.212 101.003 52.487 102.389 53.6523C103.868 54.8965 103.453 57.8244 101.463 60.1914C101.362 60.3112 101.256 60.4285 101.146 60.5459C101.469 60.5154 101.789 60.5 102.101 60.5C105.193 60.5002 107.7 62.0671 107.7 64C107.7 65.9329 105.193 67.4998 102.101 67.5C102.009 67.5 101.916 67.4978 101.823 67.4951C103.646 69.8171 103.986 72.5931 102.556 73.7959C101.17 74.9613 98.6142 74.2363 96.6602 72.1943C96.5486 75.1261 95.0274 77.4482 93.167 77.4482C91.3067 77.448 89.7854 75.126 89.6738 72.1943C87.7198 74.2361 85.164 74.9612 83.7783 73.7959C82.3491 72.5936 82.6874 69.8192 84.5078 67.498C81.4576 67.4672 79 65.9137 79 64C79 62.1337 81.3373 60.6089 84.2822 60.5059C84.1866 60.4017 84.093 60.2973 84.0039 60.1914C82.0134 57.8244 81.5997 54.8964 83.0791 53.6523C84.5585 52.4088 87.3709 53.319 89.3613 55.6855C89.4093 55.7426 89.4567 55.8014 89.5039 55.8604C89.5015 55.773 89.5 55.6858 89.5 55.5996C89.5001 52.507 91.0671 50.0001 93 50Z" fill="#FFF6F6"/>
<path d="M21.5986 7.55823C21.7066 7.5291 21.8668 7.49027 22.2686 7.84631C22.7271 8.25272 23.2499 8.97226 23.9121 10.0602C24.6049 11.1983 25.2107 12.3187 26.0977 13.8053C27.7587 16.5892 29.9395 19.8278 33.1758 22.3619C36.4477 24.9238 40.7333 26.7164 46.5 26.7164C52.4647 26.7164 56.9011 25.0898 60.3193 22.7555C63.7095 20.4403 66.0232 17.478 67.8154 14.9489C68.7397 13.6445 69.4614 12.5499 70.1875 11.5836C70.9091 10.6233 71.4861 10.0005 71.999 9.65588C72.4437 9.35718 72.7722 9.30623 73.1494 9.40491C73.6267 9.5298 74.3617 9.94687 75.4219 11.0426C80.3061 16.0911 84.087 23.2591 86.6465 30.8199C89.2031 38.3723 90.5 46.1962 90.5 52.4664C90.5 59.3231 89.2885 64.4806 87.1777 68.3805C85.078 72.26 82.0352 74.9942 78.1904 76.9332C70.3871 80.8686 59.3708 81.4996 46.5 81.4996C33.6292 81.4996 22.6129 80.8686 14.8096 76.9332C10.9648 74.9942 7.92202 72.26 5.82227 68.3805C3.71152 64.4806 2.50003 59.3231 2.5 52.4664C2.5 46.3115 4.85384 37.9019 8.25684 29.7242C11.6503 21.5696 15.996 13.8619 19.8115 9.12366C20.7422 7.96799 21.3237 7.63253 21.5986 7.55823Z" stroke="#8E1E20" stroke-width="3"/>
</g>
<path d="M27.5805 63.7524C27.0108 63.8171 26.6204 63.8369 26.0692 63.9182C24.7177 64.1178 23.512 64.0318 22.3362 63.3155C21.2843 62.6746 20.4007 61.6025 19.4342 60.3099C18.7925 59.4517 18.0426 58.0775 17.2918 56.5279C16.5273 54.9499 15.7175 53.0973 14.9606 51.2231C13.4683 47.5277 12.1072 43.5622 11.7644 41.4245C11.0328 36.8621 11.8694 32.8241 13.5198 29.8061C15.1425 26.8389 17.6629 24.6884 20.3978 24.2846C22.2416 24.0124 23.6887 25.0902 24.7006 26.3618C25.7222 27.6459 26.5654 29.4311 27.2719 31.3756C28.6944 35.2909 29.7262 40.3224 30.4117 44.5968C30.7078 46.4431 31.2992 49.4452 31.687 52.2103C31.8846 53.6187 32.0408 55.0347 32.0923 56.3159C32.1426 57.5713 32.0986 58.8102 31.8351 59.8126C31.3646 61.6029 30.6032 62.7826 29.2624 63.356C28.68 63.605 28.0796 63.6957 27.5805 63.7524Z" fill="#FFE7C8" stroke="#2C2300" stroke-width="3"/>
<path d="M66.3673 63.7524C66.9369 63.8171 67.3273 63.8369 67.8785 63.9182C69.23 64.1178 70.4358 64.0318 71.6116 63.3155C72.6635 62.6746 73.547 61.6025 74.5136 60.3099C75.1553 59.4517 75.9052 58.0775 76.6559 56.5279C77.4205 54.9499 78.2302 53.0973 78.9871 51.2231C80.4795 47.5277 81.8405 43.5622 82.1833 41.4245C83.6329 32.3852 78.8576 25.9676 73.5502 25.1839C71.7688 24.9209 70.3287 25.8639 69.2853 27.0742C68.2481 28.2771 67.397 29.9576 66.6865 31.7966C65.2563 35.4987 64.2226 40.3157 63.536 44.5968C63.24 46.4431 62.6485 49.4452 62.2607 52.2103C62.0632 53.6187 61.9069 55.0347 61.8555 56.3159C61.8051 57.5713 61.8492 58.8102 62.1126 59.8126C62.5832 61.6029 63.3446 62.7826 64.6853 63.356C65.2677 63.605 65.8681 63.6957 66.3673 63.7524Z" fill="#FFE7C8" stroke="#2C2300" stroke-width="3"/>
</svg>
