<svg width="93" height="109" viewBox="0 0 93 109" fill="none" xmlns="http://www.w3.org/2000/svg">
<path d="M90 52.9172C90 84.2896 70.7329 83 46.5 83C22.2671 83 4 84.2896 4 52.9172C4 38.5109 8 13.5 19.5 8.00006C36.0856 0.0679171 33.895 18 47 18C60.105 18 53.5 7.00008 67 6.00008C80.8658 4.97298 90 38.5109 90 52.9172Z" fill="#F9F9F9"/>
<path d="M31 7L38.8007 14.3901C39.9185 15.4491 41.2657 16.2356 42.7373 16.6884L43.9371 17.0576C45.9291 17.6705 48.0629 17.6457 50.0402 16.9866L50.903 16.699C52.2843 16.2386 53.5484 15.482 54.607 14.4823L62 7.5" stroke="#848484" stroke-width="3"/>
<path d="M43.4248 77.5L42.5713 95H19.2363L15.8213 77.5H43.4248Z" fill="#2C73C6" stroke="#1A3752" stroke-width="3"/>
<path d="M50.5752 77.5L51.4287 95H74.7637L78.1787 77.5H50.5752Z" fill="#2C73C6" stroke="#1A3752" stroke-width="3"/>
<path d="M67.9998 25.9998L66.3573 27.4177C86.4457 23.3567 84.9541 19.26 88.4998 32.9998C92.4998 48.4996 92.0701 42.013 90.9998 53.9998C88.4998 81.9997 72.9996 86.4997 46.951 86.9998C22.7457 86.9997 3.49984 83.7287 3.49984 54.4998C3.4998 41.2546 1.49977 44.9997 4.99984 32.9998C8.41497 21.291 6.56341 25.4285 28.6805 28.489L25.4998 25.9998L19.9998 4.99976L31.4998 6.49976L35.9071 29.3416C39.1799 29.666 42.8439 29.953 46.951 30.1677C51.1811 29.7851 54.9327 29.3241 58.2645 28.8289L62.4998 6.49976L73.4998 4.99976L67.9998 25.9998Z" fill="#2C73C6"/>
<path d="M75.5 50.5V70.5898C57.288 76.4158 37.712 76.4158 19.5 70.5898V50.5H75.5Z" fill="#2C73C6" stroke="#1A3752" stroke-width="3"/>
<path d="M30.5 6.5L36.6489 28.2576C36.8626 29.0139 37.4995 29.5749 38.2768 29.6915L45.5519 30.7828C46.5122 30.9268 47.4883 30.9302 48.4496 30.7929L56.1238 29.6966C56.9512 29.5784 57.6178 28.9582 57.7953 28.1416L62.5 6.5" stroke="#1A3752" stroke-width="3"/>
<path d="M11.844 33.9194C10.3903 24.4717 16.3007 29.3167 20.8229 28.6209C25.3451 27.925 27.1212 28.4873 28.5749 37.9349C29.2425 42.2733 31.0075 50.6756 30.1256 54.1726C29.2436 57.6695 27.7169 57.1545 25.2713 57.5308C22.8257 57.9071 21.8174 57.0952 19.7267 54.1812C17.387 50.9203 12.5116 38.2578 11.844 33.9194Z" fill="#FFE7C8"/>
<path d="M81.6843 32.9194C83.138 23.4717 77.2276 28.3167 72.7054 27.6209C68.1832 26.925 66.4071 27.4873 64.9534 36.9349C64.2859 41.2733 62.5208 49.6756 63.4028 53.1726C64.2847 56.6695 65.8114 56.1545 68.257 56.5308C70.7026 56.9071 71.7109 56.0952 73.8016 53.1812C76.1413 49.9203 81.0167 37.2578 81.6843 32.9194Z" fill="#FFE7C8"/>
<path d="M11.4878 34.3473L15.992 47.1413L18.853 52.9209C19.1925 53.6067 19.6538 54.2253 20.2144 54.7463C22.9769 57.3138 27.3588 56.9058 29.5998 53.8724L29.9877 53.3473" stroke="#2C2300" stroke-width="3" stroke-linecap="round"/>
<path d="M26.5 30L29.7484 41.9608C30.038 43.0269 30.2297 44.1172 30.3213 45.2181L30.6858 49.598C30.8276 51.3025 30.3269 52.9984 29.282 54.3525" stroke="#2C2300" stroke-width="3" stroke-linecap="round"/>
<path d="M82.7002 34.3473L78.196 47.1413L75.335 52.9209C74.9955 53.6067 74.5342 54.2253 73.9736 54.7463C71.2111 57.3138 66.8292 56.9058 64.5882 53.8724L64.2003 53.3473" stroke="#2C2300" stroke-width="3" stroke-linecap="round"/>
<path d="M67.5 28L64.0042 43.5633L63.502 49.5981C63.3602 51.3025 63.8609 52.9985 64.9058 54.3526" stroke="#2C2300" stroke-width="3" stroke-linecap="round"/>
<path d="M8.00001 32.5L10.5 23.5L26.5 27L30.5 39.5L12.5 45.5L8.00001 32.5Z" fill="#F9F9F9"/>
<path d="M7.5 29.5L12.5 46L30.5 40L20 7" stroke="#848484" stroke-width="3" stroke-linecap="round"/>
<path d="M86 31.0001L82.5 22.4845L67.5 25L62.6723 38.9873L80.6724 44.9873L86 31.0001Z" fill="#F9F9F9"/>
<path d="M86 29.5L80.6724 45.4872L62.6724 39.4872L73.5 6.5" stroke="#848484" stroke-width="3" stroke-linecap="round"/>
<path d="M18.5 6L11.5 19.5L8 28.5" stroke="#848484" stroke-width="3" stroke-linecap="round"/>
<path d="M74.5 6L78.4266 12.8061C80.8058 16.9301 82.8875 21.2187 84.6557 25.6393L86 29" stroke="#848484" stroke-width="3" stroke-linecap="round"/>
<path d="M17.5 82L14.2 79.4333C10.4546 76.5203 7.46231 72.7517 5.47395 68.4436C3.51888 64.2076 2.58999 59.5703 2.76266 54.9081L3 48.5L5.5 35.5" stroke="#1A3752" stroke-width="3" stroke-linecap="round"/>
<path d="M76 82.5L82.2762 76.2238C84.7386 73.7614 86.7382 70.8761 88.1792 67.7057C90.0345 63.624 90.9196 59.1682 90.7651 54.6873L90.5 47L88 35" stroke="#1A3752" stroke-width="3" stroke-linecap="round"/>
<path d="M30 85C41.1807 87.6307 52.8193 87.6307 64 85" stroke="#1A3752" stroke-width="3" stroke-linecap="round"/>
</svg>
