<svg width="93" height="85" viewBox="0 0 93 85" fill="none" xmlns="http://www.w3.org/2000/svg">
<mask id="mask0_257_248" style="mask-type:alpha" maskUnits="userSpaceOnUse" x="0" y="0" width="93" height="85">
<path d="M21.1299 1.52637C21.2335 1.49159 21.3659 1.43403 21.7578 1.78125C22.221 2.19169 22.7545 2.94109 23.4326 4.09082C24.1242 5.26348 24.776 6.50801 25.6641 8.05762C29.0614 13.9853 34.5563 21.834 46.5 21.834C58.8938 21.834 64.7103 14.1522 68.4668 8.27148C69.4274 6.76766 70.1937 5.48136 70.959 4.34668C71.7223 3.21486 72.3465 2.45213 72.9092 2.01758C73.4095 1.63117 73.7397 1.58846 74.0771 1.6748C74.5376 1.7926 75.2848 2.2289 76.377 3.46191C81.3739 9.10334 85.1688 17.3375 87.7119 26.0322C90.2499 34.7094 91.5 43.7024 91.5 50.751C91.5 58.4414 90.2547 64.2471 88.0752 68.6455C85.9077 73.0196 82.7777 76.0815 78.8535 78.2432C70.8912 82.6292 59.6525 83.334 46.5 83.334C33.3475 83.334 22.1088 82.6292 14.1465 78.2432C10.2223 76.0815 7.09231 73.0196 4.9248 68.6455C2.74526 64.2471 1.5 58.4414 1.5 50.751C1.50002 43.8274 3.91829 34.6894 7.39648 25.8447C10.8665 17.0209 15.3174 8.67561 19.2383 3.35742C20.2039 2.04773 20.8239 1.62909 21.1299 1.52637Z" fill="#87D1FF" stroke="#3696D6" stroke-width="3"/>
</mask>
<g mask="url(#mask0_257_248)">
<path d="M93 50.7511C93 82.1235 72.7054 84.8339 46.5 84.8339C20.2947 84.8339 0 82.1235 0 50.7511C0 36.3447 9.99212 13.3704 18.0306 2.46706C26.0691 -8.43628 24.3283 20.3339 46.5 20.3339C69.6717 20.3339 68.2029 -8.029 77.5 2.46706C87.9041 14.2129 93 36.3447 93 50.7511Z" fill="#87D1FF"/>
<rect x="-6" y="27.834" width="106" height="14" fill="white"/>
<rect x="-6" y="54.834" width="106" height="14" fill="white"/>
<path d="M21.1299 1.52637C21.2335 1.49159 21.3659 1.43403 21.7578 1.78125C22.221 2.19169 22.7545 2.94109 23.4326 4.09082C24.1242 5.26348 24.776 6.50801 25.6641 8.05762C29.0614 13.9853 34.5563 21.834 46.5 21.834C58.8938 21.834 64.7103 14.1522 68.4668 8.27148C69.4274 6.76766 70.1937 5.48136 70.959 4.34668C71.7223 3.21486 72.3465 2.45213 72.9092 2.01758C73.4095 1.63117 73.7397 1.58846 74.0771 1.6748C74.5376 1.7926 75.2848 2.2289 76.377 3.46191C81.3739 9.10334 85.1688 17.3375 87.7119 26.0322C90.2499 34.7094 91.5 43.7024 91.5 50.751C91.5 58.4414 90.2547 64.2471 88.0752 68.6455C85.9077 73.0196 82.7777 76.0815 78.8535 78.2432C70.8912 82.6292 59.6525 83.334 46.5 83.334C33.3475 83.334 22.1088 82.6292 14.1465 78.2432C10.2223 76.0815 7.09231 73.0196 4.9248 68.6455C2.74526 64.2471 1.5 58.4414 1.5 50.751C1.50002 43.8274 3.91829 34.6894 7.39648 25.8447C10.8665 17.0209 15.3174 8.67561 19.2383 3.35742C20.2039 2.04773 20.8239 1.62909 21.1299 1.52637Z" stroke="#3696D6" stroke-width="3"/>
</g>
<path d="M27.1136 57.6624C26.5086 57.734 26.0886 57.7569 25.4999 57.8475C24.0591 58.0692 22.7898 57.9694 21.5621 57.1897C20.4652 56.4931 19.539 55.3261 18.508 53.8892C17.2101 52.0801 15.3454 47.9218 13.7599 43.8303C12.1671 39.7196 10.7231 35.331 10.3615 32.9816C9.60162 28.0432 10.1357 23.9191 11.5748 20.8711C13.0166 17.8177 15.4103 15.7922 18.2723 15.3518C20.1084 15.0695 21.6734 16.039 22.8653 17.294C24.072 18.5647 25.136 20.3624 26.0532 22.3761C27.8961 26.4223 29.3158 31.7196 30.0576 36.5403C30.376 38.6093 31.0042 41.9274 31.4181 45.0031C31.6284 46.5657 31.7939 48.1318 31.8484 49.5462C31.9019 50.9352 31.8534 52.2885 31.5797 53.3738C31.0877 55.3244 30.2988 56.6008 28.8951 57.2263C28.2806 57.5001 27.6456 57.5995 27.1136 57.6624Z" fill="#929AAB" stroke="#393E46" stroke-width="3"/>
<path d="M66.943 57.6624C67.548 57.734 67.9681 57.7569 68.5567 57.8475C69.9976 58.0692 71.2668 57.9694 72.4946 57.1897C73.5915 56.4931 74.5177 55.3261 75.5486 53.8892C76.8466 52.0801 78.7113 47.9218 80.2967 43.8303C81.8896 39.7196 83.3336 35.331 83.6951 32.9816C84.4409 28.1352 84.295 24.0593 83.2676 21.0295C82.224 17.9522 80.1945 15.8081 77.2279 15.3516C75.4218 15.0738 73.7799 16.0123 72.4739 17.2296C71.1343 18.4782 69.8817 20.2572 68.7746 22.2764C66.5551 26.3248 64.7516 31.65 63.999 36.5403C63.6807 38.6093 63.0524 41.9274 62.6385 45.0031C62.4283 46.5657 62.2627 48.1318 62.2082 49.5462C62.1548 50.9352 62.2032 52.2885 62.4769 53.3738C62.9689 55.3244 63.7579 56.6008 65.1615 57.2263C65.7761 57.5001 66.411 57.5995 66.943 57.6624Z" fill="#929AAB" stroke="#393E46" stroke-width="3"/>
</svg>
