<svg width="92" height="40" viewBox="0 0 92 40" fill="none" xmlns="http://www.w3.org/2000/svg">
<mask id="path-1-inside-1_259_360" fill="white">
<path d="M88.0469 40H48V30H44V40H3.95312L2 30L0 0H92L90 30L88.0469 40Z"/>
</mask>
<path d="M88.0469 40H48V30H44V40H3.95312L2 30L0 0H92L90 30L88.0469 40Z" fill="#E3E300"/>
<path d="M88.0469 40V43H90.5176L90.9912 40.5751L88.0469 40ZM48 40H45V43H48V40ZM48 30H51V27H48V30ZM44 30V27H41V30H44ZM44 40V43H47V40H44ZM3.95312 40L1.00876 40.5751L1.48238 43H3.95312V40ZM2 30L-0.993355 30.1996L-0.980735 30.3889L-0.944366 30.5751L2 30ZM0 0V-3H-3.20666L-2.99336 0.199557L0 0ZM92 0L94.9934 0.199557L95.2067 -3H92V0ZM90 30L92.9444 30.5751L92.9807 30.3889L92.9934 30.1996L90 30ZM88.0469 40V37H48V40V43H88.0469V40ZM48 40H51V30H48H45V40H48ZM48 30V27H44V30V33H48V30ZM44 30H41V40H44H47V30H44ZM44 40V37H3.95312V40V43H44V40ZM3.95312 40L6.89749 39.4249L4.94437 29.4249L2 30L-0.944366 30.5751L1.00876 40.5751L3.95312 40ZM2 30L4.99336 29.8004L2.99336 -0.199557L0 0L-2.99336 0.199557L-0.993355 30.1996L2 30ZM0 0V3H92V0V-3H0V0ZM92 0L89.0066 -0.199557L87.0066 29.8004L90 30L92.9934 30.1996L94.9934 0.199557L92 0ZM90 30L87.0556 29.4249L85.1025 39.4249L88.0469 40L90.9912 40.5751L92.9444 30.5751L90 30Z" fill="#A99500" mask="url(#path-1-inside-1_259_360)"/>
<line x1="8.5" y1="3" x2="8.5" y2="37" stroke="white" stroke-width="3"/>
<line x1="13.5" y1="3" x2="13.5" y2="37" stroke="white" stroke-width="3"/>
<line x1="78.5" y1="3" x2="78.5" y2="37" stroke="white" stroke-width="3"/>
<line x1="83.5" y1="3" x2="83.5" y2="37" stroke="white" stroke-width="3"/>
</svg>
