<svg width="93" height="109" viewBox="0 0 93 109" fill="none" xmlns="http://www.w3.org/2000/svg">
<mask id="path-1-inside-1_259_360" fill="white">
<path d="M88.0469 95H48V85H44V95H3.95312L2 85L0 55H92L90 85L88.0469 95Z"/>
</mask>
<path d="M88.0469 95H48V85H44V95H3.95312L2 85L0 55H92L90 85L88.0469 95Z" fill="#E3E300"/>
<path d="M88.0469 95V98H90.5176L90.9912 95.5751L88.0469 95ZM48 95H45V98H48V95ZM48 85H51V82H48V85ZM44 85V82H41V85H44ZM44 95V98H47V95H44ZM3.95312 95L1.00876 95.5751L1.48238 98H3.95312V95ZM2 85L-0.993355 85.1996L-0.980735 85.3889L-0.944366 85.5751L2 85ZM0 55V52H-3.20666L-2.99336 55.1996L0 55ZM92 55L94.9934 55.1996L95.2067 52H92V55ZM90 85L92.9444 85.5751L92.9807 85.3889L92.9934 85.1996L90 85ZM88.0469 95V92H48V95V98H88.0469V95ZM48 95H51V85H48H45V95H48ZM48 85V82H44V85V88H48V85ZM44 85H41V95H44H47V85H44ZM44 95V92H3.95312V95V98H44V95ZM3.95312 95L6.89749 94.4249L4.94437 84.4249L2 85L-0.944366 85.5751L1.00876 95.5751L3.95312 95ZM2 85L4.99336 84.8004L2.99336 54.8004L0 55L-2.99336 55.1996L-0.993355 85.1996L2 85ZM0 55V58H92V55V52H0V55ZM92 55L89.0066 54.8004L87.0066 84.8004L90 85L92.9934 85.1996L94.9934 55.1996L92 55ZM90 85L87.0556 84.4249L85.1025 94.4249L88.0469 95L90.9912 95.5751L92.9444 85.5751L90 85Z" fill="#A99500" mask="url(#path-1-inside-1_259_360)"/>
<line x1="8.5" y1="58" x2="8.5" y2="92" stroke="white" stroke-width="3"/>
<line x1="13.5" y1="58" x2="13.5" y2="92" stroke="white" stroke-width="3"/>
<line x1="78.5" y1="58" x2="78.5" y2="92" stroke="white" stroke-width="3"/>
<line x1="83.5" y1="58" x2="83.5" y2="92" stroke="white" stroke-width="3"/>
</svg>
