<svg width="93" height="85" viewBox="0 0 93 85" fill="none" xmlns="http://www.w3.org/2000/svg">
<mask id="mask0_257_494" style="mask-type:alpha" maskUnits="userSpaceOnUse" x="0" y="0" width="93" height="85">
<path d="M21.1299 1.52637C21.2335 1.49159 21.3659 1.43403 21.7578 1.78125C22.221 2.19169 22.7545 2.94109 23.4326 4.09082C24.1242 5.26348 24.776 6.50801 25.6641 8.05762C29.0614 13.9853 34.5563 21.834 46.5 21.834C58.8938 21.834 64.7103 14.1522 68.4668 8.27148C69.4274 6.76766 70.1937 5.48136 70.959 4.34668C71.7223 3.21486 72.3465 2.45213 72.9092 2.01758C73.4095 1.63117 73.7397 1.58846 74.0771 1.6748C74.5376 1.7926 75.2848 2.2289 76.377 3.46191C81.3739 9.10334 85.1688 17.3375 87.7119 26.0322C90.2499 34.7094 91.5 43.7024 91.5 50.751C91.5 58.4414 90.2547 64.2471 88.0752 68.6455C85.9077 73.0196 82.7777 76.0815 78.8535 78.2432C70.8912 82.6292 59.6525 83.334 46.5 83.334C33.3475 83.334 22.1088 82.6292 14.1465 78.2432C10.2223 76.0815 7.09231 73.0196 4.9248 68.6455C2.74526 64.2471 1.5 58.4414 1.5 50.751C1.50002 43.8274 3.91829 34.6894 7.39648 25.8447C10.8665 17.0209 15.3174 8.67561 19.2383 3.35742C20.2039 2.04773 20.8239 1.62909 21.1299 1.52637Z" fill="#87D1FF" stroke="#3696D6" stroke-width="3"/>
</mask>
<g mask="url(#mask0_257_494)">
<path d="M93 50.7511C93 82.1235 72.7054 84.8339 46.5 84.8339C20.2947 84.8339 0 82.1235 0 50.7511C0 36.3447 9.99212 13.3704 18.0306 2.46706C26.0691 -8.43628 24.3283 20.3339 46.5 20.3339C69.6717 20.3339 68.2029 -8.029 77.5 2.46706C87.9041 14.2129 93 36.3447 93 50.7511Z" fill="#F54346"/>
<path d="M12 50.834C13.8603 50.834 15.3805 53.1563 15.4922 56.0879C17.4462 54.0459 20.0029 53.3209 21.3887 54.4863C22.868 55.7305 22.4534 58.6584 20.4629 61.0254C20.3622 61.1451 20.2555 61.2625 20.1465 61.3799C20.4694 61.3494 20.7894 61.334 21.1006 61.334C24.1932 61.3341 26.7002 62.9011 26.7002 64.834C26.7002 66.7669 24.1931 68.3338 21.1006 68.334C21.009 68.334 20.9162 68.3318 20.8232 68.3291C22.6461 70.6511 22.9859 73.4271 21.5557 74.6299C20.1699 75.7952 17.6142 75.0702 15.6602 73.0283C15.5486 75.9601 14.0274 78.2822 12.167 78.2822C10.3067 78.282 8.78541 75.96 8.67383 73.0283C6.71983 75.0701 4.16405 75.7952 2.77832 74.6299C1.34909 73.4276 1.68743 70.6532 3.50781 68.332C0.457602 68.3012 -1.99998 66.7477 -2 64.834C-2 62.9677 0.337329 61.4428 3.28223 61.3398C3.18659 61.2357 3.09299 61.1313 3.00391 61.0254C1.01339 58.6584 0.599713 55.7304 2.0791 54.4863C3.55853 53.2428 6.37093 54.153 8.36133 56.5195C8.40932 56.5766 8.45673 56.6354 8.50391 56.6943C8.5015 56.607 8.5 56.5198 8.5 56.4336C8.50012 53.341 10.0671 50.8341 12 50.834Z" fill="#FFF6F6"/>
<path d="M36 25.834C37.8603 25.834 39.3805 28.1563 39.4922 31.0879C41.4462 29.0459 44.0029 28.3209 45.3887 29.4863C46.868 30.7305 46.4534 33.6584 44.4629 36.0254C44.3622 36.1451 44.2555 36.2625 44.1465 36.3799C44.4694 36.3494 44.7894 36.334 45.1006 36.334C48.1932 36.3341 50.7002 37.9011 50.7002 39.834C50.7002 41.7669 48.1931 43.3338 45.1006 43.334C45.009 43.334 44.9162 43.3318 44.8232 43.3291C46.6461 45.6511 46.9859 48.4271 45.5557 49.6299C44.1699 50.7952 41.6142 50.0702 39.6602 48.0283C39.5486 50.9601 38.0274 53.2822 36.167 53.2822C34.3067 53.282 32.7854 50.96 32.6738 48.0283C30.7198 50.0701 28.164 50.7952 26.7783 49.6299C25.3491 48.4276 25.6874 45.6532 27.5078 43.332C24.4576 43.3012 22 41.7477 22 39.834C22 37.9677 24.3373 36.4428 27.2822 36.3398C27.1866 36.2357 27.093 36.1313 27.0039 36.0254C25.0134 33.6584 24.5997 30.7304 26.0791 29.4863C27.5585 28.2428 30.3709 29.153 32.3613 31.5195C32.4093 31.5766 32.4567 31.6354 32.5039 31.6943C32.5015 31.607 32.5 31.5198 32.5 31.4336C32.5001 28.341 34.0671 25.8341 36 25.834Z" fill="#FFF6F6"/>
<path d="M56 56.834C57.8603 56.834 59.3805 59.1563 59.4922 62.0879C61.4462 60.0459 64.0029 59.3209 65.3887 60.4863C66.868 61.7305 66.4534 64.6584 64.4629 67.0254C64.3622 67.1451 64.2555 67.2625 64.1465 67.3799C64.4694 67.3494 64.7894 67.334 65.1006 67.334C68.1932 67.3341 70.7002 68.9011 70.7002 70.834C70.7002 72.7669 68.1931 74.3338 65.1006 74.334C65.009 74.334 64.9162 74.3318 64.8232 74.3291C66.6461 76.6511 66.9859 79.4271 65.5557 80.6299C64.1699 81.7952 61.6142 81.0702 59.6602 79.0283C59.5486 81.9601 58.0274 84.2822 56.167 84.2822C54.3067 84.282 52.7854 81.96 52.6738 79.0283C50.7198 81.0701 48.164 81.7952 46.7783 80.6299C45.3491 79.4276 45.6874 76.6532 47.5078 74.332C44.4576 74.3012 42 72.7477 42 70.834C42 68.9677 44.3373 67.4428 47.2822 67.3398C47.1866 67.2357 47.093 67.1313 47.0039 67.0254C45.0134 64.6584 44.5997 61.7304 46.0791 60.4863C47.5585 59.2428 50.3709 60.153 52.3613 62.5195C52.4093 62.5766 52.4567 62.6354 52.5039 62.6943C52.5015 62.607 52.5 62.5198 52.5 62.4336C52.5001 59.341 54.0671 56.8341 56 56.834Z" fill="#FFF6F6"/>
<path d="M72 15.834C73.8603 15.834 75.3805 18.1563 75.4922 21.0879C77.4462 19.0459 80.0029 18.3209 81.3887 19.4863C82.868 20.7305 82.4534 23.6584 80.4629 26.0254C80.3622 26.1451 80.2555 26.2625 80.1465 26.3799C80.4694 26.3494 80.7894 26.334 81.1006 26.334C84.1932 26.3341 86.7002 27.9011 86.7002 29.834C86.7002 31.7669 84.1931 33.3338 81.1006 33.334C81.009 33.334 80.9162 33.3318 80.8232 33.3291C82.6461 35.6511 82.9859 38.4271 81.5557 39.6299C80.1699 40.7952 77.6142 40.0702 75.6602 38.0283C75.5486 40.9601 74.0274 43.2822 72.167 43.2822C70.3067 43.282 68.7854 40.96 68.6738 38.0283C66.7198 40.0701 64.164 40.7952 62.7783 39.6299C61.3491 38.4276 61.6874 35.6532 63.5078 33.332C60.4576 33.3012 58 31.7477 58 29.834C58 27.9677 60.3373 26.4428 63.2822 26.3398C63.1866 26.2357 63.093 26.1313 63.0039 26.0254C61.0134 23.6584 60.5997 20.7304 62.0791 19.4863C63.5585 18.2428 66.3709 19.153 68.3613 21.5195C68.4093 21.5766 68.4567 21.6354 68.5039 21.6943C68.5015 21.607 68.5 21.5198 68.5 21.4336C68.5001 18.341 70.0671 15.8341 72 15.834Z" fill="#FFF6F6"/>
<path d="M92 42.834C93.8603 42.834 95.3805 45.1563 95.4922 48.0879C97.4462 46.0459 100.003 45.3209 101.389 46.4863C102.868 47.7305 102.453 50.6584 100.463 53.0254C100.362 53.1451 100.256 53.2625 100.146 53.3799C100.469 53.3494 100.789 53.334 101.101 53.334C104.193 53.3341 106.7 54.9011 106.7 56.834C106.7 58.7669 104.193 60.3338 101.101 60.334C101.009 60.334 100.916 60.3318 100.823 60.3291C102.646 62.6511 102.986 65.4271 101.556 66.6299C100.17 67.7952 97.6142 67.0702 95.6602 65.0283C95.5486 67.9601 94.0274 70.2822 92.167 70.2822C90.3067 70.282 88.7854 67.96 88.6738 65.0283C86.7198 67.0701 84.164 67.7952 82.7783 66.6299C81.3491 65.4276 81.6874 62.6532 83.5078 60.332C80.4576 60.3012 78 58.7477 78 56.834C78 54.9677 80.3373 53.4428 83.2822 53.3398C83.1866 53.2357 83.093 53.1313 83.0039 53.0254C81.0134 50.6584 80.5997 47.7304 82.0791 46.4863C83.5585 45.2428 86.3709 46.153 88.3613 48.5195C88.4093 48.5766 88.4567 48.6354 88.5039 48.6943C88.5015 48.607 88.5 48.5198 88.5 48.4336C88.5001 45.341 90.0671 42.8341 92 42.834Z" fill="#FFF6F6"/>
<path d="M21.1299 1.52637C21.2335 1.49159 21.3659 1.43403 21.7578 1.78125C22.221 2.19169 22.7545 2.94109 23.4326 4.09082C24.1242 5.26348 24.776 6.50801 25.6641 8.05762C29.0614 13.9853 34.5563 21.834 46.5 21.834C58.8938 21.834 64.7103 14.1522 68.4668 8.27148C69.4274 6.76766 70.1937 5.48136 70.959 4.34668C71.7223 3.21486 72.3465 2.45213 72.9092 2.01758C73.4095 1.63117 73.7397 1.58846 74.0771 1.6748C74.5376 1.7926 75.2848 2.2289 76.377 3.46191C81.3739 9.10334 85.1688 17.3375 87.7119 26.0322C90.2499 34.7094 91.5 43.7024 91.5 50.751C91.5 58.4414 90.2547 64.2471 88.0752 68.6455C85.9077 73.0196 82.7777 76.0815 78.8535 78.2432C70.8912 82.6292 59.6525 83.334 46.5 83.334C33.3475 83.334 22.1088 82.6292 14.1465 78.2432C10.2223 76.0815 7.09231 73.0196 4.9248 68.6455C2.74526 64.2471 1.5 58.4414 1.5 50.751C1.50002 43.8274 3.91829 34.6894 7.39648 25.8447C10.8665 17.0209 15.3174 8.67561 19.2383 3.35742C20.2039 2.04773 20.8239 1.62909 21.1299 1.52637Z" stroke="#8E1E20" stroke-width="3"/>
</g>
<path d="M27.1136 57.6624C26.5086 57.734 26.0886 57.7569 25.4999 57.8475C24.0591 58.0692 22.7898 57.9694 21.5621 57.1897C20.4652 56.4931 19.539 55.3261 18.508 53.8892C17.2101 52.0801 15.3454 47.9218 13.7599 43.8303C12.1671 39.7196 10.7231 35.331 10.3615 32.9816C9.60162 28.0432 10.1357 23.9191 11.5748 20.8711C13.0166 17.8177 15.4103 15.7922 18.2723 15.3518C20.1084 15.0695 21.6734 16.039 22.8653 17.294C24.072 18.5647 25.136 20.3624 26.0532 22.3761C27.8961 26.4223 29.3158 31.7196 30.0576 36.5403C30.376 38.6093 31.0042 41.9274 31.4181 45.0031C31.6284 46.5657 31.7939 48.1318 31.8484 49.5462C31.9019 50.9352 31.8534 52.2885 31.5797 53.3738C31.0877 55.3244 30.2988 56.6008 28.8951 57.2263C28.2806 57.5001 27.6456 57.5995 27.1136 57.6624Z" fill="#F6C183" stroke="#744322" stroke-width="3"/>
<path d="M66.943 57.6624C67.548 57.734 67.9681 57.7569 68.5567 57.8475C69.9976 58.0692 71.2668 57.9694 72.4946 57.1897C73.5915 56.4931 74.5177 55.3261 75.5486 53.8892C76.8466 52.0801 78.7113 47.9218 80.2967 43.8303C81.8896 39.7196 83.3336 35.331 83.6951 32.9816C84.4409 28.1352 84.295 24.0593 83.2676 21.0295C82.224 17.9522 80.1945 15.8081 77.2279 15.3516C75.4218 15.0738 73.7799 16.0123 72.4739 17.2296C71.1343 18.4782 69.8817 20.2572 68.7746 22.2764C66.5551 26.3248 64.7516 31.65 63.999 36.5403C63.6807 38.6093 63.0524 41.9274 62.6385 45.0031C62.4283 46.5657 62.2627 48.1318 62.2082 49.5462C62.1548 50.9352 62.2032 52.2885 62.4769 53.3738C62.9689 55.3244 63.7579 56.6008 65.1615 57.2263C65.7761 57.5001 66.411 57.5995 66.943 57.6624Z" fill="#F6C183" stroke="#744322" stroke-width="3"/>
</svg>
