<svg width="93" height="109" viewBox="0 0 93 109" fill="none" xmlns="http://www.w3.org/2000/svg">
<mask id="path-1-inside-1_259_292" fill="white">
<path d="M88.0469 96H48V86H44V96H3.95312L2 86L0 56H92L90 86L88.0469 96Z"/>
</mask>
<path d="M88.0469 96H48V86H44V96H3.95312L2 86L0 56H92L90 86L88.0469 96Z" fill="#E3E300"/>
<path d="M88.0469 96V99H90.5176L90.9912 96.5751L88.0469 96ZM48 96H45V99H48V96ZM48 86H51V83H48V86ZM44 86V83H41V86H44ZM44 96V99H47V96H44ZM3.95312 96L1.00876 96.5751L1.48238 99H3.95312V96ZM2 86L-0.993355 86.1996L-0.980735 86.3889L-0.944366 86.5751L2 86ZM0 56V53H-3.20666L-2.99336 56.1996L0 56ZM92 56L94.9934 56.1996L95.2067 53H92V56ZM90 86L92.9444 86.5751L92.9807 86.3889L92.9934 86.1996L90 86ZM88.0469 96V93H48V96V99H88.0469V96ZM48 96H51V86H48H45V96H48ZM48 86V83H44V86V89H48V86ZM44 86H41V96H44H47V86H44ZM44 96V93H3.95312V96V99H44V96ZM3.95312 96L6.89749 95.4249L4.94437 85.4249L2 86L-0.944366 86.5751L1.00876 96.5751L3.95312 96ZM2 86L4.99336 85.8004L2.99336 55.8004L0 56L-2.99336 56.1996L-0.993355 86.1996L2 86ZM0 56V59H92V56V53H0V56ZM92 56L89.0066 55.8004L87.0066 85.8004L90 86L92.9934 86.1996L94.9934 56.1996L92 56ZM90 86L87.0556 85.4249L85.1025 95.4249L88.0469 96L90.9912 96.5751L92.9444 86.5751L90 86Z" fill="#A99500" mask="url(#path-1-inside-1_259_292)"/>
<line x1="8.5" y1="59" x2="8.5" y2="93" stroke="white" stroke-width="3"/>
<line x1="13.5" y1="59" x2="13.5" y2="93" stroke="white" stroke-width="3"/>
<line x1="78.5" y1="59" x2="78.5" y2="93" stroke="white" stroke-width="3"/>
<line x1="83.5" y1="59" x2="83.5" y2="93" stroke="white" stroke-width="3"/>
</svg>
