<svg width="93" height="109" viewBox="0 0 93 109" fill="none" xmlns="http://www.w3.org/2000/svg">
<mask id="mask0_257_247" style="mask-type:alpha" maskUnits="userSpaceOnUse" x="0" y="0" width="93" height="85">
<path d="M21.1299 1.69238C21.2335 1.65761 21.3659 1.60005 21.7578 1.94727C22.221 2.3577 22.7545 3.1071 23.4326 4.25684C24.1242 5.4295 24.776 6.67403 25.6641 8.22363C29.0614 14.1514 34.5563 22 46.5 22C58.8938 22 64.7103 14.3182 68.4668 8.4375C69.4274 6.93367 70.1937 5.64738 70.959 4.5127C71.7223 3.38088 72.3465 2.61815 72.9092 2.18359C73.4095 1.79718 73.7397 1.75448 74.0771 1.84082C74.5376 1.95862 75.2848 2.39492 76.377 3.62793C81.3739 9.26935 85.1688 17.5036 87.7119 26.1982C90.2499 34.8754 91.5 43.8684 91.5 50.917C91.5 58.6075 90.2547 64.4131 88.0752 68.8115C85.9077 73.1856 82.7777 76.2475 78.8535 78.4092C70.8912 82.7952 59.6525 83.5 46.5 83.5C33.3475 83.5 22.1088 82.7952 14.1465 78.4092C10.2223 76.2475 7.09231 73.1856 4.9248 68.8115C2.74526 64.4131 1.5 58.6075 1.5 50.917C1.50002 43.9934 3.91829 34.8554 7.39648 26.0107C10.8665 17.1869 15.3174 8.84163 19.2383 3.52344C20.2039 2.21375 20.8239 1.7951 21.1299 1.69238Z" fill="#87D1FF" stroke="#3696D6" stroke-width="3"/>
</mask>
<g mask="url(#mask0_257_247)">
<path d="M93 50.9171C93 82.2895 72.7054 84.9999 46.5 84.9999C20.2947 84.9999 0 82.2895 0 50.9171C0 36.5108 9.99212 13.5364 18.0306 2.63308C26.0691 -8.27026 24.3283 20.4999 46.5 20.4999C69.6717 20.4999 68.2029 -7.86299 77.5 2.63308C87.9041 14.3789 93 36.5108 93 50.9171Z" fill="#87D1FF"/>
<rect x="-6" y="28" width="106" height="14" fill="white"/>
<rect x="-6" y="55" width="106" height="14" fill="white"/>
<path d="M21.1299 1.69238C21.2335 1.65761 21.3659 1.60005 21.7578 1.94727C22.221 2.3577 22.7545 3.1071 23.4326 4.25684C24.1242 5.4295 24.776 6.67403 25.6641 8.22363C29.0614 14.1514 34.5563 22 46.5 22C58.8938 22 64.7103 14.3182 68.4668 8.4375C69.4274 6.93367 70.1937 5.64738 70.959 4.5127C71.7223 3.38088 72.3465 2.61815 72.9092 2.18359C73.4095 1.79718 73.7397 1.75448 74.0771 1.84082C74.5376 1.95862 75.2848 2.39492 76.377 3.62793C81.3739 9.26935 85.1688 17.5036 87.7119 26.1982C90.2499 34.8754 91.5 43.8684 91.5 50.917C91.5 58.6075 90.2547 64.4131 88.0752 68.8115C85.9077 73.1856 82.7777 76.2475 78.8535 78.4092C70.8912 82.7952 59.6525 83.5 46.5 83.5C33.3475 83.5 22.1088 82.7952 14.1465 78.4092C10.2223 76.2475 7.09231 73.1856 4.9248 68.8115C2.74526 64.4131 1.5 58.6075 1.5 50.917C1.50002 43.9934 3.91829 34.8554 7.39648 26.0107C10.8665 17.1869 15.3174 8.84163 19.2383 3.52344C20.2039 2.21375 20.8239 1.7951 21.1299 1.69238Z" stroke="#3696D6" stroke-width="3"/>
</g>
<path d="M27.1136 57.8285C26.5086 57.9001 26.0886 57.923 25.4999 58.0135C24.0591 58.2352 22.7898 58.1354 21.5621 57.3557C20.4652 56.6591 19.539 55.4921 18.508 54.0552C17.2101 52.2461 15.3454 48.0878 13.7599 43.9963C12.1671 39.8856 10.7231 35.4971 10.3615 33.1477C9.60162 28.2092 10.1357 24.0851 11.5748 21.0371C13.0166 17.9837 15.4103 15.9582 18.2723 15.5178C20.1084 15.2355 21.6734 16.205 22.8653 17.4601C24.072 18.7307 25.136 20.5285 26.0532 22.5422C27.8961 26.5883 29.3158 31.8856 30.0576 36.7063C30.376 38.7753 31.0042 42.0934 31.4181 45.1691C31.6284 46.7317 31.7939 48.2978 31.8484 49.7122C31.9019 51.1012 31.8534 52.4545 31.5797 53.5398C31.0877 55.4904 30.2988 56.7669 28.8951 57.3923C28.2806 57.6661 27.6456 57.7655 27.1136 57.8285Z" fill="#F6C183" stroke="#744322" stroke-width="3"/>
<path d="M66.943 57.8285C67.548 57.9001 67.9681 57.923 68.5567 58.0135C69.9976 58.2352 71.2668 58.1354 72.4946 57.3557C73.5915 56.6591 74.5177 55.4921 75.5486 54.0552C76.8466 52.2461 78.7113 48.0878 80.2967 43.9963C81.8896 39.8856 83.3336 35.4971 83.6951 33.1477C84.4409 28.3012 84.295 24.2253 83.2676 21.1956C82.224 18.1182 80.1945 15.9741 77.2279 15.5176C75.4218 15.2398 73.7799 16.1783 72.4739 17.3956C71.1343 18.6442 69.8817 20.4232 68.7746 22.4425C66.5551 26.4908 64.7516 31.816 63.999 36.7063C63.6807 38.7753 63.0524 42.0934 62.6385 45.1691C62.4283 46.7317 62.2627 48.2978 62.2082 49.7122C62.1548 51.1012 62.2032 52.4545 62.4769 53.5398C62.9689 55.4904 63.7579 56.7669 65.1615 57.3923C65.7761 57.6661 66.411 57.7655 66.943 57.8285Z" fill="#F6C183" stroke="#744322" stroke-width="3"/>
</svg>
