<svg width="93" height="109" viewBox="0 0 93 109" fill="none" xmlns="http://www.w3.org/2000/svg">
<mask id="mask0_257_494" style="mask-type:alpha" maskUnits="userSpaceOnUse" x="0" y="0" width="93" height="85">
<path d="M21.1299 1.69238C21.2335 1.65761 21.3659 1.60005 21.7578 1.94727C22.221 2.3577 22.7545 3.1071 23.4326 4.25684C24.1242 5.4295 24.776 6.67403 25.6641 8.22363C29.0614 14.1514 34.5563 22 46.5 22C58.8938 22 64.7103 14.3182 68.4668 8.4375C69.4274 6.93367 70.1937 5.64738 70.959 4.5127C71.7223 3.38088 72.3465 2.61815 72.9092 2.18359C73.4095 1.79718 73.7397 1.75448 74.0771 1.84082C74.5376 1.95862 75.2848 2.39492 76.377 3.62793C81.3739 9.26935 85.1688 17.5036 87.7119 26.1982C90.2499 34.8754 91.5 43.8684 91.5 50.917C91.5 58.6075 90.2547 64.4131 88.0752 68.8115C85.9077 73.1856 82.7777 76.2475 78.8535 78.4092C70.8912 82.7952 59.6525 83.5 46.5 83.5C33.3475 83.5 22.1088 82.7952 14.1465 78.4092C10.2223 76.2475 7.09231 73.1856 4.9248 68.8115C2.74526 64.4131 1.5 58.6075 1.5 50.917C1.50002 43.9934 3.91829 34.8554 7.39648 26.0107C10.8665 17.1869 15.3174 8.84163 19.2383 3.52344C20.2039 2.21375 20.8239 1.7951 21.1299 1.69238Z" fill="#87D1FF" stroke="#3696D6" stroke-width="3"/>
</mask>
<g mask="url(#mask0_257_494)">
<path d="M93 50.9171C93 82.2895 72.7054 84.9999 46.5 84.9999C20.2947 84.9999 0 82.2895 0 50.9171C0 36.5108 9.99212 13.5364 18.0306 2.63308C26.0691 -8.27026 24.3283 20.4999 46.5 20.4999C69.6717 20.4999 68.2029 -7.86299 77.5 2.63308C87.9041 14.3789 93 36.5108 93 50.9171Z" fill="#F54346"/>
<path d="M12 51C13.8603 51 15.3805 53.3223 15.4922 56.2539C17.4462 54.212 20.0029 53.487 21.3887 54.6523C22.868 55.8965 22.4534 58.8244 20.4629 61.1914C20.3622 61.3112 20.2555 61.4285 20.1465 61.5459C20.4694 61.5154 20.7894 61.5 21.1006 61.5C24.1932 61.5002 26.7002 63.0671 26.7002 65C26.7002 66.9329 24.1931 68.4998 21.1006 68.5C21.009 68.5 20.9162 68.4978 20.8232 68.4951C22.6461 70.8171 22.9859 73.5931 21.5557 74.7959C20.1699 75.9613 17.6142 75.2363 15.6602 73.1943C15.5486 76.1261 14.0274 78.4482 12.167 78.4482C10.3067 78.448 8.78541 76.126 8.67383 73.1943C6.71983 75.2361 4.16405 75.9612 2.77832 74.7959C1.34909 73.5936 1.68743 70.8192 3.50781 68.498C0.457602 68.4672 -1.99998 66.9137 -2 65C-2 63.1337 0.337329 61.6089 3.28223 61.5059C3.18659 61.4017 3.09299 61.2973 3.00391 61.1914C1.01339 58.8244 0.599713 55.8964 2.0791 54.6523C3.55853 53.4088 6.37093 54.319 8.36133 56.6855C8.40932 56.7426 8.45673 56.8014 8.50391 56.8604C8.5015 56.773 8.5 56.6858 8.5 56.5996C8.50012 53.507 10.0671 51.0001 12 51Z" fill="#FFF6F6"/>
<path d="M36 26C37.8603 26 39.3805 28.3223 39.4922 31.2539C41.4462 29.212 44.0029 28.487 45.3887 29.6523C46.868 30.8965 46.4534 33.8244 44.4629 36.1914C44.3622 36.3112 44.2555 36.4285 44.1465 36.5459C44.4694 36.5154 44.7894 36.5 45.1006 36.5C48.1932 36.5002 50.7002 38.0671 50.7002 40C50.7002 41.9329 48.1931 43.4998 45.1006 43.5C45.009 43.5 44.9162 43.4978 44.8232 43.4951C46.6461 45.8171 46.9859 48.5931 45.5557 49.7959C44.1699 50.9613 41.6142 50.2363 39.6602 48.1943C39.5486 51.1261 38.0274 53.4482 36.167 53.4482C34.3067 53.448 32.7854 51.126 32.6738 48.1943C30.7198 50.2361 28.164 50.9612 26.7783 49.7959C25.3491 48.5936 25.6874 45.8192 27.5078 43.498C24.4576 43.4672 22 41.9137 22 40C22 38.1337 24.3373 36.6089 27.2822 36.5059C27.1866 36.4017 27.093 36.2973 27.0039 36.1914C25.0134 33.8244 24.5997 30.8964 26.0791 29.6523C27.5585 28.4088 30.3709 29.319 32.3613 31.6855C32.4093 31.7426 32.4567 31.8014 32.5039 31.8604C32.5015 31.773 32.5 31.6858 32.5 31.5996C32.5001 28.507 34.0671 26.0001 36 26Z" fill="#FFF6F6"/>
<path d="M56 57C57.8603 57 59.3805 59.3223 59.4922 62.2539C61.4462 60.212 64.0029 59.487 65.3887 60.6523C66.868 61.8965 66.4534 64.8244 64.4629 67.1914C64.3622 67.3112 64.2555 67.4285 64.1465 67.5459C64.4694 67.5154 64.7894 67.5 65.1006 67.5C68.1932 67.5002 70.7002 69.0671 70.7002 71C70.7002 72.9329 68.1931 74.4998 65.1006 74.5C65.009 74.5 64.9162 74.4978 64.8232 74.4951C66.6461 76.8171 66.9859 79.5931 65.5557 80.7959C64.1699 81.9613 61.6142 81.2363 59.6602 79.1943C59.5486 82.1261 58.0274 84.4482 56.167 84.4482C54.3067 84.448 52.7854 82.126 52.6738 79.1943C50.7198 81.2361 48.164 81.9612 46.7783 80.7959C45.3491 79.5936 45.6874 76.8192 47.5078 74.498C44.4576 74.4672 42 72.9137 42 71C42 69.1337 44.3373 67.6089 47.2822 67.5059C47.1866 67.4017 47.093 67.2973 47.0039 67.1914C45.0134 64.8244 44.5997 61.8964 46.0791 60.6523C47.5585 59.4088 50.3709 60.319 52.3613 62.6855C52.4093 62.7426 52.4567 62.8014 52.5039 62.8604C52.5015 62.773 52.5 62.6858 52.5 62.5996C52.5001 59.507 54.0671 57.0001 56 57Z" fill="#FFF6F6"/>
<path d="M72 16C73.8603 16 75.3805 18.3223 75.4922 21.2539C77.4462 19.212 80.0029 18.487 81.3887 19.6523C82.868 20.8965 82.4534 23.8244 80.4629 26.1914C80.3622 26.3112 80.2555 26.4285 80.1465 26.5459C80.4694 26.5154 80.7894 26.5 81.1006 26.5C84.1932 26.5002 86.7002 28.0671 86.7002 30C86.7002 31.9329 84.1931 33.4998 81.1006 33.5C81.009 33.5 80.9162 33.4978 80.8232 33.4951C82.6461 35.8171 82.9859 38.5931 81.5557 39.7959C80.1699 40.9613 77.6142 40.2363 75.6602 38.1943C75.5486 41.1261 74.0274 43.4482 72.167 43.4482C70.3067 43.448 68.7854 41.126 68.6738 38.1943C66.7198 40.2361 64.164 40.9612 62.7783 39.7959C61.3491 38.5936 61.6874 35.8192 63.5078 33.498C60.4576 33.4672 58 31.9137 58 30C58 28.1337 60.3373 26.6089 63.2822 26.5059C63.1866 26.4017 63.093 26.2973 63.0039 26.1914C61.0134 23.8244 60.5997 20.8964 62.0791 19.6523C63.5585 18.4088 66.3709 19.319 68.3613 21.6855C68.4093 21.7426 68.4567 21.8014 68.5039 21.8604C68.5015 21.773 68.5 21.6858 68.5 21.5996C68.5001 18.507 70.0671 16.0001 72 16Z" fill="#FFF6F6"/>
<path d="M92 43C93.8603 43 95.3805 45.3223 95.4922 48.2539C97.4462 46.212 100.003 45.487 101.389 46.6523C102.868 47.8965 102.453 50.8244 100.463 53.1914C100.362 53.3112 100.256 53.4285 100.146 53.5459C100.469 53.5154 100.789 53.5 101.101 53.5C104.193 53.5002 106.7 55.0671 106.7 57C106.7 58.9329 104.193 60.4998 101.101 60.5C101.009 60.5 100.916 60.4978 100.823 60.4951C102.646 62.8171 102.986 65.5931 101.556 66.7959C100.17 67.9613 97.6142 67.2363 95.6602 65.1943C95.5486 68.1261 94.0274 70.4482 92.167 70.4482C90.3067 70.448 88.7854 68.126 88.6738 65.1943C86.7198 67.2361 84.164 67.9612 82.7783 66.7959C81.3491 65.5936 81.6874 62.8192 83.5078 60.498C80.4576 60.4672 78 58.9137 78 57C78 55.1337 80.3373 53.6089 83.2822 53.5059C83.1866 53.4017 83.093 53.2973 83.0039 53.1914C81.0134 50.8244 80.5997 47.8964 82.0791 46.6523C83.5585 45.4088 86.3709 46.319 88.3613 48.6855C88.4093 48.7426 88.4567 48.8014 88.5039 48.8604C88.5015 48.773 88.5 48.6858 88.5 48.5996C88.5001 45.507 90.0671 43.0001 92 43Z" fill="#FFF6F6"/>
<path d="M21.1299 1.69238C21.2335 1.65761 21.3659 1.60005 21.7578 1.94727C22.221 2.3577 22.7545 3.1071 23.4326 4.25684C24.1242 5.4295 24.776 6.67403 25.6641 8.22363C29.0614 14.1514 34.5563 22 46.5 22C58.8938 22 64.7103 14.3182 68.4668 8.4375C69.4274 6.93367 70.1937 5.64738 70.959 4.5127C71.7223 3.38088 72.3465 2.61815 72.9092 2.18359C73.4095 1.79718 73.7397 1.75448 74.0771 1.84082C74.5376 1.95862 75.2848 2.39492 76.377 3.62793C81.3739 9.26935 85.1688 17.5036 87.7119 26.1982C90.2499 34.8754 91.5 43.8684 91.5 50.917C91.5 58.6075 90.2547 64.4131 88.0752 68.8115C85.9077 73.1856 82.7777 76.2475 78.8535 78.4092C70.8912 82.7952 59.6525 83.5 46.5 83.5C33.3475 83.5 22.1088 82.7952 14.1465 78.4092C10.2223 76.2475 7.09231 73.1856 4.9248 68.8115C2.74526 64.4131 1.5 58.6075 1.5 50.917C1.50002 43.9934 3.91829 34.8554 7.39648 26.0107C10.8665 17.1869 15.3174 8.84163 19.2383 3.52344C20.2039 2.21375 20.8239 1.7951 21.1299 1.69238Z" stroke="#8E1E20" stroke-width="3"/>
</g>
<path d="M27.1136 57.8285C26.5086 57.9001 26.0886 57.923 25.4999 58.0135C24.0591 58.2352 22.7898 58.1354 21.5621 57.3557C20.4652 56.6591 19.539 55.4921 18.508 54.0552C17.2101 52.2461 15.3454 48.0878 13.7599 43.9963C12.1671 39.8856 10.7231 35.4971 10.3615 33.1477C9.60162 28.2092 10.1357 24.0851 11.5748 21.0371C13.0166 17.9837 15.4103 15.9582 18.2723 15.5178C20.1084 15.2355 21.6734 16.205 22.8653 17.4601C24.072 18.7307 25.136 20.5285 26.0532 22.5422C27.8961 26.5883 29.3158 31.8856 30.0576 36.7063C30.376 38.7753 31.0042 42.0934 31.4181 45.1691C31.6284 46.7317 31.7939 48.2978 31.8484 49.7122C31.9019 51.1012 31.8534 52.4545 31.5797 53.5398C31.0877 55.4904 30.2988 56.7669 28.8951 57.3923C28.2806 57.6661 27.6456 57.7655 27.1136 57.8285Z" fill="#F6C183" stroke="#744322" stroke-width="3"/>
<path d="M66.943 57.8285C67.548 57.9001 67.9681 57.923 68.5567 58.0135C69.9976 58.2352 71.2668 58.1354 72.4946 57.3557C73.5915 56.6591 74.5177 55.4921 75.5486 54.0552C76.8466 52.2461 78.7113 48.0878 80.2967 43.9963C81.8896 39.8856 83.3336 35.4971 83.6951 33.1477C84.4409 28.3012 84.295 24.2253 83.2676 21.1956C82.224 18.1182 80.1945 15.9741 77.2279 15.5176C75.4218 15.2398 73.7799 16.1783 72.4739 17.3956C71.1343 18.6442 69.8817 20.4232 68.7746 22.4425C66.5551 26.4908 64.7516 31.816 63.999 36.7063C63.6807 38.7753 63.0524 42.0934 62.6385 45.1691C62.4283 46.7317 62.2627 48.2978 62.2082 49.7122C62.1548 51.1012 62.2032 52.4545 62.4769 53.5398C62.9689 55.4904 63.7579 56.7669 65.1615 57.3923C65.7761 57.6661 66.411 57.7655 66.943 57.8285Z" fill="#F6C183" stroke="#744322" stroke-width="3"/>
</svg>
