<svg width="144" height="137" viewBox="0 0 144 137" fill="none" xmlns="http://www.w3.org/2000/svg">
<path d="M64.2069 116.707C65.56 115.354 67.3176 114.306 68.8418 113.719C69.6048 113.425 70.2673 113.262 70.7587 113.219C71.0045 113.197 71.174 113.209 71.2766 113.23C71.2912 113.233 71.3026 113.238 71.3125 113.241C71.3331 113.276 71.3668 113.337 71.4064 113.437C71.4774 113.616 71.5483 113.862 71.6067 114.17C71.7233 114.786 71.7765 115.582 71.7164 116.448C71.5946 118.205 71.0218 120.064 69.7926 121.293C68.3254 122.76 66.0925 124.98 64.1102 126.71C63.1135 127.58 62.2161 128.295 61.5297 128.727C61.4043 128.806 61.2922 128.87 61.1955 128.922C61.1618 128.636 61.1424 128.265 61.1451 127.818C61.1514 126.752 61.2755 125.362 61.5214 123.898C61.7673 122.434 62.1292 120.928 62.5986 119.625C63.0766 118.298 63.6308 117.283 64.2069 116.707Z" fill="white" stroke="#848484" stroke-width="2"/>
<path d="M78.7931 115.707C77.44 114.354 75.6824 113.306 74.1582 112.719C73.3952 112.425 72.7327 112.262 72.2413 112.219C71.9955 112.197 71.826 112.209 71.7234 112.23C71.7088 112.233 71.6974 112.238 71.6875 112.241C71.6669 112.275 71.6332 112.337 71.5936 112.437C71.5226 112.616 71.4517 112.862 71.3933 113.17C71.2767 113.786 71.2235 114.582 71.2836 115.448C71.4054 117.205 71.9782 119.064 73.2074 120.293C74.6746 121.76 76.9075 123.98 78.8898 125.71C79.8865 126.58 80.7839 127.295 81.4703 127.727C81.5957 127.806 81.7078 127.87 81.8045 127.922C81.8382 127.636 81.8576 127.265 81.8549 126.818C81.8486 125.752 81.7245 124.362 81.4786 122.898C81.2327 121.434 80.8708 119.928 80.4014 118.625C79.9234 117.298 79.3692 116.283 78.7931 115.707Z" fill="white" stroke="#848484" stroke-width="2"/>
<mask id="mask0_372_1734" style="mask-type:alpha" maskUnits="userSpaceOnUse" x="18" y="16" width="108" height="99">
<mask id="path-3-inside-1_372_1734" fill="white">
<path d="M70.5 16.5C105.085 16.5 125.5 41.3482 125.5 72C124.5 102.652 104.585 108 72 115C39.4152 108 19 102.652 18 72C18 41.3482 35.9152 16.5 70.5 16.5ZM72.1953 37C45.1709 37 31 52.1905 31 78.3301C34.7814 104.47 46.7338 95.7361 72.1953 109C97.6569 95.7361 109.219 104.47 113 78.3301C113 52.1905 99.2197 37 72.1953 37Z"/>
</mask>
<path d="M70.5 16.5C105.085 16.5 125.5 41.3482 125.5 72C124.5 102.652 104.585 108 72 115C39.4152 108 19 102.652 18 72C18 41.3482 35.9152 16.5 70.5 16.5ZM72.1953 37C45.1709 37 31 52.1905 31 78.3301C34.7814 104.47 46.7338 95.7361 72.1953 109C97.6569 95.7361 109.219 104.47 113 78.3301C113 52.1905 99.2197 37 72.1953 37Z" fill="white"/>
<path d="M125.5 72L127.499 72.0652L127.5 72.0326V72H125.5ZM72 115L71.5799 116.955L72 117.046L72.4201 116.955L72 115ZM18 72H16V72.0326L16.0011 72.0652L18 72ZM72.1953 37V35V35V37ZM31 78.3301H29V78.474L29.0206 78.6164L31 78.3301ZM72.1953 109L71.2713 110.774L72.1953 111.255L73.1193 110.774L72.1953 109ZM113 78.3301L114.979 78.6164L115 78.474V78.3301H113ZM70.5 16.5V18.5C87.2864 18.5 100.493 24.5162 109.511 34.1243C118.546 43.7507 123.5 57.1153 123.5 72H125.5H127.5C127.5 56.2329 122.246 41.8475 112.428 31.3868C102.592 20.9079 88.2984 14.5 70.5 14.5V16.5ZM125.5 72L123.501 71.9348C123.258 79.3874 121.869 85.1619 119.52 89.7549C117.18 94.3303 113.832 97.8425 109.494 100.699C100.692 106.496 87.9734 109.523 71.5799 113.045L72 115L72.4201 116.955C88.6114 113.477 102.143 110.33 111.694 104.04C116.534 100.853 120.388 96.8433 123.082 91.5763C125.766 86.327 127.242 79.9385 127.499 72.0652L125.5 72ZM72 115L72.4201 113.045C56.0259 109.523 43.1766 106.495 34.2453 100.692C29.8424 97.8317 26.434 94.3162 24.0509 89.7416C21.6594 85.151 20.2419 79.381 19.9989 71.9348L18 72L16.0011 72.0652C16.2581 79.9449 17.7675 86.3379 20.5034 91.5896C23.2476 96.8574 27.1671 100.864 32.0661 104.047C41.7386 110.331 55.3893 113.477 71.5799 116.955L72 115ZM18 72H20C20 57.048 24.3689 43.6769 32.7848 34.0738C41.169 24.5069 53.7235 18.5 70.5 18.5V16.5V14.5C52.6917 14.5 38.9962 20.9172 29.7766 31.4374C20.5887 41.9213 16 56.3002 16 72H18ZM72.1953 37V35C58.314 35 47.4352 38.9084 40.0348 46.4631C32.6413 54.0108 29 64.9121 29 78.3301H31H33C33 65.6085 36.4442 55.8447 42.8922 49.2622C49.3334 42.6868 59.0523 39 72.1953 39V37ZM31 78.3301L29.0206 78.6164C29.9848 85.2815 31.5002 89.9752 33.7892 93.3967C36.1223 96.8839 39.1371 98.8696 42.7046 100.342C46.1413 101.761 50.3711 102.797 54.9641 104.201C59.6525 105.634 65.0498 107.533 71.2713 110.774L72.1953 109L73.1193 107.226C66.61 103.835 60.9652 101.852 56.1333 100.375C51.2061 98.8693 47.4374 97.9682 44.2307 96.6446C41.1547 95.3751 38.8811 93.814 37.1138 91.1725C35.3026 88.4653 33.9059 84.4484 32.9794 78.0437L31 78.3301ZM72.1953 109L73.1193 110.774C79.3426 107.532 84.7171 105.632 89.3696 104.199C93.9276 102.795 98.1085 101.759 101.5 100.338C105.025 98.8616 107.989 96.8711 110.281 93.3829C112.527 89.9643 114.016 85.2754 114.979 78.6164L113 78.3301L111.021 78.0437C110.093 84.4544 108.719 88.4762 106.938 91.1863C105.203 93.8268 102.976 95.3831 99.955 96.6487C96.8011 97.9698 93.0812 98.8707 88.1922 100.377C83.3976 101.853 77.7788 103.836 71.2713 107.226L72.1953 109ZM113 78.3301H115C115 64.9263 111.464 54.0257 104.17 46.4733C96.8653 38.9091 86.0773 35 72.1953 35V37V39C85.3377 39 94.9521 42.6861 101.293 49.2521C107.646 55.8299 111 65.5942 111 78.3301H113Z" fill="#848484" mask="url(#path-3-inside-1_372_1734)"/>
</mask>
<g mask="url(#mask0_372_1734)">
<path d="M70.5 16.5C105.085 16.5 125.5 41.3482 125.5 72C124.5 102.652 104.585 108 72 115C39.4152 108 19 102.652 18 72C18 41.3482 35.9152 16.5 70.5 16.5ZM72.1953 37C45.1709 37 31 52.1905 31 78.3301C34.7814 104.47 46.7338 95.7361 72.1953 109C97.6569 95.7361 109.219 104.47 113 78.3301C113 52.1905 99.2197 37 72.1953 37Z" fill="white"/>
<path d="M46 27.5L47.5 17L55 24.5" stroke="#00C914" stroke-width="3" stroke-linecap="round"/>
<path d="M46 26C48.7614 26 51 28.2386 51 31C51 33.7614 48.7614 36 46 36C43.2386 36 41 33.7614 41 31C41 28.2386 43.2386 26 46 26ZM56 22C58.7614 22 61 24.2386 61 27C61 29.7614 58.7614 32 56 32C53.2386 32 51 29.7614 51 27C51 24.2386 53.2386 22 56 22Z" fill="#FF6363"/>
<path d="M86.8309 31.5264L93.8224 23.5502L96.0084 33.9291" stroke="#00C914" stroke-width="3" stroke-linecap="round"/>
<path d="M87.65 30.2699C89.9632 31.7782 90.6156 34.876 89.1074 37.1892C87.5991 39.5023 84.5012 40.1548 82.1881 38.6465C79.875 37.1382 79.2225 34.0404 80.7308 31.7272C82.239 29.4141 85.3369 28.7616 87.65 30.2699ZM98.2114 32.3812C100.525 33.8894 101.177 36.9873 99.6687 39.3004C98.1605 41.6136 95.0626 42.266 92.7495 40.7578C90.4363 39.2495 89.7839 36.1516 91.2921 33.8385C92.8004 31.5254 95.8983 30.8729 98.2114 32.3812Z" fill="#FF6363"/>
<path d="M117.12 72.9484L124.911 65.7509L125.995 76.302" stroke="#00C914" stroke-width="3" stroke-linecap="round"/>
<path d="M118.067 71.785C120.209 73.5279 120.532 76.6771 118.789 78.819C117.046 80.9609 113.897 81.2844 111.755 79.5415C109.613 77.7985 109.29 74.6493 111.033 72.5074C112.776 70.3655 115.925 70.0421 118.067 71.785ZM128.348 74.994C130.49 76.7369 130.813 79.8862 129.071 82.0281C127.328 84.17 124.178 84.4934 122.036 82.7505C119.895 81.0076 119.571 77.8583 121.314 75.7164C123.057 73.5745 126.206 73.2511 128.348 74.994Z" fill="#FF6363"/>
<circle cx="84.3152" cy="105.224" r="5" transform="rotate(39.1361 84.3152 105.224)" fill="#FF6363"/>
<path d="M29.2434 55.3001L37.0341 48.1026L38.1177 58.6537" stroke="#00C914" stroke-width="3" stroke-linecap="round"/>
<path d="M30.19 54.1367C32.3319 55.8796 32.6553 59.0288 30.9124 61.1707C29.1695 63.3126 26.0203 63.6361 23.8784 61.8931C21.7365 60.1502 21.413 57.001 23.1559 54.8591C24.8989 52.7172 28.0481 52.3937 30.19 54.1367ZM40.4712 57.3457C42.6131 59.0886 42.9365 62.2379 41.1936 64.3798C39.4507 66.5217 36.3014 66.8451 34.1595 65.1022C32.0176 63.3593 31.6942 60.21 33.4371 58.0681C35.18 55.9262 38.3293 55.6028 40.4712 57.3457Z" fill="#FF6363"/>
<path d="M27.1655 95.5129L26.3444 84.9381L35.2969 90.6261" stroke="#00C914" stroke-width="3" stroke-linecap="round"/>
<path d="M26.8391 94.0488C29.5343 93.4478 32.2064 95.1456 32.8074 97.8408C33.4084 100.536 31.7107 103.208 29.0154 103.809C26.3202 104.41 23.6481 102.712 23.0471 100.017C22.4461 97.3219 24.1438 94.6498 26.8391 94.0488ZM35.7288 87.9683C38.4241 87.3674 41.0962 89.0651 41.6972 91.7603C42.2981 94.4555 40.6004 97.1277 37.9052 97.7286C35.21 98.3296 32.5378 96.6319 31.9369 93.9367C31.3359 91.2414 33.0336 88.5693 35.7288 87.9683Z" fill="#FF6363"/>
<mask id="path-17-inside-2_372_1734" fill="white">
<path d="M70.5 16.5C105.085 16.5 125.5 41.3482 125.5 72C124.5 102.652 104.585 108 72 115C39.4152 108 19 102.652 18 72C18 41.3482 35.9152 16.5 70.5 16.5ZM72.1953 37C45.1709 37 31 52.1905 31 78.3301C34.7814 104.47 46.7338 95.7361 72.1953 109C97.6569 95.7361 109.219 104.47 113 78.3301C113 52.1905 99.2197 37 72.1953 37Z"/>
</mask>
<path d="M125.5 72L127.499 72.0652L127.5 72.0326V72H125.5ZM72 115L71.5799 116.955L72 117.046L72.4201 116.955L72 115ZM18 72H16V72.0326L16.0011 72.0652L18 72ZM72.1953 37V35V35V37ZM31 78.3301H29V78.474L29.0206 78.6164L31 78.3301ZM72.1953 109L71.2713 110.774L72.1953 111.255L73.1193 110.774L72.1953 109ZM113 78.3301L114.979 78.6164L115 78.474V78.3301H113ZM70.5 16.5V18.5C87.2864 18.5 100.493 24.5162 109.511 34.1243C118.546 43.7507 123.5 57.1153 123.5 72H125.5H127.5C127.5 56.2329 122.246 41.8475 112.428 31.3868C102.592 20.9079 88.2984 14.5 70.5 14.5V16.5ZM125.5 72L123.501 71.9348C123.258 79.3874 121.869 85.1619 119.52 89.7549C117.18 94.3303 113.832 97.8425 109.494 100.699C100.692 106.496 87.9734 109.523 71.5799 113.045L72 115L72.4201 116.955C88.6114 113.477 102.143 110.33 111.694 104.04C116.534 100.853 120.388 96.8433 123.082 91.5763C125.766 86.327 127.242 79.9385 127.499 72.0652L125.5 72ZM72 115L72.4201 113.045C56.0259 109.523 43.1766 106.495 34.2453 100.692C29.8424 97.8317 26.434 94.3162 24.0509 89.7416C21.6594 85.151 20.2419 79.381 19.9989 71.9348L18 72L16.0011 72.0652C16.2581 79.9449 17.7675 86.3379 20.5034 91.5896C23.2476 96.8574 27.1671 100.864 32.0661 104.047C41.7386 110.331 55.3893 113.477 71.5799 116.955L72 115ZM18 72H20C20 57.048 24.3689 43.6769 32.7848 34.0738C41.169 24.5069 53.7235 18.5 70.5 18.5V16.5V14.5C52.6917 14.5 38.9962 20.9172 29.7766 31.4374C20.5887 41.9213 16 56.3002 16 72H18ZM72.1953 37V35C58.314 35 47.4352 38.9084 40.0348 46.4631C32.6413 54.0108 29 64.9121 29 78.3301H31H33C33 65.6085 36.4442 55.8447 42.8922 49.2622C49.3334 42.6868 59.0523 39 72.1953 39V37ZM31 78.3301L29.0206 78.6164C29.9848 85.2815 31.5002 89.9752 33.7892 93.3967C36.1223 96.8839 39.1371 98.8696 42.7046 100.342C46.1413 101.761 50.3711 102.797 54.9641 104.201C59.6525 105.634 65.0498 107.533 71.2713 110.774L72.1953 109L73.1193 107.226C66.61 103.835 60.9652 101.852 56.1333 100.375C51.2061 98.8693 47.4374 97.9682 44.2307 96.6446C41.1547 95.3751 38.8811 93.814 37.1138 91.1725C35.3026 88.4653 33.9059 84.4484 32.9794 78.0437L31 78.3301ZM72.1953 109L73.1193 110.774C79.3426 107.532 84.7171 105.632 89.3696 104.199C93.9276 102.795 98.1085 101.759 101.5 100.338C105.025 98.8616 107.989 96.8711 110.281 93.3829C112.527 89.9643 114.016 85.2754 114.979 78.6164L113 78.3301L111.021 78.0437C110.093 84.4544 108.719 88.4762 106.938 91.1863C105.203 93.8268 102.976 95.3831 99.955 96.6487C96.8011 97.9698 93.0812 98.8707 88.1922 100.377C83.3976 101.853 77.7788 103.836 71.2713 107.226L72.1953 109ZM113 78.3301H115C115 64.9263 111.464 54.0257 104.17 46.4733C96.8653 38.9091 86.0773 35 72.1953 35V37V39C85.3377 39 94.9521 42.6861 101.293 49.2521C107.646 55.8299 111 65.5942 111 78.3301H113Z" fill="#848484" mask="url(#path-17-inside-2_372_1734)"/>
</g>
</svg>
