<svg width="144" height="137" viewBox="0 0 144 137" fill="none" xmlns="http://www.w3.org/2000/svg">
<path d="M64.2069 116.707C65.56 115.354 67.3176 114.306 68.8418 113.719C69.6048 113.425 70.2673 113.262 70.7587 113.219C71.0045 113.197 71.174 113.209 71.2766 113.23C71.2912 113.233 71.3026 113.238 71.3125 113.241C71.3331 113.276 71.3668 113.337 71.4064 113.437C71.4774 113.616 71.5483 113.862 71.6067 114.17C71.7233 114.786 71.7765 115.582 71.7164 116.448C71.5946 118.205 71.0218 120.064 69.7926 121.293C68.3254 122.76 66.0925 124.98 64.1102 126.71C63.1135 127.58 62.2161 128.295 61.5297 128.727C61.4043 128.806 61.2922 128.87 61.1955 128.922C61.1618 128.636 61.1424 128.265 61.1451 127.818C61.1514 126.752 61.2755 125.362 61.5214 123.898C61.7673 122.434 62.1292 120.928 62.5986 119.625C63.0766 118.298 63.6308 117.283 64.2069 116.707Z" fill="#353A82" stroke="#060040" stroke-width="2"/>
<path d="M78.7931 115.707C77.44 114.354 75.6824 113.306 74.1582 112.719C73.3952 112.425 72.7327 112.262 72.2413 112.219C71.9955 112.197 71.826 112.209 71.7234 112.23C71.7088 112.233 71.6974 112.238 71.6875 112.241C71.6669 112.275 71.6332 112.337 71.5936 112.437C71.5226 112.616 71.4517 112.862 71.3933 113.17C71.2767 113.786 71.2235 114.582 71.2836 115.448C71.4054 117.205 71.9782 119.064 73.2074 120.293C74.6746 121.76 76.9075 123.98 78.8898 125.71C79.8865 126.58 80.7839 127.295 81.4703 127.727C81.5957 127.806 81.7078 127.87 81.8045 127.922C81.8382 127.636 81.8576 127.265 81.8549 126.818C81.8486 125.752 81.7245 124.362 81.4786 122.898C81.2327 121.434 80.8708 119.928 80.4014 118.625C79.9234 117.298 79.3692 116.283 78.7931 115.707Z" fill="#353A82" stroke="#060040" stroke-width="2"/>
<mask id="mask0_372_1608" style="mask-type:alpha" maskUnits="userSpaceOnUse" x="18" y="16" width="108" height="99">
<mask id="path-3-inside-1_372_1608" fill="white">
<path d="M70.5 16.5C105.085 16.5 125.5 41.3482 125.5 72C124.5 102.652 104.585 108 72 115C39.4152 108 19 102.652 18 72C18 41.3482 35.9152 16.5 70.5 16.5ZM72.1953 37C45.1709 37 31 52.1905 31 78.3301C34.7814 104.47 46.7338 95.7361 72.1953 109C97.6569 95.7361 109.219 104.47 113 78.3301C113 52.1905 99.2197 37 72.1953 37Z"/>
</mask>
<path d="M70.5 16.5C105.085 16.5 125.5 41.3482 125.5 72C124.5 102.652 104.585 108 72 115C39.4152 108 19 102.652 18 72C18 41.3482 35.9152 16.5 70.5 16.5ZM72.1953 37C45.1709 37 31 52.1905 31 78.3301C34.7814 104.47 46.7338 95.7361 72.1953 109C97.6569 95.7361 109.219 104.47 113 78.3301C113 52.1905 99.2197 37 72.1953 37Z" fill="white"/>
<path d="M125.5 72L127.499 72.0652L127.5 72.0326V72H125.5ZM72 115L71.5799 116.955L72 117.046L72.4201 116.955L72 115ZM18 72H16V72.0326L16.0011 72.0652L18 72ZM72.1953 37V35V35V37ZM31 78.3301H29V78.474L29.0206 78.6164L31 78.3301ZM72.1953 109L71.2713 110.774L72.1953 111.255L73.1193 110.774L72.1953 109ZM113 78.3301L114.979 78.6164L115 78.474V78.3301H113ZM70.5 16.5V18.5C87.2864 18.5 100.493 24.5162 109.511 34.1243C118.546 43.7507 123.5 57.1153 123.5 72H125.5H127.5C127.5 56.2329 122.246 41.8475 112.428 31.3868C102.592 20.9079 88.2984 14.5 70.5 14.5V16.5ZM125.5 72L123.501 71.9348C123.258 79.3874 121.869 85.1619 119.52 89.7549C117.18 94.3303 113.832 97.8425 109.494 100.699C100.692 106.496 87.9734 109.523 71.5799 113.045L72 115L72.4201 116.955C88.6114 113.477 102.143 110.33 111.694 104.04C116.534 100.853 120.388 96.8433 123.082 91.5763C125.766 86.327 127.242 79.9385 127.499 72.0652L125.5 72ZM72 115L72.4201 113.045C56.0259 109.523 43.1766 106.495 34.2453 100.692C29.8424 97.8317 26.434 94.3162 24.0509 89.7416C21.6594 85.151 20.2419 79.381 19.9989 71.9348L18 72L16.0011 72.0652C16.2581 79.9449 17.7675 86.3379 20.5034 91.5896C23.2476 96.8574 27.1671 100.864 32.0661 104.047C41.7386 110.331 55.3893 113.477 71.5799 116.955L72 115ZM18 72H20C20 57.048 24.3689 43.6769 32.7848 34.0738C41.169 24.5069 53.7235 18.5 70.5 18.5V16.5V14.5C52.6917 14.5 38.9962 20.9172 29.7766 31.4374C20.5887 41.9213 16 56.3002 16 72H18ZM72.1953 37V35C58.314 35 47.4352 38.9084 40.0348 46.4631C32.6413 54.0108 29 64.9121 29 78.3301H31H33C33 65.6085 36.4442 55.8447 42.8922 49.2622C49.3334 42.6868 59.0523 39 72.1953 39V37ZM31 78.3301L29.0206 78.6164C29.9848 85.2815 31.5002 89.9752 33.7892 93.3967C36.1223 96.8839 39.1371 98.8696 42.7046 100.342C46.1413 101.761 50.3711 102.797 54.9641 104.201C59.6525 105.634 65.0498 107.533 71.2713 110.774L72.1953 109L73.1193 107.226C66.61 103.835 60.9652 101.852 56.1333 100.375C51.2061 98.8693 47.4374 97.9682 44.2307 96.6446C41.1547 95.3751 38.8811 93.814 37.1138 91.1725C35.3026 88.4653 33.9059 84.4484 32.9794 78.0437L31 78.3301ZM72.1953 109L73.1193 110.774C79.3426 107.532 84.7171 105.632 89.3696 104.199C93.9276 102.795 98.1085 101.759 101.5 100.338C105.025 98.8616 107.989 96.8711 110.281 93.3829C112.527 89.9643 114.016 85.2754 114.979 78.6164L113 78.3301L111.021 78.0437C110.093 84.4544 108.719 88.4762 106.938 91.1863C105.203 93.8268 102.976 95.3831 99.955 96.6487C96.8011 97.9698 93.0812 98.8707 88.1922 100.377C83.3976 101.853 77.7788 103.836 71.2713 107.226L72.1953 109ZM113 78.3301H115C115 64.9263 111.464 54.0257 104.17 46.4733C96.8653 38.9091 86.0773 35 72.1953 35V37V39C85.3377 39 94.9521 42.6861 101.293 49.2521C107.646 55.8299 111 65.5942 111 78.3301H113Z" fill="#848484" mask="url(#path-3-inside-1_372_1608)"/>
</mask>
<g mask="url(#mask0_372_1608)">
<path d="M70.5 16.5C105.085 16.5 125.5 41.3482 125.5 72C124.5 102.652 104.585 108 72 115C39.4152 108 19 102.652 18 72C18 41.3482 35.9152 16.5 70.5 16.5ZM72.1953 37C45.1709 37 31 52.1905 31 78.3301C34.7814 104.47 46.7338 95.7361 72.1953 109C97.6569 95.7361 109.219 104.47 113 78.3301C113 52.1905 99.2197 37 72.1953 37Z" fill="#353A82"/>
<path d="M37 37C38.1046 37 39 39.0147 39 41.5C39 43.9853 38.1046 46 37 46C35.8954 46 35 43.9853 35 41.5C35 39.0147 35.8954 37 37 37ZM42 37C43.1046 37 44 39.0147 44 41.5C44 43.9853 43.1046 46 42 46C40.8954 46 40 43.9853 40 41.5C40 39.0147 40.8954 37 42 37ZM47 37C48.1046 37 49 39.0147 49 41.5C49 43.9853 48.1046 46 47 46C45.8954 46 45 43.9853 45 41.5C45 39.0147 45.8954 37 47 37Z" fill="#DFDFDF"/>
<path d="M19 51C20.1046 51 21 53.0147 21 55.5C21 57.9853 20.1046 60 19 60C17.8954 60 17 57.9853 17 55.5C17 53.0147 17.8954 51 19 51ZM24 51C25.1046 51 26 53.0147 26 55.5C26 57.9853 25.1046 60 24 60C22.8954 60 22 57.9853 22 55.5C22 53.0147 22.8954 51 24 51ZM29 51C30.1046 51 31 53.0147 31 55.5C31 57.9853 30.1046 60 29 60C27.8954 60 27 57.9853 27 55.5C27 53.0147 27.8954 51 29 51Z" fill="#DFDFDF"/>
<path d="M22.5054 71.9413C23.4083 72.5776 22.9795 74.7403 21.5478 76.7718C20.1161 78.8032 18.2235 79.9342 17.3207 79.2979C16.4178 78.6616 16.8465 76.4989 18.2782 74.4674C19.71 72.436 21.6025 71.305 22.5054 71.9413ZM26.5924 74.8217C27.4952 75.458 27.0665 77.6207 25.6348 79.6522C24.2031 81.6836 22.3105 82.8146 21.4077 82.1783C20.5048 81.5419 20.9335 79.3793 22.3652 77.3478C23.7969 75.3164 25.6895 74.1854 26.5924 74.8217ZM30.6793 77.7021C31.5822 78.3384 31.1535 80.5011 29.7218 82.5325C28.29 84.564 26.3975 85.695 25.4946 85.0587C24.5918 84.4223 25.0205 82.2597 26.4522 80.2282C27.8839 78.1968 29.7765 77.0658 30.6793 77.7021Z" fill="#DFDFDF"/>
<path d="M47.8194 98.1522C48.7222 98.7885 48.2935 100.951 46.8618 102.983C45.4301 105.014 43.5375 106.145 42.6346 105.509C41.7318 104.872 42.1605 102.71 43.5922 100.678C45.0239 98.6468 46.9165 97.5158 47.8194 98.1522ZM51.9063 101.033C52.8092 101.669 52.3805 103.832 50.9488 105.863C49.517 107.894 47.6245 109.025 46.7216 108.389C45.8187 107.753 46.2475 105.59 47.6792 103.559C49.1109 101.527 51.0035 100.396 51.9063 101.033ZM55.9933 103.913C56.8962 104.549 56.4674 106.712 55.0357 108.743C53.604 110.775 51.7115 111.906 50.8086 111.269C49.9057 110.633 50.3344 108.471 51.7662 106.439C53.1979 104.408 55.0904 103.277 55.9933 103.913Z" fill="#DFDFDF"/>
<path d="M44.8409 22.8808C45.832 22.3931 47.5249 23.8055 48.6222 26.0354C49.7196 28.2653 49.8057 30.4684 48.8146 30.9561C47.8235 31.4438 46.1306 30.0314 45.0332 27.8015C43.9359 25.5716 43.8498 23.3685 44.8409 22.8808ZM49.3271 20.6732C50.3182 20.1855 52.0112 21.5979 53.1085 23.8278C54.2058 26.0577 54.2919 28.2608 53.3008 28.7485C52.3098 29.2361 50.6168 27.8238 49.5195 25.5939C48.4222 23.364 48.3361 21.1609 49.3271 20.6732ZM53.8134 18.4656C54.8045 17.9779 56.4974 19.3902 57.5947 21.6202C58.692 23.8501 58.7782 26.0531 57.7871 26.5408C56.796 27.0285 55.103 25.6162 54.0057 23.3863C52.9084 21.1563 52.8223 18.9533 53.8134 18.4656Z" fill="#DFDFDF"/>
<path d="M89.7945 35.2983C90.7856 34.8106 92.4785 36.2229 93.5759 38.4529C94.6732 40.6828 94.7593 42.8858 93.7682 43.3735C92.7771 43.8612 91.0842 42.4489 89.9869 40.219C88.8895 37.989 88.8034 35.786 89.7945 35.2983ZM94.2807 33.0907C95.2718 32.603 96.9648 34.0153 98.0621 36.2452C99.1594 38.4752 99.2455 40.6782 98.2545 41.1659C97.2634 41.6536 95.5704 40.2413 94.4731 38.0113C93.3758 35.7814 93.2897 33.5784 94.2807 33.0907ZM98.767 30.8831C99.7581 30.3954 101.451 31.8077 102.548 34.0376C103.646 36.2675 103.732 38.4706 102.741 38.9583C101.75 39.446 100.057 38.0336 98.9594 35.8037C97.862 33.5738 97.7759 31.3707 98.767 30.8831Z" fill="#DFDFDF"/>
<path d="M74.7945 16.2983C75.7856 15.8106 77.4785 17.2229 78.5759 19.4529C79.6732 21.6828 79.7593 23.8858 78.7682 24.3735C77.7771 24.8612 76.0842 23.4489 74.9869 21.219C73.8895 18.989 73.8034 16.786 74.7945 16.2983ZM79.2807 14.0907C80.2718 13.603 81.9648 15.0153 83.0621 17.2452C84.1594 19.4752 84.2455 21.6782 83.2545 22.1659C82.2634 22.6536 80.5704 21.2413 79.4731 19.0113C78.3758 16.7814 78.2897 14.5784 79.2807 14.0907ZM83.767 11.8831C84.7581 11.3954 86.451 12.8077 87.5484 15.0376C88.6457 17.2675 88.7318 19.4706 87.7407 19.9583C86.7496 20.446 85.0567 19.0336 83.9594 16.8037C82.862 14.5738 82.7759 12.3707 83.767 11.8831Z" fill="#DFDFDF"/>
<path d="M106.794 77.2983C107.786 76.8106 109.479 78.2229 110.576 80.4529C111.673 82.6828 111.759 84.8858 110.768 85.3735C109.777 85.8612 108.084 84.4489 106.987 82.219C105.89 79.989 105.803 77.786 106.794 77.2983ZM111.281 75.0907C112.272 74.603 113.965 76.0153 115.062 78.2452C116.159 80.4752 116.246 82.6782 115.254 83.1659C114.263 83.6536 112.57 82.2413 111.473 80.0113C110.376 77.7814 110.29 75.5784 111.281 75.0907ZM115.767 72.8831C116.758 72.3954 118.451 73.8077 119.548 76.0376C120.646 78.2675 120.732 80.4706 119.741 80.9583C118.75 81.446 117.057 80.0336 115.959 77.8037C114.862 75.5738 114.776 73.3707 115.767 72.8831Z" fill="#DFDFDF"/>
<path d="M113.037 47.7033C114.071 48.0918 114.201 50.2927 113.327 52.6192C112.453 54.9458 110.906 56.5169 109.872 56.1285C108.838 55.74 108.709 53.5391 109.583 51.2126C110.457 48.886 112.003 47.3149 113.037 47.7033ZM117.718 49.4617C118.752 49.8501 118.882 52.0511 118.008 54.3776C117.134 56.7041 115.587 58.2753 114.553 57.8868C113.519 57.4984 113.389 55.2974 114.263 52.9709C115.137 50.6444 116.684 49.0732 117.718 49.4617ZM122.399 51.22C123.433 51.6085 123.562 53.8094 122.688 56.1359C121.814 58.4625 120.268 60.0336 119.233 59.6452C118.199 59.2567 118.07 57.0558 118.944 54.7293C119.818 52.4027 121.365 50.8316 122.399 51.22Z" fill="#DFDFDF"/>
<path d="M104.037 95.7033C105.071 96.0918 105.201 98.2927 104.327 100.619C103.453 102.946 101.906 104.517 100.872 104.128C99.8382 103.74 99.7085 101.539 100.583 99.2126C101.457 96.886 103.003 95.3149 104.037 95.7033ZM108.718 97.4617C109.752 97.8501 109.882 100.051 109.008 102.378C108.134 104.704 106.587 106.275 105.553 105.887C104.519 105.498 104.389 103.297 105.263 100.971C106.137 98.6444 107.684 97.0732 108.718 97.4617ZM113.399 99.22C114.433 99.6085 114.562 101.809 113.688 104.136C112.814 106.462 111.268 108.034 110.233 107.645C109.199 107.257 109.07 105.056 109.944 102.729C110.818 100.403 112.365 98.8316 113.399 99.22Z" fill="#DFDFDF"/>
<path d="M73.0373 106.703C74.0713 107.092 74.201 109.293 73.327 111.619C72.453 113.946 70.9063 115.517 69.8723 115.128C68.8382 114.74 68.7085 112.539 69.5825 110.213C70.4565 107.886 72.0033 106.315 73.0373 106.703ZM77.7179 108.462C78.7519 108.85 78.8816 111.051 78.0076 113.378C77.1336 115.704 75.5869 117.275 74.5529 116.887C73.5189 116.498 73.3891 114.297 74.2631 111.971C75.1371 109.644 76.6839 108.073 77.7179 108.462ZM82.3985 110.22C83.4325 110.608 83.5623 112.809 82.6883 115.136C81.8143 117.462 80.2675 119.034 79.2335 118.645C78.1995 118.257 78.0698 116.056 78.9438 113.729C79.8178 111.403 81.3645 109.832 82.3985 110.22Z" fill="#DFDFDF"/>
<path d="M64.4948 27.5731C65.553 27.8895 65.8336 30.0764 65.1215 32.4574C64.4094 34.8385 62.9743 36.5122 61.916 36.1957C60.8577 35.8792 60.5771 33.6924 61.2892 31.3113C62.0013 28.9302 63.4365 27.2566 64.4948 27.5731ZM69.2851 29.0057C70.3434 29.3222 70.624 31.509 69.9119 33.8901C69.1998 36.2712 67.7646 37.9448 66.7064 37.6283C65.6481 37.3119 65.3675 35.125 66.0796 32.744C66.7917 30.3629 68.2269 28.6892 69.2851 29.0057ZM74.0755 30.4383C75.1337 30.7548 75.4143 32.9416 74.7022 35.3227C73.9901 37.7038 72.555 39.3775 71.4967 39.061C70.4385 38.7445 70.1579 36.5577 70.87 34.1766C71.5821 31.7955 73.0172 30.1218 74.0755 30.4383Z" fill="#DFDFDF"/>
<mask id="path-18-inside-2_372_1608" fill="white">
<path d="M70.5 16.5C105.085 16.5 125.5 41.3482 125.5 72C124.5 102.652 104.585 108 72 115C39.4152 108 19 102.652 18 72C18 41.3482 35.9152 16.5 70.5 16.5ZM72.1953 37C45.1709 37 31 52.1905 31 78.3301C34.7814 104.47 46.7338 95.7361 72.1953 109C97.6569 95.7361 109.219 104.47 113 78.3301C113 52.1905 99.2197 37 72.1953 37Z"/>
</mask>
<path d="M125.5 72L127.499 72.0652L127.5 72.0326V72H125.5ZM72 115L71.5799 116.955L72 117.046L72.4201 116.955L72 115ZM18 72H16V72.0326L16.0011 72.0652L18 72ZM72.1953 37V35V35V37ZM31 78.3301H29V78.474L29.0206 78.6164L31 78.3301ZM72.1953 109L71.2713 110.774L72.1953 111.255L73.1193 110.774L72.1953 109ZM113 78.3301L114.979 78.6164L115 78.474V78.3301H113ZM70.5 16.5V18.5C87.2864 18.5 100.493 24.5162 109.511 34.1243C118.546 43.7507 123.5 57.1153 123.5 72H125.5H127.5C127.5 56.2329 122.246 41.8475 112.428 31.3868C102.592 20.9079 88.2984 14.5 70.5 14.5V16.5ZM125.5 72L123.501 71.9348C123.258 79.3874 121.869 85.1619 119.52 89.7549C117.18 94.3303 113.832 97.8425 109.494 100.699C100.692 106.496 87.9734 109.523 71.5799 113.045L72 115L72.4201 116.955C88.6114 113.477 102.143 110.33 111.694 104.04C116.534 100.853 120.388 96.8433 123.082 91.5763C125.766 86.327 127.242 79.9385 127.499 72.0652L125.5 72ZM72 115L72.4201 113.045C56.0259 109.523 43.1766 106.495 34.2453 100.692C29.8424 97.8317 26.434 94.3162 24.0509 89.7416C21.6594 85.151 20.2419 79.381 19.9989 71.9348L18 72L16.0011 72.0652C16.2581 79.9449 17.7675 86.3379 20.5034 91.5896C23.2476 96.8574 27.1671 100.864 32.0661 104.047C41.7386 110.331 55.3893 113.477 71.5799 116.955L72 115ZM18 72H20C20 57.048 24.3689 43.6769 32.7848 34.0738C41.169 24.5069 53.7235 18.5 70.5 18.5V16.5V14.5C52.6917 14.5 38.9962 20.9172 29.7766 31.4374C20.5887 41.9213 16 56.3002 16 72H18ZM72.1953 37V35C58.314 35 47.4352 38.9084 40.0348 46.4631C32.6413 54.0108 29 64.9121 29 78.3301H31H33C33 65.6085 36.4442 55.8447 42.8922 49.2622C49.3334 42.6868 59.0523 39 72.1953 39V37ZM31 78.3301L29.0206 78.6164C29.9848 85.2815 31.5002 89.9752 33.7892 93.3967C36.1223 96.8839 39.1371 98.8696 42.7046 100.342C46.1413 101.761 50.3711 102.797 54.9641 104.201C59.6525 105.634 65.0498 107.533 71.2713 110.774L72.1953 109L73.1193 107.226C66.61 103.835 60.9652 101.852 56.1333 100.375C51.2061 98.8693 47.4374 97.9682 44.2307 96.6446C41.1547 95.3751 38.8811 93.814 37.1138 91.1725C35.3026 88.4653 33.9059 84.4484 32.9794 78.0437L31 78.3301ZM72.1953 109L73.1193 110.774C79.3426 107.532 84.7171 105.632 89.3696 104.199C93.9276 102.795 98.1085 101.759 101.5 100.338C105.025 98.8616 107.989 96.8711 110.281 93.3829C112.527 89.9643 114.016 85.2754 114.979 78.6164L113 78.3301L111.021 78.0437C110.093 84.4544 108.719 88.4762 106.938 91.1863C105.203 93.8268 102.976 95.3831 99.955 96.6487C96.8011 97.9698 93.0812 98.8707 88.1922 100.377C83.3976 101.853 77.7788 103.836 71.2713 107.226L72.1953 109ZM113 78.3301H115C115 64.9263 111.464 54.0257 104.17 46.4733C96.8653 38.9091 86.0773 35 72.1953 35V37V39C85.3377 39 94.9521 42.6861 101.293 49.2521C107.646 55.8299 111 65.5942 111 78.3301H113Z" fill="#060040" mask="url(#path-18-inside-2_372_1608)"/>
</g>
</svg>
