<svg width="144" height="137" viewBox="0 0 144 137" fill="none" xmlns="http://www.w3.org/2000/svg">
<path d="M73 28.5C90.5928 28.5 106.472 30.1724 117.912 32.8535C123.644 34.1969 128.178 35.7754 131.243 37.4736C132.776 38.323 133.872 39.1651 134.569 39.9639C135.258 40.7529 135.5 41.4269 135.5 42C135.5 42.5731 135.258 43.2471 134.569 44.0361C133.872 44.8349 132.776 45.677 131.243 46.5264C128.178 48.2246 123.644 49.8031 117.912 51.1465C106.472 53.8276 90.5928 55.5 73 55.5C55.4072 55.5 39.5277 53.8276 28.0879 51.1465C22.3561 49.8031 17.8217 48.2246 14.7568 46.5264C13.224 45.677 12.1281 44.8349 11.4307 44.0361C10.7418 43.2471 10.5 42.5731 10.5 42C10.5 41.4269 10.7418 40.7529 11.4307 39.9639C12.1281 39.1651 13.224 38.323 14.7568 37.4736C17.8217 35.7754 22.3561 34.1969 28.0879 32.8535C39.5277 30.1724 55.4072 28.5 73 28.5Z" fill="#E7CB90" stroke="#8E743F" stroke-width="3"/>
<path d="M39 7.48936L62.14 5.07909C69.028 4.36164 75.972 4.36164 82.86 5.07909L106 7.48936L116 45H29L39 7.48936Z" fill="#E7CB90"/>
<path d="M31 36L52 39.5L65.2024 40.466C70.061 40.8215 74.939 40.8215 79.7976 40.466L93 39.5L114 36" stroke="#8B4F00" stroke-width="7"/>
<path d="M30 41L38.4746 8.59081C38.7907 7.38193 39.823 6.49556 41.0658 6.36594L55.5 4.86047L73 4L91 4.86047L104.956 6.36152C106.188 6.49404 107.212 7.37038 107.533 8.56721L116 40.1395" stroke="#8E743F" stroke-width="3"/>
</svg>
